<?xml version="1.0" encoding="utf-8" standalone="no"?>
<!DOCTYPE svg PUBLIC "-//W3C//DTD SVG 1.1//EN"
  "http://www.w3.org/Graphics/SVG/1.1/DTD/svg11.dtd">
<!-- Created with matplotlib (https://matplotlib.org/) -->
<svg height="288pt" version="1.1" viewBox="0 0 432 288" width="432pt" xmlns="http://www.w3.org/2000/svg" xmlns:xlink="http://www.w3.org/1999/xlink">
 <defs>
  <style type="text/css">
*{stroke-linecap:butt;stroke-linejoin:round;}
  </style>
 </defs>
 <g id="figure_1">
  <g id="patch_1">
   <path d="M 0 288 
L 432 288 
L 432 0 
L 0 0 
z
" style="fill:#ffffff;"/>
  </g>
  <g id="axes_1">
   <g id="patch_2">
    <path d="M 54 256.32 
L 388.8 256.32 
L 388.8 34.56 
L 54 34.56 
z
" style="fill:#ffffff;"/>
   </g>
   <g id="matplotlib.axis_1">
    <g id="xtick_1">
     <g id="line2d_1">
      <defs>
       <path d="M 0 0 
L 0 3.5 
" id="m4fbad2b68a" style="stroke:#000000;stroke-width:0.8;"/>
      </defs>
      <g>
       <use style="stroke:#000000;stroke-width:0.8;" x="69.218182" xlink:href="#m4fbad2b68a" y="256.32"/>
      </g>
     </g>
     <g id="text_1">
      <!-- 0 -->
      <defs>
       <path d="M 31.78125 66.40625 
Q 24.171875 66.40625 20.328125 58.90625 
Q 16.5 51.421875 16.5 36.375 
Q 16.5 21.390625 20.328125 13.890625 
Q 24.171875 6.390625 31.78125 6.390625 
Q 39.453125 6.390625 43.28125 13.890625 
Q 47.125 21.390625 47.125 36.375 
Q 47.125 51.421875 43.28125 58.90625 
Q 39.453125 66.40625 31.78125 66.40625 
z
M 31.78125 74.21875 
Q 44.046875 74.21875 50.515625 64.515625 
Q 56.984375 54.828125 56.984375 36.375 
Q 56.984375 17.96875 50.515625 8.265625 
Q 44.046875 -1.421875 31.78125 -1.421875 
Q 19.53125 -1.421875 13.0625 8.265625 
Q 6.59375 17.96875 6.59375 36.375 
Q 6.59375 54.828125 13.0625 64.515625 
Q 19.53125 74.21875 31.78125 74.21875 
z
" id="DejaVuSans-48"/>
      </defs>
      <g transform="translate(66.036932 270.918437)scale(0.1 -0.1)">
       <use xlink:href="#DejaVuSans-48"/>
      </g>
     </g>
    </g>
    <g id="xtick_2">
     <g id="line2d_2">
      <g>
       <use style="stroke:#000000;stroke-width:0.8;" x="130.090909" xlink:href="#m4fbad2b68a" y="256.32"/>
      </g>
     </g>
     <g id="text_2">
      <!-- 200 -->
      <defs>
       <path d="M 19.1875 8.296875 
L 53.609375 8.296875 
L 53.609375 0 
L 7.328125 0 
L 7.328125 8.296875 
Q 12.9375 14.109375 22.625 23.890625 
Q 32.328125 33.6875 34.8125 36.53125 
Q 39.546875 41.84375 41.421875 45.53125 
Q 43.3125 49.21875 43.3125 52.78125 
Q 43.3125 58.59375 39.234375 62.25 
Q 35.15625 65.921875 28.609375 65.921875 
Q 23.96875 65.921875 18.8125 64.3125 
Q 13.671875 62.703125 7.8125 59.421875 
L 7.8125 69.390625 
Q 13.765625 71.78125 18.9375 73 
Q 24.125 74.21875 28.421875 74.21875 
Q 39.75 74.21875 46.484375 68.546875 
Q 53.21875 62.890625 53.21875 53.421875 
Q 53.21875 48.921875 51.53125 44.890625 
Q 49.859375 40.875 45.40625 35.40625 
Q 44.1875 33.984375 37.640625 27.21875 
Q 31.109375 20.453125 19.1875 8.296875 
z
" id="DejaVuSans-50"/>
      </defs>
      <g transform="translate(120.547159 270.918437)scale(0.1 -0.1)">
       <use xlink:href="#DejaVuSans-50"/>
       <use x="63.623047" xlink:href="#DejaVuSans-48"/>
       <use x="127.246094" xlink:href="#DejaVuSans-48"/>
      </g>
     </g>
    </g>
    <g id="xtick_3">
     <g id="line2d_3">
      <g>
       <use style="stroke:#000000;stroke-width:0.8;" x="190.963636" xlink:href="#m4fbad2b68a" y="256.32"/>
      </g>
     </g>
     <g id="text_3">
      <!-- 400 -->
      <defs>
       <path d="M 37.796875 64.3125 
L 12.890625 25.390625 
L 37.796875 25.390625 
z
M 35.203125 72.90625 
L 47.609375 72.90625 
L 47.609375 25.390625 
L 58.015625 25.390625 
L 58.015625 17.1875 
L 47.609375 17.1875 
L 47.609375 0 
L 37.796875 0 
L 37.796875 17.1875 
L 4.890625 17.1875 
L 4.890625 26.703125 
z
" id="DejaVuSans-52"/>
      </defs>
      <g transform="translate(181.419886 270.918437)scale(0.1 -0.1)">
       <use xlink:href="#DejaVuSans-52"/>
       <use x="63.623047" xlink:href="#DejaVuSans-48"/>
       <use x="127.246094" xlink:href="#DejaVuSans-48"/>
      </g>
     </g>
    </g>
    <g id="xtick_4">
     <g id="line2d_4">
      <g>
       <use style="stroke:#000000;stroke-width:0.8;" x="251.836364" xlink:href="#m4fbad2b68a" y="256.32"/>
      </g>
     </g>
     <g id="text_4">
      <!-- 600 -->
      <defs>
       <path d="M 33.015625 40.375 
Q 26.375 40.375 22.484375 35.828125 
Q 18.609375 31.296875 18.609375 23.390625 
Q 18.609375 15.53125 22.484375 10.953125 
Q 26.375 6.390625 33.015625 6.390625 
Q 39.65625 6.390625 43.53125 10.953125 
Q 47.40625 15.53125 47.40625 23.390625 
Q 47.40625 31.296875 43.53125 35.828125 
Q 39.65625 40.375 33.015625 40.375 
z
M 52.59375 71.296875 
L 52.59375 62.3125 
Q 48.875 64.0625 45.09375 64.984375 
Q 41.3125 65.921875 37.59375 65.921875 
Q 27.828125 65.921875 22.671875 59.328125 
Q 17.53125 52.734375 16.796875 39.40625 
Q 19.671875 43.65625 24.015625 45.921875 
Q 28.375 48.1875 33.59375 48.1875 
Q 44.578125 48.1875 50.953125 41.515625 
Q 57.328125 34.859375 57.328125 23.390625 
Q 57.328125 12.15625 50.6875 5.359375 
Q 44.046875 -1.421875 33.015625 -1.421875 
Q 20.359375 -1.421875 13.671875 8.265625 
Q 6.984375 17.96875 6.984375 36.375 
Q 6.984375 53.65625 15.1875 63.9375 
Q 23.390625 74.21875 37.203125 74.21875 
Q 40.921875 74.21875 44.703125 73.484375 
Q 48.484375 72.75 52.59375 71.296875 
z
" id="DejaVuSans-54"/>
      </defs>
      <g transform="translate(242.292614 270.918437)scale(0.1 -0.1)">
       <use xlink:href="#DejaVuSans-54"/>
       <use x="63.623047" xlink:href="#DejaVuSans-48"/>
       <use x="127.246094" xlink:href="#DejaVuSans-48"/>
      </g>
     </g>
    </g>
    <g id="xtick_5">
     <g id="line2d_5">
      <g>
       <use style="stroke:#000000;stroke-width:0.8;" x="312.709091" xlink:href="#m4fbad2b68a" y="256.32"/>
      </g>
     </g>
     <g id="text_5">
      <!-- 800 -->
      <defs>
       <path d="M 31.78125 34.625 
Q 24.75 34.625 20.71875 30.859375 
Q 16.703125 27.09375 16.703125 20.515625 
Q 16.703125 13.921875 20.71875 10.15625 
Q 24.75 6.390625 31.78125 6.390625 
Q 38.8125 6.390625 42.859375 10.171875 
Q 46.921875 13.96875 46.921875 20.515625 
Q 46.921875 27.09375 42.890625 30.859375 
Q 38.875 34.625 31.78125 34.625 
z
M 21.921875 38.8125 
Q 15.578125 40.375 12.03125 44.71875 
Q 8.5 49.078125 8.5 55.328125 
Q 8.5 64.0625 14.71875 69.140625 
Q 20.953125 74.21875 31.78125 74.21875 
Q 42.671875 74.21875 48.875 69.140625 
Q 55.078125 64.0625 55.078125 55.328125 
Q 55.078125 49.078125 51.53125 44.71875 
Q 48 40.375 41.703125 38.8125 
Q 48.828125 37.15625 52.796875 32.3125 
Q 56.78125 27.484375 56.78125 20.515625 
Q 56.78125 9.90625 50.3125 4.234375 
Q 43.84375 -1.421875 31.78125 -1.421875 
Q 19.734375 -1.421875 13.25 4.234375 
Q 6.78125 9.90625 6.78125 20.515625 
Q 6.78125 27.484375 10.78125 32.3125 
Q 14.796875 37.15625 21.921875 38.8125 
z
M 18.3125 54.390625 
Q 18.3125 48.734375 21.84375 45.5625 
Q 25.390625 42.390625 31.78125 42.390625 
Q 38.140625 42.390625 41.71875 45.5625 
Q 45.3125 48.734375 45.3125 54.390625 
Q 45.3125 60.0625 41.71875 63.234375 
Q 38.140625 66.40625 31.78125 66.40625 
Q 25.390625 66.40625 21.84375 63.234375 
Q 18.3125 60.0625 18.3125 54.390625 
z
" id="DejaVuSans-56"/>
      </defs>
      <g transform="translate(303.165341 270.918437)scale(0.1 -0.1)">
       <use xlink:href="#DejaVuSans-56"/>
       <use x="63.623047" xlink:href="#DejaVuSans-48"/>
       <use x="127.246094" xlink:href="#DejaVuSans-48"/>
      </g>
     </g>
    </g>
    <g id="xtick_6">
     <g id="line2d_6">
      <g>
       <use style="stroke:#000000;stroke-width:0.8;" x="373.581818" xlink:href="#m4fbad2b68a" y="256.32"/>
      </g>
     </g>
     <g id="text_6">
      <!-- 1000 -->
      <defs>
       <path d="M 12.40625 8.296875 
L 28.515625 8.296875 
L 28.515625 63.921875 
L 10.984375 60.40625 
L 10.984375 69.390625 
L 28.421875 72.90625 
L 38.28125 72.90625 
L 38.28125 8.296875 
L 54.390625 8.296875 
L 54.390625 0 
L 12.40625 0 
z
" id="DejaVuSans-49"/>
      </defs>
      <g transform="translate(360.856818 270.918437)scale(0.1 -0.1)">
       <use xlink:href="#DejaVuSans-49"/>
       <use x="63.623047" xlink:href="#DejaVuSans-48"/>
       <use x="127.246094" xlink:href="#DejaVuSans-48"/>
       <use x="190.869141" xlink:href="#DejaVuSans-48"/>
      </g>
     </g>
    </g>
    <g id="text_7">
     <!-- Episode -->
     <defs>
      <path d="M 9.8125 72.90625 
L 55.90625 72.90625 
L 55.90625 64.59375 
L 19.671875 64.59375 
L 19.671875 43.015625 
L 54.390625 43.015625 
L 54.390625 34.71875 
L 19.671875 34.71875 
L 19.671875 8.296875 
L 56.78125 8.296875 
L 56.78125 0 
L 9.8125 0 
z
" id="DejaVuSans-69"/>
      <path d="M 18.109375 8.203125 
L 18.109375 -20.796875 
L 9.078125 -20.796875 
L 9.078125 54.6875 
L 18.109375 54.6875 
L 18.109375 46.390625 
Q 20.953125 51.265625 25.265625 53.625 
Q 29.59375 56 35.59375 56 
Q 45.5625 56 51.78125 48.09375 
Q 58.015625 40.1875 58.015625 27.296875 
Q 58.015625 14.40625 51.78125 6.484375 
Q 45.5625 -1.421875 35.59375 -1.421875 
Q 29.59375 -1.421875 25.265625 0.953125 
Q 20.953125 3.328125 18.109375 8.203125 
z
M 48.6875 27.296875 
Q 48.6875 37.203125 44.609375 42.84375 
Q 40.53125 48.484375 33.40625 48.484375 
Q 26.265625 48.484375 22.1875 42.84375 
Q 18.109375 37.203125 18.109375 27.296875 
Q 18.109375 17.390625 22.1875 11.75 
Q 26.265625 6.109375 33.40625 6.109375 
Q 40.53125 6.109375 44.609375 11.75 
Q 48.6875 17.390625 48.6875 27.296875 
z
" id="DejaVuSans-112"/>
      <path d="M 9.421875 54.6875 
L 18.40625 54.6875 
L 18.40625 0 
L 9.421875 0 
z
M 9.421875 75.984375 
L 18.40625 75.984375 
L 18.40625 64.59375 
L 9.421875 64.59375 
z
" id="DejaVuSans-105"/>
      <path d="M 44.28125 53.078125 
L 44.28125 44.578125 
Q 40.484375 46.53125 36.375 47.5 
Q 32.28125 48.484375 27.875 48.484375 
Q 21.1875 48.484375 17.84375 46.4375 
Q 14.5 44.390625 14.5 40.28125 
Q 14.5 37.15625 16.890625 35.375 
Q 19.28125 33.59375 26.515625 31.984375 
L 29.59375 31.296875 
Q 39.15625 29.25 43.1875 25.515625 
Q 47.21875 21.78125 47.21875 15.09375 
Q 47.21875 7.46875 41.1875 3.015625 
Q 35.15625 -1.421875 24.609375 -1.421875 
Q 20.21875 -1.421875 15.453125 -0.5625 
Q 10.6875 0.296875 5.421875 2 
L 5.421875 11.28125 
Q 10.40625 8.6875 15.234375 7.390625 
Q 20.0625 6.109375 24.8125 6.109375 
Q 31.15625 6.109375 34.5625 8.28125 
Q 37.984375 10.453125 37.984375 14.40625 
Q 37.984375 18.0625 35.515625 20.015625 
Q 33.0625 21.96875 24.703125 23.78125 
L 21.578125 24.515625 
Q 13.234375 26.265625 9.515625 29.90625 
Q 5.8125 33.546875 5.8125 39.890625 
Q 5.8125 47.609375 11.28125 51.796875 
Q 16.75 56 26.8125 56 
Q 31.78125 56 36.171875 55.265625 
Q 40.578125 54.546875 44.28125 53.078125 
z
" id="DejaVuSans-115"/>
      <path d="M 30.609375 48.390625 
Q 23.390625 48.390625 19.1875 42.75 
Q 14.984375 37.109375 14.984375 27.296875 
Q 14.984375 17.484375 19.15625 11.84375 
Q 23.34375 6.203125 30.609375 6.203125 
Q 37.796875 6.203125 41.984375 11.859375 
Q 46.1875 17.53125 46.1875 27.296875 
Q 46.1875 37.015625 41.984375 42.703125 
Q 37.796875 48.390625 30.609375 48.390625 
z
M 30.609375 56 
Q 42.328125 56 49.015625 48.375 
Q 55.71875 40.765625 55.71875 27.296875 
Q 55.71875 13.875 49.015625 6.21875 
Q 42.328125 -1.421875 30.609375 -1.421875 
Q 18.84375 -1.421875 12.171875 6.21875 
Q 5.515625 13.875 5.515625 27.296875 
Q 5.515625 40.765625 12.171875 48.375 
Q 18.84375 56 30.609375 56 
z
" id="DejaVuSans-111"/>
      <path d="M 45.40625 46.390625 
L 45.40625 75.984375 
L 54.390625 75.984375 
L 54.390625 0 
L 45.40625 0 
L 45.40625 8.203125 
Q 42.578125 3.328125 38.25 0.953125 
Q 33.9375 -1.421875 27.875 -1.421875 
Q 17.96875 -1.421875 11.734375 6.484375 
Q 5.515625 14.40625 5.515625 27.296875 
Q 5.515625 40.1875 11.734375 48.09375 
Q 17.96875 56 27.875 56 
Q 33.9375 56 38.25 53.625 
Q 42.578125 51.265625 45.40625 46.390625 
z
M 14.796875 27.296875 
Q 14.796875 17.390625 18.875 11.75 
Q 22.953125 6.109375 30.078125 6.109375 
Q 37.203125 6.109375 41.296875 11.75 
Q 45.40625 17.390625 45.40625 27.296875 
Q 45.40625 37.203125 41.296875 42.84375 
Q 37.203125 48.484375 30.078125 48.484375 
Q 22.953125 48.484375 18.875 42.84375 
Q 14.796875 37.203125 14.796875 27.296875 
z
" id="DejaVuSans-100"/>
      <path d="M 56.203125 29.59375 
L 56.203125 25.203125 
L 14.890625 25.203125 
Q 15.484375 15.921875 20.484375 11.0625 
Q 25.484375 6.203125 34.421875 6.203125 
Q 39.59375 6.203125 44.453125 7.46875 
Q 49.3125 8.734375 54.109375 11.28125 
L 54.109375 2.78125 
Q 49.265625 0.734375 44.1875 -0.34375 
Q 39.109375 -1.421875 33.890625 -1.421875 
Q 20.796875 -1.421875 13.15625 6.1875 
Q 5.515625 13.8125 5.515625 26.8125 
Q 5.515625 40.234375 12.765625 48.109375 
Q 20.015625 56 32.328125 56 
Q 43.359375 56 49.78125 48.890625 
Q 56.203125 41.796875 56.203125 29.59375 
z
M 47.21875 32.234375 
Q 47.125 39.59375 43.09375 43.984375 
Q 39.0625 48.390625 32.421875 48.390625 
Q 24.90625 48.390625 20.390625 44.140625 
Q 15.875 39.890625 15.1875 32.171875 
z
" id="DejaVuSans-101"/>
     </defs>
     <g transform="translate(201.7625 284.596563)scale(0.1 -0.1)">
      <use xlink:href="#DejaVuSans-69"/>
      <use x="63.183594" xlink:href="#DejaVuSans-112"/>
      <use x="126.660156" xlink:href="#DejaVuSans-105"/>
      <use x="154.443359" xlink:href="#DejaVuSans-115"/>
      <use x="206.542969" xlink:href="#DejaVuSans-111"/>
      <use x="267.724609" xlink:href="#DejaVuSans-100"/>
      <use x="331.201172" xlink:href="#DejaVuSans-101"/>
     </g>
    </g>
   </g>
   <g id="matplotlib.axis_2">
    <g id="ytick_1">
     <g id="line2d_7">
      <defs>
       <path d="M 0 0 
L -3.5 0 
" id="m887db4bfe1" style="stroke:#000000;stroke-width:0.8;"/>
      </defs>
      <g>
       <use style="stroke:#000000;stroke-width:0.8;" x="54" xlink:href="#m887db4bfe1" y="232.976842"/>
      </g>
     </g>
     <g id="text_8">
      <!-- −90 -->
      <defs>
       <path d="M 10.59375 35.5 
L 73.1875 35.5 
L 73.1875 27.203125 
L 10.59375 27.203125 
z
" id="DejaVuSans-8722"/>
       <path d="M 10.984375 1.515625 
L 10.984375 10.5 
Q 14.703125 8.734375 18.5 7.8125 
Q 22.3125 6.890625 25.984375 6.890625 
Q 35.75 6.890625 40.890625 13.453125 
Q 46.046875 20.015625 46.78125 33.40625 
Q 43.953125 29.203125 39.59375 26.953125 
Q 35.25 24.703125 29.984375 24.703125 
Q 19.046875 24.703125 12.671875 31.3125 
Q 6.296875 37.9375 6.296875 49.421875 
Q 6.296875 60.640625 12.9375 67.421875 
Q 19.578125 74.21875 30.609375 74.21875 
Q 43.265625 74.21875 49.921875 64.515625 
Q 56.59375 54.828125 56.59375 36.375 
Q 56.59375 19.140625 48.40625 8.859375 
Q 40.234375 -1.421875 26.421875 -1.421875 
Q 22.703125 -1.421875 18.890625 -0.6875 
Q 15.09375 0.046875 10.984375 1.515625 
z
M 30.609375 32.421875 
Q 37.25 32.421875 41.125 36.953125 
Q 45.015625 41.5 45.015625 49.421875 
Q 45.015625 57.28125 41.125 61.84375 
Q 37.25 66.40625 30.609375 66.40625 
Q 23.96875 66.40625 20.09375 61.84375 
Q 16.21875 57.28125 16.21875 49.421875 
Q 16.21875 41.5 20.09375 36.953125 
Q 23.96875 32.421875 30.609375 32.421875 
z
" id="DejaVuSans-57"/>
      </defs>
      <g transform="translate(25.895312 236.776061)scale(0.1 -0.1)">
       <use xlink:href="#DejaVuSans-8722"/>
       <use x="83.789062" xlink:href="#DejaVuSans-57"/>
       <use x="147.412109" xlink:href="#DejaVuSans-48"/>
      </g>
     </g>
    </g>
    <g id="ytick_2">
     <g id="line2d_8">
      <g>
       <use style="stroke:#000000;stroke-width:0.8;" x="54" xlink:href="#m887db4bfe1" y="209.633684"/>
      </g>
     </g>
     <g id="text_9">
      <!-- −80 -->
      <g transform="translate(25.895312 213.432903)scale(0.1 -0.1)">
       <use xlink:href="#DejaVuSans-8722"/>
       <use x="83.789062" xlink:href="#DejaVuSans-56"/>
       <use x="147.412109" xlink:href="#DejaVuSans-48"/>
      </g>
     </g>
    </g>
    <g id="ytick_3">
     <g id="line2d_9">
      <g>
       <use style="stroke:#000000;stroke-width:0.8;" x="54" xlink:href="#m887db4bfe1" y="162.947368"/>
      </g>
     </g>
     <g id="text_10">
      <!-- −60 -->
      <g transform="translate(25.895312 166.746587)scale(0.1 -0.1)">
       <use xlink:href="#DejaVuSans-8722"/>
       <use x="83.789062" xlink:href="#DejaVuSans-54"/>
       <use x="147.412109" xlink:href="#DejaVuSans-48"/>
      </g>
     </g>
    </g>
    <g id="ytick_4">
     <g id="line2d_10">
      <g>
       <use style="stroke:#000000;stroke-width:0.8;" x="54" xlink:href="#m887db4bfe1" y="116.261053"/>
      </g>
     </g>
     <g id="text_11">
      <!-- −40 -->
      <g transform="translate(25.895312 120.060271)scale(0.1 -0.1)">
       <use xlink:href="#DejaVuSans-8722"/>
       <use x="83.789062" xlink:href="#DejaVuSans-52"/>
       <use x="147.412109" xlink:href="#DejaVuSans-48"/>
      </g>
     </g>
    </g>
    <g id="ytick_5">
     <g id="line2d_11">
      <g>
       <use style="stroke:#000000;stroke-width:0.8;" x="54" xlink:href="#m887db4bfe1" y="69.574737"/>
      </g>
     </g>
     <g id="text_12">
      <!-- −20 -->
      <g transform="translate(25.895312 73.373956)scale(0.1 -0.1)">
       <use xlink:href="#DejaVuSans-8722"/>
       <use x="83.789062" xlink:href="#DejaVuSans-50"/>
       <use x="147.412109" xlink:href="#DejaVuSans-48"/>
      </g>
     </g>
    </g>
    <g id="ytick_6">
     <g id="line2d_12">
      <g>
       <use style="stroke:#000000;stroke-width:0.8;" x="54" xlink:href="#m887db4bfe1" y="46.231579"/>
      </g>
     </g>
     <g id="text_13">
      <!-- −10 -->
      <g transform="translate(25.895312 50.030798)scale(0.1 -0.1)">
       <use xlink:href="#DejaVuSans-8722"/>
       <use x="83.789062" xlink:href="#DejaVuSans-49"/>
       <use x="147.412109" xlink:href="#DejaVuSans-48"/>
      </g>
     </g>
    </g>
    <g id="text_14">
     <!-- Total reward on episode (averaged over 100 runs) -->
     <defs>
      <path d="M -0.296875 72.90625 
L 61.375 72.90625 
L 61.375 64.59375 
L 35.5 64.59375 
L 35.5 0 
L 25.59375 0 
L 25.59375 64.59375 
L -0.296875 64.59375 
z
" id="DejaVuSans-84"/>
      <path d="M 18.3125 70.21875 
L 18.3125 54.6875 
L 36.8125 54.6875 
L 36.8125 47.703125 
L 18.3125 47.703125 
L 18.3125 18.015625 
Q 18.3125 11.328125 20.140625 9.421875 
Q 21.96875 7.515625 27.59375 7.515625 
L 36.8125 7.515625 
L 36.8125 0 
L 27.59375 0 
Q 17.1875 0 13.234375 3.875 
Q 9.28125 7.765625 9.28125 18.015625 
L 9.28125 47.703125 
L 2.6875 47.703125 
L 2.6875 54.6875 
L 9.28125 54.6875 
L 9.28125 70.21875 
z
" id="DejaVuSans-116"/>
      <path d="M 34.28125 27.484375 
Q 23.390625 27.484375 19.1875 25 
Q 14.984375 22.515625 14.984375 16.5 
Q 14.984375 11.71875 18.140625 8.90625 
Q 21.296875 6.109375 26.703125 6.109375 
Q 34.1875 6.109375 38.703125 11.40625 
Q 43.21875 16.703125 43.21875 25.484375 
L 43.21875 27.484375 
z
M 52.203125 31.203125 
L 52.203125 0 
L 43.21875 0 
L 43.21875 8.296875 
Q 40.140625 3.328125 35.546875 0.953125 
Q 30.953125 -1.421875 24.3125 -1.421875 
Q 15.921875 -1.421875 10.953125 3.296875 
Q 6 8.015625 6 15.921875 
Q 6 25.140625 12.171875 29.828125 
Q 18.359375 34.515625 30.609375 34.515625 
L 43.21875 34.515625 
L 43.21875 35.40625 
Q 43.21875 41.609375 39.140625 45 
Q 35.0625 48.390625 27.6875 48.390625 
Q 23 48.390625 18.546875 47.265625 
Q 14.109375 46.140625 10.015625 43.890625 
L 10.015625 52.203125 
Q 14.9375 54.109375 19.578125 55.046875 
Q 24.21875 56 28.609375 56 
Q 40.484375 56 46.34375 49.84375 
Q 52.203125 43.703125 52.203125 31.203125 
z
" id="DejaVuSans-97"/>
      <path d="M 9.421875 75.984375 
L 18.40625 75.984375 
L 18.40625 0 
L 9.421875 0 
z
" id="DejaVuSans-108"/>
      <path id="DejaVuSans-32"/>
      <path d="M 41.109375 46.296875 
Q 39.59375 47.171875 37.8125 47.578125 
Q 36.03125 48 33.890625 48 
Q 26.265625 48 22.1875 43.046875 
Q 18.109375 38.09375 18.109375 28.8125 
L 18.109375 0 
L 9.078125 0 
L 9.078125 54.6875 
L 18.109375 54.6875 
L 18.109375 46.1875 
Q 20.953125 51.171875 25.484375 53.578125 
Q 30.03125 56 36.53125 56 
Q 37.453125 56 38.578125 55.875 
Q 39.703125 55.765625 41.0625 55.515625 
z
" id="DejaVuSans-114"/>
      <path d="M 4.203125 54.6875 
L 13.1875 54.6875 
L 24.421875 12.015625 
L 35.59375 54.6875 
L 46.1875 54.6875 
L 57.421875 12.015625 
L 68.609375 54.6875 
L 77.59375 54.6875 
L 63.28125 0 
L 52.6875 0 
L 40.921875 44.828125 
L 29.109375 0 
L 18.5 0 
z
" id="DejaVuSans-119"/>
      <path d="M 54.890625 33.015625 
L 54.890625 0 
L 45.90625 0 
L 45.90625 32.71875 
Q 45.90625 40.484375 42.875 44.328125 
Q 39.84375 48.1875 33.796875 48.1875 
Q 26.515625 48.1875 22.3125 43.546875 
Q 18.109375 38.921875 18.109375 30.90625 
L 18.109375 0 
L 9.078125 0 
L 9.078125 54.6875 
L 18.109375 54.6875 
L 18.109375 46.1875 
Q 21.34375 51.125 25.703125 53.5625 
Q 30.078125 56 35.796875 56 
Q 45.21875 56 50.046875 50.171875 
Q 54.890625 44.34375 54.890625 33.015625 
z
" id="DejaVuSans-110"/>
      <path d="M 31 75.875 
Q 24.46875 64.65625 21.28125 53.65625 
Q 18.109375 42.671875 18.109375 31.390625 
Q 18.109375 20.125 21.3125 9.0625 
Q 24.515625 -2 31 -13.1875 
L 23.1875 -13.1875 
Q 15.875 -1.703125 12.234375 9.375 
Q 8.59375 20.453125 8.59375 31.390625 
Q 8.59375 42.28125 12.203125 53.3125 
Q 15.828125 64.359375 23.1875 75.875 
z
" id="DejaVuSans-40"/>
      <path d="M 2.984375 54.6875 
L 12.5 54.6875 
L 29.59375 8.796875 
L 46.6875 54.6875 
L 56.203125 54.6875 
L 35.6875 0 
L 23.484375 0 
z
" id="DejaVuSans-118"/>
      <path d="M 45.40625 27.984375 
Q 45.40625 37.75 41.375 43.109375 
Q 37.359375 48.484375 30.078125 48.484375 
Q 22.859375 48.484375 18.828125 43.109375 
Q 14.796875 37.75 14.796875 27.984375 
Q 14.796875 18.265625 18.828125 12.890625 
Q 22.859375 7.515625 30.078125 7.515625 
Q 37.359375 7.515625 41.375 12.890625 
Q 45.40625 18.265625 45.40625 27.984375 
z
M 54.390625 6.78125 
Q 54.390625 -7.171875 48.1875 -13.984375 
Q 42 -20.796875 29.203125 -20.796875 
Q 24.46875 -20.796875 20.265625 -20.09375 
Q 16.0625 -19.390625 12.109375 -17.921875 
L 12.109375 -9.1875 
Q 16.0625 -11.328125 19.921875 -12.34375 
Q 23.78125 -13.375 27.78125 -13.375 
Q 36.625 -13.375 41.015625 -8.765625 
Q 45.40625 -4.15625 45.40625 5.171875 
L 45.40625 9.625 
Q 42.625 4.78125 38.28125 2.390625 
Q 33.9375 0 27.875 0 
Q 17.828125 0 11.671875 7.65625 
Q 5.515625 15.328125 5.515625 27.984375 
Q 5.515625 40.671875 11.671875 48.328125 
Q 17.828125 56 27.875 56 
Q 33.9375 56 38.28125 53.609375 
Q 42.625 51.21875 45.40625 46.390625 
L 45.40625 54.6875 
L 54.390625 54.6875 
z
" id="DejaVuSans-103"/>
      <path d="M 8.5 21.578125 
L 8.5 54.6875 
L 17.484375 54.6875 
L 17.484375 21.921875 
Q 17.484375 14.15625 20.5 10.265625 
Q 23.53125 6.390625 29.59375 6.390625 
Q 36.859375 6.390625 41.078125 11.03125 
Q 45.3125 15.671875 45.3125 23.6875 
L 45.3125 54.6875 
L 54.296875 54.6875 
L 54.296875 0 
L 45.3125 0 
L 45.3125 8.40625 
Q 42.046875 3.421875 37.71875 1 
Q 33.40625 -1.421875 27.6875 -1.421875 
Q 18.265625 -1.421875 13.375 4.4375 
Q 8.5 10.296875 8.5 21.578125 
z
M 31.109375 56 
z
" id="DejaVuSans-117"/>
      <path d="M 8.015625 75.875 
L 15.828125 75.875 
Q 23.140625 64.359375 26.78125 53.3125 
Q 30.421875 42.28125 30.421875 31.390625 
Q 30.421875 20.453125 26.78125 9.375 
Q 23.140625 -1.703125 15.828125 -13.1875 
L 8.015625 -13.1875 
Q 14.5 -2 17.703125 9.0625 
Q 20.90625 20.125 20.90625 31.390625 
Q 20.90625 42.671875 17.703125 53.65625 
Q 14.5 64.65625 8.015625 75.875 
z
" id="DejaVuSans-41"/>
     </defs>
     <g transform="translate(19.815625 271.610313)rotate(-90)scale(0.1 -0.1)">
      <use xlink:href="#DejaVuSans-84"/>
      <use x="60.818359" xlink:href="#DejaVuSans-111"/>
      <use x="122" xlink:href="#DejaVuSans-116"/>
      <use x="161.208984" xlink:href="#DejaVuSans-97"/>
      <use x="222.488281" xlink:href="#DejaVuSans-108"/>
      <use x="250.271484" xlink:href="#DejaVuSans-32"/>
      <use x="282.058594" xlink:href="#DejaVuSans-114"/>
      <use x="323.140625" xlink:href="#DejaVuSans-101"/>
      <use x="384.664062" xlink:href="#DejaVuSans-119"/>
      <use x="466.451172" xlink:href="#DejaVuSans-97"/>
      <use x="527.730469" xlink:href="#DejaVuSans-114"/>
      <use x="568.828125" xlink:href="#DejaVuSans-100"/>
      <use x="632.304688" xlink:href="#DejaVuSans-32"/>
      <use x="664.091797" xlink:href="#DejaVuSans-111"/>
      <use x="725.273438" xlink:href="#DejaVuSans-110"/>
      <use x="788.652344" xlink:href="#DejaVuSans-32"/>
      <use x="820.439453" xlink:href="#DejaVuSans-101"/>
      <use x="881.962891" xlink:href="#DejaVuSans-112"/>
      <use x="945.439453" xlink:href="#DejaVuSans-105"/>
      <use x="973.222656" xlink:href="#DejaVuSans-115"/>
      <use x="1025.322266" xlink:href="#DejaVuSans-111"/>
      <use x="1086.503906" xlink:href="#DejaVuSans-100"/>
      <use x="1149.980469" xlink:href="#DejaVuSans-101"/>
      <use x="1211.503906" xlink:href="#DejaVuSans-32"/>
      <use x="1243.291016" xlink:href="#DejaVuSans-40"/>
      <use x="1282.304688" xlink:href="#DejaVuSans-97"/>
      <use x="1343.583984" xlink:href="#DejaVuSans-118"/>
      <use x="1402.763672" xlink:href="#DejaVuSans-101"/>
      <use x="1464.287109" xlink:href="#DejaVuSans-114"/>
      <use x="1505.400391" xlink:href="#DejaVuSans-97"/>
      <use x="1566.679688" xlink:href="#DejaVuSans-103"/>
      <use x="1630.15625" xlink:href="#DejaVuSans-101"/>
      <use x="1691.679688" xlink:href="#DejaVuSans-100"/>
      <use x="1755.15625" xlink:href="#DejaVuSans-32"/>
      <use x="1786.943359" xlink:href="#DejaVuSans-111"/>
      <use x="1848.125" xlink:href="#DejaVuSans-118"/>
      <use x="1907.304688" xlink:href="#DejaVuSans-101"/>
      <use x="1968.828125" xlink:href="#DejaVuSans-114"/>
      <use x="2009.941406" xlink:href="#DejaVuSans-32"/>
      <use x="2041.728516" xlink:href="#DejaVuSans-49"/>
      <use x="2105.351562" xlink:href="#DejaVuSans-48"/>
      <use x="2168.974609" xlink:href="#DejaVuSans-48"/>
      <use x="2232.597656" xlink:href="#DejaVuSans-32"/>
      <use x="2264.384766" xlink:href="#DejaVuSans-114"/>
      <use x="2305.498047" xlink:href="#DejaVuSans-117"/>
      <use x="2368.876953" xlink:href="#DejaVuSans-110"/>
      <use x="2432.255859" xlink:href="#DejaVuSans-115"/>
      <use x="2484.355469" xlink:href="#DejaVuSans-41"/>
     </g>
    </g>
   </g>
   <g id="line2d_13">
    <path clip-path="url(#p6357370625)" d="M 69.522545 49.966484 
L 373.581818 49.966484 
" style="fill:none;stroke:#808080;stroke-dasharray:1.85,0.8;stroke-dashoffset:0;stroke-width:0.5;"/>
   </g>
   <g id="line2d_14">
    <path clip-path="url(#p6357370625)" d="M 69.218182 210.053861 
L 69.522545 220.628312 
L 70.131273 138.973945 
L 70.435636 156.201196 
L 70.74 130.617095 
L 71.044364 122.82048 
L 71.348727 130.873869 
L 71.653091 99.897499 
L 71.957455 98.053389 
L 72.261818 94.948749 
L 72.566182 88.085861 
L 72.870545 101.181373 
L 73.174909 94.808691 
L 73.479273 100.737853 
L 73.783636 85.634829 
L 74.088 76.764429 
L 74.392364 78.701912 
L 75.001091 64.859419 
L 75.305455 73.753162 
L 75.609818 69.528051 
L 75.914182 73.776505 
L 76.218545 63.692261 
L 76.827273 75.293811 
L 77.740364 61.217886 
L 78.044727 60.72768 
L 78.349091 54.261625 
L 78.653455 61.264573 
L 78.957818 65.232909 
L 79.262182 59.350434 
L 79.566545 62.034897 
L 79.870909 60.657651 
L 80.175273 57.809785 
L 80.479636 56.455882 
L 80.784 61.778122 
L 81.088364 56.269137 
L 81.392727 55.778931 
L 81.697091 59.140345 
L 82.001455 58.183276 
L 82.610182 58.229962 
L 82.914545 55.522156 
L 83.218909 61.638063 
L 83.523273 52.324143 
L 83.827636 50.176573 
L 84.132 50.900211 
L 84.436364 53.561331 
L 85.045091 61.824808 
L 85.349455 53.491301 
L 85.653818 50.153229 
L 85.958182 48.169061 
L 86.262545 52.324143 
L 86.566909 54.681802 
L 86.871273 52.464202 
L 87.175636 45.904775 
L 87.48 52.954408 
L 87.784364 49.359562 
L 88.088727 52.3008 
L 88.393091 50.433347 
L 88.697455 51.507133 
L 89.001818 54.238282 
L 89.306182 53.117811 
L 89.610545 54.004851 
L 89.914909 49.19616 
L 90.219273 49.336219 
L 90.828 52.067368 
L 91.132364 50.643436 
L 91.436727 52.650947 
L 91.741091 45.181137 
L 92.045455 50.246602 
L 92.349818 51.950653 
L 92.654182 50.0832 
L 92.958545 53.654703 
L 93.262909 51.343731 
L 93.567273 50.106543 
L 93.871636 51.367074 
L 94.176 51.740564 
L 94.480364 51.670535 
L 94.784727 50.106543 
L 95.089091 52.114055 
L 95.393455 48.916042 
L 96.002182 45.904775 
L 96.306545 49.686366 
L 96.610909 51.040269 
L 97.219636 45.437912 
L 97.524 47.632168 
L 97.828364 48.425836 
L 98.132727 47.655512 
L 98.437091 50.480034 
L 98.741455 48.939385 
L 99.045818 49.592994 
L 99.350182 50.643436 
L 99.654545 47.165305 
L 99.958909 51.110299 
L 100.263273 47.001903 
L 100.567636 50.316632 
L 100.872 48.425836 
L 101.176364 45.087764 
L 101.480727 49.336219 
L 101.785091 46.488354 
L 102.089455 49.569651 
L 102.393818 47.118619 
L 102.698182 48.005659 
L 103.002545 50.106543 
L 103.306909 48.519208 
L 103.611273 50.736808 
L 103.915636 48.005659 
L 104.22 49.919798 
L 104.524364 48.75264 
L 104.828727 45.974804 
L 105.133091 48.355806 
L 105.437455 47.8656 
L 105.741818 47.795571 
L 106.046182 49.476278 
L 106.350545 50.013171 
L 106.654909 46.301608 
L 107.263636 51.040269 
L 107.568 51.273701 
L 107.872364 45.648 
L 108.176727 48.565895 
L 108.481091 47.211992 
L 108.785455 47.795571 
L 109.089818 49.873112 
L 109.394182 47.282021 
L 109.698545 48.892699 
L 110.002909 47.515453 
L 110.307273 48.402493 
L 110.611636 50.52672 
L 110.916 48.472522 
L 111.220364 47.725541 
L 111.524727 49.19616 
L 111.829091 48.239091 
L 112.133455 47.772227 
L 112.437818 54.238282 
L 112.742182 48.145718 
L 113.046545 48.075688 
L 113.350909 48.705954 
L 113.655273 44.807646 
L 113.959636 50.293288 
L 114.264 51.903966 
L 114.568364 46.161549 
L 115.177091 51.647192 
L 115.481455 47.678855 
L 115.785818 50.993583 
L 116.090182 47.8656 
L 116.394545 49.032758 
L 116.698909 53.421272 
L 117.003273 45.507941 
L 117.307636 49.079444 
L 117.612 50.036514 
L 117.916364 44.947705 
L 118.220727 47.468766 
L 118.525091 47.842257 
L 118.829455 45.181137 
L 119.133818 54.728488 
L 119.438182 48.332463 
L 119.742545 51.670535 
L 120.046909 45.484598 
L 120.351273 50.806838 
L 120.655636 48.635924 
L 120.96 44.224067 
L 121.264364 50.783495 
L 121.568727 49.616337 
L 121.873091 49.126131 
L 122.177455 49.312876 
L 122.481818 50.059857 
L 123.090545 46.745128 
L 123.394909 47.888943 
L 123.699273 44.177381 
L 124.003636 46.371638 
L 124.308 46.044834 
L 124.612364 50.269945 
L 124.916727 47.912286 
L 125.221091 50.246602 
L 125.525455 53.888135 
L 125.829818 49.803082 
L 126.134182 48.75264 
L 126.438545 49.476278 
L 126.742909 51.623848 
L 127.047273 50.643436 
L 127.351636 51.507133 
L 127.656 53.327899 
L 127.960364 48.449179 
L 128.264727 51.320387 
L 128.569091 46.698442 
L 128.873455 48.425836 
L 129.177818 48.005659 
L 129.482182 50.783495 
L 129.786545 46.394981 
L 130.090909 49.966484 
L 130.395273 43.733861 
L 130.699636 51.787251 
L 131.308364 48.169061 
L 131.917091 44.994392 
L 132.221455 50.059857 
L 132.830182 47.818914 
L 133.134545 50.456691 
L 133.438909 45.998147 
L 133.743273 46.371638 
L 134.047636 47.025246 
L 134.352 45.671343 
L 134.656364 49.172817 
L 134.960727 44.224067 
L 135.265091 48.005659 
L 135.569455 47.538796 
L 135.873818 43.663832 
L 136.178182 51.41376 
L 136.482545 47.468766 
L 136.786909 48.215747 
L 137.091273 46.231579 
L 137.7 51.623848 
L 138.308727 48.145718 
L 138.613091 49.522964 
L 139.221818 47.048589 
L 139.526182 49.359562 
L 139.830545 50.129886 
L 140.134909 52.254114 
L 140.439273 45.648 
L 140.743636 48.542552 
L 141.048 44.620901 
L 141.352364 49.452935 
L 141.656727 47.842257 
L 141.961091 44.410813 
L 142.265455 46.885187 
L 142.569818 47.095276 
L 142.874182 49.242846 
L 143.178545 46.745128 
L 143.482909 45.367882 
L 143.787273 50.176573 
L 144.091636 48.916042 
L 144.396 51.180328 
L 144.700364 49.476278 
L 145.004727 49.19616 
L 145.309091 46.161549 
L 145.613455 44.644244 
L 145.917818 50.386661 
L 146.222182 49.499621 
L 146.526545 53.211183 
L 146.830909 49.009415 
L 147.135273 53.794762 
L 147.439636 45.718029 
L 148.048364 52.160741 
L 148.352727 46.488354 
L 148.961455 51.367074 
L 149.265818 46.231579 
L 149.570182 45.461255 
L 149.874545 48.052345 
L 150.178909 47.095276 
L 150.483273 47.888943 
L 150.787636 48.169061 
L 151.092 46.698442 
L 151.396364 49.803082 
L 151.700727 48.169061 
L 152.005091 47.935629 
L 152.309455 50.900211 
L 152.613818 46.231579 
L 152.918182 49.289533 
L 153.222545 48.145718 
L 153.526909 50.223259 
L 153.831273 50.106543 
L 154.135636 49.616337 
L 154.44 45.461255 
L 154.744364 53.467958 
L 155.048727 48.892699 
L 155.353091 50.596749 
L 155.657455 52.977752 
L 155.961818 47.842257 
L 156.266182 48.892699 
L 156.570545 47.375394 
L 156.874909 47.912286 
L 157.179273 49.406248 
L 157.483636 49.429592 
L 157.788 50.503377 
L 158.092364 47.655512 
L 158.396727 53.164497 
L 158.701091 49.756396 
L 159.309818 46.488354 
L 159.614182 50.993583 
L 159.918545 47.912286 
L 160.222909 50.293288 
L 160.527273 47.912286 
L 160.831636 51.623848 
L 161.136 45.20448 
L 161.440364 49.873112 
L 161.744727 49.943141 
L 162.049091 48.519208 
L 162.353455 51.577162 
L 162.657818 46.418324 
L 162.962182 47.608825 
L 163.266545 45.461255 
L 163.570909 48.542552 
L 163.875273 48.285777 
L 164.179636 50.153229 
L 164.484 47.305364 
L 164.788364 49.126131 
L 165.092727 47.748884 
L 165.397091 48.005659 
L 165.701455 50.316632 
L 166.005818 50.503377 
L 166.310182 52.791006 
L 166.614545 43.500429 
L 166.918909 47.655512 
L 167.223273 45.087764 
L 167.527636 46.885187 
L 167.832 47.585482 
L 168.136364 47.118619 
L 168.440727 50.666779 
L 168.745091 50.876867 
L 169.049455 52.487545 
L 169.353818 49.336219 
L 169.658182 48.635924 
L 169.962545 49.849768 
L 170.266909 50.246602 
L 170.571273 46.698442 
L 170.875636 50.713465 
L 171.18 45.788059 
L 171.788727 46.254922 
L 172.701818 47.725541 
L 173.006182 46.301608 
L 173.310545 47.515453 
L 173.614909 45.764716 
L 173.919273 42.893507 
L 174.528 50.946897 
L 174.832364 46.721785 
L 175.136727 50.199916 
L 175.441091 46.838501 
L 175.745455 48.169061 
L 176.049818 51.693878 
L 176.354182 52.510888 
L 176.658545 47.515453 
L 176.962909 46.09152 
L 177.267273 50.503377 
L 177.571636 46.465011 
L 177.876 46.628413 
L 178.180364 44.644244 
L 178.484727 50.106543 
L 178.789091 47.211992 
L 179.093455 46.838501 
L 179.397818 47.748884 
L 179.702182 50.0832 
L 180.006545 50.666779 
L 180.615273 46.021491 
L 181.528364 48.425836 
L 181.832727 44.784303 
L 182.137091 50.550063 
L 182.441455 46.324952 
L 182.745818 51.483789 
L 183.050182 46.908531 
L 183.354545 44.924362 
L 183.658909 51.343731 
L 183.963273 48.052345 
L 184.267636 48.285777 
L 184.572 48.986072 
L 184.876364 45.041078 
L 185.180727 46.861844 
L 185.485091 44.620901 
L 185.789455 50.993583 
L 186.093818 51.740564 
L 186.398182 50.596749 
L 186.702545 47.398737 
L 187.006909 48.029002 
L 187.615636 51.647192 
L 187.92 50.690122 
L 188.224364 47.118619 
L 188.528727 48.075688 
L 188.833091 47.608825 
L 189.441818 43.920606 
L 190.050545 48.215747 
L 190.354909 47.515453 
L 190.659273 45.391225 
L 190.963636 49.733053 
L 191.268 49.219503 
L 191.572364 53.304556 
L 192.181091 47.772227 
L 192.485455 51.367074 
L 193.094182 46.955217 
L 193.398545 49.359562 
L 194.007273 47.305364 
L 194.311636 49.242846 
L 194.616 43.500429 
L 194.920364 52.74432 
L 195.224727 49.336219 
L 195.529091 49.289533 
L 195.833455 50.269945 
L 196.137818 50.0832 
L 196.442182 49.733053 
L 196.746545 49.756396 
L 197.355273 46.53504 
L 197.659636 45.718029 
L 197.964 51.390417 
L 198.268364 43.920606 
L 198.572727 47.935629 
L 198.877091 48.799326 
L 199.181455 47.165305 
L 199.485818 49.429592 
L 199.790182 53.748076 
L 200.094545 47.632168 
L 200.398909 52.720977 
L 200.703273 47.702198 
L 201.007636 49.126131 
L 201.312 47.842257 
L 201.616364 52.674291 
L 201.920727 51.273701 
L 202.225091 48.402493 
L 202.529455 48.542552 
L 202.833818 49.429592 
L 203.442545 45.437912 
L 203.746909 50.573406 
L 204.051273 46.348295 
L 204.355636 50.199916 
L 204.66 48.052345 
L 205.268727 50.620093 
L 205.573091 47.118619 
L 205.877455 47.235335 
L 206.181818 47.958973 
L 206.486182 51.810594 
L 206.790545 51.297044 
L 207.094909 50.059857 
L 207.399273 49.919798 
L 207.703636 45.811402 
L 208.008 45.20448 
L 208.312364 45.834745 
L 208.616727 51.927309 
L 208.921091 43.360371 
L 209.529818 47.795571 
L 209.834182 48.029002 
L 210.138545 48.892699 
L 210.442909 48.589238 
L 210.747273 47.048589 
L 211.356 51.086956 
L 211.660364 45.017735 
L 211.964727 50.176573 
L 212.269091 45.064421 
L 212.573455 51.040269 
L 212.877818 49.476278 
L 213.182182 46.721785 
L 213.486545 53.374585 
L 214.095273 47.818914 
L 214.399636 54.004851 
L 214.704 49.873112 
L 215.008364 53.071124 
L 215.312727 47.468766 
L 215.617091 44.76096 
L 215.921455 47.935629 
L 216.225818 47.655512 
L 216.530182 50.129886 
L 216.834545 54.028194 
L 217.138909 46.651756 
L 217.747636 50.760152 
L 218.052 49.686366 
L 218.356364 45.858088 
L 218.660727 46.53504 
L 218.965091 49.406248 
L 219.269455 49.452935 
L 219.573818 51.437103 
L 219.878182 47.585482 
L 220.182545 48.916042 
L 220.486909 44.457499 
L 220.791273 48.916042 
L 221.095636 51.460446 
L 221.4 52.604261 
L 221.704364 47.538796 
L 222.008727 49.406248 
L 222.313091 45.134451 
L 222.617455 50.620093 
L 223.530545 45.20448 
L 223.834909 53.491301 
L 224.139273 50.900211 
L 224.443636 44.387469 
L 224.748 48.449179 
L 225.052364 49.499621 
L 225.356727 45.741373 
L 225.661091 49.779739 
L 225.965455 47.305364 
L 226.574182 50.900211 
L 226.878545 45.834745 
L 227.182909 48.892699 
L 227.487273 49.476278 
L 227.791636 46.861844 
L 228.096 46.838501 
L 228.400364 45.251166 
L 228.704727 49.499621 
L 229.009091 50.293288 
L 229.313455 47.492109 
L 229.617818 47.188648 
L 229.922182 51.016926 
L 230.226545 47.42208 
L 230.530909 50.503377 
L 230.835273 52.020682 
L 231.139636 47.42208 
L 231.444 49.522964 
L 231.748364 48.729297 
L 232.052727 49.919798 
L 232.357091 50.316632 
L 232.661455 49.873112 
L 232.965818 48.215747 
L 233.270182 49.616337 
L 233.574545 49.63968 
L 233.878909 47.095276 
L 234.183273 53.234526 
L 234.487636 45.788059 
L 234.792 49.966484 
L 235.096364 46.371638 
L 235.400727 47.025246 
L 235.705091 48.682611 
L 236.313818 46.628413 
L 236.618182 50.176573 
L 236.922545 46.324952 
L 237.226909 49.569651 
L 237.531273 48.799326 
L 237.835636 50.269945 
L 238.14 47.188648 
L 238.444364 52.160741 
L 238.748727 51.997339 
L 239.053091 46.698442 
L 239.357455 50.620093 
L 239.661818 48.215747 
L 239.966182 51.437103 
L 240.574909 46.114863 
L 240.879273 48.939385 
L 241.183636 49.686366 
L 241.488 48.775983 
L 241.792364 43.266998 
L 242.401091 50.666779 
L 242.705455 49.312876 
L 243.009818 49.849768 
L 243.314182 51.203672 
L 243.618545 45.297853 
L 243.922909 46.698442 
L 244.227273 44.994392 
L 244.531636 49.312876 
L 244.836 48.962728 
L 245.140364 50.760152 
L 245.444727 47.8656 
L 245.749091 48.75264 
L 246.053455 50.830181 
L 246.357818 47.048589 
L 246.662182 50.713465 
L 246.966545 50.480034 
L 247.270909 46.371638 
L 247.575273 47.935629 
L 247.879636 48.075688 
L 248.184 50.246602 
L 248.488364 49.312876 
L 248.792727 49.616337 
L 249.097091 50.153229 
L 249.401455 47.048589 
L 249.705818 49.569651 
L 250.010182 44.620901 
L 250.314545 48.099032 
L 250.618909 48.799326 
L 250.923273 53.537987 
L 251.227636 48.449179 
L 251.532 48.495865 
L 251.836364 53.001095 
L 252.140727 49.63968 
L 252.445091 50.410004 
L 252.749455 44.924362 
L 253.053818 49.592994 
L 253.358182 45.111107 
L 253.662545 50.316632 
L 253.966909 51.016926 
L 254.271273 47.188648 
L 254.575636 46.09152 
L 254.88 48.589238 
L 255.184364 48.449179 
L 255.488727 45.017735 
L 256.097455 51.343731 
L 256.401818 46.628413 
L 256.706182 47.772227 
L 257.010545 53.211183 
L 257.314909 46.581726 
L 257.923636 49.079444 
L 258.532364 54.495057 
L 258.836727 52.394173 
L 259.141091 45.391225 
L 259.445455 46.324952 
L 260.054182 52.510888 
L 260.358545 47.352051 
L 260.662909 48.729297 
L 260.967273 47.235335 
L 261.271636 48.846013 
L 261.576 46.745128 
L 262.184727 48.612581 
L 262.489091 49.733053 
L 262.793455 45.181137 
L 263.706545 50.643436 
L 264.010909 47.282021 
L 264.315273 49.663023 
L 264.619636 48.799326 
L 265.228364 43.757204 
L 265.532727 46.908531 
L 265.837091 45.881432 
L 266.141455 50.480034 
L 266.445818 46.231579 
L 266.750182 49.919798 
L 267.054545 47.912286 
L 267.358909 48.519208 
L 267.967636 47.001903 
L 268.272 48.145718 
L 268.576364 50.97024 
L 268.880727 50.993583 
L 269.185091 47.958973 
L 269.489455 51.41376 
L 269.793818 51.250358 
L 270.098182 47.282021 
L 270.402545 49.429592 
L 271.011273 48.122375 
L 271.315636 45.087764 
L 271.62 50.806838 
L 271.924364 47.702198 
L 272.228727 49.569651 
L 272.533091 49.663023 
L 272.837455 52.464202 
L 273.141818 47.188648 
L 273.446182 46.53504 
L 273.750545 46.184893 
L 274.054909 46.488354 
L 274.359273 48.262434 
L 274.663636 47.818914 
L 274.968 51.460446 
L 275.272364 46.861844 
L 275.576727 46.628413 
L 275.881091 50.550063 
L 276.185455 44.340783 
L 276.489818 46.254922 
L 276.794182 47.025246 
L 277.098545 50.596749 
L 277.402909 49.009415 
L 277.707273 51.693878 
L 278.011636 50.853524 
L 278.316 48.005659 
L 278.620364 46.394981 
L 278.924727 51.016926 
L 279.229091 51.950653 
L 279.533455 53.374585 
L 279.837818 47.585482 
L 280.142182 48.659267 
L 280.446545 48.612581 
L 280.750909 47.772227 
L 281.055273 49.336219 
L 281.664 47.8656 
L 281.968364 50.923554 
L 282.272727 49.429592 
L 282.577091 48.519208 
L 282.881455 49.056101 
L 283.185818 51.693878 
L 283.490182 50.760152 
L 283.794545 50.690122 
L 284.098909 47.632168 
L 284.403273 49.289533 
L 284.707636 46.231579 
L 285.012 49.826425 
L 285.316364 49.009415 
L 285.620727 45.391225 
L 285.925091 46.815158 
L 286.533818 50.456691 
L 287.142545 47.42208 
L 287.446909 49.546307 
L 287.751273 49.943141 
L 288.055636 51.273701 
L 288.36 48.635924 
L 288.664364 53.071124 
L 289.577455 45.834745 
L 289.881818 47.702198 
L 290.186182 48.052345 
L 290.490545 47.982316 
L 290.794909 47.702198 
L 291.099273 48.892699 
L 291.403636 47.795571 
L 291.708 50.900211 
L 292.012364 46.558383 
L 292.316727 48.565895 
L 292.621091 55.148665 
L 292.925455 48.589238 
L 293.229818 52.674291 
L 293.534182 47.118619 
L 294.142909 49.616337 
L 294.447273 47.235335 
L 295.056 52.044025 
L 295.360364 48.519208 
L 295.664727 50.199916 
L 296.273455 45.251166 
L 296.882182 49.919798 
L 297.186545 47.935629 
L 297.490909 51.367074 
L 297.795273 50.339975 
L 298.099636 45.017735 
L 298.404 45.461255 
L 298.708364 47.912286 
L 299.317091 45.437912 
L 299.925818 47.842257 
L 300.230182 48.029002 
L 300.534545 49.663023 
L 300.838909 49.056101 
L 301.143273 47.8656 
L 301.447636 50.316632 
L 301.752 47.818914 
L 302.056364 48.916042 
L 302.360727 46.558383 
L 302.665091 52.254114 
L 302.969455 49.406248 
L 303.273818 50.246602 
L 303.882545 46.97856 
L 304.491273 51.180328 
L 304.795636 46.931874 
L 305.1 49.476278 
L 305.404364 46.324952 
L 305.708727 50.386661 
L 306.013091 49.756396 
L 306.317455 52.160741 
L 306.621818 46.675099 
L 306.926182 49.219503 
L 307.230545 52.791006 
L 307.534909 46.184893 
L 307.839273 48.495865 
L 308.143636 43.383714 
L 308.448 48.869356 
L 309.056727 45.881432 
L 309.361091 47.842257 
L 309.969818 46.908531 
L 310.274182 45.974804 
L 310.578545 47.772227 
L 310.882909 51.180328 
L 311.187273 45.834745 
L 311.491636 46.441667 
L 312.100364 50.480034 
L 312.404727 49.779739 
L 313.013455 46.465011 
L 313.317818 48.495865 
L 313.622182 53.724733 
L 313.926545 44.410813 
L 314.535273 50.410004 
L 314.839636 50.433347 
L 315.144 46.605069 
L 315.448364 47.42208 
L 315.752727 51.227015 
L 316.057091 46.161549 
L 316.361455 50.0832 
L 316.665818 49.756396 
L 316.970182 46.581726 
L 317.578909 51.833937 
L 317.883273 46.815158 
L 318.187636 49.569651 
L 318.492 50.293288 
L 318.796364 47.795571 
L 319.100727 46.511697 
L 319.405091 53.094467 
L 319.709455 49.663023 
L 320.013818 47.632168 
L 320.318182 47.211992 
L 320.622545 48.729297 
L 320.926909 47.492109 
L 321.231273 50.410004 
L 321.535636 47.071933 
L 321.84 47.702198 
L 322.144364 47.211992 
L 322.448727 49.032758 
L 322.753091 47.165305 
L 323.057455 49.663023 
L 323.361818 49.079444 
L 323.666182 47.001903 
L 323.970545 48.449179 
L 324.274909 47.748884 
L 324.579273 50.923554 
L 324.883636 46.838501 
L 325.188 47.071933 
L 325.492364 51.950653 
L 325.796727 46.068177 
L 326.101091 52.137398 
L 326.405455 48.565895 
L 326.709818 51.297044 
L 327.014182 45.881432 
L 327.318545 50.690122 
L 327.927273 42.753448 
L 328.231636 51.833937 
L 328.536 45.157794 
L 328.840364 46.581726 
L 329.144727 52.114055 
L 329.449091 48.005659 
L 329.753455 49.359562 
L 330.057818 47.398737 
L 330.362182 47.515453 
L 330.666545 46.908531 
L 330.970909 51.600505 
L 331.275273 52.324143 
L 331.579636 46.558383 
L 331.884 48.30912 
L 332.492727 50.410004 
L 332.797091 52.394173 
L 333.101455 50.853524 
L 333.405818 52.137398 
L 333.710182 51.320387 
L 334.014545 50.036514 
L 334.623273 45.111107 
L 335.232 50.993583 
L 335.536364 48.892699 
L 335.840727 52.254114 
L 336.145091 47.608825 
L 336.449455 46.09152 
L 336.753818 49.359562 
L 337.058182 49.896455 
L 337.362545 46.278265 
L 337.666909 48.099032 
L 337.971273 46.955217 
L 338.275636 46.348295 
L 338.884364 50.736808 
L 339.188727 48.122375 
L 339.493091 43.266998 
L 339.797455 52.067368 
L 340.101818 47.188648 
L 340.406182 51.180328 
L 340.710545 49.966484 
L 341.014909 50.106543 
L 341.319273 49.429592 
L 341.623636 46.161549 
L 341.928 51.950653 
L 342.232364 47.655512 
L 342.536727 47.118619 
L 342.841091 50.480034 
L 343.145455 50.386661 
L 343.449818 49.616337 
L 343.754182 47.305364 
L 344.058545 46.511697 
L 344.362909 51.297044 
L 344.667273 47.608825 
L 344.971636 50.363318 
L 345.276 51.156985 
L 345.580364 49.336219 
L 345.884727 45.671343 
L 346.189091 49.733053 
L 346.493455 48.332463 
L 346.797818 47.912286 
L 347.102182 45.461255 
L 347.406545 44.971048 
L 347.710909 45.718029 
L 348.015273 49.943141 
L 348.319636 45.811402 
L 348.624 44.901019 
L 348.928364 49.849768 
L 349.232727 46.184893 
L 349.537091 47.188648 
L 349.841455 52.791006 
L 350.145818 47.912286 
L 350.450182 51.040269 
L 350.754545 45.507941 
L 351.058909 49.989827 
L 351.363273 50.690122 
L 351.667636 47.235335 
L 351.972 45.974804 
L 352.276364 51.320387 
L 352.580727 46.394981 
L 352.885091 48.986072 
L 353.189455 52.954408 
L 353.493818 48.542552 
L 353.798182 49.943141 
L 354.102545 47.888943 
L 354.406909 44.200724 
L 354.711273 50.806838 
L 355.015636 49.382905 
L 355.32 50.456691 
L 355.624364 49.429592 
L 355.928727 51.086956 
L 356.233091 48.612581 
L 356.537455 51.623848 
L 356.841818 45.858088 
L 357.146182 46.441667 
L 357.450545 45.344539 
L 357.754909 50.690122 
L 358.059273 48.262434 
L 358.363636 49.709709 
L 358.668 49.126131 
L 358.972364 47.258678 
L 359.276727 47.001903 
L 359.581091 44.364126 
L 359.885455 49.63968 
L 360.189818 51.530476 
L 360.494182 52.440859 
L 360.798545 43.733861 
L 361.102909 47.165305 
L 361.407273 45.694686 
L 361.711636 48.635924 
L 362.016 48.986072 
L 362.320364 48.449179 
L 362.624727 47.211992 
L 362.929091 46.745128 
L 363.233455 51.273701 
L 363.537818 44.550872 
L 363.842182 47.235335 
L 364.146545 46.511697 
L 364.755273 51.156985 
L 365.059636 50.153229 
L 365.364 48.215747 
L 365.668364 54.191596 
L 366.277091 47.912286 
L 366.581455 50.503377 
L 366.885818 45.017735 
L 367.190182 50.129886 
L 367.494545 50.690122 
L 367.798909 48.612581 
L 368.103273 43.710518 
L 368.407636 54.868547 
L 369.016364 45.904775 
L 369.320727 50.456691 
L 369.929455 48.449179 
L 370.233818 46.651756 
L 370.538182 49.569651 
L 370.842545 48.449179 
L 371.146909 48.565895 
L 371.451273 47.632168 
L 371.755636 49.919798 
L 372.06 49.009415 
L 372.364364 52.394173 
L 372.668727 51.016926 
L 372.973091 51.85728 
L 373.277455 45.017735 
L 373.277455 45.017735 
" style="fill:none;stroke:#32cd32;stroke-linecap:square;stroke-width:0.5;"/>
   </g>
   <g id="line2d_15">
    <path clip-path="url(#p6357370625)" d="M 69.218182 215.376101 
L 69.522545 248.616758 
L 70.131273 205.618661 
L 70.435636 208.256438 
L 70.74 218.364025 
L 71.044364 201.300177 
L 71.348727 214.115571 
L 71.653091 209.680371 
L 71.957455 192.0096 
L 72.261818 213.041785 
L 72.566182 187.294282 
L 72.870545 176.136253 
L 73.174909 184.02624 
L 73.479273 180.408051 
L 73.783636 162.130358 
L 74.088 184.259672 
L 74.392364 171.537651 
L 74.696727 179.264236 
L 75.001091 179.59104 
L 75.305455 173.918653 
L 75.609818 147.797659 
L 75.914182 132.834695 
L 76.218545 172.634779 
L 76.522909 161.85024 
L 76.827273 140.001044 
L 77.131636 171.537651 
L 77.436 164.184556 
L 77.740364 165.141625 
L 78.349091 144.879764 
L 78.653455 132.1344 
L 78.957818 126.205238 
L 79.262182 130.920556 
L 79.566545 157.578442 
L 79.870909 141.44832 
L 80.175273 149.968573 
L 80.479636 117.988446 
L 80.784 135.659217 
L 81.088364 133.558333 
L 81.392727 129.940143 
L 81.697091 137.526669 
L 82.001455 126.018493 
L 82.305818 146.840589 
L 82.610182 143.105684 
L 82.914545 128.329465 
L 83.218909 126.158552 
L 83.523273 125.831747 
L 83.827636 123.193971 
L 84.132 112.526147 
L 84.436364 137.690072 
L 84.740727 120.486164 
L 85.045091 130.523722 
L 85.349455 124.104354 
L 85.653818 107.040505 
L 85.958182 125.4816 
L 86.566909 114.346914 
L 86.871273 111.382333 
L 87.175636 110.775411 
L 87.784364 126.391983 
L 88.088727 122.890509 
L 88.393091 115.374013 
L 88.697455 104.846248 
L 89.001818 110.728724 
L 89.306182 124.127697 
L 89.610545 110.40192 
L 89.914909 107.203907 
L 90.219273 110.308547 
L 90.523636 106.877103 
L 90.828 113.996766 
L 91.436727 104.449415 
L 91.741091 99.640724 
L 92.045455 119.762526 
L 92.349818 106.130122 
L 92.654182 115.327326 
L 92.958545 92.707806 
L 93.567273 107.460682 
L 93.871636 90.466863 
L 94.176 103.375629 
L 94.480364 99.734097 
L 94.784727 107.787486 
L 95.089091 92.591091 
L 95.393455 98.8704 
L 95.697818 101.741608 
L 96.002182 101.111343 
L 96.306545 102.932109 
L 96.915273 94.972093 
L 97.219636 95.835789 
L 97.524 104.496101 
L 97.828364 97.516497 
L 98.132727 111.73248 
L 98.437091 94.4352 
L 98.741455 90.303461 
L 99.045818 100.294333 
L 99.350182 100.341019 
L 99.654545 93.734905 
L 99.958909 100.457735 
L 100.263273 86.288438 
L 100.567636 87.33888 
L 100.872 93.338072 
L 101.176364 84.187554 
L 101.480727 97.026291 
L 101.785091 87.408909 
L 102.089455 100.807882 
L 102.393818 80.966198 
L 102.698182 89.696539 
L 103.002545 91.727394 
L 103.306909 89.55648 
L 103.611273 90.980413 
L 103.915636 89.019587 
L 104.22 86.055006 
L 104.524364 93.057954 
L 104.828727 77.277979 
L 105.437455 88.832842 
L 105.741818 86.428497 
L 106.046182 83.113768 
L 106.350545 84.864505 
L 106.654909 83.253827 
L 106.959273 87.245507 
L 107.263636 80.265903 
L 107.568 82.156699 
L 107.872364 91.143815 
L 108.176727 82.156699 
L 108.481091 79.869069 
L 108.785455 82.180042 
L 109.089818 90.373491 
L 109.394182 86.475183 
L 109.698545 78.141676 
L 110.002909 83.907436 
L 110.307273 84.817819 
L 110.611636 74.056623 
L 110.916 81.152943 
L 111.220364 84.514358 
L 111.524727 70.671865 
L 111.829091 87.292194 
L 112.133455 85.471427 
L 112.437818 82.180042 
L 112.742182 90.513549 
L 113.046545 82.133356 
L 113.350909 84.701103 
L 113.655273 83.230484 
L 113.959636 84.864505 
L 114.264 74.009937 
L 114.568364 71.81568 
L 114.872727 78.211705 
L 115.177091 71.698964 
L 115.481455 79.145432 
L 115.785818 96.139251 
L 116.090182 81.596463 
L 116.394545 80.756109 
L 116.698909 86.755301 
L 117.003273 76.577684 
L 117.307636 74.967006 
L 117.612 76.974518 
L 117.916364 76.180851 
L 118.220727 66.726872 
L 118.525091 79.215461 
L 118.829455 84.280926 
L 119.133818 75.223781 
L 119.438182 81.526434 
L 119.742545 76.390939 
L 120.046909 74.710232 
L 120.351273 77.488067 
L 120.655636 73.613103 
L 120.96 74.873634 
L 121.264364 83.674004 
L 121.568727 76.881145 
L 121.873091 80.219217 
L 122.177455 70.811924 
L 122.481818 73.659789 
L 122.786182 80.546021 
L 123.090545 76.904488 
L 123.699273 67.310451 
L 124.003636 70.718552 
L 124.308 77.791528 
L 124.612364 67.590568 
L 124.916727 72.632691 
L 125.221091 66.540126 
L 125.525455 83.440573 
L 125.829818 68.384236 
L 126.134182 77.161263 
L 126.438545 65.326282 
L 127.351636 83.113768 
L 127.960364 69.551394 
L 128.264727 80.989541 
L 128.569091 75.270467 
L 128.873455 71.839023 
L 129.177818 73.122897 
L 129.482182 70.905297 
L 129.786545 76.320909 
L 130.090909 72.936152 
L 130.395273 79.098745 
L 130.699636 71.932396 
L 131.004 71.745651 
L 131.612727 66.283352 
L 131.917091 67.520539 
L 132.221455 76.881145 
L 132.830182 69.761482 
L 133.134545 70.275032 
L 133.438909 69.15456 
L 134.047636 72.796093 
L 134.352 65.442998 
L 134.656364 70.461777 
L 134.960727 81.456404 
L 135.569455 64.392556 
L 135.873818 66.820244 
L 136.178182 65.886518 
L 136.482545 71.465533 
L 136.786909 61.217886 
L 137.091273 71.208758 
L 137.395636 70.0416 
L 137.7 72.726063 
L 138.004364 72.889465 
L 138.308727 69.901541 
L 138.917455 73.169583 
L 139.221818 67.38048 
L 139.526182 76.414282 
L 139.830545 72.819436 
L 140.134909 67.310451 
L 140.439273 70.718552 
L 140.743636 64.812733 
L 141.048 68.781069 
L 141.352364 66.726872 
L 141.656727 66.119949 
L 141.961091 67.473853 
L 142.265455 65.933204 
L 142.569818 69.271276 
L 142.874182 68.967815 
L 143.178545 67.964059 
L 143.482909 69.691453 
L 143.787273 62.034897 
L 144.091636 62.291672 
L 144.396 76.110821 
L 144.700364 67.800657 
L 145.004727 78.235048 
L 145.309091 66.773558 
L 145.613455 66.213322 
L 145.917818 64.135781 
L 146.222182 66.143293 
L 146.526545 69.294619 
L 146.830909 68.827756 
L 147.135273 58.533423 
L 147.744 65.956547 
L 148.048364 63.061996 
L 148.352727 55.592185 
L 148.657091 65.139537 
L 148.961455 69.107874 
L 149.570182 59.863983 
L 149.874545 63.015309 
L 150.178909 70.368404 
L 150.483273 65.933204 
L 150.787636 63.855663 
L 151.092 63.855663 
L 151.396364 61.801465 
L 151.700727 64.696017 
L 152.005091 63.995722 
L 152.309455 61.731436 
L 152.613818 61.147857 
L 152.918182 63.738947 
L 153.222545 61.007798 
L 153.526909 60.400876 
L 153.831273 67.170392 
L 154.135636 58.813541 
L 154.44 67.147048 
L 154.744364 58.860227 
L 155.048727 55.732244 
L 155.353091 61.61472 
L 155.657455 62.455074 
L 155.961818 60.587621 
L 156.266182 65.396312 
L 156.570545 61.077827 
L 156.874909 62.05824 
L 157.179273 68.244177 
L 157.483636 64.112438 
L 157.788 68.174147 
L 158.092364 60.144101 
L 158.396727 68.664354 
L 158.701091 66.026577 
L 159.005455 60.844396 
L 159.309818 61.381288 
L 159.614182 59.537179 
L 159.918545 61.638063 
L 160.222909 69.924884 
L 160.527273 61.661406 
L 160.831636 63.785634 
L 161.136 55.732244 
L 161.440364 64.789389 
L 161.744727 64.229154 
L 162.049091 55.965676 
L 162.353455 60.027385 
L 162.657818 58.346678 
L 162.962182 64.182467 
L 163.266545 63.738947 
L 163.570909 60.237474 
L 163.875273 54.891891 
L 164.179636 61.871495 
L 164.484 63.785634 
L 164.788364 68.454265 
L 165.092727 62.665162 
L 165.397091 66.726872 
L 165.701455 62.268328 
L 166.005818 68.71104 
L 166.614545 59.84064 
L 166.918909 61.498004 
L 167.223273 56.29248 
L 167.527636 68.150804 
L 167.832 61.1712 
L 168.440727 57.973187 
L 168.745091 58.673482 
L 169.049455 64.812733 
L 169.353818 60.540935 
L 169.962545 60.72768 
L 170.266909 62.408387 
L 170.875636 57.506324 
L 171.18 59.957356 
L 171.484364 64.859419 
L 171.788727 54.004851 
L 172.093091 59.910669 
L 172.397455 56.082392 
L 172.701818 62.338358 
L 173.006182 57.786442 
L 173.310545 60.914425 
L 173.614909 57.716413 
L 173.919273 60.961112 
L 174.223636 56.385853 
L 174.528 60.400876 
L 174.832364 60.914425 
L 175.136727 62.805221 
L 175.745455 53.141154 
L 176.049818 60.564278 
L 176.354182 57.973187 
L 176.658545 62.665162 
L 176.962909 61.381288 
L 177.267273 65.769802 
L 177.571636 59.093659 
L 177.876 62.198299 
L 178.180364 51.530476 
L 178.789091 57.879815 
L 179.093455 55.685558 
L 179.397818 61.451318 
L 179.702182 52.440859 
L 180.006545 58.743512 
L 180.310909 59.700581 
L 180.615273 56.946088 
L 180.919636 59.537179 
L 181.224 58.766855 
L 181.528364 58.626796 
L 181.832727 61.311259 
L 182.441455 64.625987 
L 182.745818 56.806029 
L 183.050182 58.159933 
L 183.354545 61.334602 
L 183.658909 57.109491 
L 184.267636 59.747267 
L 184.572 59.980699 
L 184.876364 63.855663 
L 185.180727 58.113246 
L 185.485091 55.965676 
L 185.789455 60.914425 
L 186.093818 57.016118 
L 186.398182 56.665971 
L 186.702545 57.389608 
L 187.006909 53.537987 
L 187.311273 56.899402 
L 187.615636 63.902349 
L 187.92 56.969432 
L 188.224364 55.685558 
L 188.528727 51.483789 
L 188.833091 56.409196 
L 189.137455 57.156177 
L 189.746182 66.960303 
L 190.050545 53.257869 
L 190.354909 60.517592 
L 190.659273 53.584674 
L 190.963636 59.84064 
L 191.268 59.747267 
L 191.572364 55.475469 
L 191.876727 56.876059 
L 192.181091 56.315823 
L 192.485455 63.995722 
L 192.789818 54.354998 
L 193.094182 54.96192 
L 193.398545 56.852716 
L 193.702909 56.852716 
L 194.007273 54.191596 
L 194.311636 59.747267 
L 194.616 51.227015 
L 194.920364 58.650139 
L 195.224727 60.634307 
L 195.529091 60.400876 
L 195.833455 56.432539 
L 196.137818 54.354998 
L 196.442182 56.782686 
L 196.746545 53.374585 
L 197.050909 51.717221 
L 197.355273 54.378341 
L 197.659636 62.361701 
L 197.964 53.257869 
L 198.268364 51.85728 
L 198.572727 57.809785 
L 198.877091 60.937768 
L 199.181455 55.802274 
L 199.485818 55.84896 
L 200.094545 54.658459 
L 200.398909 57.156177 
L 200.703273 56.479225 
L 201.007636 56.269137 
L 201.312 56.385853 
L 201.616364 56.269137 
L 201.920727 54.588429 
L 202.225091 49.359562 
L 202.529455 61.871495 
L 202.833818 54.5184 
L 203.138182 60.004042 
L 203.442545 54.635116 
L 203.746909 58.06656 
L 204.051273 56.082392 
L 204.355636 57.412952 
L 204.66 53.934821 
L 204.964364 63.505516 
L 205.268727 59.303747 
L 205.573091 49.102787 
L 205.877455 55.031949 
L 206.486182 58.370021 
L 207.094909 45.554627 
L 207.399273 56.899402 
L 207.703636 58.906914 
L 208.008 56.012362 
L 208.312364 56.549255 
L 208.616727 52.090712 
L 208.921091 52.977752 
L 209.225455 58.603453 
L 209.529818 60.424219 
L 209.834182 55.382097 
L 210.138545 54.378341 
L 210.442909 58.299992 
L 210.747273 53.958164 
L 211.051636 61.054484 
L 211.356 54.354998 
L 211.660364 55.312067 
L 211.964727 55.031949 
L 212.269091 59.537179 
L 212.573455 53.374585 
L 212.877818 57.529667 
L 213.182182 53.537987 
L 213.486545 57.949844 
L 213.790909 49.452935 
L 214.095273 54.07488 
L 214.399636 55.055293 
L 215.008364 58.883571 
L 215.312727 52.557575 
L 215.617091 56.222451 
L 215.921455 51.973996 
L 216.225818 51.203672 
L 216.530182 57.249549 
L 217.138909 52.604261 
L 217.443273 58.766855 
L 217.747636 59.84064 
L 218.052 56.876059 
L 218.356364 52.160741 
L 218.660727 51.203672 
L 218.965091 57.272893 
L 219.269455 54.868547 
L 219.573818 57.202863 
L 219.878182 57.903158 
L 220.182545 55.662215 
L 220.486909 55.895646 
L 220.791273 57.716413 
L 221.095636 60.28416 
L 221.4 50.410004 
L 221.704364 56.502568 
L 222.008727 58.393364 
L 222.313091 54.07488 
L 222.617455 55.288724 
L 222.921818 54.098223 
L 223.226182 54.775175 
L 223.530545 53.724733 
L 223.834909 50.713465 
L 224.139273 49.663023 
L 224.748 55.008606 
L 225.052364 51.41376 
L 225.356727 55.265381 
L 225.661091 53.467958 
L 225.965455 58.06656 
L 226.269818 50.946897 
L 226.574182 56.736 
L 226.878545 52.697634 
L 227.182909 53.63136 
L 227.487273 55.382097 
L 227.791636 59.233718 
L 228.096 55.428783 
L 228.400364 55.312067 
L 228.704727 56.689314 
L 229.009091 55.265381 
L 229.313455 50.97024 
L 229.617818 54.985263 
L 229.922182 54.728488 
L 230.226545 55.989019 
L 230.530909 55.498813 
L 230.835273 53.351242 
L 231.139636 49.63968 
L 231.444 50.713465 
L 231.748364 50.97024 
L 232.052727 54.471714 
L 232.357091 53.771419 
L 232.661455 54.5184 
L 232.965818 53.748076 
L 233.270182 53.678046 
L 233.574545 52.184084 
L 233.878909 55.592185 
L 234.183273 56.362509 
L 234.487636 60.004042 
L 234.792 54.448371 
L 235.096364 56.736 
L 235.400727 57.366265 
L 235.705091 49.686366 
L 236.009455 52.931065 
L 236.313818 54.821861 
L 236.618182 50.876867 
L 236.922545 53.934821 
L 237.226909 52.020682 
L 237.531273 53.304556 
L 237.835636 59.350434 
L 238.14 50.199916 
L 238.444364 49.452935 
L 238.748727 55.312067 
L 239.053091 52.627604 
L 239.357455 59.700581 
L 239.661818 51.763907 
L 239.966182 54.284968 
L 240.270545 54.354998 
L 240.574909 52.137398 
L 240.879273 52.417516 
L 241.488 59.303747 
L 241.792364 51.180328 
L 242.096727 52.160741 
L 242.401091 48.449179 
L 242.705455 52.347486 
L 243.009818 49.709709 
L 243.314182 51.460446 
L 243.618545 50.106543 
L 243.922909 54.938577 
L 244.227273 57.529667 
L 244.531636 48.822669 
L 244.836 52.557575 
L 245.140364 53.327899 
L 245.444727 54.751832 
L 245.749091 49.406248 
L 246.053455 53.678046 
L 246.357818 54.121566 
L 246.662182 54.308312 
L 246.966545 54.284968 
L 247.270909 56.432539 
L 247.575273 51.156985 
L 247.879636 59.327091 
L 248.184 57.319579 
L 248.488364 56.455882 
L 248.792727 54.495057 
L 249.097091 55.172008 
L 249.401455 52.580918 
L 249.705818 58.626796 
L 250.010182 56.852716 
L 250.314545 50.993583 
L 250.618909 58.019874 
L 250.923273 53.257869 
L 251.227636 50.269945 
L 251.532 55.918989 
L 251.836364 53.234526 
L 252.140727 54.705145 
L 252.445091 52.487545 
L 252.749455 52.931065 
L 253.053818 52.767663 
L 253.358182 57.272893 
L 253.662545 50.0832 
L 253.966909 51.390417 
L 254.271273 51.880623 
L 254.575636 50.036514 
L 254.88 50.106543 
L 255.184364 51.530476 
L 255.488727 49.172817 
L 255.793091 51.530476 
L 256.706182 53.467958 
L 257.010545 54.915234 
L 257.314909 52.394173 
L 257.619273 56.035705 
L 257.923636 52.674291 
L 258.228 51.437103 
L 258.532364 52.324143 
L 258.836727 50.386661 
L 259.141091 49.616337 
L 259.445455 49.616337 
L 259.749818 54.004851 
L 260.054182 50.223259 
L 260.358545 53.234526 
L 260.662909 54.775175 
L 261.271636 50.643436 
L 261.576 51.577162 
L 261.880364 48.145718 
L 262.793455 56.152421 
L 263.706545 48.029002 
L 264.315273 55.148665 
L 264.619636 51.997339 
L 264.924 52.487545 
L 265.228364 48.099032 
L 265.532727 56.619284 
L 265.837091 46.278265 
L 266.141455 53.818105 
L 266.445818 50.386661 
L 266.750182 53.491301 
L 267.054545 53.981507 
L 267.358909 52.861036 
L 267.663273 48.472522 
L 267.967636 53.351242 
L 268.272 54.028194 
L 268.576364 51.787251 
L 268.880727 48.052345 
L 269.185091 52.767663 
L 269.489455 52.3008 
L 269.793818 50.573406 
L 270.098182 50.036514 
L 270.402545 53.514644 
L 270.706909 49.126131 
L 271.011273 55.84896 
L 271.315636 49.219503 
L 271.62 48.939385 
L 271.924364 53.18784 
L 272.228727 51.250358 
L 272.533091 52.324143 
L 272.837455 52.604261 
L 273.141818 47.585482 
L 273.446182 51.950653 
L 273.750545 52.184084 
L 274.054909 53.281213 
L 274.359273 52.417516 
L 274.663636 49.733053 
L 274.968 49.663023 
L 275.272364 46.861844 
L 275.881091 50.339975 
L 276.185455 48.986072 
L 276.794182 57.576354 
L 277.098545 53.864792 
L 277.707273 48.846013 
L 278.316 50.620093 
L 278.620364 50.316632 
L 278.924727 52.160741 
L 279.229091 50.293288 
L 279.533455 50.386661 
L 279.837818 49.009415 
L 280.142182 52.931065 
L 280.446545 49.663023 
L 280.750909 55.825617 
L 281.055273 52.954408 
L 281.359636 56.432539 
L 281.664 50.176573 
L 281.968364 49.756396 
L 282.272727 50.246602 
L 282.577091 49.266189 
L 282.881455 53.654703 
L 283.185818 50.316632 
L 283.490182 50.573406 
L 283.794545 52.650947 
L 284.098909 53.327899 
L 284.403273 48.029002 
L 284.707636 48.846013 
L 285.012 50.036514 
L 285.316364 52.394173 
L 285.925091 46.441667 
L 286.229455 54.378341 
L 286.533818 50.52672 
L 286.838182 51.903966 
L 287.142545 51.950653 
L 287.446909 51.670535 
L 287.751273 51.717221 
L 288.055636 51.016926 
L 288.36 47.445423 
L 288.664364 52.954408 
L 288.968727 56.105735 
L 289.273091 51.086956 
L 289.577455 52.977752 
L 289.881818 55.638872 
L 290.186182 51.740564 
L 290.490545 51.203672 
L 290.794909 54.028194 
L 291.099273 45.181137 
L 291.403636 52.837693 
L 291.708 49.382905 
L 292.012364 54.798518 
L 292.316727 47.748884 
L 292.925455 56.035705 
L 293.229818 53.351242 
L 293.534182 55.522156 
L 294.142909 51.437103 
L 294.447273 50.129886 
L 294.751636 49.826425 
L 295.056 51.880623 
L 295.664727 50.946897 
L 295.969091 56.759343 
L 296.273455 53.818105 
L 296.577818 53.748076 
L 296.882182 51.950653 
L 297.186545 51.250358 
L 297.490909 54.284968 
L 297.795273 53.281213 
L 298.099636 53.584674 
L 298.404 52.137398 
L 298.708364 54.098223 
L 299.012727 49.966484 
L 299.317091 52.067368 
L 299.621455 52.370829 
L 299.925818 51.390417 
L 300.534545 46.044834 
L 300.838909 51.273701 
L 301.143273 51.250358 
L 301.447636 50.176573 
L 301.752 50.876867 
L 302.056364 52.510888 
L 302.360727 53.211183 
L 302.665091 51.997339 
L 302.969455 50.036514 
L 303.273818 54.191596 
L 303.578182 49.592994 
L 303.882545 49.056101 
L 304.186909 51.85728 
L 304.491273 50.853524 
L 304.795636 48.986072 
L 305.1 51.227015 
L 305.404364 54.681802 
L 305.708727 49.102787 
L 306.013091 49.032758 
L 306.317455 48.355806 
L 306.621818 50.223259 
L 306.926182 50.246602 
L 307.230545 45.041078 
L 307.534909 50.900211 
L 307.839273 53.444615 
L 308.143636 47.632168 
L 308.448 48.542552 
L 308.752364 49.943141 
L 309.056727 50.410004 
L 309.361091 49.779739 
L 309.665455 47.8656 
L 309.969818 54.07488 
L 310.274182 49.826425 
L 310.578545 51.133642 
L 310.882909 53.467958 
L 311.187273 47.352051 
L 311.491636 51.880623 
L 311.796 52.207427 
L 312.404727 50.713465 
L 312.709091 47.211992 
L 313.013455 45.157794 
L 313.317818 52.160741 
L 313.622182 51.343731 
L 313.926545 48.659267 
L 314.230909 49.266189 
L 314.535273 52.417516 
L 314.839636 53.071124 
L 315.144 47.515453 
L 315.448364 47.398737 
L 315.752727 50.830181 
L 316.057091 51.227015 
L 316.361455 53.327899 
L 316.665818 48.215747 
L 317.274545 46.651756 
L 317.578909 51.437103 
L 317.883273 54.354998 
L 318.492 48.099032 
L 318.796364 50.246602 
L 319.100727 51.203672 
L 319.405091 50.736808 
L 319.709455 48.892699 
L 320.013818 43.687175 
L 320.318182 53.654703 
L 320.622545 48.425836 
L 320.926909 55.428783 
L 321.231273 49.966484 
L 321.84 50.223259 
L 322.144364 50.736808 
L 322.448727 51.647192 
L 322.753091 54.705145 
L 323.057455 49.102787 
L 323.361818 47.538796 
L 323.666182 51.973996 
L 323.970545 51.763907 
L 324.274909 52.090712 
L 324.579273 48.262434 
L 324.883636 48.332463 
L 325.188 51.156985 
L 325.492364 50.736808 
L 325.796727 52.160741 
L 326.101091 46.394981 
L 326.405455 49.126131 
L 326.709818 52.931065 
L 327.014182 49.359562 
L 327.318545 52.604261 
L 327.622909 51.717221 
L 328.231636 48.612581 
L 328.536 48.775983 
L 328.840364 51.040269 
L 329.144727 48.892699 
L 329.449091 50.316632 
L 329.753455 47.515453 
L 330.057818 53.981507 
L 330.362182 48.30912 
L 330.666545 54.004851 
L 330.970909 46.97856 
L 331.275273 53.327899 
L 331.579636 47.702198 
L 331.884 47.562139 
L 332.188364 51.063613 
L 332.492727 46.885187 
L 333.101455 52.954408 
L 333.405818 49.079444 
L 333.710182 48.869356 
L 334.014545 50.52672 
L 334.318909 50.269945 
L 334.623273 49.266189 
L 334.927636 49.056101 
L 335.232 49.289533 
L 335.536364 46.53504 
L 335.840727 52.627604 
L 336.449455 46.044834 
L 336.753818 51.483789 
L 337.058182 48.986072 
L 337.666909 52.324143 
L 337.971273 50.993583 
L 338.275636 50.97024 
L 338.58 52.791006 
L 338.884364 48.916042 
L 339.188727 53.281213 
L 339.493091 46.581726 
L 339.797455 50.760152 
L 340.710545 45.414568 
L 341.014909 47.165305 
L 341.319273 51.507133 
L 341.623636 48.612581 
L 341.928 48.332463 
L 342.232364 48.635924 
L 342.841091 55.755587 
L 343.754182 47.235335 
L 344.058545 53.724733 
L 344.362909 51.227015 
L 344.667273 49.733053 
L 344.971636 50.993583 
L 345.276 46.721785 
L 345.580364 49.149474 
L 345.884727 47.515453 
L 346.189091 49.896455 
L 346.493455 48.519208 
L 346.797818 49.172817 
L 347.102182 51.273701 
L 347.406545 47.8656 
L 347.710909 49.756396 
L 348.015273 53.397928 
L 348.319636 49.919798 
L 348.624 49.406248 
L 348.928364 51.833937 
L 349.232727 48.449179 
L 349.537091 51.973996 
L 349.841455 50.013171 
L 350.145818 50.666779 
L 350.450182 46.97856 
L 350.754545 47.772227 
L 351.058909 52.861036 
L 351.363273 46.394981 
L 351.667636 48.962728 
L 351.972 47.258678 
L 352.276364 47.352051 
L 352.580727 48.799326 
L 352.885091 46.161549 
L 353.189455 49.546307 
L 353.493818 49.126131 
L 353.798182 51.85728 
L 354.102545 48.986072 
L 354.406909 48.659267 
L 354.711273 51.086956 
L 355.015636 46.184893 
L 355.32 51.227015 
L 355.624364 45.461255 
L 355.928727 49.63968 
L 356.233091 49.663023 
L 356.537455 50.503377 
L 356.841818 49.686366 
L 357.146182 52.230771 
L 357.450545 47.375394 
L 358.059273 51.086956 
L 358.363636 49.056101 
L 358.668 48.402493 
L 358.972364 52.627604 
L 359.276727 45.858088 
L 359.581091 51.997339 
L 359.885455 48.775983 
L 360.189818 51.273701 
L 360.494182 47.912286 
L 360.798545 50.223259 
L 361.102909 46.838501 
L 361.407273 47.398737 
L 361.711636 47.492109 
L 362.016 49.966484 
L 362.320364 46.675099 
L 362.624727 49.779739 
L 362.929091 47.328707 
L 363.233455 46.861844 
L 363.842182 51.250358 
L 364.146545 50.269945 
L 364.450909 47.468766 
L 364.755273 51.693878 
L 365.059636 45.251166 
L 365.364 49.663023 
L 365.668364 48.659267 
L 365.972727 49.756396 
L 366.277091 47.702198 
L 366.581455 50.52672 
L 366.885818 46.254922 
L 367.190182 51.577162 
L 367.494545 47.538796 
L 367.798909 45.834745 
L 368.103273 52.557575 
L 368.407636 49.569651 
L 368.712 53.234526 
L 369.016364 46.371638 
L 369.320727 52.767663 
L 369.625091 48.682611 
L 369.929455 47.538796 
L 370.233818 51.880623 
L 370.538182 52.674291 
L 371.146909 44.76096 
L 371.451273 50.013171 
L 371.755636 48.449179 
L 372.06 51.623848 
L 372.364364 47.188648 
L 372.668727 51.110299 
L 373.277455 47.842257 
L 373.277455 47.842257 
" style="fill:none;stroke:#ff0000;stroke-linecap:square;stroke-width:0.5;"/>
   </g>
   <g id="patch_3">
    <path d="M 54 256.32 
L 54 34.56 
" style="fill:none;stroke:#000000;stroke-linecap:square;stroke-linejoin:miter;stroke-width:0.8;"/>
   </g>
   <g id="patch_4">
    <path d="M 388.8 256.32 
L 388.8 34.56 
" style="fill:none;stroke:#000000;stroke-linecap:square;stroke-linejoin:miter;stroke-width:0.8;"/>
   </g>
   <g id="patch_5">
    <path d="M 54 256.32 
L 388.8 256.32 
" style="fill:none;stroke:#000000;stroke-linecap:square;stroke-linejoin:miter;stroke-width:0.8;"/>
   </g>
   <g id="patch_6">
    <path d="M 54 34.56 
L 388.8 34.56 
" style="fill:none;stroke:#000000;stroke-linecap:square;stroke-linejoin:miter;stroke-width:0.8;"/>
   </g>
   <g id="legend_1">
    <g id="patch_7">
     <path d="M 128.1 251.32 
L 381.8 251.32 
Q 383.8 251.32 383.8 249.32 
L 383.8 205.46375 
Q 383.8 203.46375 381.8 203.46375 
L 128.1 203.46375 
Q 126.1 203.46375 126.1 205.46375 
L 126.1 249.32 
Q 126.1 251.32 128.1 251.32 
z
" style="fill:#ffffff;opacity:0.8;stroke:#cccccc;stroke-linejoin:miter;"/>
    </g>
    <g id="line2d_16">
     <path d="M 130.1 211.562187 
L 150.1 211.562187 
" style="fill:none;stroke:#808080;stroke-dasharray:1.85,0.8;stroke-dashoffset:0;stroke-width:0.5;"/>
    </g>
    <g id="line2d_17"/>
    <g id="text_15">
     <!-- true value -->
     <g transform="translate(158.1 215.062187)scale(0.1 -0.1)">
      <use xlink:href="#DejaVuSans-116"/>
      <use x="39.208984" xlink:href="#DejaVuSans-114"/>
      <use x="80.322266" xlink:href="#DejaVuSans-117"/>
      <use x="143.701172" xlink:href="#DejaVuSans-101"/>
      <use x="205.224609" xlink:href="#DejaVuSans-32"/>
      <use x="237.011719" xlink:href="#DejaVuSans-118"/>
      <use x="296.191406" xlink:href="#DejaVuSans-97"/>
      <use x="357.470703" xlink:href="#DejaVuSans-108"/>
      <use x="385.253906" xlink:href="#DejaVuSans-117"/>
      <use x="448.632812" xlink:href="#DejaVuSans-101"/>
     </g>
    </g>
    <g id="line2d_18">
     <path d="M 130.1 227.062187 
L 150.1 227.062187 
" style="fill:none;stroke:#32cd32;stroke-linecap:square;stroke-width:0.5;"/>
    </g>
    <g id="line2d_19"/>
    <g id="text_16">
     <!-- REINFORICE with baseline $\alpha^{\theta} = 2^{-9}, \alpha^{w} = 2^{-6}$ -->
     <defs>
      <path d="M 44.390625 34.1875 
Q 47.5625 33.109375 50.5625 29.59375 
Q 53.5625 26.078125 56.59375 19.921875 
L 66.609375 0 
L 56 0 
L 46.6875 18.703125 
Q 43.0625 26.03125 39.671875 28.421875 
Q 36.28125 30.8125 30.421875 30.8125 
L 19.671875 30.8125 
L 19.671875 0 
L 9.8125 0 
L 9.8125 72.90625 
L 32.078125 72.90625 
Q 44.578125 72.90625 50.734375 67.671875 
Q 56.890625 62.453125 56.890625 51.90625 
Q 56.890625 45.015625 53.6875 40.46875 
Q 50.484375 35.9375 44.390625 34.1875 
z
M 19.671875 64.796875 
L 19.671875 38.921875 
L 32.078125 38.921875 
Q 39.203125 38.921875 42.84375 42.21875 
Q 46.484375 45.515625 46.484375 51.90625 
Q 46.484375 58.296875 42.84375 61.546875 
Q 39.203125 64.796875 32.078125 64.796875 
z
" id="DejaVuSans-82"/>
      <path d="M 9.8125 72.90625 
L 19.671875 72.90625 
L 19.671875 0 
L 9.8125 0 
z
" id="DejaVuSans-73"/>
      <path d="M 9.8125 72.90625 
L 23.09375 72.90625 
L 55.421875 11.921875 
L 55.421875 72.90625 
L 64.984375 72.90625 
L 64.984375 0 
L 51.703125 0 
L 19.390625 60.984375 
L 19.390625 0 
L 9.8125 0 
z
" id="DejaVuSans-78"/>
      <path d="M 9.8125 72.90625 
L 51.703125 72.90625 
L 51.703125 64.59375 
L 19.671875 64.59375 
L 19.671875 43.109375 
L 48.578125 43.109375 
L 48.578125 34.8125 
L 19.671875 34.8125 
L 19.671875 0 
L 9.8125 0 
z
" id="DejaVuSans-70"/>
      <path d="M 39.40625 66.21875 
Q 28.65625 66.21875 22.328125 58.203125 
Q 16.015625 50.203125 16.015625 36.375 
Q 16.015625 22.609375 22.328125 14.59375 
Q 28.65625 6.59375 39.40625 6.59375 
Q 50.140625 6.59375 56.421875 14.59375 
Q 62.703125 22.609375 62.703125 36.375 
Q 62.703125 50.203125 56.421875 58.203125 
Q 50.140625 66.21875 39.40625 66.21875 
z
M 39.40625 74.21875 
Q 54.734375 74.21875 63.90625 63.9375 
Q 73.09375 53.65625 73.09375 36.375 
Q 73.09375 19.140625 63.90625 8.859375 
Q 54.734375 -1.421875 39.40625 -1.421875 
Q 24.03125 -1.421875 14.8125 8.828125 
Q 5.609375 19.09375 5.609375 36.375 
Q 5.609375 53.65625 14.8125 63.9375 
Q 24.03125 74.21875 39.40625 74.21875 
z
" id="DejaVuSans-79"/>
      <path d="M 64.40625 67.28125 
L 64.40625 56.890625 
Q 59.421875 61.53125 53.78125 63.8125 
Q 48.140625 66.109375 41.796875 66.109375 
Q 29.296875 66.109375 22.65625 58.46875 
Q 16.015625 50.828125 16.015625 36.375 
Q 16.015625 21.96875 22.65625 14.328125 
Q 29.296875 6.6875 41.796875 6.6875 
Q 48.140625 6.6875 53.78125 8.984375 
Q 59.421875 11.28125 64.40625 15.921875 
L 64.40625 5.609375 
Q 59.234375 2.09375 53.4375 0.328125 
Q 47.65625 -1.421875 41.21875 -1.421875 
Q 24.65625 -1.421875 15.125 8.703125 
Q 5.609375 18.84375 5.609375 36.375 
Q 5.609375 53.953125 15.125 64.078125 
Q 24.65625 74.21875 41.21875 74.21875 
Q 47.75 74.21875 53.53125 72.484375 
Q 59.328125 70.75 64.40625 67.28125 
z
" id="DejaVuSans-67"/>
      <path d="M 54.890625 33.015625 
L 54.890625 0 
L 45.90625 0 
L 45.90625 32.71875 
Q 45.90625 40.484375 42.875 44.328125 
Q 39.84375 48.1875 33.796875 48.1875 
Q 26.515625 48.1875 22.3125 43.546875 
Q 18.109375 38.921875 18.109375 30.90625 
L 18.109375 0 
L 9.078125 0 
L 9.078125 75.984375 
L 18.109375 75.984375 
L 18.109375 46.1875 
Q 21.34375 51.125 25.703125 53.5625 
Q 30.078125 56 35.796875 56 
Q 45.21875 56 50.046875 50.171875 
Q 54.890625 44.34375 54.890625 33.015625 
z
" id="DejaVuSans-104"/>
      <path d="M 48.6875 27.296875 
Q 48.6875 37.203125 44.609375 42.84375 
Q 40.53125 48.484375 33.40625 48.484375 
Q 26.265625 48.484375 22.1875 42.84375 
Q 18.109375 37.203125 18.109375 27.296875 
Q 18.109375 17.390625 22.1875 11.75 
Q 26.265625 6.109375 33.40625 6.109375 
Q 40.53125 6.109375 44.609375 11.75 
Q 48.6875 17.390625 48.6875 27.296875 
z
M 18.109375 46.390625 
Q 20.953125 51.265625 25.265625 53.625 
Q 29.59375 56 35.59375 56 
Q 45.5625 56 51.78125 48.09375 
Q 58.015625 40.1875 58.015625 27.296875 
Q 58.015625 14.40625 51.78125 6.484375 
Q 45.5625 -1.421875 35.59375 -1.421875 
Q 29.59375 -1.421875 25.265625 0.953125 
Q 20.953125 3.328125 18.109375 8.203125 
L 18.109375 0 
L 9.078125 0 
L 9.078125 75.984375 
L 18.109375 75.984375 
z
" id="DejaVuSans-98"/>
      <path d="M 40.921875 25.4375 
L 40.96875 36.71875 
Q 41.015625 48.25 32.328125 48.296875 
Q 25.828125 48.34375 21.78125 42.921875 
Q 16.703125 36.234375 14.984375 27.296875 
Q 12.890625 16.546875 15.53125 11.421875 
Q 18.265625 6.203125 24.171875 6.203125 
Q 30.71875 6.203125 36.234375 16.609375 
z
M 33.84375 55.90625 
Q 49.078125 56.15625 48.875 40.375 
Q 48.875 40.375 56.5 54.6875 
L 64.5 54.6875 
L 48.734375 25.046875 
L 48.578125 14.359375 
Q 48.578125 11.96875 49.90625 9.96875 
Q 51.421875 7.625 52.984375 7.625 
L 57.328125 7.625 
L 55.859375 0 
L 50.4375 0 
Q 45.84375 0 42.53125 4.109375 
Q 40.96875 6.15625 40.921875 10.453125 
Q 37.75 5.21875 32.28125 0.78125 
Q 29.6875 -1.265625 22.703125 -1.21875 
Q 11.28125 -1.125 7.125 6.203125 
Q 2.875 13.8125 5.515625 27.296875 
Q 8.34375 41.796875 15.765625 48.390625 
Q 24.125 55.765625 33.84375 55.90625 
z
" id="DejaVuSans-Oblique-945"/>
      <path d="M 45.515625 34.671875 
L 14.453125 34.671875 
Q 12.359375 20.0625 14.5 13.875 
Q 17.1875 6.25 24.46875 6.25 
Q 31.78125 6.25 37.359375 13.921875 
Q 42.234375 20.65625 45.515625 34.671875 
z
M 47.015625 42.96875 
Q 48.34375 56.84375 46.625 61.71875 
Q 43.953125 69.4375 36.765625 69.4375 
Q 29.296875 69.4375 23.828125 61.8125 
Q 19.53125 55.671875 16.15625 42.96875 
z
M 38.1875 76.765625 
Q 49.90625 76.765625 54.59375 66.40625 
Q 59.28125 56.109375 55.71875 37.84375 
Q 52.203125 19.625 43.453125 9.28125 
Q 34.765625 -1.125 23.046875 -1.125 
Q 11.28125 -1.125 6.640625 9.28125 
Q 2 19.625 5.515625 37.84375 
Q 9.078125 56.109375 17.71875 66.40625 
Q 26.421875 76.765625 38.1875 76.765625 
z
" id="DejaVuSans-Oblique-952"/>
      <path d="M 10.59375 45.40625 
L 73.1875 45.40625 
L 73.1875 37.203125 
L 10.59375 37.203125 
z
M 10.59375 25.484375 
L 73.1875 25.484375 
L 73.1875 17.1875 
L 10.59375 17.1875 
z
" id="DejaVuSans-61"/>
      <path d="M 11.71875 12.40625 
L 22.015625 12.40625 
L 22.015625 4 
L 14.015625 -11.625 
L 7.71875 -11.625 
L 11.71875 4 
z
" id="DejaVuSans-44"/>
      <path d="M 8.5 54.6875 
L 17.390625 54.6875 
L 19.671875 10.6875 
L 40.09375 54.6875 
L 50.484375 54.6875 
L 53.515625 10.6875 
L 72.90625 54.6875 
L 81.890625 54.6875 
L 56.890625 0 
L 46.390625 0 
L 43.703125 45.3125 
L 22.796875 0 
L 12.203125 0 
z
" id="DejaVuSans-Oblique-119"/>
     </defs>
     <g transform="translate(158.1 230.562187)scale(0.1 -0.1)">
      <use transform="translate(0 0.982812)" xlink:href="#DejaVuSans-82"/>
      <use transform="translate(69.482422 0.982812)" xlink:href="#DejaVuSans-69"/>
      <use transform="translate(132.666016 0.982812)" xlink:href="#DejaVuSans-73"/>
      <use transform="translate(162.158203 0.982812)" xlink:href="#DejaVuSans-78"/>
      <use transform="translate(236.962891 0.982812)" xlink:href="#DejaVuSans-70"/>
      <use transform="translate(294.482422 0.982812)" xlink:href="#DejaVuSans-79"/>
      <use transform="translate(373.193359 0.982812)" xlink:href="#DejaVuSans-82"/>
      <use transform="translate(442.675781 0.982812)" xlink:href="#DejaVuSans-73"/>
      <use transform="translate(472.167969 0.982812)" xlink:href="#DejaVuSans-67"/>
      <use transform="translate(541.992188 0.982812)" xlink:href="#DejaVuSans-69"/>
      <use transform="translate(605.175781 0.982812)" xlink:href="#DejaVuSans-32"/>
      <use transform="translate(636.962891 0.982812)" xlink:href="#DejaVuSans-119"/>
      <use transform="translate(718.75 0.982812)" xlink:href="#DejaVuSans-105"/>
      <use transform="translate(746.533203 0.982812)" xlink:href="#DejaVuSans-116"/>
      <use transform="translate(785.742188 0.982812)" xlink:href="#DejaVuSans-104"/>
      <use transform="translate(849.121094 0.982812)" xlink:href="#DejaVuSans-32"/>
      <use transform="translate(880.908203 0.982812)" xlink:href="#DejaVuSans-98"/>
      <use transform="translate(944.384766 0.982812)" xlink:href="#DejaVuSans-97"/>
      <use transform="translate(1005.664062 0.982812)" xlink:href="#DejaVuSans-115"/>
      <use transform="translate(1057.763672 0.982812)" xlink:href="#DejaVuSans-101"/>
      <use transform="translate(1119.287109 0.982812)" xlink:href="#DejaVuSans-108"/>
      <use transform="translate(1147.070312 0.982812)" xlink:href="#DejaVuSans-105"/>
      <use transform="translate(1174.853516 0.982812)" xlink:href="#DejaVuSans-110"/>
      <use transform="translate(1238.232422 0.982812)" xlink:href="#DejaVuSans-101"/>
      <use transform="translate(1299.755859 0.982812)" xlink:href="#DejaVuSans-32"/>
      <use transform="translate(1331.542969 0.982812)" xlink:href="#DejaVuSans-Oblique-945"/>
      <use transform="translate(1402.132708 39.264062)scale(0.7)" xlink:href="#DejaVuSans-Oblique-952"/>
      <use transform="translate(1467.176654 0.982812)" xlink:href="#DejaVuSans-61"/>
      <use transform="translate(1570.448138 0.982812)" xlink:href="#DejaVuSans-50"/>
      <use transform="translate(1635.028216 39.264062)scale(0.7)" xlink:href="#DejaVuSans-8722"/>
      <use transform="translate(1693.68056 39.264062)scale(0.7)" xlink:href="#DejaVuSans-57"/>
      <use transform="translate(1740.951068 0.982812)" xlink:href="#DejaVuSans-44"/>
      <use transform="translate(1792.220599 0.982812)" xlink:href="#DejaVuSans-Oblique-945"/>
      <use transform="translate(1862.810339 39.264062)scale(0.7)" xlink:href="#DejaVuSans-Oblique-119"/>
      <use transform="translate(1942.278112 0.982812)" xlink:href="#DejaVuSans-61"/>
      <use transform="translate(2045.549596 0.982812)" xlink:href="#DejaVuSans-50"/>
      <use transform="translate(2110.129674 39.264062)scale(0.7)" xlink:href="#DejaVuSans-8722"/>
      <use transform="translate(2168.782018 39.264062)scale(0.7)" xlink:href="#DejaVuSans-54"/>
     </g>
    </g>
    <g id="line2d_20">
     <path d="M 130.1 241.740313 
L 150.1 241.740313 
" style="fill:none;stroke:#ff0000;stroke-linecap:square;stroke-width:0.5;"/>
    </g>
    <g id="line2d_21"/>
    <g id="text_17">
     <!-- REINFORICE $\alpha = 2^{-13}$ -->
     <defs>
      <path d="M 40.578125 39.3125 
Q 47.65625 37.796875 51.625 33 
Q 55.609375 28.21875 55.609375 21.1875 
Q 55.609375 10.40625 48.1875 4.484375 
Q 40.765625 -1.421875 27.09375 -1.421875 
Q 22.515625 -1.421875 17.65625 -0.515625 
Q 12.796875 0.390625 7.625 2.203125 
L 7.625 11.71875 
Q 11.71875 9.328125 16.59375 8.109375 
Q 21.484375 6.890625 26.8125 6.890625 
Q 36.078125 6.890625 40.9375 10.546875 
Q 45.796875 14.203125 45.796875 21.1875 
Q 45.796875 27.640625 41.28125 31.265625 
Q 36.765625 34.90625 28.71875 34.90625 
L 20.21875 34.90625 
L 20.21875 43.015625 
L 29.109375 43.015625 
Q 36.375 43.015625 40.234375 45.921875 
Q 44.09375 48.828125 44.09375 54.296875 
Q 44.09375 59.90625 40.109375 62.90625 
Q 36.140625 65.921875 28.71875 65.921875 
Q 24.65625 65.921875 20.015625 65.03125 
Q 15.375 64.15625 9.8125 62.3125 
L 9.8125 71.09375 
Q 15.4375 72.65625 20.34375 73.4375 
Q 25.25 74.21875 29.59375 74.21875 
Q 40.828125 74.21875 47.359375 69.109375 
Q 53.90625 64.015625 53.90625 55.328125 
Q 53.90625 49.265625 50.4375 45.09375 
Q 46.96875 40.921875 40.578125 39.3125 
z
" id="DejaVuSans-51"/>
     </defs>
     <g transform="translate(158.1 245.240313)scale(0.1 -0.1)">
      <use transform="translate(0 0.765625)" xlink:href="#DejaVuSans-82"/>
      <use transform="translate(69.482422 0.765625)" xlink:href="#DejaVuSans-69"/>
      <use transform="translate(132.666016 0.765625)" xlink:href="#DejaVuSans-73"/>
      <use transform="translate(162.158203 0.765625)" xlink:href="#DejaVuSans-78"/>
      <use transform="translate(236.962891 0.765625)" xlink:href="#DejaVuSans-70"/>
      <use transform="translate(294.482422 0.765625)" xlink:href="#DejaVuSans-79"/>
      <use transform="translate(373.193359 0.765625)" xlink:href="#DejaVuSans-82"/>
      <use transform="translate(442.675781 0.765625)" xlink:href="#DejaVuSans-73"/>
      <use transform="translate(472.167969 0.765625)" xlink:href="#DejaVuSans-67"/>
      <use transform="translate(541.992188 0.765625)" xlink:href="#DejaVuSans-69"/>
      <use transform="translate(605.175781 0.765625)" xlink:href="#DejaVuSans-32"/>
      <use transform="translate(636.962891 0.765625)" xlink:href="#DejaVuSans-Oblique-945"/>
      <use transform="translate(722.363281 0.765625)" xlink:href="#DejaVuSans-61"/>
      <use transform="translate(825.634766 0.765625)" xlink:href="#DejaVuSans-50"/>
      <use transform="translate(890.214844 39.046875)scale(0.7)" xlink:href="#DejaVuSans-8722"/>
      <use transform="translate(948.867188 39.046875)scale(0.7)" xlink:href="#DejaVuSans-49"/>
      <use transform="translate(993.40332 39.046875)scale(0.7)" xlink:href="#DejaVuSans-51"/>
     </g>
    </g>
   </g>
  </g>
 </g>
 <defs>
  <clipPath id="p6357370625">
   <rect height="221.76" width="334.8" x="54" y="34.56"/>
  </clipPath>
 </defs>
</svg>
