<?xml version="1.0" encoding="utf-8" standalone="no"?>
<!DOCTYPE svg PUBLIC "-//W3C//DTD SVG 1.1//EN"
  "http://www.w3.org/Graphics/SVG/1.1/DTD/svg11.dtd">
<!-- Created with matplotlib (https://matplotlib.org/) -->
<svg height="381.195469pt" version="1.1" viewBox="0 0 556.365625 381.195469" width="556.365625pt" xmlns="http://www.w3.org/2000/svg" xmlns:xlink="http://www.w3.org/1999/xlink">
 <defs>
  <style type="text/css">
*{stroke-linecap:butt;stroke-linejoin:round;}
  </style>
 </defs>
 <g id="figure_1">
  <g id="patch_1">
   <path d="M 0 381.195469 
L 556.365625 381.195469 
L 556.365625 0 
L 0 0 
z
" style="fill:#ffffff;"/>
  </g>
  <g id="axes_1">
   <g id="patch_2">
    <path d="M 46.965625 343.639219 
L 549.165625 343.639219 
L 549.165625 10.999219 
L 46.965625 10.999219 
z
" style="fill:#ffffff;"/>
   </g>
   <g id="matplotlib.axis_1">
    <g id="xtick_1">
     <g id="line2d_1">
      <defs>
       <path d="M 0 0 
L 0 3.5 
" id="m1333f1edb7" style="stroke:#000000;stroke-width:0.8;"/>
      </defs>
      <g>
       <use style="stroke:#000000;stroke-width:0.8;" x="69.792898" xlink:href="#m1333f1edb7" y="343.639219"/>
      </g>
     </g>
     <g id="text_1">
      <!-- 0 -->
      <defs>
       <path d="M 31.78125 66.40625 
Q 24.171875 66.40625 20.328125 58.90625 
Q 16.5 51.421875 16.5 36.375 
Q 16.5 21.390625 20.328125 13.890625 
Q 24.171875 6.390625 31.78125 6.390625 
Q 39.453125 6.390625 43.28125 13.890625 
Q 47.125 21.390625 47.125 36.375 
Q 47.125 51.421875 43.28125 58.90625 
Q 39.453125 66.40625 31.78125 66.40625 
z
M 31.78125 74.21875 
Q 44.046875 74.21875 50.515625 64.515625 
Q 56.984375 54.828125 56.984375 36.375 
Q 56.984375 17.96875 50.515625 8.265625 
Q 44.046875 -1.421875 31.78125 -1.421875 
Q 19.53125 -1.421875 13.0625 8.265625 
Q 6.59375 17.96875 6.59375 36.375 
Q 6.59375 54.828125 13.0625 64.515625 
Q 19.53125 74.21875 31.78125 74.21875 
z
" id="DejaVuSans-48"/>
      </defs>
      <g transform="translate(66.611648 358.237656)scale(0.1 -0.1)">
       <use xlink:href="#DejaVuSans-48"/>
      </g>
     </g>
    </g>
    <g id="xtick_2">
     <g id="line2d_2">
      <g>
       <use style="stroke:#000000;stroke-width:0.8;" x="145.896491" xlink:href="#m1333f1edb7" y="343.639219"/>
      </g>
     </g>
     <g id="text_2">
      <!-- 1000 -->
      <defs>
       <path d="M 12.40625 8.296875 
L 28.515625 8.296875 
L 28.515625 63.921875 
L 10.984375 60.40625 
L 10.984375 69.390625 
L 28.421875 72.90625 
L 38.28125 72.90625 
L 38.28125 8.296875 
L 54.390625 8.296875 
L 54.390625 0 
L 12.40625 0 
z
" id="DejaVuSans-49"/>
      </defs>
      <g transform="translate(133.171491 358.237656)scale(0.1 -0.1)">
       <use xlink:href="#DejaVuSans-49"/>
       <use x="63.623047" xlink:href="#DejaVuSans-48"/>
       <use x="127.246094" xlink:href="#DejaVuSans-48"/>
       <use x="190.869141" xlink:href="#DejaVuSans-48"/>
      </g>
     </g>
    </g>
    <g id="xtick_3">
     <g id="line2d_3">
      <g>
       <use style="stroke:#000000;stroke-width:0.8;" x="222.000084" xlink:href="#m1333f1edb7" y="343.639219"/>
      </g>
     </g>
     <g id="text_3">
      <!-- 2000 -->
      <defs>
       <path d="M 19.1875 8.296875 
L 53.609375 8.296875 
L 53.609375 0 
L 7.328125 0 
L 7.328125 8.296875 
Q 12.9375 14.109375 22.625 23.890625 
Q 32.328125 33.6875 34.8125 36.53125 
Q 39.546875 41.84375 41.421875 45.53125 
Q 43.3125 49.21875 43.3125 52.78125 
Q 43.3125 58.59375 39.234375 62.25 
Q 35.15625 65.921875 28.609375 65.921875 
Q 23.96875 65.921875 18.8125 64.3125 
Q 13.671875 62.703125 7.8125 59.421875 
L 7.8125 69.390625 
Q 13.765625 71.78125 18.9375 73 
Q 24.125 74.21875 28.421875 74.21875 
Q 39.75 74.21875 46.484375 68.546875 
Q 53.21875 62.890625 53.21875 53.421875 
Q 53.21875 48.921875 51.53125 44.890625 
Q 49.859375 40.875 45.40625 35.40625 
Q 44.1875 33.984375 37.640625 27.21875 
Q 31.109375 20.453125 19.1875 8.296875 
z
" id="DejaVuSans-50"/>
      </defs>
      <g transform="translate(209.275084 358.237656)scale(0.1 -0.1)">
       <use xlink:href="#DejaVuSans-50"/>
       <use x="63.623047" xlink:href="#DejaVuSans-48"/>
       <use x="127.246094" xlink:href="#DejaVuSans-48"/>
       <use x="190.869141" xlink:href="#DejaVuSans-48"/>
      </g>
     </g>
    </g>
    <g id="xtick_4">
     <g id="line2d_4">
      <g>
       <use style="stroke:#000000;stroke-width:0.8;" x="298.103677" xlink:href="#m1333f1edb7" y="343.639219"/>
      </g>
     </g>
     <g id="text_4">
      <!-- 3000 -->
      <defs>
       <path d="M 40.578125 39.3125 
Q 47.65625 37.796875 51.625 33 
Q 55.609375 28.21875 55.609375 21.1875 
Q 55.609375 10.40625 48.1875 4.484375 
Q 40.765625 -1.421875 27.09375 -1.421875 
Q 22.515625 -1.421875 17.65625 -0.515625 
Q 12.796875 0.390625 7.625 2.203125 
L 7.625 11.71875 
Q 11.71875 9.328125 16.59375 8.109375 
Q 21.484375 6.890625 26.8125 6.890625 
Q 36.078125 6.890625 40.9375 10.546875 
Q 45.796875 14.203125 45.796875 21.1875 
Q 45.796875 27.640625 41.28125 31.265625 
Q 36.765625 34.90625 28.71875 34.90625 
L 20.21875 34.90625 
L 20.21875 43.015625 
L 29.109375 43.015625 
Q 36.375 43.015625 40.234375 45.921875 
Q 44.09375 48.828125 44.09375 54.296875 
Q 44.09375 59.90625 40.109375 62.90625 
Q 36.140625 65.921875 28.71875 65.921875 
Q 24.65625 65.921875 20.015625 65.03125 
Q 15.375 64.15625 9.8125 62.3125 
L 9.8125 71.09375 
Q 15.4375 72.65625 20.34375 73.4375 
Q 25.25 74.21875 29.59375 74.21875 
Q 40.828125 74.21875 47.359375 69.109375 
Q 53.90625 64.015625 53.90625 55.328125 
Q 53.90625 49.265625 50.4375 45.09375 
Q 46.96875 40.921875 40.578125 39.3125 
z
" id="DejaVuSans-51"/>
      </defs>
      <g transform="translate(285.378677 358.237656)scale(0.1 -0.1)">
       <use xlink:href="#DejaVuSans-51"/>
       <use x="63.623047" xlink:href="#DejaVuSans-48"/>
       <use x="127.246094" xlink:href="#DejaVuSans-48"/>
       <use x="190.869141" xlink:href="#DejaVuSans-48"/>
      </g>
     </g>
    </g>
    <g id="xtick_5">
     <g id="line2d_5">
      <g>
       <use style="stroke:#000000;stroke-width:0.8;" x="374.20727" xlink:href="#m1333f1edb7" y="343.639219"/>
      </g>
     </g>
     <g id="text_5">
      <!-- 4000 -->
      <defs>
       <path d="M 37.796875 64.3125 
L 12.890625 25.390625 
L 37.796875 25.390625 
z
M 35.203125 72.90625 
L 47.609375 72.90625 
L 47.609375 25.390625 
L 58.015625 25.390625 
L 58.015625 17.1875 
L 47.609375 17.1875 
L 47.609375 0 
L 37.796875 0 
L 37.796875 17.1875 
L 4.890625 17.1875 
L 4.890625 26.703125 
z
" id="DejaVuSans-52"/>
      </defs>
      <g transform="translate(361.48227 358.237656)scale(0.1 -0.1)">
       <use xlink:href="#DejaVuSans-52"/>
       <use x="63.623047" xlink:href="#DejaVuSans-48"/>
       <use x="127.246094" xlink:href="#DejaVuSans-48"/>
       <use x="190.869141" xlink:href="#DejaVuSans-48"/>
      </g>
     </g>
    </g>
    <g id="xtick_6">
     <g id="line2d_6">
      <g>
       <use style="stroke:#000000;stroke-width:0.8;" x="450.310863" xlink:href="#m1333f1edb7" y="343.639219"/>
      </g>
     </g>
     <g id="text_6">
      <!-- 5000 -->
      <defs>
       <path d="M 10.796875 72.90625 
L 49.515625 72.90625 
L 49.515625 64.59375 
L 19.828125 64.59375 
L 19.828125 46.734375 
Q 21.96875 47.46875 24.109375 47.828125 
Q 26.265625 48.1875 28.421875 48.1875 
Q 40.625 48.1875 47.75 41.5 
Q 54.890625 34.8125 54.890625 23.390625 
Q 54.890625 11.625 47.5625 5.09375 
Q 40.234375 -1.421875 26.90625 -1.421875 
Q 22.3125 -1.421875 17.546875 -0.640625 
Q 12.796875 0.140625 7.71875 1.703125 
L 7.71875 11.625 
Q 12.109375 9.234375 16.796875 8.0625 
Q 21.484375 6.890625 26.703125 6.890625 
Q 35.15625 6.890625 40.078125 11.328125 
Q 45.015625 15.765625 45.015625 23.390625 
Q 45.015625 31 40.078125 35.4375 
Q 35.15625 39.890625 26.703125 39.890625 
Q 22.75 39.890625 18.8125 39.015625 
Q 14.890625 38.140625 10.796875 36.28125 
z
" id="DejaVuSans-53"/>
      </defs>
      <g transform="translate(437.585863 358.237656)scale(0.1 -0.1)">
       <use xlink:href="#DejaVuSans-53"/>
       <use x="63.623047" xlink:href="#DejaVuSans-48"/>
       <use x="127.246094" xlink:href="#DejaVuSans-48"/>
       <use x="190.869141" xlink:href="#DejaVuSans-48"/>
      </g>
     </g>
    </g>
    <g id="xtick_7">
     <g id="line2d_7">
      <g>
       <use style="stroke:#000000;stroke-width:0.8;" x="526.414456" xlink:href="#m1333f1edb7" y="343.639219"/>
      </g>
     </g>
     <g id="text_7">
      <!-- 6000 -->
      <defs>
       <path d="M 33.015625 40.375 
Q 26.375 40.375 22.484375 35.828125 
Q 18.609375 31.296875 18.609375 23.390625 
Q 18.609375 15.53125 22.484375 10.953125 
Q 26.375 6.390625 33.015625 6.390625 
Q 39.65625 6.390625 43.53125 10.953125 
Q 47.40625 15.53125 47.40625 23.390625 
Q 47.40625 31.296875 43.53125 35.828125 
Q 39.65625 40.375 33.015625 40.375 
z
M 52.59375 71.296875 
L 52.59375 62.3125 
Q 48.875 64.0625 45.09375 64.984375 
Q 41.3125 65.921875 37.59375 65.921875 
Q 27.828125 65.921875 22.671875 59.328125 
Q 17.53125 52.734375 16.796875 39.40625 
Q 19.671875 43.65625 24.015625 45.921875 
Q 28.375 48.1875 33.59375 48.1875 
Q 44.578125 48.1875 50.953125 41.515625 
Q 57.328125 34.859375 57.328125 23.390625 
Q 57.328125 12.15625 50.6875 5.359375 
Q 44.046875 -1.421875 33.015625 -1.421875 
Q 20.359375 -1.421875 13.671875 8.265625 
Q 6.984375 17.96875 6.984375 36.375 
Q 6.984375 53.65625 15.1875 63.9375 
Q 23.390625 74.21875 37.203125 74.21875 
Q 40.921875 74.21875 44.703125 73.484375 
Q 48.484375 72.75 52.59375 71.296875 
z
" id="DejaVuSans-54"/>
      </defs>
      <g transform="translate(513.689456 358.237656)scale(0.1 -0.1)">
       <use xlink:href="#DejaVuSans-54"/>
       <use x="63.623047" xlink:href="#DejaVuSans-48"/>
       <use x="127.246094" xlink:href="#DejaVuSans-48"/>
       <use x="190.869141" xlink:href="#DejaVuSans-48"/>
      </g>
     </g>
    </g>
    <g id="text_8">
     <!-- Time steps -->
     <defs>
      <path d="M -0.296875 72.90625 
L 61.375 72.90625 
L 61.375 64.59375 
L 35.5 64.59375 
L 35.5 0 
L 25.59375 0 
L 25.59375 64.59375 
L -0.296875 64.59375 
z
" id="DejaVuSans-84"/>
      <path d="M 9.421875 54.6875 
L 18.40625 54.6875 
L 18.40625 0 
L 9.421875 0 
z
M 9.421875 75.984375 
L 18.40625 75.984375 
L 18.40625 64.59375 
L 9.421875 64.59375 
z
" id="DejaVuSans-105"/>
      <path d="M 52 44.1875 
Q 55.375 50.25 60.0625 53.125 
Q 64.75 56 71.09375 56 
Q 79.640625 56 84.28125 50.015625 
Q 88.921875 44.046875 88.921875 33.015625 
L 88.921875 0 
L 79.890625 0 
L 79.890625 32.71875 
Q 79.890625 40.578125 77.09375 44.375 
Q 74.3125 48.1875 68.609375 48.1875 
Q 61.625 48.1875 57.5625 43.546875 
Q 53.515625 38.921875 53.515625 30.90625 
L 53.515625 0 
L 44.484375 0 
L 44.484375 32.71875 
Q 44.484375 40.625 41.703125 44.40625 
Q 38.921875 48.1875 33.109375 48.1875 
Q 26.21875 48.1875 22.15625 43.53125 
Q 18.109375 38.875 18.109375 30.90625 
L 18.109375 0 
L 9.078125 0 
L 9.078125 54.6875 
L 18.109375 54.6875 
L 18.109375 46.1875 
Q 21.1875 51.21875 25.484375 53.609375 
Q 29.78125 56 35.6875 56 
Q 41.65625 56 45.828125 52.96875 
Q 50 49.953125 52 44.1875 
z
" id="DejaVuSans-109"/>
      <path d="M 56.203125 29.59375 
L 56.203125 25.203125 
L 14.890625 25.203125 
Q 15.484375 15.921875 20.484375 11.0625 
Q 25.484375 6.203125 34.421875 6.203125 
Q 39.59375 6.203125 44.453125 7.46875 
Q 49.3125 8.734375 54.109375 11.28125 
L 54.109375 2.78125 
Q 49.265625 0.734375 44.1875 -0.34375 
Q 39.109375 -1.421875 33.890625 -1.421875 
Q 20.796875 -1.421875 13.15625 6.1875 
Q 5.515625 13.8125 5.515625 26.8125 
Q 5.515625 40.234375 12.765625 48.109375 
Q 20.015625 56 32.328125 56 
Q 43.359375 56 49.78125 48.890625 
Q 56.203125 41.796875 56.203125 29.59375 
z
M 47.21875 32.234375 
Q 47.125 39.59375 43.09375 43.984375 
Q 39.0625 48.390625 32.421875 48.390625 
Q 24.90625 48.390625 20.390625 44.140625 
Q 15.875 39.890625 15.1875 32.171875 
z
" id="DejaVuSans-101"/>
      <path id="DejaVuSans-32"/>
      <path d="M 44.28125 53.078125 
L 44.28125 44.578125 
Q 40.484375 46.53125 36.375 47.5 
Q 32.28125 48.484375 27.875 48.484375 
Q 21.1875 48.484375 17.84375 46.4375 
Q 14.5 44.390625 14.5 40.28125 
Q 14.5 37.15625 16.890625 35.375 
Q 19.28125 33.59375 26.515625 31.984375 
L 29.59375 31.296875 
Q 39.15625 29.25 43.1875 25.515625 
Q 47.21875 21.78125 47.21875 15.09375 
Q 47.21875 7.46875 41.1875 3.015625 
Q 35.15625 -1.421875 24.609375 -1.421875 
Q 20.21875 -1.421875 15.453125 -0.5625 
Q 10.6875 0.296875 5.421875 2 
L 5.421875 11.28125 
Q 10.40625 8.6875 15.234375 7.390625 
Q 20.0625 6.109375 24.8125 6.109375 
Q 31.15625 6.109375 34.5625 8.28125 
Q 37.984375 10.453125 37.984375 14.40625 
Q 37.984375 18.0625 35.515625 20.015625 
Q 33.0625 21.96875 24.703125 23.78125 
L 21.578125 24.515625 
Q 13.234375 26.265625 9.515625 29.90625 
Q 5.8125 33.546875 5.8125 39.890625 
Q 5.8125 47.609375 11.28125 51.796875 
Q 16.75 56 26.8125 56 
Q 31.78125 56 36.171875 55.265625 
Q 40.578125 54.546875 44.28125 53.078125 
z
" id="DejaVuSans-115"/>
      <path d="M 18.3125 70.21875 
L 18.3125 54.6875 
L 36.8125 54.6875 
L 36.8125 47.703125 
L 18.3125 47.703125 
L 18.3125 18.015625 
Q 18.3125 11.328125 20.140625 9.421875 
Q 21.96875 7.515625 27.59375 7.515625 
L 36.8125 7.515625 
L 36.8125 0 
L 27.59375 0 
Q 17.1875 0 13.234375 3.875 
Q 9.28125 7.765625 9.28125 18.015625 
L 9.28125 47.703125 
L 2.6875 47.703125 
L 2.6875 54.6875 
L 9.28125 54.6875 
L 9.28125 70.21875 
z
" id="DejaVuSans-116"/>
      <path d="M 18.109375 8.203125 
L 18.109375 -20.796875 
L 9.078125 -20.796875 
L 9.078125 54.6875 
L 18.109375 54.6875 
L 18.109375 46.390625 
Q 20.953125 51.265625 25.265625 53.625 
Q 29.59375 56 35.59375 56 
Q 45.5625 56 51.78125 48.09375 
Q 58.015625 40.1875 58.015625 27.296875 
Q 58.015625 14.40625 51.78125 6.484375 
Q 45.5625 -1.421875 35.59375 -1.421875 
Q 29.59375 -1.421875 25.265625 0.953125 
Q 20.953125 3.328125 18.109375 8.203125 
z
M 48.6875 27.296875 
Q 48.6875 37.203125 44.609375 42.84375 
Q 40.53125 48.484375 33.40625 48.484375 
Q 26.265625 48.484375 22.1875 42.84375 
Q 18.109375 37.203125 18.109375 27.296875 
Q 18.109375 17.390625 22.1875 11.75 
Q 26.265625 6.109375 33.40625 6.109375 
Q 40.53125 6.109375 44.609375 11.75 
Q 48.6875 17.390625 48.6875 27.296875 
z
" id="DejaVuSans-112"/>
     </defs>
     <g transform="translate(270.66875 371.915781)scale(0.1 -0.1)">
      <use xlink:href="#DejaVuSans-84"/>
      <use x="61.037109" xlink:href="#DejaVuSans-105"/>
      <use x="88.820312" xlink:href="#DejaVuSans-109"/>
      <use x="186.232422" xlink:href="#DejaVuSans-101"/>
      <use x="247.755859" xlink:href="#DejaVuSans-32"/>
      <use x="279.542969" xlink:href="#DejaVuSans-115"/>
      <use x="331.642578" xlink:href="#DejaVuSans-116"/>
      <use x="370.851562" xlink:href="#DejaVuSans-101"/>
      <use x="432.375" xlink:href="#DejaVuSans-112"/>
      <use x="495.851562" xlink:href="#DejaVuSans-115"/>
     </g>
    </g>
   </g>
   <g id="matplotlib.axis_2">
    <g id="ytick_1">
     <g id="line2d_8">
      <defs>
       <path d="M 0 0 
L -3.5 0 
" id="m29e42d7c8a" style="stroke:#000000;stroke-width:0.8;"/>
      </defs>
      <g>
       <use style="stroke:#000000;stroke-width:0.8;" x="46.965625" xlink:href="#m29e42d7c8a" y="343.639219"/>
      </g>
     </g>
     <g id="text_9">
      <!-- 0 -->
      <g transform="translate(33.603125 347.438438)scale(0.1 -0.1)">
       <use xlink:href="#DejaVuSans-48"/>
      </g>
     </g>
    </g>
    <g id="ytick_2">
     <g id="line2d_9">
      <g>
       <use style="stroke:#000000;stroke-width:0.8;" x="46.965625" xlink:href="#m29e42d7c8a" y="302.059219"/>
      </g>
     </g>
     <g id="text_10">
      <!-- 50 -->
      <g transform="translate(27.240625 305.858438)scale(0.1 -0.1)">
       <use xlink:href="#DejaVuSans-53"/>
       <use x="63.623047" xlink:href="#DejaVuSans-48"/>
      </g>
     </g>
    </g>
    <g id="ytick_3">
     <g id="line2d_10">
      <g>
       <use style="stroke:#000000;stroke-width:0.8;" x="46.965625" xlink:href="#m29e42d7c8a" y="260.479219"/>
      </g>
     </g>
     <g id="text_11">
      <!-- 100 -->
      <g transform="translate(20.878125 264.278437)scale(0.1 -0.1)">
       <use xlink:href="#DejaVuSans-49"/>
       <use x="63.623047" xlink:href="#DejaVuSans-48"/>
       <use x="127.246094" xlink:href="#DejaVuSans-48"/>
      </g>
     </g>
    </g>
    <g id="ytick_4">
     <g id="line2d_11">
      <g>
       <use style="stroke:#000000;stroke-width:0.8;" x="46.965625" xlink:href="#m29e42d7c8a" y="218.899219"/>
      </g>
     </g>
     <g id="text_12">
      <!-- 150 -->
      <g transform="translate(20.878125 222.698438)scale(0.1 -0.1)">
       <use xlink:href="#DejaVuSans-49"/>
       <use x="63.623047" xlink:href="#DejaVuSans-53"/>
       <use x="127.246094" xlink:href="#DejaVuSans-48"/>
      </g>
     </g>
    </g>
    <g id="ytick_5">
     <g id="line2d_12">
      <g>
       <use style="stroke:#000000;stroke-width:0.8;" x="46.965625" xlink:href="#m29e42d7c8a" y="177.319219"/>
      </g>
     </g>
     <g id="text_13">
      <!-- 200 -->
      <g transform="translate(20.878125 181.118438)scale(0.1 -0.1)">
       <use xlink:href="#DejaVuSans-50"/>
       <use x="63.623047" xlink:href="#DejaVuSans-48"/>
       <use x="127.246094" xlink:href="#DejaVuSans-48"/>
      </g>
     </g>
    </g>
    <g id="ytick_6">
     <g id="line2d_13">
      <g>
       <use style="stroke:#000000;stroke-width:0.8;" x="46.965625" xlink:href="#m29e42d7c8a" y="135.739219"/>
      </g>
     </g>
     <g id="text_14">
      <!-- 250 -->
      <g transform="translate(20.878125 139.538438)scale(0.1 -0.1)">
       <use xlink:href="#DejaVuSans-50"/>
       <use x="63.623047" xlink:href="#DejaVuSans-53"/>
       <use x="127.246094" xlink:href="#DejaVuSans-48"/>
      </g>
     </g>
    </g>
    <g id="ytick_7">
     <g id="line2d_14">
      <g>
       <use style="stroke:#000000;stroke-width:0.8;" x="46.965625" xlink:href="#m29e42d7c8a" y="94.159219"/>
      </g>
     </g>
     <g id="text_15">
      <!-- 300 -->
      <g transform="translate(20.878125 97.958438)scale(0.1 -0.1)">
       <use xlink:href="#DejaVuSans-51"/>
       <use x="63.623047" xlink:href="#DejaVuSans-48"/>
       <use x="127.246094" xlink:href="#DejaVuSans-48"/>
      </g>
     </g>
    </g>
    <g id="ytick_8">
     <g id="line2d_15">
      <g>
       <use style="stroke:#000000;stroke-width:0.8;" x="46.965625" xlink:href="#m29e42d7c8a" y="52.579219"/>
      </g>
     </g>
     <g id="text_16">
      <!-- 350 -->
      <g transform="translate(20.878125 56.378438)scale(0.1 -0.1)">
       <use xlink:href="#DejaVuSans-51"/>
       <use x="63.623047" xlink:href="#DejaVuSans-53"/>
       <use x="127.246094" xlink:href="#DejaVuSans-48"/>
      </g>
     </g>
    </g>
    <g id="ytick_9">
     <g id="line2d_16">
      <g>
       <use style="stroke:#000000;stroke-width:0.8;" x="46.965625" xlink:href="#m29e42d7c8a" y="10.999219"/>
      </g>
     </g>
     <g id="text_17">
      <!-- 400 -->
      <g transform="translate(20.878125 14.798438)scale(0.1 -0.1)">
       <use xlink:href="#DejaVuSans-52"/>
       <use x="63.623047" xlink:href="#DejaVuSans-48"/>
       <use x="127.246094" xlink:href="#DejaVuSans-48"/>
      </g>
     </g>
    </g>
    <g id="text_18">
     <!-- Cumulative reward -->
     <defs>
      <path d="M 64.40625 67.28125 
L 64.40625 56.890625 
Q 59.421875 61.53125 53.78125 63.8125 
Q 48.140625 66.109375 41.796875 66.109375 
Q 29.296875 66.109375 22.65625 58.46875 
Q 16.015625 50.828125 16.015625 36.375 
Q 16.015625 21.96875 22.65625 14.328125 
Q 29.296875 6.6875 41.796875 6.6875 
Q 48.140625 6.6875 53.78125 8.984375 
Q 59.421875 11.28125 64.40625 15.921875 
L 64.40625 5.609375 
Q 59.234375 2.09375 53.4375 0.328125 
Q 47.65625 -1.421875 41.21875 -1.421875 
Q 24.65625 -1.421875 15.125 8.703125 
Q 5.609375 18.84375 5.609375 36.375 
Q 5.609375 53.953125 15.125 64.078125 
Q 24.65625 74.21875 41.21875 74.21875 
Q 47.75 74.21875 53.53125 72.484375 
Q 59.328125 70.75 64.40625 67.28125 
z
" id="DejaVuSans-67"/>
      <path d="M 8.5 21.578125 
L 8.5 54.6875 
L 17.484375 54.6875 
L 17.484375 21.921875 
Q 17.484375 14.15625 20.5 10.265625 
Q 23.53125 6.390625 29.59375 6.390625 
Q 36.859375 6.390625 41.078125 11.03125 
Q 45.3125 15.671875 45.3125 23.6875 
L 45.3125 54.6875 
L 54.296875 54.6875 
L 54.296875 0 
L 45.3125 0 
L 45.3125 8.40625 
Q 42.046875 3.421875 37.71875 1 
Q 33.40625 -1.421875 27.6875 -1.421875 
Q 18.265625 -1.421875 13.375 4.4375 
Q 8.5 10.296875 8.5 21.578125 
z
M 31.109375 56 
z
" id="DejaVuSans-117"/>
      <path d="M 9.421875 75.984375 
L 18.40625 75.984375 
L 18.40625 0 
L 9.421875 0 
z
" id="DejaVuSans-108"/>
      <path d="M 34.28125 27.484375 
Q 23.390625 27.484375 19.1875 25 
Q 14.984375 22.515625 14.984375 16.5 
Q 14.984375 11.71875 18.140625 8.90625 
Q 21.296875 6.109375 26.703125 6.109375 
Q 34.1875 6.109375 38.703125 11.40625 
Q 43.21875 16.703125 43.21875 25.484375 
L 43.21875 27.484375 
z
M 52.203125 31.203125 
L 52.203125 0 
L 43.21875 0 
L 43.21875 8.296875 
Q 40.140625 3.328125 35.546875 0.953125 
Q 30.953125 -1.421875 24.3125 -1.421875 
Q 15.921875 -1.421875 10.953125 3.296875 
Q 6 8.015625 6 15.921875 
Q 6 25.140625 12.171875 29.828125 
Q 18.359375 34.515625 30.609375 34.515625 
L 43.21875 34.515625 
L 43.21875 35.40625 
Q 43.21875 41.609375 39.140625 45 
Q 35.0625 48.390625 27.6875 48.390625 
Q 23 48.390625 18.546875 47.265625 
Q 14.109375 46.140625 10.015625 43.890625 
L 10.015625 52.203125 
Q 14.9375 54.109375 19.578125 55.046875 
Q 24.21875 56 28.609375 56 
Q 40.484375 56 46.34375 49.84375 
Q 52.203125 43.703125 52.203125 31.203125 
z
" id="DejaVuSans-97"/>
      <path d="M 2.984375 54.6875 
L 12.5 54.6875 
L 29.59375 8.796875 
L 46.6875 54.6875 
L 56.203125 54.6875 
L 35.6875 0 
L 23.484375 0 
z
" id="DejaVuSans-118"/>
      <path d="M 41.109375 46.296875 
Q 39.59375 47.171875 37.8125 47.578125 
Q 36.03125 48 33.890625 48 
Q 26.265625 48 22.1875 43.046875 
Q 18.109375 38.09375 18.109375 28.8125 
L 18.109375 0 
L 9.078125 0 
L 9.078125 54.6875 
L 18.109375 54.6875 
L 18.109375 46.1875 
Q 20.953125 51.171875 25.484375 53.578125 
Q 30.03125 56 36.53125 56 
Q 37.453125 56 38.578125 55.875 
Q 39.703125 55.765625 41.0625 55.515625 
z
" id="DejaVuSans-114"/>
      <path d="M 4.203125 54.6875 
L 13.1875 54.6875 
L 24.421875 12.015625 
L 35.59375 54.6875 
L 46.1875 54.6875 
L 57.421875 12.015625 
L 68.609375 54.6875 
L 77.59375 54.6875 
L 63.28125 0 
L 52.6875 0 
L 40.921875 44.828125 
L 29.109375 0 
L 18.5 0 
z
" id="DejaVuSans-119"/>
      <path d="M 45.40625 46.390625 
L 45.40625 75.984375 
L 54.390625 75.984375 
L 54.390625 0 
L 45.40625 0 
L 45.40625 8.203125 
Q 42.578125 3.328125 38.25 0.953125 
Q 33.9375 -1.421875 27.875 -1.421875 
Q 17.96875 -1.421875 11.734375 6.484375 
Q 5.515625 14.40625 5.515625 27.296875 
Q 5.515625 40.1875 11.734375 48.09375 
Q 17.96875 56 27.875 56 
Q 33.9375 56 38.25 53.625 
Q 42.578125 51.265625 45.40625 46.390625 
z
M 14.796875 27.296875 
Q 14.796875 17.390625 18.875 11.75 
Q 22.953125 6.109375 30.078125 6.109375 
Q 37.203125 6.109375 41.296875 11.75 
Q 45.40625 17.390625 45.40625 27.296875 
Q 45.40625 37.203125 41.296875 42.84375 
Q 37.203125 48.484375 30.078125 48.484375 
Q 22.953125 48.484375 18.875 42.84375 
Q 14.796875 37.203125 14.796875 27.296875 
z
" id="DejaVuSans-100"/>
     </defs>
     <g transform="translate(14.798438 224.958281)rotate(-90)scale(0.1 -0.1)">
      <use xlink:href="#DejaVuSans-67"/>
      <use x="69.824219" xlink:href="#DejaVuSans-117"/>
      <use x="133.203125" xlink:href="#DejaVuSans-109"/>
      <use x="230.615234" xlink:href="#DejaVuSans-117"/>
      <use x="293.994141" xlink:href="#DejaVuSans-108"/>
      <use x="321.777344" xlink:href="#DejaVuSans-97"/>
      <use x="383.056641" xlink:href="#DejaVuSans-116"/>
      <use x="422.265625" xlink:href="#DejaVuSans-105"/>
      <use x="450.048828" xlink:href="#DejaVuSans-118"/>
      <use x="509.228516" xlink:href="#DejaVuSans-101"/>
      <use x="570.751953" xlink:href="#DejaVuSans-32"/>
      <use x="602.539062" xlink:href="#DejaVuSans-114"/>
      <use x="643.621094" xlink:href="#DejaVuSans-101"/>
      <use x="705.144531" xlink:href="#DejaVuSans-119"/>
      <use x="786.931641" xlink:href="#DejaVuSans-97"/>
      <use x="848.210938" xlink:href="#DejaVuSans-114"/>
      <use x="889.308594" xlink:href="#DejaVuSans-100"/>
     </g>
    </g>
   </g>
   <g id="line2d_17">
    <path clip-path="url(#p5a7c0b9e3d)" d="M 69.792898 343.639219 
L 85.698549 343.539427 
L 86.002963 343.506163 
L 88.286071 343.406371 
L 88.818796 343.389739 
L 91.330215 343.289947 
L 91.939043 343.256683 
L 93.99384 343.156891 
L 95.059291 343.023835 
L 96.429155 342.924043 
L 97.646813 342.757723 
L 99.016677 342.657931 
L 99.625506 342.624667 
L 100.614853 342.524875 
L 101.147578 342.508243 
L 101.528096 342.408451 
L 101.83251 342.375187 
L 102.593546 342.275395 
L 103.050168 342.192235 
L 103.811204 342.092443 
L 104.191722 342.025915 
L 105.028861 341.942755 
L 105.409379 341.892859 
L 107.083658 341.626747 
L 107.464176 341.543587 
L 107.920798 341.443795 
L 108.225212 341.344003 
L 109.67118 341.127787 
L 110.280009 341.027995 
L 110.736631 340.944835 
L 116.520504 339.581011 
L 116.824918 339.481219 
L 119.41244 338.849203 
L 119.640751 338.766043 
L 120.24958 338.666251 
L 122.15217 338.150659 
L 123.21762 337.801387 
L 123.522034 337.751491 
L 123.750345 337.668331 
L 125.196313 337.269163 
L 125.576831 337.119475 
L 126.109557 337.019683 
L 126.642282 336.820099 
L 127.0228 336.687043 
L 127.479421 336.603883 
L 128.773182 336.154819 
L 129.229804 336.071659 
L 130.447461 335.655859 
L 130.675772 335.589331 
L 131.284601 335.306587 
L 131.741222 335.240059 
L 131.969533 335.140267 
L 132.273948 335.023843 
L 132.502258 334.890787 
L 133.491605 334.608043 
L 133.796019 334.474987 
L 134.937573 334.075819 
L 135.241988 333.976027 
L 135.622506 333.826339 
L 136.459645 333.560227 
L 137.144578 333.227587 
L 137.448992 333.127795 
L 137.677303 333.061267 
L 137.981717 332.994739 
L 138.210028 332.845051 
L 138.438339 332.778523 
L 138.818857 332.578939 
L 139.351582 332.512411 
L 139.96041 332.229667 
L 140.873654 331.946923 
L 141.406379 331.697443 
L 142.243518 331.414699 
L 143.308969 331.048795 
L 143.689487 330.949003 
L 144.450522 330.533203 
L 144.83104 330.450043 
L 146.505319 329.818027 
L 146.73363 329.768131 
L 146.961941 329.651707 
L 147.114148 329.618443 
L 147.342459 329.485387 
L 147.875184 329.269171 
L 149.777774 328.553995 
L 150.006085 328.404307 
L 163.400317 322.483315 
L 163.628628 322.350259 
L 163.933042 322.250467 
L 164.465767 322.050883 
L 165.302907 321.585187 
L 165.607321 321.485395 
L 166.596668 320.953171 
L 167.205497 320.720323 
L 168.042636 320.254627 
L 168.499258 320.154835 
L 169.564708 319.556083 
L 170.097433 319.339867 
L 170.477951 319.057123 
L 171.238987 318.807643 
L 172.380541 318.175627 
L 174.435338 317.161075 
L 175.196374 316.778539 
L 175.424685 316.712011 
L 175.881306 316.429267 
L 176.261824 316.279579 
L 176.566239 316.079995 
L 176.946757 315.897043 
L 177.098964 315.763987 
L 177.327275 315.664195 
L 177.86 315.431347 
L 179.229864 314.716171 
L 179.76259 314.350267 
L 180.447522 314.150683 
L 180.675833 313.951099 
L 180.751936 313.934467 
L 180.980247 313.701619 
L 181.817387 313.452139 
L 182.578423 312.903283 
L 183.035044 312.803491 
L 184.176598 312.171475 
L 184.481012 312.021787 
L 185.470359 311.489563 
L 185.774773 311.373139 
L 186.079188 311.123659 
L 187.144638 310.574803 
L 187.372949 310.425115 
L 188.742814 309.726571 
L 189.047228 309.560251 
L 189.199435 309.477091 
L 189.427746 309.360667 
L 189.73216 309.277507 
L 190.417093 308.878339 
L 190.721507 308.695387 
L 191.025921 308.562331 
L 191.406439 308.379379 
L 192.319682 307.880419 
L 192.624097 307.730731 
L 193.689547 307.148611 
L 193.917858 307.015555 
L 194.754997 306.566491 
L 194.983308 306.466699 
L 195.211619 306.333643 
L 196.429277 305.684995 
L 197.57083 305.052979 
L 197.875245 304.953187 
L 198.864591 304.437595 
L 199.245109 304.138219 
L 200.538871 303.539467 
L 200.767181 303.339883 
L 201.223803 303.156931 
L 201.984839 302.757763 
L 202.21315 302.608075 
L 202.745875 302.275435 
L 203.354703 302.042587 
L 203.659118 301.809739 
L 204.039636 301.610155 
L 204.496257 301.477099 
L 204.800672 301.244251 
L 205.028983 301.094563 
L 205.257293 300.961507 
L 206.322744 300.412651 
L 206.627158 300.213067 
L 206.931572 300.129907 
L 207.692608 299.680843 
L 207.920919 299.531155 
L 208.529748 299.298307 
L 208.910266 299.015563 
L 209.671302 298.616395 
L 210.127923 298.416811 
L 210.432338 298.217227 
L 210.660648 298.084171 
L 211.269477 297.801427 
L 211.649995 297.635107 
L 211.954409 297.352363 
L 212.334927 297.202675 
L 212.639342 297.036355 
L 213.400378 296.587291 
L 214.009207 296.271283 
L 214.237517 296.204755 
L 215.455175 295.506211 
L 215.759589 295.406419 
L 216.368418 294.973987 
L 216.748936 294.807667 
L 217.281661 294.558187 
L 217.509972 294.425131 
L 217.814386 294.208915 
L 219.412562 293.393947 
L 219.716976 293.210995 
L 220.249701 293.011411 
L 220.478012 292.828459 
L 220.706323 292.728667 
L 221.467359 292.346131 
L 222.000084 291.996859 
L 222.304498 291.780643 
L 222.685016 291.697483 
L 224.207088 290.799355 
L 224.435399 290.699563 
L 224.66371 290.549875 
L 224.968124 290.366923 
L 225.805263 289.901227 
L 225.957471 289.801435 
L 226.261885 289.618483 
L 226.566299 289.518691 
L 228.088371 288.620563 
L 228.392786 288.520771 
L 228.621096 288.387715 
L 228.925511 288.254659 
L 229.153822 288.138235 
L 229.534339 287.838859 
L 230.675893 287.223475 
L 231.513033 286.791043 
L 231.893551 286.608091 
L 232.350172 286.308715 
L 232.654587 286.208923 
L 232.959001 286.009339 
L 233.872244 285.527011 
L 234.709384 285.077947 
L 235.013798 284.894995 
L 236.003145 284.362771 
L 237.144699 283.747387 
L 238.286253 283.115371 
L 239.047289 282.699571 
L 239.275599 282.549883 
L 240.56936 281.867971 
L 241.254293 281.402275 
L 241.787018 281.219323 
L 242.624157 280.620571 
L 243.30909 280.371091 
L 244.755058 279.539491 
L 245.059472 279.389803 
L 245.592198 279.040531 
L 246.048819 278.857579 
L 246.353234 278.657995 
L 246.505441 278.541571 
L 246.733752 278.375251 
L 247.951409 277.759867 
L 248.331927 277.477123 
L 248.788549 277.277539 
L 249.473481 276.895003 
L 249.701792 276.712051 
L 250.158413 276.545731 
L 250.462828 276.312883 
L 250.767242 276.229723 
L 250.995553 275.996875 
L 251.376071 275.797291 
L 252.061003 275.448019 
L 252.21321 275.364859 
L 252.517625 275.148643 
L 252.898143 274.998955 
L 253.202557 274.766107 
L 253.506971 274.649683 
L 253.811386 274.433467 
L 254.039696 274.350307 
L 254.344111 274.134091 
L 254.724629 273.967771 
L 256.094493 273.186067 
L 256.398908 273.036379 
L 257.007737 272.620579 
L 257.997083 272.071723 
L 258.225394 271.922035 
L 258.605912 271.772347 
L 258.910326 271.589395 
L 259.138637 271.439707 
L 260.204087 270.857587 
L 260.584605 270.591475 
L 260.812916 270.458419 
L 262.030574 269.826403 
L 262.334988 269.660083 
L 262.639402 269.527027 
L 263.248231 269.094595 
L 263.704853 268.895011 
L 264.085371 268.628899 
L 264.389785 268.445947 
L 264.92251 268.196467 
L 265.303028 268.013515 
L 265.987961 267.547819 
L 266.520686 267.331603 
L 268.194965 266.350315 
L 268.347172 266.250523 
L 268.803793 265.984411 
L 269.108208 265.851355 
L 269.488726 265.635139 
L 269.945347 265.319131 
L 270.554176 265.003123 
L 270.706383 264.903331 
L 271.163005 264.703747 
L 271.467419 264.487531 
L 271.69573 264.387739 
L 272.380662 263.971939 
L 273.293905 263.472979 
L 273.59832 263.323291 
L 273.826631 263.206867 
L 274.66377 262.724539 
L 275.120392 262.458427 
L 275.272599 262.375267 
L 276.56636 261.643459 
L 276.946878 261.493771 
L 277.63181 260.994811 
L 278.164535 260.778595 
L 278.849468 260.379427 
L 279.153882 260.163211 
L 279.5344 260.030155 
L 279.686607 260.013523 
L 279.914918 259.813939 
L 280.219332 259.630987 
L 280.675954 259.364875 
L 281.665301 258.816019 
L 282.350233 258.450115 
L 282.50244 258.350323 
L 282.806855 258.167371 
L 283.948408 257.551987 
L 285.24217 256.820179 
L 285.47048 256.720387 
L 285.774895 256.487539 
L 286.079309 256.337851 
L 287.296967 255.655939 
L 288.21021 255.140347 
L 289.656178 254.308747 
L 289.960592 254.142427 
L 290.797732 253.660099 
L 291.558768 253.260931 
L 291.710975 253.177771 
L 292.167597 252.878395 
L 292.548115 252.678811 
L 293.08084 252.329539 
L 293.613565 252.080059 
L 293.917979 251.913739 
L 295.135637 251.231827 
L 295.668362 250.882555 
L 296.124983 250.666339 
L 296.277191 250.616443 
L 296.657709 250.350331 
L 297.038226 250.134115 
L 298.255884 249.485467 
L 298.712506 249.202723 
L 299.625749 248.737027 
L 299.854059 248.504179 
L 300.462888 248.221435 
L 300.843406 248.038483 
L 301.147821 247.772371 
L 301.452235 247.606051 
L 301.908856 247.439731 
L 302.593789 246.957403 
L 302.974307 246.791083 
L 304.344171 246.009379 
L 304.876897 245.710003 
L 305.181311 245.493787 
L 306.627279 244.645555 
L 307.083901 244.445971 
L 307.540522 244.146595 
L 307.997144 243.880483 
L 308.149351 243.764059 
L 308.453765 243.647635 
L 308.682076 243.547843 
L 309.062594 243.215203 
L 309.367009 243.115411 
L 309.975837 242.832667 
L 310.128044 242.716243 
L 311.193495 242.117491 
L 311.345702 242.017699 
L 311.72622 241.734955 
L 312.867774 241.136203 
L 313.552706 240.670507 
L 315.150882 239.739115 
L 315.455296 239.589427 
L 315.75971 239.373211 
L 316.59685 238.890883 
L 318.042818 238.059283 
L 318.803854 237.626851 
L 319.260476 237.344107 
L 320.021512 236.895043 
L 321.315273 236.163235 
L 322.152412 235.680907 
L 323.750588 234.749515 
L 323.978898 234.682987 
L 326.490317 233.152843 
L 327.023042 232.803571 
L 327.479664 232.454299 
L 328.012389 232.238083 
L 328.316803 232.021867 
L 328.46901 231.872179 
L 328.773425 231.639331 
L 329.30615 231.423115 
L 329.610564 231.190267 
L 330.219393 230.774467 
L 330.752118 230.558251 
L 331.056533 230.258875 
L 331.284843 230.125819 
L 331.893672 229.826443 
L 332.198086 229.676755 
L 332.654708 229.294219 
L 332.806915 229.211059 
L 333.035226 229.094635 
L 334.785609 228.046819 
L 335.090023 227.880499 
L 335.470541 227.664283 
L 335.698852 227.414803 
L 336.07937 227.231851 
L 336.764302 226.816051 
L 337.14482 226.533307 
L 338.058063 226.050979 
L 338.438581 225.685075 
L 338.819099 225.618547 
L 341.482725 223.971979 
L 341.787139 223.805659 
L 345.287904 221.593603 
L 345.440112 221.527075 
L 347.038287 220.595683 
L 347.342701 220.362835 
L 347.95153 219.947035 
L 348.864773 219.431443 
L 349.169188 219.181963 
L 349.473602 219.032275 
L 351.832813 217.601923 
L 352.365539 217.252651 
L 354.953061 215.672611 
L 355.257475 215.506291 
L 357.69279 214.009411 
L 357.844997 213.942883 
L 358.834344 213.211075 
L 359.138758 213.127915 
L 359.443173 212.961595 
L 360.280312 212.362843 
L 360.66083 212.179891 
L 361.193555 211.847251 
L 361.726281 211.514611 
L 364.618217 209.734987 
L 365.150942 209.402347 
L 365.683667 209.053075 
L 365.835875 208.986547 
L 368.4995 207.323347 
L 368.727811 207.256819 
L 368.956122 207.073867 
L 369.717158 206.541643 
L 370.630401 206.042683 
L 371.23923 205.610251 
L 371.391437 205.527091 
L 372.076369 205.127923 
L 372.456887 204.811915 
L 372.989612 204.595699 
L 376.946999 202.117531 
L 377.708035 201.668467 
L 378.088553 201.385723 
L 380.752179 199.739155 
L 380.98049 199.639363 
L 381.2088 199.423147 
L 381.513215 199.273459 
L 383.263597 198.225643 
L 383.491908 198.075955 
L 384.481255 197.543731 
L 384.709566 197.344147 
L 385.318394 196.928347 
L 386.07943 196.495915 
L 386.536052 196.146643 
L 386.91657 195.980323 
L 387.144881 195.863899 
L 387.373191 195.680947 
L 387.829813 195.331675 
L 388.286435 195.132091 
L 389.199678 194.466811 
L 390.189024 193.917955 
L 390.645646 193.568683 
L 391.102267 193.369099 
L 391.406682 193.186147 
L 391.558889 193.069723 
L 391.7872 192.853507 
L 392.928754 192.271387 
L 393.309272 191.955379 
L 393.68979 191.772427 
L 393.994204 191.572843 
L 396.049001 190.325443 
L 396.353415 190.192387 
L 396.581726 189.959539 
L 396.810037 189.809851 
L 397.72328 189.310891 
L 397.951591 189.127939 
L 398.78873 188.645611 
L 401.604563 186.915883 
L 402.061185 186.633139 
L 402.365599 186.416923 
L 403.278842 185.967859 
L 403.583257 185.651851 
L 404.039878 185.335843 
L 404.344293 185.219419 
L 404.648707 185.119627 
L 405.029225 184.753723 
L 406.094675 184.171603 
L 406.551297 183.805699 
L 407.46454 183.306739 
L 407.768954 183.073891 
L 408.225576 182.791147 
L 408.682197 182.591563 
L 409.138819 182.275555 
L 409.443233 182.059339 
L 409.671544 181.926283 
L 409.899855 181.859755 
L 413.857242 179.381587 
L 414.313863 179.098843 
L 414.694381 178.832731 
L 416.444764 177.801547 
L 416.901386 177.518803 
L 417.281903 177.219427 
L 418.119043 176.770363 
L 418.499561 176.487619 
L 419.3367 176.038555 
L 419.641115 175.805707 
L 419.793322 175.705915 
L 420.249944 175.423171 
L 420.478254 175.306747 
L 420.858772 174.990739 
L 421.087083 174.924211 
L 423.522398 173.443963 
L 423.674605 173.344171 
L 424.283434 172.928371 
L 424.587848 172.762051 
L 426.10992 171.863923 
L 426.186024 171.847291 
L 426.414335 171.597811 
L 427.403681 171.065587 
L 427.631992 170.915899 
L 427.936406 170.683051 
L 428.393028 170.400307 
L 429.07796 170.001139 
L 429.610686 169.668499 
L 430.447825 169.202803 
L 430.676136 169.019851 
L 431.132757 168.737107 
L 431.741586 168.371203 
L 432.350415 167.955403 
L 433.035347 167.539603 
L 433.568072 167.206963 
L 434.176901 166.841059 
L 434.633523 166.558315 
L 435.014041 166.375363 
L 437.829874 164.645635 
L 438.438702 164.263099 
L 440.950121 162.716323 
L 441.102328 162.716323 
L 441.330639 162.516739 
L 441.863364 162.167467 
L 442.319986 161.901355 
L 442.472193 161.834827 
L 442.700504 161.651875 
L 443.157125 161.369131 
L 443.461539 161.136283 
L 443.842057 161.003227 
L 444.374783 160.653955 
L 444.603093 160.421107 
L 444.983611 160.254787 
L 445.211922 160.204891 
L 445.896854 159.606139 
L 446.810098 159.123811 
L 447.342823 158.691379 
L 447.951651 158.508427 
L 448.56048 157.992835 
L 448.940998 157.776619 
L 449.321516 157.593667 
L 449.778138 157.277659 
L 450.006448 157.111339 
L 450.843588 156.662275 
L 451.376313 156.229843 
L 452.36566 155.697619 
L 452.746178 155.381611 
L 453.202799 155.231923 
L 453.735525 154.766227 
L 454.572664 154.333795 
L 454.800975 154.134211 
L 455.638114 153.651883 
L 456.39915 153.119659 
L 456.855772 152.920075 
L 457.464601 152.404483 
L 458.682258 151.755835 
L 458.986672 151.489723 
L 459.214983 151.406563 
L 460.052123 150.924235 
L 460.584848 150.558331 
L 460.813159 150.458539 
L 463.857302 148.562491 
L 464.00951 148.462699 
L 464.770546 147.930475 
L 466.368721 146.982451 
L 466.520928 146.899291 
L 467.053653 146.566651 
L 467.281964 146.400331 
L 470.250004 144.554179 
L 470.706626 144.354595 
L 471.239351 143.905531 
L 472.000387 143.522995 
L 472.457008 143.240251 
L 472.837526 142.957507 
L 473.218044 142.774555 
L 476.033877 141.044827 
L 476.262188 140.911771 
L 479.078021 139.182043 
L 479.230228 139.065619 
L 481.81775 137.468947 
L 482.046061 137.369155 
L 482.578786 137.019883 
L 482.959304 136.737139 
L 483.263719 136.570819 
L 484.405273 135.922171 
L 484.633583 135.772483 
L 485.014101 135.489739 
L 485.470723 135.206995 
L 486.383966 134.691403 
L 486.916691 134.358763 
L 488.819281 133.194523 
L 489.047592 133.094731 
L 492.928875 130.666459 
L 493.233289 130.500139 
L 496.049122 128.753779 
L 496.353537 128.587459 
L 496.810158 128.304715 
L 497.114573 128.138395 
L 500.463131 126.059395 
L 501.224167 125.610331 
L 501.604685 125.327587 
L 503.20286 124.379563 
L 503.355067 124.313035 
L 507.312454 121.834867 
L 507.464661 121.718443 
L 509.671665 120.387883 
L 509.899976 120.188299 
L 510.432701 119.855659 
L 510.661012 119.705971 
L 511.574255 119.207011 
L 511.87867 118.957531 
L 513.933467 117.726763 
L 514.466192 117.377491 
L 516.825403 115.930507 
L 516.97761 115.863979 
L 517.358128 115.547971 
L 517.81475 115.231963 
L 518.043061 115.098907 
L 518.347475 114.999115 
L 522.000447 112.703899 
L 522.152655 112.687267 
L 522.457069 112.471051 
L 526.338352 110.026147 
L 526.338352 110.026147 
" style="fill:none;stroke:#1e90ff;stroke-linecap:square;stroke-width:2;"/>
   </g>
   <g id="line2d_18">
    <path clip-path="url(#p5a7c0b9e3d)" d="M 69.792898 343.639219 
L 88.818796 343.539427 
L 89.427625 343.506163 
L 92.015147 343.406371 
L 92.700079 343.356475 
L 95.592016 343.273315 
L 96.124741 343.140259 
L 97.266295 343.057099 
L 97.570709 343.023835 
L 98.331745 342.924043 
L 99.244988 342.824251 
L 100.614853 342.724459 
L 101.299785 342.674563 
L 101.83251 342.574771 
L 102.517443 342.524875 
L 102.974064 342.425083 
L 103.354582 342.358555 
L 104.191722 342.275395 
L 104.952758 342.059179 
L 108.681834 341.144419 
L 109.290663 340.994731 
L 110.660527 340.595563 
L 110.964942 340.512403 
L 111.421563 340.412611 
L 112.106495 340.063339 
L 113.019739 339.763963 
L 113.324153 339.680803 
L 115.302846 338.932363 
L 115.759468 338.749411 
L 116.216089 338.566459 
L 116.520504 338.416771 
L 117.28154 338.034235 
L 121.31503 336.171451 
L 121.771652 335.905339 
L 122.076066 335.739019 
L 122.456584 335.605963 
L 122.837102 335.373115 
L 123.065413 335.190163 
L 123.750345 334.857523 
L 125.12021 334.175611 
L 125.424624 333.976027 
L 125.805142 333.793075 
L 126.718385 333.310747 
L 127.0228 333.144427 
L 127.403318 332.878315 
L 128.773182 332.179771 
L 129.305907 331.847131 
L 130.980187 330.865843 
L 131.132394 330.799315 
L 132.654466 329.901187 
L 132.95888 329.784763 
L 133.415501 329.435491 
L 133.643812 329.285803 
L 134.480952 328.853371 
L 134.709263 328.720315 
L 135.165884 328.454203 
L 136.307438 327.822187 
L 137.068474 327.389755 
L 137.372888 327.156907 
L 137.753406 326.957323 
L 138.362235 326.724475 
L 138.590546 326.541523 
L 138.89496 326.308675 
L 139.351582 326.042563 
L 139.808203 325.876243 
L 140.340928 325.443811 
L 141.406379 324.911587 
L 141.63469 324.712003 
L 142.852347 324.079987 
L 143.308969 323.797243 
L 143.841694 323.597659 
L 144.374419 323.248387 
L 144.678833 323.181859 
L 145.363766 322.699531 
L 146.505319 322.117411 
L 146.885837 321.834667 
L 147.57077 321.485395 
L 147.875184 321.352339 
L 148.179599 321.152755 
L 148.864531 320.803483 
L 149.245049 320.653795 
L 149.625567 320.354419 
L 150.995431 319.639243 
L 151.223742 319.489555 
L 152.4414 318.807643 
L 152.974125 318.475003 
L 153.202436 318.375211 
L 153.354643 318.308683 
L 154.115679 317.776459 
L 154.648404 317.593507 
L 155.028922 317.377291 
L 155.789958 316.944859 
L 156.094372 316.811803 
L 156.246579 316.728643 
L 156.703201 316.462531 
L 158.149169 315.747355 
L 158.301376 315.547771 
L 159.062412 315.314923 
L 159.290723 315.098707 
L 159.519034 314.949019 
L 159.747345 314.749435 
L 160.051759 314.649643 
L 160.584484 314.433427 
L 160.965002 314.150683 
L 161.34552 313.934467 
L 162.41097 313.368979 
L 162.715385 313.219291 
L 163.476421 312.969811 
L 164.237457 312.437587 
L 164.846285 312.221371 
L 166.063943 311.539459 
L 166.520564 311.356507 
L 166.901082 311.090395 
L 169.18419 309.992683 
L 169.412501 309.842995 
L 170.02133 309.626779 
L 171.162884 308.961499 
L 171.771712 308.861707 
L 172.913266 308.229691 
L 173.522095 308.013475 
L 173.826509 307.847155 
L 174.283131 307.647571 
L 174.511442 307.547779 
L 174.968063 307.348195 
L 175.272478 307.181875 
L 175.576892 307.048819 
L 176.261824 306.799339 
L 176.566239 306.549859 
L 176.870653 306.466699 
L 177.327275 306.283747 
L 178.088311 305.884579 
L 178.316621 305.801419 
L 178.697139 305.601835 
L 179.153761 305.402251 
L 181.589076 304.238011 
L 181.89349 304.038427 
L 182.654526 303.655891 
L 182.958941 303.539467 
L 183.263355 303.356515 
L 184.63322 302.691235 
L 184.937634 302.458387 
L 186.307499 301.743211 
L 186.611913 301.610155 
L 187.220742 301.227619 
L 187.753467 300.994771 
L 187.981778 300.911611 
L 189.123332 300.262963 
L 189.656057 300.046747 
L 190.036575 299.847163 
L 190.5693 299.614315 
L 192.776304 298.533235 
L 193.841754 297.951115 
L 194.907205 297.402259 
L 195.211619 297.202675 
L 196.733691 296.420971 
L 197.038105 296.287915 
L 198.103556 295.705795 
L 198.40797 295.606003 
L 198.636281 295.489579 
L 198.940695 295.306627 
L 200.006145 294.707875 
L 200.386663 294.541555 
L 202.517564 293.260891 
L 203.2786 292.878355 
L 203.583014 292.612243 
L 203.887429 292.479187 
L 205.105086 291.797275 
L 205.485604 291.647587 
L 205.790018 291.448003 
L 206.170536 291.198523 
L 206.474951 290.998939 
L 206.779365 290.899147 
L 208.529748 289.867963 
L 209.062473 289.518691 
L 210.204027 288.886675 
L 210.508441 288.720355 
L 211.497788 288.188131 
L 211.954409 287.922019 
L 212.334927 287.772331 
L 212.867653 287.439691 
L 213.780896 286.940731 
L 214.08531 286.791043 
L 214.618035 286.574827 
L 214.846346 286.358611 
L 215.226864 286.175659 
L 216.672832 285.443851 
L 216.977247 285.260899 
L 218.499318 284.495827 
L 219.032044 284.146555 
L 219.412562 283.996867 
L 219.79308 283.764019 
L 220.325805 283.547803 
L 220.630219 283.348219 
L 220.85853 283.265059 
L 222.000084 282.633043 
L 222.98943 282.117451 
L 223.293845 281.917867 
L 224.207088 281.418907 
L 224.587606 281.186059 
L 225.044227 280.986475 
L 225.272538 280.853419 
L 225.957471 280.454251 
L 226.261885 280.321195 
L 226.566299 280.188139 
L 226.946817 279.955291 
L 227.175128 279.855499 
L 228.468889 279.173587 
L 229.153822 278.840947 
L 230.143168 278.292091 
L 230.675893 278.025979 
L 230.980308 277.926187 
L 231.436929 277.610179 
L 231.741344 277.410595 
L 232.50238 277.144483 
L 233.491726 276.595627 
L 233.643934 276.545731 
L 233.872244 276.379411 
L 234.328866 276.096667 
L 234.557177 275.946979 
L 235.242109 275.697499 
L 236.383663 275.048851 
L 236.840284 274.882531 
L 237.144699 274.716211 
L 237.525217 274.549891 
L 237.829631 274.333675 
L 238.514563 273.951139 
L 238.742874 273.818083 
L 239.884428 273.219331 
L 240.264946 273.019747 
L 240.721568 272.836795 
L 241.634811 272.354467 
L 243.385193 271.472971 
L 243.689608 271.323283 
L 245.43999 270.441787 
L 245.820508 270.242203 
L 246.27713 270.059251 
L 246.657648 269.843035 
L 246.809855 269.776507 
L 247.418684 269.493763 
L 247.646995 269.344075 
L 248.17972 268.978171 
L 248.940756 268.712059 
L 250.767242 267.797299 
L 251.223863 267.597715 
L 251.528278 267.448027 
L 251.984899 267.181915 
L 253.583075 266.416843 
L 253.811386 266.217259 
L 255.18125 265.502083 
L 255.637872 265.219339 
L 255.942286 265.119547 
L 256.246701 264.953227 
L 258.14929 264.021835 
L 258.377601 263.888779 
L 259.366948 263.439715 
L 259.519155 263.240131 
L 259.747466 263.173603 
L 260.204087 262.874227 
L 260.660709 262.691275 
L 262.182781 261.809779 
L 263.324335 261.227659 
L 263.628749 261.044707 
L 264.694199 260.462587 
L 264.846407 260.396059 
L 265.683546 259.963627 
L 266.064064 259.780675 
L 266.596789 259.448035 
L 266.901204 259.265083 
L 267.281722 259.098763 
L 268.042758 258.716227 
L 269.260415 258.067579 
L 269.640933 257.834731 
L 270.401969 257.585251 
L 270.85859 257.219347 
L 271.010798 257.136187 
L 271.239108 257.003131 
L 272.380662 256.404379 
L 272.685077 256.188163 
L 273.217802 255.988579 
L 274.207149 255.439723 
L 274.511563 255.290035 
L 275.653117 254.658019 
L 276.261946 254.275483 
L 276.56636 254.059267 
L 276.946878 253.926211 
L 277.403499 253.726627 
L 278.088432 253.260931 
L 279.077779 252.712075 
L 279.306089 252.628915 
L 280.219332 252.113323 
L 280.675954 251.847211 
L 282.426337 250.799395 
L 282.959062 250.583179 
L 284.176719 249.901267 
L 284.633341 249.751579 
L 285.089962 249.385675 
L 285.394377 249.285883 
L 285.927102 249.102931 
L 286.155413 248.886715 
L 286.764241 248.587339 
L 287.068656 248.520811 
L 287.449174 248.204803 
L 287.753588 248.055115 
L 287.981899 247.905427 
L 288.590728 247.672579 
L 289.047349 247.406467 
L 289.27566 247.190251 
L 289.808385 246.990667 
L 291.17825 246.192331 
L 291.406561 246.109171 
L 292.852529 245.277571 
L 293.08084 245.194411 
L 293.765772 244.712083 
L 293.994083 244.612291 
L 294.222394 244.495867 
L 294.526808 244.346179 
L 294.907326 244.080067 
L 296.201087 243.348259 
L 297.418744 242.732875 
L 297.647055 242.616451 
L 298.712506 242.050963 
L 299.093024 241.851379 
L 299.701852 241.552003 
L 299.930163 241.485475 
L 301.300028 240.687139 
L 301.604442 240.554083 
L 302.137167 240.204811 
L 303.354825 239.589427 
L 303.735343 239.273419 
L 304.268068 239.090467 
L 304.648586 238.890883 
L 304.800793 238.791091 
L 305.029104 238.558243 
L 305.409622 238.391923 
L 305.79014 238.192339 
L 306.246761 237.909595 
L 306.475072 237.726643 
L 307.540522 237.161155 
L 307.997144 236.895043 
L 309.443112 236.146603 
L 309.82363 235.947019 
L 311.041288 235.265107 
L 312.182842 234.649723 
L 312.411152 234.549931 
L 312.715567 234.433507 
L 313.019981 234.233923 
L 314.237639 233.585275 
L 315.074778 233.136211 
L 315.226985 233.086315 
L 315.5314 232.770307 
L 315.835814 232.620619 
L 316.216332 232.404403 
L 316.444643 232.254715 
L 317.586197 231.622699 
L 318.347233 231.173635 
L 318.651647 230.890891 
L 319.032165 230.724571 
L 320.706444 229.726651 
L 320.858651 229.643491 
L 321.239169 229.360747 
L 322.913448 228.379459 
L 323.522277 228.046819 
L 323.978898 227.631019 
L 324.892142 227.115427 
L 327.555767 225.452227 
L 327.707974 225.369067 
L 328.46901 224.836843 
L 329.001736 224.653891 
L 329.534461 224.138299 
L 331.20874 222.924163 
L 331.589258 222.707947 
L 331.817569 222.624787 
L 332.806915 221.892979 
L 334.252883 220.828531 
L 334.557298 220.645579 
L 334.633401 220.645579 
L 335.013919 220.263043 
L 335.774955 219.714187 
L 336.231577 219.398179 
L 336.535991 219.215227 
L 337.220924 218.749531 
L 337.601442 218.533315 
L 337.829752 218.333731 
L 341.17831 216.055147 
L 341.482725 215.789035 
L 341.711036 215.689243 
L 342.01545 215.389867 
L 342.243761 215.256811 
L 342.395968 215.140387 
L 343.004797 214.724587 
L 343.157004 214.641427 
L 343.765833 214.125835 
L 344.146351 213.959515 
L 344.679076 213.477187 
L 344.98349 213.360763 
L 345.516215 212.911699 
L 346.277251 212.462635 
L 346.733873 212.046835 
L 347.494909 211.497979 
L 347.875427 211.231867 
L 348.712566 210.599851 
L 348.864773 210.516691 
L 349.169188 210.283843 
L 349.397498 210.184051 
L 349.625809 209.934571 
L 352.061124 208.254739 
L 352.441642 207.888835 
L 352.669953 207.755779 
L 353.6593 207.007339 
L 354.039818 206.691331 
L 354.953061 206.009419 
L 355.485786 205.493827 
L 356.018511 205.144555 
L 356.779547 204.612331 
L 357.007858 204.412747 
L 359.138758 202.666387 
L 359.290966 202.533331 
L 359.519276 202.333747 
L 360.052002 201.917947 
L 360.432519 201.518779 
L 362.411213 199.922107 
L 362.791731 199.572835 
L 363.40056 199.040611 
L 364.237699 198.408595 
L 364.694321 197.992795 
L 365.53146 197.327515 
L 366.064185 196.811923 
L 368.423397 194.882611 
L 368.727811 194.633131 
L 369.488847 193.934587 
L 369.717158 193.685107 
L 370.173779 193.285939 
L 370.325987 193.186147 
L 371.010919 192.554131 
L 371.163126 192.470971 
L 371.391437 192.121699 
L 371.619748 191.988643 
L 372.000266 191.672635 
L 372.152473 191.506315 
L 379.382314 185.069731 
L 379.686729 184.786987 
L 379.915039 184.670563 
L 380.371661 184.154971 
L 381.132697 183.539587 
L 381.513215 183.206947 
L 381.893733 182.957467 
L 382.122043 182.691355 
L 382.730872 182.225659 
L 382.959183 181.926283 
L 383.644115 181.310899 
L 383.94853 180.994891 
L 399.701973 167.157067 
L 400.006388 166.774531 
L 400.463009 166.491787 
L 401.071838 165.942931 
L 401.300149 165.743347 
L 411.193616 156.994915 
L 411.421927 156.795331 
L 411.954652 156.396163 
L 412.182963 156.146683 
L 412.867895 155.597827 
L 413.172309 155.364979 
L 415.531521 153.169555 
L 415.912039 152.886811 
L 416.064246 152.803651 
L 416.673075 152.271427 
L 416.825282 152.171635 
L 417.662421 151.572883 
L 417.890732 151.323403 
L 418.347354 150.940867 
L 418.575665 150.841075 
L 418.803975 150.525067 
L 419.793322 149.759995 
L 437.677666 134.258971 
L 438.058184 133.942963 
L 438.362599 133.593691 
L 438.81922 133.294315 
L 439.351945 132.778723 
L 439.960774 132.263131 
L 441.55895 130.965835 
L 441.711157 130.849411 
L 442.015571 130.533403 
L 442.167778 130.450243 
L 443.004918 129.651907 
L 443.233229 129.435691 
L 443.461539 129.186211 
L 443.842057 128.870203 
L 443.994265 128.820307 
L 446.277372 126.924259 
L 446.581787 126.791203 
L 447.266719 126.175819 
L 447.723341 125.776651 
L 448.103859 125.427379 
L 448.636584 124.994947 
L 448.864895 124.712203 
L 449.39762 124.362931 
L 449.625931 124.046923 
L 452.137349 121.735075 
L 452.441763 121.518859 
L 452.822281 121.202851 
L 453.126696 120.870211 
L 453.735525 120.354619 
L 453.887732 120.238195 
L 454.26825 119.839027 
L 455.485907 118.874371 
L 455.562011 118.874371 
L 455.942529 118.392043 
L 456.39915 118.076035 
L 456.627461 117.876451 
L 457.845119 116.695579 
L 461.878609 113.269387 
L 461.954713 113.252755 
L 462.335231 112.803691 
L 462.791852 112.487683 
L 463.020163 112.238203 
L 463.857302 111.456499 
L 464.00951 111.306811 
L 464.313924 111.040699 
L 464.542235 110.824483 
L 465.151063 110.342155 
L 465.607685 109.909723 
L 466.216514 109.444027 
L 466.597032 109.044859 
L 479.534643 97.635307 
L 479.839057 97.369195 
L 480.067368 97.219507 
L 480.676196 96.587491 
L 480.904507 96.471067 
L 481.361129 95.938843 
L 481.741647 95.656099 
L 482.122165 95.207035 
L 482.350476 95.057347 
L 482.502683 94.924291 
L 482.807097 94.608283 
L 483.187615 94.225747 
L 483.72034 93.776683 
L 483.948651 93.626995 
L 484.405273 93.211195 
L 485.090205 92.595811 
L 485.470723 92.246539 
L 485.851241 91.930531 
L 486.003448 91.864003 
L 486.840587 91.098931 
L 493.081082 85.543843 
L 493.385496 85.244467 
L 493.537704 85.211203 
L 493.994325 84.745507 
L 494.146532 84.629083 
L 494.52705 84.279811 
L 495.059776 83.847379 
L 495.288086 83.697691 
L 510.508805 70.259035 
L 510.889323 69.976291 
L 511.193737 69.760075 
L 511.498152 69.377539 
L 512.259188 68.778787 
L 512.563602 68.545939 
L 512.715809 68.496043 
L 513.324638 67.830763 
L 513.705156 67.581283 
L 514.085674 67.215379 
L 514.390088 67.065691 
L 517.662543 64.321411 
L 517.890853 64.171723 
L 518.119164 63.922243 
L 521.011101 61.327651 
L 521.239412 61.044907 
L 521.543826 60.812059 
L 526.338352 56.587531 
L 526.338352 56.587531 
" style="fill:none;stroke:#ff0000;stroke-linecap:square;stroke-width:2;"/>
   </g>
   <g id="patch_3">
    <path d="M 46.965625 343.639219 
L 46.965625 10.999219 
" style="fill:none;stroke:#000000;stroke-linecap:square;stroke-linejoin:miter;stroke-width:0.8;"/>
   </g>
   <g id="patch_4">
    <path d="M 549.165625 343.639219 
L 549.165625 10.999219 
" style="fill:none;stroke:#000000;stroke-linecap:square;stroke-linejoin:miter;stroke-width:0.8;"/>
   </g>
   <g id="patch_5">
    <path d="M 46.965625 343.639219 
L 549.165625 343.639219 
" style="fill:none;stroke:#000000;stroke-linecap:square;stroke-linejoin:miter;stroke-width:0.8;"/>
   </g>
   <g id="patch_6">
    <path d="M 46.965625 10.999219 
L 549.165625 10.999219 
" style="fill:none;stroke:#000000;stroke-linecap:square;stroke-linejoin:miter;stroke-width:0.8;"/>
   </g>
   <g id="legend_1">
    <g id="patch_7">
     <path d="M 464.217188 48.355469 
L 542.165625 48.355469 
Q 544.165625 48.355469 544.165625 46.355469 
L 544.165625 17.999219 
Q 544.165625 15.999219 542.165625 15.999219 
L 464.217188 15.999219 
Q 462.217188 15.999219 462.217188 17.999219 
L 462.217188 46.355469 
Q 462.217188 48.355469 464.217188 48.355469 
z
" style="fill:#ffffff;opacity:0.8;stroke:#cccccc;stroke-linejoin:miter;"/>
    </g>
    <g id="line2d_19">
     <path d="M 466.217188 24.097656 
L 486.217188 24.097656 
" style="fill:none;stroke:#1e90ff;stroke-linecap:square;stroke-width:2;"/>
    </g>
    <g id="line2d_20"/>
    <g id="text_19">
     <!-- Dyna-Q -->
     <defs>
      <path d="M 19.671875 64.796875 
L 19.671875 8.109375 
L 31.59375 8.109375 
Q 46.6875 8.109375 53.6875 14.9375 
Q 60.6875 21.78125 60.6875 36.53125 
Q 60.6875 51.171875 53.6875 57.984375 
Q 46.6875 64.796875 31.59375 64.796875 
z
M 9.8125 72.90625 
L 30.078125 72.90625 
Q 51.265625 72.90625 61.171875 64.09375 
Q 71.09375 55.28125 71.09375 36.53125 
Q 71.09375 17.671875 61.125 8.828125 
Q 51.171875 0 30.078125 0 
L 9.8125 0 
z
" id="DejaVuSans-68"/>
      <path d="M 32.171875 -5.078125 
Q 28.375 -14.84375 24.75 -17.8125 
Q 21.140625 -20.796875 15.09375 -20.796875 
L 7.90625 -20.796875 
L 7.90625 -13.28125 
L 13.1875 -13.28125 
Q 16.890625 -13.28125 18.9375 -11.515625 
Q 21 -9.765625 23.484375 -3.21875 
L 25.09375 0.875 
L 2.984375 54.6875 
L 12.5 54.6875 
L 29.59375 11.921875 
L 46.6875 54.6875 
L 56.203125 54.6875 
z
" id="DejaVuSans-121"/>
      <path d="M 54.890625 33.015625 
L 54.890625 0 
L 45.90625 0 
L 45.90625 32.71875 
Q 45.90625 40.484375 42.875 44.328125 
Q 39.84375 48.1875 33.796875 48.1875 
Q 26.515625 48.1875 22.3125 43.546875 
Q 18.109375 38.921875 18.109375 30.90625 
L 18.109375 0 
L 9.078125 0 
L 9.078125 54.6875 
L 18.109375 54.6875 
L 18.109375 46.1875 
Q 21.34375 51.125 25.703125 53.5625 
Q 30.078125 56 35.796875 56 
Q 45.21875 56 50.046875 50.171875 
Q 54.890625 44.34375 54.890625 33.015625 
z
" id="DejaVuSans-110"/>
      <path d="M 4.890625 31.390625 
L 31.203125 31.390625 
L 31.203125 23.390625 
L 4.890625 23.390625 
z
" id="DejaVuSans-45"/>
      <path d="M 39.40625 66.21875 
Q 28.65625 66.21875 22.328125 58.203125 
Q 16.015625 50.203125 16.015625 36.375 
Q 16.015625 22.609375 22.328125 14.59375 
Q 28.65625 6.59375 39.40625 6.59375 
Q 50.140625 6.59375 56.421875 14.59375 
Q 62.703125 22.609375 62.703125 36.375 
Q 62.703125 50.203125 56.421875 58.203125 
Q 50.140625 66.21875 39.40625 66.21875 
z
M 53.21875 1.3125 
L 66.21875 -12.890625 
L 54.296875 -12.890625 
L 43.5 -1.21875 
Q 41.890625 -1.3125 41.03125 -1.359375 
Q 40.1875 -1.421875 39.40625 -1.421875 
Q 24.03125 -1.421875 14.8125 8.859375 
Q 5.609375 19.140625 5.609375 36.375 
Q 5.609375 53.65625 14.8125 63.9375 
Q 24.03125 74.21875 39.40625 74.21875 
Q 54.734375 74.21875 63.90625 63.9375 
Q 73.09375 53.65625 73.09375 36.375 
Q 73.09375 23.6875 67.984375 14.640625 
Q 62.890625 5.609375 53.21875 1.3125 
z
" id="DejaVuSans-81"/>
     </defs>
     <g transform="translate(494.217188 27.597656)scale(0.1 -0.1)">
      <use xlink:href="#DejaVuSans-68"/>
      <use x="77.001953" xlink:href="#DejaVuSans-121"/>
      <use x="136.181641" xlink:href="#DejaVuSans-110"/>
      <use x="199.560547" xlink:href="#DejaVuSans-97"/>
      <use x="260.839844" xlink:href="#DejaVuSans-45"/>
      <use x="296.970703" xlink:href="#DejaVuSans-81"/>
     </g>
    </g>
    <g id="line2d_21">
     <path d="M 466.217188 38.775781 
L 486.217188 38.775781 
" style="fill:none;stroke:#ff0000;stroke-linecap:square;stroke-width:2;"/>
    </g>
    <g id="line2d_22"/>
    <g id="text_20">
     <!-- Dyna-Q+ -->
     <defs>
      <path d="M 46 62.703125 
L 46 35.5 
L 73.1875 35.5 
L 73.1875 27.203125 
L 46 27.203125 
L 46 0 
L 37.796875 0 
L 37.796875 27.203125 
L 10.59375 27.203125 
L 10.59375 35.5 
L 37.796875 35.5 
L 37.796875 62.703125 
z
" id="DejaVuSans-43"/>
     </defs>
     <g transform="translate(494.217188 42.275781)scale(0.1 -0.1)">
      <use xlink:href="#DejaVuSans-68"/>
      <use x="77.001953" xlink:href="#DejaVuSans-121"/>
      <use x="136.181641" xlink:href="#DejaVuSans-110"/>
      <use x="199.560547" xlink:href="#DejaVuSans-97"/>
      <use x="260.839844" xlink:href="#DejaVuSans-45"/>
      <use x="296.970703" xlink:href="#DejaVuSans-81"/>
      <use x="375.681641" xlink:href="#DejaVuSans-43"/>
     </g>
    </g>
   </g>
  </g>
 </g>
 <defs>
  <clipPath id="p5a7c0b9e3d">
   <rect height="332.64" width="502.2" x="46.965625" y="10.999219"/>
  </clipPath>
 </defs>
</svg>
