<?xml version="1.0" encoding="utf-8" standalone="no"?>
<!DOCTYPE svg PUBLIC "-//W3C//DTD SVG 1.1//EN"
  "http://www.w3.org/Graphics/SVG/1.1/DTD/svg11.dtd">
<!-- Created with matplotlib (https://matplotlib.org/) -->
<svg height="377.39625pt" version="1.1" viewBox="0 0 556.365625 377.39625" width="556.365625pt" xmlns="http://www.w3.org/2000/svg" xmlns:xlink="http://www.w3.org/1999/xlink">
 <defs>
  <style type="text/css">
*{stroke-linecap:butt;stroke-linejoin:round;}
  </style>
 </defs>
 <g id="figure_1">
  <g id="patch_1">
   <path d="M 0 377.39625 
L 556.365625 377.39625 
L 556.365625 0 
L 0 0 
z
" style="fill:#ffffff;"/>
  </g>
  <g id="axes_1">
   <g id="patch_2">
    <path d="M 46.965625 339.84 
L 549.165625 339.84 
L 549.165625 7.2 
L 46.965625 7.2 
z
" style="fill:#ffffff;"/>
   </g>
   <g id="matplotlib.axis_1">
    <g id="xtick_1">
     <g id="line2d_1">
      <defs>
       <path d="M 0 0 
L 0 3.5 
" id="m581783cc57" style="stroke:#000000;stroke-width:0.8;"/>
      </defs>
      <g>
       <use style="stroke:#000000;stroke-width:0.8;" x="69.792898" xlink:href="#m581783cc57" y="339.84"/>
      </g>
     </g>
     <g id="text_1">
      <!-- 0 -->
      <defs>
       <path d="M 31.78125 66.40625 
Q 24.171875 66.40625 20.328125 58.90625 
Q 16.5 51.421875 16.5 36.375 
Q 16.5 21.390625 20.328125 13.890625 
Q 24.171875 6.390625 31.78125 6.390625 
Q 39.453125 6.390625 43.28125 13.890625 
Q 47.125 21.390625 47.125 36.375 
Q 47.125 51.421875 43.28125 58.90625 
Q 39.453125 66.40625 31.78125 66.40625 
z
M 31.78125 74.21875 
Q 44.046875 74.21875 50.515625 64.515625 
Q 56.984375 54.828125 56.984375 36.375 
Q 56.984375 17.96875 50.515625 8.265625 
Q 44.046875 -1.421875 31.78125 -1.421875 
Q 19.53125 -1.421875 13.0625 8.265625 
Q 6.59375 17.96875 6.59375 36.375 
Q 6.59375 54.828125 13.0625 64.515625 
Q 19.53125 74.21875 31.78125 74.21875 
z
" id="DejaVuSans-48"/>
      </defs>
      <g transform="translate(66.611648 354.438437)scale(0.1 -0.1)">
       <use xlink:href="#DejaVuSans-48"/>
      </g>
     </g>
    </g>
    <g id="xtick_2">
     <g id="line2d_2">
      <g>
       <use style="stroke:#000000;stroke-width:0.8;" x="145.909179" xlink:href="#m581783cc57" y="339.84"/>
      </g>
     </g>
     <g id="text_2">
      <!-- 500 -->
      <defs>
       <path d="M 10.796875 72.90625 
L 49.515625 72.90625 
L 49.515625 64.59375 
L 19.828125 64.59375 
L 19.828125 46.734375 
Q 21.96875 47.46875 24.109375 47.828125 
Q 26.265625 48.1875 28.421875 48.1875 
Q 40.625 48.1875 47.75 41.5 
Q 54.890625 34.8125 54.890625 23.390625 
Q 54.890625 11.625 47.5625 5.09375 
Q 40.234375 -1.421875 26.90625 -1.421875 
Q 22.3125 -1.421875 17.546875 -0.640625 
Q 12.796875 0.140625 7.71875 1.703125 
L 7.71875 11.625 
Q 12.109375 9.234375 16.796875 8.0625 
Q 21.484375 6.890625 26.703125 6.890625 
Q 35.15625 6.890625 40.078125 11.328125 
Q 45.015625 15.765625 45.015625 23.390625 
Q 45.015625 31 40.078125 35.4375 
Q 35.15625 39.890625 26.703125 39.890625 
Q 22.75 39.890625 18.8125 39.015625 
Q 14.890625 38.140625 10.796875 36.28125 
z
" id="DejaVuSans-53"/>
      </defs>
      <g transform="translate(136.365429 354.438437)scale(0.1 -0.1)">
       <use xlink:href="#DejaVuSans-53"/>
       <use x="63.623047" xlink:href="#DejaVuSans-48"/>
       <use x="127.246094" xlink:href="#DejaVuSans-48"/>
      </g>
     </g>
    </g>
    <g id="xtick_3">
     <g id="line2d_3">
      <g>
       <use style="stroke:#000000;stroke-width:0.8;" x="222.02546" xlink:href="#m581783cc57" y="339.84"/>
      </g>
     </g>
     <g id="text_3">
      <!-- 1000 -->
      <defs>
       <path d="M 12.40625 8.296875 
L 28.515625 8.296875 
L 28.515625 63.921875 
L 10.984375 60.40625 
L 10.984375 69.390625 
L 28.421875 72.90625 
L 38.28125 72.90625 
L 38.28125 8.296875 
L 54.390625 8.296875 
L 54.390625 0 
L 12.40625 0 
z
" id="DejaVuSans-49"/>
      </defs>
      <g transform="translate(209.30046 354.438437)scale(0.1 -0.1)">
       <use xlink:href="#DejaVuSans-49"/>
       <use x="63.623047" xlink:href="#DejaVuSans-48"/>
       <use x="127.246094" xlink:href="#DejaVuSans-48"/>
       <use x="190.869141" xlink:href="#DejaVuSans-48"/>
      </g>
     </g>
    </g>
    <g id="xtick_4">
     <g id="line2d_4">
      <g>
       <use style="stroke:#000000;stroke-width:0.8;" x="298.141741" xlink:href="#m581783cc57" y="339.84"/>
      </g>
     </g>
     <g id="text_4">
      <!-- 1500 -->
      <g transform="translate(285.416741 354.438437)scale(0.1 -0.1)">
       <use xlink:href="#DejaVuSans-49"/>
       <use x="63.623047" xlink:href="#DejaVuSans-53"/>
       <use x="127.246094" xlink:href="#DejaVuSans-48"/>
       <use x="190.869141" xlink:href="#DejaVuSans-48"/>
      </g>
     </g>
    </g>
    <g id="xtick_5">
     <g id="line2d_5">
      <g>
       <use style="stroke:#000000;stroke-width:0.8;" x="374.258022" xlink:href="#m581783cc57" y="339.84"/>
      </g>
     </g>
     <g id="text_5">
      <!-- 2000 -->
      <defs>
       <path d="M 19.1875 8.296875 
L 53.609375 8.296875 
L 53.609375 0 
L 7.328125 0 
L 7.328125 8.296875 
Q 12.9375 14.109375 22.625 23.890625 
Q 32.328125 33.6875 34.8125 36.53125 
Q 39.546875 41.84375 41.421875 45.53125 
Q 43.3125 49.21875 43.3125 52.78125 
Q 43.3125 58.59375 39.234375 62.25 
Q 35.15625 65.921875 28.609375 65.921875 
Q 23.96875 65.921875 18.8125 64.3125 
Q 13.671875 62.703125 7.8125 59.421875 
L 7.8125 69.390625 
Q 13.765625 71.78125 18.9375 73 
Q 24.125 74.21875 28.421875 74.21875 
Q 39.75 74.21875 46.484375 68.546875 
Q 53.21875 62.890625 53.21875 53.421875 
Q 53.21875 48.921875 51.53125 44.890625 
Q 49.859375 40.875 45.40625 35.40625 
Q 44.1875 33.984375 37.640625 27.21875 
Q 31.109375 20.453125 19.1875 8.296875 
z
" id="DejaVuSans-50"/>
      </defs>
      <g transform="translate(361.533022 354.438437)scale(0.1 -0.1)">
       <use xlink:href="#DejaVuSans-50"/>
       <use x="63.623047" xlink:href="#DejaVuSans-48"/>
       <use x="127.246094" xlink:href="#DejaVuSans-48"/>
       <use x="190.869141" xlink:href="#DejaVuSans-48"/>
      </g>
     </g>
    </g>
    <g id="xtick_6">
     <g id="line2d_6">
      <g>
       <use style="stroke:#000000;stroke-width:0.8;" x="450.374304" xlink:href="#m581783cc57" y="339.84"/>
      </g>
     </g>
     <g id="text_6">
      <!-- 2500 -->
      <g transform="translate(437.649304 354.438437)scale(0.1 -0.1)">
       <use xlink:href="#DejaVuSans-50"/>
       <use x="63.623047" xlink:href="#DejaVuSans-53"/>
       <use x="127.246094" xlink:href="#DejaVuSans-48"/>
       <use x="190.869141" xlink:href="#DejaVuSans-48"/>
      </g>
     </g>
    </g>
    <g id="xtick_7">
     <g id="line2d_7">
      <g>
       <use style="stroke:#000000;stroke-width:0.8;" x="526.490585" xlink:href="#m581783cc57" y="339.84"/>
      </g>
     </g>
     <g id="text_7">
      <!-- 3000 -->
      <defs>
       <path d="M 40.578125 39.3125 
Q 47.65625 37.796875 51.625 33 
Q 55.609375 28.21875 55.609375 21.1875 
Q 55.609375 10.40625 48.1875 4.484375 
Q 40.765625 -1.421875 27.09375 -1.421875 
Q 22.515625 -1.421875 17.65625 -0.515625 
Q 12.796875 0.390625 7.625 2.203125 
L 7.625 11.71875 
Q 11.71875 9.328125 16.59375 8.109375 
Q 21.484375 6.890625 26.8125 6.890625 
Q 36.078125 6.890625 40.9375 10.546875 
Q 45.796875 14.203125 45.796875 21.1875 
Q 45.796875 27.640625 41.28125 31.265625 
Q 36.765625 34.90625 28.71875 34.90625 
L 20.21875 34.90625 
L 20.21875 43.015625 
L 29.109375 43.015625 
Q 36.375 43.015625 40.234375 45.921875 
Q 44.09375 48.828125 44.09375 54.296875 
Q 44.09375 59.90625 40.109375 62.90625 
Q 36.140625 65.921875 28.71875 65.921875 
Q 24.65625 65.921875 20.015625 65.03125 
Q 15.375 64.15625 9.8125 62.3125 
L 9.8125 71.09375 
Q 15.4375 72.65625 20.34375 73.4375 
Q 25.25 74.21875 29.59375 74.21875 
Q 40.828125 74.21875 47.359375 69.109375 
Q 53.90625 64.015625 53.90625 55.328125 
Q 53.90625 49.265625 50.4375 45.09375 
Q 46.96875 40.921875 40.578125 39.3125 
z
" id="DejaVuSans-51"/>
      </defs>
      <g transform="translate(513.765585 354.438437)scale(0.1 -0.1)">
       <use xlink:href="#DejaVuSans-51"/>
       <use x="63.623047" xlink:href="#DejaVuSans-48"/>
       <use x="127.246094" xlink:href="#DejaVuSans-48"/>
       <use x="190.869141" xlink:href="#DejaVuSans-48"/>
      </g>
     </g>
    </g>
    <g id="text_8">
     <!-- Time steps -->
     <defs>
      <path d="M -0.296875 72.90625 
L 61.375 72.90625 
L 61.375 64.59375 
L 35.5 64.59375 
L 35.5 0 
L 25.59375 0 
L 25.59375 64.59375 
L -0.296875 64.59375 
z
" id="DejaVuSans-84"/>
      <path d="M 9.421875 54.6875 
L 18.40625 54.6875 
L 18.40625 0 
L 9.421875 0 
z
M 9.421875 75.984375 
L 18.40625 75.984375 
L 18.40625 64.59375 
L 9.421875 64.59375 
z
" id="DejaVuSans-105"/>
      <path d="M 52 44.1875 
Q 55.375 50.25 60.0625 53.125 
Q 64.75 56 71.09375 56 
Q 79.640625 56 84.28125 50.015625 
Q 88.921875 44.046875 88.921875 33.015625 
L 88.921875 0 
L 79.890625 0 
L 79.890625 32.71875 
Q 79.890625 40.578125 77.09375 44.375 
Q 74.3125 48.1875 68.609375 48.1875 
Q 61.625 48.1875 57.5625 43.546875 
Q 53.515625 38.921875 53.515625 30.90625 
L 53.515625 0 
L 44.484375 0 
L 44.484375 32.71875 
Q 44.484375 40.625 41.703125 44.40625 
Q 38.921875 48.1875 33.109375 48.1875 
Q 26.21875 48.1875 22.15625 43.53125 
Q 18.109375 38.875 18.109375 30.90625 
L 18.109375 0 
L 9.078125 0 
L 9.078125 54.6875 
L 18.109375 54.6875 
L 18.109375 46.1875 
Q 21.1875 51.21875 25.484375 53.609375 
Q 29.78125 56 35.6875 56 
Q 41.65625 56 45.828125 52.96875 
Q 50 49.953125 52 44.1875 
z
" id="DejaVuSans-109"/>
      <path d="M 56.203125 29.59375 
L 56.203125 25.203125 
L 14.890625 25.203125 
Q 15.484375 15.921875 20.484375 11.0625 
Q 25.484375 6.203125 34.421875 6.203125 
Q 39.59375 6.203125 44.453125 7.46875 
Q 49.3125 8.734375 54.109375 11.28125 
L 54.109375 2.78125 
Q 49.265625 0.734375 44.1875 -0.34375 
Q 39.109375 -1.421875 33.890625 -1.421875 
Q 20.796875 -1.421875 13.15625 6.1875 
Q 5.515625 13.8125 5.515625 26.8125 
Q 5.515625 40.234375 12.765625 48.109375 
Q 20.015625 56 32.328125 56 
Q 43.359375 56 49.78125 48.890625 
Q 56.203125 41.796875 56.203125 29.59375 
z
M 47.21875 32.234375 
Q 47.125 39.59375 43.09375 43.984375 
Q 39.0625 48.390625 32.421875 48.390625 
Q 24.90625 48.390625 20.390625 44.140625 
Q 15.875 39.890625 15.1875 32.171875 
z
" id="DejaVuSans-101"/>
      <path id="DejaVuSans-32"/>
      <path d="M 44.28125 53.078125 
L 44.28125 44.578125 
Q 40.484375 46.53125 36.375 47.5 
Q 32.28125 48.484375 27.875 48.484375 
Q 21.1875 48.484375 17.84375 46.4375 
Q 14.5 44.390625 14.5 40.28125 
Q 14.5 37.15625 16.890625 35.375 
Q 19.28125 33.59375 26.515625 31.984375 
L 29.59375 31.296875 
Q 39.15625 29.25 43.1875 25.515625 
Q 47.21875 21.78125 47.21875 15.09375 
Q 47.21875 7.46875 41.1875 3.015625 
Q 35.15625 -1.421875 24.609375 -1.421875 
Q 20.21875 -1.421875 15.453125 -0.5625 
Q 10.6875 0.296875 5.421875 2 
L 5.421875 11.28125 
Q 10.40625 8.6875 15.234375 7.390625 
Q 20.0625 6.109375 24.8125 6.109375 
Q 31.15625 6.109375 34.5625 8.28125 
Q 37.984375 10.453125 37.984375 14.40625 
Q 37.984375 18.0625 35.515625 20.015625 
Q 33.0625 21.96875 24.703125 23.78125 
L 21.578125 24.515625 
Q 13.234375 26.265625 9.515625 29.90625 
Q 5.8125 33.546875 5.8125 39.890625 
Q 5.8125 47.609375 11.28125 51.796875 
Q 16.75 56 26.8125 56 
Q 31.78125 56 36.171875 55.265625 
Q 40.578125 54.546875 44.28125 53.078125 
z
" id="DejaVuSans-115"/>
      <path d="M 18.3125 70.21875 
L 18.3125 54.6875 
L 36.8125 54.6875 
L 36.8125 47.703125 
L 18.3125 47.703125 
L 18.3125 18.015625 
Q 18.3125 11.328125 20.140625 9.421875 
Q 21.96875 7.515625 27.59375 7.515625 
L 36.8125 7.515625 
L 36.8125 0 
L 27.59375 0 
Q 17.1875 0 13.234375 3.875 
Q 9.28125 7.765625 9.28125 18.015625 
L 9.28125 47.703125 
L 2.6875 47.703125 
L 2.6875 54.6875 
L 9.28125 54.6875 
L 9.28125 70.21875 
z
" id="DejaVuSans-116"/>
      <path d="M 18.109375 8.203125 
L 18.109375 -20.796875 
L 9.078125 -20.796875 
L 9.078125 54.6875 
L 18.109375 54.6875 
L 18.109375 46.390625 
Q 20.953125 51.265625 25.265625 53.625 
Q 29.59375 56 35.59375 56 
Q 45.5625 56 51.78125 48.09375 
Q 58.015625 40.1875 58.015625 27.296875 
Q 58.015625 14.40625 51.78125 6.484375 
Q 45.5625 -1.421875 35.59375 -1.421875 
Q 29.59375 -1.421875 25.265625 0.953125 
Q 20.953125 3.328125 18.109375 8.203125 
z
M 48.6875 27.296875 
Q 48.6875 37.203125 44.609375 42.84375 
Q 40.53125 48.484375 33.40625 48.484375 
Q 26.265625 48.484375 22.1875 42.84375 
Q 18.109375 37.203125 18.109375 27.296875 
Q 18.109375 17.390625 22.1875 11.75 
Q 26.265625 6.109375 33.40625 6.109375 
Q 40.53125 6.109375 44.609375 11.75 
Q 48.6875 17.390625 48.6875 27.296875 
z
" id="DejaVuSans-112"/>
     </defs>
     <g transform="translate(270.66875 368.116562)scale(0.1 -0.1)">
      <use xlink:href="#DejaVuSans-84"/>
      <use x="61.037109" xlink:href="#DejaVuSans-105"/>
      <use x="88.820312" xlink:href="#DejaVuSans-109"/>
      <use x="186.232422" xlink:href="#DejaVuSans-101"/>
      <use x="247.755859" xlink:href="#DejaVuSans-32"/>
      <use x="279.542969" xlink:href="#DejaVuSans-115"/>
      <use x="331.642578" xlink:href="#DejaVuSans-116"/>
      <use x="370.851562" xlink:href="#DejaVuSans-101"/>
      <use x="432.375" xlink:href="#DejaVuSans-112"/>
      <use x="495.851562" xlink:href="#DejaVuSans-115"/>
     </g>
    </g>
   </g>
   <g id="matplotlib.axis_2">
    <g id="ytick_1">
     <g id="line2d_8">
      <defs>
       <path d="M 0 0 
L -3.5 0 
" id="m2c742d9e1c" style="stroke:#000000;stroke-width:0.8;"/>
      </defs>
      <g>
       <use style="stroke:#000000;stroke-width:0.8;" x="46.965625" xlink:href="#m2c742d9e1c" y="339.84"/>
      </g>
     </g>
     <g id="text_9">
      <!-- 0 -->
      <g transform="translate(33.603125 343.639219)scale(0.1 -0.1)">
       <use xlink:href="#DejaVuSans-48"/>
      </g>
     </g>
    </g>
    <g id="ytick_2">
     <g id="line2d_9">
      <g>
       <use style="stroke:#000000;stroke-width:0.8;" x="46.965625" xlink:href="#m2c742d9e1c" y="295.488"/>
      </g>
     </g>
     <g id="text_10">
      <!-- 20 -->
      <g transform="translate(27.240625 299.287219)scale(0.1 -0.1)">
       <use xlink:href="#DejaVuSans-50"/>
       <use x="63.623047" xlink:href="#DejaVuSans-48"/>
      </g>
     </g>
    </g>
    <g id="ytick_3">
     <g id="line2d_10">
      <g>
       <use style="stroke:#000000;stroke-width:0.8;" x="46.965625" xlink:href="#m2c742d9e1c" y="251.136"/>
      </g>
     </g>
     <g id="text_11">
      <!-- 40 -->
      <defs>
       <path d="M 37.796875 64.3125 
L 12.890625 25.390625 
L 37.796875 25.390625 
z
M 35.203125 72.90625 
L 47.609375 72.90625 
L 47.609375 25.390625 
L 58.015625 25.390625 
L 58.015625 17.1875 
L 47.609375 17.1875 
L 47.609375 0 
L 37.796875 0 
L 37.796875 17.1875 
L 4.890625 17.1875 
L 4.890625 26.703125 
z
" id="DejaVuSans-52"/>
      </defs>
      <g transform="translate(27.240625 254.935219)scale(0.1 -0.1)">
       <use xlink:href="#DejaVuSans-52"/>
       <use x="63.623047" xlink:href="#DejaVuSans-48"/>
      </g>
     </g>
    </g>
    <g id="ytick_4">
     <g id="line2d_11">
      <g>
       <use style="stroke:#000000;stroke-width:0.8;" x="46.965625" xlink:href="#m2c742d9e1c" y="206.784"/>
      </g>
     </g>
     <g id="text_12">
      <!-- 60 -->
      <defs>
       <path d="M 33.015625 40.375 
Q 26.375 40.375 22.484375 35.828125 
Q 18.609375 31.296875 18.609375 23.390625 
Q 18.609375 15.53125 22.484375 10.953125 
Q 26.375 6.390625 33.015625 6.390625 
Q 39.65625 6.390625 43.53125 10.953125 
Q 47.40625 15.53125 47.40625 23.390625 
Q 47.40625 31.296875 43.53125 35.828125 
Q 39.65625 40.375 33.015625 40.375 
z
M 52.59375 71.296875 
L 52.59375 62.3125 
Q 48.875 64.0625 45.09375 64.984375 
Q 41.3125 65.921875 37.59375 65.921875 
Q 27.828125 65.921875 22.671875 59.328125 
Q 17.53125 52.734375 16.796875 39.40625 
Q 19.671875 43.65625 24.015625 45.921875 
Q 28.375 48.1875 33.59375 48.1875 
Q 44.578125 48.1875 50.953125 41.515625 
Q 57.328125 34.859375 57.328125 23.390625 
Q 57.328125 12.15625 50.6875 5.359375 
Q 44.046875 -1.421875 33.015625 -1.421875 
Q 20.359375 -1.421875 13.671875 8.265625 
Q 6.984375 17.96875 6.984375 36.375 
Q 6.984375 53.65625 15.1875 63.9375 
Q 23.390625 74.21875 37.203125 74.21875 
Q 40.921875 74.21875 44.703125 73.484375 
Q 48.484375 72.75 52.59375 71.296875 
z
" id="DejaVuSans-54"/>
      </defs>
      <g transform="translate(27.240625 210.583219)scale(0.1 -0.1)">
       <use xlink:href="#DejaVuSans-54"/>
       <use x="63.623047" xlink:href="#DejaVuSans-48"/>
      </g>
     </g>
    </g>
    <g id="ytick_5">
     <g id="line2d_12">
      <g>
       <use style="stroke:#000000;stroke-width:0.8;" x="46.965625" xlink:href="#m2c742d9e1c" y="162.432"/>
      </g>
     </g>
     <g id="text_13">
      <!-- 80 -->
      <defs>
       <path d="M 31.78125 34.625 
Q 24.75 34.625 20.71875 30.859375 
Q 16.703125 27.09375 16.703125 20.515625 
Q 16.703125 13.921875 20.71875 10.15625 
Q 24.75 6.390625 31.78125 6.390625 
Q 38.8125 6.390625 42.859375 10.171875 
Q 46.921875 13.96875 46.921875 20.515625 
Q 46.921875 27.09375 42.890625 30.859375 
Q 38.875 34.625 31.78125 34.625 
z
M 21.921875 38.8125 
Q 15.578125 40.375 12.03125 44.71875 
Q 8.5 49.078125 8.5 55.328125 
Q 8.5 64.0625 14.71875 69.140625 
Q 20.953125 74.21875 31.78125 74.21875 
Q 42.671875 74.21875 48.875 69.140625 
Q 55.078125 64.0625 55.078125 55.328125 
Q 55.078125 49.078125 51.53125 44.71875 
Q 48 40.375 41.703125 38.8125 
Q 48.828125 37.15625 52.796875 32.3125 
Q 56.78125 27.484375 56.78125 20.515625 
Q 56.78125 9.90625 50.3125 4.234375 
Q 43.84375 -1.421875 31.78125 -1.421875 
Q 19.734375 -1.421875 13.25 4.234375 
Q 6.78125 9.90625 6.78125 20.515625 
Q 6.78125 27.484375 10.78125 32.3125 
Q 14.796875 37.15625 21.921875 38.8125 
z
M 18.3125 54.390625 
Q 18.3125 48.734375 21.84375 45.5625 
Q 25.390625 42.390625 31.78125 42.390625 
Q 38.140625 42.390625 41.71875 45.5625 
Q 45.3125 48.734375 45.3125 54.390625 
Q 45.3125 60.0625 41.71875 63.234375 
Q 38.140625 66.40625 31.78125 66.40625 
Q 25.390625 66.40625 21.84375 63.234375 
Q 18.3125 60.0625 18.3125 54.390625 
z
" id="DejaVuSans-56"/>
      </defs>
      <g transform="translate(27.240625 166.231219)scale(0.1 -0.1)">
       <use xlink:href="#DejaVuSans-56"/>
       <use x="63.623047" xlink:href="#DejaVuSans-48"/>
      </g>
     </g>
    </g>
    <g id="ytick_6">
     <g id="line2d_13">
      <g>
       <use style="stroke:#000000;stroke-width:0.8;" x="46.965625" xlink:href="#m2c742d9e1c" y="118.08"/>
      </g>
     </g>
     <g id="text_14">
      <!-- 100 -->
      <g transform="translate(20.878125 121.879219)scale(0.1 -0.1)">
       <use xlink:href="#DejaVuSans-49"/>
       <use x="63.623047" xlink:href="#DejaVuSans-48"/>
       <use x="127.246094" xlink:href="#DejaVuSans-48"/>
      </g>
     </g>
    </g>
    <g id="ytick_7">
     <g id="line2d_14">
      <g>
       <use style="stroke:#000000;stroke-width:0.8;" x="46.965625" xlink:href="#m2c742d9e1c" y="73.728"/>
      </g>
     </g>
     <g id="text_15">
      <!-- 120 -->
      <g transform="translate(20.878125 77.527219)scale(0.1 -0.1)">
       <use xlink:href="#DejaVuSans-49"/>
       <use x="63.623047" xlink:href="#DejaVuSans-50"/>
       <use x="127.246094" xlink:href="#DejaVuSans-48"/>
      </g>
     </g>
    </g>
    <g id="ytick_8">
     <g id="line2d_15">
      <g>
       <use style="stroke:#000000;stroke-width:0.8;" x="46.965625" xlink:href="#m2c742d9e1c" y="29.376"/>
      </g>
     </g>
     <g id="text_16">
      <!-- 140 -->
      <g transform="translate(20.878125 33.175219)scale(0.1 -0.1)">
       <use xlink:href="#DejaVuSans-49"/>
       <use x="63.623047" xlink:href="#DejaVuSans-52"/>
       <use x="127.246094" xlink:href="#DejaVuSans-48"/>
      </g>
     </g>
    </g>
    <g id="text_17">
     <!-- Cumulative reward -->
     <defs>
      <path d="M 64.40625 67.28125 
L 64.40625 56.890625 
Q 59.421875 61.53125 53.78125 63.8125 
Q 48.140625 66.109375 41.796875 66.109375 
Q 29.296875 66.109375 22.65625 58.46875 
Q 16.015625 50.828125 16.015625 36.375 
Q 16.015625 21.96875 22.65625 14.328125 
Q 29.296875 6.6875 41.796875 6.6875 
Q 48.140625 6.6875 53.78125 8.984375 
Q 59.421875 11.28125 64.40625 15.921875 
L 64.40625 5.609375 
Q 59.234375 2.09375 53.4375 0.328125 
Q 47.65625 -1.421875 41.21875 -1.421875 
Q 24.65625 -1.421875 15.125 8.703125 
Q 5.609375 18.84375 5.609375 36.375 
Q 5.609375 53.953125 15.125 64.078125 
Q 24.65625 74.21875 41.21875 74.21875 
Q 47.75 74.21875 53.53125 72.484375 
Q 59.328125 70.75 64.40625 67.28125 
z
" id="DejaVuSans-67"/>
      <path d="M 8.5 21.578125 
L 8.5 54.6875 
L 17.484375 54.6875 
L 17.484375 21.921875 
Q 17.484375 14.15625 20.5 10.265625 
Q 23.53125 6.390625 29.59375 6.390625 
Q 36.859375 6.390625 41.078125 11.03125 
Q 45.3125 15.671875 45.3125 23.6875 
L 45.3125 54.6875 
L 54.296875 54.6875 
L 54.296875 0 
L 45.3125 0 
L 45.3125 8.40625 
Q 42.046875 3.421875 37.71875 1 
Q 33.40625 -1.421875 27.6875 -1.421875 
Q 18.265625 -1.421875 13.375 4.4375 
Q 8.5 10.296875 8.5 21.578125 
z
M 31.109375 56 
z
" id="DejaVuSans-117"/>
      <path d="M 9.421875 75.984375 
L 18.40625 75.984375 
L 18.40625 0 
L 9.421875 0 
z
" id="DejaVuSans-108"/>
      <path d="M 34.28125 27.484375 
Q 23.390625 27.484375 19.1875 25 
Q 14.984375 22.515625 14.984375 16.5 
Q 14.984375 11.71875 18.140625 8.90625 
Q 21.296875 6.109375 26.703125 6.109375 
Q 34.1875 6.109375 38.703125 11.40625 
Q 43.21875 16.703125 43.21875 25.484375 
L 43.21875 27.484375 
z
M 52.203125 31.203125 
L 52.203125 0 
L 43.21875 0 
L 43.21875 8.296875 
Q 40.140625 3.328125 35.546875 0.953125 
Q 30.953125 -1.421875 24.3125 -1.421875 
Q 15.921875 -1.421875 10.953125 3.296875 
Q 6 8.015625 6 15.921875 
Q 6 25.140625 12.171875 29.828125 
Q 18.359375 34.515625 30.609375 34.515625 
L 43.21875 34.515625 
L 43.21875 35.40625 
Q 43.21875 41.609375 39.140625 45 
Q 35.0625 48.390625 27.6875 48.390625 
Q 23 48.390625 18.546875 47.265625 
Q 14.109375 46.140625 10.015625 43.890625 
L 10.015625 52.203125 
Q 14.9375 54.109375 19.578125 55.046875 
Q 24.21875 56 28.609375 56 
Q 40.484375 56 46.34375 49.84375 
Q 52.203125 43.703125 52.203125 31.203125 
z
" id="DejaVuSans-97"/>
      <path d="M 2.984375 54.6875 
L 12.5 54.6875 
L 29.59375 8.796875 
L 46.6875 54.6875 
L 56.203125 54.6875 
L 35.6875 0 
L 23.484375 0 
z
" id="DejaVuSans-118"/>
      <path d="M 41.109375 46.296875 
Q 39.59375 47.171875 37.8125 47.578125 
Q 36.03125 48 33.890625 48 
Q 26.265625 48 22.1875 43.046875 
Q 18.109375 38.09375 18.109375 28.8125 
L 18.109375 0 
L 9.078125 0 
L 9.078125 54.6875 
L 18.109375 54.6875 
L 18.109375 46.1875 
Q 20.953125 51.171875 25.484375 53.578125 
Q 30.03125 56 36.53125 56 
Q 37.453125 56 38.578125 55.875 
Q 39.703125 55.765625 41.0625 55.515625 
z
" id="DejaVuSans-114"/>
      <path d="M 4.203125 54.6875 
L 13.1875 54.6875 
L 24.421875 12.015625 
L 35.59375 54.6875 
L 46.1875 54.6875 
L 57.421875 12.015625 
L 68.609375 54.6875 
L 77.59375 54.6875 
L 63.28125 0 
L 52.6875 0 
L 40.921875 44.828125 
L 29.109375 0 
L 18.5 0 
z
" id="DejaVuSans-119"/>
      <path d="M 45.40625 46.390625 
L 45.40625 75.984375 
L 54.390625 75.984375 
L 54.390625 0 
L 45.40625 0 
L 45.40625 8.203125 
Q 42.578125 3.328125 38.25 0.953125 
Q 33.9375 -1.421875 27.875 -1.421875 
Q 17.96875 -1.421875 11.734375 6.484375 
Q 5.515625 14.40625 5.515625 27.296875 
Q 5.515625 40.1875 11.734375 48.09375 
Q 17.96875 56 27.875 56 
Q 33.9375 56 38.25 53.625 
Q 42.578125 51.265625 45.40625 46.390625 
z
M 14.796875 27.296875 
Q 14.796875 17.390625 18.875 11.75 
Q 22.953125 6.109375 30.078125 6.109375 
Q 37.203125 6.109375 41.296875 11.75 
Q 45.40625 17.390625 45.40625 27.296875 
Q 45.40625 37.203125 41.296875 42.84375 
Q 37.203125 48.484375 30.078125 48.484375 
Q 22.953125 48.484375 18.875 42.84375 
Q 14.796875 37.203125 14.796875 27.296875 
z
" id="DejaVuSans-100"/>
     </defs>
     <g transform="translate(14.798438 221.159062)rotate(-90)scale(0.1 -0.1)">
      <use xlink:href="#DejaVuSans-67"/>
      <use x="69.824219" xlink:href="#DejaVuSans-117"/>
      <use x="133.203125" xlink:href="#DejaVuSans-109"/>
      <use x="230.615234" xlink:href="#DejaVuSans-117"/>
      <use x="293.994141" xlink:href="#DejaVuSans-108"/>
      <use x="321.777344" xlink:href="#DejaVuSans-97"/>
      <use x="383.056641" xlink:href="#DejaVuSans-116"/>
      <use x="422.265625" xlink:href="#DejaVuSans-105"/>
      <use x="450.048828" xlink:href="#DejaVuSans-118"/>
      <use x="509.228516" xlink:href="#DejaVuSans-101"/>
      <use x="570.751953" xlink:href="#DejaVuSans-32"/>
      <use x="602.539062" xlink:href="#DejaVuSans-114"/>
      <use x="643.621094" xlink:href="#DejaVuSans-101"/>
      <use x="705.144531" xlink:href="#DejaVuSans-119"/>
      <use x="786.931641" xlink:href="#DejaVuSans-97"/>
      <use x="848.210938" xlink:href="#DejaVuSans-114"/>
      <use x="889.308594" xlink:href="#DejaVuSans-100"/>
     </g>
    </g>
   </g>
   <g id="line2d_16">
    <path clip-path="url(#pa3942de8a1)" d="M 69.792898 339.84 
L 76.186665 339.751296 
L 76.795596 339.662592 
L 79.079084 339.573888 
L 79.383549 339.485184 
L 80.449177 339.440832 
L 80.753642 339.352128 
L 81.21034 339.307776 
L 81.971503 339.219072 
L 82.580433 339.130368 
L 83.646061 339.041664 
L 84.711689 338.819904 
L 85.777317 338.775552 
L 86.081782 338.642496 
L 86.386247 338.553792 
L 86.842945 338.50944 
L 87.451875 338.420736 
L 88.36527 338.243328 
L 88.821968 338.154624 
L 89.583131 338.021568 
L 90.496526 337.977216 
L 90.953224 337.711104 
L 91.409922 337.666752 
L 92.018852 337.578048 
L 93.997875 337.090176 
L 94.454573 337.001472 
L 95.520201 336.779712 
L 96.129131 336.779712 
L 96.585829 336.5136 
L 97.346992 336.380544 
L 97.803689 336.29184 
L 104.806387 334.340352 
L 104.95862 334.340352 
L 105.415317 334.07424 
L 105.56755 334.07424 
L 106.024248 333.808128 
L 106.633178 333.719424 
L 107.698806 333.364608 
L 108.155503 333.098496 
L 108.764434 333.009792 
L 109.068899 332.96544 
L 110.134527 332.433216 
L 110.591224 332.388864 
L 110.743457 332.388864 
L 111.352387 331.989696 
L 111.656852 331.900992 
L 111.809085 331.723584 
L 112.265783 331.723584 
L 112.570248 331.590528 
L 114.549271 330.925248 
L 115.310434 330.570432 
L 116.528294 330.126912 
L 117.593922 329.594688 
L 118.05062 329.41728 
L 118.202853 329.239872 
L 118.507318 329.19552 
L 118.811783 328.929408 
L 119.877411 328.574592 
L 120.334108 328.30848 
L 120.638574 328.042368 
L 120.790806 327.86496 
L 121.247504 327.86496 
L 121.704201 327.598848 
L 122.008667 327.465792 
L 122.313132 327.288384 
L 122.617597 327.155328 
L 123.226527 326.711808 
L 124.139922 326.356992 
L 124.59662 326.09088 
L 124.748853 326.09088 
L 125.053318 325.736064 
L 125.357783 325.64736 
L 125.814481 325.469952 
L 125.966713 325.469952 
L 127.032341 324.627264 
L 127.489039 324.53856 
L 128.554667 323.828928 
L 128.859132 323.562816 
L 129.163597 323.474112 
L 129.92476 323.163648 
L 131.14262 322.232256 
L 131.751551 322.010496 
L 132.056016 321.744384 
L 134.339504 320.32512 
L 134.643969 320.192064 
L 134.796202 320.147712 
L 135.100667 319.748544 
L 135.405132 319.482432 
L 135.709597 319.305024 
L 136.014062 319.127616 
L 136.47076 318.950208 
L 136.622993 318.905856 
L 137.07969 318.462336 
L 137.231923 318.462336 
L 137.536388 318.018816 
L 137.840853 317.930112 
L 138.754248 317.353536 
L 139.058714 317.087424 
L 139.210946 317.087424 
L 140.276574 316.289088 
L 140.733272 316.067328 
L 141.646667 315.357696 
L 141.7989 315.357696 
L 142.712295 314.692416 
L 142.864528 314.648064 
L 143.168993 314.3376 
L 143.62569 314.160192 
L 144.234621 313.494912 
L 144.843551 313.273152 
L 145.148016 313.140096 
L 145.300249 313.051392 
L 145.604714 312.652224 
L 146.213644 312.208704 
L 146.518109 312.031296 
L 147.127039 311.809536 
L 147.73597 311.099904 
L 148.95383 310.301568 
L 149.714993 309.724992 
L 150.019458 309.591936 
L 151.237319 308.616192 
L 151.846249 308.394432 
L 152.607412 307.6848 
L 152.911877 307.329984 
L 153.368574 307.24128 
L 153.825272 307.063872 
L 154.28197 306.576 
L 154.586435 306.176832 
L 155.195365 305.91072 
L 155.652063 305.777664 
L 156.260993 305.068032 
L 157.174389 304.402752 
L 157.326621 304.3584 
L 157.631086 304.092288 
L 157.783319 304.092288 
L 159.001179 303.160896 
L 159.305644 302.894784 
L 159.914575 302.406912 
L 160.066807 302.406912 
L 161.893598 300.854592 
L 162.198063 300.81024 
L 162.502528 300.58848 
L 162.959226 300.189312 
L 164.024854 299.346624 
L 164.177086 299.302272 
L 164.633784 298.903104 
L 164.938249 298.770048 
L 165.242714 298.237824 
L 166.612807 297.395136 
L 166.917273 296.995968 
L 167.069505 296.951616 
L 167.678435 296.286336 
L 168.135133 296.15328 
L 168.287366 295.887168 
L 168.591831 295.842816 
L 169.505226 294.82272 
L 170.114156 294.556608 
L 170.875319 294.024384 
L 171.332017 293.49216 
L 172.245412 292.915584 
L 172.854342 292.294656 
L 173.615505 291.762432 
L 173.91997 291.629376 
L 174.224436 291.363264 
L 174.528901 290.964096 
L 174.833366 290.786688 
L 175.137831 290.564928 
L 175.594529 290.16576 
L 176.507924 289.456128 
L 176.964622 289.234368 
L 177.573552 288.61344 
L 177.878017 288.302976 
L 178.943645 287.593344 
L 179.400343 287.06112 
L 179.704808 286.928064 
L 180.161505 286.528896 
L 180.922668 285.907968 
L 181.074901 285.907968 
L 181.379366 285.641856 
L 181.988296 284.976576 
L 182.444994 284.577408 
L 182.901692 284.488704 
L 183.510622 283.912128 
L 183.815087 283.557312 
L 184.271785 283.158144 
L 185.18518 282.537216 
L 185.79411 282.138048 
L 185.946343 282.049344 
L 186.250808 281.51712 
L 187.164203 280.940544 
L 187.468668 280.541376 
L 187.620901 280.497024 
L 187.925366 280.142208 
L 188.077599 280.097856 
L 188.534296 279.565632 
L 189.295459 279.033408 
L 192.796808 275.840064 
L 193.253506 275.396544 
L 193.862436 275.174784 
L 194.166901 274.775616 
L 194.471366 274.287744 
L 195.841459 273.489408 
L 196.45039 272.602368 
L 196.754855 272.336256 
L 197.05932 272.336256 
L 198.429413 270.828288 
L 198.581645 270.783936 
L 198.886111 270.384768 
L 199.038343 270.340416 
L 199.799506 269.497728 
L 200.103971 269.32032 
L 200.408436 268.921152 
L 201.169599 268.122816 
L 201.474064 267.856704 
L 201.778529 267.634944 
L 201.930762 267.457536 
L 202.082994 267.457536 
L 202.38746 267.058368 
L 203.300855 266.082624 
L 204.21425 265.5504 
L 205.127646 264.308544 
L 205.432111 264.131136 
L 205.888808 263.865024 
L 206.497739 263.155392 
L 206.954436 262.623168 
L 207.258902 262.357056 
L 207.411134 262.312704 
L 208.020064 261.603072 
L 208.93346 260.627328 
L 209.237925 260.44992 
L 209.846855 259.56288 
L 209.999088 259.56288 
L 210.912483 258.67584 
L 211.369181 258.187968 
L 211.521413 258.099264 
L 211.978111 257.56704 
L 212.587041 256.90176 
L 212.891506 256.635648 
L 213.043739 256.591296 
L 213.804902 255.5712 
L 213.957134 255.5712 
L 214.413832 254.994624 
L 214.718297 254.90592 
L 215.022762 254.639808 
L 215.327227 254.063232 
L 215.47946 253.974528 
L 215.783925 253.57536 
L 216.08839 253.531008 
L 216.849553 252.510912 
L 217.001786 252.46656 
L 217.610716 251.756928 
L 217.915181 251.668224 
L 218.371879 250.869888 
L 218.524111 250.825536 
L 218.980809 250.426368 
L 219.285274 250.24896 
L 219.894204 249.406272 
L 220.655367 248.652288 
L 220.959832 248.386176 
L 221.720995 247.58784 
L 222.482158 246.745152 
L 239.83667 246.656448 
L 240.293368 246.612096 
L 242.576856 246.523392 
L 243.033554 246.47904 
L 245.16481 246.390336 
L 245.925972 246.25728 
L 248.057228 246.168576 
L 249.427321 245.858112 
L 251.10188 245.81376 
L 251.558577 245.636352 
L 253.842066 245.547648 
L 254.298763 245.37024 
L 254.907694 245.281536 
L 256.277787 245.192832 
L 257.343415 244.971072 
L 258.86574 244.882368 
L 259.47467 244.793664 
L 260.388066 244.749312 
L 260.692531 244.616256 
L 261.301461 244.571904 
L 261.605926 244.4832 
L 263.58495 244.394496 
L 264.498345 244.217088 
L 265.259508 244.172736 
L 265.563973 244.084032 
L 266.477368 243.995328 
L 267.695229 243.729216 
L 268.608624 243.640512 
L 269.369787 243.507456 
L 269.674252 243.418752 
L 270.435415 243.285696 
L 271.805508 243.196992 
L 272.566671 242.886528 
L 272.871136 242.797824 
L 274.850159 242.70912 
L 275.154624 242.531712 
L 275.306857 242.354304 
L 276.06802 242.2656 
L 276.67695 242.176896 
L 277.742578 242.088192 
L 277.89481 241.910784 
L 278.351508 241.82208 
L 279.264904 241.644672 
L 280.026066 241.60032 
L 280.634997 241.334208 
L 281.243927 241.245504 
L 282.309555 241.023744 
L 282.61402 241.023744 
L 282.918485 240.846336 
L 283.375183 240.801984 
L 284.136346 240.71328 
L 284.440811 240.580224 
L 285.049741 240.580224 
L 285.354206 240.358464 
L 285.810904 240.26976 
L 286.419834 240.181056 
L 287.485462 240.092352 
L 288.55109 239.693184 
L 288.855555 239.60448 
L 289.76895 239.515776 
L 292.052439 238.9392 
L 292.813602 238.850496 
L 293.118067 238.761792 
L 295.401555 238.185216 
L 295.858253 238.140864 
L 296.314951 237.963456 
L 297.076113 237.919104 
L 297.532811 237.564288 
L 298.598439 237.475584 
L 298.902904 237.38688 
L 299.511834 237.298176 
L 299.816299 237.076416 
L 300.729695 236.899008 
L 301.64309 236.810304 
L 302.099788 236.765952 
L 302.404253 236.677248 
L 303.165416 236.322432 
L 304.535509 236.233728 
L 305.448904 235.878912 
L 305.753369 235.790208 
L 306.818997 235.568448 
L 307.884625 235.479744 
L 308.798021 235.16928 
L 308.950253 234.991872 
L 309.406951 234.903168 
L 309.863649 234.858816 
L 310.320346 234.770112 
L 310.777044 234.72576 
L 311.385974 234.681408 
L 311.690439 234.415296 
L 311.994904 234.28224 
L 312.756067 234.237888 
L 313.060532 234.149184 
L 315.496253 233.528256 
L 316.105184 233.439552 
L 318.388672 232.862976 
L 318.997602 232.774272 
L 322.651184 231.798528 
L 323.107882 231.709824 
L 326.304765 230.867136 
L 326.60923 230.778432 
L 329.044951 230.157504 
L 329.501649 230.0688 
L 329.806114 229.980096 
L 330.71951 229.891392 
L 331.480672 229.580928 
L 331.785138 229.447872 
L 332.394068 229.359168 
L 333.307463 229.18176 
L 333.611928 229.093056 
L 334.068626 228.915648 
L 338.331138 227.762496 
L 338.635603 227.718144 
L 339.244533 227.452032 
L 339.548998 227.40768 
L 340.005696 227.18592 
L 341.071324 227.097216 
L 341.528022 226.786752 
L 342.136952 226.7424 
L 342.289184 226.564992 
L 342.593649 226.476288 
L 342.898115 226.387584 
L 343.659277 226.29888 
L 343.963743 226.07712 
L 344.724905 225.988416 
L 345.181603 225.766656 
L 345.638301 225.677952 
L 362.383883 220.887936 
L 362.536115 220.887936 
L 362.992813 220.621824 
L 365.276301 220.045248 
L 365.428534 220.045248 
L 366.037464 219.601728 
L 369.234348 218.670336 
L 369.38658 218.492928 
L 370.147743 218.404224 
L 372.887929 217.561536 
L 373.192395 217.42848 
L 373.649092 217.339776 
L 374.10579 217.162368 
L 374.410255 217.073664 
L 374.71472 216.896256 
L 375.171418 216.851904 
L 375.475883 216.7632 
L 375.628116 216.7632 
L 376.084813 216.497088 
L 379.738395 215.343936 
L 380.04286 215.255232 
L 380.347325 215.21088 
L 380.804023 215.033472 
L 381.717418 214.856064 
L 382.021883 214.811712 
L 382.478581 214.5456 
L 384.762069 213.969024 
L 384.914302 213.969024 
L 385.218767 213.747264 
L 385.97993 213.392448 
L 387.045558 213.170688 
L 387.654488 213.126336 
L 387.958953 212.904576 
L 388.415651 212.815872 
L 389.176814 212.461056 
L 391.003604 211.928832 
L 391.308069 211.66272 
L 392.069232 211.529664 
L 392.678163 211.485312 
L 392.982628 211.307904 
L 393.439325 211.307904 
L 393.74379 210.99744 
L 394.048256 210.77568 
L 394.352721 210.686976 
L 394.961651 210.598272 
L 396.331744 210.154752 
L 396.788442 209.88864 
L 396.940674 209.88864 
L 397.245139 209.711232 
L 399.376395 209.0016 
L 399.528628 208.824192 
L 400.137558 208.735488 
L 400.442023 208.602432 
L 402.116581 208.025856 
L 402.421047 207.804096 
L 402.573279 207.804096 
L 402.877744 207.626688 
L 404.552302 207.094464 
L 404.856768 206.917056 
L 405.161233 206.872704 
L 405.465698 206.650944 
L 405.770163 206.56224 
L 407.596954 205.985664 
L 407.901419 205.808256 
L 409.728209 205.187328 
L 409.880442 205.00992 
L 410.33714 204.921216 
L 411.098303 204.5664 
L 411.707233 204.477696 
L 412.772861 204.12288 
L 413.077326 203.812416 
L 413.381791 203.812416 
L 413.990721 203.413248 
L 414.751884 203.368896 
L 415.056349 203.147136 
L 415.513047 203.058432 
L 416.426442 202.614912 
L 418.253233 201.993984 
L 418.709931 201.816576 
L 419.014396 201.772224 
L 419.623326 201.46176 
L 419.927791 201.417408 
L 420.232256 201.24 
L 421.602349 200.752128 
L 422.21128 200.486016 
L 422.82021 200.397312 
L 423.276908 200.1312 
L 424.494768 199.776384 
L 424.647001 199.598976 
L 425.255931 199.554624 
L 425.560396 199.332864 
L 425.864861 199.155456 
L 426.930489 198.756288 
L 427.234954 198.667584 
L 428.605047 198.224064 
L 428.909512 198.046656 
L 429.518443 197.780544 
L 429.97514 197.558784 
L 430.431838 197.558784 
L 430.888536 197.292672 
L 432.563094 196.8048 
L 432.867559 196.58304 
L 433.172024 196.58304 
L 433.628722 196.316928 
L 433.780954 196.316928 
L 433.933187 196.13952 
L 434.085419 196.13952 
L 434.389885 195.962112 
L 435.759978 195.651648 
L 436.064443 195.607296 
L 437.586768 194.764608 
L 438.043466 194.675904 
L 438.500164 194.631552 
L 438.956861 194.542848 
L 439.565792 194.14368 
L 440.174722 193.877568 
L 440.479187 193.744512 
L 440.63142 193.744512 
L 440.935885 193.611456 
L 441.392582 193.567104 
L 442.153745 193.03488 
L 444.893931 192.192192 
L 445.198397 191.881728 
L 448.090815 190.994688 
L 448.39528 190.728576 
L 449.613141 190.462464 
L 449.917606 190.37376 
L 450.526536 190.063296 
L 450.831001 189.974592 
L 450.983234 189.93024 
L 451.287699 189.70848 
L 451.592164 189.575424 
L 452.048862 189.531072 
L 452.50556 189.353664 
L 453.418955 188.998848 
L 454.027885 188.732736 
L 454.789048 188.510976 
L 455.093513 188.244864 
L 456.463606 187.756992 
L 456.768071 187.579584 
L 457.377002 187.49088 
L 457.681467 187.402176 
L 458.594862 187.04736 
L 459.05156 186.736896 
L 461.639513 185.894208 
L 462.096211 185.539392 
L 462.552909 185.450688 
L 463.009606 185.27328 
L 463.161839 185.27328 
L 463.466304 185.140224 
L 463.923002 185.05152 
L 464.075234 185.007168 
L 464.379699 184.741056 
L 466.81542 183.987072 
L 467.576583 183.454848 
L 468.033281 183.27744 
L 469.098909 183.05568 
L 469.403374 183.011328 
L 471.077932 182.124288 
L 471.53463 182.079936 
L 471.686862 182.079936 
L 471.991328 181.902528 
L 472.448025 181.813824 
L 472.75249 181.636416 
L 473.970351 181.015488 
L 474.274816 181.015488 
L 474.579281 180.882432 
L 475.644909 180.483264 
L 476.253839 180.1728 
L 476.710537 180.084096 
L 477.015002 179.995392 
L 477.319467 179.906688 
L 477.623932 179.684928 
L 478.232863 179.418816 
L 478.385095 179.418816 
L 478.68956 179.241408 
L 480.668584 178.576128 
L 481.581979 178.132608 
L 481.734211 178.132608 
L 482.038677 177.999552 
L 482.495374 177.9552 
L 482.799839 177.777792 
L 483.40877 177.51168 
L 484.62663 176.890752 
L 485.23556 176.8464 
L 485.844491 176.447232 
L 486.148956 176.358528 
L 486.453421 176.225472 
L 487.062351 176.136768 
L 487.975747 175.648896 
L 488.280212 175.560192 
L 488.584677 175.382784 
L 490.259235 174.85056 
L 490.715933 174.584448 
L 491.324863 174.318336 
L 492.086026 173.96352 
L 492.542723 173.874816 
L 494.065049 173.342592 
L 494.673979 172.943424 
L 495.739607 172.721664 
L 496.044072 172.677312 
L 496.50077 172.4112 
L 496.957468 172.18944 
L 497.718631 171.834624 
L 499.545421 171.258048 
L 500.002119 170.991936 
L 500.154352 170.947584 
L 500.306584 170.725824 
L 501.372212 170.63712 
L 502.133375 170.326656 
L 502.43784 170.104896 
L 502.590073 170.104896 
L 503.04677 169.705728 
L 503.351235 169.661376 
L 503.6557 169.572672 
L 504.569096 169.483968 
L 504.721328 169.262208 
L 504.873561 169.262208 
L 505.482491 168.86304 
L 506.091421 168.552576 
L 506.852584 168.463872 
L 507.76598 168.109056 
L 508.070445 167.842944 
L 508.222677 167.798592 
L 508.527142 167.576832 
L 508.98384 167.53248 
L 509.288305 167.443776 
L 510.506166 167.044608 
L 510.810631 166.778496 
L 512.789654 166.246272 
L 513.094119 165.935808 
L 513.550817 165.669696 
L 514.007515 165.669696 
L 514.464212 165.403584 
L 514.768678 165.31488 
L 515.073143 165.270528 
L 516.138771 164.693952 
L 516.595468 164.605248 
L 517.356631 164.250432 
L 517.813329 164.20608 
L 518.270026 163.939968 
L 519.335654 163.5408 
L 519.792352 163.363392 
L 520.096817 163.274688 
L 520.85798 162.919872 
L 521.010213 162.919872 
L 521.314678 162.742464 
L 522.228073 162.387648 
L 522.532538 162.298944 
L 522.837003 162.254592 
L 523.141468 162.077184 
L 523.598166 161.855424 
L 523.902631 161.633664 
L 524.359329 161.589312 
L 524.663794 161.500608 
L 526.033887 161.012736 
L 526.338352 160.790976 
L 526.338352 160.790976 
" style="fill:none;stroke:#1e90ff;stroke-linecap:square;stroke-width:2;"/>
   </g>
   <g id="line2d_17">
    <path clip-path="url(#pa3942de8a1)" d="M 69.792898 339.84 
L 74.816572 339.84 
L 74.968805 339.39648 
L 78.317921 339.39648 
L 78.470154 338.95296 
L 79.992479 338.95296 
L 80.144712 338.50944 
L 81.514805 338.50944 
L 81.667038 338.06592 
L 83.493828 338.06592 
L 83.646061 337.6224 
L 85.625084 337.6224 
L 85.777317 337.17888 
L 87.14741 337.17888 
L 87.299642 336.73536 
L 88.821968 336.73536 
L 88.974201 336.29184 
L 90.496526 336.29184 
L 90.648759 335.84832 
L 91.257689 335.84832 
L 91.409922 335.4048 
L 92.780015 335.4048 
L 92.932247 334.96128 
L 93.845643 334.96128 
L 93.997875 334.51776 
L 94.454573 334.51776 
L 94.759038 333.63072 
L 95.976898 333.63072 
L 96.129131 333.1872 
L 96.585829 333.1872 
L 96.890294 332.30016 
L 97.803689 332.30016 
L 97.955922 331.85664 
L 98.564852 331.85664 
L 98.717085 331.41312 
L 98.869317 331.41312 
L 99.02155 330.9696 
L 99.326015 330.9696 
L 99.478247 330.08256 
L 100.391643 330.08256 
L 100.696108 329.19552 
L 101.000573 329.19552 
L 101.152806 328.752 
L 101.305038 328.752 
L 101.609503 327.86496 
L 102.066201 327.86496 
L 102.218434 327.42144 
L 102.827364 327.42144 
L 102.979596 326.97792 
L 103.131829 326.97792 
L 103.284061 326.5344 
L 103.436294 326.5344 
L 103.588527 326.09088 
L 103.892992 326.09088 
L 104.045224 325.64736 
L 104.349689 325.64736 
L 104.501922 325.20384 
L 104.806387 325.20384 
L 104.95862 324.76032 
L 105.110852 323.87328 
L 105.56755 323.87328 
L 105.719782 323.42976 
L 106.17648 323.42976 
L 106.328713 322.98624 
L 106.633178 322.98624 
L 106.78541 322.54272 
L 106.937643 321.65568 
L 107.089876 321.65568 
L 107.242108 321.21216 
L 107.698806 321.21216 
L 107.851038 320.76864 
L 108.307736 320.76864 
L 108.612201 319.8816 
L 108.764434 318.99456 
L 109.221131 318.99456 
L 109.373364 318.55104 
L 109.982294 318.55104 
L 110.134527 318.10752 
L 110.286759 317.22048 
L 110.438992 317.22048 
L 110.591224 316.77696 
L 111.352387 316.77696 
L 111.961318 315.00288 
L 112.11355 315.00288 
L 112.265783 314.55936 
L 112.874713 314.55936 
L 113.026945 314.11584 
L 113.179178 314.11584 
L 113.331411 313.67232 
L 113.483643 312.78528 
L 113.635876 312.78528 
L 113.788108 312.34176 
L 114.397039 312.34176 
L 114.549271 311.89824 
L 114.701504 311.89824 
L 114.853736 311.45472 
L 115.005969 310.56768 
L 115.462666 310.56768 
L 115.614899 310.12416 
L 116.223829 310.12416 
L 116.376062 309.68064 
L 116.680527 308.35008 
L 117.289457 308.35008 
L 117.44169 307.90656 
L 117.746155 307.90656 
L 118.355085 306.13248 
L 119.116248 306.13248 
L 119.26848 305.68896 
L 119.420713 305.68896 
L 119.877411 304.3584 
L 120.029643 304.3584 
L 120.181876 303.91488 
L 120.638574 303.91488 
L 120.790806 303.47136 
L 120.943039 303.47136 
L 121.095271 303.02784 
L 121.399736 303.02784 
L 121.551969 302.58432 
L 121.704201 302.58432 
L 121.856434 302.1408 
L 122.008667 302.1408 
L 122.313132 301.25376 
L 122.465364 301.25376 
L 122.617597 300.81024 
L 123.226527 300.81024 
L 123.37876 300.36672 
L 123.683225 300.36672 
L 124.292155 298.59264 
L 124.748853 298.59264 
L 124.901085 298.14912 
L 125.20555 298.14912 
L 125.357783 297.7056 
L 125.510016 297.7056 
L 125.814481 296.37504 
L 126.423411 296.37504 
L 126.575643 295.93152 
L 127.032341 295.93152 
L 127.641271 294.15744 
L 127.945737 294.15744 
L 128.097969 293.71392 
L 128.554667 293.71392 
L 128.706899 293.2704 
L 128.859132 293.2704 
L 129.011364 292.82688 
L 129.163597 291.93984 
L 129.772527 291.93984 
L 129.92476 291.49632 
L 130.076992 291.49632 
L 130.229225 291.0528 
L 130.53369 291.0528 
L 130.685923 290.16576 
L 131.294853 290.16576 
L 131.447085 289.72224 
L 131.751551 289.72224 
L 131.903783 289.27872 
L 132.056016 289.27872 
L 132.208248 288.39168 
L 132.360481 288.39168 
L 132.512713 287.94816 
L 132.817179 287.94816 
L 132.969411 287.50464 
L 133.273876 287.50464 
L 133.426109 287.06112 
L 133.578341 287.06112 
L 133.730574 286.6176 
L 133.882806 286.6176 
L 134.035039 285.73056 
L 134.339504 285.73056 
L 134.491737 285.28704 
L 134.796202 285.28704 
L 134.948434 284.84352 
L 135.2529 284.84352 
L 135.557365 283.95648 
L 135.709597 283.95648 
L 135.86183 283.51296 
L 136.318527 283.51296 
L 136.47076 283.06944 
L 136.622993 283.06944 
L 136.775225 282.62592 
L 137.07969 282.62592 
L 137.384155 281.29536 
L 137.993086 281.29536 
L 138.297551 280.40832 
L 138.602016 280.40832 
L 138.906481 279.52128 
L 139.363179 279.52128 
L 139.667644 278.63424 
L 139.819876 278.63424 
L 139.972109 278.19072 
L 140.124342 278.19072 
L 140.276574 277.7472 
L 140.428807 277.7472 
L 140.581039 277.30368 
L 141.037737 277.30368 
L 141.189969 276.86016 
L 141.342202 276.86016 
L 141.494435 276.41664 
L 141.7989 276.41664 
L 142.103365 275.5296 
L 142.864528 275.5296 
L 143.01676 274.64256 
L 143.168993 274.64256 
L 143.473458 273.75552 
L 144.082388 273.75552 
L 144.234621 273.312 
L 144.691318 273.312 
L 144.843551 272.86848 
L 144.995784 272.86848 
L 145.300249 271.53792 
L 145.604714 271.53792 
L 145.756946 271.0944 
L 146.213644 271.0944 
L 146.365877 270.65088 
L 146.670342 270.65088 
L 146.974807 269.32032 
L 147.279272 269.32032 
L 147.431505 268.8768 
L 147.73597 268.8768 
L 147.888202 268.43328 
L 148.192667 268.43328 
L 148.3449 267.54624 
L 148.649365 267.54624 
L 148.801598 267.10272 
L 149.106063 267.10272 
L 149.258295 266.6592 
L 149.867226 266.6592 
L 150.019458 266.21568 
L 150.171691 266.21568 
L 150.476156 265.32864 
L 150.628388 265.32864 
L 150.780621 264.88512 
L 150.932853 264.88512 
L 151.085086 264.4416 
L 151.389551 264.4416 
L 151.541784 263.99808 
L 151.694016 263.99808 
L 151.846249 263.55456 
L 151.998481 263.55456 
L 152.150714 263.11104 
L 152.455179 263.11104 
L 152.607412 262.66752 
L 152.759644 262.66752 
L 153.064109 261.78048 
L 153.216342 261.78048 
L 153.368574 261.33696 
L 153.977505 261.33696 
L 154.129737 260.89344 
L 154.28197 260.89344 
L 154.8909 259.11936 
L 155.804295 259.11936 
L 156.413226 257.34528 
L 156.717691 257.34528 
L 156.869923 256.90176 
L 157.478854 256.90176 
L 157.783319 256.01472 
L 157.935551 256.01472 
L 158.392249 254.68416 
L 159.001179 254.68416 
L 159.305644 253.79712 
L 159.61011 253.79712 
L 159.914575 252.46656 
L 160.523505 252.46656 
L 160.82797 251.57952 
L 161.132435 251.57952 
L 161.284668 251.136 
L 161.4369 250.24896 
L 162.045831 250.24896 
L 162.350296 249.36192 
L 162.806993 249.36192 
L 162.959226 248.03136 
L 163.568156 248.03136 
L 163.872621 247.14432 
L 164.329319 247.14432 
L 164.481552 246.7008 
L 164.938249 246.7008 
L 165.090482 246.25728 
L 165.242714 246.25728 
L 165.394947 245.81376 
L 165.699412 245.81376 
L 165.851645 245.37024 
L 166.003877 244.4832 
L 166.460575 244.4832 
L 166.612807 244.03968 
L 166.917273 244.03968 
L 167.069505 243.59616 
L 167.221738 243.59616 
L 167.526203 242.70912 
L 167.830668 242.70912 
L 168.135133 241.82208 
L 168.439598 241.82208 
L 168.591831 241.37856 
L 168.896296 241.37856 
L 169.200761 240.49152 
L 169.657459 240.49152 
L 169.809691 240.048 
L 169.961924 240.048 
L 170.114156 239.60448 
L 170.418621 239.60448 
L 170.570854 238.71744 
L 171.332017 238.71744 
L 171.636482 237.38688 
L 171.940947 237.38688 
L 172.09318 236.94336 
L 172.549877 236.94336 
L 172.70211 236.49984 
L 173.158808 236.49984 
L 173.463273 235.16928 
L 174.072203 235.16928 
L 174.224436 234.72576 
L 174.376668 234.72576 
L 174.528901 234.28224 
L 174.833366 234.28224 
L 174.985598 233.83872 
L 175.442296 233.83872 
L 175.594529 232.95168 
L 176.051226 232.95168 
L 176.507924 231.62112 
L 177.269087 231.62112 
L 177.421319 230.73408 
L 177.573552 230.73408 
L 177.725784 230.29056 
L 178.03025 230.29056 
L 178.334715 229.40352 
L 178.791412 229.40352 
L 179.095878 228.51648 
L 179.400343 228.51648 
L 179.704808 227.62944 
L 180.009273 227.62944 
L 180.161505 227.18592 
L 180.465971 227.18592 
L 180.770436 226.29888 
L 180.922668 226.29888 
L 181.074901 225.85536 
L 181.531599 225.85536 
L 181.683831 224.96832 
L 181.988296 224.96832 
L 182.140529 224.5248 
L 182.444994 224.5248 
L 182.597226 224.08128 
L 182.749459 224.08128 
L 182.901692 223.63776 
L 183.053924 223.63776 
L 183.206157 222.75072 
L 183.662854 222.75072 
L 183.815087 222.3072 
L 183.96732 222.3072 
L 184.119552 221.86368 
L 184.271785 221.86368 
L 184.424017 221.42016 
L 184.728482 221.42016 
L 185.032947 220.53312 
L 185.489645 220.53312 
L 185.641878 220.0896 
L 185.79411 220.0896 
L 185.946343 219.64608 
L 186.098575 219.64608 
L 186.403041 218.75904 
L 187.011971 218.75904 
L 187.164203 218.31552 
L 187.316436 218.31552 
L 187.468668 217.42848 
L 187.620901 217.42848 
L 187.925366 216.54144 
L 188.838762 216.54144 
L 188.990994 216.09792 
L 189.143227 216.09792 
L 189.447692 215.21088 
L 189.752157 215.21088 
L 190.056622 214.32384 
L 190.665552 214.32384 
L 190.817785 213.88032 
L 190.970017 213.88032 
L 191.426715 212.54976 
L 191.73118 212.54976 
L 191.883413 212.10624 
L 192.492343 212.10624 
L 192.796808 211.2192 
L 192.949041 210.33216 
L 193.253506 210.33216 
L 193.405738 209.88864 
L 194.166901 209.88864 
L 194.471366 208.11456 
L 195.080297 208.11456 
L 195.232529 207.67104 
L 195.841459 207.67104 
L 196.145924 205.89696 
L 197.363785 205.89696 
L 197.516018 205.45344 
L 197.820483 203.67936 
L 199.038343 203.67936 
L 199.190576 203.23584 
L 199.342808 201.90528 
L 199.647273 201.90528 
L 199.799506 201.46176 
L 200.560669 201.46176 
L 200.712901 201.01824 
L 200.865134 199.68768 
L 201.321832 199.68768 
L 201.474064 199.24416 
L 202.082994 199.24416 
L 202.235227 198.80064 
L 202.38746 198.80064 
L 202.539692 197.9136 
L 202.691925 197.9136 
L 202.844157 197.47008 
L 203.148622 197.47008 
L 203.300855 197.02656 
L 203.909785 197.02656 
L 204.062018 196.58304 
L 204.21425 196.58304 
L 204.366483 196.13952 
L 204.518715 195.25248 
L 204.670948 195.25248 
L 204.823181 194.80896 
L 205.736576 194.80896 
L 205.888808 194.36544 
L 206.193274 193.03488 
L 206.497739 193.03488 
L 206.649971 192.59136 
L 207.258902 192.59136 
L 207.411134 192.14784 
L 207.563367 192.14784 
L 207.867832 190.81728 
L 208.020064 190.81728 
L 208.172297 190.37376 
L 208.781227 190.37376 
L 208.93346 189.93024 
L 209.085692 189.93024 
L 209.694623 188.15616 
L 210.608018 188.15616 
L 210.76025 187.71264 
L 210.912483 187.71264 
L 211.064716 187.26912 
L 211.216948 186.38208 
L 211.521413 186.38208 
L 211.673646 185.93856 
L 212.434809 185.93856 
L 212.891506 184.608 
L 213.043739 184.608 
L 213.195971 183.72096 
L 213.957134 183.72096 
L 214.109367 183.27744 
L 214.566065 183.27744 
L 214.87053 181.94688 
L 215.631692 181.94688 
L 215.783925 181.50336 
L 216.08839 181.50336 
L 216.392855 179.72928 
L 217.458483 179.72928 
L 217.610716 179.28576 
L 217.762948 179.28576 
L 218.067413 177.9552 
L 218.219646 177.9552 
L 218.371879 177.51168 
L 219.285274 177.51168 
L 219.589739 176.18112 
L 219.741972 176.18112 
L 219.894204 175.29408 
L 220.8076 175.29408 
L 221.264297 173.96352 
L 221.41653 173.07648 
L 239.684437 173.07648 
L 239.83667 172.63296 
L 246.230438 172.63296 
L 246.38267 172.18944 
L 249.884019 172.18944 
L 250.036252 171.74592 
L 252.776438 171.74592 
L 252.92867 171.3024 
L 255.212159 171.3024 
L 255.516624 170.41536 
L 257.952345 170.41536 
L 258.104577 169.97184 
L 258.561275 169.97184 
L 258.713508 169.52832 
L 260.996996 169.52832 
L 261.149229 169.0848 
L 261.453694 169.0848 
L 261.605926 168.64128 
L 263.889415 168.64128 
L 264.041647 167.75424 
L 266.629601 167.75424 
L 266.781833 167.31072 
L 266.934066 167.31072 
L 267.086299 166.8672 
L 269.217554 166.8672 
L 269.369787 166.42368 
L 271.653275 166.42368 
L 271.805508 165.98016 
L 272.262206 165.98016 
L 272.414438 165.53664 
L 274.545694 165.53664 
L 274.850159 164.6496 
L 276.981415 164.6496 
L 277.133648 164.20608 
L 277.438113 164.20608 
L 277.590345 163.76256 
L 277.89481 163.76256 
L 278.047043 163.31904 
L 279.417136 163.31904 
L 279.721601 162.432 
L 280.178299 162.432 
L 280.330531 161.98848 
L 281.852857 161.98848 
L 282.00509 161.54496 
L 282.918485 161.54496 
L 283.070718 160.65792 
L 284.745276 160.65792 
L 284.897508 160.2144 
L 285.049741 160.2144 
L 285.201973 159.77088 
L 285.354206 159.77088 
L 285.506439 159.32736 
L 285.810904 159.32736 
L 285.963136 158.88384 
L 287.180997 158.88384 
L 287.333229 158.44032 
L 287.789927 158.44032 
L 288.094392 157.55328 
L 289.16002 157.55328 
L 289.312253 157.10976 
L 289.616718 157.10976 
L 289.76895 156.22272 
L 290.377881 156.22272 
L 290.530113 155.7792 
L 291.291276 155.7792 
L 291.443509 155.33568 
L 292.356904 155.33568 
L 292.509136 154.89216 
L 292.813602 154.89216 
L 293.118067 154.00512 
L 294.031462 154.00512 
L 294.183695 153.11808 
L 295.553788 153.11808 
L 295.858253 152.23104 
L 296.619416 152.23104 
L 296.771648 151.78752 
L 297.076113 151.78752 
L 297.228346 151.344 
L 297.380578 151.344 
L 297.532811 150.90048 
L 297.989509 150.90048 
L 298.293974 150.01344 
L 299.359602 150.01344 
L 299.511834 149.56992 
L 300.272997 149.56992 
L 300.42523 149.1264 
L 300.577462 149.1264 
L 300.881927 147.79584 
L 302.099788 147.79584 
L 302.25202 147.35232 
L 303.317648 147.35232 
L 303.469881 146.02176 
L 304.535509 146.02176 
L 304.687741 145.57824 
L 304.839974 145.57824 
L 304.992207 145.13472 
L 306.057835 145.13472 
L 306.514532 143.80416 
L 307.58016 143.80416 
L 307.732393 143.36064 
L 308.341323 143.36064 
L 308.493556 142.91712 
L 308.645788 142.91712 
L 308.950253 142.03008 
L 309.254718 142.03008 
L 309.406951 141.58656 
L 310.929277 141.58656 
L 311.081509 141.14304 
L 311.233742 141.14304 
L 311.538207 140.256 
L 312.29937 140.256 
L 312.451602 139.36896 
L 313.821695 139.36896 
L 314.12616 138.48192 
L 314.278393 138.48192 
L 314.430625 138.0384 
L 315.039556 138.0384 
L 315.191788 137.59488 
L 315.800719 137.59488 
L 315.952951 137.15136 
L 316.561881 137.15136 
L 316.714114 136.70784 
L 317.018579 136.70784 
L 317.323044 135.8208 
L 317.779742 135.8208 
L 317.931974 135.37728 
L 318.540905 135.37728 
L 318.693137 134.93376 
L 319.302067 134.93376 
L 319.4543 134.49024 
L 319.910998 134.49024 
L 320.06323 133.6032 
L 320.824393 133.6032 
L 320.976626 133.15968 
L 321.585556 133.15968 
L 321.737788 132.71616 
L 322.194486 132.71616 
L 322.346719 132.27264 
L 322.651184 132.27264 
L 322.803416 131.82912 
L 322.955649 131.82912 
L 323.107882 131.3856 
L 323.260114 131.3856 
L 323.412347 130.94208 
L 324.477975 130.94208 
L 324.630207 130.49856 
L 324.78244 130.49856 
L 324.934672 130.05504 
L 325.695835 130.05504 
L 326.0003 128.72448 
L 327.218161 128.72448 
L 327.370393 127.83744 
L 328.436021 127.83744 
L 328.588254 126.9504 
L 329.349417 126.9504 
L 329.501649 126.50688 
L 329.653882 126.50688 
L 329.806114 126.06336 
L 330.415045 126.06336 
L 330.567277 125.61984 
L 331.480672 125.61984 
L 331.632905 124.7328 
L 332.241835 124.7328 
L 332.394068 124.28928 
L 332.698533 124.28928 
L 332.850766 123.84576 
L 333.459696 123.84576 
L 333.611928 123.40224 
L 334.220859 123.40224 
L 334.373091 122.95872 
L 334.525324 122.95872 
L 334.677556 122.5152 
L 334.982021 122.5152 
L 335.134254 122.07168 
L 335.438719 122.07168 
L 335.590952 121.62816 
L 336.199882 121.62816 
L 336.352114 121.18464 
L 336.961045 121.18464 
L 337.113277 120.74112 
L 337.417742 120.74112 
L 337.569975 119.85408 
L 338.787835 119.85408 
L 338.940068 119.41056 
L 339.548998 119.41056 
L 339.701231 118.96704 
L 339.853463 118.96704 
L 340.005696 118.52352 
L 340.157928 118.52352 
L 340.310161 118.08 
L 340.462394 118.08 
L 340.614626 117.63648 
L 341.528022 117.63648 
L 341.680254 117.19296 
L 342.289184 117.19296 
L 342.441417 116.74944 
L 342.898115 116.74944 
L 343.050347 116.30592 
L 343.20258 116.30592 
L 343.354812 115.8624 
L 343.81151 115.8624 
L 343.963743 115.41888 
L 344.268208 115.41888 
L 344.42044 114.97536 
L 345.486068 114.97536 
L 345.638301 114.53184 
L 345.790533 114.53184 
L 345.942766 113.6448 
L 346.247231 113.6448 
L 346.399464 113.20128 
L 348.226254 113.20128 
L 348.378487 112.75776 
L 348.530719 112.75776 
L 348.682952 112.31424 
L 348.835185 111.4272 
L 348.987417 111.4272 
L 349.13965 110.98368 
L 351.118673 110.98368 
L 351.270906 110.09664 
L 351.575371 110.09664 
L 351.727603 109.65312 
L 351.879836 109.65312 
L 352.184301 108.76608 
L 353.554394 108.76608 
L 353.858859 107.87904 
L 354.315557 107.87904 
L 354.467789 107.43552 
L 354.772254 107.43552 
L 354.924487 106.992 
L 355.07672 106.992 
L 355.228952 106.54848 
L 356.142348 106.54848 
L 356.29458 106.10496 
L 356.599045 106.10496 
L 356.90351 105.21792 
L 358.121371 105.21792 
L 358.273603 104.7744 
L 358.578069 104.7744 
L 358.730301 104.33088 
L 358.882534 104.33088 
L 359.186999 103.44384 
L 359.339231 103.44384 
L 359.491464 103.00032 
L 360.861557 103.00032 
L 361.01379 102.5568 
L 361.166022 102.5568 
L 361.318255 102.11328 
L 361.470487 102.11328 
L 361.62272 101.66976 
L 361.774952 101.66976 
L 362.079417 100.78272 
L 363.906208 100.78272 
L 364.058441 100.3392 
L 364.210673 100.3392 
L 364.515138 99.00864 
L 365.885232 99.00864 
L 366.037464 98.56512 
L 366.646394 98.56512 
L 366.798627 97.67808 
L 366.950859 97.67808 
L 367.103092 96.79104 
L 369.234348 96.79104 
L 369.691046 95.46048 
L 370.147743 95.46048 
L 370.452208 94.57344 
L 371.974534 94.57344 
L 372.126767 94.12992 
L 372.278999 94.12992 
L 372.583464 93.24288 
L 372.735697 93.24288 
L 372.887929 92.79936 
L 373.344627 92.79936 
L 373.49686 92.35584 
L 375.475883 92.35584 
L 375.628116 91.91232 
L 375.780348 91.91232 
L 375.932581 91.4688 
L 376.084813 91.4688 
L 376.237046 91.02528 
L 376.389278 91.02528 
L 376.541511 90.58176 
L 376.693743 90.58176 
L 376.845976 90.13824 
L 378.216069 90.13824 
L 378.520534 89.2512 
L 378.824999 89.2512 
L 378.977232 88.80768 
L 379.43393 88.80768 
L 379.586162 87.92064 
L 380.804023 87.92064 
L 381.108488 87.0336 
L 382.174116 87.0336 
L 382.630813 85.70304 
L 383.391976 85.70304 
L 383.544209 85.25952 
L 384.153139 85.25952 
L 384.305372 84.816 
L 384.762069 84.816 
L 384.914302 84.37248 
L 385.066534 84.37248 
L 385.218767 83.92896 
L 385.675465 83.92896 
L 385.827697 83.48544 
L 385.97993 83.48544 
L 386.132162 83.04192 
L 387.045558 83.04192 
L 387.19779 82.5984 
L 387.806721 82.5984 
L 387.958953 82.15488 
L 388.415651 82.15488 
L 388.567883 81.71136 
L 388.720116 81.71136 
L 389.024581 80.82432 
L 389.785744 80.82432 
L 389.937976 80.3808 
L 390.546907 80.3808 
L 390.699139 79.93728 
L 390.851372 79.93728 
L 391.003604 79.49376 
L 391.308069 79.49376 
L 391.460302 79.05024 
L 391.612535 79.05024 
L 391.764767 78.60672 
L 392.221465 78.60672 
L 392.373697 78.1632 
L 393.287093 78.1632 
L 393.439325 77.71968 
L 394.048256 77.71968 
L 394.200488 76.83264 
L 394.657186 76.83264 
L 394.809418 76.38912 
L 395.113884 76.38912 
L 395.266116 75.9456 
L 395.722814 75.9456 
L 395.875046 75.50208 
L 396.788442 75.50208 
L 396.940674 75.05856 
L 397.245139 75.05856 
L 397.397372 74.61504 
L 397.701837 74.61504 
L 397.85407 74.17152 
L 398.158535 74.17152 
L 398.463 73.28448 
L 399.528628 73.28448 
L 399.68086 72.84096 
L 400.289791 72.84096 
L 400.442023 72.39744 
L 400.746488 72.39744 
L 401.050953 71.5104 
L 401.203186 71.5104 
L 401.355419 71.06688 
L 401.964349 71.06688 
L 402.116581 70.62336 
L 403.334442 70.62336 
L 403.486674 70.17984 
L 403.638907 70.17984 
L 403.79114 69.2928 
L 404.247837 69.2928 
L 404.40007 68.84928 
L 404.704535 68.84928 
L 404.856768 68.40576 
L 406.379093 68.40576 
L 406.531326 67.96224 
L 406.988023 67.96224 
L 407.292488 66.63168 
L 407.444721 66.63168 
L 407.596954 66.18816 
L 409.423744 66.18816 
L 409.575977 65.74464 
L 409.728209 65.74464 
L 410.032675 64.8576 
L 410.184907 64.8576 
L 410.33714 64.41408 
L 411.250535 64.41408 
L 411.402768 63.97056 
L 412.16393 63.97056 
L 412.468396 63.08352 
L 412.925093 63.08352 
L 413.229558 62.19648 
L 413.990721 62.19648 
L 414.142954 61.75296 
L 414.599651 61.75296 
L 414.751884 61.30944 
L 415.665279 61.30944 
L 415.817512 60.86592 
L 415.969745 60.86592 
L 416.121977 60.4224 
L 416.27421 60.4224 
L 416.426442 59.97888 
L 416.88314 59.97888 
L 417.035372 59.53536 
L 417.187605 59.53536 
L 417.339838 59.09184 
L 418.405466 59.09184 
L 418.557698 58.64832 
L 418.709931 58.64832 
L 418.862163 58.2048 
L 419.318861 58.2048 
L 419.471093 57.76128 
L 419.927791 57.76128 
L 420.080024 57.31776 
L 420.232256 57.31776 
L 420.384489 56.87424 
L 420.841187 56.87424 
L 420.993419 56.43072 
L 421.297884 56.43072 
L 421.450117 55.9872 
L 422.667977 55.9872 
L 422.82021 55.54368 
L 422.972442 55.54368 
L 423.276908 54.65664 
L 423.733605 54.65664 
L 424.03807 53.7696 
L 425.712629 53.7696 
L 425.864861 53.32608 
L 426.017094 53.32608 
L 426.169326 52.88256 
L 426.473791 52.88256 
L 426.778256 51.99552 
L 428.14835 51.99552 
L 428.300582 51.10848 
L 428.75728 51.10848 
L 428.909512 50.66496 
L 429.36621 50.66496 
L 429.518443 50.22144 
L 429.670675 50.22144 
L 429.822908 49.77792 
L 430.584071 49.77792 
L 430.736303 49.3344 
L 431.649698 49.3344 
L 431.801931 48.89088 
L 432.106396 48.89088 
L 432.563094 47.56032 
L 433.172024 47.56032 
L 433.324257 47.1168 
L 434.542117 47.1168 
L 434.846582 46.22976 
L 434.998815 46.22976 
L 435.151047 45.78624 
L 435.607745 45.78624 
L 435.759978 45.34272 
L 436.064443 45.34272 
L 436.216675 44.8992 
L 436.977838 44.8992 
L 437.130071 44.45568 
L 437.586768 44.45568 
L 437.891234 43.56864 
L 438.195699 43.56864 
L 438.347931 43.12512 
L 438.956861 43.12512 
L 439.109094 42.6816 
L 439.718024 42.6816 
L 439.870257 42.23808 
L 440.022489 42.23808 
L 440.174722 41.79456 
L 440.63142 41.79456 
L 440.783652 41.35104 
L 441.697048 41.35104 
L 441.84928 40.90752 
L 442.001513 40.90752 
L 442.153745 40.464 
L 442.305978 40.464 
L 442.45821 40.02048 
L 442.762676 40.02048 
L 442.914908 39.57696 
L 444.285001 39.57696 
L 444.437234 39.13344 
L 444.589466 38.2464 
L 444.893931 38.2464 
L 445.046164 37.80288 
L 445.198397 37.80288 
L 445.350629 37.35936 
L 446.720722 37.35936 
L 447.025187 36.47232 
L 447.329652 36.47232 
L 447.481885 36.0288 
L 447.78635 36.0288 
L 447.938583 35.14176 
L 449.460908 35.14176 
L 449.613141 34.69824 
L 450.069839 34.69824 
L 450.526536 33.36768 
L 451.135466 33.36768 
L 451.287699 32.92416 
L 451.896629 32.92416 
L 452.048862 32.48064 
L 452.50556 32.48064 
L 452.810025 31.5936 
L 453.266722 31.5936 
L 453.418955 31.15008 
L 453.875653 31.15008 
L 454.027885 30.70656 
L 454.484583 30.70656 
L 454.636815 30.26304 
L 454.941281 30.26304 
L 455.093513 29.81952 
L 455.397978 29.81952 
L 455.550211 29.376 
L 456.159141 29.376 
L 456.311374 28.93248 
L 456.768071 28.93248 
L 456.920304 28.48896 
L 457.224769 28.48896 
L 457.377002 28.04544 
L 458.138164 28.04544 
L 458.290397 27.1584 
L 459.203792 27.1584 
L 459.356025 26.71488 
L 459.508257 26.71488 
L 459.66049 26.27136 
L 460.26942 26.27136 
L 460.421653 25.82784 
L 460.573885 25.82784 
L 460.726118 25.38432 
L 461.182816 25.38432 
L 461.335048 24.9408 
L 461.791746 24.9408 
L 461.943978 24.49728 
L 463.161839 24.49728 
L 463.314071 24.05376 
L 463.770769 24.05376 
L 464.075234 22.7232 
L 464.531932 22.7232 
L 464.684165 22.27968 
L 465.902025 22.27968 
L 466.054258 21.83616 
L 466.663188 21.83616 
L 466.967653 20.94912 
L 467.119886 20.94912 
L 467.272118 20.5056 
L 467.424351 20.5056 
L 467.576583 20.06208 
L 468.337746 20.06208 
L 468.489979 19.61856 
L 469.098909 19.61856 
L 469.251141 19.17504 
L 469.403374 19.17504 
L 469.555607 18.73152 
L 470.164537 18.73152 
L 470.469002 17.84448 
L 470.773467 17.84448 
L 470.9257 17.40096 
L 472.14356 17.40096 
L 472.295793 16.95744 
L 472.448025 16.95744 
L 472.600258 16.51392 
L 472.904723 16.51392 
L 473.361421 15.18336 
L 474.579281 15.18336 
L 474.731514 14.73984 
L 474.883746 14.73984 
L 475.035979 14.29632 
L 475.340444 14.29632 
L 475.492676 13.8528 
L 475.797142 13.8528 
L 476.101607 12.96576 
L 477.776165 12.96576 
L 477.928397 12.07872 
L 478.08063 12.07872 
L 478.232863 11.6352 
L 478.841793 11.6352 
L 479.146258 10.74816 
L 480.211886 10.74816 
L 480.364118 9.86112 
L 480.668584 9.86112 
L 480.820816 9.4176 
L 481.429746 9.4176 
L 481.581979 8.97408 
L 482.495374 8.97408 
L 482.799839 8.08704 
L 483.104305 8.08704 
L 483.40877 7.2 
L 484.931095 7.2 
L 485.23556 6.31296 
L 485.387793 6.31296 
L 485.540026 5.86944 
L 485.996723 5.86944 
L 486.148956 5.42592 
L 486.605653 5.42592 
L 486.757886 4.9824 
L 487.366816 4.9824 
L 487.671281 4.09536 
L 488.127979 4.09536 
L 488.280212 3.65184 
L 488.736909 3.65184 
L 488.889142 3.20832 
L 489.041374 3.20832 
L 489.193607 2.7648 
L 490.107002 2.7648 
L 490.259235 1.87776 
L 490.5637 1.87776 
L 490.715933 1.43424 
L 491.477095 1.43424 
L 491.629328 0.5472 
L 493.151654 0.5472 
L 493.456119 -0.33984 
L 493.760584 -0.33984 
L 493.987175 -1 
L 493.987175 -1 
" style="fill:none;stroke:#ff0000;stroke-linecap:square;stroke-width:2;"/>
   </g>
   <g id="patch_3">
    <path d="M 46.965625 339.84 
L 46.965625 7.2 
" style="fill:none;stroke:#000000;stroke-linecap:square;stroke-linejoin:miter;stroke-width:0.8;"/>
   </g>
   <g id="patch_4">
    <path d="M 549.165625 339.84 
L 549.165625 7.2 
" style="fill:none;stroke:#000000;stroke-linecap:square;stroke-linejoin:miter;stroke-width:0.8;"/>
   </g>
   <g id="patch_5">
    <path d="M 46.965625 339.84 
L 549.165625 339.84 
" style="fill:none;stroke:#000000;stroke-linecap:square;stroke-linejoin:miter;stroke-width:0.8;"/>
   </g>
   <g id="patch_6">
    <path d="M 46.965625 7.2 
L 549.165625 7.2 
" style="fill:none;stroke:#000000;stroke-linecap:square;stroke-linejoin:miter;stroke-width:0.8;"/>
   </g>
   <g id="legend_1">
    <g id="patch_7">
     <path d="M 53.965625 44.55625 
L 131.914063 44.55625 
Q 133.914063 44.55625 133.914063 42.55625 
L 133.914063 14.2 
Q 133.914063 12.2 131.914063 12.2 
L 53.965625 12.2 
Q 51.965625 12.2 51.965625 14.2 
L 51.965625 42.55625 
Q 51.965625 44.55625 53.965625 44.55625 
z
" style="fill:#ffffff;opacity:0.8;stroke:#cccccc;stroke-linejoin:miter;"/>
    </g>
    <g id="line2d_18">
     <path d="M 55.965625 20.298437 
L 75.965625 20.298437 
" style="fill:none;stroke:#1e90ff;stroke-linecap:square;stroke-width:2;"/>
    </g>
    <g id="line2d_19"/>
    <g id="text_18">
     <!-- Dyna-Q -->
     <defs>
      <path d="M 19.671875 64.796875 
L 19.671875 8.109375 
L 31.59375 8.109375 
Q 46.6875 8.109375 53.6875 14.9375 
Q 60.6875 21.78125 60.6875 36.53125 
Q 60.6875 51.171875 53.6875 57.984375 
Q 46.6875 64.796875 31.59375 64.796875 
z
M 9.8125 72.90625 
L 30.078125 72.90625 
Q 51.265625 72.90625 61.171875 64.09375 
Q 71.09375 55.28125 71.09375 36.53125 
Q 71.09375 17.671875 61.125 8.828125 
Q 51.171875 0 30.078125 0 
L 9.8125 0 
z
" id="DejaVuSans-68"/>
      <path d="M 32.171875 -5.078125 
Q 28.375 -14.84375 24.75 -17.8125 
Q 21.140625 -20.796875 15.09375 -20.796875 
L 7.90625 -20.796875 
L 7.90625 -13.28125 
L 13.1875 -13.28125 
Q 16.890625 -13.28125 18.9375 -11.515625 
Q 21 -9.765625 23.484375 -3.21875 
L 25.09375 0.875 
L 2.984375 54.6875 
L 12.5 54.6875 
L 29.59375 11.921875 
L 46.6875 54.6875 
L 56.203125 54.6875 
z
" id="DejaVuSans-121"/>
      <path d="M 54.890625 33.015625 
L 54.890625 0 
L 45.90625 0 
L 45.90625 32.71875 
Q 45.90625 40.484375 42.875 44.328125 
Q 39.84375 48.1875 33.796875 48.1875 
Q 26.515625 48.1875 22.3125 43.546875 
Q 18.109375 38.921875 18.109375 30.90625 
L 18.109375 0 
L 9.078125 0 
L 9.078125 54.6875 
L 18.109375 54.6875 
L 18.109375 46.1875 
Q 21.34375 51.125 25.703125 53.5625 
Q 30.078125 56 35.796875 56 
Q 45.21875 56 50.046875 50.171875 
Q 54.890625 44.34375 54.890625 33.015625 
z
" id="DejaVuSans-110"/>
      <path d="M 4.890625 31.390625 
L 31.203125 31.390625 
L 31.203125 23.390625 
L 4.890625 23.390625 
z
" id="DejaVuSans-45"/>
      <path d="M 39.40625 66.21875 
Q 28.65625 66.21875 22.328125 58.203125 
Q 16.015625 50.203125 16.015625 36.375 
Q 16.015625 22.609375 22.328125 14.59375 
Q 28.65625 6.59375 39.40625 6.59375 
Q 50.140625 6.59375 56.421875 14.59375 
Q 62.703125 22.609375 62.703125 36.375 
Q 62.703125 50.203125 56.421875 58.203125 
Q 50.140625 66.21875 39.40625 66.21875 
z
M 53.21875 1.3125 
L 66.21875 -12.890625 
L 54.296875 -12.890625 
L 43.5 -1.21875 
Q 41.890625 -1.3125 41.03125 -1.359375 
Q 40.1875 -1.421875 39.40625 -1.421875 
Q 24.03125 -1.421875 14.8125 8.859375 
Q 5.609375 19.140625 5.609375 36.375 
Q 5.609375 53.65625 14.8125 63.9375 
Q 24.03125 74.21875 39.40625 74.21875 
Q 54.734375 74.21875 63.90625 63.9375 
Q 73.09375 53.65625 73.09375 36.375 
Q 73.09375 23.6875 67.984375 14.640625 
Q 62.890625 5.609375 53.21875 1.3125 
z
" id="DejaVuSans-81"/>
     </defs>
     <g transform="translate(83.965625 23.798437)scale(0.1 -0.1)">
      <use xlink:href="#DejaVuSans-68"/>
      <use x="77.001953" xlink:href="#DejaVuSans-121"/>
      <use x="136.181641" xlink:href="#DejaVuSans-110"/>
      <use x="199.560547" xlink:href="#DejaVuSans-97"/>
      <use x="260.839844" xlink:href="#DejaVuSans-45"/>
      <use x="296.970703" xlink:href="#DejaVuSans-81"/>
     </g>
    </g>
    <g id="line2d_20">
     <path d="M 55.965625 34.976562 
L 75.965625 34.976562 
" style="fill:none;stroke:#ff0000;stroke-linecap:square;stroke-width:2;"/>
    </g>
    <g id="line2d_21"/>
    <g id="text_19">
     <!-- Dyna-Q+ -->
     <defs>
      <path d="M 46 62.703125 
L 46 35.5 
L 73.1875 35.5 
L 73.1875 27.203125 
L 46 27.203125 
L 46 0 
L 37.796875 0 
L 37.796875 27.203125 
L 10.59375 27.203125 
L 10.59375 35.5 
L 37.796875 35.5 
L 37.796875 62.703125 
z
" id="DejaVuSans-43"/>
     </defs>
     <g transform="translate(83.965625 38.476562)scale(0.1 -0.1)">
      <use xlink:href="#DejaVuSans-68"/>
      <use x="77.001953" xlink:href="#DejaVuSans-121"/>
      <use x="136.181641" xlink:href="#DejaVuSans-110"/>
      <use x="199.560547" xlink:href="#DejaVuSans-97"/>
      <use x="260.839844" xlink:href="#DejaVuSans-45"/>
      <use x="296.970703" xlink:href="#DejaVuSans-81"/>
      <use x="375.681641" xlink:href="#DejaVuSans-43"/>
     </g>
    </g>
   </g>
  </g>
 </g>
 <defs>
  <clipPath id="pa3942de8a1">
   <rect height="332.64" width="502.2" x="46.965625" y="7.2"/>
  </clipPath>
 </defs>
</svg>
