<?xml version="1.0" encoding="utf-8" standalone="no"?>
<!DOCTYPE svg PUBLIC "-//W3C//DTD SVG 1.1//EN"
  "http://www.w3.org/Graphics/SVG/1.1/DTD/svg11.dtd">
<!-- Created with matplotlib (https://matplotlib.org/) -->
<svg height="329.577344pt" version="1.1" viewBox="0 0 559.536719 329.577344" width="559.536719pt" xmlns="http://www.w3.org/2000/svg" xmlns:xlink="http://www.w3.org/1999/xlink">
 <defs>
  <style type="text/css">
*{stroke-linecap:butt;stroke-linejoin:round;}
  </style>
 </defs>
 <g id="figure_1">
  <g id="patch_1">
   <path d="M 0 329.577344 
L 559.536719 329.577344 
L 559.536719 0 
L 0 0 
z
" style="fill:#ffffff;"/>
  </g>
  <g id="axes_1">
   <g id="patch_2">
    <path d="M 43.78125 288.199219 
L 545.98125 288.199219 
L 545.98125 10.999219 
L 43.78125 10.999219 
z
" style="fill:#ffffff;"/>
   </g>
   <g id="matplotlib.axis_1">
    <g id="xtick_1">
     <g id="line2d_1">
      <defs>
       <path d="M 0 0 
L 0 3.5 
" id="mdb8b89fa21" style="stroke:#000000;stroke-width:0.8;"/>
      </defs>
      <g>
       <use style="stroke:#000000;stroke-width:0.8;" x="46.279757" xlink:href="#mdb8b89fa21" y="288.199219"/>
      </g>
     </g>
     <g id="text_1">
      <!-- 0 -->
      <defs>
       <path d="M 31.78125 66.40625 
Q 24.171875 66.40625 20.328125 58.90625 
Q 16.5 51.421875 16.5 36.375 
Q 16.5 21.390625 20.328125 13.890625 
Q 24.171875 6.390625 31.78125 6.390625 
Q 39.453125 6.390625 43.28125 13.890625 
Q 47.125 21.390625 47.125 36.375 
Q 47.125 51.421875 43.28125 58.90625 
Q 39.453125 66.40625 31.78125 66.40625 
z
M 31.78125 74.21875 
Q 44.046875 74.21875 50.515625 64.515625 
Q 56.984375 54.828125 56.984375 36.375 
Q 56.984375 17.96875 50.515625 8.265625 
Q 44.046875 -1.421875 31.78125 -1.421875 
Q 19.53125 -1.421875 13.0625 8.265625 
Q 6.59375 17.96875 6.59375 36.375 
Q 6.59375 54.828125 13.0625 64.515625 
Q 19.53125 74.21875 31.78125 74.21875 
z
" id="DejaVuSans-48"/>
      </defs>
      <g transform="translate(43.098507 302.797656)scale(0.1 -0.1)">
       <use xlink:href="#DejaVuSans-48"/>
      </g>
     </g>
    </g>
    <g id="xtick_2">
     <g id="line2d_2">
      <g>
       <use style="stroke:#000000;stroke-width:0.8;" x="296.130504" xlink:href="#mdb8b89fa21" y="288.199219"/>
      </g>
     </g>
     <g id="text_2">
      <!-- 1b -->
      <defs>
       <path d="M 12.40625 8.296875 
L 28.515625 8.296875 
L 28.515625 63.921875 
L 10.984375 60.40625 
L 10.984375 69.390625 
L 28.421875 72.90625 
L 38.28125 72.90625 
L 38.28125 8.296875 
L 54.390625 8.296875 
L 54.390625 0 
L 12.40625 0 
z
" id="DejaVuSans-49"/>
       <path d="M 48.6875 27.296875 
Q 48.6875 37.203125 44.609375 42.84375 
Q 40.53125 48.484375 33.40625 48.484375 
Q 26.265625 48.484375 22.1875 42.84375 
Q 18.109375 37.203125 18.109375 27.296875 
Q 18.109375 17.390625 22.1875 11.75 
Q 26.265625 6.109375 33.40625 6.109375 
Q 40.53125 6.109375 44.609375 11.75 
Q 48.6875 17.390625 48.6875 27.296875 
z
M 18.109375 46.390625 
Q 20.953125 51.265625 25.265625 53.625 
Q 29.59375 56 35.59375 56 
Q 45.5625 56 51.78125 48.09375 
Q 58.015625 40.1875 58.015625 27.296875 
Q 58.015625 14.40625 51.78125 6.484375 
Q 45.5625 -1.421875 35.59375 -1.421875 
Q 29.59375 -1.421875 25.265625 0.953125 
Q 20.953125 3.328125 18.109375 8.203125 
L 18.109375 0 
L 9.078125 0 
L 9.078125 75.984375 
L 18.109375 75.984375 
z
" id="DejaVuSans-98"/>
      </defs>
      <g transform="translate(289.775035 302.797656)scale(0.1 -0.1)">
       <use xlink:href="#DejaVuSans-49"/>
       <use x="63.623047" xlink:href="#DejaVuSans-98"/>
      </g>
     </g>
    </g>
    <g id="xtick_3">
     <g id="line2d_3">
      <g>
       <use style="stroke:#000000;stroke-width:0.8;" x="545.98125" xlink:href="#mdb8b89fa21" y="288.199219"/>
      </g>
     </g>
     <g id="text_3">
      <!-- 2b -->
      <defs>
       <path d="M 19.1875 8.296875 
L 53.609375 8.296875 
L 53.609375 0 
L 7.328125 0 
L 7.328125 8.296875 
Q 12.9375 14.109375 22.625 23.890625 
Q 32.328125 33.6875 34.8125 36.53125 
Q 39.546875 41.84375 41.421875 45.53125 
Q 43.3125 49.21875 43.3125 52.78125 
Q 43.3125 58.59375 39.234375 62.25 
Q 35.15625 65.921875 28.609375 65.921875 
Q 23.96875 65.921875 18.8125 64.3125 
Q 13.671875 62.703125 7.8125 59.421875 
L 7.8125 69.390625 
Q 13.765625 71.78125 18.9375 73 
Q 24.125 74.21875 28.421875 74.21875 
Q 39.75 74.21875 46.484375 68.546875 
Q 53.21875 62.890625 53.21875 53.421875 
Q 53.21875 48.921875 51.53125 44.890625 
Q 49.859375 40.875 45.40625 35.40625 
Q 44.1875 33.984375 37.640625 27.21875 
Q 31.109375 20.453125 19.1875 8.296875 
z
" id="DejaVuSans-50"/>
      </defs>
      <g transform="translate(539.625781 302.797656)scale(0.1 -0.1)">
       <use xlink:href="#DejaVuSans-50"/>
       <use x="63.623047" xlink:href="#DejaVuSans-98"/>
      </g>
     </g>
    </g>
    <g id="text_4">
     <!-- Number of $\max_{a^{\prime}} Q(s^{\prime}, a^{\prime})$ compuutations -->
     <defs>
      <path d="M 9.8125 72.90625 
L 23.09375 72.90625 
L 55.421875 11.921875 
L 55.421875 72.90625 
L 64.984375 72.90625 
L 64.984375 0 
L 51.703125 0 
L 19.390625 60.984375 
L 19.390625 0 
L 9.8125 0 
z
" id="DejaVuSans-78"/>
      <path d="M 8.5 21.578125 
L 8.5 54.6875 
L 17.484375 54.6875 
L 17.484375 21.921875 
Q 17.484375 14.15625 20.5 10.265625 
Q 23.53125 6.390625 29.59375 6.390625 
Q 36.859375 6.390625 41.078125 11.03125 
Q 45.3125 15.671875 45.3125 23.6875 
L 45.3125 54.6875 
L 54.296875 54.6875 
L 54.296875 0 
L 45.3125 0 
L 45.3125 8.40625 
Q 42.046875 3.421875 37.71875 1 
Q 33.40625 -1.421875 27.6875 -1.421875 
Q 18.265625 -1.421875 13.375 4.4375 
Q 8.5 10.296875 8.5 21.578125 
z
M 31.109375 56 
z
" id="DejaVuSans-117"/>
      <path d="M 52 44.1875 
Q 55.375 50.25 60.0625 53.125 
Q 64.75 56 71.09375 56 
Q 79.640625 56 84.28125 50.015625 
Q 88.921875 44.046875 88.921875 33.015625 
L 88.921875 0 
L 79.890625 0 
L 79.890625 32.71875 
Q 79.890625 40.578125 77.09375 44.375 
Q 74.3125 48.1875 68.609375 48.1875 
Q 61.625 48.1875 57.5625 43.546875 
Q 53.515625 38.921875 53.515625 30.90625 
L 53.515625 0 
L 44.484375 0 
L 44.484375 32.71875 
Q 44.484375 40.625 41.703125 44.40625 
Q 38.921875 48.1875 33.109375 48.1875 
Q 26.21875 48.1875 22.15625 43.53125 
Q 18.109375 38.875 18.109375 30.90625 
L 18.109375 0 
L 9.078125 0 
L 9.078125 54.6875 
L 18.109375 54.6875 
L 18.109375 46.1875 
Q 21.1875 51.21875 25.484375 53.609375 
Q 29.78125 56 35.6875 56 
Q 41.65625 56 45.828125 52.96875 
Q 50 49.953125 52 44.1875 
z
" id="DejaVuSans-109"/>
      <path d="M 56.203125 29.59375 
L 56.203125 25.203125 
L 14.890625 25.203125 
Q 15.484375 15.921875 20.484375 11.0625 
Q 25.484375 6.203125 34.421875 6.203125 
Q 39.59375 6.203125 44.453125 7.46875 
Q 49.3125 8.734375 54.109375 11.28125 
L 54.109375 2.78125 
Q 49.265625 0.734375 44.1875 -0.34375 
Q 39.109375 -1.421875 33.890625 -1.421875 
Q 20.796875 -1.421875 13.15625 6.1875 
Q 5.515625 13.8125 5.515625 26.8125 
Q 5.515625 40.234375 12.765625 48.109375 
Q 20.015625 56 32.328125 56 
Q 43.359375 56 49.78125 48.890625 
Q 56.203125 41.796875 56.203125 29.59375 
z
M 47.21875 32.234375 
Q 47.125 39.59375 43.09375 43.984375 
Q 39.0625 48.390625 32.421875 48.390625 
Q 24.90625 48.390625 20.390625 44.140625 
Q 15.875 39.890625 15.1875 32.171875 
z
" id="DejaVuSans-101"/>
      <path d="M 41.109375 46.296875 
Q 39.59375 47.171875 37.8125 47.578125 
Q 36.03125 48 33.890625 48 
Q 26.265625 48 22.1875 43.046875 
Q 18.109375 38.09375 18.109375 28.8125 
L 18.109375 0 
L 9.078125 0 
L 9.078125 54.6875 
L 18.109375 54.6875 
L 18.109375 46.1875 
Q 20.953125 51.171875 25.484375 53.578125 
Q 30.03125 56 36.53125 56 
Q 37.453125 56 38.578125 55.875 
Q 39.703125 55.765625 41.0625 55.515625 
z
" id="DejaVuSans-114"/>
      <path id="DejaVuSans-32"/>
      <path d="M 30.609375 48.390625 
Q 23.390625 48.390625 19.1875 42.75 
Q 14.984375 37.109375 14.984375 27.296875 
Q 14.984375 17.484375 19.15625 11.84375 
Q 23.34375 6.203125 30.609375 6.203125 
Q 37.796875 6.203125 41.984375 11.859375 
Q 46.1875 17.53125 46.1875 27.296875 
Q 46.1875 37.015625 41.984375 42.703125 
Q 37.796875 48.390625 30.609375 48.390625 
z
M 30.609375 56 
Q 42.328125 56 49.015625 48.375 
Q 55.71875 40.765625 55.71875 27.296875 
Q 55.71875 13.875 49.015625 6.21875 
Q 42.328125 -1.421875 30.609375 -1.421875 
Q 18.84375 -1.421875 12.171875 6.21875 
Q 5.515625 13.875 5.515625 27.296875 
Q 5.515625 40.765625 12.171875 48.375 
Q 18.84375 56 30.609375 56 
z
" id="DejaVuSans-111"/>
      <path d="M 37.109375 75.984375 
L 37.109375 68.5 
L 28.515625 68.5 
Q 23.6875 68.5 21.796875 66.546875 
Q 19.921875 64.59375 19.921875 59.515625 
L 19.921875 54.6875 
L 34.71875 54.6875 
L 34.71875 47.703125 
L 19.921875 47.703125 
L 19.921875 0 
L 10.890625 0 
L 10.890625 47.703125 
L 2.296875 47.703125 
L 2.296875 54.6875 
L 10.890625 54.6875 
L 10.890625 58.5 
Q 10.890625 67.625 15.140625 71.796875 
Q 19.390625 75.984375 28.609375 75.984375 
z
" id="DejaVuSans-102"/>
      <path d="M 34.28125 27.484375 
Q 23.390625 27.484375 19.1875 25 
Q 14.984375 22.515625 14.984375 16.5 
Q 14.984375 11.71875 18.140625 8.90625 
Q 21.296875 6.109375 26.703125 6.109375 
Q 34.1875 6.109375 38.703125 11.40625 
Q 43.21875 16.703125 43.21875 25.484375 
L 43.21875 27.484375 
z
M 52.203125 31.203125 
L 52.203125 0 
L 43.21875 0 
L 43.21875 8.296875 
Q 40.140625 3.328125 35.546875 0.953125 
Q 30.953125 -1.421875 24.3125 -1.421875 
Q 15.921875 -1.421875 10.953125 3.296875 
Q 6 8.015625 6 15.921875 
Q 6 25.140625 12.171875 29.828125 
Q 18.359375 34.515625 30.609375 34.515625 
L 43.21875 34.515625 
L 43.21875 35.40625 
Q 43.21875 41.609375 39.140625 45 
Q 35.0625 48.390625 27.6875 48.390625 
Q 23 48.390625 18.546875 47.265625 
Q 14.109375 46.140625 10.015625 43.890625 
L 10.015625 52.203125 
Q 14.9375 54.109375 19.578125 55.046875 
Q 24.21875 56 28.609375 56 
Q 40.484375 56 46.34375 49.84375 
Q 52.203125 43.703125 52.203125 31.203125 
z
" id="DejaVuSans-97"/>
      <path d="M 54.890625 54.6875 
L 35.109375 28.078125 
L 55.90625 0 
L 45.3125 0 
L 29.390625 21.484375 
L 13.484375 0 
L 2.875 0 
L 24.125 28.609375 
L 4.6875 54.6875 
L 15.28125 54.6875 
L 29.78125 35.203125 
L 44.28125 54.6875 
z
" id="DejaVuSans-120"/>
      <path d="M 53.71875 31.203125 
L 47.609375 0 
L 38.625 0 
L 40.28125 8.296875 
Q 36.328125 3.421875 31.265625 1 
Q 26.21875 -1.421875 20.015625 -1.421875 
Q 13.03125 -1.421875 8.5625 2.84375 
Q 4.109375 7.125 4.109375 13.8125 
Q 4.109375 23.390625 11.75 28.953125 
Q 19.390625 34.515625 32.8125 34.515625 
L 45.3125 34.515625 
L 45.796875 36.921875 
Q 45.90625 37.3125 45.953125 37.765625 
Q 46 38.234375 46 39.203125 
Q 46 43.5625 42.453125 45.96875 
Q 38.921875 48.390625 32.515625 48.390625 
Q 28.125 48.390625 23.5 47.265625 
Q 18.890625 46.140625 14.015625 43.890625 
L 15.578125 52.203125 
Q 20.65625 54.109375 25.515625 55.046875 
Q 30.375 56 34.90625 56 
Q 44.578125 56 49.625 51.796875 
Q 54.6875 47.609375 54.6875 39.59375 
Q 54.6875 37.984375 54.4375 35.8125 
Q 54.203125 33.640625 53.71875 31.203125 
z
M 44 27.484375 
L 35.015625 27.484375 
Q 23.96875 27.484375 18.671875 24.53125 
Q 13.375 21.578125 13.375 15.375 
Q 13.375 11.078125 16.078125 8.640625 
Q 18.796875 6.203125 23.578125 6.203125 
Q 30.90625 6.203125 36.375 11.453125 
Q 41.84375 16.703125 43.609375 25.484375 
z
" id="DejaVuSans-Oblique-97"/>
      <path d="M 3.515625 5.421875 
Q 2.875 5.609375 2.875 6.390625 
L 15.09375 51.8125 
Q 15.671875 53.65625 17.078125 54.78125 
Q 18.5 55.90625 20.3125 55.90625 
Q 22.65625 55.90625 24.4375 54.359375 
Q 26.21875 52.828125 26.21875 50.484375 
Q 26.21875 49.46875 25.6875 48.1875 
L 7.625 4.984375 
Q 7.28125 4.296875 6.6875 4.296875 
Q 6.15625 4.296875 5 4.78125 
Q 3.859375 5.28125 3.515625 5.421875 
z
" id="Cmsy10-48"/>
      <path d="M 36.078125 -1.3125 
Q 35.546875 -1.375 34.953125 -1.390625 
Q 34.375 -1.421875 33.203125 -1.421875 
Q 19.53125 -1.421875 11.8125 6.421875 
Q 4.109375 14.265625 4.109375 28.078125 
Q 4.109375 36.234375 7.0625 44.4375 
Q 10.015625 52.640625 15.28125 59.1875 
Q 21.390625 66.703125 29.03125 70.453125 
Q 36.671875 74.21875 45.90625 74.21875 
Q 59.28125 74.21875 66.984375 66.328125 
Q 74.703125 58.453125 74.703125 44.828125 
Q 74.703125 30.125 66.640625 17.921875 
Q 58.59375 5.71875 45.609375 0.6875 
L 55.515625 -12.890625 
L 44.484375 -12.890625 
z
M 45.609375 66.21875 
Q 37.5 66.21875 31.296875 62.28125 
Q 25.09375 58.34375 20.515625 50.296875 
Q 17.578125 45.171875 16.03125 39.40625 
Q 14.5 33.640625 14.5 27.78125 
Q 14.5 17.625 19.359375 12.109375 
Q 24.21875 6.59375 33.109375 6.59375 
Q 41.109375 6.59375 47.375 10.5625 
Q 53.65625 14.546875 58.109375 22.40625 
Q 61.078125 27.6875 62.640625 33.46875 
Q 64.203125 39.265625 64.203125 45.015625 
Q 64.203125 55.125 59.3125 60.671875 
Q 54.4375 66.21875 45.609375 66.21875 
z
" id="DejaVuSans-Oblique-81"/>
      <path d="M 31 75.875 
Q 24.46875 64.65625 21.28125 53.65625 
Q 18.109375 42.671875 18.109375 31.390625 
Q 18.109375 20.125 21.3125 9.0625 
Q 24.515625 -2 31 -13.1875 
L 23.1875 -13.1875 
Q 15.875 -1.703125 12.234375 9.375 
Q 8.59375 20.453125 8.59375 31.390625 
Q 8.59375 42.28125 12.203125 53.3125 
Q 15.828125 64.359375 23.1875 75.875 
z
" id="DejaVuSans-40"/>
      <path d="M 50 53.078125 
L 48.296875 44.578125 
Q 44.734375 46.53125 40.765625 47.5 
Q 36.8125 48.484375 32.625 48.484375 
Q 25.53125 48.484375 21.453125 46.0625 
Q 17.390625 43.65625 17.390625 39.5 
Q 17.390625 34.671875 26.859375 32.078125 
Q 27.59375 31.890625 27.9375 31.78125 
L 30.8125 30.90625 
Q 39.796875 28.421875 42.796875 25.6875 
Q 45.796875 22.953125 45.796875 18.21875 
Q 45.796875 9.515625 38.890625 4.046875 
Q 31.984375 -1.421875 20.796875 -1.421875 
Q 16.453125 -1.421875 11.671875 -0.578125 
Q 6.890625 0.25 1.125 2 
L 2.875 11.28125 
Q 7.8125 8.734375 12.59375 7.421875 
Q 17.390625 6.109375 21.78125 6.109375 
Q 28.375 6.109375 32.5 8.9375 
Q 36.625 11.765625 36.625 16.109375 
Q 36.625 20.796875 25.78125 23.6875 
L 24.859375 23.921875 
L 21.78125 24.703125 
Q 14.9375 26.515625 11.765625 29.46875 
Q 8.59375 32.421875 8.59375 37.015625 
Q 8.59375 45.75 15.15625 50.875 
Q 21.734375 56 33.015625 56 
Q 37.453125 56 41.671875 55.265625 
Q 45.90625 54.546875 50 53.078125 
z
" id="DejaVuSans-Oblique-115"/>
      <path d="M 11.71875 12.40625 
L 22.015625 12.40625 
L 22.015625 4 
L 14.015625 -11.625 
L 7.71875 -11.625 
L 11.71875 4 
z
" id="DejaVuSans-44"/>
      <path d="M 8.015625 75.875 
L 15.828125 75.875 
Q 23.140625 64.359375 26.78125 53.3125 
Q 30.421875 42.28125 30.421875 31.390625 
Q 30.421875 20.453125 26.78125 9.375 
Q 23.140625 -1.703125 15.828125 -13.1875 
L 8.015625 -13.1875 
Q 14.5 -2 17.703125 9.0625 
Q 20.90625 20.125 20.90625 31.390625 
Q 20.90625 42.671875 17.703125 53.65625 
Q 14.5 64.65625 8.015625 75.875 
z
" id="DejaVuSans-41"/>
      <path d="M 48.78125 52.59375 
L 48.78125 44.1875 
Q 44.96875 46.296875 41.140625 47.34375 
Q 37.3125 48.390625 33.40625 48.390625 
Q 24.65625 48.390625 19.8125 42.84375 
Q 14.984375 37.3125 14.984375 27.296875 
Q 14.984375 17.28125 19.8125 11.734375 
Q 24.65625 6.203125 33.40625 6.203125 
Q 37.3125 6.203125 41.140625 7.25 
Q 44.96875 8.296875 48.78125 10.40625 
L 48.78125 2.09375 
Q 45.015625 0.34375 40.984375 -0.53125 
Q 36.96875 -1.421875 32.421875 -1.421875 
Q 20.0625 -1.421875 12.78125 6.34375 
Q 5.515625 14.109375 5.515625 27.296875 
Q 5.515625 40.671875 12.859375 48.328125 
Q 20.21875 56 33.015625 56 
Q 37.15625 56 41.109375 55.140625 
Q 45.0625 54.296875 48.78125 52.59375 
z
" id="DejaVuSans-99"/>
      <path d="M 18.109375 8.203125 
L 18.109375 -20.796875 
L 9.078125 -20.796875 
L 9.078125 54.6875 
L 18.109375 54.6875 
L 18.109375 46.390625 
Q 20.953125 51.265625 25.265625 53.625 
Q 29.59375 56 35.59375 56 
Q 45.5625 56 51.78125 48.09375 
Q 58.015625 40.1875 58.015625 27.296875 
Q 58.015625 14.40625 51.78125 6.484375 
Q 45.5625 -1.421875 35.59375 -1.421875 
Q 29.59375 -1.421875 25.265625 0.953125 
Q 20.953125 3.328125 18.109375 8.203125 
z
M 48.6875 27.296875 
Q 48.6875 37.203125 44.609375 42.84375 
Q 40.53125 48.484375 33.40625 48.484375 
Q 26.265625 48.484375 22.1875 42.84375 
Q 18.109375 37.203125 18.109375 27.296875 
Q 18.109375 17.390625 22.1875 11.75 
Q 26.265625 6.109375 33.40625 6.109375 
Q 40.53125 6.109375 44.609375 11.75 
Q 48.6875 17.390625 48.6875 27.296875 
z
" id="DejaVuSans-112"/>
      <path d="M 18.3125 70.21875 
L 18.3125 54.6875 
L 36.8125 54.6875 
L 36.8125 47.703125 
L 18.3125 47.703125 
L 18.3125 18.015625 
Q 18.3125 11.328125 20.140625 9.421875 
Q 21.96875 7.515625 27.59375 7.515625 
L 36.8125 7.515625 
L 36.8125 0 
L 27.59375 0 
Q 17.1875 0 13.234375 3.875 
Q 9.28125 7.765625 9.28125 18.015625 
L 9.28125 47.703125 
L 2.6875 47.703125 
L 2.6875 54.6875 
L 9.28125 54.6875 
L 9.28125 70.21875 
z
" id="DejaVuSans-116"/>
      <path d="M 9.421875 54.6875 
L 18.40625 54.6875 
L 18.40625 0 
L 9.421875 0 
z
M 9.421875 75.984375 
L 18.40625 75.984375 
L 18.40625 64.59375 
L 9.421875 64.59375 
z
" id="DejaVuSans-105"/>
      <path d="M 54.890625 33.015625 
L 54.890625 0 
L 45.90625 0 
L 45.90625 32.71875 
Q 45.90625 40.484375 42.875 44.328125 
Q 39.84375 48.1875 33.796875 48.1875 
Q 26.515625 48.1875 22.3125 43.546875 
Q 18.109375 38.921875 18.109375 30.90625 
L 18.109375 0 
L 9.078125 0 
L 9.078125 54.6875 
L 18.109375 54.6875 
L 18.109375 46.1875 
Q 21.34375 51.125 25.703125 53.5625 
Q 30.078125 56 35.796875 56 
Q 45.21875 56 50.046875 50.171875 
Q 54.890625 44.34375 54.890625 33.015625 
z
" id="DejaVuSans-110"/>
      <path d="M 44.28125 53.078125 
L 44.28125 44.578125 
Q 40.484375 46.53125 36.375 47.5 
Q 32.28125 48.484375 27.875 48.484375 
Q 21.1875 48.484375 17.84375 46.4375 
Q 14.5 44.390625 14.5 40.28125 
Q 14.5 37.15625 16.890625 35.375 
Q 19.28125 33.59375 26.515625 31.984375 
L 29.59375 31.296875 
Q 39.15625 29.25 43.1875 25.515625 
Q 47.21875 21.78125 47.21875 15.09375 
Q 47.21875 7.46875 41.1875 3.015625 
Q 35.15625 -1.421875 24.609375 -1.421875 
Q 20.21875 -1.421875 15.453125 -0.5625 
Q 10.6875 0.296875 5.421875 2 
L 5.421875 11.28125 
Q 10.40625 8.6875 15.234375 7.390625 
Q 20.0625 6.109375 24.8125 6.109375 
Q 31.15625 6.109375 34.5625 8.28125 
Q 37.984375 10.453125 37.984375 14.40625 
Q 37.984375 18.0625 35.515625 20.015625 
Q 33.0625 21.96875 24.703125 23.78125 
L 21.578125 24.515625 
Q 13.234375 26.265625 9.515625 29.90625 
Q 5.8125 33.546875 5.8125 39.890625 
Q 5.8125 47.609375 11.28125 51.796875 
Q 16.75 56 26.8125 56 
Q 31.78125 56 36.171875 55.265625 
Q 40.578125 54.546875 44.28125 53.078125 
z
" id="DejaVuSans-115"/>
     </defs>
     <g transform="translate(198.18125 316.677344)scale(0.1 -0.1)">
      <use transform="translate(0 0.584375)" xlink:href="#DejaVuSans-78"/>
      <use transform="translate(74.804688 0.584375)" xlink:href="#DejaVuSans-117"/>
      <use transform="translate(138.183594 0.584375)" xlink:href="#DejaVuSans-109"/>
      <use transform="translate(235.595703 0.584375)" xlink:href="#DejaVuSans-98"/>
      <use transform="translate(299.072266 0.584375)" xlink:href="#DejaVuSans-101"/>
      <use transform="translate(360.595703 0.584375)" xlink:href="#DejaVuSans-114"/>
      <use transform="translate(401.708984 0.584375)" xlink:href="#DejaVuSans-32"/>
      <use transform="translate(433.496094 0.584375)" xlink:href="#DejaVuSans-111"/>
      <use transform="translate(494.677734 0.584375)" xlink:href="#DejaVuSans-102"/>
      <use transform="translate(529.882812 0.584375)" xlink:href="#DejaVuSans-32"/>
      <use transform="translate(561.669922 19.334375)" xlink:href="#DejaVuSans-109"/>
      <use transform="translate(659.082031 19.334375)" xlink:href="#DejaVuSans-97"/>
      <use transform="translate(720.361328 19.334375)" xlink:href="#DejaVuSans-120"/>
      <use transform="translate(639.669922 -55.028437)scale(0.7)" xlink:href="#DejaVuSans-Oblique-97"/>
      <use transform="translate(685.820357 -28.231562)scale(0.49)" xlink:href="#Cmsy10-48"/>
      <use transform="translate(779.541016 0.584375)" xlink:href="#DejaVuSans-Oblique-81"/>
      <use transform="translate(858.251953 0.584375)" xlink:href="#DejaVuSans-40"/>
      <use transform="translate(897.265625 0.584375)" xlink:href="#DejaVuSans-Oblique-115"/>
      <use transform="translate(954.01513 38.865625)scale(0.7)" xlink:href="#Cmsy10-48"/>
      <use transform="translate(975.992669 0.584375)" xlink:href="#DejaVuSans-44"/>
      <use transform="translate(1027.262201 0.584375)" xlink:href="#DejaVuSans-Oblique-97"/>
      <use transform="translate(1093.191393 38.865625)scale(0.7)" xlink:href="#Cmsy10-48"/>
      <use transform="translate(1115.168932 0.584375)" xlink:href="#DejaVuSans-41"/>
      <use transform="translate(1154.182604 0.584375)" xlink:href="#DejaVuSans-32"/>
      <use transform="translate(1185.969714 0.584375)" xlink:href="#DejaVuSans-99"/>
      <use transform="translate(1240.950182 0.584375)" xlink:href="#DejaVuSans-111"/>
      <use transform="translate(1302.131823 0.584375)" xlink:href="#DejaVuSans-109"/>
      <use transform="translate(1399.543932 0.584375)" xlink:href="#DejaVuSans-112"/>
      <use transform="translate(1463.020495 0.584375)" xlink:href="#DejaVuSans-117"/>
      <use transform="translate(1526.399401 0.584375)" xlink:href="#DejaVuSans-117"/>
      <use transform="translate(1589.778307 0.584375)" xlink:href="#DejaVuSans-116"/>
      <use transform="translate(1628.987292 0.584375)" xlink:href="#DejaVuSans-97"/>
      <use transform="translate(1690.266589 0.584375)" xlink:href="#DejaVuSans-116"/>
      <use transform="translate(1729.475573 0.584375)" xlink:href="#DejaVuSans-105"/>
      <use transform="translate(1757.258776 0.584375)" xlink:href="#DejaVuSans-111"/>
      <use transform="translate(1818.440417 0.584375)" xlink:href="#DejaVuSans-110"/>
      <use transform="translate(1881.819323 0.584375)" xlink:href="#DejaVuSans-115"/>
     </g>
    </g>
   </g>
   <g id="matplotlib.axis_2">
    <g id="ytick_1">
     <g id="line2d_4">
      <defs>
       <path d="M 0 0 
L -3.5 0 
" id="m14b8d1848d" style="stroke:#000000;stroke-width:0.8;"/>
      </defs>
      <g>
       <use style="stroke:#000000;stroke-width:0.8;" x="43.78125" xlink:href="#m14b8d1848d" y="282.763925"/>
      </g>
     </g>
     <g id="text_5">
      <!-- 0.0 -->
      <defs>
       <path d="M 10.6875 12.40625 
L 21 12.40625 
L 21 0 
L 10.6875 0 
z
" id="DejaVuSans-46"/>
      </defs>
      <g transform="translate(20.878125 286.563143)scale(0.1 -0.1)">
       <use xlink:href="#DejaVuSans-48"/>
       <use x="63.623047" xlink:href="#DejaVuSans-46"/>
       <use x="95.410156" xlink:href="#DejaVuSans-48"/>
      </g>
     </g>
    </g>
    <g id="ytick_2">
     <g id="line2d_5">
      <g>
       <use style="stroke:#000000;stroke-width:0.8;" x="43.78125" xlink:href="#m14b8d1848d" y="228.410983"/>
      </g>
     </g>
     <g id="text_6">
      <!-- 0.2 -->
      <g transform="translate(20.878125 232.210202)scale(0.1 -0.1)">
       <use xlink:href="#DejaVuSans-48"/>
       <use x="63.623047" xlink:href="#DejaVuSans-46"/>
       <use x="95.410156" xlink:href="#DejaVuSans-50"/>
      </g>
     </g>
    </g>
    <g id="ytick_3">
     <g id="line2d_6">
      <g>
       <use style="stroke:#000000;stroke-width:0.8;" x="43.78125" xlink:href="#m14b8d1848d" y="174.058042"/>
      </g>
     </g>
     <g id="text_7">
      <!-- 0.4 -->
      <defs>
       <path d="M 37.796875 64.3125 
L 12.890625 25.390625 
L 37.796875 25.390625 
z
M 35.203125 72.90625 
L 47.609375 72.90625 
L 47.609375 25.390625 
L 58.015625 25.390625 
L 58.015625 17.1875 
L 47.609375 17.1875 
L 47.609375 0 
L 37.796875 0 
L 37.796875 17.1875 
L 4.890625 17.1875 
L 4.890625 26.703125 
z
" id="DejaVuSans-52"/>
      </defs>
      <g transform="translate(20.878125 177.857261)scale(0.1 -0.1)">
       <use xlink:href="#DejaVuSans-48"/>
       <use x="63.623047" xlink:href="#DejaVuSans-46"/>
       <use x="95.410156" xlink:href="#DejaVuSans-52"/>
      </g>
     </g>
    </g>
    <g id="ytick_4">
     <g id="line2d_7">
      <g>
       <use style="stroke:#000000;stroke-width:0.8;" x="43.78125" xlink:href="#m14b8d1848d" y="119.705101"/>
      </g>
     </g>
     <g id="text_8">
      <!-- 0.6 -->
      <defs>
       <path d="M 33.015625 40.375 
Q 26.375 40.375 22.484375 35.828125 
Q 18.609375 31.296875 18.609375 23.390625 
Q 18.609375 15.53125 22.484375 10.953125 
Q 26.375 6.390625 33.015625 6.390625 
Q 39.65625 6.390625 43.53125 10.953125 
Q 47.40625 15.53125 47.40625 23.390625 
Q 47.40625 31.296875 43.53125 35.828125 
Q 39.65625 40.375 33.015625 40.375 
z
M 52.59375 71.296875 
L 52.59375 62.3125 
Q 48.875 64.0625 45.09375 64.984375 
Q 41.3125 65.921875 37.59375 65.921875 
Q 27.828125 65.921875 22.671875 59.328125 
Q 17.53125 52.734375 16.796875 39.40625 
Q 19.671875 43.65625 24.015625 45.921875 
Q 28.375 48.1875 33.59375 48.1875 
Q 44.578125 48.1875 50.953125 41.515625 
Q 57.328125 34.859375 57.328125 23.390625 
Q 57.328125 12.15625 50.6875 5.359375 
Q 44.046875 -1.421875 33.015625 -1.421875 
Q 20.359375 -1.421875 13.671875 8.265625 
Q 6.984375 17.96875 6.984375 36.375 
Q 6.984375 53.65625 15.1875 63.9375 
Q 23.390625 74.21875 37.203125 74.21875 
Q 40.921875 74.21875 44.703125 73.484375 
Q 48.484375 72.75 52.59375 71.296875 
z
" id="DejaVuSans-54"/>
      </defs>
      <g transform="translate(20.878125 123.50432)scale(0.1 -0.1)">
       <use xlink:href="#DejaVuSans-48"/>
       <use x="63.623047" xlink:href="#DejaVuSans-46"/>
       <use x="95.410156" xlink:href="#DejaVuSans-54"/>
      </g>
     </g>
    </g>
    <g id="ytick_5">
     <g id="line2d_8">
      <g>
       <use style="stroke:#000000;stroke-width:0.8;" x="43.78125" xlink:href="#m14b8d1848d" y="65.35216"/>
      </g>
     </g>
     <g id="text_9">
      <!-- 0.8 -->
      <defs>
       <path d="M 31.78125 34.625 
Q 24.75 34.625 20.71875 30.859375 
Q 16.703125 27.09375 16.703125 20.515625 
Q 16.703125 13.921875 20.71875 10.15625 
Q 24.75 6.390625 31.78125 6.390625 
Q 38.8125 6.390625 42.859375 10.171875 
Q 46.921875 13.96875 46.921875 20.515625 
Q 46.921875 27.09375 42.890625 30.859375 
Q 38.875 34.625 31.78125 34.625 
z
M 21.921875 38.8125 
Q 15.578125 40.375 12.03125 44.71875 
Q 8.5 49.078125 8.5 55.328125 
Q 8.5 64.0625 14.71875 69.140625 
Q 20.953125 74.21875 31.78125 74.21875 
Q 42.671875 74.21875 48.875 69.140625 
Q 55.078125 64.0625 55.078125 55.328125 
Q 55.078125 49.078125 51.53125 44.71875 
Q 48 40.375 41.703125 38.8125 
Q 48.828125 37.15625 52.796875 32.3125 
Q 56.78125 27.484375 56.78125 20.515625 
Q 56.78125 9.90625 50.3125 4.234375 
Q 43.84375 -1.421875 31.78125 -1.421875 
Q 19.734375 -1.421875 13.25 4.234375 
Q 6.78125 9.90625 6.78125 20.515625 
Q 6.78125 27.484375 10.78125 32.3125 
Q 14.796875 37.15625 21.921875 38.8125 
z
M 18.3125 54.390625 
Q 18.3125 48.734375 21.84375 45.5625 
Q 25.390625 42.390625 31.78125 42.390625 
Q 38.140625 42.390625 41.71875 45.5625 
Q 45.3125 48.734375 45.3125 54.390625 
Q 45.3125 60.0625 41.71875 63.234375 
Q 38.140625 66.40625 31.78125 66.40625 
Q 25.390625 66.40625 21.84375 63.234375 
Q 18.3125 60.0625 18.3125 54.390625 
z
" id="DejaVuSans-56"/>
      </defs>
      <g transform="translate(20.878125 69.151379)scale(0.1 -0.1)">
       <use xlink:href="#DejaVuSans-48"/>
       <use x="63.623047" xlink:href="#DejaVuSans-46"/>
       <use x="95.410156" xlink:href="#DejaVuSans-56"/>
      </g>
     </g>
    </g>
    <g id="ytick_6">
     <g id="line2d_9">
      <g>
       <use style="stroke:#000000;stroke-width:0.8;" x="43.78125" xlink:href="#m14b8d1848d" y="10.999219"/>
      </g>
     </g>
     <g id="text_10">
      <!-- 1.0 -->
      <g transform="translate(20.878125 14.798438)scale(0.1 -0.1)">
       <use xlink:href="#DejaVuSans-49"/>
       <use x="63.623047" xlink:href="#DejaVuSans-46"/>
       <use x="95.410156" xlink:href="#DejaVuSans-48"/>
      </g>
     </g>
    </g>
    <g id="text_11">
     <!-- RMS error in value estimate -->
     <defs>
      <path d="M 44.390625 34.1875 
Q 47.5625 33.109375 50.5625 29.59375 
Q 53.5625 26.078125 56.59375 19.921875 
L 66.609375 0 
L 56 0 
L 46.6875 18.703125 
Q 43.0625 26.03125 39.671875 28.421875 
Q 36.28125 30.8125 30.421875 30.8125 
L 19.671875 30.8125 
L 19.671875 0 
L 9.8125 0 
L 9.8125 72.90625 
L 32.078125 72.90625 
Q 44.578125 72.90625 50.734375 67.671875 
Q 56.890625 62.453125 56.890625 51.90625 
Q 56.890625 45.015625 53.6875 40.46875 
Q 50.484375 35.9375 44.390625 34.1875 
z
M 19.671875 64.796875 
L 19.671875 38.921875 
L 32.078125 38.921875 
Q 39.203125 38.921875 42.84375 42.21875 
Q 46.484375 45.515625 46.484375 51.90625 
Q 46.484375 58.296875 42.84375 61.546875 
Q 39.203125 64.796875 32.078125 64.796875 
z
" id="DejaVuSans-82"/>
      <path d="M 9.8125 72.90625 
L 24.515625 72.90625 
L 43.109375 23.296875 
L 61.8125 72.90625 
L 76.515625 72.90625 
L 76.515625 0 
L 66.890625 0 
L 66.890625 64.015625 
L 48.09375 14.015625 
L 38.1875 14.015625 
L 19.390625 64.015625 
L 19.390625 0 
L 9.8125 0 
z
" id="DejaVuSans-77"/>
      <path d="M 53.515625 70.515625 
L 53.515625 60.890625 
Q 47.90625 63.578125 42.921875 64.890625 
Q 37.9375 66.21875 33.296875 66.21875 
Q 25.25 66.21875 20.875 63.09375 
Q 16.5 59.96875 16.5 54.203125 
Q 16.5 49.359375 19.40625 46.890625 
Q 22.3125 44.4375 30.421875 42.921875 
L 36.375 41.703125 
Q 47.40625 39.59375 52.65625 34.296875 
Q 57.90625 29 57.90625 20.125 
Q 57.90625 9.515625 50.796875 4.046875 
Q 43.703125 -1.421875 29.984375 -1.421875 
Q 24.8125 -1.421875 18.96875 -0.25 
Q 13.140625 0.921875 6.890625 3.21875 
L 6.890625 13.375 
Q 12.890625 10.015625 18.65625 8.296875 
Q 24.421875 6.59375 29.984375 6.59375 
Q 38.421875 6.59375 43.015625 9.90625 
Q 47.609375 13.234375 47.609375 19.390625 
Q 47.609375 24.75 44.3125 27.78125 
Q 41.015625 30.8125 33.5 32.328125 
L 27.484375 33.5 
Q 16.453125 35.6875 11.515625 40.375 
Q 6.59375 45.0625 6.59375 53.421875 
Q 6.59375 63.09375 13.40625 68.65625 
Q 20.21875 74.21875 32.171875 74.21875 
Q 37.3125 74.21875 42.625 73.28125 
Q 47.953125 72.359375 53.515625 70.515625 
z
" id="DejaVuSans-83"/>
      <path d="M 2.984375 54.6875 
L 12.5 54.6875 
L 29.59375 8.796875 
L 46.6875 54.6875 
L 56.203125 54.6875 
L 35.6875 0 
L 23.484375 0 
z
" id="DejaVuSans-118"/>
      <path d="M 9.421875 75.984375 
L 18.40625 75.984375 
L 18.40625 0 
L 9.421875 0 
z
" id="DejaVuSans-108"/>
     </defs>
     <g transform="translate(14.798438 219.435156)rotate(-90)scale(0.1 -0.1)">
      <use xlink:href="#DejaVuSans-82"/>
      <use x="69.482422" xlink:href="#DejaVuSans-77"/>
      <use x="155.761719" xlink:href="#DejaVuSans-83"/>
      <use x="219.238281" xlink:href="#DejaVuSans-32"/>
      <use x="251.025391" xlink:href="#DejaVuSans-101"/>
      <use x="312.548828" xlink:href="#DejaVuSans-114"/>
      <use x="353.646484" xlink:href="#DejaVuSans-114"/>
      <use x="394.728516" xlink:href="#DejaVuSans-111"/>
      <use x="455.910156" xlink:href="#DejaVuSans-114"/>
      <use x="497.023438" xlink:href="#DejaVuSans-32"/>
      <use x="528.810547" xlink:href="#DejaVuSans-105"/>
      <use x="556.59375" xlink:href="#DejaVuSans-110"/>
      <use x="619.972656" xlink:href="#DejaVuSans-32"/>
      <use x="651.759766" xlink:href="#DejaVuSans-118"/>
      <use x="710.939453" xlink:href="#DejaVuSans-97"/>
      <use x="772.21875" xlink:href="#DejaVuSans-108"/>
      <use x="800.001953" xlink:href="#DejaVuSans-117"/>
      <use x="863.380859" xlink:href="#DejaVuSans-101"/>
      <use x="924.904297" xlink:href="#DejaVuSans-32"/>
      <use x="956.691406" xlink:href="#DejaVuSans-101"/>
      <use x="1018.214844" xlink:href="#DejaVuSans-115"/>
      <use x="1070.314453" xlink:href="#DejaVuSans-116"/>
      <use x="1109.523438" xlink:href="#DejaVuSans-105"/>
      <use x="1137.306641" xlink:href="#DejaVuSans-109"/>
      <use x="1234.71875" xlink:href="#DejaVuSans-97"/>
      <use x="1295.998047" xlink:href="#DejaVuSans-116"/>
      <use x="1335.207031" xlink:href="#DejaVuSans-101"/>
     </g>
    </g>
   </g>
   <g id="line2d_10">
    <path clip-path="url(#p481101b2a6)" d="M 46.279757 10.999219 
L 296.105519 10.999219 
L 296.130504 282.763925 
L 545.98125 282.763925 
" style="fill:none;stroke:#c0c0c0;stroke-linecap:square;stroke-width:1.5;"/>
   </g>
   <g id="line2d_11">
    <path clip-path="url(#p481101b2a6)" d="M 46.279757 10.999219 
L 171.205131 115.057804 
L 296.130504 150.646944 
L 421.055877 171.085148 
L 545.98125 186.603693 
" style="fill:none;stroke:#4169e1;stroke-linecap:square;stroke-width:1.5;"/>
   </g>
   <g id="line2d_12">
    <path clip-path="url(#p481101b2a6)" d="M 46.279757 10.999219 
L 71.264832 68.488939 
L 96.249907 100.111247 
L 121.234981 122.237568 
L 146.220056 136.327943 
L 171.205131 144.883546 
L 196.190205 154.748115 
L 221.17528 162.206165 
L 246.160354 168.699219 
L 271.145429 173.287112 
L 296.130504 178.891197 
L 321.115578 183.209977 
L 346.100653 186.508922 
L 371.085728 188.831717 
L 396.070802 191.903204 
L 421.055877 195.344589 
L 446.040951 198.836787 
L 471.026026 199.69028 
L 496.011101 201.077421 
L 520.996175 202.83693 
L 545.98125 204.613196 
" style="fill:none;stroke:#228b22;stroke-linecap:square;stroke-width:1.5;"/>
   </g>
   <g id="line2d_13">
    <path clip-path="url(#p481101b2a6)" d="M 46.279757 10.999219 
L 48.778265 46.902065 
L 51.276772 78.695306 
L 53.77528 107.680718 
L 56.273787 119.484369 
L 58.772295 126.918678 
L 61.270802 138.533757 
L 66.267817 155.085891 
L 71.264832 169.334992 
L 73.76334 172.528869 
L 76.261847 177.485776 
L 78.760354 181.339472 
L 83.757369 185.817871 
L 86.255877 188.153132 
L 91.252892 193.347321 
L 93.751399 195.413371 
L 96.249907 198.308218 
L 101.246922 201.522862 
L 103.745429 203.239216 
L 106.243937 205.425462 
L 108.742444 207.299907 
L 111.240951 209.787168 
L 116.237966 213.010874 
L 118.736474 213.891875 
L 123.733489 215.281894 
L 128.730504 217.663168 
L 131.229011 218.291959 
L 133.727519 220.24931 
L 136.226026 219.629837 
L 138.724534 220.694052 
L 141.223041 222.484945 
L 148.718563 224.10257 
L 153.715578 225.681724 
L 156.214086 226.298007 
L 158.712593 227.143272 
L 161.211101 227.743973 
L 163.709608 228.874881 
L 168.706623 229.93337 
L 171.205131 230.126284 
L 173.703638 231.004782 
L 176.202146 231.761348 
L 178.700653 231.719704 
L 181.19916 232.402772 
L 183.697668 232.788691 
L 186.196175 233.645428 
L 188.694683 233.787662 
L 191.19319 234.547323 
L 193.691698 234.771746 
L 196.190205 234.728604 
L 201.18722 235.963708 
L 206.184235 235.514373 
L 208.682743 236.196271 
L 211.18125 236.104101 
L 213.679757 235.804338 
L 216.178265 236.230499 
L 218.676772 236.815693 
L 221.17528 236.525183 
L 223.673787 236.927293 
L 226.172295 237.535191 
L 228.670802 237.927891 
L 231.16931 237.972453 
L 233.667817 238.208277 
L 236.166325 238.786448 
L 238.664832 239.181106 
L 241.16334 239.28936 
L 243.661847 239.516845 
L 246.160354 239.46946 
L 253.655877 240.028765 
L 256.154384 239.87184 
L 258.652892 240.327811 
L 261.151399 240.317156 
L 263.649907 240.596769 
L 266.148414 240.994049 
L 268.646922 241.518238 
L 273.643937 241.891308 
L 276.142444 242.321731 
L 278.640951 242.639313 
L 281.139459 242.555512 
L 283.637966 242.825461 
L 288.634981 243.027107 
L 291.133489 243.575594 
L 296.130504 244.090267 
L 298.629011 244.711638 
L 308.623041 245.372296 
L 313.620056 245.28459 
L 318.617071 245.446193 
L 323.614086 245.453282 
L 336.106623 246.24577 
L 338.605131 246.654641 
L 343.602146 246.46361 
L 346.100653 246.410351 
L 348.59916 246.575231 
L 351.097668 246.586939 
L 356.094683 247.074032 
L 358.59319 247.641483 
L 361.091698 247.480928 
L 363.590205 247.676157 
L 366.088713 247.578114 
L 368.58722 247.730273 
L 371.085728 247.589863 
L 376.082743 248.141758 
L 378.58125 248.129895 
L 381.079757 248.255596 
L 383.578265 248.609327 
L 386.076772 248.716826 
L 388.57528 248.410143 
L 401.067817 248.58988 
L 403.566325 248.841228 
L 406.064832 248.691802 
L 408.56334 249.001708 
L 411.061847 248.998163 
L 416.058862 249.341597 
L 418.557369 249.371741 
L 426.052892 250.178085 
L 428.551399 250.320957 
L 431.049907 250.347308 
L 433.548414 250.662512 
L 438.545429 250.485302 
L 441.043937 250.649555 
L 443.542444 250.550466 
L 446.040951 250.805643 
L 461.031996 251.292692 
L 463.530504 251.181374 
L 468.527519 251.601077 
L 471.026026 251.619906 
L 473.524534 251.978254 
L 478.521549 252.012965 
L 491.014086 252.711715 
L 498.509608 253.097577 
L 508.503638 253.455534 
L 523.494683 254.474202 
L 525.99319 254.325382 
L 528.491698 254.530744 
L 530.990205 254.57198 
L 533.488713 254.327573 
L 545.98125 254.893396 
L 545.98125 254.893396 
" style="fill:none;stroke:#daa520;stroke-linecap:square;stroke-width:1.5;"/>
   </g>
   <g id="line2d_14">
    <path clip-path="url(#p481101b2a6)" d="M 46.279757 10.999219 
L 46.529608 75.173081 
L 47.02931 120.142224 
L 47.778862 136.206598 
L 49.277966 169.896986 
L 49.527817 179.038525 
L 50.027519 183.157616 
L 50.277369 187.784174 
L 50.52722 186.209253 
L 50.777071 189.892134 
L 51.026922 190.360031 
L 51.276772 192.062977 
L 51.776474 199.312444 
L 52.276175 200.83153 
L 52.526026 202.382124 
L 52.775877 202.736587 
L 53.275578 204.615549 
L 53.77528 209.653476 
L 54.025131 211.219783 
L 54.274981 214.621898 
L 54.524832 212.655073 
L 54.774683 213.489748 
L 55.024534 215.228977 
L 55.274384 215.994697 
L 56.023937 220.316903 
L 56.273787 220.524108 
L 56.523638 222.130444 
L 56.773489 221.06333 
L 57.02334 221.195918 
L 57.27319 222.227818 
L 57.523041 221.706178 
L 57.772892 222.806299 
L 58.272593 225.686407 
L 58.522444 225.737351 
L 58.772295 225.310101 
L 59.022146 226.045494 
L 59.521847 226.717426 
L 59.771698 227.804239 
L 60.021549 227.875294 
L 60.271399 228.320378 
L 60.771101 230.294738 
L 61.270802 232.176187 
L 61.520653 232.559031 
L 62.020354 230.457306 
L 62.270205 230.501723 
L 62.520056 229.848641 
L 62.769907 229.922713 
L 63.019757 229.736397 
L 63.269608 231.135673 
L 63.519459 231.227967 
L 64.269011 232.060092 
L 64.518862 233.436964 
L 64.768713 234.182101 
L 65.018563 234.148047 
L 65.268414 234.86581 
L 65.518265 234.413891 
L 66.267817 236.283634 
L 66.517668 236.19633 
L 66.767519 237.351399 
L 67.017369 237.22213 
L 67.517071 237.316727 
L 68.016772 239.111239 
L 68.266623 239.222913 
L 68.516474 239.029273 
L 68.766325 239.804745 
L 69.266026 240.385945 
L 69.515877 239.901626 
L 69.765728 240.519935 
L 70.015578 240.542985 
L 70.51528 241.039887 
L 71.014981 241.567727 
L 71.264832 241.182925 
L 71.764534 241.933238 
L 72.014384 242.027783 
L 72.264235 242.811973 
L 72.514086 242.80997 
L 72.763937 243.342632 
L 73.263638 243.80622 
L 73.513489 243.837612 
L 73.76334 244.058119 
L 74.01319 243.500393 
L 74.263041 244.021771 
L 74.512892 243.775532 
L 74.762743 244.07636 
L 75.012593 243.83968 
L 75.262444 243.789362 
L 76.011996 244.759885 
L 76.511698 244.412655 
L 76.761549 244.55117 
L 77.011399 243.894131 
L 77.26125 243.963584 
L 77.760951 244.579631 
L 78.010802 244.313026 
L 78.510504 245.225852 
L 78.760354 245.104019 
L 79.010205 245.363237 
L 79.260056 245.093747 
L 79.509907 245.38879 
L 79.759757 245.159966 
L 80.009608 245.29587 
L 80.259459 245.712684 
L 80.50931 246.381206 
L 80.75916 246.424549 
L 81.009011 246.822362 
L 81.758563 247.248307 
L 82.008414 247.522793 
L 82.258265 247.406686 
L 82.508116 248.204839 
L 83.257668 248.60442 
L 83.507519 248.705269 
L 83.757369 248.335107 
L 84.257071 248.691658 
L 84.506922 248.703765 
L 84.756772 248.198868 
L 85.256474 248.678267 
L 85.506325 248.597308 
L 85.756175 248.667084 
L 86.006026 249.183713 
L 87.25528 249.990779 
L 87.505131 250.416391 
L 88.004832 250.734601 
L 89.004235 250.674243 
L 89.254086 250.695192 
L 89.753787 251.134518 
L 90.003638 251.059853 
L 90.253489 251.213939 
L 90.50334 251.228819 
L 91.003041 251.532384 
L 91.502743 252.588749 
L 91.752593 252.698926 
L 92.252295 252.557626 
L 92.502146 252.331739 
L 92.751996 252.373291 
L 93.001847 252.159172 
L 94.00125 252.700871 
L 94.251101 252.567686 
L 94.500951 253.007704 
L 95.250504 253.512916 
L 95.500354 253.320101 
L 96.000056 253.820421 
L 96.249907 253.727774 
L 96.499757 253.91607 
L 96.999459 254.538951 
L 97.24931 254.527082 
L 97.749011 255.070483 
L 97.998862 255.254378 
L 98.248713 255.179413 
L 98.498563 255.374595 
L 98.748414 255.195531 
L 98.998265 255.524793 
L 99.248116 255.620655 
L 99.497966 255.376196 
L 100.247519 255.878537 
L 100.497369 255.561574 
L 100.997071 255.813063 
L 101.246922 255.809973 
L 101.496772 255.692145 
L 101.996474 256.448049 
L 102.496175 256.457096 
L 102.995877 257.069053 
L 103.245728 257.219898 
L 103.495578 256.965741 
L 103.745429 256.899852 
L 104.245131 257.518974 
L 104.744832 257.566395 
L 105.244534 257.738933 
L 105.494384 257.523092 
L 105.994086 257.970141 
L 106.243937 258.019863 
L 106.493787 257.894763 
L 106.993489 258.503607 
L 107.24334 258.532311 
L 107.49319 258.434524 
L 107.743041 258.755569 
L 107.992892 258.585976 
L 108.242743 258.933427 
L 108.492593 258.920395 
L 108.742444 259.126597 
L 108.992295 259.072432 
L 109.491996 259.416611 
L 109.741847 259.348522 
L 110.491399 259.600498 
L 110.991101 260.030716 
L 111.240951 260.233702 
L 111.740653 260.372475 
L 111.990504 260.089941 
L 112.989907 260.362031 
L 113.489608 260.538853 
L 113.98931 260.658989 
L 114.738862 261.136488 
L 115.238563 261.588688 
L 116.737668 261.316684 
L 116.987519 261.393492 
L 117.48722 261.190298 
L 117.986922 261.567973 
L 118.236772 261.289136 
L 118.736474 261.352897 
L 119.985728 261.594322 
L 120.485429 261.375832 
L 120.73528 261.438457 
L 121.234981 261.723509 
L 121.984534 261.99966 
L 122.234384 262.159415 
L 123.483638 262.158741 
L 123.733489 262.070009 
L 124.982743 262.411116 
L 125.482444 262.891098 
L 125.982146 262.817673 
L 126.231996 262.717773 
L 126.981549 263.008131 
L 128.230802 263.308509 
L 128.480653 263.080635 
L 129.230205 263.258002 
L 129.480056 263.179386 
L 130.479459 263.903727 
L 131.229011 263.763468 
L 131.478862 263.496849 
L 131.728713 263.465235 
L 131.978563 263.587229 
L 132.228414 263.460599 
L 132.478265 263.626479 
L 132.728116 263.316041 
L 132.977966 263.463561 
L 133.477668 263.476478 
L 133.727519 263.366611 
L 134.22722 263.580003 
L 134.477071 263.885215 
L 135.476474 263.817055 
L 135.726325 263.989441 
L 136.226026 263.833478 
L 136.975578 263.988563 
L 137.47528 263.898293 
L 137.725131 263.994334 
L 138.224832 264.389169 
L 138.974384 264.413006 
L 139.474086 264.161797 
L 139.723937 264.228629 
L 139.973787 264.512353 
L 140.223638 264.577793 
L 140.97319 264.374675 
L 141.972593 264.547898 
L 142.722146 264.264107 
L 143.221847 264.254636 
L 143.721549 264.132031 
L 145.970205 264.618464 
L 146.719757 264.945783 
L 147.219459 264.974926 
L 147.71916 265.273065 
L 148.468713 265.082466 
L 149.717966 265.599566 
L 149.967817 265.579746 
L 150.467519 265.7674 
L 150.717369 265.876718 
L 151.217071 265.764425 
L 151.716772 265.540119 
L 152.216474 265.748043 
L 152.966026 265.568607 
L 153.215877 265.683635 
L 153.715578 265.597747 
L 153.965429 265.703992 
L 154.21528 265.643452 
L 154.714981 265.941562 
L 154.964832 265.822178 
L 156.463937 266.068511 
L 157.46334 266.079183 
L 158.212892 266.228036 
L 159.711996 266.408118 
L 160.211698 266.665012 
L 160.461549 266.689954 
L 160.96125 266.516004 
L 161.960653 266.518588 
L 162.460354 266.771477 
L 164.20931 266.729701 
L 164.709011 266.826749 
L 164.958862 266.748196 
L 165.458563 266.758698 
L 166.957668 266.363118 
L 168.206922 266.50624 
L 168.456772 266.449723 
L 169.206325 266.816553 
L 169.706026 266.927254 
L 169.955877 267.048472 
L 170.455578 267.067425 
L 171.454981 267.293281 
L 172.204534 267.637414 
L 172.954086 267.744964 
L 173.203937 267.863797 
L 173.453787 267.738465 
L 174.20334 267.921907 
L 174.703041 268.281986 
L 175.202743 268.391542 
L 175.952295 268.190813 
L 176.202146 268.37007 
L 176.701847 268.198431 
L 176.951698 268.330814 
L 177.201549 268.291737 
L 177.70125 268.375347 
L 178.200951 268.476238 
L 178.700653 268.51333 
L 179.450205 268.545362 
L 179.949907 268.854441 
L 180.449608 268.766274 
L 181.19916 268.839078 
L 181.948713 268.673428 
L 182.698265 268.74953 
L 182.948116 268.785915 
L 183.447817 268.554133 
L 183.947519 268.77744 
L 184.44722 268.670966 
L 184.697071 268.609209 
L 186.446026 269.045312 
L 186.945728 269.094847 
L 187.195578 269.110011 
L 187.69528 269.036012 
L 188.194981 269.274426 
L 189.194384 269.040369 
L 189.444235 269.006741 
L 189.694086 269.1457 
L 190.193787 269.063328 
L 190.693489 269.107661 
L 190.94334 268.996368 
L 191.443041 269.137506 
L 191.692892 269.209981 
L 193.441847 268.938832 
L 194.44125 269.011318 
L 194.691101 269.134341 
L 194.940951 269.11392 
L 195.190802 269.248818 
L 196.689907 269.312646 
L 197.189608 269.480267 
L 198.438862 269.35114 
L 199.188414 269.310622 
L 199.688116 269.393031 
L 200.437668 269.219756 
L 200.937369 269.375677 
L 201.437071 269.370021 
L 201.936772 269.436644 
L 202.686325 269.497991 
L 203.186026 269.659597 
L 203.685728 269.668161 
L 203.935578 269.771212 
L 204.43528 269.616069 
L 204.934981 269.709637 
L 205.934384 269.83026 
L 206.683937 269.892097 
L 208.183041 270.095212 
L 209.182444 270.086175 
L 209.432295 270.15807 
L 209.931996 270.104392 
L 210.431698 270.224276 
L 211.930802 270.389544 
L 212.930205 270.403186 
L 213.429907 270.496171 
L 214.42931 270.527116 
L 215.678563 270.719598 
L 216.178265 270.637423 
L 218.177071 270.454928 
L 218.426922 270.480509 
L 218.926623 270.699449 
L 219.426325 270.714422 
L 220.675578 270.744529 
L 220.925429 270.655935 
L 221.674981 270.818974 
L 224.173489 270.804788 
L 224.67319 270.722388 
L 224.923041 270.751399 
L 225.422743 270.629308 
L 226.921847 270.307677 
L 227.421549 270.491407 
L 228.670802 270.415501 
L 228.920653 270.557123 
L 232.918265 270.429789 
L 233.417966 270.491985 
L 233.917668 270.476895 
L 234.417369 270.486223 
L 234.917071 270.33818 
L 239.914086 270.604147 
L 240.913489 270.680445 
L 242.912295 270.828902 
L 244.161549 270.959546 
L 247.409608 270.78226 
L 250.407817 270.9679 
L 250.907519 270.876675 
L 251.906922 271.007268 
L 252.406623 270.996667 
L 252.656474 271.09572 
L 253.406026 271.049097 
L 254.155578 271.068823 
L 255.154981 271.084318 
L 255.654683 270.939182 
L 257.153787 271.091703 
L 257.403638 271.20243 
L 258.15319 271.041337 
L 258.902743 271.10152 
L 259.902146 270.946689 
L 260.401847 270.979113 
L 261.151399 271.105539 
L 261.651101 271.123519 
L 267.397668 271.100836 
L 268.646922 271.133359 
L 269.396474 271.096084 
L 270.395877 270.886754 
L 272.394683 270.749517 
L 273.643937 270.877651 
L 274.393489 270.955953 
L 275.143041 271.047859 
L 275.892593 270.877873 
L 278.391101 271.142086 
L 278.890802 271.069274 
L 279.390504 271.222221 
L 280.639757 271.144346 
L 281.139459 271.308562 
L 282.138862 271.385431 
L 283.138265 271.446516 
L 283.887817 271.50059 
L 284.387519 271.505674 
L 285.886623 271.628297 
L 286.886026 271.794675 
L 287.385728 271.762215 
L 288.13528 271.741861 
L 288.884832 271.685173 
L 295.131101 272.149129 
L 295.630802 272.16493 
L 296.630205 272.289954 
L 297.379757 272.272725 
L 297.879459 272.262313 
L 299.128713 272.329854 
L 300.627817 272.314199 
L 301.127519 272.315853 
L 301.377369 272.293294 
L 301.877071 272.389857 
L 303.126325 272.402307 
L 303.376175 272.497293 
L 303.875877 272.408153 
L 304.87528 272.414651 
L 308.872892 272.655216 
L 312.120951 272.472838 
L 313.869907 272.461823 
L 320.116175 272.31983 
L 321.115578 272.266581 
L 323.114384 272.386163 
L 324.363638 272.455777 
L 326.112593 272.472154 
L 326.862146 272.399809 
L 328.36125 272.49885 
L 328.860951 272.49071 
L 329.610504 272.453294 
L 331.109608 272.442102 
L 333.857966 272.425446 
L 340.853787 272.29174 
L 341.353489 272.249764 
L 341.85319 272.404468 
L 342.852593 272.405599 
L 344.851399 272.495411 
L 346.350504 272.473807 
L 348.34931 272.524 
L 348.849011 272.545331 
L 349.848414 272.574883 
L 350.348116 272.538505 
L 351.84722 272.33315 
L 353.096474 272.413524 
L 353.596175 272.373226 
L 354.345728 272.474169 
L 356.594384 272.649747 
L 357.094086 272.770031 
L 358.59319 272.799713 
L 359.342743 272.727152 
L 366.338563 273.137902 
L 367.337966 273.045688 
L 373.084534 273.144666 
L 373.834086 273.092042 
L 375.583041 273.030398 
L 376.332593 272.971823 
L 377.082146 273.062842 
L 377.581847 273.059191 
L 378.831101 273.055814 
L 380.829907 273.005262 
L 381.329608 272.966858 
L 391.073787 272.980903 
L 392.07319 272.97308 
L 393.322444 272.945932 
L 394.071996 272.941357 
L 394.821549 272.953065 
L 397.569907 272.943468 
L 404.066026 273.235343 
L 405.814981 273.21212 
L 406.314683 273.251231 
L 407.064235 273.229713 
L 409.063041 273.264217 
L 412.560951 273.205469 
L 413.560354 273.308873 
L 417.058265 273.241235 
L 419.556772 273.237582 
L 421.555578 273.335394 
L 430.050504 273.465805 
L 431.299757 273.405926 
L 431.799459 273.418674 
L 436.296772 273.534405 
L 437.296175 273.522911 
L 437.795877 273.568638 
L 438.295578 273.600836 
L 441.543638 273.607159 
L 443.042743 273.673909 
L 444.042146 273.697146 
L 445.291399 273.707303 
L 446.040951 273.701166 
L 448.289608 273.717568 
L 449.538862 273.682248 
L 456.784534 273.751598 
L 457.783937 273.715394 
L 460.032593 273.816386 
L 460.782146 273.894803 
L 462.780951 273.961213 
L 463.780354 274.009692 
L 465.52931 273.984142 
L 466.528713 274.063559 
L 468.277668 274.112086 
L 492.013489 274.265714 
L 495.011698 274.465511 
L 498.259757 274.568862 
L 499.758862 274.626282 
L 501.257966 274.696353 
L 502.257369 274.684574 
L 503.256772 274.711237 
L 505.255578 274.705903 
L 506.254981 274.65699 
L 508.253787 274.70316 
L 510.002743 274.671463 
L 514.000354 274.524165 
L 516.748713 274.460297 
L 517.498265 274.420225 
L 519.24722 274.480889 
L 521.745728 274.474749 
L 524.494086 274.480022 
L 526.243041 274.474918 
L 531.989608 274.682146 
L 532.989011 274.737297 
L 533.988414 274.668745 
L 534.488116 274.659329 
L 534.987817 274.653245 
L 535.487519 274.594635 
L 536.237071 274.668807 
L 538.985429 274.703625 
L 539.984832 274.726206 
L 542.233489 274.712284 
L 545.98125 274.812843 
L 545.98125 274.812843 
" style="fill:none;stroke:#b22222;stroke-linecap:square;stroke-width:1.5;"/>
   </g>
   <g id="line2d_15">
    <path clip-path="url(#p481101b2a6)" d="M 46.279757 10.999219 
L 46.304743 23.525464 
L 46.454653 138.43643 
L 46.479638 141.840991 
L 46.604563 195.25014 
L 46.629549 194.357505 
L 46.854414 222.489849 
L 46.879399 222.426067 
L 46.904384 216.7822 
L 46.954354 223.724149 
L 46.97934 221.136209 
L 47.12925 231.088387 
L 47.154235 230.235714 
L 47.17922 225.416035 
L 47.254175 230.698425 
L 47.354116 233.448809 
L 47.379101 232.044709 
L 47.404086 228.626087 
L 47.479041 231.366248 
L 47.504026 233.55087 
L 47.553996 231.274463 
L 47.653937 227.318241 
L 47.603966 232.705762 
L 47.678922 228.398238 
L 47.703907 231.108018 
L 47.803847 230.21111 
L 47.978743 226.867428 
L 48.228593 237.747207 
L 48.253578 237.247601 
L 48.278563 237.407927 
L 48.353519 235.366273 
L 48.328534 237.559452 
L 48.378504 236.363117 
L 48.528414 239.441391 
L 48.578384 238.582191 
L 48.628354 239.309655 
L 48.70331 242.219719 
L 48.778265 241.884797 
L 48.80325 241.975556 
L 48.95316 244.45056 
L 49.003131 243.032437 
L 49.028116 243.821283 
L 49.178026 247.139158 
L 49.203011 246.345704 
L 49.252981 247.384071 
L 49.327937 248.085157 
L 49.352922 247.344766 
L 49.452862 247.829785 
L 49.427877 247.027192 
L 49.477847 247.685481 
L 49.502832 246.790955 
L 49.552802 248.541737 
L 49.652743 249.892836 
L 49.677728 248.817959 
L 49.777668 247.244029 
L 49.827638 248.013625 
L 49.852623 248.439319 
L 49.877608 247.903672 
L 50.027519 246.489679 
L 50.052504 247.261061 
L 50.127459 246.678215 
L 50.152444 246.710829 
L 50.177429 246.240448 
L 50.202414 247.019824 
L 50.37731 250.031172 
L 50.402295 249.275001 
L 50.777071 252.888443 
L 50.802056 252.587019 
L 50.852026 252.081736 
L 50.926981 253.083443 
L 50.976951 252.790432 
L 51.001937 252.95065 
L 51.026922 252.832274 
L 51.051907 252.5248 
L 51.076892 253.402649 
L 51.276772 256.6622 
L 51.301757 256.576426 
L 51.326743 256.481371 
L 51.351728 256.570072 
L 51.401698 256.421333 
L 51.451668 257.734776 
L 51.576593 259.19241 
L 51.601578 259.065433 
L 51.626563 258.709247 
L 51.651549 259.338425 
L 51.701519 259.121954 
L 51.751489 258.88641 
L 51.776474 259.214643 
L 52.076295 262.517038 
L 52.126265 262.211412 
L 52.176235 262.267758 
L 52.30116 262.888149 
L 52.351131 263.550065 
L 52.476056 264.65632 
L 52.501041 264.638542 
L 52.551011 264.305693 
L 52.600981 264.685245 
L 52.675937 264.670273 
L 52.700922 265.191527 
L 52.800862 263.868972 
L 52.825847 264.042817 
L 52.875817 264.610927 
L 52.900802 265.206681 
L 52.975757 264.785252 
L 53.000743 264.903198 
L 53.050713 264.607235 
L 53.075698 264.244699 
L 53.150653 264.326718 
L 53.250593 264.766069 
L 53.275578 264.516968 
L 53.325549 264.445633 
L 53.400504 264.692698 
L 53.425489 264.524227 
L 53.450474 264.784705 
L 53.500444 265.301717 
L 53.525429 265.01623 
L 53.550414 264.630881 
L 53.600384 265.255503 
L 53.625369 265.460431 
L 53.650354 265.142141 
L 53.67534 265.140637 
L 53.700325 264.830066 
L 53.72531 265.221813 
L 53.750295 265.204947 
L 53.800265 265.660653 
L 53.850235 265.196351 
L 53.900205 265.256489 
L 54.025131 264.535965 
L 54.050116 264.793747 
L 54.175041 265.726165 
L 54.200026 265.507409 
L 54.274981 265.409853 
L 54.324951 266.079362 
L 54.399907 265.627316 
L 54.449877 265.254919 
L 54.474862 265.315422 
L 54.574802 265.866315 
L 54.599787 265.767515 
L 54.699728 266.241141 
L 54.724713 265.433626 
L 54.799668 265.729971 
L 54.899608 266.741073 
L 54.924593 266.404408 
L 54.974563 266.508714 
L 54.999549 266.303492 
L 55.099489 265.434308 
L 55.149459 265.810664 
L 55.274384 266.675658 
L 55.299369 266.628835 
L 55.524235 265.075435 
L 55.54922 265.153827 
L 55.574205 265.088411 
L 55.59919 264.846885 
L 55.64916 264.930132 
L 55.824056 266.128232 
L 55.849041 266.108729 
L 55.874026 265.868429 
L 55.948981 265.900565 
L 56.073907 266.337424 
L 56.098892 266.319557 
L 56.248802 266.600735 
L 56.273787 266.412783 
L 56.298772 266.770013 
L 56.348743 266.363352 
L 56.498653 265.559187 
L 56.523638 265.64404 
L 56.598593 266.014849 
L 56.648563 265.810712 
L 56.723519 266.037123 
L 56.898414 264.692373 
L 57.07331 265.430194 
L 57.17325 266.014637 
L 57.22322 265.743898 
L 57.248205 265.635753 
L 57.27319 265.66082 
L 57.398116 266.719274 
L 57.573011 266.126494 
L 57.597996 266.19627 
L 57.722922 267.088556 
L 57.797877 266.764178 
L 57.947787 266.98268 
L 57.997757 267.47264 
L 58.072713 267.297678 
L 58.272593 267.961038 
L 58.122683 267.152348 
L 58.322563 267.774168 
L 58.347549 267.739492 
L 58.472474 268.47169 
L 58.522444 268.363554 
L 58.572414 268.217187 
L 58.622384 268.302514 
L 58.647369 268.396664 
L 58.69734 268.279563 
L 58.84725 267.540862 
L 59.172056 268.938642 
L 59.197041 268.86735 
L 59.222026 268.600242 
L 59.321966 268.717914 
L 59.396922 268.760009 
L 59.446892 268.368439 
L 59.496862 268.844124 
L 59.571817 268.996039 
L 59.746713 269.56294 
L 59.796683 269.446892 
L 59.846653 269.141922 
L 59.896623 269.555754 
L 59.971578 269.206923 
L 60.046534 269.256484 
L 60.146474 269.769941 
L 60.246414 270.235311 
L 60.296384 270.159414 
L 60.321369 270.222074 
L 60.346354 270.589764 
L 60.396325 270.210985 
L 60.42131 270.254455 
L 60.596205 269.76062 
L 60.62119 270.084429 
L 60.696146 269.750109 
L 60.821071 269.096555 
L 60.871041 269.387381 
L 60.945996 269.768234 
L 60.995966 269.74272 
L 61.045937 269.737603 
L 61.295787 270.776635 
L 61.370743 270.754988 
L 61.645578 269.878168 
L 61.670563 269.960928 
L 61.745519 270.109241 
L 61.770504 269.767082 
L 61.845459 269.975621 
L 61.870444 270.030999 
L 61.920414 270.401455 
L 61.970384 270.215337 
L 62.020354 270.299671 
L 62.09531 270.114862 
L 62.170265 270.29419 
L 62.270205 270.241819 
L 62.29519 270.224541 
L 62.495071 269.327037 
L 62.644981 269.557673 
L 62.869847 268.590564 
L 63.044743 268.796543 
L 63.069728 268.442045 
L 63.169668 268.489651 
L 63.269608 268.834948 
L 63.319578 268.619855 
L 63.344563 268.507972 
L 63.394534 268.718383 
L 63.619399 269.221991 
L 63.644384 269.168947 
L 63.669369 269.174357 
L 63.694354 269.334316 
L 63.71934 269.044824 
L 63.76931 269.145036 
L 63.81928 268.972595 
L 63.86925 269.127862 
L 63.944205 269.393133 
L 63.96919 269.167897 
L 64.044146 269.067924 
L 64.069131 269.102653 
L 64.194056 269.442964 
L 64.219041 269.225393 
L 64.443907 268.332544 
L 64.518862 268.629227 
L 64.568832 268.519202 
L 64.668772 268.251795 
L 64.693757 268.365046 
L 64.843668 269.001676 
L 64.943608 268.912662 
L 65.068534 269.411993 
L 65.093519 269.341456 
L 65.143489 269.156989 
L 65.193459 269.360509 
L 65.268414 269.570445 
L 65.318384 269.558303 
L 65.468295 269.108729 
L 65.49328 269.136973 
L 65.64319 269.629974 
L 65.69316 269.452995 
L 65.743131 269.594486 
L 65.918026 269.536428 
L 65.943011 269.579051 
L 65.967996 269.600317 
L 66.042951 269.965742 
L 66.092922 269.802582 
L 66.317787 269.343132 
L 66.342772 269.385178 
L 66.517668 270.084194 
L 66.617608 269.771611 
L 66.667578 269.827183 
L 66.717549 270.058133 
L 66.792504 269.943743 
L 66.967399 269.484427 
L 66.992384 269.506052 
L 67.21725 270.228704 
L 67.666981 271.084902 
L 67.691966 271.017855 
L 67.716951 270.920502 
L 67.766922 271.12705 
L 67.816892 271.374105 
L 67.891847 271.259469 
L 67.916832 271.069227 
L 67.991787 271.152615 
L 68.016772 271.23261 
L 68.091728 271.133161 
L 68.141698 271.334656 
L 68.166683 271.150812 
L 68.316593 270.657458 
L 68.516474 271.261366 
L 68.566444 271.102554 
L 68.716354 270.818977 
L 68.74134 270.937208 
L 68.84128 270.988378 
L 68.866265 270.80958 
L 68.94122 270.945655 
L 68.966205 271.137019 
L 69.04116 270.912738 
L 69.166086 270.695605 
L 69.241041 270.713554 
L 69.365966 270.404604 
L 69.390951 270.426443 
L 69.565847 270.841369 
L 69.590832 270.771962 
L 69.665787 270.887514 
L 69.765728 271.224908 
L 69.790713 271.177107 
L 69.840683 271.083208 
L 69.890653 271.225684 
L 70.115519 271.614874 
L 70.165489 271.80234 
L 70.240444 271.690912 
L 70.56525 271.089953 
L 70.590235 271.11575 
L 70.765131 271.846306 
L 70.790116 272.030508 
L 70.890056 271.984901 
L 70.940026 272.110946 
L 70.989996 271.972038 
L 71.239847 271.86091 
L 71.264832 271.690355 
L 71.339787 271.804352 
L 71.389757 271.91133 
L 71.414743 271.840454 
L 71.464713 271.711373 
L 71.539668 271.751617 
L 71.689578 271.94067 
L 71.739549 271.744661 
L 71.789519 271.933758 
L 71.914444 272.284303 
L 71.939429 272.196153 
L 72.164295 272.448263 
L 72.214265 272.329984 
L 72.23925 272.257241 
L 72.264235 272.361684 
L 72.28922 272.314461 
L 72.364175 272.491006 
L 72.38916 272.401201 
L 72.464116 272.369857 
L 72.514086 272.487645 
L 72.589041 272.452657 
L 72.639011 272.40367 
L 72.688981 272.514912 
L 72.713966 272.392923 
L 72.763937 272.518128 
L 72.813907 272.741679 
L 72.863877 272.554381 
L 72.963817 272.453029 
L 73.013787 272.141721 
L 73.113728 272.157866 
L 73.213668 272.301561 
L 73.263638 272.144013 
L 73.363578 271.98981 
L 73.388563 272.063216 
L 73.638414 271.760989 
L 73.663399 271.806783 
L 73.81331 272.106433 
L 73.86328 272.07712 
L 73.91325 272.132386 
L 74.088146 272.171648 
L 74.113131 272.070937 
L 74.163101 272.225882 
L 74.288026 272.346011 
L 74.337996 272.44077 
L 74.387966 272.302256 
L 74.412951 272.346224 
L 74.437937 272.229729 
L 74.462922 272.236274 
L 74.712772 272.325124 
L 74.737757 272.190356 
L 74.812713 272.317544 
L 74.962623 272.4679 
L 75.012593 272.314113 
L 75.087549 272.365444 
L 75.162504 272.128775 
L 75.237459 272.2007 
L 75.412354 271.767741 
L 75.48731 271.71135 
L 75.562265 271.886845 
L 75.63722 271.670949 
L 75.662205 271.774443 
L 75.862086 272.268958 
L 75.887071 272.241558 
L 75.987011 271.81413 
L 76.011996 271.941151 
L 76.061966 272.065398 
L 76.086951 271.97837 
L 76.211877 271.786445 
L 76.511698 272.14078 
L 76.561668 271.913375 
L 76.636623 272.054997 
L 76.936444 272.013465 
L 76.961429 271.961493 
L 76.986414 272.078297 
L 77.011399 272.067101 
L 77.086354 272.011155 
L 77.16131 271.996499 
L 77.136325 272.063367 
L 77.186295 272.04629 
L 77.536086 272.494312 
L 77.561071 272.405311 
L 77.611041 272.527332 
L 77.661011 272.453203 
L 77.960832 273.06456 
L 78.035787 272.918477 
L 78.060772 273.056533 
L 78.135728 273.075267 
L 78.160713 273.034084 
L 78.310623 272.956907 
L 78.510504 273.364765 
L 78.610444 273.188184 
L 78.635429 273.270512 
L 78.710384 273.310807 
L 78.735369 273.28054 
L 78.760354 273.186749 
L 78.78534 273.409943 
L 78.83531 273.292367 
L 78.910265 273.273877 
L 78.88528 273.221378 
L 78.93525 273.248 
L 79.010205 273.127185 
L 79.08516 273.242588 
L 79.135131 273.391398 
L 79.210086 273.322708 
L 79.434951 273.611283 
L 79.534892 273.469404 
L 79.559877 273.476413 
L 79.784743 273.706304 
L 79.959638 273.940735 
L 79.984623 274.022496 
L 80.034593 273.871062 
L 80.059578 273.960779 
L 80.109549 273.850908 
L 80.134534 273.968057 
L 80.259459 274.116634 
L 80.409369 274.019081 
L 80.434354 274.039432 
L 80.45934 273.958442 
L 80.75916 273.443471 
L 80.784146 273.584153 
L 81.009011 273.719294 
L 81.033996 273.749642 
L 81.158922 273.464157 
L 81.258862 273.859674 
L 81.333817 273.686037 
L 81.358802 273.710328 
L 81.408772 273.625784 
L 81.558683 273.401422 
L 81.608653 273.567648 
L 81.883489 273.953977 
L 82.033399 274.008131 
L 82.108354 274.157697 
L 82.158325 274.141706 
L 82.18331 274.094637 
L 82.208295 274.178298 
L 82.23328 274.174342 
L 82.43316 274.523011 
L 82.458146 274.492248 
L 82.608056 274.270057 
L 82.932862 274.801541 
L 83.232683 274.517507 
L 83.282653 274.592076 
L 83.432563 274.645066 
L 83.557489 274.575392 
L 83.707399 274.779853 
L 83.732384 274.736492 
L 83.782354 274.782594 
L 83.882295 274.920225 
L 83.90728 274.908429 
L 84.10716 274.724174 
L 84.132146 274.79406 
L 84.182116 274.739704 
L 84.307041 274.562965 
L 84.332026 274.604938 
L 84.357011 274.642969 
L 84.406981 274.583522 
L 84.606862 274.362136 
L 84.856713 274.523174 
L 84.981638 274.415576 
L 85.106563 274.483993 
L 85.206504 274.243789 
L 85.256474 274.339801 
L 85.406384 274.275689 
L 85.431369 274.345972 
L 85.506325 274.228737 
L 85.73119 274.304894 
L 85.881101 274.482795 
L 85.906086 274.34891 
L 86.255877 274.290425 
L 86.305847 274.490091 
L 86.380802 274.390424 
L 86.455757 274.350858 
L 86.480743 274.450851 
L 86.555698 274.344761 
L 86.730593 274.330241 
L 86.830534 274.293471 
L 86.855519 274.331243 
L 87.030414 274.641586 
L 87.20531 274.447036 
L 87.330235 274.251561 
L 87.380205 274.32093 
L 87.40519 274.30501 
L 87.530116 274.499601 
L 87.555101 274.439918 
L 87.580086 274.538109 
L 87.630056 274.548138 
L 87.680026 274.586329 
L 87.829937 274.394554 
L 87.879907 274.411087 
L 87.929877 274.347751 
L 88.404593 274.301579 
L 88.429578 274.26632 
L 88.454563 274.351357 
L 88.479549 274.333686 
L 88.579489 274.458702 
L 88.604474 274.422113 
L 88.779369 274.363811 
L 88.904295 274.386968 
L 89.07919 274.252705 
L 89.254086 274.381704 
L 89.279071 274.288043 
L 89.379011 274.251486 
L 89.403996 274.314581 
L 89.628862 274.256959 
L 89.803757 273.947686 
L 89.828743 273.996932 
L 89.928683 274.058946 
L 89.953668 274.030618 
L 89.978653 273.934708 
L 90.053608 274.007543 
L 90.203519 274.043649 
L 90.378414 273.988632 
L 90.50334 274.080257 
L 90.65325 274.141165 
L 90.678235 274.080817 
L 90.75319 274.12762 
L 90.778175 274.151199 
L 90.828146 274.066526 
L 91.252892 274.134099 
L 91.377817 274.199816 
L 91.527728 274.306534 
L 91.552713 274.231951 
L 91.602683 274.231375 
L 91.752593 274.44169 
L 91.902504 274.518349 
L 91.977459 274.365018 
L 92.052414 274.43698 
L 92.252295 274.678252 
L 92.27728 274.58909 
L 92.402205 274.487773 
L 92.42719 274.511299 
L 92.926892 274.392942 
L 93.051817 274.429134 
L 93.526534 274.611732 
L 93.676444 274.733452 
L 94.076205 274.690085 
L 94.301071 274.584936 
L 94.475966 274.647619 
L 94.600892 274.745997 
L 94.700832 274.9009 
L 94.750802 274.851677 
L 94.925698 274.910852 
L 94.950683 274.854978 
L 95.000653 274.754941 
L 95.075608 274.799628 
L 95.225519 274.79575 
L 95.325459 274.690112 
L 95.350444 274.73453 
L 95.425399 274.916424 
L 95.500354 274.840004 
L 95.62528 274.997888 
L 95.67525 274.966886 
L 95.950086 274.864412 
L 96.050026 274.672243 
L 96.099996 274.704471 
L 96.399817 274.96026 
L 96.449787 274.890558 
L 96.774593 274.804437 
L 96.799578 274.884131 
L 97.39922 274.880814 
L 97.549131 274.74649 
L 97.823966 275.012603 
L 97.848951 274.994181 
L 97.873937 275.111066 
L 98.173757 275.096391 
L 98.323668 274.930065 
L 98.423608 274.958823 
L 98.448593 274.924277 
L 98.648474 274.605599 
L 98.898325 274.658017 
L 99.07322 274.66571 
L 99.198146 274.657235 
L 99.298086 274.647276 
L 99.348056 274.567038 
L 99.423011 274.621542 
L 99.447996 274.691867 
L 99.522951 274.608647 
L 99.647877 274.594479 
L 99.747817 274.513157 
L 99.772802 274.58773 
L 100.022653 275.047286 
L 100.072623 274.985676 
L 100.59731 274.811547 
L 100.622295 274.836792 
L 100.64728 274.790817 
L 100.672265 274.723988 
L 100.74722 274.808845 
L 101.022056 274.639455 
L 101.047041 274.710881 
L 101.196951 274.844184 
L 101.221937 274.784439 
L 101.296892 274.836903 
L 101.496772 274.871766 
L 101.571728 274.950279 
L 101.596713 274.874778 
L 101.646683 274.733755 
L 101.721638 274.842715 
L 102.021459 274.830407 
L 102.671071 274.442707 
L 102.820981 274.579753 
L 102.845966 274.554084 
L 102.945907 274.48905 
L 102.970892 274.525344 
L 103.095817 274.575345 
L 103.270713 274.449845 
L 103.295698 274.494008 
L 103.345668 274.391406 
L 103.370653 274.439403 
L 103.595519 274.203946 
L 103.620504 274.259461 
L 103.670474 274.29951 
L 103.695459 274.202176 
L 103.845369 274.18381 
L 104.020265 274.5344 
L 104.04525 274.472179 
L 104.320086 274.363877 
L 104.569937 274.626804 
L 104.619907 274.705783 
L 104.794802 274.870124 
L 104.894743 274.795579 
L 105.069638 274.679996 
L 105.144593 274.59534 
L 105.269519 274.399001 
L 105.319489 274.47344 
L 105.419429 274.555137 
L 105.76922 274.710688 
L 105.919131 274.533674 
L 105.944116 274.601792 
L 106.094026 274.726993 
L 106.243937 274.600356 
L 106.393847 274.697091 
L 106.493787 274.631498 
L 106.518772 274.685448 
L 106.693668 274.816444 
L 106.843578 274.682901 
L 106.868563 274.700448 
L 106.943519 274.761805 
L 107.268325 274.974143 
L 107.39325 274.798876 
L 107.418235 274.820728 
L 107.743041 274.961342 
L 107.793011 274.944784 
L 107.817996 274.96617 
L 107.917937 275.01912 
L 107.942922 275.007687 
L 108.117817 275.133171 
L 108.167787 275.084363 
L 108.292713 275.105665 
L 108.442623 275.193281 
L 108.667489 275.476671 
L 108.692474 275.427632 
L 108.842384 275.415786 
L 108.892354 275.487063 
L 108.942325 275.396459 
L 109.042265 275.385945 
L 109.06725 275.40993 
L 109.566951 275.49223 
L 109.791817 275.551277 
L 109.841787 275.48082 
L 109.891757 275.557853 
L 110.141608 275.782346 
L 110.166593 275.762662 
L 110.266534 275.772116 
L 110.291519 275.733336 
L 110.766235 275.854722 
L 110.89116 275.814446 
L 111.041071 275.851293 
L 111.165996 275.789225 
L 111.240951 275.817379 
L 111.265937 275.783839 
L 111.590743 275.414768 
L 111.815608 275.634873 
L 111.865578 275.692026 
L 111.915549 275.601602 
L 112.065459 275.504813 
L 112.190384 275.568927 
L 112.26534 275.452753 
L 112.31531 275.503397 
L 112.340295 275.529664 
L 112.390265 275.425975 
L 112.815011 275.402002 
L 112.839996 275.339587 
L 112.914951 275.391126 
L 113.089847 275.403661 
L 113.314713 275.281363 
L 113.639519 275.290789 
L 113.664504 275.247188 
L 113.714474 275.34075 
L 113.839399 275.24365 
L 114.03928 275.166823 
L 114.738862 275.302124 
L 114.788832 275.238339 
L 114.863787 275.284252 
L 115.013698 275.35645 
L 115.063668 275.291284 
L 115.113638 275.361599 
L 115.413459 275.450255 
L 115.66331 275.306968 
L 115.938146 275.482095 
L 116.138026 275.30175 
L 116.187996 275.358326 
L 116.412862 275.485303 
L 116.437847 275.42764 
L 116.512802 275.518343 
L 116.687698 275.42791 
L 116.787638 275.534148 
L 116.912563 275.425496 
L 116.987519 275.502222 
L 117.037489 275.43299 
L 117.212384 275.418271 
L 117.462235 275.446817 
L 117.562175 275.577937 
L 117.612146 275.499841 
L 117.911966 275.700588 
L 118.036892 275.633393 
L 118.061877 275.66772 
L 118.136832 275.731129 
L 118.186802 275.641778 
L 118.486623 275.626154 
L 118.686504 275.722124 
L 118.786444 275.769912 
L 118.811429 275.732607 
L 119.086265 275.606117 
L 119.236175 275.720108 
L 119.411071 275.701357 
L 119.535996 275.760508 
L 119.710892 275.821319 
L 119.960743 275.751803 
L 120.160623 275.72447 
L 120.285549 275.694152 
L 120.460444 275.5887 
L 120.68531 275.409584 
L 120.910175 275.622432 
L 121.110056 275.389751 
L 121.334922 275.452972 
L 121.434862 275.50575 
L 121.584772 275.58287 
L 121.709698 275.531645 
L 121.759668 275.545051 
L 121.784653 275.499839 
L 121.934563 275.454081 
L 122.109459 275.506585 
L 122.334325 275.588197 
L 122.45925 275.727357 
L 122.484235 275.682832 
L 122.659131 275.669706 
L 122.883996 275.740028 
L 122.983937 275.782083 
L 123.133847 275.784733 
L 123.308743 275.739269 
L 123.658534 275.757016 
L 123.708504 275.802507 
L 123.758474 275.742731 
L 123.933369 275.786835 
L 124.058295 275.860377 
L 124.28316 276.027749 
L 124.333131 275.928909 
L 124.408086 275.965842 
L 124.607966 275.956003 
L 124.682922 276.03472 
L 124.732892 275.992019 
L 125.032713 276.08456 
L 125.207608 276.156064 
L 125.357519 276.080708 
L 125.482444 276.056189 
L 125.65734 275.945635 
L 125.782265 276.090478 
L 125.80725 276.07233 
L 125.95716 276.000156 
L 126.107071 276.106644 
L 126.481847 276.045104 
L 126.656743 275.88834 
L 126.756683 275.915398 
L 126.781668 275.880889 
L 127.231399 275.795208 
L 127.356325 275.781559 
L 127.556205 275.724266 
L 127.656146 275.752898 
L 127.681131 275.728177 
L 127.781071 275.703182 
L 127.806056 275.739265 
L 131.104086 275.80142 
L 131.253996 275.843164 
L 131.428892 275.727364 
L 131.778683 275.703658 
L 132.078504 275.597795 
L 132.178444 275.527338 
L 132.203429 275.546433 
L 132.528235 275.598397 
L 132.728116 275.752393 
L 132.903011 275.781969 
L 133.077907 275.690147 
L 133.102892 275.720795 
L 133.227817 275.762256 
L 133.252802 275.730308 
L 133.327757 275.703623 
L 133.377728 275.761233 
L 133.577608 275.779253 
L 133.727519 275.818949 
L 133.852444 275.789023 
L 133.977369 275.734449 
L 134.452086 275.732325 
L 134.851847 275.806023 
L 135.051728 275.750814 
L 135.451489 275.825292 
L 135.501459 275.803346 
L 135.551429 275.869244 
L 135.75131 275.914575 
L 135.85125 275.937342 
L 136.00116 275.97318 
L 136.126086 275.97264 
L 136.325966 276.120491 
L 137.025549 275.981559 
L 137.150474 275.971639 
L 137.300384 275.924727 
L 137.42531 275.921067 
L 137.47528 275.865307 
L 137.550235 275.913758 
L 137.700146 275.903984 
L 137.825071 275.877699 
L 138.049937 275.947721 
L 138.249817 275.813067 
L 138.349757 275.869052 
L 138.374743 275.832879 
L 138.574623 275.641448 
L 138.699549 275.664802 
L 138.724534 275.713076 
L 138.799489 275.652628 
L 139.124295 275.605025 
L 139.324175 275.711094 
L 139.474086 275.678472 
L 139.748922 275.78921 
L 139.923817 275.85885 
L 140.073728 275.866498 
L 140.223638 275.913158 
L 140.448504 276.083188 
L 140.623399 276.060536 
L 140.82328 276.010923 
L 141.073131 275.978293 
L 141.273011 275.85848 
L 141.297996 275.882729 
L 141.697757 275.922089 
L 141.772713 275.936507 
L 141.797698 275.884593 
L 142.622205 275.89279 
L 142.797101 275.909294 
L 142.847071 275.907779 
L 142.872056 275.944474 
L 143.021966 275.989071 
L 143.121907 275.977977 
L 143.146892 276.031261 
L 143.846474 276.312012 
L 143.971399 276.342188 
L 144.196265 276.409003 
L 144.27122 276.450412 
L 144.296205 276.409413 
L 144.421131 276.452472 
L 146.319996 276.283493 
L 146.519877 276.16085 
L 146.919638 276.138223 
L 147.044563 276.135046 
L 147.494295 276.199832 
L 147.644205 276.308665 
L 148.043966 276.422736 
L 148.218862 276.432663 
L 148.443728 276.549524 
L 148.793519 276.496157 
L 148.918444 276.568819 
L 148.943429 276.531625 
L 149.568056 276.557529 
L 149.667996 276.540219 
L 149.692981 276.571141 
L 149.967817 276.625614 
L 150.417549 276.661311 
L 150.542474 276.642658 
L 150.692384 276.702845 
L 150.81731 276.724347 
L 150.96722 276.737734 
L 151.06716 276.612065 
L 151.117131 276.655264 
L 151.341996 276.704496 
L 151.491907 276.761172 
L 151.641817 276.722344 
L 151.766743 276.765544 
L 151.791728 276.746569 
L 152.066563 276.745104 
L 152.166504 276.775191 
L 152.366384 276.778287 
L 153.040981 276.68563 
L 153.240862 276.717121 
L 153.490713 276.699247 
L 153.665608 276.737332 
L 154.16531 276.728072 
L 154.340205 276.774497 
L 154.590056 276.66209 
L 154.739966 276.671719 
L 154.914862 276.729764 
L 155.264653 276.728566 
L 155.489519 276.622939 
L 155.639429 276.695583 
L 155.764354 276.672689 
L 156.788743 276.548365 
L 157.088563 276.583986 
L 157.188504 276.519126 
L 157.213489 276.557368 
L 157.288444 276.595321 
L 157.338414 276.563993 
L 158.237877 276.60292 
L 158.362802 276.695666 
L 158.387787 276.667475 
L 158.537698 276.642144 
L 158.762563 276.631137 
L 158.987429 276.639102 
L 159.662026 276.592382 
L 159.811937 276.600472 
L 160.236683 276.650586 
L 160.511519 276.685421 
L 160.761369 276.742754 
L 160.936265 276.66236 
L 161.361011 276.633721 
L 161.460951 276.665635 
L 161.485937 276.642274 
L 161.635847 276.570888 
L 161.660832 276.599164 
L 161.785757 276.642435 
L 161.810743 276.605171 
L 161.960653 276.594162 
L 163.709608 276.598774 
L 163.884504 276.669651 
L 164.009429 276.743274 
L 164.20931 276.78178 
L 165.133757 276.929283 
L 165.358623 276.909632 
L 165.858325 276.949392 
L 165.958265 276.892364 
L 165.98325 276.905637 
L 166.108175 276.853571 
L 166.233101 276.909835 
L 166.607877 276.933002 
L 167.432384 276.838782 
L 167.632265 276.875605 
L 167.65725 276.836444 
L 167.732205 276.888768 
L 167.907101 276.819521 
L 168.007041 276.760158 
L 168.032026 276.796067 
L 168.131966 276.766141 
L 168.506743 276.735652 
L 168.981459 276.707807 
L 169.156354 276.643966 
L 169.406205 276.638164 
L 169.656056 276.657878 
L 169.805966 276.624658 
L 170.105787 276.719541 
L 170.305668 276.651243 
L 170.605489 276.54323 
L 171.080205 276.612929 
L 171.15516 276.560857 
L 171.205131 276.588077 
L 171.704832 276.657149 
L 171.854743 276.601687 
L 172.079608 276.620277 
L 172.279489 276.747386 
L 172.304474 276.715697 
L 172.429399 276.688327 
L 172.604295 276.721899 
L 172.879131 276.762662 
L 173.079011 276.733881 
L 173.478772 276.780553 
L 173.678653 276.789809 
L 174.278295 276.89969 
L 174.478175 276.849214 
L 174.802981 276.895119 
L 175.002862 276.92125 
L 175.727429 276.950125 
L 175.952295 276.86099 
L 176.202146 276.973433 
L 176.476981 276.982862 
L 176.776802 276.886911 
L 176.926713 276.903721 
L 177.176563 276.960223 
L 177.60131 276.973627 
L 177.80119 276.970717 
L 179.075429 277.077615 
L 179.250325 277.07636 
L 179.625101 277.07567 
L 179.799996 277.101574 
L 180.224743 277.210728 
L 180.349668 277.188256 
L 180.599519 277.268537 
L 180.824384 277.232167 
L 181.024265 277.292185 
L 181.249131 277.342416 
L 183.822593 277.095021 
L 183.997489 277.042647 
L 184.172384 277.086386 
L 184.44722 277.086896 
L 184.672086 277.133638 
L 186.246146 277.230259 
L 186.446026 277.16429 
L 186.645907 277.216875 
L 186.770832 277.280211 
L 186.895757 277.280414 
L 187.070653 277.271386 
L 187.270534 277.283407 
L 187.395459 277.270966 
L 187.69528 277.229849 
L 189.094444 277.27421 
L 189.219369 277.32455 
L 189.244354 277.305865 
L 189.594146 277.225005 
L 190.093847 277.292351 
L 190.543578 277.388701 
L 190.668504 277.419513 
L 192.967131 277.400767 
L 194.041489 277.561622 
L 194.216384 277.571067 
L 194.816026 277.50961 
L 194.965937 277.538007 
L 195.915369 277.492447 
L 196.06528 277.469597 
L 196.515011 277.374289 
L 196.764862 277.393744 
L 197.014713 277.435691 
L 197.314534 277.433793 
L 198.238981 277.552855 
L 198.663728 277.653689 
L 198.838623 277.693307 
L 199.063489 277.716542 
L 199.213399 277.664632 
L 199.36331 277.648672 
L 199.61316 277.599501 
L 199.838026 277.657294 
L 199.937966 277.632178 
L 199.962951 277.677499 
L 200.112862 277.689701 
L 200.287757 277.700496 
L 200.612563 277.723174 
L 200.912384 277.743408 
L 201.412086 277.618331 
L 201.561996 277.590055 
L 202.061698 277.539715 
L 202.76128 277.724167 
L 203.235996 277.612967 
L 203.310951 277.645878 
L 203.335937 277.605015 
L 203.460862 277.600304 
L 203.710713 277.582907 
L 203.835638 277.556353 
L 204.060504 277.645032 
L 204.260384 277.613698 
L 204.410295 277.643032 
L 204.660146 277.702158 
L 204.785071 277.694224 
L 205.009937 277.665538 
L 205.309757 277.689011 
L 206.883817 277.747245 
L 207.158653 277.7123 
L 207.358534 277.680631 
L 207.458474 277.706492 
L 207.73331 277.733961 
L 207.98316 277.692878 
L 208.083101 277.676086 
L 208.357937 277.695818 
L 209.107489 277.737313 
L 209.307369 277.7766 
L 209.482265 277.722512 
L 212.055728 277.492757 
L 212.230623 277.518684 
L 212.830265 277.584927 
L 213.230026 277.601054 
L 215.053937 277.675726 
L 215.528653 277.657257 
L 215.878444 277.688147 
L 216.328175 277.793535 
L 216.503071 277.85271 
L 217.027757 277.868063 
L 217.377549 277.857394 
L 218.551847 277.757908 
L 218.876653 277.780727 
L 219.101519 277.741764 
L 221.22525 277.778722 
L 221.649996 277.758446 
L 221.999787 277.792425 
L 222.174683 277.793721 
L 222.374563 277.782045 
L 222.524474 277.756985 
L 222.699369 277.731009 
L 223.249041 277.675014 
L 223.398951 277.732664 
L 223.973608 277.781168 
L 224.298414 277.801894 
L 224.823101 277.833367 
L 225.147907 277.777878 
L 225.697578 277.764022 
L 226.172295 277.804906 
L 226.29722 277.752007 
L 226.322205 277.771279 
L 226.472116 277.776788 
L 227.021787 277.646073 
L 227.246653 277.657232 
L 228.096146 277.62014 
L 228.420951 277.683065 
L 228.620832 277.738539 
L 228.870683 277.73834 
L 230.194892 277.61426 
L 230.394772 277.630807 
L 231.044384 277.643578 
L 231.26925 277.687293 
L 231.569071 277.671882 
L 231.943847 277.721245 
L 232.968235 277.732779 
L 233.09316 277.747774 
L 234.317429 277.731208 
L 234.692205 277.768893 
L 234.792146 277.751081 
L 234.817131 277.776311 
L 235.491728 277.817982 
L 235.716593 277.890431 
L 235.866504 277.890911 
L 236.765966 277.818286 
L 237.115757 277.824861 
L 237.390593 277.827908 
L 237.665429 277.891644 
L 238.140146 277.872923 
L 238.365011 277.92002 
L 238.589877 277.956549 
L 241.538116 277.927818 
L 241.762981 278.000709 
L 241.912892 278.031125 
L 242.512534 278.111757 
L 244.66125 278.203192 
L 244.836146 278.280458 
L 245.410802 278.277991 
L 245.560713 278.290334 
L 246.535131 278.315638 
L 247.184743 278.350059 
L 247.709429 278.316886 
L 247.85934 278.309982 
L 248.184146 278.27068 
L 248.533937 278.313269 
L 248.983668 278.346055 
L 249.233519 278.323483 
L 249.708235 278.260149 
L 249.908116 278.205787 
L 251.057429 278.264529 
L 251.856951 278.287747 
L 253.281101 278.243406 
L 254.405429 278.244734 
L 254.80519 278.307361 
L 255.304892 278.326289 
L 255.979489 278.379256 
L 256.179369 278.374836 
L 256.978892 278.427587 
L 257.153787 278.410743 
L 257.528563 278.406992 
L 257.778414 278.467923 
L 258.05325 278.476443 
L 258.253131 278.499517 
L 258.602922 278.509839 
L 259.427429 278.563067 
L 259.802205 278.515558 
L 260.401847 278.601532 
L 260.926534 278.601272 
L 261.076444 278.603383 
L 261.25134 278.580279 
L 261.626116 278.533894 
L 262.600534 278.45866 
L 262.800414 278.490472 
L 263.150205 278.461237 
L 264.774235 278.484654 
L 265.099041 278.517776 
L 265.798623 278.547545 
L 266.248354 278.547122 
L 266.57316 278.582841 
L 267.822414 278.541425 
L 268.821817 278.533012 
L 269.271549 278.480823 
L 271.195399 278.437421 
L 271.570175 278.383929 
L 272.794444 278.470515 
L 273.094265 278.455949 
L 273.294146 278.46685 
L 273.519011 278.431566 
L 274.193608 278.428934 
L 274.468444 278.413177 
L 276.442265 278.50999 
L 276.667131 278.52502 
L 278.316146 278.536651 
L 278.740892 278.49735 
L 278.890802 278.486592 
L 279.090683 278.527959 
L 286.586205 278.498396 
L 286.836056 278.498913 
L 287.085907 278.479409 
L 287.310772 278.477589 
L 287.885429 278.422116 
L 288.110295 278.396162 
L 289.384534 278.285132 
L 289.884235 278.245853 
L 291.883041 278.203607 
L 292.057937 278.243876 
L 292.782504 278.259535 
L 293.032354 278.254115 
L 293.781907 278.290427 
L 294.806295 278.325727 
L 295.081131 278.330772 
L 295.780713 278.434742 
L 296.430325 278.520196 
L 297.029966 278.474882 
L 297.929429 278.491373 
L 298.204265 278.511776 
L 298.629011 278.508472 
L 298.978802 278.523377 
L 300.278026 278.505857 
L 300.702772 278.521915 
L 305.000205 278.677138 
L 305.300026 278.631125 
L 305.574862 278.676418 
L 305.824713 278.728832 
L 306.174504 278.773979 
L 307.023996 278.817699 
L 307.248862 278.797269 
L 308.073369 278.891365 
L 308.37319 278.872837 
L 308.673011 278.85649 
L 309.472534 278.789884 
L 309.697399 278.809074 
L 310.147131 278.792468 
L 310.446951 278.752935 
L 311.196504 278.694552 
L 311.52131 278.722963 
L 312.045996 278.704192 
L 312.245877 278.722097 
L 313.070384 278.74393 
L 313.24528 278.721063 
L 313.670026 278.739184 
L 314.119757 278.757414 
L 314.319638 278.737219 
L 314.544504 278.749254 
L 315.169131 278.756012 
L 315.344026 278.773245 
L 315.643847 278.739768 
L 316.018623 278.757438 
L 316.54331 278.727798 
L 317.817549 278.764531 
L 317.992444 278.750467 
L 318.292265 278.692747 
L 318.692026 278.666877 
L 319.216713 278.68666 
L 319.541519 278.700448 
L 320.04122 278.668818 
L 337.056056 278.793034 
L 337.355877 278.765039 
L 337.655698 278.780585 
L 338.080444 278.777424 
L 338.35528 278.813521 
L 339.104832 278.820514 
L 339.354683 278.806488 
L 340.17919 278.764074 
L 340.503996 278.789403 
L 341.228563 278.760109 
L 341.878175 278.789246 
L 342.702683 278.747518 
L 343.077459 278.760923 
L 348.174414 278.647684 
L 348.34931 278.657797 
L 349.648534 278.692357 
L 349.998325 278.700199 
L 351.072683 278.74601 
L 351.297549 278.779768 
L 351.572384 278.833023 
L 351.74728 278.832488 
L 352.521817 278.758508 
L 355.769877 278.607476 
L 356.119668 278.626421 
L 356.569399 278.61994 
L 357.368922 278.65191 
L 357.618772 278.619488 
L 358.368325 278.590339 
L 358.59319 278.608797 
L 358.843041 278.651863 
L 359.092892 278.699616 
L 359.642563 278.748451 
L 359.892414 278.761817 
L 364.689549 278.835411 
L 364.939399 278.861475 
L 365.214235 278.852334 
L 365.489071 278.812919 
L 367.462892 278.883545 
L 367.712743 278.900158 
L 368.53725 278.911505 
L 370.586026 278.87559 
L 370.860862 278.919043 
L 371.510474 278.926407 
L 371.760325 278.951615 
L 372.135101 278.933326 
L 372.584832 278.980558 
L 376.307608 278.98277 
L 376.582444 279.01923 
L 381.554474 278.940948 
L 381.77934 278.932892 
L 382.853698 279.010764 
L 383.153519 278.993393 
L 383.50331 279.025476 
L 387.05119 279.056516 
L 387.375996 279.054569 
L 388.100563 279.070096 
L 388.600265 279.06681 
L 390.499131 279.075442 
L 390.723996 279.096171 
L 391.273668 279.102306 
L 395.621071 279.010193 
L 395.945877 278.990012 
L 396.770384 278.991581 
L 397.120175 279.051456 
L 397.619877 279.052756 
L 397.894713 279.055917 
L 403.216534 279.097835 
L 403.54134 279.085839 
L 404.190951 279.087219 
L 404.890534 279.112764 
L 405.115399 279.107533 
L 406.539549 279.128482 
L 407.713847 279.130759 
L 408.513369 279.148202 
L 410.012474 279.113086 
L 410.312295 279.086318 
L 413.78522 279.053155 
L 414.035071 279.064237 
L 414.909549 279.049724 
L 415.184384 279.059823 
L 415.684086 279.073144 
L 416.208772 279.07223 
L 416.958325 279.096821 
L 417.358086 279.059084 
L 418.032683 279.102383 
L 418.582354 279.104306 
L 419.057071 279.13956 
L 420.43125 279.190173 
L 422.355101 279.143255 
L 422.679907 279.148937 
L 423.654325 279.196179 
L 424.054086 279.171922 
L 424.728683 279.156293 
L 425.45325 279.186722 
L 427.17722 279.202138 
L 428.051698 279.163972 
L 428.70131 279.192076 
L 429.176026 279.217129 
L 431.574593 279.233484 
L 431.874414 279.21794 
L 432.224205 279.213011 
L 433.448474 279.237488 
L 433.748295 279.243572 
L 434.897608 279.181336 
L 435.247399 279.18238 
L 437.07131 279.186971 
L 437.521041 279.182066 
L 437.970772 279.170786 
L 439.195041 279.196593 
L 439.469877 279.176103 
L 439.844653 279.196241 
L 441.668563 279.289053 
L 442.29319 279.292187 
L 445.216444 279.19605 
L 445.69116 279.179202 
L 447.36516 279.163466 
L 447.664981 279.13322 
L 448.139698 279.117546 
L 448.914235 279.100707 
L 450.038563 279.082924 
L 450.913041 279.103181 
L 451.312802 279.115728 
L 451.612623 279.101714 
L 453.061757 279.097809 
L 453.96122 279.099966 
L 454.410951 279.078693 
L 463.205698 279.048391 
L 463.90528 279.087111 
L 464.429966 279.074701 
L 466.103966 279.061511 
L 466.653638 279.053255 
L 467.053399 279.022259 
L 468.677429 279.017986 
L 469.252086 279.012574 
L 470.851131 278.965079 
L 471.625668 278.926699 
L 472.47516 278.936934 
L 473.124772 278.936393 
L 473.799369 278.899925 
L 475.72322 278.918216 
L 476.572713 278.912736 
L 477.372235 278.956581 
L 477.697041 278.94194 
L 479.920713 278.880633 
L 480.920116 278.850485 
L 484.268116 278.925823 
L 484.917728 278.889483 
L 488.440623 278.979068 
L 488.715459 279.002162 
L 489.315101 279.023684 
L 489.714862 279.001047 
L 490.414444 279.028111 
L 494.312116 279.133983 
L 494.786832 279.175276 
L 496.510802 279.15394 
L 498.234772 279.15653 
L 509.752892 279.042305 
L 510.052713 279.001559 
L 510.352534 279.009936 
L 512.326354 278.996639 
L 513.150862 279.001879 
L 513.525638 279.026819 
L 514.799877 279.018538 
L 521.720743 279.036823 
L 522.220444 279.050731 
L 522.44531 279.060636 
L 522.845071 279.093096 
L 523.294802 279.090142 
L 524.194265 279.140859 
L 524.868862 279.159954 
L 530.140713 279.248591 
L 530.690384 279.205822 
L 531.01519 279.202533 
L 532.239459 279.199284 
L 532.53928 279.221093 
L 532.989011 279.204399 
L 538.260862 279.311037 
L 538.535698 279.318199 
L 545.98125 279.294147 
L 545.98125 279.294147 
" style="fill:none;stroke:#800080;stroke-linecap:square;stroke-width:1.5;"/>
   </g>
   <g id="patch_3">
    <path d="M 43.78125 288.199219 
L 43.78125 10.999219 
" style="fill:none;stroke:#000000;stroke-linecap:square;stroke-linejoin:miter;stroke-width:0.8;"/>
   </g>
   <g id="patch_4">
    <path d="M 545.98125 288.199219 
L 545.98125 10.999219 
" style="fill:none;stroke:#000000;stroke-linecap:square;stroke-linejoin:miter;stroke-width:0.8;"/>
   </g>
   <g id="patch_5">
    <path d="M 43.78125 288.199219 
L 545.98125 288.199219 
" style="fill:none;stroke:#000000;stroke-linecap:square;stroke-linejoin:miter;stroke-width:0.8;"/>
   </g>
   <g id="patch_6">
    <path d="M 43.78125 10.999219 
L 545.98125 10.999219 
" style="fill:none;stroke:#000000;stroke-linecap:square;stroke-linejoin:miter;stroke-width:0.8;"/>
   </g>
   <g id="legend_1">
    <g id="patch_7">
     <path d="M 416.698438 107.067969 
L 538.98125 107.067969 
Q 540.98125 107.067969 540.98125 105.067969 
L 540.98125 17.999219 
Q 540.98125 15.999219 538.98125 15.999219 
L 416.698438 15.999219 
Q 414.698438 15.999219 414.698438 17.999219 
L 414.698438 105.067969 
Q 414.698438 107.067969 416.698438 107.067969 
z
" style="fill:#ffffff;opacity:0.8;stroke:#cccccc;stroke-linejoin:miter;"/>
    </g>
    <g id="line2d_16">
     <path d="M 418.698438 24.097656 
L 438.698438 24.097656 
" style="fill:none;stroke:#c0c0c0;stroke-linecap:square;stroke-width:1.5;"/>
    </g>
    <g id="line2d_17"/>
    <g id="text_12">
     <!-- Expected updates -->
     <defs>
      <path d="M 9.8125 72.90625 
L 55.90625 72.90625 
L 55.90625 64.59375 
L 19.671875 64.59375 
L 19.671875 43.015625 
L 54.390625 43.015625 
L 54.390625 34.71875 
L 19.671875 34.71875 
L 19.671875 8.296875 
L 56.78125 8.296875 
L 56.78125 0 
L 9.8125 0 
z
" id="DejaVuSans-69"/>
      <path d="M 45.40625 46.390625 
L 45.40625 75.984375 
L 54.390625 75.984375 
L 54.390625 0 
L 45.40625 0 
L 45.40625 8.203125 
Q 42.578125 3.328125 38.25 0.953125 
Q 33.9375 -1.421875 27.875 -1.421875 
Q 17.96875 -1.421875 11.734375 6.484375 
Q 5.515625 14.40625 5.515625 27.296875 
Q 5.515625 40.1875 11.734375 48.09375 
Q 17.96875 56 27.875 56 
Q 33.9375 56 38.25 53.625 
Q 42.578125 51.265625 45.40625 46.390625 
z
M 14.796875 27.296875 
Q 14.796875 17.390625 18.875 11.75 
Q 22.953125 6.109375 30.078125 6.109375 
Q 37.203125 6.109375 41.296875 11.75 
Q 45.40625 17.390625 45.40625 27.296875 
Q 45.40625 37.203125 41.296875 42.84375 
Q 37.203125 48.484375 30.078125 48.484375 
Q 22.953125 48.484375 18.875 42.84375 
Q 14.796875 37.203125 14.796875 27.296875 
z
" id="DejaVuSans-100"/>
     </defs>
     <g transform="translate(446.698438 27.597656)scale(0.1 -0.1)">
      <use xlink:href="#DejaVuSans-69"/>
      <use x="63.183594" xlink:href="#DejaVuSans-120"/>
      <use x="122.363281" xlink:href="#DejaVuSans-112"/>
      <use x="185.839844" xlink:href="#DejaVuSans-101"/>
      <use x="247.363281" xlink:href="#DejaVuSans-99"/>
      <use x="302.34375" xlink:href="#DejaVuSans-116"/>
      <use x="341.552734" xlink:href="#DejaVuSans-101"/>
      <use x="403.076172" xlink:href="#DejaVuSans-100"/>
      <use x="466.552734" xlink:href="#DejaVuSans-32"/>
      <use x="498.339844" xlink:href="#DejaVuSans-117"/>
      <use x="561.71875" xlink:href="#DejaVuSans-112"/>
      <use x="625.195312" xlink:href="#DejaVuSans-100"/>
      <use x="688.671875" xlink:href="#DejaVuSans-97"/>
      <use x="749.951172" xlink:href="#DejaVuSans-116"/>
      <use x="789.160156" xlink:href="#DejaVuSans-101"/>
      <use x="850.683594" xlink:href="#DejaVuSans-115"/>
     </g>
    </g>
    <g id="line2d_18">
     <path d="M 418.698438 38.775781 
L 438.698438 38.775781 
" style="fill:none;stroke:#4169e1;stroke-linecap:square;stroke-width:1.5;"/>
    </g>
    <g id="line2d_19"/>
    <g id="text_13">
     <!-- b = 2 -->
     <defs>
      <path d="M 10.59375 45.40625 
L 73.1875 45.40625 
L 73.1875 37.203125 
L 10.59375 37.203125 
z
M 10.59375 25.484375 
L 73.1875 25.484375 
L 73.1875 17.1875 
L 10.59375 17.1875 
z
" id="DejaVuSans-61"/>
     </defs>
     <g transform="translate(446.698438 42.275781)scale(0.1 -0.1)">
      <use xlink:href="#DejaVuSans-98"/>
      <use x="63.476562" xlink:href="#DejaVuSans-32"/>
      <use x="95.263672" xlink:href="#DejaVuSans-61"/>
      <use x="179.052734" xlink:href="#DejaVuSans-32"/>
      <use x="210.839844" xlink:href="#DejaVuSans-50"/>
     </g>
    </g>
    <g id="line2d_20">
     <path d="M 418.698438 53.453906 
L 438.698438 53.453906 
" style="fill:none;stroke:#228b22;stroke-linecap:square;stroke-width:1.5;"/>
    </g>
    <g id="line2d_21"/>
    <g id="text_14">
     <!-- b = 10 -->
     <g transform="translate(446.698438 56.953906)scale(0.1 -0.1)">
      <use xlink:href="#DejaVuSans-98"/>
      <use x="63.476562" xlink:href="#DejaVuSans-32"/>
      <use x="95.263672" xlink:href="#DejaVuSans-61"/>
      <use x="179.052734" xlink:href="#DejaVuSans-32"/>
      <use x="210.839844" xlink:href="#DejaVuSans-49"/>
      <use x="274.462891" xlink:href="#DejaVuSans-48"/>
     </g>
    </g>
    <g id="line2d_22">
     <path d="M 418.698438 68.132031 
L 438.698438 68.132031 
" style="fill:none;stroke:#daa520;stroke-linecap:square;stroke-width:1.5;"/>
    </g>
    <g id="line2d_23"/>
    <g id="text_15">
     <!-- b = 100 -->
     <g transform="translate(446.698438 71.632031)scale(0.1 -0.1)">
      <use xlink:href="#DejaVuSans-98"/>
      <use x="63.476562" xlink:href="#DejaVuSans-32"/>
      <use x="95.263672" xlink:href="#DejaVuSans-61"/>
      <use x="179.052734" xlink:href="#DejaVuSans-32"/>
      <use x="210.839844" xlink:href="#DejaVuSans-49"/>
      <use x="274.462891" xlink:href="#DejaVuSans-48"/>
      <use x="338.085938" xlink:href="#DejaVuSans-48"/>
     </g>
    </g>
    <g id="line2d_24">
     <path d="M 418.698438 82.810156 
L 438.698438 82.810156 
" style="fill:none;stroke:#b22222;stroke-linecap:square;stroke-width:1.5;"/>
    </g>
    <g id="line2d_25"/>
    <g id="text_16">
     <!-- b = 1000 -->
     <g transform="translate(446.698438 86.310156)scale(0.1 -0.1)">
      <use xlink:href="#DejaVuSans-98"/>
      <use x="63.476562" xlink:href="#DejaVuSans-32"/>
      <use x="95.263672" xlink:href="#DejaVuSans-61"/>
      <use x="179.052734" xlink:href="#DejaVuSans-32"/>
      <use x="210.839844" xlink:href="#DejaVuSans-49"/>
      <use x="274.462891" xlink:href="#DejaVuSans-48"/>
      <use x="338.085938" xlink:href="#DejaVuSans-48"/>
      <use x="401.708984" xlink:href="#DejaVuSans-48"/>
     </g>
    </g>
    <g id="line2d_26">
     <path d="M 418.698438 97.488281 
L 438.698438 97.488281 
" style="fill:none;stroke:#800080;stroke-linecap:square;stroke-width:1.5;"/>
    </g>
    <g id="line2d_27"/>
    <g id="text_17">
     <!-- b = 10000 -->
     <g transform="translate(446.698438 100.988281)scale(0.1 -0.1)">
      <use xlink:href="#DejaVuSans-98"/>
      <use x="63.476562" xlink:href="#DejaVuSans-32"/>
      <use x="95.263672" xlink:href="#DejaVuSans-61"/>
      <use x="179.052734" xlink:href="#DejaVuSans-32"/>
      <use x="210.839844" xlink:href="#DejaVuSans-49"/>
      <use x="274.462891" xlink:href="#DejaVuSans-48"/>
      <use x="338.085938" xlink:href="#DejaVuSans-48"/>
      <use x="401.708984" xlink:href="#DejaVuSans-48"/>
      <use x="465.332031" xlink:href="#DejaVuSans-48"/>
     </g>
    </g>
   </g>
  </g>
 </g>
 <defs>
  <clipPath id="p481101b2a6">
   <rect height="277.2" width="502.2" x="43.78125" y="10.999219"/>
  </clipPath>
 </defs>
</svg>
