<?xml version="1.0" encoding="utf-8" standalone="no"?>
<!DOCTYPE svg PUBLIC "-//W3C//DTD SVG 1.1//EN"
  "http://www.w3.org/Graphics/SVG/1.1/DTD/svg11.dtd">
<!-- Created with matplotlib (https://matplotlib.org/) -->
<svg height="329.577344pt" version="1.1" viewBox="0 0 559.536719 329.577344" width="559.536719pt" xmlns="http://www.w3.org/2000/svg" xmlns:xlink="http://www.w3.org/1999/xlink">
 <defs>
  <style type="text/css">
*{stroke-linecap:butt;stroke-linejoin:round;}
  </style>
 </defs>
 <g id="figure_1">
  <g id="patch_1">
   <path d="M 0 329.577344 
L 559.536719 329.577344 
L 559.536719 0 
L 0 0 
z
" style="fill:#ffffff;"/>
  </g>
  <g id="axes_1">
   <g id="patch_2">
    <path d="M 43.78125 288.199219 
L 545.98125 288.199219 
L 545.98125 10.999219 
L 43.78125 10.999219 
z
" style="fill:#ffffff;"/>
   </g>
   <g id="matplotlib.axis_1">
    <g id="xtick_1">
     <g id="line2d_1">
      <defs>
       <path d="M 0 0 
L 0 3.5 
" id="mc22d0d9857" style="stroke:#000000;stroke-width:0.8;"/>
      </defs>
      <g>
       <use style="stroke:#000000;stroke-width:0.8;" x="46.279757" xlink:href="#mc22d0d9857" y="288.199219"/>
      </g>
     </g>
     <g id="text_1">
      <!-- 0 -->
      <defs>
       <path d="M 31.78125 66.40625 
Q 24.171875 66.40625 20.328125 58.90625 
Q 16.5 51.421875 16.5 36.375 
Q 16.5 21.390625 20.328125 13.890625 
Q 24.171875 6.390625 31.78125 6.390625 
Q 39.453125 6.390625 43.28125 13.890625 
Q 47.125 21.390625 47.125 36.375 
Q 47.125 51.421875 43.28125 58.90625 
Q 39.453125 66.40625 31.78125 66.40625 
z
M 31.78125 74.21875 
Q 44.046875 74.21875 50.515625 64.515625 
Q 56.984375 54.828125 56.984375 36.375 
Q 56.984375 17.96875 50.515625 8.265625 
Q 44.046875 -1.421875 31.78125 -1.421875 
Q 19.53125 -1.421875 13.0625 8.265625 
Q 6.59375 17.96875 6.59375 36.375 
Q 6.59375 54.828125 13.0625 64.515625 
Q 19.53125 74.21875 31.78125 74.21875 
z
" id="DejaVuSans-48"/>
      </defs>
      <g transform="translate(43.098507 302.797656)scale(0.1 -0.1)">
       <use xlink:href="#DejaVuSans-48"/>
      </g>
     </g>
    </g>
    <g id="xtick_2">
     <g id="line2d_2">
      <g>
       <use style="stroke:#000000;stroke-width:0.8;" x="296.130504" xlink:href="#mc22d0d9857" y="288.199219"/>
      </g>
     </g>
     <g id="text_2">
      <!-- 1b -->
      <defs>
       <path d="M 12.40625 8.296875 
L 28.515625 8.296875 
L 28.515625 63.921875 
L 10.984375 60.40625 
L 10.984375 69.390625 
L 28.421875 72.90625 
L 38.28125 72.90625 
L 38.28125 8.296875 
L 54.390625 8.296875 
L 54.390625 0 
L 12.40625 0 
z
" id="DejaVuSans-49"/>
       <path d="M 48.6875 27.296875 
Q 48.6875 37.203125 44.609375 42.84375 
Q 40.53125 48.484375 33.40625 48.484375 
Q 26.265625 48.484375 22.1875 42.84375 
Q 18.109375 37.203125 18.109375 27.296875 
Q 18.109375 17.390625 22.1875 11.75 
Q 26.265625 6.109375 33.40625 6.109375 
Q 40.53125 6.109375 44.609375 11.75 
Q 48.6875 17.390625 48.6875 27.296875 
z
M 18.109375 46.390625 
Q 20.953125 51.265625 25.265625 53.625 
Q 29.59375 56 35.59375 56 
Q 45.5625 56 51.78125 48.09375 
Q 58.015625 40.1875 58.015625 27.296875 
Q 58.015625 14.40625 51.78125 6.484375 
Q 45.5625 -1.421875 35.59375 -1.421875 
Q 29.59375 -1.421875 25.265625 0.953125 
Q 20.953125 3.328125 18.109375 8.203125 
L 18.109375 0 
L 9.078125 0 
L 9.078125 75.984375 
L 18.109375 75.984375 
z
" id="DejaVuSans-98"/>
      </defs>
      <g transform="translate(289.775035 302.797656)scale(0.1 -0.1)">
       <use xlink:href="#DejaVuSans-49"/>
       <use x="63.623047" xlink:href="#DejaVuSans-98"/>
      </g>
     </g>
    </g>
    <g id="xtick_3">
     <g id="line2d_3">
      <g>
       <use style="stroke:#000000;stroke-width:0.8;" x="545.98125" xlink:href="#mc22d0d9857" y="288.199219"/>
      </g>
     </g>
     <g id="text_3">
      <!-- 2b -->
      <defs>
       <path d="M 19.1875 8.296875 
L 53.609375 8.296875 
L 53.609375 0 
L 7.328125 0 
L 7.328125 8.296875 
Q 12.9375 14.109375 22.625 23.890625 
Q 32.328125 33.6875 34.8125 36.53125 
Q 39.546875 41.84375 41.421875 45.53125 
Q 43.3125 49.21875 43.3125 52.78125 
Q 43.3125 58.59375 39.234375 62.25 
Q 35.15625 65.921875 28.609375 65.921875 
Q 23.96875 65.921875 18.8125 64.3125 
Q 13.671875 62.703125 7.8125 59.421875 
L 7.8125 69.390625 
Q 13.765625 71.78125 18.9375 73 
Q 24.125 74.21875 28.421875 74.21875 
Q 39.75 74.21875 46.484375 68.546875 
Q 53.21875 62.890625 53.21875 53.421875 
Q 53.21875 48.921875 51.53125 44.890625 
Q 49.859375 40.875 45.40625 35.40625 
Q 44.1875 33.984375 37.640625 27.21875 
Q 31.109375 20.453125 19.1875 8.296875 
z
" id="DejaVuSans-50"/>
      </defs>
      <g transform="translate(539.625781 302.797656)scale(0.1 -0.1)">
       <use xlink:href="#DejaVuSans-50"/>
       <use x="63.623047" xlink:href="#DejaVuSans-98"/>
      </g>
     </g>
    </g>
    <g id="text_4">
     <!-- Number of $\max_{a^{\prime}} Q(s^{\prime}, a^{\prime})$ compuutations -->
     <defs>
      <path d="M 9.8125 72.90625 
L 23.09375 72.90625 
L 55.421875 11.921875 
L 55.421875 72.90625 
L 64.984375 72.90625 
L 64.984375 0 
L 51.703125 0 
L 19.390625 60.984375 
L 19.390625 0 
L 9.8125 0 
z
" id="DejaVuSans-78"/>
      <path d="M 8.5 21.578125 
L 8.5 54.6875 
L 17.484375 54.6875 
L 17.484375 21.921875 
Q 17.484375 14.15625 20.5 10.265625 
Q 23.53125 6.390625 29.59375 6.390625 
Q 36.859375 6.390625 41.078125 11.03125 
Q 45.3125 15.671875 45.3125 23.6875 
L 45.3125 54.6875 
L 54.296875 54.6875 
L 54.296875 0 
L 45.3125 0 
L 45.3125 8.40625 
Q 42.046875 3.421875 37.71875 1 
Q 33.40625 -1.421875 27.6875 -1.421875 
Q 18.265625 -1.421875 13.375 4.4375 
Q 8.5 10.296875 8.5 21.578125 
z
M 31.109375 56 
z
" id="DejaVuSans-117"/>
      <path d="M 52 44.1875 
Q 55.375 50.25 60.0625 53.125 
Q 64.75 56 71.09375 56 
Q 79.640625 56 84.28125 50.015625 
Q 88.921875 44.046875 88.921875 33.015625 
L 88.921875 0 
L 79.890625 0 
L 79.890625 32.71875 
Q 79.890625 40.578125 77.09375 44.375 
Q 74.3125 48.1875 68.609375 48.1875 
Q 61.625 48.1875 57.5625 43.546875 
Q 53.515625 38.921875 53.515625 30.90625 
L 53.515625 0 
L 44.484375 0 
L 44.484375 32.71875 
Q 44.484375 40.625 41.703125 44.40625 
Q 38.921875 48.1875 33.109375 48.1875 
Q 26.21875 48.1875 22.15625 43.53125 
Q 18.109375 38.875 18.109375 30.90625 
L 18.109375 0 
L 9.078125 0 
L 9.078125 54.6875 
L 18.109375 54.6875 
L 18.109375 46.1875 
Q 21.1875 51.21875 25.484375 53.609375 
Q 29.78125 56 35.6875 56 
Q 41.65625 56 45.828125 52.96875 
Q 50 49.953125 52 44.1875 
z
" id="DejaVuSans-109"/>
      <path d="M 56.203125 29.59375 
L 56.203125 25.203125 
L 14.890625 25.203125 
Q 15.484375 15.921875 20.484375 11.0625 
Q 25.484375 6.203125 34.421875 6.203125 
Q 39.59375 6.203125 44.453125 7.46875 
Q 49.3125 8.734375 54.109375 11.28125 
L 54.109375 2.78125 
Q 49.265625 0.734375 44.1875 -0.34375 
Q 39.109375 -1.421875 33.890625 -1.421875 
Q 20.796875 -1.421875 13.15625 6.1875 
Q 5.515625 13.8125 5.515625 26.8125 
Q 5.515625 40.234375 12.765625 48.109375 
Q 20.015625 56 32.328125 56 
Q 43.359375 56 49.78125 48.890625 
Q 56.203125 41.796875 56.203125 29.59375 
z
M 47.21875 32.234375 
Q 47.125 39.59375 43.09375 43.984375 
Q 39.0625 48.390625 32.421875 48.390625 
Q 24.90625 48.390625 20.390625 44.140625 
Q 15.875 39.890625 15.1875 32.171875 
z
" id="DejaVuSans-101"/>
      <path d="M 41.109375 46.296875 
Q 39.59375 47.171875 37.8125 47.578125 
Q 36.03125 48 33.890625 48 
Q 26.265625 48 22.1875 43.046875 
Q 18.109375 38.09375 18.109375 28.8125 
L 18.109375 0 
L 9.078125 0 
L 9.078125 54.6875 
L 18.109375 54.6875 
L 18.109375 46.1875 
Q 20.953125 51.171875 25.484375 53.578125 
Q 30.03125 56 36.53125 56 
Q 37.453125 56 38.578125 55.875 
Q 39.703125 55.765625 41.0625 55.515625 
z
" id="DejaVuSans-114"/>
      <path id="DejaVuSans-32"/>
      <path d="M 30.609375 48.390625 
Q 23.390625 48.390625 19.1875 42.75 
Q 14.984375 37.109375 14.984375 27.296875 
Q 14.984375 17.484375 19.15625 11.84375 
Q 23.34375 6.203125 30.609375 6.203125 
Q 37.796875 6.203125 41.984375 11.859375 
Q 46.1875 17.53125 46.1875 27.296875 
Q 46.1875 37.015625 41.984375 42.703125 
Q 37.796875 48.390625 30.609375 48.390625 
z
M 30.609375 56 
Q 42.328125 56 49.015625 48.375 
Q 55.71875 40.765625 55.71875 27.296875 
Q 55.71875 13.875 49.015625 6.21875 
Q 42.328125 -1.421875 30.609375 -1.421875 
Q 18.84375 -1.421875 12.171875 6.21875 
Q 5.515625 13.875 5.515625 27.296875 
Q 5.515625 40.765625 12.171875 48.375 
Q 18.84375 56 30.609375 56 
z
" id="DejaVuSans-111"/>
      <path d="M 37.109375 75.984375 
L 37.109375 68.5 
L 28.515625 68.5 
Q 23.6875 68.5 21.796875 66.546875 
Q 19.921875 64.59375 19.921875 59.515625 
L 19.921875 54.6875 
L 34.71875 54.6875 
L 34.71875 47.703125 
L 19.921875 47.703125 
L 19.921875 0 
L 10.890625 0 
L 10.890625 47.703125 
L 2.296875 47.703125 
L 2.296875 54.6875 
L 10.890625 54.6875 
L 10.890625 58.5 
Q 10.890625 67.625 15.140625 71.796875 
Q 19.390625 75.984375 28.609375 75.984375 
z
" id="DejaVuSans-102"/>
      <path d="M 34.28125 27.484375 
Q 23.390625 27.484375 19.1875 25 
Q 14.984375 22.515625 14.984375 16.5 
Q 14.984375 11.71875 18.140625 8.90625 
Q 21.296875 6.109375 26.703125 6.109375 
Q 34.1875 6.109375 38.703125 11.40625 
Q 43.21875 16.703125 43.21875 25.484375 
L 43.21875 27.484375 
z
M 52.203125 31.203125 
L 52.203125 0 
L 43.21875 0 
L 43.21875 8.296875 
Q 40.140625 3.328125 35.546875 0.953125 
Q 30.953125 -1.421875 24.3125 -1.421875 
Q 15.921875 -1.421875 10.953125 3.296875 
Q 6 8.015625 6 15.921875 
Q 6 25.140625 12.171875 29.828125 
Q 18.359375 34.515625 30.609375 34.515625 
L 43.21875 34.515625 
L 43.21875 35.40625 
Q 43.21875 41.609375 39.140625 45 
Q 35.0625 48.390625 27.6875 48.390625 
Q 23 48.390625 18.546875 47.265625 
Q 14.109375 46.140625 10.015625 43.890625 
L 10.015625 52.203125 
Q 14.9375 54.109375 19.578125 55.046875 
Q 24.21875 56 28.609375 56 
Q 40.484375 56 46.34375 49.84375 
Q 52.203125 43.703125 52.203125 31.203125 
z
" id="DejaVuSans-97"/>
      <path d="M 54.890625 54.6875 
L 35.109375 28.078125 
L 55.90625 0 
L 45.3125 0 
L 29.390625 21.484375 
L 13.484375 0 
L 2.875 0 
L 24.125 28.609375 
L 4.6875 54.6875 
L 15.28125 54.6875 
L 29.78125 35.203125 
L 44.28125 54.6875 
z
" id="DejaVuSans-120"/>
      <path d="M 53.71875 31.203125 
L 47.609375 0 
L 38.625 0 
L 40.28125 8.296875 
Q 36.328125 3.421875 31.265625 1 
Q 26.21875 -1.421875 20.015625 -1.421875 
Q 13.03125 -1.421875 8.5625 2.84375 
Q 4.109375 7.125 4.109375 13.8125 
Q 4.109375 23.390625 11.75 28.953125 
Q 19.390625 34.515625 32.8125 34.515625 
L 45.3125 34.515625 
L 45.796875 36.921875 
Q 45.90625 37.3125 45.953125 37.765625 
Q 46 38.234375 46 39.203125 
Q 46 43.5625 42.453125 45.96875 
Q 38.921875 48.390625 32.515625 48.390625 
Q 28.125 48.390625 23.5 47.265625 
Q 18.890625 46.140625 14.015625 43.890625 
L 15.578125 52.203125 
Q 20.65625 54.109375 25.515625 55.046875 
Q 30.375 56 34.90625 56 
Q 44.578125 56 49.625 51.796875 
Q 54.6875 47.609375 54.6875 39.59375 
Q 54.6875 37.984375 54.4375 35.8125 
Q 54.203125 33.640625 53.71875 31.203125 
z
M 44 27.484375 
L 35.015625 27.484375 
Q 23.96875 27.484375 18.671875 24.53125 
Q 13.375 21.578125 13.375 15.375 
Q 13.375 11.078125 16.078125 8.640625 
Q 18.796875 6.203125 23.578125 6.203125 
Q 30.90625 6.203125 36.375 11.453125 
Q 41.84375 16.703125 43.609375 25.484375 
z
" id="DejaVuSans-Oblique-97"/>
      <path d="M 3.515625 5.421875 
Q 2.875 5.609375 2.875 6.390625 
L 15.09375 51.8125 
Q 15.671875 53.65625 17.078125 54.78125 
Q 18.5 55.90625 20.3125 55.90625 
Q 22.65625 55.90625 24.4375 54.359375 
Q 26.21875 52.828125 26.21875 50.484375 
Q 26.21875 49.46875 25.6875 48.1875 
L 7.625 4.984375 
Q 7.28125 4.296875 6.6875 4.296875 
Q 6.15625 4.296875 5 4.78125 
Q 3.859375 5.28125 3.515625 5.421875 
z
" id="Cmsy10-48"/>
      <path d="M 36.078125 -1.3125 
Q 35.546875 -1.375 34.953125 -1.390625 
Q 34.375 -1.421875 33.203125 -1.421875 
Q 19.53125 -1.421875 11.8125 6.421875 
Q 4.109375 14.265625 4.109375 28.078125 
Q 4.109375 36.234375 7.0625 44.4375 
Q 10.015625 52.640625 15.28125 59.1875 
Q 21.390625 66.703125 29.03125 70.453125 
Q 36.671875 74.21875 45.90625 74.21875 
Q 59.28125 74.21875 66.984375 66.328125 
Q 74.703125 58.453125 74.703125 44.828125 
Q 74.703125 30.125 66.640625 17.921875 
Q 58.59375 5.71875 45.609375 0.6875 
L 55.515625 -12.890625 
L 44.484375 -12.890625 
z
M 45.609375 66.21875 
Q 37.5 66.21875 31.296875 62.28125 
Q 25.09375 58.34375 20.515625 50.296875 
Q 17.578125 45.171875 16.03125 39.40625 
Q 14.5 33.640625 14.5 27.78125 
Q 14.5 17.625 19.359375 12.109375 
Q 24.21875 6.59375 33.109375 6.59375 
Q 41.109375 6.59375 47.375 10.5625 
Q 53.65625 14.546875 58.109375 22.40625 
Q 61.078125 27.6875 62.640625 33.46875 
Q 64.203125 39.265625 64.203125 45.015625 
Q 64.203125 55.125 59.3125 60.671875 
Q 54.4375 66.21875 45.609375 66.21875 
z
" id="DejaVuSans-Oblique-81"/>
      <path d="M 31 75.875 
Q 24.46875 64.65625 21.28125 53.65625 
Q 18.109375 42.671875 18.109375 31.390625 
Q 18.109375 20.125 21.3125 9.0625 
Q 24.515625 -2 31 -13.1875 
L 23.1875 -13.1875 
Q 15.875 -1.703125 12.234375 9.375 
Q 8.59375 20.453125 8.59375 31.390625 
Q 8.59375 42.28125 12.203125 53.3125 
Q 15.828125 64.359375 23.1875 75.875 
z
" id="DejaVuSans-40"/>
      <path d="M 50 53.078125 
L 48.296875 44.578125 
Q 44.734375 46.53125 40.765625 47.5 
Q 36.8125 48.484375 32.625 48.484375 
Q 25.53125 48.484375 21.453125 46.0625 
Q 17.390625 43.65625 17.390625 39.5 
Q 17.390625 34.671875 26.859375 32.078125 
Q 27.59375 31.890625 27.9375 31.78125 
L 30.8125 30.90625 
Q 39.796875 28.421875 42.796875 25.6875 
Q 45.796875 22.953125 45.796875 18.21875 
Q 45.796875 9.515625 38.890625 4.046875 
Q 31.984375 -1.421875 20.796875 -1.421875 
Q 16.453125 -1.421875 11.671875 -0.578125 
Q 6.890625 0.25 1.125 2 
L 2.875 11.28125 
Q 7.8125 8.734375 12.59375 7.421875 
Q 17.390625 6.109375 21.78125 6.109375 
Q 28.375 6.109375 32.5 8.9375 
Q 36.625 11.765625 36.625 16.109375 
Q 36.625 20.796875 25.78125 23.6875 
L 24.859375 23.921875 
L 21.78125 24.703125 
Q 14.9375 26.515625 11.765625 29.46875 
Q 8.59375 32.421875 8.59375 37.015625 
Q 8.59375 45.75 15.15625 50.875 
Q 21.734375 56 33.015625 56 
Q 37.453125 56 41.671875 55.265625 
Q 45.90625 54.546875 50 53.078125 
z
" id="DejaVuSans-Oblique-115"/>
      <path d="M 11.71875 12.40625 
L 22.015625 12.40625 
L 22.015625 4 
L 14.015625 -11.625 
L 7.71875 -11.625 
L 11.71875 4 
z
" id="DejaVuSans-44"/>
      <path d="M 8.015625 75.875 
L 15.828125 75.875 
Q 23.140625 64.359375 26.78125 53.3125 
Q 30.421875 42.28125 30.421875 31.390625 
Q 30.421875 20.453125 26.78125 9.375 
Q 23.140625 -1.703125 15.828125 -13.1875 
L 8.015625 -13.1875 
Q 14.5 -2 17.703125 9.0625 
Q 20.90625 20.125 20.90625 31.390625 
Q 20.90625 42.671875 17.703125 53.65625 
Q 14.5 64.65625 8.015625 75.875 
z
" id="DejaVuSans-41"/>
      <path d="M 48.78125 52.59375 
L 48.78125 44.1875 
Q 44.96875 46.296875 41.140625 47.34375 
Q 37.3125 48.390625 33.40625 48.390625 
Q 24.65625 48.390625 19.8125 42.84375 
Q 14.984375 37.3125 14.984375 27.296875 
Q 14.984375 17.28125 19.8125 11.734375 
Q 24.65625 6.203125 33.40625 6.203125 
Q 37.3125 6.203125 41.140625 7.25 
Q 44.96875 8.296875 48.78125 10.40625 
L 48.78125 2.09375 
Q 45.015625 0.34375 40.984375 -0.53125 
Q 36.96875 -1.421875 32.421875 -1.421875 
Q 20.0625 -1.421875 12.78125 6.34375 
Q 5.515625 14.109375 5.515625 27.296875 
Q 5.515625 40.671875 12.859375 48.328125 
Q 20.21875 56 33.015625 56 
Q 37.15625 56 41.109375 55.140625 
Q 45.0625 54.296875 48.78125 52.59375 
z
" id="DejaVuSans-99"/>
      <path d="M 18.109375 8.203125 
L 18.109375 -20.796875 
L 9.078125 -20.796875 
L 9.078125 54.6875 
L 18.109375 54.6875 
L 18.109375 46.390625 
Q 20.953125 51.265625 25.265625 53.625 
Q 29.59375 56 35.59375 56 
Q 45.5625 56 51.78125 48.09375 
Q 58.015625 40.1875 58.015625 27.296875 
Q 58.015625 14.40625 51.78125 6.484375 
Q 45.5625 -1.421875 35.59375 -1.421875 
Q 29.59375 -1.421875 25.265625 0.953125 
Q 20.953125 3.328125 18.109375 8.203125 
z
M 48.6875 27.296875 
Q 48.6875 37.203125 44.609375 42.84375 
Q 40.53125 48.484375 33.40625 48.484375 
Q 26.265625 48.484375 22.1875 42.84375 
Q 18.109375 37.203125 18.109375 27.296875 
Q 18.109375 17.390625 22.1875 11.75 
Q 26.265625 6.109375 33.40625 6.109375 
Q 40.53125 6.109375 44.609375 11.75 
Q 48.6875 17.390625 48.6875 27.296875 
z
" id="DejaVuSans-112"/>
      <path d="M 18.3125 70.21875 
L 18.3125 54.6875 
L 36.8125 54.6875 
L 36.8125 47.703125 
L 18.3125 47.703125 
L 18.3125 18.015625 
Q 18.3125 11.328125 20.140625 9.421875 
Q 21.96875 7.515625 27.59375 7.515625 
L 36.8125 7.515625 
L 36.8125 0 
L 27.59375 0 
Q 17.1875 0 13.234375 3.875 
Q 9.28125 7.765625 9.28125 18.015625 
L 9.28125 47.703125 
L 2.6875 47.703125 
L 2.6875 54.6875 
L 9.28125 54.6875 
L 9.28125 70.21875 
z
" id="DejaVuSans-116"/>
      <path d="M 9.421875 54.6875 
L 18.40625 54.6875 
L 18.40625 0 
L 9.421875 0 
z
M 9.421875 75.984375 
L 18.40625 75.984375 
L 18.40625 64.59375 
L 9.421875 64.59375 
z
" id="DejaVuSans-105"/>
      <path d="M 54.890625 33.015625 
L 54.890625 0 
L 45.90625 0 
L 45.90625 32.71875 
Q 45.90625 40.484375 42.875 44.328125 
Q 39.84375 48.1875 33.796875 48.1875 
Q 26.515625 48.1875 22.3125 43.546875 
Q 18.109375 38.921875 18.109375 30.90625 
L 18.109375 0 
L 9.078125 0 
L 9.078125 54.6875 
L 18.109375 54.6875 
L 18.109375 46.1875 
Q 21.34375 51.125 25.703125 53.5625 
Q 30.078125 56 35.796875 56 
Q 45.21875 56 50.046875 50.171875 
Q 54.890625 44.34375 54.890625 33.015625 
z
" id="DejaVuSans-110"/>
      <path d="M 44.28125 53.078125 
L 44.28125 44.578125 
Q 40.484375 46.53125 36.375 47.5 
Q 32.28125 48.484375 27.875 48.484375 
Q 21.1875 48.484375 17.84375 46.4375 
Q 14.5 44.390625 14.5 40.28125 
Q 14.5 37.15625 16.890625 35.375 
Q 19.28125 33.59375 26.515625 31.984375 
L 29.59375 31.296875 
Q 39.15625 29.25 43.1875 25.515625 
Q 47.21875 21.78125 47.21875 15.09375 
Q 47.21875 7.46875 41.1875 3.015625 
Q 35.15625 -1.421875 24.609375 -1.421875 
Q 20.21875 -1.421875 15.453125 -0.5625 
Q 10.6875 0.296875 5.421875 2 
L 5.421875 11.28125 
Q 10.40625 8.6875 15.234375 7.390625 
Q 20.0625 6.109375 24.8125 6.109375 
Q 31.15625 6.109375 34.5625 8.28125 
Q 37.984375 10.453125 37.984375 14.40625 
Q 37.984375 18.0625 35.515625 20.015625 
Q 33.0625 21.96875 24.703125 23.78125 
L 21.578125 24.515625 
Q 13.234375 26.265625 9.515625 29.90625 
Q 5.8125 33.546875 5.8125 39.890625 
Q 5.8125 47.609375 11.28125 51.796875 
Q 16.75 56 26.8125 56 
Q 31.78125 56 36.171875 55.265625 
Q 40.578125 54.546875 44.28125 53.078125 
z
" id="DejaVuSans-115"/>
     </defs>
     <g transform="translate(198.18125 316.677344)scale(0.1 -0.1)">
      <use transform="translate(0 0.584375)" xlink:href="#DejaVuSans-78"/>
      <use transform="translate(74.804688 0.584375)" xlink:href="#DejaVuSans-117"/>
      <use transform="translate(138.183594 0.584375)" xlink:href="#DejaVuSans-109"/>
      <use transform="translate(235.595703 0.584375)" xlink:href="#DejaVuSans-98"/>
      <use transform="translate(299.072266 0.584375)" xlink:href="#DejaVuSans-101"/>
      <use transform="translate(360.595703 0.584375)" xlink:href="#DejaVuSans-114"/>
      <use transform="translate(401.708984 0.584375)" xlink:href="#DejaVuSans-32"/>
      <use transform="translate(433.496094 0.584375)" xlink:href="#DejaVuSans-111"/>
      <use transform="translate(494.677734 0.584375)" xlink:href="#DejaVuSans-102"/>
      <use transform="translate(529.882812 0.584375)" xlink:href="#DejaVuSans-32"/>
      <use transform="translate(561.669922 19.334375)" xlink:href="#DejaVuSans-109"/>
      <use transform="translate(659.082031 19.334375)" xlink:href="#DejaVuSans-97"/>
      <use transform="translate(720.361328 19.334375)" xlink:href="#DejaVuSans-120"/>
      <use transform="translate(639.669922 -55.028437)scale(0.7)" xlink:href="#DejaVuSans-Oblique-97"/>
      <use transform="translate(685.820357 -28.231562)scale(0.49)" xlink:href="#Cmsy10-48"/>
      <use transform="translate(779.541016 0.584375)" xlink:href="#DejaVuSans-Oblique-81"/>
      <use transform="translate(858.251953 0.584375)" xlink:href="#DejaVuSans-40"/>
      <use transform="translate(897.265625 0.584375)" xlink:href="#DejaVuSans-Oblique-115"/>
      <use transform="translate(954.01513 38.865625)scale(0.7)" xlink:href="#Cmsy10-48"/>
      <use transform="translate(975.992669 0.584375)" xlink:href="#DejaVuSans-44"/>
      <use transform="translate(1027.262201 0.584375)" xlink:href="#DejaVuSans-Oblique-97"/>
      <use transform="translate(1093.191393 38.865625)scale(0.7)" xlink:href="#Cmsy10-48"/>
      <use transform="translate(1115.168932 0.584375)" xlink:href="#DejaVuSans-41"/>
      <use transform="translate(1154.182604 0.584375)" xlink:href="#DejaVuSans-32"/>
      <use transform="translate(1185.969714 0.584375)" xlink:href="#DejaVuSans-99"/>
      <use transform="translate(1240.950182 0.584375)" xlink:href="#DejaVuSans-111"/>
      <use transform="translate(1302.131823 0.584375)" xlink:href="#DejaVuSans-109"/>
      <use transform="translate(1399.543932 0.584375)" xlink:href="#DejaVuSans-112"/>
      <use transform="translate(1463.020495 0.584375)" xlink:href="#DejaVuSans-117"/>
      <use transform="translate(1526.399401 0.584375)" xlink:href="#DejaVuSans-117"/>
      <use transform="translate(1589.778307 0.584375)" xlink:href="#DejaVuSans-116"/>
      <use transform="translate(1628.987292 0.584375)" xlink:href="#DejaVuSans-97"/>
      <use transform="translate(1690.266589 0.584375)" xlink:href="#DejaVuSans-116"/>
      <use transform="translate(1729.475573 0.584375)" xlink:href="#DejaVuSans-105"/>
      <use transform="translate(1757.258776 0.584375)" xlink:href="#DejaVuSans-111"/>
      <use transform="translate(1818.440417 0.584375)" xlink:href="#DejaVuSans-110"/>
      <use transform="translate(1881.819323 0.584375)" xlink:href="#DejaVuSans-115"/>
     </g>
    </g>
   </g>
   <g id="matplotlib.axis_2">
    <g id="ytick_1">
     <g id="line2d_4">
      <defs>
       <path d="M 0 0 
L -3.5 0 
" id="m78a872cd9c" style="stroke:#000000;stroke-width:0.8;"/>
      </defs>
      <g>
       <use style="stroke:#000000;stroke-width:0.8;" x="43.78125" xlink:href="#m78a872cd9c" y="282.763925"/>
      </g>
     </g>
     <g id="text_5">
      <!-- 0.0 -->
      <defs>
       <path d="M 10.6875 12.40625 
L 21 12.40625 
L 21 0 
L 10.6875 0 
z
" id="DejaVuSans-46"/>
      </defs>
      <g transform="translate(20.878125 286.563143)scale(0.1 -0.1)">
       <use xlink:href="#DejaVuSans-48"/>
       <use x="63.623047" xlink:href="#DejaVuSans-46"/>
       <use x="95.410156" xlink:href="#DejaVuSans-48"/>
      </g>
     </g>
    </g>
    <g id="ytick_2">
     <g id="line2d_5">
      <g>
       <use style="stroke:#000000;stroke-width:0.8;" x="43.78125" xlink:href="#m78a872cd9c" y="228.410983"/>
      </g>
     </g>
     <g id="text_6">
      <!-- 0.2 -->
      <g transform="translate(20.878125 232.210202)scale(0.1 -0.1)">
       <use xlink:href="#DejaVuSans-48"/>
       <use x="63.623047" xlink:href="#DejaVuSans-46"/>
       <use x="95.410156" xlink:href="#DejaVuSans-50"/>
      </g>
     </g>
    </g>
    <g id="ytick_3">
     <g id="line2d_6">
      <g>
       <use style="stroke:#000000;stroke-width:0.8;" x="43.78125" xlink:href="#m78a872cd9c" y="174.058042"/>
      </g>
     </g>
     <g id="text_7">
      <!-- 0.4 -->
      <defs>
       <path d="M 37.796875 64.3125 
L 12.890625 25.390625 
L 37.796875 25.390625 
z
M 35.203125 72.90625 
L 47.609375 72.90625 
L 47.609375 25.390625 
L 58.015625 25.390625 
L 58.015625 17.1875 
L 47.609375 17.1875 
L 47.609375 0 
L 37.796875 0 
L 37.796875 17.1875 
L 4.890625 17.1875 
L 4.890625 26.703125 
z
" id="DejaVuSans-52"/>
      </defs>
      <g transform="translate(20.878125 177.857261)scale(0.1 -0.1)">
       <use xlink:href="#DejaVuSans-48"/>
       <use x="63.623047" xlink:href="#DejaVuSans-46"/>
       <use x="95.410156" xlink:href="#DejaVuSans-52"/>
      </g>
     </g>
    </g>
    <g id="ytick_4">
     <g id="line2d_7">
      <g>
       <use style="stroke:#000000;stroke-width:0.8;" x="43.78125" xlink:href="#m78a872cd9c" y="119.705101"/>
      </g>
     </g>
     <g id="text_8">
      <!-- 0.6 -->
      <defs>
       <path d="M 33.015625 40.375 
Q 26.375 40.375 22.484375 35.828125 
Q 18.609375 31.296875 18.609375 23.390625 
Q 18.609375 15.53125 22.484375 10.953125 
Q 26.375 6.390625 33.015625 6.390625 
Q 39.65625 6.390625 43.53125 10.953125 
Q 47.40625 15.53125 47.40625 23.390625 
Q 47.40625 31.296875 43.53125 35.828125 
Q 39.65625 40.375 33.015625 40.375 
z
M 52.59375 71.296875 
L 52.59375 62.3125 
Q 48.875 64.0625 45.09375 64.984375 
Q 41.3125 65.921875 37.59375 65.921875 
Q 27.828125 65.921875 22.671875 59.328125 
Q 17.53125 52.734375 16.796875 39.40625 
Q 19.671875 43.65625 24.015625 45.921875 
Q 28.375 48.1875 33.59375 48.1875 
Q 44.578125 48.1875 50.953125 41.515625 
Q 57.328125 34.859375 57.328125 23.390625 
Q 57.328125 12.15625 50.6875 5.359375 
Q 44.046875 -1.421875 33.015625 -1.421875 
Q 20.359375 -1.421875 13.671875 8.265625 
Q 6.984375 17.96875 6.984375 36.375 
Q 6.984375 53.65625 15.1875 63.9375 
Q 23.390625 74.21875 37.203125 74.21875 
Q 40.921875 74.21875 44.703125 73.484375 
Q 48.484375 72.75 52.59375 71.296875 
z
" id="DejaVuSans-54"/>
      </defs>
      <g transform="translate(20.878125 123.50432)scale(0.1 -0.1)">
       <use xlink:href="#DejaVuSans-48"/>
       <use x="63.623047" xlink:href="#DejaVuSans-46"/>
       <use x="95.410156" xlink:href="#DejaVuSans-54"/>
      </g>
     </g>
    </g>
    <g id="ytick_5">
     <g id="line2d_8">
      <g>
       <use style="stroke:#000000;stroke-width:0.8;" x="43.78125" xlink:href="#m78a872cd9c" y="65.35216"/>
      </g>
     </g>
     <g id="text_9">
      <!-- 0.8 -->
      <defs>
       <path d="M 31.78125 34.625 
Q 24.75 34.625 20.71875 30.859375 
Q 16.703125 27.09375 16.703125 20.515625 
Q 16.703125 13.921875 20.71875 10.15625 
Q 24.75 6.390625 31.78125 6.390625 
Q 38.8125 6.390625 42.859375 10.171875 
Q 46.921875 13.96875 46.921875 20.515625 
Q 46.921875 27.09375 42.890625 30.859375 
Q 38.875 34.625 31.78125 34.625 
z
M 21.921875 38.8125 
Q 15.578125 40.375 12.03125 44.71875 
Q 8.5 49.078125 8.5 55.328125 
Q 8.5 64.0625 14.71875 69.140625 
Q 20.953125 74.21875 31.78125 74.21875 
Q 42.671875 74.21875 48.875 69.140625 
Q 55.078125 64.0625 55.078125 55.328125 
Q 55.078125 49.078125 51.53125 44.71875 
Q 48 40.375 41.703125 38.8125 
Q 48.828125 37.15625 52.796875 32.3125 
Q 56.78125 27.484375 56.78125 20.515625 
Q 56.78125 9.90625 50.3125 4.234375 
Q 43.84375 -1.421875 31.78125 -1.421875 
Q 19.734375 -1.421875 13.25 4.234375 
Q 6.78125 9.90625 6.78125 20.515625 
Q 6.78125 27.484375 10.78125 32.3125 
Q 14.796875 37.15625 21.921875 38.8125 
z
M 18.3125 54.390625 
Q 18.3125 48.734375 21.84375 45.5625 
Q 25.390625 42.390625 31.78125 42.390625 
Q 38.140625 42.390625 41.71875 45.5625 
Q 45.3125 48.734375 45.3125 54.390625 
Q 45.3125 60.0625 41.71875 63.234375 
Q 38.140625 66.40625 31.78125 66.40625 
Q 25.390625 66.40625 21.84375 63.234375 
Q 18.3125 60.0625 18.3125 54.390625 
z
" id="DejaVuSans-56"/>
      </defs>
      <g transform="translate(20.878125 69.151379)scale(0.1 -0.1)">
       <use xlink:href="#DejaVuSans-48"/>
       <use x="63.623047" xlink:href="#DejaVuSans-46"/>
       <use x="95.410156" xlink:href="#DejaVuSans-56"/>
      </g>
     </g>
    </g>
    <g id="ytick_6">
     <g id="line2d_9">
      <g>
       <use style="stroke:#000000;stroke-width:0.8;" x="43.78125" xlink:href="#m78a872cd9c" y="10.999219"/>
      </g>
     </g>
     <g id="text_10">
      <!-- 1.0 -->
      <g transform="translate(20.878125 14.798438)scale(0.1 -0.1)">
       <use xlink:href="#DejaVuSans-49"/>
       <use x="63.623047" xlink:href="#DejaVuSans-46"/>
       <use x="95.410156" xlink:href="#DejaVuSans-48"/>
      </g>
     </g>
    </g>
    <g id="text_11">
     <!-- RMS error in value estimate -->
     <defs>
      <path d="M 44.390625 34.1875 
Q 47.5625 33.109375 50.5625 29.59375 
Q 53.5625 26.078125 56.59375 19.921875 
L 66.609375 0 
L 56 0 
L 46.6875 18.703125 
Q 43.0625 26.03125 39.671875 28.421875 
Q 36.28125 30.8125 30.421875 30.8125 
L 19.671875 30.8125 
L 19.671875 0 
L 9.8125 0 
L 9.8125 72.90625 
L 32.078125 72.90625 
Q 44.578125 72.90625 50.734375 67.671875 
Q 56.890625 62.453125 56.890625 51.90625 
Q 56.890625 45.015625 53.6875 40.46875 
Q 50.484375 35.9375 44.390625 34.1875 
z
M 19.671875 64.796875 
L 19.671875 38.921875 
L 32.078125 38.921875 
Q 39.203125 38.921875 42.84375 42.21875 
Q 46.484375 45.515625 46.484375 51.90625 
Q 46.484375 58.296875 42.84375 61.546875 
Q 39.203125 64.796875 32.078125 64.796875 
z
" id="DejaVuSans-82"/>
      <path d="M 9.8125 72.90625 
L 24.515625 72.90625 
L 43.109375 23.296875 
L 61.8125 72.90625 
L 76.515625 72.90625 
L 76.515625 0 
L 66.890625 0 
L 66.890625 64.015625 
L 48.09375 14.015625 
L 38.1875 14.015625 
L 19.390625 64.015625 
L 19.390625 0 
L 9.8125 0 
z
" id="DejaVuSans-77"/>
      <path d="M 53.515625 70.515625 
L 53.515625 60.890625 
Q 47.90625 63.578125 42.921875 64.890625 
Q 37.9375 66.21875 33.296875 66.21875 
Q 25.25 66.21875 20.875 63.09375 
Q 16.5 59.96875 16.5 54.203125 
Q 16.5 49.359375 19.40625 46.890625 
Q 22.3125 44.4375 30.421875 42.921875 
L 36.375 41.703125 
Q 47.40625 39.59375 52.65625 34.296875 
Q 57.90625 29 57.90625 20.125 
Q 57.90625 9.515625 50.796875 4.046875 
Q 43.703125 -1.421875 29.984375 -1.421875 
Q 24.8125 -1.421875 18.96875 -0.25 
Q 13.140625 0.921875 6.890625 3.21875 
L 6.890625 13.375 
Q 12.890625 10.015625 18.65625 8.296875 
Q 24.421875 6.59375 29.984375 6.59375 
Q 38.421875 6.59375 43.015625 9.90625 
Q 47.609375 13.234375 47.609375 19.390625 
Q 47.609375 24.75 44.3125 27.78125 
Q 41.015625 30.8125 33.5 32.328125 
L 27.484375 33.5 
Q 16.453125 35.6875 11.515625 40.375 
Q 6.59375 45.0625 6.59375 53.421875 
Q 6.59375 63.09375 13.40625 68.65625 
Q 20.21875 74.21875 32.171875 74.21875 
Q 37.3125 74.21875 42.625 73.28125 
Q 47.953125 72.359375 53.515625 70.515625 
z
" id="DejaVuSans-83"/>
      <path d="M 2.984375 54.6875 
L 12.5 54.6875 
L 29.59375 8.796875 
L 46.6875 54.6875 
L 56.203125 54.6875 
L 35.6875 0 
L 23.484375 0 
z
" id="DejaVuSans-118"/>
      <path d="M 9.421875 75.984375 
L 18.40625 75.984375 
L 18.40625 0 
L 9.421875 0 
z
" id="DejaVuSans-108"/>
     </defs>
     <g transform="translate(14.798438 219.435156)rotate(-90)scale(0.1 -0.1)">
      <use xlink:href="#DejaVuSans-82"/>
      <use x="69.482422" xlink:href="#DejaVuSans-77"/>
      <use x="155.761719" xlink:href="#DejaVuSans-83"/>
      <use x="219.238281" xlink:href="#DejaVuSans-32"/>
      <use x="251.025391" xlink:href="#DejaVuSans-101"/>
      <use x="312.548828" xlink:href="#DejaVuSans-114"/>
      <use x="353.646484" xlink:href="#DejaVuSans-114"/>
      <use x="394.728516" xlink:href="#DejaVuSans-111"/>
      <use x="455.910156" xlink:href="#DejaVuSans-114"/>
      <use x="497.023438" xlink:href="#DejaVuSans-32"/>
      <use x="528.810547" xlink:href="#DejaVuSans-105"/>
      <use x="556.59375" xlink:href="#DejaVuSans-110"/>
      <use x="619.972656" xlink:href="#DejaVuSans-32"/>
      <use x="651.759766" xlink:href="#DejaVuSans-118"/>
      <use x="710.939453" xlink:href="#DejaVuSans-97"/>
      <use x="772.21875" xlink:href="#DejaVuSans-108"/>
      <use x="800.001953" xlink:href="#DejaVuSans-117"/>
      <use x="863.380859" xlink:href="#DejaVuSans-101"/>
      <use x="924.904297" xlink:href="#DejaVuSans-32"/>
      <use x="956.691406" xlink:href="#DejaVuSans-101"/>
      <use x="1018.214844" xlink:href="#DejaVuSans-115"/>
      <use x="1070.314453" xlink:href="#DejaVuSans-116"/>
      <use x="1109.523438" xlink:href="#DejaVuSans-105"/>
      <use x="1137.306641" xlink:href="#DejaVuSans-109"/>
      <use x="1234.71875" xlink:href="#DejaVuSans-97"/>
      <use x="1295.998047" xlink:href="#DejaVuSans-116"/>
      <use x="1335.207031" xlink:href="#DejaVuSans-101"/>
     </g>
    </g>
   </g>
   <g id="line2d_10">
    <path clip-path="url(#p8a74d61f06)" d="M 46.279757 10.999219 
L 296.105519 10.999219 
L 296.130504 282.763925 
L 545.98125 282.763925 
" style="fill:none;stroke:#c0c0c0;stroke-linecap:square;stroke-width:1.5;"/>
   </g>
   <g id="line2d_11">
    <path clip-path="url(#p8a74d61f06)" d="M 46.279757 10.999219 
L 171.205131 101.508417 
L 296.130504 133.573125 
L 421.055877 158.439611 
L 545.98125 170.804673 
" style="fill:none;stroke:#4169e1;stroke-linecap:square;stroke-width:1.5;"/>
   </g>
   <g id="line2d_12">
    <path clip-path="url(#p8a74d61f06)" d="M 46.279757 10.999219 
L 71.264832 69.582754 
L 96.249907 94.540402 
L 121.234981 116.096363 
L 146.220056 131.689621 
L 171.205131 145.479241 
L 196.190205 153.968163 
L 221.17528 162.928081 
L 246.160354 170.670885 
L 271.145429 175.967695 
L 296.130504 179.915124 
L 321.115578 182.740769 
L 346.100653 187.149018 
L 371.085728 189.922718 
L 396.070802 193.442323 
L 421.055877 195.667326 
L 446.040951 197.922223 
L 471.026026 199.512481 
L 496.011101 201.198839 
L 520.996175 202.809118 
L 545.98125 204.539665 
" style="fill:none;stroke:#228b22;stroke-linecap:square;stroke-width:1.5;"/>
   </g>
   <g id="line2d_13">
    <path clip-path="url(#p8a74d61f06)" d="M 46.279757 10.999219 
L 48.778265 59.215437 
L 51.276772 92.27193 
L 53.77528 109.720793 
L 56.273787 123.019627 
L 58.772295 131.875945 
L 61.270802 143.444034 
L 63.76931 151.378327 
L 66.267817 156.950124 
L 68.766325 161.076805 
L 73.76334 177.498033 
L 76.261847 180.895909 
L 78.760354 181.978017 
L 81.258862 183.38438 
L 83.757369 185.229224 
L 86.255877 189.613997 
L 88.754384 192.867896 
L 91.252892 195.638809 
L 96.249907 200.282589 
L 98.748414 200.865949 
L 101.246922 202.310054 
L 103.745429 203.157594 
L 106.243937 204.198636 
L 108.742444 206.849373 
L 111.240951 209.227943 
L 113.739459 209.990366 
L 116.237966 210.928301 
L 118.736474 210.921449 
L 123.733489 214.679214 
L 126.231996 216.242503 
L 131.229011 217.551122 
L 136.226026 219.643408 
L 138.724534 219.738088 
L 141.223041 220.252921 
L 143.721549 220.612513 
L 146.220056 220.789073 
L 148.718563 222.203763 
L 151.217071 222.961906 
L 153.715578 224.010415 
L 156.214086 224.713789 
L 158.712593 225.800206 
L 161.211101 225.756483 
L 168.706623 228.209227 
L 171.205131 228.134275 
L 173.703638 228.497472 
L 176.202146 228.48366 
L 178.700653 229.395072 
L 181.19916 230.08194 
L 186.196175 230.404871 
L 188.694683 230.747911 
L 191.19319 230.38328 
L 193.691698 230.503367 
L 196.190205 231.36712 
L 198.688713 231.92786 
L 201.18722 232.323561 
L 203.685728 232.157239 
L 206.184235 232.684893 
L 208.682743 233.052414 
L 211.18125 234.045994 
L 213.679757 234.228025 
L 216.178265 234.545094 
L 218.676772 234.701649 
L 221.17528 235.06238 
L 223.673787 235.165391 
L 226.172295 235.571824 
L 231.16931 237.027396 
L 233.667817 237.56812 
L 236.166325 237.62487 
L 238.664832 237.855733 
L 241.16334 238.364093 
L 243.661847 239.164798 
L 248.658862 239.486803 
L 251.157369 240.149038 
L 253.655877 240.246695 
L 256.154384 240.617377 
L 258.652892 241.393543 
L 263.649907 241.637125 
L 268.646922 241.536391 
L 271.145429 241.189645 
L 273.643937 241.864892 
L 276.142444 242.054129 
L 278.640951 242.082996 
L 281.139459 242.243437 
L 283.637966 242.654946 
L 286.136474 243.231065 
L 288.634981 243.591718 
L 291.133489 244.221921 
L 298.629011 245.384006 
L 301.127519 245.48346 
L 303.626026 245.444878 
L 308.623041 245.914682 
L 313.620056 246.505246 
L 316.118563 246.625126 
L 318.617071 247.030096 
L 323.614086 247.093412 
L 326.112593 246.973945 
L 331.109608 247.676949 
L 333.608116 247.88096 
L 336.106623 247.855315 
L 341.103638 248.124239 
L 348.59916 247.975782 
L 351.097668 248.116541 
L 353.596175 248.369864 
L 361.091698 248.562391 
L 363.590205 248.324303 
L 368.58722 248.80238 
L 373.584235 248.873794 
L 378.58125 249.485524 
L 381.079757 249.486283 
L 383.578265 249.621821 
L 386.076772 249.423956 
L 388.57528 249.720704 
L 391.073787 249.770898 
L 393.572295 249.708058 
L 401.067817 250.332748 
L 403.566325 250.295394 
L 406.064832 250.566453 
L 408.56334 250.634513 
L 413.560354 250.963103 
L 423.554384 250.920933 
L 431.049907 251.312158 
L 436.046922 251.301039 
L 438.545429 251.489403 
L 441.043937 251.46917 
L 443.542444 251.300888 
L 446.040951 251.630291 
L 448.539459 251.573499 
L 451.037966 251.679567 
L 453.536474 251.590728 
L 456.034981 251.674701 
L 458.533489 251.593019 
L 461.031996 251.706548 
L 463.530504 251.707473 
L 466.029011 251.867963 
L 468.527519 252.2366 
L 473.524534 252.483091 
L 478.521549 252.492279 
L 483.518563 252.742987 
L 501.008116 253.59392 
L 513.500653 253.916894 
L 518.497668 254.218131 
L 523.494683 254.119709 
L 525.99319 254.29547 
L 528.491698 254.611817 
L 535.98722 254.667607 
L 545.98125 254.791169 
L 545.98125 254.791169 
" style="fill:none;stroke:#daa520;stroke-linecap:square;stroke-width:1.5;"/>
   </g>
   <g id="line2d_14">
    <path clip-path="url(#p8a74d61f06)" d="M 46.279757 10.999219 
L 46.779459 87.193963 
L 47.529011 133.773265 
L 48.528414 161.348591 
L 48.778265 164.997502 
L 50.027519 190.731038 
L 51.026922 198.014854 
L 51.276772 202.646122 
L 51.526623 202.430937 
L 51.776474 203.802282 
L 52.026325 206.848238 
L 52.276175 207.587933 
L 52.775877 210.644122 
L 53.77528 215.630501 
L 54.274981 219.09839 
L 54.524832 219.212531 
L 54.774683 219.711048 
L 55.024534 221.033161 
L 55.274384 221.574964 
L 55.524235 223.628014 
L 55.774086 224.25053 
L 56.023937 225.419604 
L 56.273787 225.810197 
L 56.523638 226.724456 
L 57.27319 227.765072 
L 57.523041 228.023242 
L 57.772892 228.035171 
L 58.272593 229.68657 
L 58.522444 230.880747 
L 58.772295 229.895103 
L 59.521847 230.448404 
L 59.771698 230.79891 
L 60.021549 232.115825 
L 60.271399 232.235316 
L 60.52125 233.401655 
L 60.771101 233.067865 
L 61.520653 235.294726 
L 61.770504 234.445121 
L 62.020354 234.245665 
L 62.270205 234.213962 
L 62.520056 234.408825 
L 63.019757 235.53585 
L 63.76931 237.035773 
L 64.269011 236.923317 
L 64.518862 237.059215 
L 64.768713 237.603644 
L 65.018563 237.674191 
L 65.268414 238.154444 
L 65.518265 238.3326 
L 65.768116 238.366007 
L 66.017966 238.716498 
L 66.267817 238.525347 
L 66.517668 238.631812 
L 66.767519 239.454281 
L 67.017369 239.064621 
L 67.26722 239.408259 
L 67.517071 240.109031 
L 67.766922 239.997765 
L 68.016772 240.764022 
L 68.266623 240.73794 
L 68.516474 241.144773 
L 68.766325 240.907136 
L 69.515877 241.880713 
L 69.765728 241.720787 
L 70.015578 241.732204 
L 70.51528 242.362096 
L 71.264832 243.466522 
L 71.514683 243.292248 
L 72.014384 244.202596 
L 72.264235 244.263383 
L 72.514086 244.60297 
L 72.763937 244.33538 
L 73.263638 245.111836 
L 73.513489 245.180945 
L 73.76334 245.527471 
L 74.01319 245.682807 
L 74.762743 246.598684 
L 75.262444 247.45341 
L 75.762146 247.906887 
L 76.011996 248.270584 
L 76.261847 248.322647 
L 76.511698 248.511296 
L 76.761549 248.508906 
L 78.010802 249.394228 
L 78.260653 249.512529 
L 78.510504 249.793316 
L 79.010205 250.740686 
L 79.759757 251.300192 
L 80.009608 251.091241 
L 80.75916 251.178328 
L 81.009011 251.495552 
L 81.258862 251.42945 
L 82.008414 251.988651 
L 82.508116 252.161748 
L 83.757369 253.484044 
L 84.257071 253.439007 
L 84.756772 253.768898 
L 85.006623 253.778694 
L 85.256474 254.097533 
L 85.506325 254.017408 
L 85.756175 253.739475 
L 86.006026 253.871683 
L 86.255877 254.140863 
L 87.005429 254.356124 
L 87.25528 254.480082 
L 88.004832 254.181615 
L 88.754384 254.757178 
L 89.503937 254.966086 
L 89.753787 255.090609 
L 90.253489 255.164343 
L 90.50334 255.269006 
L 91.003041 255.245999 
L 91.502743 255.724839 
L 92.002444 255.844928 
L 92.502146 256.292537 
L 93.001847 256.640537 
L 93.251698 256.544374 
L 94.251101 257.24198 
L 94.750802 257.251084 
L 95.250504 257.705046 
L 95.500354 258.013866 
L 96.000056 257.611759 
L 96.999459 257.580756 
L 97.49916 257.896042 
L 97.998862 257.689463 
L 98.498563 257.551417 
L 98.748414 257.92494 
L 98.998265 257.909637 
L 99.248116 258.043468 
L 99.497966 257.909491 
L 100.247519 257.985235 
L 100.497369 257.899352 
L 100.74722 258.179006 
L 101.496772 258.146224 
L 101.996474 258.363415 
L 102.496175 258.332795 
L 102.746026 258.44093 
L 102.995877 258.717698 
L 103.245728 258.638972 
L 103.745429 258.960425 
L 103.99528 258.728361 
L 104.245131 258.78175 
L 104.744832 259.147788 
L 105.244534 259.301204 
L 105.494384 259.392034 
L 105.994086 259.274456 
L 106.493787 259.443878 
L 106.743638 259.604321 
L 107.24334 259.636681 
L 107.743041 259.833108 
L 108.742444 259.902032 
L 109.242146 260.221658 
L 109.991698 260.510411 
L 110.241549 260.417381 
L 110.74125 260.628869 
L 110.991101 260.538534 
L 111.740653 260.735694 
L 111.990504 260.594705 
L 112.240354 260.614969 
L 112.490205 260.475211 
L 112.740056 260.639378 
L 112.989907 260.611107 
L 113.239757 260.449609 
L 113.739459 260.681315 
L 114.23916 260.742736 
L 114.738862 260.80918 
L 114.988713 260.758945 
L 115.238563 260.558599 
L 115.488414 260.544024 
L 115.988116 260.674818 
L 116.237966 260.684777 
L 116.487817 260.578243 
L 116.737668 260.710134 
L 116.987519 260.983897 
L 117.237369 260.998847 
L 117.48722 260.865797 
L 117.737071 261.008407 
L 117.986922 260.973078 
L 118.236772 261.073704 
L 118.736474 261.014811 
L 120.235578 260.924527 
L 120.485429 261.093459 
L 120.73528 261.07099 
L 120.985131 261.168865 
L 121.734683 261.106485 
L 124.483041 261.439027 
L 125.232593 261.429891 
L 125.482444 261.282586 
L 127.231399 261.776569 
L 127.48125 261.916156 
L 127.731101 261.926526 
L 128.480653 262.285564 
L 129.230205 262.151983 
L 129.979757 262.225863 
L 130.479459 262.375188 
L 131.229011 262.598777 
L 131.728713 262.536692 
L 132.228414 262.395236 
L 132.728116 262.506795 
L 133.227817 262.335868 
L 133.477668 262.561815 
L 133.727519 262.607803 
L 134.477071 262.360848 
L 134.726922 262.501602 
L 135.726325 262.5953 
L 135.976175 262.745089 
L 136.226026 262.708712 
L 136.475877 262.861944 
L 136.725728 262.756867 
L 137.225429 262.825429 
L 138.724534 262.568132 
L 139.723937 262.774834 
L 139.973787 262.934143 
L 140.72334 262.913107 
L 141.472892 263.012533 
L 143.471698 262.768922 
L 143.721549 262.941652 
L 143.971399 262.892295 
L 144.471101 263.140775 
L 144.970802 263.118359 
L 145.220653 263.010729 
L 145.720354 263.299343 
L 146.719757 263.228127 
L 147.219459 263.329401 
L 147.46931 263.510675 
L 148.468713 263.633665 
L 148.968414 263.670634 
L 149.218265 263.623632 
L 149.717966 263.72669 
L 150.467519 263.783537 
L 151.716772 263.962393 
L 153.465728 263.989892 
L 153.965429 263.836643 
L 154.21528 263.90753 
L 154.465131 263.853848 
L 155.214683 263.955239 
L 155.964235 263.892835 
L 156.713787 263.974327 
L 157.46334 263.836954 
L 157.963041 264.009884 
L 158.462743 264.026592 
L 161.211101 264.105347 
L 161.710802 263.876369 
L 162.210504 263.916997 
L 163.209907 263.936779 
L 163.459757 264.055923 
L 165.208713 264.094942 
L 165.458563 264.291447 
L 165.958265 264.356298 
L 166.707817 264.475194 
L 167.207519 264.415674 
L 167.457369 264.398964 
L 167.957071 264.539804 
L 168.206922 264.401816 
L 170.205728 264.741728 
L 170.705429 264.70101 
L 171.454981 264.740063 
L 172.454384 264.665218 
L 173.703638 264.754202 
L 174.20334 264.935726 
L 175.452593 265.024093 
L 175.952295 265.096351 
L 176.451996 265.110107 
L 181.449011 265.170239 
L 181.948713 265.32454 
L 182.698265 265.358511 
L 183.197966 265.523166 
L 183.447817 265.470125 
L 183.947519 265.565713 
L 184.197369 265.525291 
L 184.44722 265.603243 
L 185.446623 265.473559 
L 185.946325 265.474224 
L 186.446026 265.409146 
L 187.195578 265.399934 
L 187.945131 265.344171 
L 188.444832 265.545967 
L 189.194384 265.575421 
L 191.443041 265.684014 
L 192.692295 265.899398 
L 193.691698 265.963773 
L 193.941549 266.033398 
L 194.191399 265.944057 
L 198.438862 266.385006 
L 200.187817 266.469634 
L 201.936772 266.751986 
L 202.186623 266.63871 
L 204.43528 266.880148 
L 204.685131 266.993643 
L 205.184832 266.969312 
L 208.183041 267.158527 
L 208.682743 267.14987 
L 209.432295 267.143655 
L 209.931996 267.087602 
L 210.431698 267.159719 
L 210.931399 267.263928 
L 212.430504 267.383542 
L 214.929011 267.428027 
L 215.428713 267.260316 
L 215.928414 267.232403 
L 216.428116 267.349901 
L 216.927817 267.388809 
L 224.173489 267.595293 
L 225.422743 267.596457 
L 226.172295 267.694574 
L 228.420951 267.80863 
L 228.920653 267.746625 
L 229.920056 267.788596 
L 231.16931 267.671633 
L 232.418563 267.723623 
L 233.168116 267.565216 
L 235.166922 267.833353 
L 237.91528 267.901235 
L 238.414981 267.927832 
L 239.664235 267.947921 
L 240.163937 267.913061 
L 240.663638 267.920055 
L 244.161549 267.97007 
L 246.909907 268.075551 
L 250.407817 268.197592 
L 251.157369 268.257901 
L 251.906922 268.299372 
L 252.406623 268.388354 
L 293.631996 269.371993 
L 294.381549 269.452772 
L 296.630205 269.522221 
L 297.129907 269.601039 
L 297.879459 269.557204 
L 301.127519 269.867141 
L 302.376772 269.829729 
L 303.126325 269.817906 
L 304.625429 269.848233 
L 306.624235 269.879206 
L 307.623638 269.989922 
L 311.121549 269.976703 
L 312.370802 269.968548 
L 313.120354 269.960612 
L 313.869907 269.981014 
L 315.11916 270.084347 
L 315.868713 270.147376 
L 333.108414 270.850394 
L 335.10722 270.851164 
L 335.606922 270.926448 
L 336.856175 270.947998 
L 342.852593 271.068122 
L 343.352295 271.04484 
L 344.351698 271.073365 
L 345.850802 271.04582 
L 353.596175 271.182406 
L 354.095877 271.201066 
L 355.844832 271.176225 
L 360.092295 271.289718 
L 361.091698 271.339315 
L 365.589011 271.335181 
L 366.088713 271.282233 
L 368.58722 271.35683 
L 371.83528 271.449812 
L 374.083937 271.535741 
L 374.833489 271.488504 
L 377.331996 271.470053 
L 378.831101 271.630856 
L 380.080354 271.574132 
L 382.329011 271.584084 
L 383.828116 271.620658 
L 389.574683 271.786688 
L 392.323041 271.799615 
L 394.071996 271.854607 
L 395.32125 271.772332 
L 405.814981 271.797036 
L 406.814384 271.785561 
L 407.813787 271.787342 
L 426.552593 272.090624 
L 427.302146 272.103457 
L 431.799459 272.243296 
L 433.298563 272.263567 
L 435.297369 272.292071 
L 439.045131 272.248792 
L 440.544235 272.307979 
L 441.543638 272.385026 
L 442.543041 272.375604 
L 445.791101 272.428123 
L 446.790504 272.412246 
L 449.788713 272.567966 
L 452.28722 272.560596 
L 453.786325 272.53884 
L 455.285429 272.596226 
L 456.534683 272.571134 
L 457.284235 272.573843 
L 460.532295 272.702684 
L 463.280653 272.653791 
L 466.278862 272.809693 
L 467.278265 272.837221 
L 471.026026 272.896938 
L 474.274086 273.028495 
L 477.272295 273.078611 
L 480.520354 273.144014 
L 483.518563 273.132311 
L 490.764235 273.078908 
L 491.513787 273.048479 
L 493.012892 273.161641 
L 495.261549 273.198942 
L 497.010504 273.250703 
L 498.009907 273.231517 
L 499.509011 273.264709 
L 506.754683 273.325933 
L 509.00334 273.406744 
L 515.499459 273.487117 
L 517.498265 273.451512 
L 527.742146 273.546808 
L 529.491101 273.603246 
L 532.48931 273.561912 
L 534.987817 273.6071 
L 536.736772 273.617279 
L 537.736175 273.59709 
L 542.48334 273.63672 
L 545.98125 273.642983 
L 545.98125 273.642983 
" style="fill:none;stroke:#b22222;stroke-linecap:square;stroke-width:1.5;"/>
   </g>
   <g id="line2d_15">
    <path clip-path="url(#p8a74d61f06)" d="M 46.279757 10.999219 
L 46.454653 161.926648 
L 46.479638 160.716338 
L 46.504623 162.619742 
L 46.654534 186.464219 
L 46.904384 204.462009 
L 47.204205 220.457447 
L 47.354116 228.158098 
L 47.429071 226.904697 
L 47.529011 228.919265 
L 47.479041 226.889307 
L 47.553996 228.882921 
L 47.853817 234.574155 
L 47.878802 234.463051 
L 47.978743 236.887487 
L 48.028713 236.850535 
L 48.078683 236.461292 
L 48.228593 239.468919 
L 48.278563 239.259512 
L 48.303549 239.145801 
L 48.478444 242.336561 
L 48.65334 244.575611 
L 48.678325 244.431748 
L 48.70331 244.455661 
L 48.80325 246.17952 
L 48.85322 245.990994 
L 48.878205 245.600485 
L 48.928175 246.553492 
L 48.978146 246.438945 
L 49.003131 246.73054 
L 49.252981 248.653409 
L 49.302951 248.12858 
L 49.327937 248.597614 
L 49.452862 249.353168 
L 49.477847 249.295525 
L 49.502832 249.265383 
L 49.527817 249.054937 
L 49.552802 249.165024 
L 49.702713 250.24241 
L 49.727698 250.280985 
L 49.777668 250.980447 
L 49.852623 250.780125 
L 49.902593 251.064625 
L 49.927578 250.747165 
L 49.977549 250.632868 
L 50.002534 250.814359 
L 50.052504 251.457273 
L 50.127459 251.210295 
L 50.177429 250.682267 
L 50.227399 251.091021 
L 50.552205 252.678946 
L 50.702116 252.459862 
L 50.752086 252.179001 
L 50.777071 252.368615 
L 50.802056 252.628282 
L 50.852026 252.294764 
L 50.877011 252.465137 
L 50.901996 252.408961 
L 51.126862 254.507269 
L 51.151847 254.170936 
L 51.176832 253.871879 
L 51.201817 254.236023 
L 51.251787 253.973605 
L 51.601578 255.527581 
L 51.626563 255.239963 
L 51.676534 255.51438 
L 51.851429 256.689572 
L 51.926384 256.99183 
L 51.951369 256.730074 
L 52.05131 256.488503 
L 52.076295 256.622024 
L 52.20122 257.084891 
L 52.25119 256.922159 
L 52.326146 257.500635 
L 52.376116 257.830395 
L 52.451071 257.679042 
L 52.650951 258.591198 
L 52.675937 258.596612 
L 52.750892 258.221576 
L 52.775877 258.416997 
L 52.850832 258.770868 
L 52.900802 258.66404 
L 52.925787 258.437787 
L 53.000743 258.569245 
L 53.150653 258.900992 
L 53.175638 258.748151 
L 53.225608 258.876924 
L 53.475459 260.154992 
L 53.550414 260.484872 
L 53.67534 260.428732 
L 53.700325 260.355185 
L 53.750295 260.500125 
L 53.77528 260.467579 
L 54.175041 261.357794 
L 54.200026 261.208668 
L 54.249996 261.541279 
L 54.449877 262.448384 
L 54.524832 262.377068 
L 54.624772 262.56291 
L 54.649757 262.543099 
L 54.674743 262.648509 
L 54.749698 262.815965 
L 54.774683 262.756753 
L 54.924593 262.645181 
L 55.024534 262.882899 
L 55.049519 262.95691 
L 55.074504 262.834161 
L 55.099489 262.845363 
L 55.124474 262.745449 
L 55.174444 262.831537 
L 55.324354 263.171132 
L 55.34934 263.116797 
L 55.374325 263.240207 
L 55.424295 263.183698 
L 55.624175 263.569615 
L 55.64916 263.458435 
L 55.849041 263.73845 
L 55.998951 264.230892 
L 56.073907 264.281504 
L 56.198832 264.724315 
L 56.223817 264.712087 
L 56.348743 265.076815 
L 56.398713 264.934353 
L 56.523638 265.586515 
L 56.548623 265.379915 
L 56.598593 265.477701 
L 56.648563 265.722545 
L 56.723519 265.59243 
L 56.948384 265.812408 
L 56.973369 265.713176 
L 57.02334 265.870066 
L 57.048325 265.930298 
L 57.12328 265.888892 
L 57.17325 265.715422 
L 57.22322 265.860951 
L 57.448086 265.827124 
L 57.672951 266.325574 
L 57.747907 266.282362 
L 57.797877 266.313012 
L 58.022743 266.948665 
L 58.197638 267.37642 
L 58.222623 267.30705 
L 58.247608 267.415941 
L 58.322563 267.625172 
L 58.372534 267.489339 
L 58.472474 267.535963 
L 58.497459 267.396942 
L 58.547429 267.640796 
L 58.572414 267.603379 
L 58.597399 267.56703 
L 58.622384 267.625888 
L 58.647369 267.725056 
L 58.722325 267.683242 
L 58.74731 267.64801 
L 58.772295 267.794784 
L 58.79728 267.80716 
L 58.94719 267.455926 
L 58.99716 267.345479 
L 59.047131 267.40968 
L 59.147071 267.457489 
L 59.197041 267.48587 
L 59.271996 267.409109 
L 59.621787 267.432599 
L 59.721728 267.699836 
L 59.771698 267.591894 
L 59.846653 267.575136 
L 59.921608 267.68662 
L 59.946593 267.630405 
L 60.021549 267.405027 
L 60.071519 267.468611 
L 60.096504 267.497758 
L 60.121489 267.43119 
L 60.246414 267.117498 
L 60.271399 267.194065 
L 60.321369 267.386614 
L 60.396325 267.286591 
L 60.47128 267.290091 
L 60.496265 267.227454 
L 60.596205 267.099024 
L 60.646175 267.168749 
L 60.67116 267.203296 
L 60.696146 267.090982 
L 60.771101 267.036815 
L 60.796086 267.108712 
L 61.045937 267.248764 
L 61.120892 267.083915 
L 61.170862 267.147799 
L 61.320772 267.291813 
L 61.370743 267.342828 
L 61.420713 267.241131 
L 61.445698 267.20441 
L 61.495668 267.308668 
L 61.745519 267.449862 
L 61.795489 267.365952 
L 61.920414 267.497111 
L 62.445101 267.790366 
L 62.520056 268.03796 
L 62.570026 268.260572 
L 62.644981 268.227351 
L 62.869847 268.089142 
L 63.394534 268.769732 
L 63.494474 268.833307 
L 63.794295 268.822691 
L 63.944205 268.76208 
L 63.96919 268.802881 
L 63.994175 268.848089 
L 64.01916 268.748004 
L 64.069131 268.759941 
L 64.144086 268.661221 
L 64.169071 268.684389 
L 64.343966 269.037155 
L 64.368951 269.022699 
L 64.468892 269.06928 
L 64.518862 269.090232 
L 64.543847 269.006659 
L 64.593817 268.990659 
L 64.618802 269.090513 
L 64.693757 269.142674 
L 64.718743 269.077882 
L 64.993578 269.310305 
L 65.068534 269.417432 
L 65.093519 269.340446 
L 65.118504 269.288339 
L 65.168474 269.415432 
L 65.268414 269.352176 
L 65.343369 269.26443 
L 65.368354 269.341542 
L 65.618205 269.495788 
L 65.718146 269.414624 
L 65.743131 269.497433 
L 66.317787 270.056757 
L 66.442713 270.244396 
L 66.467698 270.166434 
L 66.567638 270.12514 
L 66.692563 270.222942 
L 66.842474 270.347989 
L 67.042354 270.468275 
L 67.242235 270.499294 
L 67.442116 270.520361 
L 67.542056 270.435655 
L 67.567041 270.489157 
L 67.741937 270.541342 
L 67.891847 270.406999 
L 67.941817 270.494116 
L 67.966802 270.591489 
L 68.041757 270.515989 
L 68.191668 270.354117 
L 68.216653 270.459917 
L 68.291608 270.403458 
L 68.341578 270.441646 
L 68.416534 270.387004 
L 68.591429 270.484405 
L 68.666384 270.388251 
L 68.716354 270.444442 
L 68.816295 270.567568 
L 68.84128 270.547701 
L 69.091131 270.570753 
L 69.266026 270.460978 
L 69.440922 270.530377 
L 69.465907 270.566373 
L 69.515877 270.491227 
L 69.590832 270.528261 
L 69.715757 270.588183 
L 69.740743 270.571729 
L 69.815698 270.540321 
L 69.840683 270.60013 
L 69.940623 270.698717 
L 69.990593 270.570416 
L 70.065549 270.611807 
L 70.265429 270.841315 
L 70.290414 270.813072 
L 70.51528 270.69468 
L 70.61522 270.880116 
L 70.66519 270.791536 
L 70.790116 270.770013 
L 71.014981 270.871549 
L 71.339787 271.016071 
L 72.114325 271.0954 
L 72.28922 271.16727 
L 72.38916 271.243432 
L 72.414146 271.226693 
L 72.589041 271.270085 
L 73.588444 271.804976 
L 73.788325 271.885138 
L 73.91325 272.01686 
L 73.938235 271.966133 
L 74.088146 271.936383 
L 75.037578 271.973107 
L 75.187489 272.080238 
L 75.312414 271.958141 
L 75.362384 272.025071 
L 75.58725 272.108401 
L 75.73716 272.220525 
L 76.036981 272.279949 
L 76.261847 272.210799 
L 76.786534 272.296945 
L 76.911459 272.255858 
L 77.086354 272.339356 
L 77.561071 272.285629 
L 77.685996 272.270924 
L 78.110743 272.289627 
L 78.285638 272.349818 
L 78.535489 272.316384 
L 78.710384 272.385755 
L 78.78534 272.355959 
L 78.83531 272.394873 
L 79.135131 272.489388 
L 79.459937 272.594934 
L 79.609847 272.528538 
L 79.634832 272.568864 
L 79.909668 272.685318 
L 80.534295 272.719463 
L 80.684205 272.68303 
L 80.834116 272.687011 
L 81.133937 272.720131 
L 81.283847 272.713389 
L 81.608653 272.883455 
L 81.783549 272.816865 
L 82.28325 272.920936 
L 82.458146 272.819189 
L 82.583071 272.770211 
L 83.232683 272.71351 
L 83.682414 272.864913 
L 83.90728 272.795544 
L 84.032205 272.829791 
L 84.257071 272.707042 
L 84.431966 272.755619 
L 85.131549 272.871456 
L 85.331429 272.98449 
L 85.48134 272.989672 
L 85.73119 273.200978 
L 86.755578 273.479749 
L 86.930474 273.411674 
L 87.105369 273.520873 
L 87.605071 273.575755 
L 87.979847 273.485721 
L 88.179728 273.495316 
L 88.329638 273.569398 
L 88.904295 273.581569 
L 89.478951 273.673924 
L 89.728802 273.601588 
L 89.903698 273.589858 
L 90.053608 273.698959 
L 90.328444 273.667046 
L 90.528325 273.673715 
L 90.678235 273.656356 
L 91.202922 273.57853 
L 91.377817 273.661197 
L 91.477757 273.736628 
L 91.627668 273.766075 
L 92.027429 273.765035 
L 92.22731 273.792812 
L 93.90131 273.941316 
L 94.10119 274.003313 
L 94.276086 273.932848 
L 94.326056 273.904197 
L 94.376026 273.944755 
L 94.600892 273.908302 
L 94.800772 273.940298 
L 95.150563 274.092756 
L 95.750205 274.143253 
L 95.900116 274.192813 
L 96.199937 274.220211 
L 96.399817 274.288532 
L 96.599698 274.294332 
L 96.749608 274.292256 
L 98.398623 274.562914 
L 98.473578 274.569299 
L 98.498563 274.541863 
L 98.773399 274.517529 
L 98.898325 274.581436 
L 98.92331 274.557211 
L 99.07322 274.537814 
L 99.248116 274.559685 
L 100.147578 274.56178 
L 100.772205 274.751062 
L 101.196951 274.700944 
L 101.421817 274.793808 
L 101.671668 274.807543 
L 101.996474 274.824638 
L 106.218951 275.139313 
L 106.368862 275.151253 
L 106.543757 275.222453 
L 106.568743 275.190446 
L 106.743638 275.187855 
L 106.918534 275.172866 
L 107.218354 275.130288 
L 107.892951 275.168683 
L 108.242743 275.161341 
L 108.442623 275.158383 
L 108.592534 275.179457 
L 108.817399 275.162494 
L 109.192175 275.241728 
L 109.516981 275.352254 
L 109.766832 275.344409 
L 109.891757 275.342475 
L 110.116623 275.344757 
L 110.866175 275.416248 
L 111.240951 275.369085 
L 111.740653 275.403124 
L 112.26534 275.367631 
L 112.540175 275.31655 
L 112.665101 275.31807 
L 112.939937 275.426718 
L 113.289728 275.341866 
L 113.589549 275.419579 
L 113.714474 275.447396 
L 113.889369 275.455359 
L 114.414056 275.398214 
L 114.588951 275.427281 
L 114.763847 275.444424 
L 115.088653 275.438814 
L 115.288534 275.446018 
L 115.66331 275.445297 
L 116.088056 275.657078 
L 116.262951 275.643713 
L 116.612743 275.70791 
L 116.837608 275.664016 
L 117.112444 275.663522 
L 118.086862 275.732435 
L 118.436653 275.75366 
L 118.711489 275.787194 
L 118.911369 275.839143 
L 119.660922 275.930855 
L 119.885787 275.941275 
L 120.185608 275.92674 
L 120.385489 275.966452 
L 120.660325 275.944327 
L 120.910175 275.967877 
L 121.160026 276.009405 
L 122.60916 275.959642 
L 123.058892 276.045201 
L 123.358713 276.081762 
L 123.508623 276.11024 
L 123.733489 276.109163 
L 123.98334 276.158532 
L 124.508026 276.190584 
L 124.832832 276.286295 
L 126.032116 276.483864 
L 126.631757 276.432879 
L 126.856623 276.453717 
L 127.081489 276.432288 
L 127.256384 276.441083 
L 127.806056 276.490755 
L 128.005937 276.461451 
L 128.405698 276.476665 
L 128.630563 276.448122 
L 129.405101 276.499567 
L 129.604981 276.51831 
L 130.254593 276.560167 
L 130.87922 276.474209 
L 131.403907 276.559542 
L 131.803668 276.559125 
L 131.978563 276.584532 
L 132.178444 276.608245 
L 133.002951 276.682905 
L 133.177847 276.684587 
L 133.727519 276.645703 
L 133.902414 276.640422 
L 134.07731 276.682268 
L 134.577011 276.752583 
L 135.85125 276.721474 
L 136.475877 276.862009 
L 137.225429 276.788482 
L 137.42531 276.806419 
L 137.62519 276.782039 
L 146.619817 277.068157 
L 146.944623 277.06379 
L 149.468116 277.189493 
L 149.692981 277.219564 
L 153.840504 277.227951 
L 154.015399 277.237231 
L 157.363399 277.206501 
L 157.588265 277.19322 
L 158.537698 277.318812 
L 160.336623 277.21511 
L 167.732205 277.258764 
L 168.106981 277.275816 
L 168.606683 277.256883 
L 169.006444 277.302435 
L 169.206325 277.3119 
L 170.90531 277.36193 
L 171.579907 277.315246 
L 173.203937 277.28929 
L 174.802981 277.412596 
L 175.852354 277.50184 
L 176.327071 277.473393 
L 176.701847 277.546674 
L 177.026653 277.541567 
L 177.251519 277.531794 
L 179.600116 277.58829 
L 180.224743 277.631094 
L 180.449608 277.634734 
L 182.523369 277.63344 
L 184.622116 277.559694 
L 187.270534 277.606562 
L 187.670295 277.602661 
L 191.817817 277.754158 
L 193.092056 277.710171 
L 193.891578 277.711443 
L 194.691101 277.748467 
L 195.090862 277.751826 
L 199.288354 277.833782 
L 199.763071 277.818437 
L 201.561996 277.901498 
L 201.836832 277.902922 
L 203.111071 277.917383 
L 203.485847 277.936945 
L 203.860623 277.962173 
L 204.235399 277.98338 
L 204.909996 277.996291 
L 208.133071 277.976477 
L 226.721966 278.31064 
L 227.521489 278.304131 
L 227.97122 278.314831 
L 229.670205 278.302263 
L 230.744563 278.315997 
L 231.594056 278.312806 
L 232.543489 278.308173 
L 232.968235 278.322707 
L 233.343011 278.315635 
L 233.967638 278.320808 
L 234.417369 278.316681 
L 235.141937 278.363411 
L 235.441757 278.361424 
L 235.941459 278.351407 
L 237.81534 278.419581 
L 239.214504 278.451248 
L 240.063996 278.459398 
L 240.738593 278.455184 
L 250.932504 278.58018 
L 251.532146 278.581531 
L 252.081817 278.576235 
L 252.531549 278.605863 
L 255.005071 278.524739 
L 255.379847 278.537149 
L 256.953907 278.583252 
L 258.128205 278.598991 
L 258.752832 278.613962 
L 260.576743 278.565939 
L 261.40125 278.578204 
L 275.317937 278.743405 
L 276.342325 278.749724 
L 276.717101 278.744526 
L 278.341131 278.7598 
L 279.040713 278.75795 
L 279.515429 278.770562 
L 280.714713 278.754745 
L 281.58919 278.743437 
L 283.288175 278.806025 
L 284.637369 278.80394 
L 285.112086 278.814072 
L 287.660563 278.84345 
L 288.410116 278.841432 
L 288.834862 278.825638 
L 289.934205 278.848027 
L 290.508862 278.85503 
L 291.058534 278.873358 
L 293.007369 278.867616 
L 295.655787 278.888301 
L 296.130504 278.901048 
L 296.805101 278.89265 
L 303.35119 279.046103 
L 304.500504 279.088341 
L 307.348802 279.142883 
L 308.37319 279.171317 
L 308.822922 279.178901 
L 313.645041 279.157242 
L 314.019817 279.132699 
L 317.642653 279.158668 
L 318.46716 279.172754 
L 320.540922 279.22948 
L 322.789578 279.23746 
L 323.33925 279.252696 
L 324.838354 279.278544 
L 325.413011 279.265055 
L 326.63728 279.284266 
L 327.536743 279.284588 
L 331.70925 279.31857 
L 333.108414 279.318876 
L 333.408235 279.320291 
L 333.907937 279.297202 
L 334.532563 279.307988 
L 335.282116 279.289559 
L 335.931728 279.281051 
L 337.930534 279.297759 
L 338.430235 279.303659 
L 338.954922 279.292797 
L 340.22916 279.276807 
L 341.728265 279.279119 
L 545.98125 280.11704 
L 545.98125 280.11704 
" style="fill:none;stroke:#800080;stroke-linecap:square;stroke-width:1.5;"/>
   </g>
   <g id="patch_3">
    <path d="M 43.78125 288.199219 
L 43.78125 10.999219 
" style="fill:none;stroke:#000000;stroke-linecap:square;stroke-linejoin:miter;stroke-width:0.8;"/>
   </g>
   <g id="patch_4">
    <path d="M 545.98125 288.199219 
L 545.98125 10.999219 
" style="fill:none;stroke:#000000;stroke-linecap:square;stroke-linejoin:miter;stroke-width:0.8;"/>
   </g>
   <g id="patch_5">
    <path d="M 43.78125 288.199219 
L 545.98125 288.199219 
" style="fill:none;stroke:#000000;stroke-linecap:square;stroke-linejoin:miter;stroke-width:0.8;"/>
   </g>
   <g id="patch_6">
    <path d="M 43.78125 10.999219 
L 545.98125 10.999219 
" style="fill:none;stroke:#000000;stroke-linecap:square;stroke-linejoin:miter;stroke-width:0.8;"/>
   </g>
   <g id="legend_1">
    <g id="patch_7">
     <path d="M 416.698438 107.067969 
L 538.98125 107.067969 
Q 540.98125 107.067969 540.98125 105.067969 
L 540.98125 17.999219 
Q 540.98125 15.999219 538.98125 15.999219 
L 416.698438 15.999219 
Q 414.698438 15.999219 414.698438 17.999219 
L 414.698438 105.067969 
Q 414.698438 107.067969 416.698438 107.067969 
z
" style="fill:#ffffff;opacity:0.8;stroke:#cccccc;stroke-linejoin:miter;"/>
    </g>
    <g id="line2d_16">
     <path d="M 418.698438 24.097656 
L 438.698438 24.097656 
" style="fill:none;stroke:#c0c0c0;stroke-linecap:square;stroke-width:1.5;"/>
    </g>
    <g id="line2d_17"/>
    <g id="text_12">
     <!-- Expected updates -->
     <defs>
      <path d="M 9.8125 72.90625 
L 55.90625 72.90625 
L 55.90625 64.59375 
L 19.671875 64.59375 
L 19.671875 43.015625 
L 54.390625 43.015625 
L 54.390625 34.71875 
L 19.671875 34.71875 
L 19.671875 8.296875 
L 56.78125 8.296875 
L 56.78125 0 
L 9.8125 0 
z
" id="DejaVuSans-69"/>
      <path d="M 45.40625 46.390625 
L 45.40625 75.984375 
L 54.390625 75.984375 
L 54.390625 0 
L 45.40625 0 
L 45.40625 8.203125 
Q 42.578125 3.328125 38.25 0.953125 
Q 33.9375 -1.421875 27.875 -1.421875 
Q 17.96875 -1.421875 11.734375 6.484375 
Q 5.515625 14.40625 5.515625 27.296875 
Q 5.515625 40.1875 11.734375 48.09375 
Q 17.96875 56 27.875 56 
Q 33.9375 56 38.25 53.625 
Q 42.578125 51.265625 45.40625 46.390625 
z
M 14.796875 27.296875 
Q 14.796875 17.390625 18.875 11.75 
Q 22.953125 6.109375 30.078125 6.109375 
Q 37.203125 6.109375 41.296875 11.75 
Q 45.40625 17.390625 45.40625 27.296875 
Q 45.40625 37.203125 41.296875 42.84375 
Q 37.203125 48.484375 30.078125 48.484375 
Q 22.953125 48.484375 18.875 42.84375 
Q 14.796875 37.203125 14.796875 27.296875 
z
" id="DejaVuSans-100"/>
     </defs>
     <g transform="translate(446.698438 27.597656)scale(0.1 -0.1)">
      <use xlink:href="#DejaVuSans-69"/>
      <use x="63.183594" xlink:href="#DejaVuSans-120"/>
      <use x="122.363281" xlink:href="#DejaVuSans-112"/>
      <use x="185.839844" xlink:href="#DejaVuSans-101"/>
      <use x="247.363281" xlink:href="#DejaVuSans-99"/>
      <use x="302.34375" xlink:href="#DejaVuSans-116"/>
      <use x="341.552734" xlink:href="#DejaVuSans-101"/>
      <use x="403.076172" xlink:href="#DejaVuSans-100"/>
      <use x="466.552734" xlink:href="#DejaVuSans-32"/>
      <use x="498.339844" xlink:href="#DejaVuSans-117"/>
      <use x="561.71875" xlink:href="#DejaVuSans-112"/>
      <use x="625.195312" xlink:href="#DejaVuSans-100"/>
      <use x="688.671875" xlink:href="#DejaVuSans-97"/>
      <use x="749.951172" xlink:href="#DejaVuSans-116"/>
      <use x="789.160156" xlink:href="#DejaVuSans-101"/>
      <use x="850.683594" xlink:href="#DejaVuSans-115"/>
     </g>
    </g>
    <g id="line2d_18">
     <path d="M 418.698438 38.775781 
L 438.698438 38.775781 
" style="fill:none;stroke:#4169e1;stroke-linecap:square;stroke-width:1.5;"/>
    </g>
    <g id="line2d_19"/>
    <g id="text_13">
     <!-- b = 2 -->
     <defs>
      <path d="M 10.59375 45.40625 
L 73.1875 45.40625 
L 73.1875 37.203125 
L 10.59375 37.203125 
z
M 10.59375 25.484375 
L 73.1875 25.484375 
L 73.1875 17.1875 
L 10.59375 17.1875 
z
" id="DejaVuSans-61"/>
     </defs>
     <g transform="translate(446.698438 42.275781)scale(0.1 -0.1)">
      <use xlink:href="#DejaVuSans-98"/>
      <use x="63.476562" xlink:href="#DejaVuSans-32"/>
      <use x="95.263672" xlink:href="#DejaVuSans-61"/>
      <use x="179.052734" xlink:href="#DejaVuSans-32"/>
      <use x="210.839844" xlink:href="#DejaVuSans-50"/>
     </g>
    </g>
    <g id="line2d_20">
     <path d="M 418.698438 53.453906 
L 438.698438 53.453906 
" style="fill:none;stroke:#228b22;stroke-linecap:square;stroke-width:1.5;"/>
    </g>
    <g id="line2d_21"/>
    <g id="text_14">
     <!-- b = 10 -->
     <g transform="translate(446.698438 56.953906)scale(0.1 -0.1)">
      <use xlink:href="#DejaVuSans-98"/>
      <use x="63.476562" xlink:href="#DejaVuSans-32"/>
      <use x="95.263672" xlink:href="#DejaVuSans-61"/>
      <use x="179.052734" xlink:href="#DejaVuSans-32"/>
      <use x="210.839844" xlink:href="#DejaVuSans-49"/>
      <use x="274.462891" xlink:href="#DejaVuSans-48"/>
     </g>
    </g>
    <g id="line2d_22">
     <path d="M 418.698438 68.132031 
L 438.698438 68.132031 
" style="fill:none;stroke:#daa520;stroke-linecap:square;stroke-width:1.5;"/>
    </g>
    <g id="line2d_23"/>
    <g id="text_15">
     <!-- b = 100 -->
     <g transform="translate(446.698438 71.632031)scale(0.1 -0.1)">
      <use xlink:href="#DejaVuSans-98"/>
      <use x="63.476562" xlink:href="#DejaVuSans-32"/>
      <use x="95.263672" xlink:href="#DejaVuSans-61"/>
      <use x="179.052734" xlink:href="#DejaVuSans-32"/>
      <use x="210.839844" xlink:href="#DejaVuSans-49"/>
      <use x="274.462891" xlink:href="#DejaVuSans-48"/>
      <use x="338.085938" xlink:href="#DejaVuSans-48"/>
     </g>
    </g>
    <g id="line2d_24">
     <path d="M 418.698438 82.810156 
L 438.698438 82.810156 
" style="fill:none;stroke:#b22222;stroke-linecap:square;stroke-width:1.5;"/>
    </g>
    <g id="line2d_25"/>
    <g id="text_16">
     <!-- b = 1000 -->
     <g transform="translate(446.698438 86.310156)scale(0.1 -0.1)">
      <use xlink:href="#DejaVuSans-98"/>
      <use x="63.476562" xlink:href="#DejaVuSans-32"/>
      <use x="95.263672" xlink:href="#DejaVuSans-61"/>
      <use x="179.052734" xlink:href="#DejaVuSans-32"/>
      <use x="210.839844" xlink:href="#DejaVuSans-49"/>
      <use x="274.462891" xlink:href="#DejaVuSans-48"/>
      <use x="338.085938" xlink:href="#DejaVuSans-48"/>
      <use x="401.708984" xlink:href="#DejaVuSans-48"/>
     </g>
    </g>
    <g id="line2d_26">
     <path d="M 418.698438 97.488281 
L 438.698438 97.488281 
" style="fill:none;stroke:#800080;stroke-linecap:square;stroke-width:1.5;"/>
    </g>
    <g id="line2d_27"/>
    <g id="text_17">
     <!-- b = 10000 -->
     <g transform="translate(446.698438 100.988281)scale(0.1 -0.1)">
      <use xlink:href="#DejaVuSans-98"/>
      <use x="63.476562" xlink:href="#DejaVuSans-32"/>
      <use x="95.263672" xlink:href="#DejaVuSans-61"/>
      <use x="179.052734" xlink:href="#DejaVuSans-32"/>
      <use x="210.839844" xlink:href="#DejaVuSans-49"/>
      <use x="274.462891" xlink:href="#DejaVuSans-48"/>
      <use x="338.085938" xlink:href="#DejaVuSans-48"/>
      <use x="401.708984" xlink:href="#DejaVuSans-48"/>
      <use x="465.332031" xlink:href="#DejaVuSans-48"/>
     </g>
    </g>
   </g>
  </g>
 </g>
 <defs>
  <clipPath id="p8a74d61f06">
   <rect height="277.2" width="502.2" x="43.78125" y="10.999219"/>
  </clipPath>
 </defs>
</svg>
