<?xml version="1.0" encoding="utf-8" standalone="no"?>
<!DOCTYPE svg PUBLIC "-//W3C//DTD SVG 1.1//EN"
  "http://www.w3.org/Graphics/SVG/1.1/DTD/svg11.dtd">
<!-- Created with matplotlib (https://matplotlib.org/) -->
<svg height="351.99625pt" version="1.1" viewBox="0 0 565.773125 351.99625" width="565.773125pt" xmlns="http://www.w3.org/2000/svg" xmlns:xlink="http://www.w3.org/1999/xlink">
 <defs>
  <style type="text/css">
*{stroke-linecap:butt;stroke-linejoin:round;}
  </style>
 </defs>
 <g id="figure_1">
  <g id="patch_1">
   <path d="M 0 351.99625 
L 565.773125 351.99625 
L 565.773125 0 
L 0 0 
z
" style="fill:#ffffff;"/>
  </g>
  <g id="axes_1">
   <g id="patch_2">
    <path d="M 49.703125 314.44 
L 558.573125 314.44 
L 558.573125 7.2 
L 49.703125 7.2 
z
" style="fill:#ffffff;"/>
   </g>
   <g id="matplotlib.axis_1">
    <g id="xtick_1">
     <g id="line2d_1">
      <defs>
       <path d="M 0 0 
L 0 3.5 
" id="mb1e6ab7a82" style="stroke:#000000;stroke-width:0.8;"/>
      </defs>
      <g>
       <use style="stroke:#000000;stroke-width:0.8;" x="72.740872" xlink:href="#mb1e6ab7a82" y="314.44"/>
      </g>
     </g>
     <g id="text_1">
      <!-- 0 -->
      <defs>
       <path d="M 31.78125 66.40625 
Q 24.171875 66.40625 20.328125 58.90625 
Q 16.5 51.421875 16.5 36.375 
Q 16.5 21.390625 20.328125 13.890625 
Q 24.171875 6.390625 31.78125 6.390625 
Q 39.453125 6.390625 43.28125 13.890625 
Q 47.125 21.390625 47.125 36.375 
Q 47.125 51.421875 43.28125 58.90625 
Q 39.453125 66.40625 31.78125 66.40625 
z
M 31.78125 74.21875 
Q 44.046875 74.21875 50.515625 64.515625 
Q 56.984375 54.828125 56.984375 36.375 
Q 56.984375 17.96875 50.515625 8.265625 
Q 44.046875 -1.421875 31.78125 -1.421875 
Q 19.53125 -1.421875 13.0625 8.265625 
Q 6.59375 17.96875 6.59375 36.375 
Q 6.59375 54.828125 13.0625 64.515625 
Q 19.53125 74.21875 31.78125 74.21875 
z
" id="DejaVuSans-48"/>
      </defs>
      <g transform="translate(69.559622 329.038437)scale(0.1 -0.1)">
       <use xlink:href="#DejaVuSans-48"/>
      </g>
     </g>
    </g>
    <g id="xtick_2">
     <g id="line2d_2">
      <g>
       <use style="stroke:#000000;stroke-width:0.8;" x="165.448105" xlink:href="#mb1e6ab7a82" y="314.44"/>
      </g>
     </g>
     <g id="text_2">
      <!-- 1000 -->
      <defs>
       <path d="M 12.40625 8.296875 
L 28.515625 8.296875 
L 28.515625 63.921875 
L 10.984375 60.40625 
L 10.984375 69.390625 
L 28.421875 72.90625 
L 38.28125 72.90625 
L 38.28125 8.296875 
L 54.390625 8.296875 
L 54.390625 0 
L 12.40625 0 
z
" id="DejaVuSans-49"/>
      </defs>
      <g transform="translate(152.723105 329.038437)scale(0.1 -0.1)">
       <use xlink:href="#DejaVuSans-49"/>
       <use x="63.623047" xlink:href="#DejaVuSans-48"/>
       <use x="127.246094" xlink:href="#DejaVuSans-48"/>
       <use x="190.869141" xlink:href="#DejaVuSans-48"/>
      </g>
     </g>
    </g>
    <g id="xtick_3">
     <g id="line2d_3">
      <g>
       <use style="stroke:#000000;stroke-width:0.8;" x="258.155338" xlink:href="#mb1e6ab7a82" y="314.44"/>
      </g>
     </g>
     <g id="text_3">
      <!-- 2000 -->
      <defs>
       <path d="M 19.1875 8.296875 
L 53.609375 8.296875 
L 53.609375 0 
L 7.328125 0 
L 7.328125 8.296875 
Q 12.9375 14.109375 22.625 23.890625 
Q 32.328125 33.6875 34.8125 36.53125 
Q 39.546875 41.84375 41.421875 45.53125 
Q 43.3125 49.21875 43.3125 52.78125 
Q 43.3125 58.59375 39.234375 62.25 
Q 35.15625 65.921875 28.609375 65.921875 
Q 23.96875 65.921875 18.8125 64.3125 
Q 13.671875 62.703125 7.8125 59.421875 
L 7.8125 69.390625 
Q 13.765625 71.78125 18.9375 73 
Q 24.125 74.21875 28.421875 74.21875 
Q 39.75 74.21875 46.484375 68.546875 
Q 53.21875 62.890625 53.21875 53.421875 
Q 53.21875 48.921875 51.53125 44.890625 
Q 49.859375 40.875 45.40625 35.40625 
Q 44.1875 33.984375 37.640625 27.21875 
Q 31.109375 20.453125 19.1875 8.296875 
z
" id="DejaVuSans-50"/>
      </defs>
      <g transform="translate(245.430338 329.038437)scale(0.1 -0.1)">
       <use xlink:href="#DejaVuSans-50"/>
       <use x="63.623047" xlink:href="#DejaVuSans-48"/>
       <use x="127.246094" xlink:href="#DejaVuSans-48"/>
       <use x="190.869141" xlink:href="#DejaVuSans-48"/>
      </g>
     </g>
    </g>
    <g id="xtick_4">
     <g id="line2d_4">
      <g>
       <use style="stroke:#000000;stroke-width:0.8;" x="350.86257" xlink:href="#mb1e6ab7a82" y="314.44"/>
      </g>
     </g>
     <g id="text_4">
      <!-- 3000 -->
      <defs>
       <path d="M 40.578125 39.3125 
Q 47.65625 37.796875 51.625 33 
Q 55.609375 28.21875 55.609375 21.1875 
Q 55.609375 10.40625 48.1875 4.484375 
Q 40.765625 -1.421875 27.09375 -1.421875 
Q 22.515625 -1.421875 17.65625 -0.515625 
Q 12.796875 0.390625 7.625 2.203125 
L 7.625 11.71875 
Q 11.71875 9.328125 16.59375 8.109375 
Q 21.484375 6.890625 26.8125 6.890625 
Q 36.078125 6.890625 40.9375 10.546875 
Q 45.796875 14.203125 45.796875 21.1875 
Q 45.796875 27.640625 41.28125 31.265625 
Q 36.765625 34.90625 28.71875 34.90625 
L 20.21875 34.90625 
L 20.21875 43.015625 
L 29.109375 43.015625 
Q 36.375 43.015625 40.234375 45.921875 
Q 44.09375 48.828125 44.09375 54.296875 
Q 44.09375 59.90625 40.109375 62.90625 
Q 36.140625 65.921875 28.71875 65.921875 
Q 24.65625 65.921875 20.015625 65.03125 
Q 15.375 64.15625 9.8125 62.3125 
L 9.8125 71.09375 
Q 15.4375 72.65625 20.34375 73.4375 
Q 25.25 74.21875 29.59375 74.21875 
Q 40.828125 74.21875 47.359375 69.109375 
Q 53.90625 64.015625 53.90625 55.328125 
Q 53.90625 49.265625 50.4375 45.09375 
Q 46.96875 40.921875 40.578125 39.3125 
z
" id="DejaVuSans-51"/>
      </defs>
      <g transform="translate(338.13757 329.038437)scale(0.1 -0.1)">
       <use xlink:href="#DejaVuSans-51"/>
       <use x="63.623047" xlink:href="#DejaVuSans-48"/>
       <use x="127.246094" xlink:href="#DejaVuSans-48"/>
       <use x="190.869141" xlink:href="#DejaVuSans-48"/>
      </g>
     </g>
    </g>
    <g id="xtick_5">
     <g id="line2d_5">
      <g>
       <use style="stroke:#000000;stroke-width:0.8;" x="443.569803" xlink:href="#mb1e6ab7a82" y="314.44"/>
      </g>
     </g>
     <g id="text_5">
      <!-- 4000 -->
      <defs>
       <path d="M 37.796875 64.3125 
L 12.890625 25.390625 
L 37.796875 25.390625 
z
M 35.203125 72.90625 
L 47.609375 72.90625 
L 47.609375 25.390625 
L 58.015625 25.390625 
L 58.015625 17.1875 
L 47.609375 17.1875 
L 47.609375 0 
L 37.796875 0 
L 37.796875 17.1875 
L 4.890625 17.1875 
L 4.890625 26.703125 
z
" id="DejaVuSans-52"/>
      </defs>
      <g transform="translate(430.844803 329.038437)scale(0.1 -0.1)">
       <use xlink:href="#DejaVuSans-52"/>
       <use x="63.623047" xlink:href="#DejaVuSans-48"/>
       <use x="127.246094" xlink:href="#DejaVuSans-48"/>
       <use x="190.869141" xlink:href="#DejaVuSans-48"/>
      </g>
     </g>
    </g>
    <g id="xtick_6">
     <g id="line2d_6">
      <g>
       <use style="stroke:#000000;stroke-width:0.8;" x="536.277036" xlink:href="#mb1e6ab7a82" y="314.44"/>
      </g>
     </g>
     <g id="text_6">
      <!-- 5000 -->
      <defs>
       <path d="M 10.796875 72.90625 
L 49.515625 72.90625 
L 49.515625 64.59375 
L 19.828125 64.59375 
L 19.828125 46.734375 
Q 21.96875 47.46875 24.109375 47.828125 
Q 26.265625 48.1875 28.421875 48.1875 
Q 40.625 48.1875 47.75 41.5 
Q 54.890625 34.8125 54.890625 23.390625 
Q 54.890625 11.625 47.5625 5.09375 
Q 40.234375 -1.421875 26.90625 -1.421875 
Q 22.3125 -1.421875 17.546875 -0.640625 
Q 12.796875 0.140625 7.71875 1.703125 
L 7.71875 11.625 
Q 12.109375 9.234375 16.796875 8.0625 
Q 21.484375 6.890625 26.703125 6.890625 
Q 35.15625 6.890625 40.078125 11.328125 
Q 45.015625 15.765625 45.015625 23.390625 
Q 45.015625 31 40.078125 35.4375 
Q 35.15625 39.890625 26.703125 39.890625 
Q 22.75 39.890625 18.8125 39.015625 
Q 14.890625 38.140625 10.796875 36.28125 
z
" id="DejaVuSans-53"/>
      </defs>
      <g transform="translate(523.552036 329.038437)scale(0.1 -0.1)">
       <use xlink:href="#DejaVuSans-53"/>
       <use x="63.623047" xlink:href="#DejaVuSans-48"/>
       <use x="127.246094" xlink:href="#DejaVuSans-48"/>
       <use x="190.869141" xlink:href="#DejaVuSans-48"/>
      </g>
     </g>
    </g>
    <g id="text_7">
     <!-- Episodes -->
     <defs>
      <path d="M 9.8125 72.90625 
L 55.90625 72.90625 
L 55.90625 64.59375 
L 19.671875 64.59375 
L 19.671875 43.015625 
L 54.390625 43.015625 
L 54.390625 34.71875 
L 19.671875 34.71875 
L 19.671875 8.296875 
L 56.78125 8.296875 
L 56.78125 0 
L 9.8125 0 
z
" id="DejaVuSans-69"/>
      <path d="M 18.109375 8.203125 
L 18.109375 -20.796875 
L 9.078125 -20.796875 
L 9.078125 54.6875 
L 18.109375 54.6875 
L 18.109375 46.390625 
Q 20.953125 51.265625 25.265625 53.625 
Q 29.59375 56 35.59375 56 
Q 45.5625 56 51.78125 48.09375 
Q 58.015625 40.1875 58.015625 27.296875 
Q 58.015625 14.40625 51.78125 6.484375 
Q 45.5625 -1.421875 35.59375 -1.421875 
Q 29.59375 -1.421875 25.265625 0.953125 
Q 20.953125 3.328125 18.109375 8.203125 
z
M 48.6875 27.296875 
Q 48.6875 37.203125 44.609375 42.84375 
Q 40.53125 48.484375 33.40625 48.484375 
Q 26.265625 48.484375 22.1875 42.84375 
Q 18.109375 37.203125 18.109375 27.296875 
Q 18.109375 17.390625 22.1875 11.75 
Q 26.265625 6.109375 33.40625 6.109375 
Q 40.53125 6.109375 44.609375 11.75 
Q 48.6875 17.390625 48.6875 27.296875 
z
" id="DejaVuSans-112"/>
      <path d="M 9.421875 54.6875 
L 18.40625 54.6875 
L 18.40625 0 
L 9.421875 0 
z
M 9.421875 75.984375 
L 18.40625 75.984375 
L 18.40625 64.59375 
L 9.421875 64.59375 
z
" id="DejaVuSans-105"/>
      <path d="M 44.28125 53.078125 
L 44.28125 44.578125 
Q 40.484375 46.53125 36.375 47.5 
Q 32.28125 48.484375 27.875 48.484375 
Q 21.1875 48.484375 17.84375 46.4375 
Q 14.5 44.390625 14.5 40.28125 
Q 14.5 37.15625 16.890625 35.375 
Q 19.28125 33.59375 26.515625 31.984375 
L 29.59375 31.296875 
Q 39.15625 29.25 43.1875 25.515625 
Q 47.21875 21.78125 47.21875 15.09375 
Q 47.21875 7.46875 41.1875 3.015625 
Q 35.15625 -1.421875 24.609375 -1.421875 
Q 20.21875 -1.421875 15.453125 -0.5625 
Q 10.6875 0.296875 5.421875 2 
L 5.421875 11.28125 
Q 10.40625 8.6875 15.234375 7.390625 
Q 20.0625 6.109375 24.8125 6.109375 
Q 31.15625 6.109375 34.5625 8.28125 
Q 37.984375 10.453125 37.984375 14.40625 
Q 37.984375 18.0625 35.515625 20.015625 
Q 33.0625 21.96875 24.703125 23.78125 
L 21.578125 24.515625 
Q 13.234375 26.265625 9.515625 29.90625 
Q 5.8125 33.546875 5.8125 39.890625 
Q 5.8125 47.609375 11.28125 51.796875 
Q 16.75 56 26.8125 56 
Q 31.78125 56 36.171875 55.265625 
Q 40.578125 54.546875 44.28125 53.078125 
z
" id="DejaVuSans-115"/>
      <path d="M 30.609375 48.390625 
Q 23.390625 48.390625 19.1875 42.75 
Q 14.984375 37.109375 14.984375 27.296875 
Q 14.984375 17.484375 19.15625 11.84375 
Q 23.34375 6.203125 30.609375 6.203125 
Q 37.796875 6.203125 41.984375 11.859375 
Q 46.1875 17.53125 46.1875 27.296875 
Q 46.1875 37.015625 41.984375 42.703125 
Q 37.796875 48.390625 30.609375 48.390625 
z
M 30.609375 56 
Q 42.328125 56 49.015625 48.375 
Q 55.71875 40.765625 55.71875 27.296875 
Q 55.71875 13.875 49.015625 6.21875 
Q 42.328125 -1.421875 30.609375 -1.421875 
Q 18.84375 -1.421875 12.171875 6.21875 
Q 5.515625 13.875 5.515625 27.296875 
Q 5.515625 40.765625 12.171875 48.375 
Q 18.84375 56 30.609375 56 
z
" id="DejaVuSans-111"/>
      <path d="M 45.40625 46.390625 
L 45.40625 75.984375 
L 54.390625 75.984375 
L 54.390625 0 
L 45.40625 0 
L 45.40625 8.203125 
Q 42.578125 3.328125 38.25 0.953125 
Q 33.9375 -1.421875 27.875 -1.421875 
Q 17.96875 -1.421875 11.734375 6.484375 
Q 5.515625 14.40625 5.515625 27.296875 
Q 5.515625 40.1875 11.734375 48.09375 
Q 17.96875 56 27.875 56 
Q 33.9375 56 38.25 53.625 
Q 42.578125 51.265625 45.40625 46.390625 
z
M 14.796875 27.296875 
Q 14.796875 17.390625 18.875 11.75 
Q 22.953125 6.109375 30.078125 6.109375 
Q 37.203125 6.109375 41.296875 11.75 
Q 45.40625 17.390625 45.40625 27.296875 
Q 45.40625 37.203125 41.296875 42.84375 
Q 37.203125 48.484375 30.078125 48.484375 
Q 22.953125 48.484375 18.875 42.84375 
Q 14.796875 37.203125 14.796875 27.296875 
z
" id="DejaVuSans-100"/>
      <path d="M 56.203125 29.59375 
L 56.203125 25.203125 
L 14.890625 25.203125 
Q 15.484375 15.921875 20.484375 11.0625 
Q 25.484375 6.203125 34.421875 6.203125 
Q 39.59375 6.203125 44.453125 7.46875 
Q 49.3125 8.734375 54.109375 11.28125 
L 54.109375 2.78125 
Q 49.265625 0.734375 44.1875 -0.34375 
Q 39.109375 -1.421875 33.890625 -1.421875 
Q 20.796875 -1.421875 13.15625 6.1875 
Q 5.515625 13.8125 5.515625 26.8125 
Q 5.515625 40.234375 12.765625 48.109375 
Q 20.015625 56 32.328125 56 
Q 43.359375 56 49.78125 48.890625 
Q 56.203125 41.796875 56.203125 29.59375 
z
M 47.21875 32.234375 
Q 47.125 39.59375 43.09375 43.984375 
Q 39.0625 48.390625 32.421875 48.390625 
Q 24.90625 48.390625 20.390625 44.140625 
Q 15.875 39.890625 15.1875 32.171875 
z
" id="DejaVuSans-101"/>
     </defs>
     <g transform="translate(281.895937 342.716562)scale(0.1 -0.1)">
      <use xlink:href="#DejaVuSans-69"/>
      <use x="63.183594" xlink:href="#DejaVuSans-112"/>
      <use x="126.660156" xlink:href="#DejaVuSans-105"/>
      <use x="154.443359" xlink:href="#DejaVuSans-115"/>
      <use x="206.542969" xlink:href="#DejaVuSans-111"/>
      <use x="267.724609" xlink:href="#DejaVuSans-100"/>
      <use x="331.201172" xlink:href="#DejaVuSans-101"/>
      <use x="392.724609" xlink:href="#DejaVuSans-115"/>
     </g>
    </g>
   </g>
   <g id="matplotlib.axis_2">
    <g id="ytick_1">
     <g id="line2d_7">
      <defs>
       <path d="M 0 0 
L -3.5 0 
" id="mb13768c71e" style="stroke:#000000;stroke-width:0.8;"/>
      </defs>
      <g>
       <use style="stroke:#000000;stroke-width:0.8;" x="49.703125" xlink:href="#mb13768c71e" y="301.365957"/>
      </g>
     </g>
     <g id="text_8">
      <!-- 0.0 -->
      <defs>
       <path d="M 10.6875 12.40625 
L 21 12.40625 
L 21 0 
L 10.6875 0 
z
" id="DejaVuSans-46"/>
      </defs>
      <g transform="translate(26.8 305.165176)scale(0.1 -0.1)">
       <use xlink:href="#DejaVuSans-48"/>
       <use x="63.623047" xlink:href="#DejaVuSans-46"/>
       <use x="95.410156" xlink:href="#DejaVuSans-48"/>
      </g>
     </g>
    </g>
    <g id="ytick_2">
     <g id="line2d_8">
      <g>
       <use style="stroke:#000000;stroke-width:0.8;" x="49.703125" xlink:href="#mb13768c71e" y="235.995745"/>
      </g>
     </g>
     <g id="text_9">
      <!-- 0.1 -->
      <g transform="translate(26.8 239.794963)scale(0.1 -0.1)">
       <use xlink:href="#DejaVuSans-48"/>
       <use x="63.623047" xlink:href="#DejaVuSans-46"/>
       <use x="95.410156" xlink:href="#DejaVuSans-49"/>
      </g>
     </g>
    </g>
    <g id="ytick_3">
     <g id="line2d_9">
      <g>
       <use style="stroke:#000000;stroke-width:0.8;" x="49.703125" xlink:href="#mb13768c71e" y="170.625532"/>
      </g>
     </g>
     <g id="text_10">
      <!-- 0.2 -->
      <g transform="translate(26.8 174.424751)scale(0.1 -0.1)">
       <use xlink:href="#DejaVuSans-48"/>
       <use x="63.623047" xlink:href="#DejaVuSans-46"/>
       <use x="95.410156" xlink:href="#DejaVuSans-50"/>
      </g>
     </g>
    </g>
    <g id="ytick_4">
     <g id="line2d_10">
      <g>
       <use style="stroke:#000000;stroke-width:0.8;" x="49.703125" xlink:href="#mb13768c71e" y="105.255319"/>
      </g>
     </g>
     <g id="text_11">
      <!-- 0.3 -->
      <g transform="translate(26.8 109.054538)scale(0.1 -0.1)">
       <use xlink:href="#DejaVuSans-48"/>
       <use x="63.623047" xlink:href="#DejaVuSans-46"/>
       <use x="95.410156" xlink:href="#DejaVuSans-51"/>
      </g>
     </g>
    </g>
    <g id="ytick_5">
     <g id="line2d_11">
      <g>
       <use style="stroke:#000000;stroke-width:0.8;" x="49.703125" xlink:href="#mb13768c71e" y="39.885106"/>
      </g>
     </g>
     <g id="text_12">
      <!-- 0.4 -->
      <g transform="translate(26.8 43.684325)scale(0.1 -0.1)">
       <use xlink:href="#DejaVuSans-48"/>
       <use x="63.623047" xlink:href="#DejaVuSans-46"/>
       <use x="95.410156" xlink:href="#DejaVuSans-52"/>
      </g>
     </g>
    </g>
    <g id="text_13">
     <!-- $\sqrt{\overline{VE}}$ averaged over 10 runs -->
     <defs>
      <path d="M 108.90625 155.203125 
L 52.703125 -29.5 
L 48.5 -29.5 
L 25.40625 45.59375 
Q 24.296875 49.203125 22.890625 50.796875 
Q 21.5 52.40625 19.203125 52.40625 
Q 15.796875 52.40625 12.40625 49.703125 
L 11.203125 51.703125 
L 27.59375 64.296875 
L 30.09375 64.296875 
L 52.796875 -9.40625 
L 53.203125 -9.40625 
L 103.203125 155.203125 
z
" id="STIXSizeOneSym-Regular-8730"/>
      <path d="M 20.609375 0 
L 7.8125 72.90625 
L 17.484375 72.90625 
L 28.078125 10.203125 
L 63.484375 72.90625 
L 74.21875 72.90625 
L 32.078125 0 
z
" id="DejaVuSans-Oblique-86"/>
      <path d="M 16.890625 72.90625 
L 62.984375 72.90625 
L 61.375 64.59375 
L 25.09375 64.59375 
L 20.90625 43.015625 
L 55.71875 43.015625 
L 54.109375 34.71875 
L 19.28125 34.71875 
L 14.203125 8.296875 
L 51.3125 8.296875 
L 49.703125 0 
L 2.6875 0 
z
" id="DejaVuSans-Oblique-69"/>
      <path id="DejaVuSans-32"/>
      <path d="M 34.28125 27.484375 
Q 23.390625 27.484375 19.1875 25 
Q 14.984375 22.515625 14.984375 16.5 
Q 14.984375 11.71875 18.140625 8.90625 
Q 21.296875 6.109375 26.703125 6.109375 
Q 34.1875 6.109375 38.703125 11.40625 
Q 43.21875 16.703125 43.21875 25.484375 
L 43.21875 27.484375 
z
M 52.203125 31.203125 
L 52.203125 0 
L 43.21875 0 
L 43.21875 8.296875 
Q 40.140625 3.328125 35.546875 0.953125 
Q 30.953125 -1.421875 24.3125 -1.421875 
Q 15.921875 -1.421875 10.953125 3.296875 
Q 6 8.015625 6 15.921875 
Q 6 25.140625 12.171875 29.828125 
Q 18.359375 34.515625 30.609375 34.515625 
L 43.21875 34.515625 
L 43.21875 35.40625 
Q 43.21875 41.609375 39.140625 45 
Q 35.0625 48.390625 27.6875 48.390625 
Q 23 48.390625 18.546875 47.265625 
Q 14.109375 46.140625 10.015625 43.890625 
L 10.015625 52.203125 
Q 14.9375 54.109375 19.578125 55.046875 
Q 24.21875 56 28.609375 56 
Q 40.484375 56 46.34375 49.84375 
Q 52.203125 43.703125 52.203125 31.203125 
z
" id="DejaVuSans-97"/>
      <path d="M 2.984375 54.6875 
L 12.5 54.6875 
L 29.59375 8.796875 
L 46.6875 54.6875 
L 56.203125 54.6875 
L 35.6875 0 
L 23.484375 0 
z
" id="DejaVuSans-118"/>
      <path d="M 41.109375 46.296875 
Q 39.59375 47.171875 37.8125 47.578125 
Q 36.03125 48 33.890625 48 
Q 26.265625 48 22.1875 43.046875 
Q 18.109375 38.09375 18.109375 28.8125 
L 18.109375 0 
L 9.078125 0 
L 9.078125 54.6875 
L 18.109375 54.6875 
L 18.109375 46.1875 
Q 20.953125 51.171875 25.484375 53.578125 
Q 30.03125 56 36.53125 56 
Q 37.453125 56 38.578125 55.875 
Q 39.703125 55.765625 41.0625 55.515625 
z
" id="DejaVuSans-114"/>
      <path d="M 45.40625 27.984375 
Q 45.40625 37.75 41.375 43.109375 
Q 37.359375 48.484375 30.078125 48.484375 
Q 22.859375 48.484375 18.828125 43.109375 
Q 14.796875 37.75 14.796875 27.984375 
Q 14.796875 18.265625 18.828125 12.890625 
Q 22.859375 7.515625 30.078125 7.515625 
Q 37.359375 7.515625 41.375 12.890625 
Q 45.40625 18.265625 45.40625 27.984375 
z
M 54.390625 6.78125 
Q 54.390625 -7.171875 48.1875 -13.984375 
Q 42 -20.796875 29.203125 -20.796875 
Q 24.46875 -20.796875 20.265625 -20.09375 
Q 16.0625 -19.390625 12.109375 -17.921875 
L 12.109375 -9.1875 
Q 16.0625 -11.328125 19.921875 -12.34375 
Q 23.78125 -13.375 27.78125 -13.375 
Q 36.625 -13.375 41.015625 -8.765625 
Q 45.40625 -4.15625 45.40625 5.171875 
L 45.40625 9.625 
Q 42.625 4.78125 38.28125 2.390625 
Q 33.9375 0 27.875 0 
Q 17.828125 0 11.671875 7.65625 
Q 5.515625 15.328125 5.515625 27.984375 
Q 5.515625 40.671875 11.671875 48.328125 
Q 17.828125 56 27.875 56 
Q 33.9375 56 38.28125 53.609375 
Q 42.625 51.21875 45.40625 46.390625 
L 45.40625 54.6875 
L 54.390625 54.6875 
z
" id="DejaVuSans-103"/>
      <path d="M 8.5 21.578125 
L 8.5 54.6875 
L 17.484375 54.6875 
L 17.484375 21.921875 
Q 17.484375 14.15625 20.5 10.265625 
Q 23.53125 6.390625 29.59375 6.390625 
Q 36.859375 6.390625 41.078125 11.03125 
Q 45.3125 15.671875 45.3125 23.6875 
L 45.3125 54.6875 
L 54.296875 54.6875 
L 54.296875 0 
L 45.3125 0 
L 45.3125 8.40625 
Q 42.046875 3.421875 37.71875 1 
Q 33.40625 -1.421875 27.6875 -1.421875 
Q 18.265625 -1.421875 13.375 4.4375 
Q 8.5 10.296875 8.5 21.578125 
z
M 31.109375 56 
z
" id="DejaVuSans-117"/>
      <path d="M 54.890625 33.015625 
L 54.890625 0 
L 45.90625 0 
L 45.90625 32.71875 
Q 45.90625 40.484375 42.875 44.328125 
Q 39.84375 48.1875 33.796875 48.1875 
Q 26.515625 48.1875 22.3125 43.546875 
Q 18.109375 38.921875 18.109375 30.90625 
L 18.109375 0 
L 9.078125 0 
L 9.078125 54.6875 
L 18.109375 54.6875 
L 18.109375 46.1875 
Q 21.34375 51.125 25.703125 53.5625 
Q 30.078125 56 35.796875 56 
Q 45.21875 56 50.046875 50.171875 
Q 54.890625 44.34375 54.890625 33.015625 
z
" id="DejaVuSans-110"/>
     </defs>
     <g transform="translate(20.7 230.87)rotate(-90)scale(0.1 -0.1)">
      <use transform="translate(0 20.703125)scale(0.69791)" xlink:href="#STIXSizeOneSym-Regular-8730"/>
      <use transform="translate(86.258774 0.59375)" xlink:href="#DejaVuSans-Oblique-86"/>
      <use transform="translate(154.666977 0.59375)" xlink:href="#DejaVuSans-Oblique-69"/>
      <use transform="translate(230.350571 0.125)" xlink:href="#DejaVuSans-32"/>
      <use transform="translate(262.13768 0.125)" xlink:href="#DejaVuSans-97"/>
      <use transform="translate(323.416977 0.125)" xlink:href="#DejaVuSans-118"/>
      <use transform="translate(382.596664 0.125)" xlink:href="#DejaVuSans-101"/>
      <use transform="translate(444.120102 0.125)" xlink:href="#DejaVuSans-114"/>
      <use transform="translate(485.233383 0.125)" xlink:href="#DejaVuSans-97"/>
      <use transform="translate(546.51268 0.125)" xlink:href="#DejaVuSans-103"/>
      <use transform="translate(609.989243 0.125)" xlink:href="#DejaVuSans-101"/>
      <use transform="translate(671.51268 0.125)" xlink:href="#DejaVuSans-100"/>
      <use transform="translate(734.989243 0.125)" xlink:href="#DejaVuSans-32"/>
      <use transform="translate(766.776352 0.125)" xlink:href="#DejaVuSans-111"/>
      <use transform="translate(827.957993 0.125)" xlink:href="#DejaVuSans-118"/>
      <use transform="translate(887.13768 0.125)" xlink:href="#DejaVuSans-101"/>
      <use transform="translate(948.661118 0.125)" xlink:href="#DejaVuSans-114"/>
      <use transform="translate(989.774399 0.125)" xlink:href="#DejaVuSans-32"/>
      <use transform="translate(1021.561508 0.125)" xlink:href="#DejaVuSans-49"/>
      <use transform="translate(1085.184555 0.125)" xlink:href="#DejaVuSans-48"/>
      <use transform="translate(1148.807602 0.125)" xlink:href="#DejaVuSans-32"/>
      <use transform="translate(1180.594711 0.125)" xlink:href="#DejaVuSans-114"/>
      <use transform="translate(1221.707993 0.125)" xlink:href="#DejaVuSans-117"/>
      <use transform="translate(1285.086899 0.125)" xlink:href="#DejaVuSans-110"/>
      <use transform="translate(1348.465805 0.125)" xlink:href="#DejaVuSans-115"/>
      <path d="M 73.758774 122.5 
L 73.758774 128.75 
L 230.350571 128.75 
L 230.350571 122.5 
L 73.758774 122.5 
z
"/>
      <path d="M 86.258774 85.25 
L 86.258774 91.5 
L 217.850571 91.5 
L 217.850571 85.25 
L 86.258774 85.25 
z
"/>
     </g>
    </g>
   </g>
   <g id="line2d_12">
    <path clip-path="url(#p498db3f310)" d="M 72.83358 36.615256 
L 73.760652 40.33365 
L 74.687724 43.274659 
L 75.614797 45.782344 
L 76.541869 47.91202 
L 77.468941 51.023871 
L 80.250158 59.001201 
L 81.17723 60.400303 
L 83.958447 67.347218 
L 84.88552 70.946932 
L 87.666737 78.48555 
L 90.447954 84.719796 
L 91.375026 85.883289 
L 92.302098 87.854032 
L 93.229171 89.094382 
L 94.156243 91.425419 
L 95.083315 93.333381 
L 97.864532 98.167317 
L 100.645749 104.565753 
L 101.572822 106.147833 
L 102.499894 108.340691 
L 104.354039 110.622476 
L 106.208183 114.564622 
L 107.135256 115.463817 
L 108.062328 117.727957 
L 108.9894 118.487755 
L 110.843545 121.508762 
L 112.69769 123.933983 
L 114.551834 128.512902 
L 116.405979 131.002399 
L 117.333051 132.742155 
L 118.260124 133.944563 
L 119.187196 135.630549 
L 121.041341 138.510799 
L 121.968413 139.387091 
L 122.895485 140.539077 
L 124.74963 143.342414 
L 125.676702 144.77187 
L 126.603774 145.935301 
L 127.530847 147.404401 
L 128.457919 147.507294 
L 130.312064 150.671468 
L 131.239136 151.464564 
L 132.166208 152.886114 
L 133.093281 153.34196 
L 134.947425 155.738393 
L 135.874498 156.281933 
L 136.80157 157.740657 
L 138.655715 159.198137 
L 139.582787 158.976383 
L 140.509859 159.378695 
L 142.364004 161.759898 
L 143.291076 161.26191 
L 144.218149 161.085304 
L 145.145221 162.463634 
L 146.999366 165.881772 
L 147.926438 166.203516 
L 148.85351 167.500135 
L 149.780583 168.547029 
L 150.707655 168.71427 
L 151.634727 170.132493 
L 155.343017 172.127491 
L 157.197161 174.572645 
L 158.124234 174.531592 
L 159.051306 176.038123 
L 160.905451 177.824024 
L 161.832523 178.480484 
L 162.759595 178.558739 
L 163.686668 180.142645 
L 164.61374 180.203347 
L 166.467885 180.509919 
L 167.394957 182.087281 
L 168.322029 182.222579 
L 169.249101 182.700875 
L 170.176174 182.801079 
L 171.103246 183.447645 
L 172.030318 184.512339 
L 172.957391 185.335349 
L 173.884463 186.526192 
L 174.811535 187.158615 
L 175.738608 186.889075 
L 177.592752 187.187897 
L 178.519825 188.095854 
L 179.446897 188.51742 
L 180.373969 188.652136 
L 181.301042 189.33169 
L 183.155186 189.155259 
L 185.009331 190.568752 
L 186.863476 192.006965 
L 187.790548 191.996807 
L 188.71762 193.756041 
L 189.644693 194.656828 
L 190.571765 194.93788 
L 191.498837 195.656323 
L 192.42591 195.204416 
L 193.352982 195.981044 
L 194.280054 196.316759 
L 195.207127 197.699668 
L 196.134199 198.021691 
L 197.061271 199.203282 
L 198.915416 200.401173 
L 199.842488 200.266098 
L 200.769561 200.271225 
L 202.623705 201.11543 
L 203.550778 201.829941 
L 204.47785 202.373866 
L 205.404922 203.103593 
L 206.331995 202.854852 
L 208.186139 203.221966 
L 209.113212 202.595881 
L 210.040284 202.5036 
L 210.967356 202.97789 
L 211.894429 203.578544 
L 212.821501 203.741845 
L 213.748573 204.833924 
L 214.675645 205.284056 
L 215.602718 206.338307 
L 216.52979 206.802029 
L 218.383935 207.09358 
L 219.311007 207.39619 
L 220.238079 207.203673 
L 223.019296 207.289578 
L 224.873441 208.114451 
L 225.800513 208.481743 
L 226.727586 208.411593 
L 227.654658 207.964574 
L 228.58173 209.271901 
L 229.508803 209.966186 
L 230.435875 210.37414 
L 232.29002 210.645256 
L 233.217092 210.571908 
L 234.144164 210.942277 
L 235.998309 210.564725 
L 236.925381 210.719745 
L 238.779526 211.684295 
L 239.706598 212.079372 
L 240.633671 212.6525 
L 241.560743 212.099187 
L 242.487815 212.906081 
L 243.414888 213.456885 
L 244.34196 214.515415 
L 245.269032 214.968366 
L 246.196105 214.80574 
L 248.050249 216.078027 
L 248.977322 215.870573 
L 249.904394 216.09297 
L 252.685611 215.112974 
L 253.612683 215.432738 
L 254.539756 215.427612 
L 255.466828 215.631723 
L 256.3939 216.197626 
L 257.320973 215.798154 
L 258.248045 215.549401 
L 259.175117 215.761823 
L 260.102189 216.390402 
L 261.029262 216.34344 
L 261.956334 217.001677 
L 262.883406 217.20646 
L 263.810479 217.16545 
L 264.737551 216.881105 
L 265.664623 216.402253 
L 266.591696 216.242352 
L 267.518768 216.201148 
L 268.44584 216.367796 
L 269.372913 216.032596 
L 270.299985 216.250523 
L 271.227057 215.941449 
L 272.15413 215.399343 
L 273.081202 214.248506 
L 274.008274 214.337506 
L 274.935347 214.610646 
L 275.862419 215.03667 
L 276.789491 215.706017 
L 277.716564 215.98884 
L 278.643636 215.756482 
L 279.570708 216.886159 
L 280.497781 217.840432 
L 281.424853 218.341029 
L 283.278998 220.747512 
L 284.20607 220.679151 
L 285.133142 221.547923 
L 286.060215 222.123806 
L 286.987287 222.108082 
L 287.914359 221.974226 
L 288.841432 221.140643 
L 289.768504 221.342875 
L 290.695576 220.508556 
L 291.622649 220.597393 
L 292.549721 220.486056 
L 293.476793 220.771179 
L 294.403866 220.913982 
L 296.25801 221.666277 
L 297.185083 222.370552 
L 298.112155 223.408663 
L 299.039227 223.123936 
L 299.9663 222.719777 
L 300.893372 222.951864 
L 301.820444 223.40856 
L 302.747517 223.331786 
L 303.674589 224.186388 
L 304.601661 224.101543 
L 306.455806 222.416669 
L 307.382878 221.768627 
L 308.30995 222.149527 
L 309.237023 222.758021 
L 310.164095 223.154747 
L 311.091167 222.9558 
L 312.01824 221.970969 
L 312.945312 222.396181 
L 314.799457 222.812179 
L 315.726529 222.829799 
L 316.653601 223.37644 
L 317.580674 224.187954 
L 319.434818 224.359114 
L 320.361891 224.174015 
L 321.288963 224.180918 
L 322.216035 223.740306 
L 323.143108 222.944626 
L 324.07018 223.100256 
L 325.924325 222.137479 
L 327.778469 221.983552 
L 329.632614 221.015352 
L 330.559686 221.473452 
L 331.486759 222.158356 
L 332.413831 222.65413 
L 333.340903 222.430654 
L 335.195048 220.860028 
L 337.049193 221.170995 
L 337.976265 220.237958 
L 338.903337 221.272992 
L 339.83041 220.272775 
L 340.757482 219.068764 
L 341.684554 219.316183 
L 342.611627 220.418124 
L 343.538699 220.367036 
L 344.465771 220.189174 
L 345.392844 221.040475 
L 346.319916 221.368464 
L 347.246988 222.259969 
L 348.174061 222.59235 
L 349.101133 221.046779 
L 350.028205 220.087519 
L 350.955277 219.549355 
L 351.88235 219.721169 
L 352.809422 220.349929 
L 353.736494 221.291826 
L 354.663567 223.052278 
L 355.590639 221.19086 
L 356.517711 221.074951 
L 357.444784 220.400231 
L 358.371856 219.087787 
L 359.298928 219.030385 
L 360.226001 219.227782 
L 361.153073 220.763133 
L 362.080145 221.962889 
L 363.007218 221.12006 
L 363.93429 221.252749 
L 364.861362 221.910376 
L 365.788435 221.630801 
L 366.715507 220.663201 
L 367.642579 220.783264 
L 368.569652 220.138544 
L 369.496724 220.336143 
L 370.423796 220.231277 
L 371.350869 220.61 
L 372.277941 221.226354 
L 373.205013 221.002515 
L 374.132086 221.767976 
L 375.059158 220.958082 
L 375.98623 220.909439 
L 376.913303 220.41354 
L 377.840375 221.065755 
L 378.767447 220.695427 
L 379.69452 221.727414 
L 381.548664 225.057167 
L 382.475737 225.174706 
L 383.402809 225.968708 
L 384.329881 226.269979 
L 386.184026 225.218229 
L 387.111098 224.728232 
L 388.038171 225.393997 
L 388.965243 225.884547 
L 389.892315 226.173419 
L 390.819388 226.639262 
L 391.74646 225.873275 
L 392.673532 226.49772 
L 393.600605 226.586193 
L 394.527677 226.152965 
L 395.454749 226.803777 
L 396.381821 226.782156 
L 397.308894 226.285155 
L 398.235966 226.236087 
L 399.163038 226.775078 
L 400.090111 227.102292 
L 401.017183 227.664883 
L 401.944255 225.990001 
L 403.7984 223.591215 
L 404.725472 223.699628 
L 405.652545 224.824169 
L 406.579617 225.042519 
L 407.506689 225.515427 
L 408.433762 226.200724 
L 409.360834 226.061816 
L 410.287906 226.232412 
L 411.214979 226.257571 
L 412.142051 226.605109 
L 413.069123 227.442097 
L 413.996196 226.58216 
L 414.923268 225.366544 
L 415.85034 225.01529 
L 417.704485 225.232443 
L 418.631557 224.922413 
L 419.55863 225.374792 
L 420.485702 224.594586 
L 421.412774 224.7705 
L 422.339847 225.078206 
L 424.193991 223.082068 
L 425.121064 223.663675 
L 426.048136 223.721874 
L 426.975208 224.958595 
L 427.902281 225.970665 
L 428.829353 225.63185 
L 429.756425 226.758541 
L 430.683498 225.931428 
L 431.61057 225.742582 
L 432.537642 226.429563 
L 433.464715 226.222207 
L 434.391787 225.449832 
L 435.318859 225.377307 
L 436.245932 225.769288 
L 438.100076 225.520517 
L 439.027149 224.652866 
L 439.954221 224.109502 
L 440.881293 224.265928 
L 441.808365 223.844746 
L 442.735438 225.157958 
L 443.66251 226.107096 
L 444.589582 225.031313 
L 445.516655 226.262625 
L 446.443727 225.190495 
L 447.370799 225.52711 
L 448.297872 225.587909 
L 450.152016 224.740453 
L 451.079089 224.096477 
L 452.006161 224.686647 
L 452.933233 223.927334 
L 453.860306 223.453042 
L 454.787378 224.301042 
L 455.71445 223.800337 
L 456.641523 224.862103 
L 458.495667 222.801556 
L 459.42274 223.60426 
L 460.349812 223.521493 
L 461.276884 222.6904 
L 462.203957 223.131284 
L 463.131029 222.909496 
L 464.058101 223.067427 
L 465.912246 224.121504 
L 466.839318 224.353972 
L 468.693463 224.202506 
L 469.620535 224.611116 
L 470.547608 226.855804 
L 471.47468 227.736728 
L 472.401752 227.260695 
L 473.328825 227.92786 
L 474.255897 227.298537 
L 475.182969 227.870521 
L 477.037114 228.532573 
L 477.964186 228.479202 
L 478.891259 228.975713 
L 479.818331 228.745601 
L 480.745403 228.824878 
L 481.672476 229.420283 
L 482.599548 230.227132 
L 483.52662 230.711161 
L 484.453692 230.345488 
L 486.307837 229.055597 
L 487.234909 228.97109 
L 489.089054 230.412836 
L 490.016126 230.689661 
L 490.943199 230.59605 
L 491.870271 230.305675 
L 492.797343 230.543062 
L 493.724416 230.068241 
L 494.651488 229.370849 
L 495.57856 229.047193 
L 497.432705 229.681523 
L 498.359777 229.752389 
L 499.28685 229.566082 
L 500.213922 228.853248 
L 501.140994 229.083781 
L 502.068067 229.492824 
L 502.995139 229.018761 
L 504.849284 228.992193 
L 506.703428 227.689832 
L 507.630501 229.091634 
L 508.557573 229.608285 
L 509.484645 229.640932 
L 510.411718 229.785696 
L 511.33879 228.823766 
L 512.265862 228.545825 
L 513.192935 229.14197 
L 514.120007 229.531279 
L 515.047079 229.128383 
L 515.974152 229.752215 
L 516.901224 229.439242 
L 517.828296 230.037334 
L 519.682441 228.906943 
L 520.609513 227.603458 
L 522.463658 227.670886 
L 523.39073 227.929731 
L 524.317803 227.513984 
L 525.244875 227.259448 
L 526.171947 227.193029 
L 527.09902 227.64641 
L 528.026092 227.197622 
L 529.880236 228.025979 
L 531.734381 228.376242 
L 532.661453 227.816032 
L 533.588526 228.49627 
L 534.515598 228.053515 
L 535.44267 227.467189 
L 535.44267 227.467189 
" style="fill:none;stroke:#ff0000;stroke-linecap:square;stroke-width:1.5;"/>
   </g>
   <g id="line2d_13">
    <path clip-path="url(#p498db3f310)" d="M 72.83358 36.314503 
L 75.614797 44.522967 
L 77.468941 50.930301 
L 78.396014 52.60165 
L 79.323086 55.852861 
L 81.17723 60.162134 
L 83.031375 64.929249 
L 85.812592 73.255516 
L 86.739664 75.127226 
L 87.666737 78.04669 
L 89.520881 81.506527 
L 90.447954 84.287323 
L 92.302098 88.89853 
L 95.083315 96.487106 
L 96.010388 98.254102 
L 96.93746 100.370991 
L 97.864532 103.15409 
L 99.718677 107.426567 
L 101.572822 112.353396 
L 103.426966 115.775794 
L 105.281111 120.226757 
L 106.208183 122.153724 
L 107.135256 124.796665 
L 109.916473 130.956457 
L 110.843545 132.534233 
L 111.770617 133.745364 
L 112.69769 135.488482 
L 113.624762 136.841627 
L 114.551834 138.409644 
L 115.478907 139.420152 
L 116.405979 140.098483 
L 117.333051 141.672828 
L 118.260124 142.899493 
L 120.114268 145.933582 
L 121.041341 146.937319 
L 121.968413 147.02852 
L 123.822558 149.47835 
L 124.74963 151.4491 
L 128.457919 157.483447 
L 130.312064 159.816521 
L 131.239136 160.504717 
L 133.093281 162.316131 
L 134.020353 163.791529 
L 134.947425 164.873774 
L 136.80157 166.193339 
L 137.728642 167.136258 
L 138.655715 167.831914 
L 139.582787 168.965048 
L 140.509859 169.860297 
L 141.436932 170.349526 
L 142.364004 171.347916 
L 143.291076 171.60467 
L 144.218149 173.259469 
L 146.072293 174.187056 
L 146.999366 175.402769 
L 147.926438 176.283637 
L 148.85351 178.041113 
L 149.780583 178.873085 
L 150.707655 180.131607 
L 151.634727 181.002581 
L 152.5618 181.550745 
L 153.488872 181.95734 
L 154.415944 183.332184 
L 155.343017 183.934874 
L 156.270089 184.713478 
L 157.197161 185.088693 
L 159.051306 186.229834 
L 159.978378 187.81614 
L 160.905451 189.047824 
L 162.759595 190.888146 
L 163.686668 191.378076 
L 164.61374 191.10265 
L 165.540812 191.887322 
L 166.467885 193.149155 
L 167.394957 194.011677 
L 168.322029 194.480874 
L 169.249101 196.008131 
L 170.176174 196.728731 
L 171.103246 197.112163 
L 172.030318 197.014535 
L 172.957391 197.803164 
L 173.884463 198.059953 
L 175.738608 199.793493 
L 178.519825 201.356057 
L 179.446897 201.977933 
L 180.373969 202.912261 
L 181.301042 202.654655 
L 182.228114 203.116166 
L 183.155186 203.369009 
L 184.082259 204.643242 
L 185.936403 205.074304 
L 186.863476 205.512853 
L 188.71762 206.928711 
L 189.644693 206.836917 
L 190.571765 207.175915 
L 191.498837 207.31451 
L 192.42591 208.475825 
L 193.352982 208.642866 
L 194.280054 209.774318 
L 196.134199 211.031489 
L 197.061271 211.790709 
L 197.988344 211.751463 
L 198.915416 211.96336 
L 199.842488 212.418586 
L 200.769561 213.162278 
L 201.696633 212.690441 
L 202.623705 213.727918 
L 203.550778 213.887127 
L 204.47785 214.715305 
L 205.404922 214.806182 
L 206.331995 214.434879 
L 207.259067 215.19665 
L 208.186139 215.289914 
L 210.040284 216.231869 
L 210.967356 215.304465 
L 211.894429 215.726376 
L 212.821501 215.964702 
L 213.748573 217.098155 
L 216.52979 219.454292 
L 217.456862 219.927054 
L 219.311007 219.52638 
L 220.238079 220.608982 
L 221.165152 221.123549 
L 222.092224 221.93847 
L 223.019296 221.917011 
L 223.946369 222.126035 
L 224.873441 221.519145 
L 225.800513 221.578027 
L 226.727586 221.80116 
L 228.58173 223.889073 
L 230.435875 223.146928 
L 231.362947 223.992621 
L 232.29002 224.225439 
L 233.217092 224.320184 
L 234.144164 224.56544 
L 235.071237 223.686268 
L 235.998309 224.608275 
L 237.852454 225.688478 
L 238.779526 225.626041 
L 239.706598 225.25342 
L 240.633671 225.94146 
L 241.560743 225.680557 
L 242.487815 226.153693 
L 243.414888 226.855352 
L 245.269032 226.689277 
L 247.123177 226.79782 
L 248.977322 228.036901 
L 249.904394 229.513893 
L 250.831466 230.314402 
L 251.758539 230.822467 
L 252.685611 230.72699 
L 253.612683 231.763009 
L 254.539756 232.530828 
L 255.466828 231.62274 
L 256.3939 231.824698 
L 257.320973 231.21364 
L 258.248045 231.280083 
L 260.102189 230.44989 
L 261.029262 231.685679 
L 261.956334 232.507497 
L 262.883406 233.109302 
L 263.810479 233.321793 
L 264.737551 233.773539 
L 265.664623 234.770479 
L 266.591696 235.467619 
L 267.518768 234.735532 
L 269.372913 235.752758 
L 270.299985 235.783365 
L 271.227057 235.986454 
L 272.15413 235.682178 
L 274.935347 236.625852 
L 275.862419 236.398645 
L 276.789491 236.890453 
L 277.716564 236.167865 
L 278.643636 236.606298 
L 279.570708 236.413736 
L 280.497781 237.133648 
L 281.424853 237.089073 
L 282.351925 237.175485 
L 283.278998 236.00071 
L 284.20607 235.451055 
L 285.133142 236.062072 
L 286.060215 236.282574 
L 286.987287 237.401776 
L 287.914359 237.561568 
L 289.768504 236.736845 
L 290.695576 237.043289 
L 291.622649 237.708212 
L 292.549721 237.988528 
L 293.476793 237.22139 
L 294.403866 238.541748 
L 295.330938 237.139446 
L 296.25801 237.57893 
L 297.185083 237.832906 
L 298.112155 237.905808 
L 299.039227 237.823373 
L 299.9663 237.119856 
L 300.893372 235.575353 
L 301.820444 234.698263 
L 302.747517 234.908853 
L 303.674589 235.276239 
L 304.601661 235.266527 
L 305.528733 236.492514 
L 306.455806 236.652089 
L 307.382878 235.663917 
L 308.30995 237.741332 
L 309.237023 238.017128 
L 310.164095 238.808522 
L 311.091167 238.474335 
L 312.01824 239.006263 
L 312.945312 238.947985 
L 313.872384 239.517378 
L 314.799457 240.84236 
L 316.653601 240.757798 
L 317.580674 240.6488 
L 318.507746 240.37302 
L 319.434818 240.521181 
L 320.361891 240.912822 
L 321.288963 240.315733 
L 322.216035 241.087495 
L 323.143108 241.649487 
L 324.07018 241.683613 
L 324.997252 241.54784 
L 325.924325 240.621196 
L 326.851397 240.738398 
L 327.778469 240.594592 
L 328.705542 238.620629 
L 329.632614 239.56136 
L 330.559686 239.14411 
L 331.486759 240.243335 
L 332.413831 239.938482 
L 333.340903 239.417487 
L 336.12212 239.922761 
L 337.049193 241.15086 
L 337.976265 241.831891 
L 338.903337 242.007347 
L 339.83041 242.504028 
L 340.757482 243.521024 
L 341.684554 242.462161 
L 342.611627 242.891971 
L 344.465771 244.247413 
L 345.392844 244.368777 
L 346.319916 244.793897 
L 347.246988 244.113833 
L 348.174061 245.348859 
L 349.101133 245.530162 
L 350.028205 244.992116 
L 351.88235 245.085957 
L 352.809422 245.770127 
L 354.663567 245.325262 
L 355.590639 245.825858 
L 356.517711 244.602363 
L 357.444784 245.086347 
L 358.371856 243.258881 
L 359.298928 242.636724 
L 360.226001 241.8004 
L 361.153073 242.330577 
L 362.080145 243.448672 
L 363.007218 244.058762 
L 363.93429 243.871536 
L 364.861362 244.090364 
L 365.788435 243.45612 
L 366.715507 243.639195 
L 367.642579 242.548941 
L 368.569652 242.153302 
L 370.423796 240.969399 
L 371.350869 241.196064 
L 372.277941 242.212898 
L 373.205013 242.188176 
L 374.132086 242.963917 
L 375.059158 244.225008 
L 375.98623 244.066241 
L 376.913303 243.634543 
L 377.840375 244.071969 
L 378.767447 243.380512 
L 379.69452 243.560469 
L 380.621592 244.658855 
L 381.548664 244.948733 
L 382.475737 243.92026 
L 384.329881 245.910425 
L 385.256954 246.014163 
L 386.184026 245.498561 
L 387.111098 246.298004 
L 388.038171 246.084178 
L 388.965243 244.871377 
L 390.819388 243.110646 
L 391.74646 241.655885 
L 392.673532 239.902455 
L 394.527677 237.831928 
L 395.454749 238.144585 
L 396.381821 239.078125 
L 397.308894 239.832121 
L 398.235966 242.04623 
L 399.163038 242.015833 
L 400.090111 241.16114 
L 401.017183 240.824326 
L 401.944255 242.542888 
L 402.871328 242.160516 
L 403.7984 242.85003 
L 404.725472 242.895032 
L 405.652545 244.528501 
L 406.579617 245.929777 
L 407.506689 247.768838 
L 408.433762 247.74557 
L 409.360834 248.067105 
L 411.214979 247.038114 
L 412.142051 246.978495 
L 413.069123 248.29309 
L 413.996196 250.055395 
L 414.923268 249.867402 
L 415.85034 249.550415 
L 416.777413 248.594977 
L 417.704485 249.344328 
L 418.631557 249.767079 
L 419.55863 250.342473 
L 420.485702 249.71273 
L 421.412774 248.86337 
L 422.339847 248.346153 
L 423.266919 247.108133 
L 424.193991 246.747186 
L 425.121064 246.680216 
L 426.048136 247.166437 
L 426.975208 246.5581 
L 427.902281 247.167105 
L 428.829353 246.921554 
L 429.756425 247.041226 
L 430.683498 246.867687 
L 431.61057 247.555826 
L 432.537642 247.778872 
L 433.464715 248.276655 
L 434.391787 248.438153 
L 435.318859 248.237955 
L 436.245932 248.42575 
L 437.173004 248.476312 
L 438.100076 249.118124 
L 439.027149 249.394008 
L 439.954221 250.074566 
L 440.881293 250.291045 
L 441.808365 250.286267 
L 442.735438 249.485363 
L 443.66251 248.190748 
L 444.589582 247.51048 
L 447.370799 249.686071 
L 448.297872 250.078247 
L 449.224944 249.380152 
L 450.152016 249.485801 
L 451.079089 248.192991 
L 452.006161 247.275981 
L 452.933233 245.174653 
L 453.860306 245.236612 
L 454.787378 245.689414 
L 455.71445 245.379517 
L 457.568595 246.002235 
L 458.495667 246.656039 
L 459.42274 246.399659 
L 460.349812 246.793503 
L 461.276884 246.634196 
L 462.203957 247.971767 
L 463.131029 246.710267 
L 464.058101 246.54849 
L 464.985174 245.808276 
L 465.912246 246.675386 
L 466.839318 247.24939 
L 467.766391 247.560142 
L 468.693463 246.858639 
L 469.620535 246.710085 
L 470.547608 247.140707 
L 471.47468 245.987303 
L 472.401752 246.949551 
L 473.328825 245.463029 
L 476.110042 248.509986 
L 477.037114 248.335855 
L 477.964186 247.615443 
L 478.891259 248.898071 
L 479.818331 248.304629 
L 480.745403 248.752505 
L 481.672476 248.476194 
L 482.599548 247.176657 
L 483.52662 246.345778 
L 484.453692 248.345384 
L 485.380765 249.976686 
L 486.307837 250.437369 
L 487.234909 250.506397 
L 488.161982 252.366429 
L 489.089054 251.451316 
L 490.943199 250.764074 
L 491.870271 252.178943 
L 492.797343 252.58561 
L 493.724416 252.483091 
L 494.651488 252.615425 
L 495.57856 252.188698 
L 496.505633 252.01844 
L 497.432705 251.207653 
L 498.359777 252.317789 
L 499.28685 252.597638 
L 500.213922 253.34106 
L 501.140994 253.596587 
L 502.068067 254.291117 
L 502.995139 254.248949 
L 503.922211 253.707033 
L 504.849284 254.43701 
L 505.776356 252.975421 
L 506.703428 253.919349 
L 507.630501 254.04564 
L 508.557573 253.597786 
L 509.484645 254.618834 
L 510.411718 255.325027 
L 511.33879 255.19931 
L 512.265862 254.784823 
L 513.192935 253.968764 
L 514.120007 253.68001 
L 515.047079 255.118904 
L 515.974152 255.738944 
L 516.901224 255.916658 
L 517.828296 256.697793 
L 518.755369 256.665121 
L 519.682441 255.884126 
L 520.609513 255.585768 
L 521.536586 256.503611 
L 522.463658 256.710866 
L 523.39073 256.736031 
L 524.317803 257.100451 
L 525.244875 256.07553 
L 526.171947 256.690889 
L 527.09902 258.303655 
L 528.026092 258.645611 
L 528.953164 259.296351 
L 529.880236 258.712642 
L 530.807309 259.126373 
L 531.734381 259.213714 
L 533.588526 258.574174 
L 534.515598 257.241224 
L 535.44267 255.151979 
L 535.44267 255.151979 
" style="fill:none;stroke:#32cd32;stroke-linecap:square;stroke-width:1.5;"/>
   </g>
   <g id="patch_3">
    <path d="M 49.703125 314.44 
L 49.703125 7.2 
" style="fill:none;stroke:#000000;stroke-linecap:square;stroke-linejoin:miter;stroke-width:0.8;"/>
   </g>
   <g id="patch_4">
    <path d="M 558.573125 314.44 
L 558.573125 7.2 
" style="fill:none;stroke:#000000;stroke-linecap:square;stroke-linejoin:miter;stroke-width:0.8;"/>
   </g>
   <g id="patch_5">
    <path d="M 49.703125 314.44 
L 558.573125 314.44 
" style="fill:none;stroke:#000000;stroke-linecap:square;stroke-linejoin:miter;stroke-width:0.8;"/>
   </g>
   <g id="patch_6">
    <path d="M 49.703125 7.2 
L 558.573125 7.2 
" style="fill:none;stroke:#000000;stroke-linecap:square;stroke-linejoin:miter;stroke-width:0.8;"/>
   </g>
   <g id="legend_1">
    <g id="patch_7">
     <path d="M 371.498125 44.55625 
L 551.573125 44.55625 
Q 553.573125 44.55625 553.573125 42.55625 
L 553.573125 14.2 
Q 553.573125 12.2 551.573125 12.2 
L 371.498125 12.2 
Q 369.498125 12.2 369.498125 14.2 
L 369.498125 42.55625 
Q 369.498125 44.55625 371.498125 44.55625 
z
" style="fill:#ffffff;opacity:0.8;stroke:#cccccc;stroke-linejoin:miter;"/>
    </g>
    <g id="line2d_14">
     <path d="M 373.498125 20.298437 
L 393.498125 20.298437 
" style="fill:none;stroke:#ff0000;stroke-linecap:square;stroke-width:1.5;"/>
    </g>
    <g id="line2d_15"/>
    <g id="text_14">
     <!-- State aggregation (one tiling) -->
     <defs>
      <path d="M 53.515625 70.515625 
L 53.515625 60.890625 
Q 47.90625 63.578125 42.921875 64.890625 
Q 37.9375 66.21875 33.296875 66.21875 
Q 25.25 66.21875 20.875 63.09375 
Q 16.5 59.96875 16.5 54.203125 
Q 16.5 49.359375 19.40625 46.890625 
Q 22.3125 44.4375 30.421875 42.921875 
L 36.375 41.703125 
Q 47.40625 39.59375 52.65625 34.296875 
Q 57.90625 29 57.90625 20.125 
Q 57.90625 9.515625 50.796875 4.046875 
Q 43.703125 -1.421875 29.984375 -1.421875 
Q 24.8125 -1.421875 18.96875 -0.25 
Q 13.140625 0.921875 6.890625 3.21875 
L 6.890625 13.375 
Q 12.890625 10.015625 18.65625 8.296875 
Q 24.421875 6.59375 29.984375 6.59375 
Q 38.421875 6.59375 43.015625 9.90625 
Q 47.609375 13.234375 47.609375 19.390625 
Q 47.609375 24.75 44.3125 27.78125 
Q 41.015625 30.8125 33.5 32.328125 
L 27.484375 33.5 
Q 16.453125 35.6875 11.515625 40.375 
Q 6.59375 45.0625 6.59375 53.421875 
Q 6.59375 63.09375 13.40625 68.65625 
Q 20.21875 74.21875 32.171875 74.21875 
Q 37.3125 74.21875 42.625 73.28125 
Q 47.953125 72.359375 53.515625 70.515625 
z
" id="DejaVuSans-83"/>
      <path d="M 18.3125 70.21875 
L 18.3125 54.6875 
L 36.8125 54.6875 
L 36.8125 47.703125 
L 18.3125 47.703125 
L 18.3125 18.015625 
Q 18.3125 11.328125 20.140625 9.421875 
Q 21.96875 7.515625 27.59375 7.515625 
L 36.8125 7.515625 
L 36.8125 0 
L 27.59375 0 
Q 17.1875 0 13.234375 3.875 
Q 9.28125 7.765625 9.28125 18.015625 
L 9.28125 47.703125 
L 2.6875 47.703125 
L 2.6875 54.6875 
L 9.28125 54.6875 
L 9.28125 70.21875 
z
" id="DejaVuSans-116"/>
      <path d="M 31 75.875 
Q 24.46875 64.65625 21.28125 53.65625 
Q 18.109375 42.671875 18.109375 31.390625 
Q 18.109375 20.125 21.3125 9.0625 
Q 24.515625 -2 31 -13.1875 
L 23.1875 -13.1875 
Q 15.875 -1.703125 12.234375 9.375 
Q 8.59375 20.453125 8.59375 31.390625 
Q 8.59375 42.28125 12.203125 53.3125 
Q 15.828125 64.359375 23.1875 75.875 
z
" id="DejaVuSans-40"/>
      <path d="M 9.421875 75.984375 
L 18.40625 75.984375 
L 18.40625 0 
L 9.421875 0 
z
" id="DejaVuSans-108"/>
      <path d="M 8.015625 75.875 
L 15.828125 75.875 
Q 23.140625 64.359375 26.78125 53.3125 
Q 30.421875 42.28125 30.421875 31.390625 
Q 30.421875 20.453125 26.78125 9.375 
Q 23.140625 -1.703125 15.828125 -13.1875 
L 8.015625 -13.1875 
Q 14.5 -2 17.703125 9.0625 
Q 20.90625 20.125 20.90625 31.390625 
Q 20.90625 42.671875 17.703125 53.65625 
Q 14.5 64.65625 8.015625 75.875 
z
" id="DejaVuSans-41"/>
     </defs>
     <g transform="translate(401.498125 23.798437)scale(0.1 -0.1)">
      <use xlink:href="#DejaVuSans-83"/>
      <use x="63.476562" xlink:href="#DejaVuSans-116"/>
      <use x="102.685547" xlink:href="#DejaVuSans-97"/>
      <use x="163.964844" xlink:href="#DejaVuSans-116"/>
      <use x="203.173828" xlink:href="#DejaVuSans-101"/>
      <use x="264.697266" xlink:href="#DejaVuSans-32"/>
      <use x="296.484375" xlink:href="#DejaVuSans-97"/>
      <use x="357.763672" xlink:href="#DejaVuSans-103"/>
      <use x="421.240234" xlink:href="#DejaVuSans-103"/>
      <use x="484.716797" xlink:href="#DejaVuSans-114"/>
      <use x="525.798828" xlink:href="#DejaVuSans-101"/>
      <use x="587.322266" xlink:href="#DejaVuSans-103"/>
      <use x="650.798828" xlink:href="#DejaVuSans-97"/>
      <use x="712.078125" xlink:href="#DejaVuSans-116"/>
      <use x="751.287109" xlink:href="#DejaVuSans-105"/>
      <use x="779.070312" xlink:href="#DejaVuSans-111"/>
      <use x="840.251953" xlink:href="#DejaVuSans-110"/>
      <use x="903.630859" xlink:href="#DejaVuSans-32"/>
      <use x="935.417969" xlink:href="#DejaVuSans-40"/>
      <use x="974.431641" xlink:href="#DejaVuSans-111"/>
      <use x="1035.613281" xlink:href="#DejaVuSans-110"/>
      <use x="1098.992188" xlink:href="#DejaVuSans-101"/>
      <use x="1160.515625" xlink:href="#DejaVuSans-32"/>
      <use x="1192.302734" xlink:href="#DejaVuSans-116"/>
      <use x="1231.511719" xlink:href="#DejaVuSans-105"/>
      <use x="1259.294922" xlink:href="#DejaVuSans-108"/>
      <use x="1287.078125" xlink:href="#DejaVuSans-105"/>
      <use x="1314.861328" xlink:href="#DejaVuSans-110"/>
      <use x="1378.240234" xlink:href="#DejaVuSans-103"/>
      <use x="1441.716797" xlink:href="#DejaVuSans-41"/>
     </g>
    </g>
    <g id="line2d_16">
     <path d="M 373.498125 34.976562 
L 393.498125 34.976562 
" style="fill:none;stroke:#32cd32;stroke-linecap:square;stroke-width:1.5;"/>
    </g>
    <g id="line2d_17"/>
    <g id="text_15">
     <!-- Tile coding (50 tiling) -->
     <defs>
      <path d="M -0.296875 72.90625 
L 61.375 72.90625 
L 61.375 64.59375 
L 35.5 64.59375 
L 35.5 0 
L 25.59375 0 
L 25.59375 64.59375 
L -0.296875 64.59375 
z
" id="DejaVuSans-84"/>
      <path d="M 48.78125 52.59375 
L 48.78125 44.1875 
Q 44.96875 46.296875 41.140625 47.34375 
Q 37.3125 48.390625 33.40625 48.390625 
Q 24.65625 48.390625 19.8125 42.84375 
Q 14.984375 37.3125 14.984375 27.296875 
Q 14.984375 17.28125 19.8125 11.734375 
Q 24.65625 6.203125 33.40625 6.203125 
Q 37.3125 6.203125 41.140625 7.25 
Q 44.96875 8.296875 48.78125 10.40625 
L 48.78125 2.09375 
Q 45.015625 0.34375 40.984375 -0.53125 
Q 36.96875 -1.421875 32.421875 -1.421875 
Q 20.0625 -1.421875 12.78125 6.34375 
Q 5.515625 14.109375 5.515625 27.296875 
Q 5.515625 40.671875 12.859375 48.328125 
Q 20.21875 56 33.015625 56 
Q 37.15625 56 41.109375 55.140625 
Q 45.0625 54.296875 48.78125 52.59375 
z
" id="DejaVuSans-99"/>
     </defs>
     <g transform="translate(401.498125 38.476562)scale(0.1 -0.1)">
      <use xlink:href="#DejaVuSans-84"/>
      <use x="61.037109" xlink:href="#DejaVuSans-105"/>
      <use x="88.820312" xlink:href="#DejaVuSans-108"/>
      <use x="116.603516" xlink:href="#DejaVuSans-101"/>
      <use x="178.126953" xlink:href="#DejaVuSans-32"/>
      <use x="209.914062" xlink:href="#DejaVuSans-99"/>
      <use x="264.894531" xlink:href="#DejaVuSans-111"/>
      <use x="326.076172" xlink:href="#DejaVuSans-100"/>
      <use x="389.552734" xlink:href="#DejaVuSans-105"/>
      <use x="417.335938" xlink:href="#DejaVuSans-110"/>
      <use x="480.714844" xlink:href="#DejaVuSans-103"/>
      <use x="544.191406" xlink:href="#DejaVuSans-32"/>
      <use x="575.978516" xlink:href="#DejaVuSans-40"/>
      <use x="614.992188" xlink:href="#DejaVuSans-53"/>
      <use x="678.615234" xlink:href="#DejaVuSans-48"/>
      <use x="742.238281" xlink:href="#DejaVuSans-32"/>
      <use x="774.025391" xlink:href="#DejaVuSans-116"/>
      <use x="813.234375" xlink:href="#DejaVuSans-105"/>
      <use x="841.017578" xlink:href="#DejaVuSans-108"/>
      <use x="868.800781" xlink:href="#DejaVuSans-105"/>
      <use x="896.583984" xlink:href="#DejaVuSans-110"/>
      <use x="959.962891" xlink:href="#DejaVuSans-103"/>
      <use x="1023.439453" xlink:href="#DejaVuSans-41"/>
     </g>
    </g>
   </g>
  </g>
 </g>
 <defs>
  <clipPath id="p498db3f310">
   <rect height="307.24" width="508.87" x="49.703125" y="7.2"/>
  </clipPath>
 </defs>
</svg>
