<?xml version="1.0" encoding="utf-8" standalone="no"?>
<!DOCTYPE svg PUBLIC "-//W3C//DTD SVG 1.1//EN"
  "http://www.w3.org/Graphics/SVG/1.1/DTD/svg11.dtd">
<!-- Created with matplotlib (https://matplotlib.org/) -->
<svg height="337.074375pt" version="1.1" viewBox="0 0 404.86875 337.074375" width="404.86875pt" xmlns="http://www.w3.org/2000/svg" xmlns:xlink="http://www.w3.org/1999/xlink">
 <defs>
  <style type="text/css">
*{stroke-linecap:butt;stroke-linejoin:round;}
  </style>
 </defs>
 <g id="figure_1">
  <g id="patch_1">
   <path d="M 0 337.074375 
L 404.86875 337.074375 
L 404.86875 0 
L 0 0 
z
" style="fill:#ffffff;"/>
  </g>
  <g id="axes_1">
   <g id="patch_2">
    <path d="M 62.86875 299.518125 
L 397.66875 299.518125 
L 397.66875 22.318125 
L 62.86875 22.318125 
z
" style="fill:#ffffff;"/>
   </g>
   <g id="matplotlib.axis_1">
    <g id="xtick_1">
     <g id="line2d_1">
      <defs>
       <path d="M 0 0 
L 0 3.5 
" id="m5b4f86a12a" style="stroke:#000000;stroke-width:0.8;"/>
      </defs>
      <g>
       <use style="stroke:#000000;stroke-width:0.8;" x="77.782264" xlink:href="#m5b4f86a12a" y="299.518125"/>
      </g>
     </g>
     <g id="text_1">
      <!-- 0 -->
      <defs>
       <path d="M 31.78125 66.40625 
Q 24.171875 66.40625 20.328125 58.90625 
Q 16.5 51.421875 16.5 36.375 
Q 16.5 21.390625 20.328125 13.890625 
Q 24.171875 6.390625 31.78125 6.390625 
Q 39.453125 6.390625 43.28125 13.890625 
Q 47.125 21.390625 47.125 36.375 
Q 47.125 51.421875 43.28125 58.90625 
Q 39.453125 66.40625 31.78125 66.40625 
z
M 31.78125 74.21875 
Q 44.046875 74.21875 50.515625 64.515625 
Q 56.984375 54.828125 56.984375 36.375 
Q 56.984375 17.96875 50.515625 8.265625 
Q 44.046875 -1.421875 31.78125 -1.421875 
Q 19.53125 -1.421875 13.0625 8.265625 
Q 6.59375 17.96875 6.59375 36.375 
Q 6.59375 54.828125 13.0625 64.515625 
Q 19.53125 74.21875 31.78125 74.21875 
z
" id="DejaVuSans-48"/>
      </defs>
      <g transform="translate(74.601014 314.116563)scale(0.1 -0.1)">
       <use xlink:href="#DejaVuSans-48"/>
      </g>
     </g>
    </g>
    <g id="xtick_2">
     <g id="line2d_2">
      <g>
       <use style="stroke:#000000;stroke-width:0.8;" x="138.715924" xlink:href="#m5b4f86a12a" y="299.518125"/>
      </g>
     </g>
     <g id="text_2">
      <!-- 200 -->
      <defs>
       <path d="M 19.1875 8.296875 
L 53.609375 8.296875 
L 53.609375 0 
L 7.328125 0 
L 7.328125 8.296875 
Q 12.9375 14.109375 22.625 23.890625 
Q 32.328125 33.6875 34.8125 36.53125 
Q 39.546875 41.84375 41.421875 45.53125 
Q 43.3125 49.21875 43.3125 52.78125 
Q 43.3125 58.59375 39.234375 62.25 
Q 35.15625 65.921875 28.609375 65.921875 
Q 23.96875 65.921875 18.8125 64.3125 
Q 13.671875 62.703125 7.8125 59.421875 
L 7.8125 69.390625 
Q 13.765625 71.78125 18.9375 73 
Q 24.125 74.21875 28.421875 74.21875 
Q 39.75 74.21875 46.484375 68.546875 
Q 53.21875 62.890625 53.21875 53.421875 
Q 53.21875 48.921875 51.53125 44.890625 
Q 49.859375 40.875 45.40625 35.40625 
Q 44.1875 33.984375 37.640625 27.21875 
Q 31.109375 20.453125 19.1875 8.296875 
z
" id="DejaVuSans-50"/>
      </defs>
      <g transform="translate(129.172174 314.116563)scale(0.1 -0.1)">
       <use xlink:href="#DejaVuSans-50"/>
       <use x="63.623047" xlink:href="#DejaVuSans-48"/>
       <use x="127.246094" xlink:href="#DejaVuSans-48"/>
      </g>
     </g>
    </g>
    <g id="xtick_3">
     <g id="line2d_3">
      <g>
       <use style="stroke:#000000;stroke-width:0.8;" x="199.649585" xlink:href="#m5b4f86a12a" y="299.518125"/>
      </g>
     </g>
     <g id="text_3">
      <!-- 400 -->
      <defs>
       <path d="M 37.796875 64.3125 
L 12.890625 25.390625 
L 37.796875 25.390625 
z
M 35.203125 72.90625 
L 47.609375 72.90625 
L 47.609375 25.390625 
L 58.015625 25.390625 
L 58.015625 17.1875 
L 47.609375 17.1875 
L 47.609375 0 
L 37.796875 0 
L 37.796875 17.1875 
L 4.890625 17.1875 
L 4.890625 26.703125 
z
" id="DejaVuSans-52"/>
      </defs>
      <g transform="translate(190.105835 314.116563)scale(0.1 -0.1)">
       <use xlink:href="#DejaVuSans-52"/>
       <use x="63.623047" xlink:href="#DejaVuSans-48"/>
       <use x="127.246094" xlink:href="#DejaVuSans-48"/>
      </g>
     </g>
    </g>
    <g id="xtick_4">
     <g id="line2d_4">
      <g>
       <use style="stroke:#000000;stroke-width:0.8;" x="260.583246" xlink:href="#m5b4f86a12a" y="299.518125"/>
      </g>
     </g>
     <g id="text_4">
      <!-- 600 -->
      <defs>
       <path d="M 33.015625 40.375 
Q 26.375 40.375 22.484375 35.828125 
Q 18.609375 31.296875 18.609375 23.390625 
Q 18.609375 15.53125 22.484375 10.953125 
Q 26.375 6.390625 33.015625 6.390625 
Q 39.65625 6.390625 43.53125 10.953125 
Q 47.40625 15.53125 47.40625 23.390625 
Q 47.40625 31.296875 43.53125 35.828125 
Q 39.65625 40.375 33.015625 40.375 
z
M 52.59375 71.296875 
L 52.59375 62.3125 
Q 48.875 64.0625 45.09375 64.984375 
Q 41.3125 65.921875 37.59375 65.921875 
Q 27.828125 65.921875 22.671875 59.328125 
Q 17.53125 52.734375 16.796875 39.40625 
Q 19.671875 43.65625 24.015625 45.921875 
Q 28.375 48.1875 33.59375 48.1875 
Q 44.578125 48.1875 50.953125 41.515625 
Q 57.328125 34.859375 57.328125 23.390625 
Q 57.328125 12.15625 50.6875 5.359375 
Q 44.046875 -1.421875 33.015625 -1.421875 
Q 20.359375 -1.421875 13.671875 8.265625 
Q 6.984375 17.96875 6.984375 36.375 
Q 6.984375 53.65625 15.1875 63.9375 
Q 23.390625 74.21875 37.203125 74.21875 
Q 40.921875 74.21875 44.703125 73.484375 
Q 48.484375 72.75 52.59375 71.296875 
z
" id="DejaVuSans-54"/>
      </defs>
      <g transform="translate(251.039496 314.116563)scale(0.1 -0.1)">
       <use xlink:href="#DejaVuSans-54"/>
       <use x="63.623047" xlink:href="#DejaVuSans-48"/>
       <use x="127.246094" xlink:href="#DejaVuSans-48"/>
      </g>
     </g>
    </g>
    <g id="xtick_5">
     <g id="line2d_5">
      <g>
       <use style="stroke:#000000;stroke-width:0.8;" x="321.516907" xlink:href="#m5b4f86a12a" y="299.518125"/>
      </g>
     </g>
     <g id="text_5">
      <!-- 800 -->
      <defs>
       <path d="M 31.78125 34.625 
Q 24.75 34.625 20.71875 30.859375 
Q 16.703125 27.09375 16.703125 20.515625 
Q 16.703125 13.921875 20.71875 10.15625 
Q 24.75 6.390625 31.78125 6.390625 
Q 38.8125 6.390625 42.859375 10.171875 
Q 46.921875 13.96875 46.921875 20.515625 
Q 46.921875 27.09375 42.890625 30.859375 
Q 38.875 34.625 31.78125 34.625 
z
M 21.921875 38.8125 
Q 15.578125 40.375 12.03125 44.71875 
Q 8.5 49.078125 8.5 55.328125 
Q 8.5 64.0625 14.71875 69.140625 
Q 20.953125 74.21875 31.78125 74.21875 
Q 42.671875 74.21875 48.875 69.140625 
Q 55.078125 64.0625 55.078125 55.328125 
Q 55.078125 49.078125 51.53125 44.71875 
Q 48 40.375 41.703125 38.8125 
Q 48.828125 37.15625 52.796875 32.3125 
Q 56.78125 27.484375 56.78125 20.515625 
Q 56.78125 9.90625 50.3125 4.234375 
Q 43.84375 -1.421875 31.78125 -1.421875 
Q 19.734375 -1.421875 13.25 4.234375 
Q 6.78125 9.90625 6.78125 20.515625 
Q 6.78125 27.484375 10.78125 32.3125 
Q 14.796875 37.15625 21.921875 38.8125 
z
M 18.3125 54.390625 
Q 18.3125 48.734375 21.84375 45.5625 
Q 25.390625 42.390625 31.78125 42.390625 
Q 38.140625 42.390625 41.71875 45.5625 
Q 45.3125 48.734375 45.3125 54.390625 
Q 45.3125 60.0625 41.71875 63.234375 
Q 38.140625 66.40625 31.78125 66.40625 
Q 25.390625 66.40625 21.84375 63.234375 
Q 18.3125 60.0625 18.3125 54.390625 
z
" id="DejaVuSans-56"/>
      </defs>
      <g transform="translate(311.973157 314.116563)scale(0.1 -0.1)">
       <use xlink:href="#DejaVuSans-56"/>
       <use x="63.623047" xlink:href="#DejaVuSans-48"/>
       <use x="127.246094" xlink:href="#DejaVuSans-48"/>
      </g>
     </g>
    </g>
    <g id="xtick_6">
     <g id="line2d_6">
      <g>
       <use style="stroke:#000000;stroke-width:0.8;" x="382.450568" xlink:href="#m5b4f86a12a" y="299.518125"/>
      </g>
     </g>
     <g id="text_6">
      <!-- 1000 -->
      <defs>
       <path d="M 12.40625 8.296875 
L 28.515625 8.296875 
L 28.515625 63.921875 
L 10.984375 60.40625 
L 10.984375 69.390625 
L 28.421875 72.90625 
L 38.28125 72.90625 
L 38.28125 8.296875 
L 54.390625 8.296875 
L 54.390625 0 
L 12.40625 0 
z
" id="DejaVuSans-49"/>
      </defs>
      <g transform="translate(369.725568 314.116563)scale(0.1 -0.1)">
       <use xlink:href="#DejaVuSans-49"/>
       <use x="63.623047" xlink:href="#DejaVuSans-48"/>
       <use x="127.246094" xlink:href="#DejaVuSans-48"/>
       <use x="190.869141" xlink:href="#DejaVuSans-48"/>
      </g>
     </g>
    </g>
    <g id="text_7">
     <!-- State -->
     <defs>
      <path d="M 53.515625 70.515625 
L 53.515625 60.890625 
Q 47.90625 63.578125 42.921875 64.890625 
Q 37.9375 66.21875 33.296875 66.21875 
Q 25.25 66.21875 20.875 63.09375 
Q 16.5 59.96875 16.5 54.203125 
Q 16.5 49.359375 19.40625 46.890625 
Q 22.3125 44.4375 30.421875 42.921875 
L 36.375 41.703125 
Q 47.40625 39.59375 52.65625 34.296875 
Q 57.90625 29 57.90625 20.125 
Q 57.90625 9.515625 50.796875 4.046875 
Q 43.703125 -1.421875 29.984375 -1.421875 
Q 24.8125 -1.421875 18.96875 -0.25 
Q 13.140625 0.921875 6.890625 3.21875 
L 6.890625 13.375 
Q 12.890625 10.015625 18.65625 8.296875 
Q 24.421875 6.59375 29.984375 6.59375 
Q 38.421875 6.59375 43.015625 9.90625 
Q 47.609375 13.234375 47.609375 19.390625 
Q 47.609375 24.75 44.3125 27.78125 
Q 41.015625 30.8125 33.5 32.328125 
L 27.484375 33.5 
Q 16.453125 35.6875 11.515625 40.375 
Q 6.59375 45.0625 6.59375 53.421875 
Q 6.59375 63.09375 13.40625 68.65625 
Q 20.21875 74.21875 32.171875 74.21875 
Q 37.3125 74.21875 42.625 73.28125 
Q 47.953125 72.359375 53.515625 70.515625 
z
" id="DejaVuSans-83"/>
      <path d="M 18.3125 70.21875 
L 18.3125 54.6875 
L 36.8125 54.6875 
L 36.8125 47.703125 
L 18.3125 47.703125 
L 18.3125 18.015625 
Q 18.3125 11.328125 20.140625 9.421875 
Q 21.96875 7.515625 27.59375 7.515625 
L 36.8125 7.515625 
L 36.8125 0 
L 27.59375 0 
Q 17.1875 0 13.234375 3.875 
Q 9.28125 7.765625 9.28125 18.015625 
L 9.28125 47.703125 
L 2.6875 47.703125 
L 2.6875 54.6875 
L 9.28125 54.6875 
L 9.28125 70.21875 
z
" id="DejaVuSans-116"/>
      <path d="M 34.28125 27.484375 
Q 23.390625 27.484375 19.1875 25 
Q 14.984375 22.515625 14.984375 16.5 
Q 14.984375 11.71875 18.140625 8.90625 
Q 21.296875 6.109375 26.703125 6.109375 
Q 34.1875 6.109375 38.703125 11.40625 
Q 43.21875 16.703125 43.21875 25.484375 
L 43.21875 27.484375 
z
M 52.203125 31.203125 
L 52.203125 0 
L 43.21875 0 
L 43.21875 8.296875 
Q 40.140625 3.328125 35.546875 0.953125 
Q 30.953125 -1.421875 24.3125 -1.421875 
Q 15.921875 -1.421875 10.953125 3.296875 
Q 6 8.015625 6 15.921875 
Q 6 25.140625 12.171875 29.828125 
Q 18.359375 34.515625 30.609375 34.515625 
L 43.21875 34.515625 
L 43.21875 35.40625 
Q 43.21875 41.609375 39.140625 45 
Q 35.0625 48.390625 27.6875 48.390625 
Q 23 48.390625 18.546875 47.265625 
Q 14.109375 46.140625 10.015625 43.890625 
L 10.015625 52.203125 
Q 14.9375 54.109375 19.578125 55.046875 
Q 24.21875 56 28.609375 56 
Q 40.484375 56 46.34375 49.84375 
Q 52.203125 43.703125 52.203125 31.203125 
z
" id="DejaVuSans-97"/>
      <path d="M 56.203125 29.59375 
L 56.203125 25.203125 
L 14.890625 25.203125 
Q 15.484375 15.921875 20.484375 11.0625 
Q 25.484375 6.203125 34.421875 6.203125 
Q 39.59375 6.203125 44.453125 7.46875 
Q 49.3125 8.734375 54.109375 11.28125 
L 54.109375 2.78125 
Q 49.265625 0.734375 44.1875 -0.34375 
Q 39.109375 -1.421875 33.890625 -1.421875 
Q 20.796875 -1.421875 13.15625 6.1875 
Q 5.515625 13.8125 5.515625 26.8125 
Q 5.515625 40.234375 12.765625 48.109375 
Q 20.015625 56 32.328125 56 
Q 43.359375 56 49.78125 48.890625 
Q 56.203125 41.796875 56.203125 29.59375 
z
M 47.21875 32.234375 
Q 47.125 39.59375 43.09375 43.984375 
Q 39.0625 48.390625 32.421875 48.390625 
Q 24.90625 48.390625 20.390625 44.140625 
Q 15.875 39.890625 15.1875 32.171875 
z
" id="DejaVuSans-101"/>
     </defs>
     <g transform="translate(217.033594 327.794688)scale(0.1 -0.1)">
      <use xlink:href="#DejaVuSans-83"/>
      <use x="63.476562" xlink:href="#DejaVuSans-116"/>
      <use x="102.685547" xlink:href="#DejaVuSans-97"/>
      <use x="163.964844" xlink:href="#DejaVuSans-116"/>
      <use x="203.173828" xlink:href="#DejaVuSans-101"/>
     </g>
    </g>
   </g>
   <g id="matplotlib.axis_2">
    <g id="ytick_1">
     <g id="line2d_7">
      <defs>
       <path d="M 0 0 
L -3.5 0 
" id="md38a977e92" style="stroke:#000000;stroke-width:0.8;"/>
      </defs>
      <g>
       <use style="stroke:#000000;stroke-width:0.8;" x="62.86875" xlink:href="#md38a977e92" y="295.6139"/>
      </g>
     </g>
     <g id="text_8">
      <!-- 0.0000 -->
      <defs>
       <path d="M 10.6875 12.40625 
L 21 12.40625 
L 21 0 
L 10.6875 0 
z
" id="DejaVuSans-46"/>
      </defs>
      <g transform="translate(20.878125 299.413118)scale(0.1 -0.1)">
       <use xlink:href="#DejaVuSans-48"/>
       <use x="63.623047" xlink:href="#DejaVuSans-46"/>
       <use x="95.410156" xlink:href="#DejaVuSans-48"/>
       <use x="159.033203" xlink:href="#DejaVuSans-48"/>
       <use x="222.65625" xlink:href="#DejaVuSans-48"/>
       <use x="286.279297" xlink:href="#DejaVuSans-48"/>
      </g>
     </g>
    </g>
    <g id="ytick_2">
     <g id="line2d_8">
      <g>
       <use style="stroke:#000000;stroke-width:0.8;" x="62.86875" xlink:href="#md38a977e92" y="262.427984"/>
      </g>
     </g>
     <g id="text_9">
      <!-- 0.0017 -->
      <defs>
       <path d="M 8.203125 72.90625 
L 55.078125 72.90625 
L 55.078125 68.703125 
L 28.609375 0 
L 18.3125 0 
L 43.21875 64.59375 
L 8.203125 64.59375 
z
" id="DejaVuSans-55"/>
      </defs>
      <g transform="translate(20.878125 266.227203)scale(0.1 -0.1)">
       <use xlink:href="#DejaVuSans-48"/>
       <use x="63.623047" xlink:href="#DejaVuSans-46"/>
       <use x="95.410156" xlink:href="#DejaVuSans-48"/>
       <use x="159.033203" xlink:href="#DejaVuSans-48"/>
       <use x="222.65625" xlink:href="#DejaVuSans-49"/>
       <use x="286.279297" xlink:href="#DejaVuSans-55"/>
      </g>
     </g>
    </g>
    <g id="ytick_3">
     <g id="line2d_9">
      <g>
       <use style="stroke:#000000;stroke-width:0.8;" x="62.86875" xlink:href="#md38a977e92" y="28.174463"/>
      </g>
     </g>
     <g id="text_10">
      <!-- 0.0137 -->
      <defs>
       <path d="M 40.578125 39.3125 
Q 47.65625 37.796875 51.625 33 
Q 55.609375 28.21875 55.609375 21.1875 
Q 55.609375 10.40625 48.1875 4.484375 
Q 40.765625 -1.421875 27.09375 -1.421875 
Q 22.515625 -1.421875 17.65625 -0.515625 
Q 12.796875 0.390625 7.625 2.203125 
L 7.625 11.71875 
Q 11.71875 9.328125 16.59375 8.109375 
Q 21.484375 6.890625 26.8125 6.890625 
Q 36.078125 6.890625 40.9375 10.546875 
Q 45.796875 14.203125 45.796875 21.1875 
Q 45.796875 27.640625 41.28125 31.265625 
Q 36.765625 34.90625 28.71875 34.90625 
L 20.21875 34.90625 
L 20.21875 43.015625 
L 29.109375 43.015625 
Q 36.375 43.015625 40.234375 45.921875 
Q 44.09375 48.828125 44.09375 54.296875 
Q 44.09375 59.90625 40.109375 62.90625 
Q 36.140625 65.921875 28.71875 65.921875 
Q 24.65625 65.921875 20.015625 65.03125 
Q 15.375 64.15625 9.8125 62.3125 
L 9.8125 71.09375 
Q 15.4375 72.65625 20.34375 73.4375 
Q 25.25 74.21875 29.59375 74.21875 
Q 40.828125 74.21875 47.359375 69.109375 
Q 53.90625 64.015625 53.90625 55.328125 
Q 53.90625 49.265625 50.4375 45.09375 
Q 46.96875 40.921875 40.578125 39.3125 
z
" id="DejaVuSans-51"/>
      </defs>
      <g transform="translate(20.878125 31.973682)scale(0.1 -0.1)">
       <use xlink:href="#DejaVuSans-48"/>
       <use x="63.623047" xlink:href="#DejaVuSans-46"/>
       <use x="95.410156" xlink:href="#DejaVuSans-48"/>
       <use x="159.033203" xlink:href="#DejaVuSans-49"/>
       <use x="222.65625" xlink:href="#DejaVuSans-51"/>
       <use x="286.279297" xlink:href="#DejaVuSans-55"/>
      </g>
     </g>
    </g>
    <g id="text_11">
     <!-- State distribution -->
     <defs>
      <path id="DejaVuSans-32"/>
      <path d="M 45.40625 46.390625 
L 45.40625 75.984375 
L 54.390625 75.984375 
L 54.390625 0 
L 45.40625 0 
L 45.40625 8.203125 
Q 42.578125 3.328125 38.25 0.953125 
Q 33.9375 -1.421875 27.875 -1.421875 
Q 17.96875 -1.421875 11.734375 6.484375 
Q 5.515625 14.40625 5.515625 27.296875 
Q 5.515625 40.1875 11.734375 48.09375 
Q 17.96875 56 27.875 56 
Q 33.9375 56 38.25 53.625 
Q 42.578125 51.265625 45.40625 46.390625 
z
M 14.796875 27.296875 
Q 14.796875 17.390625 18.875 11.75 
Q 22.953125 6.109375 30.078125 6.109375 
Q 37.203125 6.109375 41.296875 11.75 
Q 45.40625 17.390625 45.40625 27.296875 
Q 45.40625 37.203125 41.296875 42.84375 
Q 37.203125 48.484375 30.078125 48.484375 
Q 22.953125 48.484375 18.875 42.84375 
Q 14.796875 37.203125 14.796875 27.296875 
z
" id="DejaVuSans-100"/>
      <path d="M 9.421875 54.6875 
L 18.40625 54.6875 
L 18.40625 0 
L 9.421875 0 
z
M 9.421875 75.984375 
L 18.40625 75.984375 
L 18.40625 64.59375 
L 9.421875 64.59375 
z
" id="DejaVuSans-105"/>
      <path d="M 44.28125 53.078125 
L 44.28125 44.578125 
Q 40.484375 46.53125 36.375 47.5 
Q 32.28125 48.484375 27.875 48.484375 
Q 21.1875 48.484375 17.84375 46.4375 
Q 14.5 44.390625 14.5 40.28125 
Q 14.5 37.15625 16.890625 35.375 
Q 19.28125 33.59375 26.515625 31.984375 
L 29.59375 31.296875 
Q 39.15625 29.25 43.1875 25.515625 
Q 47.21875 21.78125 47.21875 15.09375 
Q 47.21875 7.46875 41.1875 3.015625 
Q 35.15625 -1.421875 24.609375 -1.421875 
Q 20.21875 -1.421875 15.453125 -0.5625 
Q 10.6875 0.296875 5.421875 2 
L 5.421875 11.28125 
Q 10.40625 8.6875 15.234375 7.390625 
Q 20.0625 6.109375 24.8125 6.109375 
Q 31.15625 6.109375 34.5625 8.28125 
Q 37.984375 10.453125 37.984375 14.40625 
Q 37.984375 18.0625 35.515625 20.015625 
Q 33.0625 21.96875 24.703125 23.78125 
L 21.578125 24.515625 
Q 13.234375 26.265625 9.515625 29.90625 
Q 5.8125 33.546875 5.8125 39.890625 
Q 5.8125 47.609375 11.28125 51.796875 
Q 16.75 56 26.8125 56 
Q 31.78125 56 36.171875 55.265625 
Q 40.578125 54.546875 44.28125 53.078125 
z
" id="DejaVuSans-115"/>
      <path d="M 41.109375 46.296875 
Q 39.59375 47.171875 37.8125 47.578125 
Q 36.03125 48 33.890625 48 
Q 26.265625 48 22.1875 43.046875 
Q 18.109375 38.09375 18.109375 28.8125 
L 18.109375 0 
L 9.078125 0 
L 9.078125 54.6875 
L 18.109375 54.6875 
L 18.109375 46.1875 
Q 20.953125 51.171875 25.484375 53.578125 
Q 30.03125 56 36.53125 56 
Q 37.453125 56 38.578125 55.875 
Q 39.703125 55.765625 41.0625 55.515625 
z
" id="DejaVuSans-114"/>
      <path d="M 48.6875 27.296875 
Q 48.6875 37.203125 44.609375 42.84375 
Q 40.53125 48.484375 33.40625 48.484375 
Q 26.265625 48.484375 22.1875 42.84375 
Q 18.109375 37.203125 18.109375 27.296875 
Q 18.109375 17.390625 22.1875 11.75 
Q 26.265625 6.109375 33.40625 6.109375 
Q 40.53125 6.109375 44.609375 11.75 
Q 48.6875 17.390625 48.6875 27.296875 
z
M 18.109375 46.390625 
Q 20.953125 51.265625 25.265625 53.625 
Q 29.59375 56 35.59375 56 
Q 45.5625 56 51.78125 48.09375 
Q 58.015625 40.1875 58.015625 27.296875 
Q 58.015625 14.40625 51.78125 6.484375 
Q 45.5625 -1.421875 35.59375 -1.421875 
Q 29.59375 -1.421875 25.265625 0.953125 
Q 20.953125 3.328125 18.109375 8.203125 
L 18.109375 0 
L 9.078125 0 
L 9.078125 75.984375 
L 18.109375 75.984375 
z
" id="DejaVuSans-98"/>
      <path d="M 8.5 21.578125 
L 8.5 54.6875 
L 17.484375 54.6875 
L 17.484375 21.921875 
Q 17.484375 14.15625 20.5 10.265625 
Q 23.53125 6.390625 29.59375 6.390625 
Q 36.859375 6.390625 41.078125 11.03125 
Q 45.3125 15.671875 45.3125 23.6875 
L 45.3125 54.6875 
L 54.296875 54.6875 
L 54.296875 0 
L 45.3125 0 
L 45.3125 8.40625 
Q 42.046875 3.421875 37.71875 1 
Q 33.40625 -1.421875 27.6875 -1.421875 
Q 18.265625 -1.421875 13.375 4.4375 
Q 8.5 10.296875 8.5 21.578125 
z
M 31.109375 56 
z
" id="DejaVuSans-117"/>
      <path d="M 30.609375 48.390625 
Q 23.390625 48.390625 19.1875 42.75 
Q 14.984375 37.109375 14.984375 27.296875 
Q 14.984375 17.484375 19.15625 11.84375 
Q 23.34375 6.203125 30.609375 6.203125 
Q 37.796875 6.203125 41.984375 11.859375 
Q 46.1875 17.53125 46.1875 27.296875 
Q 46.1875 37.015625 41.984375 42.703125 
Q 37.796875 48.390625 30.609375 48.390625 
z
M 30.609375 56 
Q 42.328125 56 49.015625 48.375 
Q 55.71875 40.765625 55.71875 27.296875 
Q 55.71875 13.875 49.015625 6.21875 
Q 42.328125 -1.421875 30.609375 -1.421875 
Q 18.84375 -1.421875 12.171875 6.21875 
Q 5.515625 13.875 5.515625 27.296875 
Q 5.515625 40.765625 12.171875 48.375 
Q 18.84375 56 30.609375 56 
z
" id="DejaVuSans-111"/>
      <path d="M 54.890625 33.015625 
L 54.890625 0 
L 45.90625 0 
L 45.90625 32.71875 
Q 45.90625 40.484375 42.875 44.328125 
Q 39.84375 48.1875 33.796875 48.1875 
Q 26.515625 48.1875 22.3125 43.546875 
Q 18.109375 38.921875 18.109375 30.90625 
L 18.109375 0 
L 9.078125 0 
L 9.078125 54.6875 
L 18.109375 54.6875 
L 18.109375 46.1875 
Q 21.34375 51.125 25.703125 53.5625 
Q 30.078125 56 35.796875 56 
Q 45.21875 56 50.046875 50.171875 
Q 54.890625 44.34375 54.890625 33.015625 
z
" id="DejaVuSans-110"/>
     </defs>
     <g transform="translate(14.798438 204.235313)rotate(-90)scale(0.1 -0.1)">
      <use xlink:href="#DejaVuSans-83"/>
      <use x="63.476562" xlink:href="#DejaVuSans-116"/>
      <use x="102.685547" xlink:href="#DejaVuSans-97"/>
      <use x="163.964844" xlink:href="#DejaVuSans-116"/>
      <use x="203.173828" xlink:href="#DejaVuSans-101"/>
      <use x="264.697266" xlink:href="#DejaVuSans-32"/>
      <use x="296.484375" xlink:href="#DejaVuSans-100"/>
      <use x="359.960938" xlink:href="#DejaVuSans-105"/>
      <use x="387.744141" xlink:href="#DejaVuSans-115"/>
      <use x="439.84375" xlink:href="#DejaVuSans-116"/>
      <use x="479.052734" xlink:href="#DejaVuSans-114"/>
      <use x="520.166016" xlink:href="#DejaVuSans-105"/>
      <use x="547.949219" xlink:href="#DejaVuSans-98"/>
      <use x="611.425781" xlink:href="#DejaVuSans-117"/>
      <use x="674.804688" xlink:href="#DejaVuSans-116"/>
      <use x="714.013672" xlink:href="#DejaVuSans-105"/>
      <use x="741.796875" xlink:href="#DejaVuSans-111"/>
      <use x="802.978516" xlink:href="#DejaVuSans-110"/>
     </g>
    </g>
   </g>
   <g id="line2d_10">
    <path clip-path="url(#p5172c1fcff)" d="M 78.086932 292.727811 
L 78.3916 292.702021 
L 78.696268 292.521494 
L 79.610273 292.51915 
L 79.914942 292.359723 
L 80.524278 292.44647 
L 81.133615 292.268287 
L 81.742951 292.162785 
L 82.04762 292.01977 
L 82.352288 292.06666 
L 82.656956 291.883788 
L 83.266293 291.958812 
L 84.180298 291.705606 
L 84.484966 291.785319 
L 84.789635 291.579002 
L 85.094303 291.602447 
L 85.398971 291.508667 
L 85.703639 291.724362 
L 86.008308 291.496944 
L 86.312976 291.586036 
L 86.617644 291.527423 
L 86.922313 291.192158 
L 87.226981 291.260149 
L 87.836318 291.243738 
L 88.140986 290.908473 
L 89.359659 290.863927 
L 89.664327 290.685745 
L 90.578332 290.56383 
L 90.883001 290.652922 
L 91.187669 290.463017 
L 92.406342 290.221532 
L 92.71101 290.298901 
L 93.320347 289.905024 
L 93.929684 289.87689 
L 94.234352 289.822966 
L 94.53902 290.005838 
L 94.843689 289.649473 
L 95.148357 289.754975 
L 95.453025 289.457223 
L 95.757693 289.628372 
L 96.062362 289.433778 
L 96.976367 289.248562 
L 97.281035 289.049279 
L 97.585703 289.192294 
L 97.890372 289.056312 
L 98.19504 289.150092 
L 98.499708 288.835928 
L 98.804377 288.964876 
L 99.109045 288.73277 
L 99.718381 288.669468 
L 100.02305 288.585066 
L 100.327718 288.676502 
L 100.632386 288.254491 
L 100.937055 288.324826 
L 101.241723 288.151332 
L 101.85106 288.188844 
L 102.155728 287.865302 
L 102.460396 288.167744 
L 102.765064 288.088031 
L 103.679069 287.457358 
L 103.983738 287.7598 
L 104.593074 287.314343 
L 104.897743 287.351855 
L 106.421084 286.889987 
L 106.725752 286.981423 
L 107.030421 286.920466 
L 107.335089 286.643814 
L 107.944426 286.554723 
L 108.249094 286.641469 
L 108.553762 286.336683 
L 109.467767 286.35075 
L 109.772436 286.076443 
L 110.077104 286.151467 
L 110.381772 286.395296 
L 110.68644 285.963907 
L 110.991109 286.067065 
L 111.600445 285.652087 
L 111.905114 285.809169 
L 112.51445 285.511417 
L 113.123787 285.387158 
L 113.428455 285.562996 
L 113.733123 285.579408 
L 114.951797 284.897156 
L 115.256465 284.904189 
L 115.561133 285.208975 
L 115.865802 284.915912 
L 116.17047 284.869022 
L 116.475138 284.939357 
L 116.779807 284.765863 
L 117.084475 284.850266 
L 117.389143 284.744763 
L 117.693811 284.16098 
L 117.99848 284.282895 
L 118.912485 284.219593 
L 119.217153 284.348541 
L 119.521821 283.99452 
L 119.82649 283.987487 
L 120.131158 284.184426 
L 120.435826 284.182081 
L 120.740494 283.792893 
L 121.045163 283.617055 
L 121.349831 283.917152 
L 121.959168 282.859779 
L 122.263836 283.626433 
L 122.568504 283.722558 
L 123.177841 283.110641 
L 123.482509 283.176287 
L 124.091846 282.894946 
L 124.396514 283.02155 
L 124.701182 282.672218 
L 125.310519 282.655807 
L 125.615187 282.803511 
L 126.224524 282.489347 
L 126.529192 282.390877 
L 126.833861 282.156427 
L 127.138529 282.322887 
L 127.443197 282.093125 
L 127.747865 282.397911 
L 128.052534 282.154082 
L 128.66187 281.87743 
L 128.966539 282.057957 
L 129.575875 281.645324 
L 129.880544 281.68987 
L 130.185212 281.410873 
L 130.48988 281.542166 
L 130.794549 281.392117 
L 131.403885 281.514032 
L 131.708553 281.232691 
L 132.013222 281.525754 
L 132.622558 280.885704 
L 132.927227 281.272547 
L 133.231895 280.761445 
L 133.536563 280.672353 
L 133.841232 281.106087 
L 134.1459 280.695798 
L 134.450568 280.728622 
L 134.755236 280.428525 
L 135.059905 280.705176 
L 135.364573 280.702832 
L 135.669241 280.583262 
L 135.97391 280.777856 
L 136.278578 280.128428 
L 136.583246 280.56685 
L 136.887915 279.966657 
L 137.192583 280.463692 
L 137.80192 279.685316 
L 138.106588 279.769718 
L 138.715924 279.439142 
L 139.325261 279.495411 
L 139.629929 279.821297 
L 139.934598 279.263304 
L 140.239266 279.270338 
L 140.543934 279.049954 
L 140.848603 279.364118 
L 141.153271 279.124978 
L 141.457939 279.150768 
L 141.762607 278.820192 
L 142.067276 279.000719 
L 142.371944 278.227032 
L 142.676612 278.712345 
L 142.981281 278.857705 
L 143.285949 278.801436 
L 143.590617 278.869427 
L 143.895286 278.37708 
L 144.199954 278.405215 
L 144.504622 278.187175 
L 144.809291 278.259855 
L 145.113959 277.729996 
L 145.418627 278.065261 
L 146.027964 278.320812 
L 146.332632 277.788609 
L 146.6373 277.565881 
L 146.941969 277.805021 
L 147.246637 277.776887 
L 147.551305 277.905834 
L 147.855974 277.854255 
L 148.160642 277.521335 
L 148.769979 277.392387 
L 149.074647 277.563536 
L 149.379315 277.347842 
L 149.683983 276.92583 
L 149.988652 277.108702 
L 150.597988 277.089946 
L 150.902657 276.890663 
L 151.207325 276.923486 
L 151.511993 276.689035 
L 152.12133 276.75937 
L 152.425998 276.349081 
L 152.730666 276.897696 
L 153.340003 276.161521 
L 153.644671 276.091186 
L 153.94934 276.381905 
L 154.254008 276.126353 
L 154.558676 276.138076 
L 154.863345 276.025539 
L 155.168013 275.608217 
L 155.472681 275.97396 
L 155.77735 275.751232 
L 156.082018 275.340943 
L 156.691354 275.61994 
L 156.996023 276.168554 
L 157.300691 275.71372 
L 157.605359 275.699653 
L 157.910028 274.989267 
L 158.519364 275.50037 
L 159.738037 274.743094 
L 160.042706 275.113526 
L 160.347374 274.581323 
L 160.652042 274.813429 
L 160.956711 274.729027 
L 161.261379 274.775917 
L 161.566047 274.47582 
L 162.175384 274.110077 
L 162.480052 274.405485 
L 162.784721 274.067876 
L 163.089389 273.943617 
L 163.394057 274.192135 
L 163.698725 273.870937 
L 164.003394 274.304671 
L 164.308062 273.906105 
L 164.917399 273.95065 
L 165.222067 273.547395 
L 165.526735 273.608352 
L 165.831404 273.301222 
L 166.44074 273.659931 
L 167.050077 273.092561 
L 167.354745 273.317633 
L 167.659413 273.366868 
L 167.964082 273.233231 
L 168.26875 273.273088 
L 168.573418 273.198063 
L 168.878087 273.270743 
L 169.182755 272.574424 
L 169.792092 272.562702 
L 170.401428 272.78543 
L 170.706096 272.264949 
L 171.315433 272.464233 
L 171.620101 272.011743 
L 171.92477 271.814804 
L 172.534106 272.007054 
L 172.838775 271.463128 
L 173.143443 271.983609 
L 173.448111 271.960163 
L 173.752779 271.315424 
L 174.057448 271.774947 
L 174.362116 271.275567 
L 174.666784 271.603798 
L 175.580789 271.247433 
L 175.885458 270.726952 
L 176.190126 271.179442 
L 176.494794 271.165375 
L 176.799463 270.837144 
L 177.104131 270.80901 
L 177.408799 270.447956 
L 178.018136 270.860589 
L 178.627472 270.844178 
L 178.932141 270.408099 
L 179.236809 270.258051 
L 179.541477 270.665995 
L 180.76015 269.908719 
L 181.064819 270.058768 
L 181.674155 269.399961 
L 181.978824 269.437473 
L 182.283492 269.28508 
L 182.58816 269.622689 
L 182.892829 269.599244 
L 183.197497 269.282736 
L 183.502165 269.491397 
L 184.720838 269.172544 
L 185.025507 268.534838 
L 185.330175 269.045941 
L 185.634843 269.146754 
L 185.939512 268.970916 
L 186.24418 268.434024 
L 186.853517 268.743499 
L 187.158185 268.389479 
L 187.462853 268.673164 
L 187.767521 268.300387 
L 188.07219 268.605173 
L 188.376858 268.546561 
L 188.681526 268.713021 
L 188.986195 267.798663 
L 189.595531 268.133927 
L 189.9002 268.09876 
L 190.204868 267.639236 
L 190.509536 268.183162 
L 190.814205 267.545456 
L 191.118873 267.892443 
L 191.728209 267.653303 
L 192.032878 267.864309 
L 192.337546 268.3801 
L 192.642214 267.458709 
L 192.946883 267.099999 
L 193.251551 267.514977 
L 193.556219 267.629858 
L 193.860888 267.418852 
L 194.165556 267.393063 
L 194.470224 267.62048 
L 194.774893 267.043731 
L 195.993566 266.682677 
L 196.298234 267.050765 
L 196.907571 266.825692 
L 197.212239 266.270044 
L 197.516907 266.717845 
L 198.126244 266.760046 
L 198.73558 266.457604 
L 199.040249 265.859755 
L 199.344917 266.173919 
L 199.649585 264.914918 
L 200.258922 265.751908 
L 200.56359 265.156403 
L 200.868259 264.877406 
L 201.172927 264.921952 
L 201.477595 265.313485 
L 202.086932 264.2186 
L 202.3916 264.528075 
L 202.696268 264.668745 
L 203.000937 264.387404 
L 203.305605 264.581998 
L 203.914942 264.370993 
L 204.524278 263.733287 
L 204.828947 264.293624 
L 205.133615 264.610132 
L 205.438283 264.068551 
L 206.04762 264.094341 
L 206.352288 263.756732 
L 206.656956 264.455395 
L 206.961625 264.005249 
L 207.570961 263.578549 
L 207.87563 263.866924 
L 208.180298 264.490563 
L 208.484966 263.311275 
L 208.789635 263.538692 
L 209.703639 263.487113 
L 210.008308 263.416778 
L 210.312976 263.126059 
L 210.617644 263.45429 
L 210.922313 262.600889 
L 211.226981 263.111992 
L 211.531649 263.337065 
L 212.140986 263.259696 
L 212.445654 263.611372 
L 212.750322 262.990078 
L 213.054991 263.072135 
L 213.359659 262.800173 
L 213.664327 263.034623 
L 214.273664 263.107303 
L 214.578332 262.760316 
L 215.187669 262.542277 
L 215.492337 262.774383 
L 215.797006 263.149504 
L 216.101674 262.624335 
L 216.71101 262.474286 
L 217.015679 262.802517 
L 217.320347 262.725148 
L 217.625015 262.298448 
L 217.929684 262.478975 
L 218.234352 262.516487 
L 218.53902 262.293759 
L 218.843689 262.612612 
L 219.148357 262.389884 
L 219.453025 262.62199 
L 219.757693 262.54931 
L 220.062362 262.07572 
L 220.36703 262.389884 
L 220.671698 262.493042 
L 220.976367 262.190601 
L 221.585703 262.364094 
L 221.890372 262.249213 
L 222.499708 262.279692 
L 222.804377 262.115576 
L 223.109045 262.553999 
L 223.413713 262.654813 
L 223.718381 262.010074 
L 224.327718 262.272658 
L 224.632386 262.033519 
L 224.937055 261.993662 
L 225.241723 262.258591 
L 225.546391 262.099165 
L 225.85106 262.160122 
L 226.155728 261.972561 
L 226.460396 262.633713 
L 226.765064 262.324238 
L 227.069733 262.192945 
L 227.374401 261.845958 
L 227.679069 262.202323 
L 227.983738 262.019452 
L 228.288406 262.059308 
L 228.593074 261.974906 
L 228.897743 261.735766 
L 229.202411 262.493042 
L 229.507079 262.092131 
L 229.811748 262.07572 
L 230.116416 28.682342 
L 230.421084 261.489593 
L 230.725752 261.515382 
L 231.030421 261.787345 
L 231.335089 262.624335 
L 231.639757 262.415673 
L 231.944426 261.639641 
L 232.249094 261.960839 
L 232.553762 262.000696 
L 232.858431 262.598545 
L 233.163099 261.705288 
L 233.467767 261.491937 
L 233.772436 262.249213 
L 234.077104 262.188256 
L 234.381772 261.721699 
L 234.68644 262.113232 
L 234.991109 262.035863 
L 235.295777 262.354716 
L 235.600445 262.214046 
L 235.905114 262.230457 
L 236.209782 262.48132 
L 236.51445 261.857681 
L 236.819119 262.21639 
L 237.428455 262.368783 
L 237.733123 262.769694 
L 238.037792 262.237491 
L 238.34246 262.12261 
L 238.951797 262.467253 
L 239.256465 261.876437 
L 239.561133 262.117921 
L 240.17047 261.996007 
L 240.475138 262.542277 
L 240.779807 262.389884 
L 241.084475 262.614957 
L 241.693811 261.923327 
L 241.99848 262.462564 
L 242.303148 262.300793 
L 242.912485 262.997111 
L 243.217153 262.629024 
L 243.521821 263.172949 
L 244.131158 263.0018 
L 244.435826 263.203428 
L 244.740494 262.495387 
L 245.045163 263.119026 
L 245.349831 263.004145 
L 245.959168 263.097925 
L 246.263836 262.511798 
L 246.568504 263.24094 
L 246.873173 263.616061 
L 247.177841 263.271419 
L 247.482509 263.264385 
L 247.787178 263.531659 
L 248.091846 262.905675 
L 248.396514 263.503525 
L 248.701182 263.28783 
L 249.005851 263.212806 
L 249.615187 263.428501 
L 249.919856 263.604339 
L 250.529192 263.38161 
L 251.138529 263.95367 
L 251.443197 262.797828 
L 251.747865 263.601994 
L 252.052534 263.911469 
L 252.66187 263.677018 
L 252.966539 264.19281 
L 253.271207 263.449601 
L 253.575875 263.564482 
L 253.880544 264.164676 
L 254.185212 263.810655 
L 254.48988 264.326447 
L 255.099217 263.660607 
L 255.403885 263.611372 
L 255.708553 264.307691 
L 256.013222 264.267834 
L 256.31789 264.014627 
L 256.622558 264.673434 
L 257.231895 264.227978 
L 257.536563 264.460084 
L 257.841232 264.211566 
L 258.1459 264.823483 
L 258.450568 264.366304 
L 258.755236 264.699224 
L 259.669241 264.471806 
L 259.97391 264.769559 
L 260.583246 265.015732 
L 260.887915 265.941813 
L 261.192583 266.255977 
L 261.497251 266.068416 
L 262.106588 266.757701 
L 262.411256 266.971051 
L 262.715924 266.42947 
L 263.020593 266.434159 
L 263.325261 266.914783 
L 263.629929 267.1211 
L 263.934598 266.837415 
L 264.239266 266.818658 
L 264.848603 267.540767 
L 265.153271 266.567796 
L 265.762607 267.233636 
L 266.067276 267.395407 
L 266.371944 267.071865 
L 266.676612 267.137511 
L 267.285949 267.650959 
L 267.895286 267.578279 
L 268.199954 267.890098 
L 268.504622 267.47981 
L 269.113959 268.021391 
L 269.418627 267.697849 
L 269.723295 268.155028 
L 270.941969 267.625169 
L 271.246637 268.115171 
L 271.855974 268.577039 
L 272.46531 268.462158 
L 272.769979 268.337899 
L 273.683983 268.996706 
L 273.988652 268.846657 
L 274.29332 268.506704 
L 274.597988 269.16551 
L 274.902657 268.820868 
L 275.207325 268.792734 
L 275.511993 269.038907 
L 275.816662 269.142065 
L 276.12133 269.029529 
L 276.425998 269.273358 
L 276.730666 269.160821 
L 277.035335 269.866518 
L 277.340003 269.104553 
L 277.644671 269.676613 
L 278.558676 269.545321 
L 278.863345 269.362449 
L 279.168013 269.97671 
L 279.472681 270.16896 
L 279.77735 269.962643 
L 280.082018 270.185371 
L 280.386686 270.171304 
L 280.691354 270.361209 
L 280.996023 269.758671 
L 281.300691 270.401066 
L 281.605359 270.752742 
L 281.910028 270.780876 
L 282.519364 270.680062 
L 282.824033 270.386999 
L 283.128701 270.837144 
L 283.433369 270.56987 
L 283.738037 271.42796 
L 284.042706 271.2404 
L 284.347374 270.68944 
L 284.652042 270.445612 
L 284.956711 271.42796 
L 285.261379 271.226333 
L 285.566047 271.606143 
L 285.870716 271.247433 
L 286.175384 271.599109 
L 286.480052 271.331835 
L 286.784721 271.889828 
L 287.089389 271.950785 
L 287.394057 271.683512 
L 287.698725 271.765569 
L 288.308062 272.21337 
L 288.61273 272.082078 
L 288.917399 272.304806 
L 289.222067 272.225093 
L 289.526735 272.372797 
L 289.831404 272.752607 
L 290.136072 271.88045 
L 290.44074 272.450166 
L 290.745408 272.187581 
L 291.050077 272.344663 
L 291.354745 273.083183 
L 292.26875 272.87921 
L 292.573418 273.327011 
L 292.878087 272.897966 
L 293.182755 273.380935 
L 293.487423 273.315289 
L 293.792092 273.725578 
L 294.09676 273.228542 
L 294.401428 273.512227 
L 294.706096 273.205097 
L 295.010765 273.849836 
L 295.620101 273.960028 
L 295.92477 274.126488 
L 296.229438 273.877971 
L 296.534106 273.781846 
L 296.838775 273.999885 
L 297.143443 274.077254 
L 297.448111 274.47582 
L 297.752779 273.868593 
L 298.057448 274.42893 
L 298.362116 274.307015 
L 298.666784 274.337494 
L 298.971453 274.729027 
L 299.276121 274.83453 
L 299.580789 274.539122 
L 300.190126 274.588356 
L 300.494794 274.73606 
L 300.799463 274.658692 
L 301.104131 275.029124 
L 301.713467 275.434724 
L 302.018136 275.158072 
L 302.322804 275.519126 
L 302.627472 275.050224 
L 302.932141 275.350321 
L 303.541477 275.404245 
L 303.846146 275.718409 
L 304.455482 275.690275 
L 304.76015 276.011472 
L 305.064819 276.154487 
L 305.369487 275.877835 
L 305.674155 276.135731 
L 306.58816 276.335014 
L 306.892829 276.630422 
L 307.197497 276.116975 
L 307.502165 276.890663 
L 307.806834 276.616355 
L 308.111502 276.724203 
L 308.41617 276.578843 
L 308.720838 276.907074 
L 309.025507 276.590566 
L 309.634843 277.043056 
L 309.939512 277.493201 
L 310.24418 277.371287 
L 310.548848 277.019611 
L 310.853517 277.375976 
L 311.158185 277.420521 
L 311.462853 277.146214 
L 312.07219 277.563536 
L 312.376858 277.608082 
L 312.986195 277.863633 
L 313.290863 277.76282 
L 313.595531 277.828466 
L 313.9002 277.601048 
L 314.204868 277.861289 
L 315.118873 277.985548 
L 315.423541 278.334879 
L 315.728209 278.482583 
L 316.337546 278.273922 
L 316.642214 278.78268 
L 317.251551 278.611531 
L 318.165556 278.787369 
L 318.774893 278.71469 
L 319.079561 278.956174 
L 319.384229 279.042921 
L 319.688897 279.331295 
L 319.993566 279.031198 
L 320.298234 278.97493 
L 320.907571 279.631392 
L 321.212239 279.624358 
L 321.516907 279.450865 
L 321.821576 279.851776 
L 322.126244 279.779096 
L 322.430912 280.027614 
L 322.73558 279.633736 
L 323.040249 280.083882 
L 324.258922 280.191729 
L 324.56359 280.137806 
L 324.868259 280.412113 
L 325.172927 280.430869 
L 325.782264 280.796612 
L 326.086932 280.491826 
L 326.3916 280.54575 
L 326.696268 280.738 
L 327.000937 280.587951 
L 327.610273 280.801301 
L 327.914942 280.723932 
L 328.21961 281.059197 
L 328.524278 281.218624 
L 328.828947 281.11781 
L 329.133615 281.680492 
L 329.438283 281.725037 
L 329.742951 281.228002 
L 330.04762 281.732071 
L 330.352288 281.802406 
L 330.656956 281.610156 
L 330.961625 281.858674 
L 331.266293 281.762549 
L 331.87563 281.90322 
L 332.180298 281.882119 
L 332.789635 282.470591 
L 333.398971 282.472935 
L 333.703639 282.217384 
L 334.008308 282.395566 
L 334.312976 282.707386 
L 334.617644 282.698008 
L 334.922313 282.571404 
L 335.226981 282.798822 
L 335.531649 282.517481 
L 335.836318 282.784755 
L 336.140986 283.218488 
L 336.445654 283.098919 
L 336.750322 283.286479 
L 337.359659 283.326336 
L 337.664327 283.309924 
L 337.968996 283.727247 
L 338.578332 283.272412 
L 338.883001 283.539686 
L 339.187669 283.459973 
L 339.797006 284.029688 
L 340.406342 283.52093 
L 341.015679 284.137535 
L 341.625015 284.107057 
L 341.929684 284.224282 
L 342.234352 284.597059 
L 342.53902 284.182081 
L 342.843689 284.493901 
L 343.148357 284.63926 
L 343.453025 284.414187 
L 343.757693 284.838543 
L 344.062362 284.845577 
L 344.36703 284.599403 
L 344.671698 284.843232 
L 344.976367 284.784619 
L 345.281035 285.070649 
L 345.585703 285.183186 
L 345.890372 285.11754 
L 346.19504 285.262899 
L 346.499708 285.66381 
L 346.804377 285.333234 
L 348.02305 285.602853 
L 348.327718 285.384813 
L 348.632386 285.734145 
L 349.241723 285.999074 
L 349.85106 285.652087 
L 350.155728 286.146778 
L 350.460396 286.374196 
L 350.765064 286.207736 
L 351.069733 286.315583 
L 351.374401 286.573479 
L 351.679069 286.418741 
L 352.288406 286.524244 
L 352.593074 286.840753 
L 353.202411 286.819652 
L 353.507079 287.098648 
L 353.811748 286.82903 
L 354.116416 287.000179 
L 354.421084 287.30731 
L 354.725752 287.213529 
L 355.030421 287.455014 
L 355.335089 287.265108 
L 356.553762 287.703531 
L 357.467767 288.069274 
L 357.772436 287.811379 
L 358.077104 288.010662 
L 358.381772 288.423295 
L 358.68644 288.268558 
L 359.295777 288.355304 
L 359.600445 288.533487 
L 359.905114 288.575688 
L 360.209782 288.439707 
L 360.51445 288.542865 
L 360.819119 288.807794 
L 361.123787 288.913297 
L 361.428455 288.817172 
L 362.037792 288.920331 
L 362.34246 289.171193 
L 362.647128 288.89923 
L 362.951797 288.932053 
L 363.561133 289.302485 
L 364.17047 289.370476 
L 364.475138 289.201672 
L 364.779807 289.595549 
L 365.084475 289.443156 
L 365.389143 289.832344 
L 365.693811 289.529903 
L 365.99848 289.855789 
L 366.607816 290.029283 
L 367.217153 290.052728 
L 367.521821 290.155886 
L 367.82649 289.914402 
L 368.131158 290.458328 
L 368.435826 290.200432 
L 368.740494 290.338758 
L 369.045163 290.233255 
L 369.349831 290.465361 
L 369.959168 290.519285 
L 370.568504 290.793592 
L 370.873173 290.732635 
L 372.701182 291.290628 
L 373.005851 291.206226 
L 373.310519 291.527423 
L 373.615187 291.206226 
L 374.529192 291.367997 
L 374.833861 291.625892 
L 375.138529 291.576658 
L 375.443197 291.679816 
L 375.747865 291.562591 
L 376.052534 291.736084 
L 376.966539 291.822831 
L 377.880544 292.216708 
L 378.48988 292.115894 
L 379.099217 292.275321 
L 379.403885 292.308144 
L 379.708553 292.559006 
L 380.013222 292.265943 
L 380.31789 292.486327 
L 381.841232 292.608241 
L 382.1459 292.509772 
L 382.450568 292.697332 
L 382.450568 292.697332 
" style="fill:none;stroke:#808080;stroke-linecap:square;stroke-width:1.5;"/>
   </g>
   <g id="patch_3">
    <path d="M 62.86875 299.518125 
L 62.86875 22.318125 
" style="fill:none;stroke:#000000;stroke-linecap:square;stroke-linejoin:miter;stroke-width:0.8;"/>
   </g>
   <g id="patch_4">
    <path d="M 397.66875 299.518125 
L 397.66875 22.318125 
" style="fill:none;stroke:#000000;stroke-linecap:square;stroke-linejoin:miter;stroke-width:0.8;"/>
   </g>
   <g id="patch_5">
    <path d="M 62.86875 299.518125 
L 397.66875 299.518125 
" style="fill:none;stroke:#000000;stroke-linecap:square;stroke-linejoin:miter;stroke-width:0.8;"/>
   </g>
   <g id="patch_6">
    <path d="M 62.86875 22.318125 
L 397.66875 22.318125 
" style="fill:none;stroke:#000000;stroke-linecap:square;stroke-linejoin:miter;stroke-width:0.8;"/>
   </g>
   <g id="text_12">
    <!-- Monto Carlo simulation -->
    <defs>
     <path d="M 9.8125 72.90625 
L 24.515625 72.90625 
L 43.109375 23.296875 
L 61.8125 72.90625 
L 76.515625 72.90625 
L 76.515625 0 
L 66.890625 0 
L 66.890625 64.015625 
L 48.09375 14.015625 
L 38.1875 14.015625 
L 19.390625 64.015625 
L 19.390625 0 
L 9.8125 0 
z
" id="DejaVuSans-77"/>
     <path d="M 64.40625 67.28125 
L 64.40625 56.890625 
Q 59.421875 61.53125 53.78125 63.8125 
Q 48.140625 66.109375 41.796875 66.109375 
Q 29.296875 66.109375 22.65625 58.46875 
Q 16.015625 50.828125 16.015625 36.375 
Q 16.015625 21.96875 22.65625 14.328125 
Q 29.296875 6.6875 41.796875 6.6875 
Q 48.140625 6.6875 53.78125 8.984375 
Q 59.421875 11.28125 64.40625 15.921875 
L 64.40625 5.609375 
Q 59.234375 2.09375 53.4375 0.328125 
Q 47.65625 -1.421875 41.21875 -1.421875 
Q 24.65625 -1.421875 15.125 8.703125 
Q 5.609375 18.84375 5.609375 36.375 
Q 5.609375 53.953125 15.125 64.078125 
Q 24.65625 74.21875 41.21875 74.21875 
Q 47.75 74.21875 53.53125 72.484375 
Q 59.328125 70.75 64.40625 67.28125 
z
" id="DejaVuSans-67"/>
     <path d="M 9.421875 75.984375 
L 18.40625 75.984375 
L 18.40625 0 
L 9.421875 0 
z
" id="DejaVuSans-108"/>
     <path d="M 52 44.1875 
Q 55.375 50.25 60.0625 53.125 
Q 64.75 56 71.09375 56 
Q 79.640625 56 84.28125 50.015625 
Q 88.921875 44.046875 88.921875 33.015625 
L 88.921875 0 
L 79.890625 0 
L 79.890625 32.71875 
Q 79.890625 40.578125 77.09375 44.375 
Q 74.3125 48.1875 68.609375 48.1875 
Q 61.625 48.1875 57.5625 43.546875 
Q 53.515625 38.921875 53.515625 30.90625 
L 53.515625 0 
L 44.484375 0 
L 44.484375 32.71875 
Q 44.484375 40.625 41.703125 44.40625 
Q 38.921875 48.1875 33.109375 48.1875 
Q 26.21875 48.1875 22.15625 43.53125 
Q 18.109375 38.875 18.109375 30.90625 
L 18.109375 0 
L 9.078125 0 
L 9.078125 54.6875 
L 18.109375 54.6875 
L 18.109375 46.1875 
Q 21.1875 51.21875 25.484375 53.609375 
Q 29.78125 56 35.6875 56 
Q 41.65625 56 45.828125 52.96875 
Q 50 49.953125 52 44.1875 
z
" id="DejaVuSans-109"/>
    </defs>
    <g transform="translate(160.83375 16.318125)scale(0.12 -0.12)">
     <use xlink:href="#DejaVuSans-77"/>
     <use x="86.279297" xlink:href="#DejaVuSans-111"/>
     <use x="147.460938" xlink:href="#DejaVuSans-110"/>
     <use x="210.839844" xlink:href="#DejaVuSans-116"/>
     <use x="250.048828" xlink:href="#DejaVuSans-111"/>
     <use x="311.230469" xlink:href="#DejaVuSans-32"/>
     <use x="343.017578" xlink:href="#DejaVuSans-67"/>
     <use x="412.841797" xlink:href="#DejaVuSans-97"/>
     <use x="474.121094" xlink:href="#DejaVuSans-114"/>
     <use x="515.234375" xlink:href="#DejaVuSans-108"/>
     <use x="543.017578" xlink:href="#DejaVuSans-111"/>
     <use x="604.199219" xlink:href="#DejaVuSans-32"/>
     <use x="635.986328" xlink:href="#DejaVuSans-115"/>
     <use x="688.085938" xlink:href="#DejaVuSans-105"/>
     <use x="715.869141" xlink:href="#DejaVuSans-109"/>
     <use x="813.28125" xlink:href="#DejaVuSans-117"/>
     <use x="876.660156" xlink:href="#DejaVuSans-108"/>
     <use x="904.443359" xlink:href="#DejaVuSans-97"/>
     <use x="965.722656" xlink:href="#DejaVuSans-116"/>
     <use x="1004.931641" xlink:href="#DejaVuSans-105"/>
     <use x="1032.714844" xlink:href="#DejaVuSans-111"/>
     <use x="1093.896484" xlink:href="#DejaVuSans-110"/>
    </g>
   </g>
   <g id="legend_1">
    <g id="patch_7">
     <path d="M 265.696875 44.99625 
L 390.66875 44.99625 
Q 392.66875 44.99625 392.66875 42.99625 
L 392.66875 29.318125 
Q 392.66875 27.318125 390.66875 27.318125 
L 265.696875 27.318125 
Q 263.696875 27.318125 263.696875 29.318125 
L 263.696875 42.99625 
Q 263.696875 44.99625 265.696875 44.99625 
z
" style="fill:#ffffff;opacity:0.8;stroke:#cccccc;stroke-linejoin:miter;"/>
    </g>
    <g id="line2d_11">
     <path d="M 267.696875 35.416563 
L 287.696875 35.416563 
" style="fill:none;stroke:#808080;stroke-linecap:square;stroke-width:1.5;"/>
    </g>
    <g id="line2d_12"/>
    <g id="text_13">
     <!-- State distribnution -->
     <g transform="translate(295.696875 38.916563)scale(0.1 -0.1)">
      <use xlink:href="#DejaVuSans-83"/>
      <use x="63.476562" xlink:href="#DejaVuSans-116"/>
      <use x="102.685547" xlink:href="#DejaVuSans-97"/>
      <use x="163.964844" xlink:href="#DejaVuSans-116"/>
      <use x="203.173828" xlink:href="#DejaVuSans-101"/>
      <use x="264.697266" xlink:href="#DejaVuSans-32"/>
      <use x="296.484375" xlink:href="#DejaVuSans-100"/>
      <use x="359.960938" xlink:href="#DejaVuSans-105"/>
      <use x="387.744141" xlink:href="#DejaVuSans-115"/>
      <use x="439.84375" xlink:href="#DejaVuSans-116"/>
      <use x="479.052734" xlink:href="#DejaVuSans-114"/>
      <use x="520.166016" xlink:href="#DejaVuSans-105"/>
      <use x="547.949219" xlink:href="#DejaVuSans-98"/>
      <use x="611.425781" xlink:href="#DejaVuSans-110"/>
      <use x="674.804688" xlink:href="#DejaVuSans-117"/>
      <use x="738.183594" xlink:href="#DejaVuSans-116"/>
      <use x="777.392578" xlink:href="#DejaVuSans-105"/>
      <use x="805.175781" xlink:href="#DejaVuSans-111"/>
      <use x="866.357422" xlink:href="#DejaVuSans-110"/>
     </g>
    </g>
   </g>
  </g>
 </g>
 <defs>
  <clipPath id="p5172c1fcff">
   <rect height="277.2" width="334.8" x="62.86875" y="22.318125"/>
  </clipPath>
 </defs>
</svg>
