<?xml version="1.0" encoding="utf-8" standalone="no"?>
<!DOCTYPE svg PUBLIC "-//W3C//DTD SVG 1.1//EN"
  "http://www.w3.org/Graphics/SVG/1.1/DTD/svg11.dtd">
<!-- Created with matplotlib (https://matplotlib.org/) -->
<svg height="314.667469pt" version="1.1" viewBox="0 0 417.648125 314.667469" width="417.648125pt" xmlns="http://www.w3.org/2000/svg" xmlns:xlink="http://www.w3.org/1999/xlink">
 <defs>
  <style type="text/css">
*{stroke-linecap:butt;stroke-linejoin:round;}
  </style>
 </defs>
 <g id="figure_1">
  <g id="patch_1">
   <path d="M 0 314.667469 
L 417.648125 314.667469 
L 417.648125 0 
L 0 0 
z
" style="fill:#ffffff;"/>
  </g>
  <g id="axes_1">
   <g id="patch_2">
    <path d="M 53.328125 277.111219 
L 410.448125 277.111219 
L 410.448125 10.999219 
L 53.328125 10.999219 
z
" style="fill:#ffffff;"/>
   </g>
   <g id="matplotlib.axis_1">
    <g id="xtick_1">
     <g id="line2d_1">
      <defs>
       <path d="M 0 0 
L 0 3.5 
" id="m9f9f7cc97b" style="stroke:#000000;stroke-width:0.8;"/>
      </defs>
      <g>
       <use style="stroke:#000000;stroke-width:0.8;" x="69.560852" xlink:href="#m9f9f7cc97b" y="277.111219"/>
      </g>
     </g>
     <g id="text_1">
      <!-- 0 -->
      <defs>
       <path d="M 31.78125 66.40625 
Q 24.171875 66.40625 20.328125 58.90625 
Q 16.5 51.421875 16.5 36.375 
Q 16.5 21.390625 20.328125 13.890625 
Q 24.171875 6.390625 31.78125 6.390625 
Q 39.453125 6.390625 43.28125 13.890625 
Q 47.125 21.390625 47.125 36.375 
Q 47.125 51.421875 43.28125 58.90625 
Q 39.453125 66.40625 31.78125 66.40625 
z
M 31.78125 74.21875 
Q 44.046875 74.21875 50.515625 64.515625 
Q 56.984375 54.828125 56.984375 36.375 
Q 56.984375 17.96875 50.515625 8.265625 
Q 44.046875 -1.421875 31.78125 -1.421875 
Q 19.53125 -1.421875 13.0625 8.265625 
Q 6.59375 17.96875 6.59375 36.375 
Q 6.59375 54.828125 13.0625 64.515625 
Q 19.53125 74.21875 31.78125 74.21875 
z
" id="DejaVuSans-48"/>
      </defs>
      <g transform="translate(66.379602 291.709656)scale(0.1 -0.1)">
       <use xlink:href="#DejaVuSans-48"/>
      </g>
     </g>
    </g>
    <g id="xtick_2">
     <g id="line2d_2">
      <g>
       <use style="stroke:#000000;stroke-width:0.8;" x="134.621883" xlink:href="#m9f9f7cc97b" y="277.111219"/>
      </g>
     </g>
     <g id="text_2">
      <!-- 100 -->
      <defs>
       <path d="M 12.40625 8.296875 
L 28.515625 8.296875 
L 28.515625 63.921875 
L 10.984375 60.40625 
L 10.984375 69.390625 
L 28.421875 72.90625 
L 38.28125 72.90625 
L 38.28125 8.296875 
L 54.390625 8.296875 
L 54.390625 0 
L 12.40625 0 
z
" id="DejaVuSans-49"/>
      </defs>
      <g transform="translate(125.078133 291.709656)scale(0.1 -0.1)">
       <use xlink:href="#DejaVuSans-49"/>
       <use x="63.623047" xlink:href="#DejaVuSans-48"/>
       <use x="127.246094" xlink:href="#DejaVuSans-48"/>
      </g>
     </g>
    </g>
    <g id="xtick_3">
     <g id="line2d_3">
      <g>
       <use style="stroke:#000000;stroke-width:0.8;" x="199.682915" xlink:href="#m9f9f7cc97b" y="277.111219"/>
      </g>
     </g>
     <g id="text_3">
      <!-- 200 -->
      <defs>
       <path d="M 19.1875 8.296875 
L 53.609375 8.296875 
L 53.609375 0 
L 7.328125 0 
L 7.328125 8.296875 
Q 12.9375 14.109375 22.625 23.890625 
Q 32.328125 33.6875 34.8125 36.53125 
Q 39.546875 41.84375 41.421875 45.53125 
Q 43.3125 49.21875 43.3125 52.78125 
Q 43.3125 58.59375 39.234375 62.25 
Q 35.15625 65.921875 28.609375 65.921875 
Q 23.96875 65.921875 18.8125 64.3125 
Q 13.671875 62.703125 7.8125 59.421875 
L 7.8125 69.390625 
Q 13.765625 71.78125 18.9375 73 
Q 24.125 74.21875 28.421875 74.21875 
Q 39.75 74.21875 46.484375 68.546875 
Q 53.21875 62.890625 53.21875 53.421875 
Q 53.21875 48.921875 51.53125 44.890625 
Q 49.859375 40.875 45.40625 35.40625 
Q 44.1875 33.984375 37.640625 27.21875 
Q 31.109375 20.453125 19.1875 8.296875 
z
" id="DejaVuSans-50"/>
      </defs>
      <g transform="translate(190.139165 291.709656)scale(0.1 -0.1)">
       <use xlink:href="#DejaVuSans-50"/>
       <use x="63.623047" xlink:href="#DejaVuSans-48"/>
       <use x="127.246094" xlink:href="#DejaVuSans-48"/>
      </g>
     </g>
    </g>
    <g id="xtick_4">
     <g id="line2d_4">
      <g>
       <use style="stroke:#000000;stroke-width:0.8;" x="264.743946" xlink:href="#m9f9f7cc97b" y="277.111219"/>
      </g>
     </g>
     <g id="text_4">
      <!-- 300 -->
      <defs>
       <path d="M 40.578125 39.3125 
Q 47.65625 37.796875 51.625 33 
Q 55.609375 28.21875 55.609375 21.1875 
Q 55.609375 10.40625 48.1875 4.484375 
Q 40.765625 -1.421875 27.09375 -1.421875 
Q 22.515625 -1.421875 17.65625 -0.515625 
Q 12.796875 0.390625 7.625 2.203125 
L 7.625 11.71875 
Q 11.71875 9.328125 16.59375 8.109375 
Q 21.484375 6.890625 26.8125 6.890625 
Q 36.078125 6.890625 40.9375 10.546875 
Q 45.796875 14.203125 45.796875 21.1875 
Q 45.796875 27.640625 41.28125 31.265625 
Q 36.765625 34.90625 28.71875 34.90625 
L 20.21875 34.90625 
L 20.21875 43.015625 
L 29.109375 43.015625 
Q 36.375 43.015625 40.234375 45.921875 
Q 44.09375 48.828125 44.09375 54.296875 
Q 44.09375 59.90625 40.109375 62.90625 
Q 36.140625 65.921875 28.71875 65.921875 
Q 24.65625 65.921875 20.015625 65.03125 
Q 15.375 64.15625 9.8125 62.3125 
L 9.8125 71.09375 
Q 15.4375 72.65625 20.34375 73.4375 
Q 25.25 74.21875 29.59375 74.21875 
Q 40.828125 74.21875 47.359375 69.109375 
Q 53.90625 64.015625 53.90625 55.328125 
Q 53.90625 49.265625 50.4375 45.09375 
Q 46.96875 40.921875 40.578125 39.3125 
z
" id="DejaVuSans-51"/>
      </defs>
      <g transform="translate(255.200196 291.709656)scale(0.1 -0.1)">
       <use xlink:href="#DejaVuSans-51"/>
       <use x="63.623047" xlink:href="#DejaVuSans-48"/>
       <use x="127.246094" xlink:href="#DejaVuSans-48"/>
      </g>
     </g>
    </g>
    <g id="xtick_5">
     <g id="line2d_5">
      <g>
       <use style="stroke:#000000;stroke-width:0.8;" x="329.804977" xlink:href="#m9f9f7cc97b" y="277.111219"/>
      </g>
     </g>
     <g id="text_5">
      <!-- 400 -->
      <defs>
       <path d="M 37.796875 64.3125 
L 12.890625 25.390625 
L 37.796875 25.390625 
z
M 35.203125 72.90625 
L 47.609375 72.90625 
L 47.609375 25.390625 
L 58.015625 25.390625 
L 58.015625 17.1875 
L 47.609375 17.1875 
L 47.609375 0 
L 37.796875 0 
L 37.796875 17.1875 
L 4.890625 17.1875 
L 4.890625 26.703125 
z
" id="DejaVuSans-52"/>
      </defs>
      <g transform="translate(320.261227 291.709656)scale(0.1 -0.1)">
       <use xlink:href="#DejaVuSans-52"/>
       <use x="63.623047" xlink:href="#DejaVuSans-48"/>
       <use x="127.246094" xlink:href="#DejaVuSans-48"/>
      </g>
     </g>
    </g>
    <g id="xtick_6">
     <g id="line2d_6">
      <g>
       <use style="stroke:#000000;stroke-width:0.8;" x="394.866008" xlink:href="#m9f9f7cc97b" y="277.111219"/>
      </g>
     </g>
     <g id="text_6">
      <!-- 500 -->
      <defs>
       <path d="M 10.796875 72.90625 
L 49.515625 72.90625 
L 49.515625 64.59375 
L 19.828125 64.59375 
L 19.828125 46.734375 
Q 21.96875 47.46875 24.109375 47.828125 
Q 26.265625 48.1875 28.421875 48.1875 
Q 40.625 48.1875 47.75 41.5 
Q 54.890625 34.8125 54.890625 23.390625 
Q 54.890625 11.625 47.5625 5.09375 
Q 40.234375 -1.421875 26.90625 -1.421875 
Q 22.3125 -1.421875 17.546875 -0.640625 
Q 12.796875 0.140625 7.71875 1.703125 
L 7.71875 11.625 
Q 12.109375 9.234375 16.796875 8.0625 
Q 21.484375 6.890625 26.703125 6.890625 
Q 35.15625 6.890625 40.078125 11.328125 
Q 45.015625 15.765625 45.015625 23.390625 
Q 45.015625 31 40.078125 35.4375 
Q 35.15625 39.890625 26.703125 39.890625 
Q 22.75 39.890625 18.8125 39.015625 
Q 14.890625 38.140625 10.796875 36.28125 
z
" id="DejaVuSans-53"/>
      </defs>
      <g transform="translate(385.322258 291.709656)scale(0.1 -0.1)">
       <use xlink:href="#DejaVuSans-53"/>
       <use x="63.623047" xlink:href="#DejaVuSans-48"/>
       <use x="127.246094" xlink:href="#DejaVuSans-48"/>
      </g>
     </g>
    </g>
    <g id="text_7">
     <!-- Episode -->
     <defs>
      <path d="M 9.8125 72.90625 
L 55.90625 72.90625 
L 55.90625 64.59375 
L 19.671875 64.59375 
L 19.671875 43.015625 
L 54.390625 43.015625 
L 54.390625 34.71875 
L 19.671875 34.71875 
L 19.671875 8.296875 
L 56.78125 8.296875 
L 56.78125 0 
L 9.8125 0 
z
" id="DejaVuSans-69"/>
      <path d="M 18.109375 8.203125 
L 18.109375 -20.796875 
L 9.078125 -20.796875 
L 9.078125 54.6875 
L 18.109375 54.6875 
L 18.109375 46.390625 
Q 20.953125 51.265625 25.265625 53.625 
Q 29.59375 56 35.59375 56 
Q 45.5625 56 51.78125 48.09375 
Q 58.015625 40.1875 58.015625 27.296875 
Q 58.015625 14.40625 51.78125 6.484375 
Q 45.5625 -1.421875 35.59375 -1.421875 
Q 29.59375 -1.421875 25.265625 0.953125 
Q 20.953125 3.328125 18.109375 8.203125 
z
M 48.6875 27.296875 
Q 48.6875 37.203125 44.609375 42.84375 
Q 40.53125 48.484375 33.40625 48.484375 
Q 26.265625 48.484375 22.1875 42.84375 
Q 18.109375 37.203125 18.109375 27.296875 
Q 18.109375 17.390625 22.1875 11.75 
Q 26.265625 6.109375 33.40625 6.109375 
Q 40.53125 6.109375 44.609375 11.75 
Q 48.6875 17.390625 48.6875 27.296875 
z
" id="DejaVuSans-112"/>
      <path d="M 9.421875 54.6875 
L 18.40625 54.6875 
L 18.40625 0 
L 9.421875 0 
z
M 9.421875 75.984375 
L 18.40625 75.984375 
L 18.40625 64.59375 
L 9.421875 64.59375 
z
" id="DejaVuSans-105"/>
      <path d="M 44.28125 53.078125 
L 44.28125 44.578125 
Q 40.484375 46.53125 36.375 47.5 
Q 32.28125 48.484375 27.875 48.484375 
Q 21.1875 48.484375 17.84375 46.4375 
Q 14.5 44.390625 14.5 40.28125 
Q 14.5 37.15625 16.890625 35.375 
Q 19.28125 33.59375 26.515625 31.984375 
L 29.59375 31.296875 
Q 39.15625 29.25 43.1875 25.515625 
Q 47.21875 21.78125 47.21875 15.09375 
Q 47.21875 7.46875 41.1875 3.015625 
Q 35.15625 -1.421875 24.609375 -1.421875 
Q 20.21875 -1.421875 15.453125 -0.5625 
Q 10.6875 0.296875 5.421875 2 
L 5.421875 11.28125 
Q 10.40625 8.6875 15.234375 7.390625 
Q 20.0625 6.109375 24.8125 6.109375 
Q 31.15625 6.109375 34.5625 8.28125 
Q 37.984375 10.453125 37.984375 14.40625 
Q 37.984375 18.0625 35.515625 20.015625 
Q 33.0625 21.96875 24.703125 23.78125 
L 21.578125 24.515625 
Q 13.234375 26.265625 9.515625 29.90625 
Q 5.8125 33.546875 5.8125 39.890625 
Q 5.8125 47.609375 11.28125 51.796875 
Q 16.75 56 26.8125 56 
Q 31.78125 56 36.171875 55.265625 
Q 40.578125 54.546875 44.28125 53.078125 
z
" id="DejaVuSans-115"/>
      <path d="M 30.609375 48.390625 
Q 23.390625 48.390625 19.1875 42.75 
Q 14.984375 37.109375 14.984375 27.296875 
Q 14.984375 17.484375 19.15625 11.84375 
Q 23.34375 6.203125 30.609375 6.203125 
Q 37.796875 6.203125 41.984375 11.859375 
Q 46.1875 17.53125 46.1875 27.296875 
Q 46.1875 37.015625 41.984375 42.703125 
Q 37.796875 48.390625 30.609375 48.390625 
z
M 30.609375 56 
Q 42.328125 56 49.015625 48.375 
Q 55.71875 40.765625 55.71875 27.296875 
Q 55.71875 13.875 49.015625 6.21875 
Q 42.328125 -1.421875 30.609375 -1.421875 
Q 18.84375 -1.421875 12.171875 6.21875 
Q 5.515625 13.875 5.515625 27.296875 
Q 5.515625 40.765625 12.171875 48.375 
Q 18.84375 56 30.609375 56 
z
" id="DejaVuSans-111"/>
      <path d="M 45.40625 46.390625 
L 45.40625 75.984375 
L 54.390625 75.984375 
L 54.390625 0 
L 45.40625 0 
L 45.40625 8.203125 
Q 42.578125 3.328125 38.25 0.953125 
Q 33.9375 -1.421875 27.875 -1.421875 
Q 17.96875 -1.421875 11.734375 6.484375 
Q 5.515625 14.40625 5.515625 27.296875 
Q 5.515625 40.1875 11.734375 48.09375 
Q 17.96875 56 27.875 56 
Q 33.9375 56 38.25 53.625 
Q 42.578125 51.265625 45.40625 46.390625 
z
M 14.796875 27.296875 
Q 14.796875 17.390625 18.875 11.75 
Q 22.953125 6.109375 30.078125 6.109375 
Q 37.203125 6.109375 41.296875 11.75 
Q 45.40625 17.390625 45.40625 27.296875 
Q 45.40625 37.203125 41.296875 42.84375 
Q 37.203125 48.484375 30.078125 48.484375 
Q 22.953125 48.484375 18.875 42.84375 
Q 14.796875 37.203125 14.796875 27.296875 
z
" id="DejaVuSans-100"/>
      <path d="M 56.203125 29.59375 
L 56.203125 25.203125 
L 14.890625 25.203125 
Q 15.484375 15.921875 20.484375 11.0625 
Q 25.484375 6.203125 34.421875 6.203125 
Q 39.59375 6.203125 44.453125 7.46875 
Q 49.3125 8.734375 54.109375 11.28125 
L 54.109375 2.78125 
Q 49.265625 0.734375 44.1875 -0.34375 
Q 39.109375 -1.421875 33.890625 -1.421875 
Q 20.796875 -1.421875 13.15625 6.1875 
Q 5.515625 13.8125 5.515625 26.8125 
Q 5.515625 40.234375 12.765625 48.109375 
Q 20.015625 56 32.328125 56 
Q 43.359375 56 49.78125 48.890625 
Q 56.203125 41.796875 56.203125 29.59375 
z
M 47.21875 32.234375 
Q 47.125 39.59375 43.09375 43.984375 
Q 39.0625 48.390625 32.421875 48.390625 
Q 24.90625 48.390625 20.390625 44.140625 
Q 15.875 39.890625 15.1875 32.171875 
z
" id="DejaVuSans-101"/>
     </defs>
     <g transform="translate(212.250625 305.387781)scale(0.1 -0.1)">
      <use xlink:href="#DejaVuSans-69"/>
      <use x="63.183594" xlink:href="#DejaVuSans-112"/>
      <use x="126.660156" xlink:href="#DejaVuSans-105"/>
      <use x="154.443359" xlink:href="#DejaVuSans-115"/>
      <use x="206.542969" xlink:href="#DejaVuSans-111"/>
      <use x="267.724609" xlink:href="#DejaVuSans-100"/>
      <use x="331.201172" xlink:href="#DejaVuSans-101"/>
     </g>
    </g>
   </g>
   <g id="matplotlib.axis_2">
    <g id="ytick_1">
     <g id="line2d_7">
      <defs>
       <path d="M 0 0 
L -3.5 0 
" id="mc7e7d96abd" style="stroke:#000000;stroke-width:0.8;"/>
      </defs>
      <g>
       <use style="stroke:#000000;stroke-width:0.8;" x="53.328125" xlink:href="#mc7e7d96abd" y="259.567035"/>
      </g>
     </g>
     <g id="text_8">
      <!-- 100 -->
      <g transform="translate(27.240625 263.366254)scale(0.1 -0.1)">
       <use xlink:href="#DejaVuSans-49"/>
       <use x="63.623047" xlink:href="#DejaVuSans-48"/>
       <use x="127.246094" xlink:href="#DejaVuSans-48"/>
      </g>
     </g>
    </g>
    <g id="ytick_2">
     <g id="line2d_8">
      <g>
       <use style="stroke:#000000;stroke-width:0.8;" x="53.328125" xlink:href="#mc7e7d96abd" y="184.740667"/>
      </g>
     </g>
     <g id="text_9">
      <!-- 200 -->
      <g transform="translate(27.240625 188.539885)scale(0.1 -0.1)">
       <use xlink:href="#DejaVuSans-50"/>
       <use x="63.623047" xlink:href="#DejaVuSans-48"/>
       <use x="127.246094" xlink:href="#DejaVuSans-48"/>
      </g>
     </g>
    </g>
    <g id="ytick_3">
     <g id="line2d_9">
      <g>
       <use style="stroke:#000000;stroke-width:0.8;" x="53.328125" xlink:href="#mc7e7d96abd" y="109.914298"/>
      </g>
     </g>
     <g id="text_10">
      <!-- 400 -->
      <g transform="translate(27.240625 113.713517)scale(0.1 -0.1)">
       <use xlink:href="#DejaVuSans-52"/>
       <use x="63.623047" xlink:href="#DejaVuSans-48"/>
       <use x="127.246094" xlink:href="#DejaVuSans-48"/>
      </g>
     </g>
    </g>
    <g id="ytick_4">
     <g id="line2d_10">
      <g>
       <use style="stroke:#000000;stroke-width:0.8;" x="53.328125" xlink:href="#mc7e7d96abd" y="10.999219"/>
      </g>
     </g>
     <g id="text_11">
      <!-- 1000 -->
      <g transform="translate(20.878125 14.798437)scale(0.1 -0.1)">
       <use xlink:href="#DejaVuSans-49"/>
       <use x="63.623047" xlink:href="#DejaVuSans-48"/>
       <use x="127.246094" xlink:href="#DejaVuSans-48"/>
       <use x="190.869141" xlink:href="#DejaVuSans-48"/>
      </g>
     </g>
    </g>
    <g id="ytick_5">
     <g id="line2d_11">
      <defs>
       <path d="M 0 0 
L -2 0 
" id="mabdd387aae" style="stroke:#000000;stroke-width:0.6;"/>
      </defs>
      <g>
       <use style="stroke:#000000;stroke-width:0.6;" x="53.328125" xlink:href="#mabdd387aae" y="270.940875"/>
      </g>
     </g>
    </g>
    <g id="ytick_6">
     <g id="line2d_12">
      <g>
       <use style="stroke:#000000;stroke-width:0.6;" x="53.328125" xlink:href="#mabdd387aae" y="140.970047"/>
      </g>
     </g>
    </g>
    <g id="ytick_7">
     <g id="line2d_13">
      <g>
       <use style="stroke:#000000;stroke-width:0.6;" x="53.328125" xlink:href="#mabdd387aae" y="85.825587"/>
      </g>
     </g>
    </g>
    <g id="ytick_8">
     <g id="line2d_14">
      <g>
       <use style="stroke:#000000;stroke-width:0.6;" x="53.328125" xlink:href="#mabdd387aae" y="66.143678"/>
      </g>
     </g>
    </g>
    <g id="ytick_9">
     <g id="line2d_15">
      <g>
       <use style="stroke:#000000;stroke-width:0.6;" x="53.328125" xlink:href="#mabdd387aae" y="49.502861"/>
      </g>
     </g>
    </g>
    <g id="ytick_10">
     <g id="line2d_16">
      <g>
       <use style="stroke:#000000;stroke-width:0.6;" x="53.328125" xlink:href="#mabdd387aae" y="35.087929"/>
      </g>
     </g>
    </g>
    <g id="ytick_11">
     <g id="line2d_17">
      <g>
       <use style="stroke:#000000;stroke-width:0.6;" x="53.328125" xlink:href="#mabdd387aae" y="22.373058"/>
      </g>
     </g>
    </g>
    <g id="text_12">
     <!-- Steps per episode averaged over 50 runs -->
     <defs>
      <path d="M 53.515625 70.515625 
L 53.515625 60.890625 
Q 47.90625 63.578125 42.921875 64.890625 
Q 37.9375 66.21875 33.296875 66.21875 
Q 25.25 66.21875 20.875 63.09375 
Q 16.5 59.96875 16.5 54.203125 
Q 16.5 49.359375 19.40625 46.890625 
Q 22.3125 44.4375 30.421875 42.921875 
L 36.375 41.703125 
Q 47.40625 39.59375 52.65625 34.296875 
Q 57.90625 29 57.90625 20.125 
Q 57.90625 9.515625 50.796875 4.046875 
Q 43.703125 -1.421875 29.984375 -1.421875 
Q 24.8125 -1.421875 18.96875 -0.25 
Q 13.140625 0.921875 6.890625 3.21875 
L 6.890625 13.375 
Q 12.890625 10.015625 18.65625 8.296875 
Q 24.421875 6.59375 29.984375 6.59375 
Q 38.421875 6.59375 43.015625 9.90625 
Q 47.609375 13.234375 47.609375 19.390625 
Q 47.609375 24.75 44.3125 27.78125 
Q 41.015625 30.8125 33.5 32.328125 
L 27.484375 33.5 
Q 16.453125 35.6875 11.515625 40.375 
Q 6.59375 45.0625 6.59375 53.421875 
Q 6.59375 63.09375 13.40625 68.65625 
Q 20.21875 74.21875 32.171875 74.21875 
Q 37.3125 74.21875 42.625 73.28125 
Q 47.953125 72.359375 53.515625 70.515625 
z
" id="DejaVuSans-83"/>
      <path d="M 18.3125 70.21875 
L 18.3125 54.6875 
L 36.8125 54.6875 
L 36.8125 47.703125 
L 18.3125 47.703125 
L 18.3125 18.015625 
Q 18.3125 11.328125 20.140625 9.421875 
Q 21.96875 7.515625 27.59375 7.515625 
L 36.8125 7.515625 
L 36.8125 0 
L 27.59375 0 
Q 17.1875 0 13.234375 3.875 
Q 9.28125 7.765625 9.28125 18.015625 
L 9.28125 47.703125 
L 2.6875 47.703125 
L 2.6875 54.6875 
L 9.28125 54.6875 
L 9.28125 70.21875 
z
" id="DejaVuSans-116"/>
      <path id="DejaVuSans-32"/>
      <path d="M 41.109375 46.296875 
Q 39.59375 47.171875 37.8125 47.578125 
Q 36.03125 48 33.890625 48 
Q 26.265625 48 22.1875 43.046875 
Q 18.109375 38.09375 18.109375 28.8125 
L 18.109375 0 
L 9.078125 0 
L 9.078125 54.6875 
L 18.109375 54.6875 
L 18.109375 46.1875 
Q 20.953125 51.171875 25.484375 53.578125 
Q 30.03125 56 36.53125 56 
Q 37.453125 56 38.578125 55.875 
Q 39.703125 55.765625 41.0625 55.515625 
z
" id="DejaVuSans-114"/>
      <path d="M 34.28125 27.484375 
Q 23.390625 27.484375 19.1875 25 
Q 14.984375 22.515625 14.984375 16.5 
Q 14.984375 11.71875 18.140625 8.90625 
Q 21.296875 6.109375 26.703125 6.109375 
Q 34.1875 6.109375 38.703125 11.40625 
Q 43.21875 16.703125 43.21875 25.484375 
L 43.21875 27.484375 
z
M 52.203125 31.203125 
L 52.203125 0 
L 43.21875 0 
L 43.21875 8.296875 
Q 40.140625 3.328125 35.546875 0.953125 
Q 30.953125 -1.421875 24.3125 -1.421875 
Q 15.921875 -1.421875 10.953125 3.296875 
Q 6 8.015625 6 15.921875 
Q 6 25.140625 12.171875 29.828125 
Q 18.359375 34.515625 30.609375 34.515625 
L 43.21875 34.515625 
L 43.21875 35.40625 
Q 43.21875 41.609375 39.140625 45 
Q 35.0625 48.390625 27.6875 48.390625 
Q 23 48.390625 18.546875 47.265625 
Q 14.109375 46.140625 10.015625 43.890625 
L 10.015625 52.203125 
Q 14.9375 54.109375 19.578125 55.046875 
Q 24.21875 56 28.609375 56 
Q 40.484375 56 46.34375 49.84375 
Q 52.203125 43.703125 52.203125 31.203125 
z
" id="DejaVuSans-97"/>
      <path d="M 2.984375 54.6875 
L 12.5 54.6875 
L 29.59375 8.796875 
L 46.6875 54.6875 
L 56.203125 54.6875 
L 35.6875 0 
L 23.484375 0 
z
" id="DejaVuSans-118"/>
      <path d="M 45.40625 27.984375 
Q 45.40625 37.75 41.375 43.109375 
Q 37.359375 48.484375 30.078125 48.484375 
Q 22.859375 48.484375 18.828125 43.109375 
Q 14.796875 37.75 14.796875 27.984375 
Q 14.796875 18.265625 18.828125 12.890625 
Q 22.859375 7.515625 30.078125 7.515625 
Q 37.359375 7.515625 41.375 12.890625 
Q 45.40625 18.265625 45.40625 27.984375 
z
M 54.390625 6.78125 
Q 54.390625 -7.171875 48.1875 -13.984375 
Q 42 -20.796875 29.203125 -20.796875 
Q 24.46875 -20.796875 20.265625 -20.09375 
Q 16.0625 -19.390625 12.109375 -17.921875 
L 12.109375 -9.1875 
Q 16.0625 -11.328125 19.921875 -12.34375 
Q 23.78125 -13.375 27.78125 -13.375 
Q 36.625 -13.375 41.015625 -8.765625 
Q 45.40625 -4.15625 45.40625 5.171875 
L 45.40625 9.625 
Q 42.625 4.78125 38.28125 2.390625 
Q 33.9375 0 27.875 0 
Q 17.828125 0 11.671875 7.65625 
Q 5.515625 15.328125 5.515625 27.984375 
Q 5.515625 40.671875 11.671875 48.328125 
Q 17.828125 56 27.875 56 
Q 33.9375 56 38.28125 53.609375 
Q 42.625 51.21875 45.40625 46.390625 
L 45.40625 54.6875 
L 54.390625 54.6875 
z
" id="DejaVuSans-103"/>
      <path d="M 8.5 21.578125 
L 8.5 54.6875 
L 17.484375 54.6875 
L 17.484375 21.921875 
Q 17.484375 14.15625 20.5 10.265625 
Q 23.53125 6.390625 29.59375 6.390625 
Q 36.859375 6.390625 41.078125 11.03125 
Q 45.3125 15.671875 45.3125 23.6875 
L 45.3125 54.6875 
L 54.296875 54.6875 
L 54.296875 0 
L 45.3125 0 
L 45.3125 8.40625 
Q 42.046875 3.421875 37.71875 1 
Q 33.40625 -1.421875 27.6875 -1.421875 
Q 18.265625 -1.421875 13.375 4.4375 
Q 8.5 10.296875 8.5 21.578125 
z
M 31.109375 56 
z
" id="DejaVuSans-117"/>
      <path d="M 54.890625 33.015625 
L 54.890625 0 
L 45.90625 0 
L 45.90625 32.71875 
Q 45.90625 40.484375 42.875 44.328125 
Q 39.84375 48.1875 33.796875 48.1875 
Q 26.515625 48.1875 22.3125 43.546875 
Q 18.109375 38.921875 18.109375 30.90625 
L 18.109375 0 
L 9.078125 0 
L 9.078125 54.6875 
L 18.109375 54.6875 
L 18.109375 46.1875 
Q 21.34375 51.125 25.703125 53.5625 
Q 30.078125 56 35.796875 56 
Q 45.21875 56 50.046875 50.171875 
Q 54.890625 44.34375 54.890625 33.015625 
z
" id="DejaVuSans-110"/>
     </defs>
     <g transform="translate(14.798438 247.595844)rotate(-90)scale(0.1 -0.1)">
      <use xlink:href="#DejaVuSans-83"/>
      <use x="63.476562" xlink:href="#DejaVuSans-116"/>
      <use x="102.685547" xlink:href="#DejaVuSans-101"/>
      <use x="164.208984" xlink:href="#DejaVuSans-112"/>
      <use x="227.685547" xlink:href="#DejaVuSans-115"/>
      <use x="279.785156" xlink:href="#DejaVuSans-32"/>
      <use x="311.572266" xlink:href="#DejaVuSans-112"/>
      <use x="375.048828" xlink:href="#DejaVuSans-101"/>
      <use x="436.572266" xlink:href="#DejaVuSans-114"/>
      <use x="477.685547" xlink:href="#DejaVuSans-32"/>
      <use x="509.472656" xlink:href="#DejaVuSans-101"/>
      <use x="570.996094" xlink:href="#DejaVuSans-112"/>
      <use x="634.472656" xlink:href="#DejaVuSans-105"/>
      <use x="662.255859" xlink:href="#DejaVuSans-115"/>
      <use x="714.355469" xlink:href="#DejaVuSans-111"/>
      <use x="775.537109" xlink:href="#DejaVuSans-100"/>
      <use x="839.013672" xlink:href="#DejaVuSans-101"/>
      <use x="900.537109" xlink:href="#DejaVuSans-32"/>
      <use x="932.324219" xlink:href="#DejaVuSans-97"/>
      <use x="993.603516" xlink:href="#DejaVuSans-118"/>
      <use x="1052.783203" xlink:href="#DejaVuSans-101"/>
      <use x="1114.306641" xlink:href="#DejaVuSans-114"/>
      <use x="1155.419922" xlink:href="#DejaVuSans-97"/>
      <use x="1216.699219" xlink:href="#DejaVuSans-103"/>
      <use x="1280.175781" xlink:href="#DejaVuSans-101"/>
      <use x="1341.699219" xlink:href="#DejaVuSans-100"/>
      <use x="1405.175781" xlink:href="#DejaVuSans-32"/>
      <use x="1436.962891" xlink:href="#DejaVuSans-111"/>
      <use x="1498.144531" xlink:href="#DejaVuSans-118"/>
      <use x="1557.324219" xlink:href="#DejaVuSans-101"/>
      <use x="1618.847656" xlink:href="#DejaVuSans-114"/>
      <use x="1659.960938" xlink:href="#DejaVuSans-32"/>
      <use x="1691.748047" xlink:href="#DejaVuSans-53"/>
      <use x="1755.371094" xlink:href="#DejaVuSans-48"/>
      <use x="1818.994141" xlink:href="#DejaVuSans-32"/>
      <use x="1850.78125" xlink:href="#DejaVuSans-114"/>
      <use x="1891.894531" xlink:href="#DejaVuSans-117"/>
      <use x="1955.273438" xlink:href="#DejaVuSans-110"/>
      <use x="2018.652344" xlink:href="#DejaVuSans-115"/>
     </g>
    </g>
   </g>
   <g id="line2d_18">
    <path clip-path="url(#p6c55ce31c2)" d="M 72.026297 -1 
L 72.163294 3.169995 
L 72.813904 19.548419 
L 74.115124 37.666131 
L 74.765735 47.774129 
L 75.416345 55.339163 
L 76.066955 55.688083 
L 76.717566 73.275889 
L 77.368176 73.076178 
L 78.018786 80.67382 
L 78.669397 83.101017 
L 79.970617 93.145557 
L 80.621228 94.512758 
L 81.271838 97.714022 
L 81.922448 97.878052 
L 82.573059 108.51997 
L 83.223669 103.080594 
L 84.524889 114.608227 
L 85.1755 115.514009 
L 85.82611 116.950448 
L 86.47672 117.841324 
L 87.127331 119.805041 
L 87.777941 123.493534 
L 88.428551 123.206225 
L 89.079162 124.935458 
L 89.729772 125.826209 
L 90.380382 124.792874 
L 91.030993 134.496664 
L 91.681603 129.044905 
L 92.332213 134.090754 
L 92.982823 141.808117 
L 93.633434 136.307919 
L 94.284044 134.003008 
L 94.934654 136.245903 
L 95.585265 140.074177 
L 96.235875 139.924398 
L 96.886485 144.659558 
L 97.537096 148.425651 
L 98.187706 144.667006 
L 98.838316 146.401236 
L 99.488927 151.602769 
L 100.139537 151.451982 
L 100.790147 147.114993 
L 101.440758 151.404409 
L 102.091368 154.182641 
L 102.741978 153.106231 
L 103.392588 157.126171 
L 104.043199 158.243632 
L 104.693809 152.91313 
L 105.344419 160.600152 
L 105.99503 158.268972 
L 106.64564 156.709047 
L 107.29625 160.911351 
L 107.946861 158.345027 
L 108.597471 166.22552 
L 109.248081 164.020236 
L 109.898692 165.040767 
L 110.549302 163.513566 
L 111.199912 169.315729 
L 111.850523 165.762733 
L 112.501133 165.744625 
L 113.151743 169.343806 
L 113.802353 166.526031 
L 114.452964 167.533819 
L 115.103574 165.536599 
L 115.754184 174.736753 
L 116.404795 169.212842 
L 117.055405 172.516289 
L 117.706015 174.874597 
L 118.356626 170.700166 
L 119.007236 176.442593 
L 119.657846 174.334076 
L 120.308457 171.40387 
L 120.959067 177.55794 
L 121.609677 176.622679 
L 122.260288 175.299079 
L 122.910898 177.719666 
L 123.561508 174.648231 
L 124.212118 176.212919 
L 124.862729 179.803187 
L 125.513339 178.0337 
L 126.163949 181.728065 
L 126.81456 178.633913 
L 127.46517 180.226831 
L 128.11578 177.932298 
L 128.766391 179.012027 
L 129.417001 183.388974 
L 130.067611 179.927008 
L 130.718222 180.185426 
L 131.368832 178.084436 
L 132.019442 180.071646 
L 132.670052 178.450443 
L 133.320663 178.501375 
L 133.971273 181.654604 
L 134.621883 181.382184 
L 135.272494 187.009741 
L 135.923104 182.349235 
L 136.573714 184.395773 
L 137.224325 182.022412 
L 137.874935 180.340775 
L 138.525545 187.784226 
L 139.176156 185.314332 
L 139.826766 184.848672 
L 140.477376 189.451509 
L 141.127987 184.341983 
L 141.778597 189.937499 
L 142.429207 186.164177 
L 143.079817 187.762021 
L 143.730428 184.191512 
L 144.381038 191.202237 
L 145.031648 189.417684 
L 145.682259 191.076239 
L 146.332869 188.732204 
L 146.983479 187.495911 
L 147.63409 190.198347 
L 148.2847 189.271233 
L 148.93531 189.711185 
L 149.585921 194.318344 
L 150.236531 189.147467 
L 150.887141 189.609498 
L 151.537752 192.52837 
L 152.188362 190.870378 
L 152.838972 190.664908 
L 153.489582 192.935231 
L 154.140193 193.016787 
L 154.790803 193.800533 
L 155.441413 188.922802 
L 156.092024 190.927522 
L 156.742634 192.088365 
L 157.393244 194.117986 
L 158.043855 192.702551 
L 158.694465 188.352013 
L 159.345075 194.980989 
L 159.995686 196.222512 
L 160.646296 198.859908 
L 161.296906 190.767594 
L 161.947517 190.858952 
L 162.598127 193.730114 
L 163.248737 197.855699 
L 163.899347 194.34194 
L 164.549958 196.535136 
L 165.200568 197.563543 
L 165.851178 195.028476 
L 166.501789 195.182956 
L 167.152399 196.776234 
L 167.803009 194.282959 
L 168.45362 196.607409 
L 169.10423 201.449875 
L 169.75484 191.339858 
L 170.405451 196.848669 
L 171.056061 194.294753 
L 171.706671 201.563356 
L 172.357281 197.94106 
L 173.007892 201.967811 
L 173.658502 199.69981 
L 174.309112 193.086742 
L 174.959723 199.873545 
L 175.610333 199.489221 
L 176.260943 204.738256 
L 176.911554 197.442044 
L 177.562164 196.860746 
L 178.212774 200.646323 
L 178.863385 200.408916 
L 179.513995 198.393381 
L 180.164605 199.328459 
L 180.815216 203.511006 
L 181.465826 202.896187 
L 182.116436 200.83412 
L 182.767046 201.550741 
L 183.417657 198.515956 
L 184.068267 203.562399 
L 184.718877 206.414191 
L 185.369488 203.100738 
L 186.020098 204.013137 
L 186.670708 202.998414 
L 187.321319 203.049564 
L 188.622539 200.934412 
L 189.27315 207.06271 
L 189.92376 205.979619 
L 190.57437 202.361078 
L 191.224981 203.793972 
L 191.875591 201.361695 
L 192.526201 208.264113 
L 193.176811 201.022243 
L 193.827422 204.336249 
L 194.478032 206.493393 
L 195.128642 205.913927 
L 195.779253 207.781946 
L 196.429863 210.24195 
L 197.080473 209.791724 
L 197.731084 206.071655 
L 198.381694 210.406135 
L 199.032304 204.452807 
L 199.682915 206.400996 
L 200.333525 206.453785 
L 200.984135 211.189442 
L 201.634746 211.825755 
L 202.285356 211.024062 
L 202.935966 209.614877 
L 203.586576 207.301924 
L 204.237187 210.707791 
L 204.887797 212.689373 
L 205.538407 205.625356 
L 206.189018 210.625437 
L 206.839628 206.559438 
L 207.490238 212.801313 
L 208.140849 208.883366 
L 208.791459 207.688441 
L 209.442069 214.822064 
L 210.09268 214.964801 
L 210.74329 209.126653 
L 212.04451 213.531762 
L 212.695121 209.696463 
L 213.345731 212.173157 
L 213.996341 211.479468 
L 214.646952 217.596135 
L 215.297562 213.02554 
L 215.948172 209.329811 
L 216.598783 216.026958 
L 217.249393 215.868407 
L 217.900003 217.012295 
L 218.550614 212.57755 
L 219.201224 214.551384 
L 219.851834 215.882811 
L 220.502445 212.759322 
L 221.153055 211.562476 
L 221.803665 212.885343 
L 222.454275 217.085103 
L 223.104886 216.576479 
L 223.755496 217.845226 
L 224.406106 217.64005 
L 225.056717 211.964582 
L 225.707327 214.139544 
L 226.357937 217.245452 
L 227.008548 211.867385 
L 227.659158 213.870567 
L 228.309768 219.426368 
L 228.960379 219.739422 
L 229.610989 215.42283 
L 230.261599 216.648993 
L 230.91221 218.566427 
L 231.56282 217.11424 
L 232.21343 220.33824 
L 232.86404 217.522982 
L 233.514651 218.477857 
L 234.165261 217.143384 
L 234.815871 215.079126 
L 235.466482 214.28138 
L 236.117092 221.288167 
L 236.767702 215.738857 
L 237.418313 214.950519 
L 238.068923 215.638202 
L 238.719533 218.847378 
L 239.370144 214.466047 
L 240.020754 217.830558 
L 241.321975 216.257994 
L 241.972585 219.471034 
L 242.623195 219.664803 
L 243.273805 220.293214 
L 243.924416 220.173234 
L 244.575026 220.759398 
L 245.225636 215.451522 
L 245.876247 220.443376 
L 246.526857 218.78817 
L 247.177467 218.38936 
L 247.828078 217.508357 
L 248.478688 219.441254 
L 249.129298 218.345139 
L 249.779909 223.259731 
L 250.430519 217.698632 
L 251.081129 222.430039 
L 251.73174 221.500401 
L 252.38235 219.918719 
L 253.03296 219.099376 
L 253.68357 221.379073 
L 254.334181 221.121703 
L 254.984791 220.263206 
L 255.635401 221.895662 
L 256.286012 222.598534 
L 256.936622 217.727935 
L 257.587232 219.158756 
L 258.237843 222.65987 
L 258.888453 220.413327 
L 259.539063 222.124357 
L 260.189674 221.33361 
L 260.840284 221.182205 
L 261.490894 223.506796 
L 262.141504 221.33361 
L 262.792115 221.758677 
L 263.442725 221.227605 
L 264.093335 221.926127 
L 264.743946 224.344837 
L 265.394556 219.903766 
L 266.045166 218.921434 
L 266.695777 215.394146 
L 267.346387 219.993514 
L 267.996997 218.197865 
L 268.647608 219.873867 
L 269.298218 224.049228 
L 269.948828 214.979085 
L 270.599439 220.33824 
L 271.250049 221.713054 
L 271.900659 222.170154 
L 272.551269 221.015905 
L 273.20188 223.013231 
L 273.85249 223.383193 
L 274.5031 221.66745 
L 275.153711 223.151818 
L 276.454931 217.596135 
L 277.105542 219.351964 
L 277.756152 219.829034 
L 278.406762 225.645758 
L 279.057373 223.646018 
L 279.707983 220.488465 
L 280.358593 222.736589 
L 281.009204 226.310078 
L 281.659814 227.683243 
L 282.310424 222.75194 
L 283.611645 226.659694 
L 284.262255 222.844088 
L 284.912865 223.090202 
L 286.214086 220.89512 
L 286.864696 221.061234 
L 288.165917 225.882546 
L 288.816527 224.76631 
L 289.467138 227.138274 
L 290.117748 225.236552 
L 290.768358 224.954161 
L 291.418969 224.797596 
L 292.069579 224.033692 
L 292.720189 224.204711 
L 293.370799 220.503499 
L 294.02141 221.182205 
L 294.67202 220.518535 
L 295.32263 225.393755 
L 295.973241 222.124357 
L 296.623851 222.721241 
L 297.274461 224.985502 
L 297.925072 220.473433 
L 298.575682 223.429527 
L 299.226292 230.252479 
L 299.876903 226.73931 
L 300.527513 225.756195 
L 301.178123 226.484744 
L 301.828733 226.024869 
L 302.479344 219.649885 
L 303.129954 224.92283 
L 303.780564 222.583205 
L 305.081785 223.059407 
L 305.732395 221.621866 
L 307.033616 224.844542 
L 307.684226 222.27709 
L 308.334837 224.76631 
L 308.985447 220.173234 
L 309.636057 223.336878 
L 310.286668 220.188224 
L 310.937278 220.083337 
L 311.587888 218.286205 
L 312.238498 227.586872 
L 312.889109 223.584119 
L 313.539719 223.352314 
L 314.190329 225.220844 
L 314.84094 224.985502 
L 315.49155 223.167228 
L 316.14216 223.537718 
L 316.792771 220.548614 
L 317.443381 223.398635 
L 318.093991 224.563173 
L 318.744602 224.142491 
L 319.395212 224.313682 
L 320.045822 220.940399 
L 320.696433 226.278351 
L 321.997653 222.460655 
L 322.648263 224.87585 
L 323.298874 224.87585 
L 323.949484 226.088184 
L 324.600094 225.205139 
L 325.250705 227.538718 
L 325.901315 226.818985 
L 326.551925 225.315125 
L 327.202536 225.472443 
L 327.853146 224.87585 
L 328.503756 224.641258 
L 329.154367 226.53243 
L 329.804977 224.688136 
L 330.455587 223.769922 
L 331.106198 224.688136 
L 331.756808 224.610017 
L 332.407418 227.426444 
L 333.058028 225.519683 
L 333.708639 223.228888 
L 334.359249 228.47351 
L 335.009859 221.621866 
L 335.66047 230.252479 
L 336.31108 226.389437 
L 336.96169 221.530755 
L 337.612301 225.425224 
L 338.262911 227.538718 
L 338.913521 231.460504 
L 339.564132 225.126646 
L 340.214742 222.828725 
L 340.865352 225.001175 
L 341.515962 222.767292 
L 342.166573 222.506595 
L 342.817183 222.506595 
L 344.118404 226.627863 
L 344.769014 224.142491 
L 345.419624 226.691533 
L 346.070235 226.675612 
L 346.720845 226.040694 
L 347.371455 228.781503 
L 348.022066 225.803559 
L 348.672676 224.610017 
L 349.323286 225.535435 
L 349.973897 227.586872 
L 350.624507 226.882767 
L 351.275117 223.121006 
L 351.925727 222.997843 
L 352.576338 222.292375 
L 353.226948 225.126646 
L 353.877558 225.032529 
L 354.528169 226.310078 
L 355.178779 222.736589 
L 355.829389 224.703766 
L 356.48 223.769922 
L 357.13061 223.956046 
L 357.78122 225.819352 
L 358.431831 225.72463 
L 359.082441 225.299406 
L 359.733051 221.43972 
L 360.383662 226.056522 
L 361.034272 222.767292 
L 361.684882 225.158036 
L 362.335492 223.074803 
L 362.986103 224.860195 
L 363.636713 223.707953 
L 364.287323 225.456701 
L 364.937934 225.158036 
L 365.588544 228.489698 
L 366.239154 224.938495 
L 366.889765 225.14234 
L 367.540375 222.552555 
L 368.190985 223.044013 
L 368.841596 225.001175 
L 369.492206 223.475882 
L 370.142816 227.170255 
L 370.793427 222.967075 
L 371.444037 227.394387 
L 372.094647 224.891508 
L 372.745257 224.282536 
L 373.395868 225.425224 
L 374.046478 224.96983 
L 374.697088 221.515577 
L 375.347699 226.978511 
L 375.998309 223.584119 
L 376.648919 225.283689 
L 377.29953 220.593747 
L 377.95014 223.537718 
L 378.60075 225.740411 
L 379.251361 221.819538 
L 379.901971 223.491337 
L 380.552581 226.405316 
L 381.203191 227.394387 
L 381.853802 225.566944 
L 382.504412 227.154263 
L 383.155022 222.982458 
L 383.805633 224.547563 
L 385.106853 224.45395 
L 385.757464 225.535435 
L 386.408074 220.940399 
L 387.058684 228.911448 
L 387.709295 226.43708 
L 388.359905 225.409488 
L 389.661126 228.66793 
L 390.311736 228.134115 
L 390.962346 224.781952 
L 392.263567 231.427227 
L 392.914177 230.351261 
L 393.564787 223.800921 
L 394.215398 222.261807 
L 394.215398 222.261807 
" style="fill:none;stroke:#0000ff;stroke-linecap:square;stroke-width:1.5;"/>
   </g>
   <g id="line2d_19">
    <path clip-path="url(#p6c55ce31c2)" d="M 70.78219 -1 
L 70.862073 4.08752 
L 71.512683 23.74675 
L 72.163294 47.371183 
L 72.813904 49.666454 
L 73.464514 71.718757 
L 74.115124 79.295286 
L 74.765735 83.223189 
L 75.416345 91.344602 
L 76.066955 101.251969 
L 76.717566 105.664789 
L 77.368176 113.648501 
L 78.018786 112.625255 
L 78.669397 116.634051 
L 79.320007 124.323061 
L 79.970617 125.476507 
L 80.621228 127.840161 
L 81.271838 132.68197 
L 81.922448 134.131277 
L 82.573059 141.605228 
L 83.223669 140.696915 
L 83.874279 145.24948 
L 84.524889 144.95785 
L 85.1755 146.227309 
L 85.82611 155.574317 
L 86.47672 153.146504 
L 87.127331 158.938402 
L 87.777941 157.805352 
L 88.428551 155.863079 
L 89.079162 161.815445 
L 89.729772 160.160816 
L 90.380382 166.845671 
L 91.030993 165.943982 
L 91.681603 164.27 
L 92.332213 169.906887 
L 92.982823 167.166261 
L 93.633434 171.003908 
L 94.284044 170.908897 
L 94.934654 169.578066 
L 95.585265 172.91223 
L 96.886485 173.903599 
L 97.537096 180.247539 
L 98.187706 177.618559 
L 98.838316 177.456985 
L 99.488927 178.879025 
L 100.139537 179.41202 
L 100.790147 174.953444 
L 101.440758 184.891905 
L 102.091368 180.195776 
L 102.741978 178.950621 
L 103.392588 185.694845 
L 104.043199 178.430077 
L 104.693809 183.923336 
L 105.344419 184.137824 
L 105.99503 186.514777 
L 106.64564 189.846916 
L 107.29625 185.129994 
L 107.946861 187.973157 
L 108.597471 184.600421 
L 109.248081 187.241504 
L 109.898692 186.317424 
L 110.549302 186.186056 
L 111.199912 194.282959 
L 111.850523 191.454675 
L 112.501133 188.039917 
L 113.151743 193.530844 
L 113.802353 189.001382 
L 114.452964 194.897935 
L 115.103574 192.296565 
L 115.754184 190.950388 
L 116.404795 196.788304 
L 117.055405 193.028443 
L 117.706015 193.016787 
L 118.356626 197.84351 
L 119.007236 193.180085 
L 119.657846 192.52837 
L 120.308457 189.971487 
L 120.959067 194.814946 
L 121.609677 196.824519 
L 122.260288 194.708338 
L 122.910898 194.590009 
L 123.561508 203.588105 
L 124.212118 196.655618 
L 124.862729 201.626452 
L 125.513339 192.993479 
L 126.163949 201.550741 
L 126.81456 202.488245 
L 127.46517 201.765394 
L 128.11578 201.223271 
L 128.766391 201.904515 
L 129.417001 205.795782 
L 130.067611 202.043816 
L 130.718222 204.206888 
L 131.368832 198.368883 
L 132.019442 204.310365 
L 133.320663 207.67509 
L 133.971273 199.662617 
L 134.621883 204.894274 
L 135.272494 205.664661 
L 135.923104 211.134287 
L 137.224325 205.363686 
L 137.874935 208.076348 
L 138.525545 207.741863 
L 139.176156 207.875533 
L 139.826766 206.190102 
L 140.477376 207.262018 
L 141.127987 208.950891 
L 141.778597 204.998412 
L 142.429207 207.955814 
L 143.079817 209.302701 
L 143.730428 209.180791 
L 144.381038 211.798011 
L 145.031648 212.089679 
L 145.682259 213.137829 
L 146.332869 213.814026 
L 146.983479 212.298496 
L 147.63409 219.948631 
L 148.2847 213.067635 
L 148.93531 214.082862 
L 149.585921 216.910447 
L 150.236531 217.333016 
L 150.887141 218.212584 
L 151.537752 215.825206 
L 152.188362 216.518503 
L 152.838972 216.895906 
L 153.489582 216.924991 
L 154.140193 216.663502 
L 154.790803 214.167896 
L 155.441413 216.576479 
L 156.092024 211.645547 
L 157.393244 218.951071 
L 158.043855 217.713283 
L 158.694465 215.782023 
L 159.345075 221.926127 
L 159.995686 221.31846 
L 160.646296 216.939537 
L 161.296906 218.227304 
L 161.947517 222.185424 
L 162.598127 218.477857 
L 163.248737 217.669337 
L 163.899347 220.158246 
L 164.549958 220.263206 
L 165.200568 220.503499 
L 165.851178 222.322952 
L 166.501789 219.500822 
L 167.152399 217.771904 
L 168.45362 219.099376 
L 169.10423 218.036096 
L 169.75484 218.758578 
L 170.405451 216.547487 
L 171.056061 218.951071 
L 171.706671 219.38172 
L 172.357281 219.441254 
L 173.007892 220.985696 
L 173.658502 217.801227 
L 174.309112 222.460655 
L 174.959723 221.197336 
L 175.610333 218.300936 
L 176.911554 225.205139 
L 177.562164 216.099104 
L 178.212774 220.008479 
L 178.863385 222.798004 
L 179.513995 219.664803 
L 180.164605 225.598463 
L 180.815216 219.188458 
L 181.465826 221.363917 
L 182.116436 222.65987 
L 182.767046 226.341815 
L 183.417657 219.33709 
L 184.068267 222.629198 
L 184.718877 223.63054 
L 185.369488 221.941362 
L 186.020098 222.430039 
L 186.670708 228.943959 
L 187.321319 225.519683 
L 187.971929 223.21347 
L 188.622539 222.75194 
L 189.27315 222.002326 
L 189.92376 223.460428 
L 190.57437 223.044013 
L 191.224981 220.42835 
L 191.875591 222.017572 
L 192.526201 222.338244 
L 193.176811 226.818985 
L 193.827422 222.49128 
L 194.478032 225.977407 
L 195.128642 226.056522 
L 195.779253 222.353537 
L 196.429863 223.059407 
L 197.080473 223.367752 
L 197.731084 222.874822 
L 198.381694 226.548329 
L 199.032304 228.069589 
L 199.682915 219.351964 
L 200.333525 229.318537 
L 200.984135 223.63054 
L 201.634746 225.6773 
L 202.285356 224.547563 
L 202.935966 224.51635 
L 203.586576 219.829034 
L 204.237187 223.105603 
L 204.887797 224.547563 
L 205.538407 222.430039 
L 206.189018 227.506628 
L 206.839628 226.262491 
L 207.490238 222.920938 
L 208.140849 226.167379 
L 208.791459 227.699313 
L 209.442069 226.978511 
L 210.09268 230.203123 
L 210.74329 222.292375 
L 212.04451 232.245489 
L 212.695121 227.298274 
L 213.345731 226.611952 
L 213.996341 227.122287 
L 214.646952 230.450133 
L 215.297562 228.749041 
L 215.948172 227.394387 
L 216.598783 223.367752 
L 217.249393 223.013231 
L 217.900003 225.048209 
L 218.550614 223.769922 
L 220.502445 227.026415 
L 221.153055 226.389437 
L 221.803665 223.646018 
L 222.454275 218.832573 
L 223.104886 226.930629 
L 223.755496 229.628954 
L 224.406106 224.049228 
L 225.056717 224.080307 
L 225.707327 228.134115 
L 226.357937 226.73931 
L 227.008548 224.235834 
L 227.659158 227.09032 
L 228.309768 221.758677 
L 228.960379 225.551188 
L 229.610989 224.860195 
L 230.261599 223.615064 
L 230.91221 223.862944 
L 231.56282 221.303312 
L 232.21343 224.235834 
L 232.86404 222.414734 
L 233.514651 225.283689 
L 234.165261 224.391586 
L 234.815871 221.33361 
L 235.466482 224.907168 
L 236.117092 223.940523 
L 236.767702 227.154263 
L 237.418313 223.862944 
L 238.068923 225.14234 
L 238.719533 225.961591 
L 239.370144 222.828725 
L 240.020754 224.469547 
L 240.671364 224.563173 
L 241.321975 223.013231 
L 241.972585 228.846456 
L 242.623195 227.956762 
L 243.273805 227.860147 
L 243.924416 223.044013 
L 244.575026 226.389437 
L 245.225636 222.27709 
L 245.876247 222.368833 
L 246.526857 225.566944 
L 247.177467 224.641258 
L 247.828078 224.126942 
L 248.478688 223.816423 
L 249.129298 221.834758 
L 249.779909 224.329259 
L 250.430519 227.924547 
L 251.081129 226.389437 
L 251.73174 221.106583 
L 252.38235 229.302224 
L 253.03296 224.189153 
L 253.68357 226.072351 
L 254.984791 225.945778 
L 255.635401 227.554767 
L 256.286012 226.325945 
L 256.936622 227.074341 
L 257.587232 226.389437 
L 258.237843 226.723382 
L 258.888453 224.891508 
L 259.539063 224.142491 
L 260.189674 225.598463 
L 260.840284 224.173597 
L 261.490894 224.313682 
L 262.141504 223.615064 
L 262.792115 229.579881 
L 263.442725 226.659694 
L 264.093335 227.314287 
L 264.743946 228.263283 
L 265.394556 225.866744 
L 266.045166 225.440961 
L 266.695777 226.691533 
L 267.346387 224.111395 
L 267.996997 224.204711 
L 268.647608 227.908444 
L 269.298218 222.721241 
L 269.948828 222.690551 
L 270.599439 222.399432 
L 271.250049 230.763826 
L 271.900659 225.14234 
L 272.551269 223.028621 
L 273.20188 227.09032 
L 273.85249 223.090202 
L 274.5031 226.994477 
L 275.153711 219.873867 
L 275.804321 222.874822 
L 276.454931 227.282263 
L 277.105542 226.009046 
L 277.756152 229.334852 
L 278.406762 223.522256 
L 279.057373 223.275156 
L 279.707983 226.294213 
L 280.358593 226.199074 
L 281.009204 221.97184 
L 281.659814 223.661498 
L 282.310424 229.009009 
L 282.961034 226.119855 
L 283.611645 225.048209 
L 284.262255 226.53243 
L 285.563476 222.920938 
L 286.214086 228.911448 
L 286.864696 225.220844 
L 287.515307 227.378362 
L 288.816527 224.813242 
L 289.467138 225.016851 
L 290.117748 231.693733 
L 290.768358 223.925003 
L 291.418969 223.044013 
L 292.069579 224.282536 
L 292.720189 227.490586 
L 293.370799 228.505889 
L 294.02141 228.037341 
L 295.32263 223.522256 
L 295.973241 225.835147 
L 296.623851 222.048071 
L 297.274461 224.87585 
L 297.925072 226.341815 
L 298.575682 225.598463 
L 299.226292 223.553183 
L 299.876903 228.408781 
L 300.527513 226.723382 
L 301.178123 225.708851 
L 301.828733 228.765271 
L 302.479344 225.110954 
L 303.129954 227.234245 
L 303.780564 224.282536 
L 304.431175 230.48311 
L 305.081785 228.619292 
L 305.732395 227.106303 
L 306.383006 226.723382 
L 307.033616 228.344091 
L 307.684226 225.582702 
L 308.334837 229.645317 
L 308.985447 227.410414 
L 309.636057 232.968701 
L 310.286668 229.041549 
L 310.937278 229.465465 
L 311.587888 228.295599 
L 312.238498 226.580136 
L 312.889109 230.268937 
L 313.539719 229.122943 
L 314.190329 230.532595 
L 314.84094 230.268937 
L 315.49155 233.188304 
L 316.14216 230.02234 
L 316.792771 227.844052 
L 317.443381 234.258908 
L 318.093991 235.651186 
L 318.744602 234.122368 
L 319.395212 227.09032 
L 320.045822 227.122287 
L 321.347043 230.598611 
L 322.648263 232.077992 
L 323.298874 224.485145 
L 323.949484 232.833783 
L 324.600094 235.099002 
L 325.250705 230.763826 
L 325.901315 228.31176 
L 327.202536 233.900859 
L 327.853146 231.111603 
L 328.503756 231.827234 
L 329.154367 230.681187 
L 329.804977 231.194573 
L 330.455587 226.946587 
L 331.106198 230.071615 
L 331.756808 229.792691 
L 332.407418 228.700367 
L 333.058028 232.211969 
L 333.708639 231.994341 
L 334.359249 227.7797 
L 335.009859 228.813975 
L 335.66047 227.234245 
L 336.31108 230.730763 
L 336.96169 226.898719 
L 337.612301 234.995782 
L 338.262911 234.944208 
L 338.913521 228.797738 
L 339.564132 228.8627 
L 340.214742 236.345411 
L 340.865352 233.883838 
L 341.515962 230.46662 
L 342.166573 228.976479 
L 342.817183 238.63298 
L 343.467793 232.682201 
L 344.118404 234.90984 
L 344.769014 232.044524 
L 345.419624 231.727093 
L 346.070235 235.685791 
L 346.720845 227.026415 
L 347.371455 231.977619 
L 348.022066 232.581264 
L 348.672676 228.053464 
L 349.323286 233.986001 
L 349.973897 235.357487 
L 350.624507 230.81344 
L 351.275117 236.04982 
L 351.925727 230.945855 
L 352.576338 228.619292 
L 353.226948 230.697709 
L 353.877558 234.601014 
L 354.528169 226.978511 
L 355.178779 239.293019 
L 355.829389 228.960218 
L 356.48 237.571152 
L 357.13061 225.299406 
L 357.78122 230.582103 
L 358.431831 239.454181 
L 359.082441 236.904023 
L 359.733051 233.340599 
L 360.383662 232.631721 
L 361.034272 239.436262 
L 361.684882 231.061852 
L 362.335492 232.581264 
L 362.986103 234.927023 
L 363.636713 239.669438 
L 364.287323 236.171436 
L 364.937934 235.219551 
L 365.588544 236.240992 
L 366.239154 232.54764 
L 366.889765 234.344333 
L 367.540375 242.618224 
L 368.190985 237.694495 
L 368.841596 235.185095 
L 369.492206 238.419777 
L 370.142816 244.085966 
L 370.793427 235.530154 
L 372.094647 236.799063 
L 372.745257 237.782684 
L 373.395868 230.796899 
L 374.046478 241.864279 
L 374.697088 240.516687 
L 375.347699 238.526326 
L 375.998309 234.549629 
L 376.648919 242.636679 
L 377.29953 236.345411 
L 377.95014 231.211174 
L 378.60075 237.553543 
L 379.251361 236.589448 
L 379.901971 236.101924 
L 380.552581 238.704141 
L 381.203191 235.806998 
L 381.853802 235.322986 
L 382.504412 233.986001 
L 383.155022 234.327242 
L 383.805633 236.78158 
L 384.456243 237.81798 
L 385.106853 233.781773 
L 385.757464 235.530154 
L 386.408074 244.179536 
L 387.058684 237.061655 
L 387.709295 239.921116 
L 388.359905 233.476153 
L 389.010515 231.944182 
L 389.661126 238.57964 
L 390.311736 235.185095 
L 390.962346 238.828787 
L 391.612956 241.772694 
L 392.263567 243.582085 
L 392.914177 234.17355 
L 393.564787 239.149965 
L 394.215398 232.631721 
L 394.215398 232.631721 
" style="fill:none;stroke:#008000;stroke-linecap:square;stroke-width:1.5;"/>
   </g>
   <g id="line2d_20">
    <path clip-path="url(#p6c55ce31c2)" d="M 69.953359 -1 
L 70.862073 53.205139 
L 71.512683 68.174153 
L 72.813904 105.649222 
L 73.464514 112.614186 
L 74.115124 129.315897 
L 74.765735 125.801193 
L 75.416345 143.688384 
L 76.066955 134.023251 
L 76.717566 151.467845 
L 77.368176 154.11759 
L 78.018786 151.531318 
L 78.669397 160.868076 
L 79.320007 163.274392 
L 79.970617 162.507305 
L 80.621228 168.998032 
L 81.271838 172.689938 
L 81.922448 174.245884 
L 82.573059 174.353684 
L 83.223669 176.692793 
L 83.874279 175.794771 
L 84.524889 177.487262 
L 85.1755 186.262668 
L 85.82611 180.693728 
L 86.47672 185.195018 
L 87.127331 185.989304 
L 87.777941 187.584542 
L 88.428551 183.271768 
L 89.079162 192.888655 
L 89.729772 191.822915 
L 90.380382 191.477654 
L 91.030993 192.35447 
L 91.681603 192.065257 
L 92.332213 192.342886 
L 92.982823 194.601836 
L 93.633434 198.909133 
L 94.284044 195.218637 
L 94.934654 193.800533 
L 95.585265 200.608803 
L 96.235875 194.282959 
L 96.886485 201.059908 
L 98.187706 204.894274 
L 98.838316 201.172979 
L 99.488927 206.084809 
L 100.139537 206.599085 
L 100.790147 208.681045 
L 101.440758 200.047561 
L 102.091368 207.862158 
L 102.741978 201.778034 
L 103.392588 210.982757 
L 104.043199 209.316255 
L 104.693809 214.167896 
L 105.344419 209.900698 
L 105.99503 210.173613 
L 106.64564 209.167254 
L 107.29625 211.203235 
L 107.946861 214.807801 
L 108.597471 214.979085 
L 109.248081 214.679516 
L 109.898692 215.193573 
L 110.549302 218.78817 
L 111.199912 216.866828 
L 111.850523 213.771639 
L 113.151743 219.918719 
L 113.802353 217.94796 
L 114.452964 217.683984 
L 115.103574 219.04003 
L 115.754184 217.918597 
L 116.404795 215.03624 
L 117.706015 221.941362 
L 118.356626 218.891805 
L 119.007236 223.522256 
L 119.657846 223.971571 
L 120.308457 218.581196 
L 120.959067 222.322952 
L 121.609677 218.374618 
L 122.260288 220.188224 
L 122.910898 220.398305 
L 123.561508 222.905564 
L 124.212118 221.66745 
L 124.862729 217.815891 
L 125.513339 222.721241 
L 126.163949 221.804319 
L 126.81456 224.002627 
L 127.46517 219.96359 
L 128.11578 223.615064 
L 128.766391 224.204711 
L 129.417001 225.993225 
L 130.067611 220.955496 
L 130.718222 220.548614 
L 131.368832 225.079577 
L 132.019442 222.460655 
L 132.670052 218.758578 
L 133.320663 224.033692 
L 133.971273 222.307662 
L 134.621883 223.105603 
L 135.272494 222.215971 
L 135.923104 222.967075 
L 136.573714 220.218211 
L 137.224325 220.278209 
L 137.874935 221.895662 
L 138.525545 223.987098 
L 139.176156 223.754427 
L 139.826766 223.336878 
L 140.477376 220.684071 
L 141.127987 223.121006 
L 141.778597 227.170255 
L 142.429207 221.987082 
L 143.079817 226.088184 
L 143.730428 222.967075 
L 144.381038 223.769922 
L 145.031648 222.170154 
L 145.682259 220.940399 
L 146.332869 222.75194 
L 146.983479 220.699132 
L 147.63409 221.091464 
L 148.2847 221.652253 
L 148.93531 222.736589 
L 149.585921 226.882767 
L 150.236531 219.843976 
L 150.887141 221.910893 
L 151.537752 221.212469 
L 152.188362 225.914157 
L 152.838972 223.228888 
L 153.489582 226.75524 
L 154.140193 220.84986 
L 154.790803 222.629198 
L 156.092024 218.345139 
L 156.742634 221.941362 
L 157.393244 221.941362 
L 158.043855 222.093836 
L 158.694465 224.407174 
L 159.345075 225.629991 
L 159.995686 225.267974 
L 160.646296 222.552555 
L 161.296906 230.697709 
L 161.947517 226.707456 
L 162.598127 223.971571 
L 163.248737 226.167379 
L 163.899347 227.442476 
L 164.549958 221.076348 
L 165.200568 226.357686 
L 165.851178 227.586872 
L 166.501789 224.891508 
L 167.152399 224.781952 
L 167.803009 224.407174 
L 168.45362 225.740411 
L 169.10423 229.106659 
L 170.405451 221.485228 
L 171.056061 224.51635 
L 171.706671 226.596043 
L 172.357281 230.846528 
L 173.658502 227.170255 
L 174.309112 228.813975 
L 174.959723 223.167228 
L 175.610333 227.972873 
L 176.260943 225.977407 
L 176.911554 227.09032 
L 177.562164 230.46662 
L 178.212774 225.362296 
L 178.863385 224.018159 
L 179.513995 225.519683 
L 180.164605 224.531955 
L 180.815216 226.341815 
L 181.465826 228.66793 
L 182.116436 230.186675 
L 182.767046 227.186249 
L 183.417657 226.389437 
L 184.068267 225.032529 
L 184.718877 226.262491 
L 185.369488 226.978511 
L 186.020098 224.96983 
L 186.670708 226.119855 
L 187.321319 228.134115 
L 187.971929 227.218244 
L 189.27315 221.15195 
L 189.92376 229.874652 
L 190.57437 227.138274 
L 191.224981 228.603084 
L 191.875591 227.747538 
L 192.526201 232.128214 
L 193.176811 232.715867 
L 193.827422 227.892342 
L 194.478032 230.153788 
L 195.128642 228.101848 
L 195.779253 229.989503 
L 196.429863 229.139229 
L 197.080473 234.037118 
L 197.731084 225.566944 
L 198.381694 228.635502 
L 199.032304 229.367491 
L 199.682915 226.151535 
L 200.333525 228.651715 
L 200.984135 226.104018 
L 201.634746 225.315125 
L 202.285356 229.318537 
L 202.935966 231.095017 
L 203.586576 224.76631 
L 204.237187 226.866818 
L 204.887797 230.89618 
L 205.538407 230.236025 
L 206.839628 225.252262 
L 207.490238 230.681187 
L 208.140849 226.73931 
L 208.791459 236.729146 
L 209.442069 226.119855 
L 210.09268 233.968967 
L 210.74329 232.614899 
L 211.3939 229.481803 
L 212.04451 230.351261 
L 212.695121 229.171808 
L 213.345731 233.679803 
L 213.996341 233.730776 
L 214.646952 230.005921 
L 215.297562 230.499603 
L 215.948172 233.696791 
L 216.598783 238.615197 
L 217.249393 230.120911 
L 217.900003 231.960899 
L 218.550614 232.631721 
L 219.201224 234.446932 
L 219.851834 233.968967 
L 220.502445 229.923859 
L 221.153055 236.067185 
L 221.803665 234.823966 
L 222.454275 236.991568 
L 223.104886 230.055187 
L 223.755496 240.643444 
L 224.406106 239.525885 
L 225.056717 235.409258 
L 225.707327 232.598081 
L 226.357937 234.8068 
L 227.659158 242.747475 
L 228.309768 236.240992 
L 229.610989 234.566755 
L 230.261599 231.743777 
L 230.91221 238.295603 
L 232.21343 233.968967 
L 232.86404 237.289753 
L 233.514651 230.879627 
L 234.165261 236.746621 
L 234.815871 237.712127 
L 235.466482 229.367491 
L 236.117092 233.137587 
L 236.767702 232.044524 
L 237.418313 240.788492 
L 238.068923 238.313334 
L 238.719533 238.686347 
L 239.370144 231.51044 
L 240.020754 236.484793 
L 240.671364 239.007101 
L 241.321975 237.360034 
L 241.972585 238.100761 
L 242.623195 240.191423 
L 243.273805 238.953576 
L 244.575026 231.095017 
L 245.225636 236.78158 
L 245.876247 239.579695 
L 246.526857 238.13616 
L 247.177467 237.923936 
L 247.828078 230.929294 
L 248.478688 236.345411 
L 249.129298 232.884358 
L 249.779909 234.515386 
L 250.430519 233.934908 
L 251.081129 229.743544 
L 251.73174 236.258388 
L 252.38235 234.08826 
L 253.03296 239.867135 
L 253.68357 234.344333 
L 254.334181 240.119275 
L 254.984791 233.730776 
L 255.635401 240.697814 
L 256.286012 238.953576 
L 256.936622 239.885126 
L 257.587232 233.849806 
L 258.237843 230.681187 
L 258.888453 230.48311 
L 259.539063 240.083219 
L 260.189674 233.730776 
L 260.840284 238.24243 
L 261.490894 232.850638 
L 262.141504 237.289753 
L 262.792115 235.824324 
L 263.442725 243.712495 
L 264.093335 233.730776 
L 264.743946 234.772475 
L 265.394556 236.310593 
L 266.045166 236.851531 
L 266.695777 238.63298 
L 267.346387 237.026606 
L 267.996997 241.736082 
L 268.647608 235.87632 
L 269.298218 235.185095 
L 269.948828 238.810971 
L 270.599439 241.407128 
L 271.250049 235.495599 
L 271.900659 234.772475 
L 272.551269 237.712127 
L 273.20188 237.976953 
L 273.85249 239.007101 
L 274.5031 234.17355 
L 275.153711 239.472102 
L 275.804321 239.454181 
L 276.454931 238.917907 
L 277.105542 237.412775 
L 277.756152 244.517061 
L 278.406762 239.831163 
L 279.057373 241.845956 
L 280.358593 235.893657 
L 281.009204 241.974284 
L 281.659814 237.870945 
L 282.310424 236.310593 
L 282.961034 239.777228 
L 283.611645 242.286576 
L 284.262255 243.21035 
L 284.912865 238.953576 
L 285.563476 241.827636 
L 286.214086 240.227515 
L 286.864696 247.951654 
L 287.515307 233.764771 
L 288.165917 235.772353 
L 288.816527 240.083219 
L 289.467138 237.096716 
L 290.117748 250.501966 
L 290.768358 241.206593 
L 291.418969 243.619329 
L 292.069579 243.024962 
L 292.720189 237.888605 
L 293.370799 242.066041 
L 294.02141 244.291927 
L 294.67202 238.083065 
L 295.32263 239.454181 
L 295.973241 236.240992 
L 296.623851 237.079184 
L 297.274461 236.432504 
L 297.925072 242.415429 
L 298.575682 243.191797 
L 299.226292 242.047683 
L 299.876903 239.687396 
L 300.527513 241.170172 
L 301.178123 239.436262 
L 301.828733 234.635285 
L 302.479344 236.467361 
L 303.129954 244.987603 
L 303.780564 235.409258 
L 304.431175 242.821402 
L 305.081785 241.882606 
L 305.732395 237.941605 
L 306.383006 247.025025 
L 307.033616 238.029996 
L 307.684226 240.534787 
L 308.334837 237.184417 
L 308.985447 242.194631 
L 309.636057 235.772353 
L 310.286668 244.780311 
L 310.937278 245.28983 
L 311.587888 243.1547 
L 312.238498 249.710818 
L 312.889109 240.101245 
L 313.539719 240.191423 
L 314.190329 239.705356 
L 314.84094 243.35889 
L 315.49155 243.247466 
L 316.14216 237.289753 
L 316.792771 237.676866 
L 317.443381 245.100839 
L 318.093991 241.024611 
L 318.744602 239.651484 
L 319.395212 242.507562 
L 320.045822 237.535937 
L 320.696433 243.805741 
L 321.347043 238.419777 
L 321.997653 241.388882 
L 322.648263 242.397012 
L 323.298874 241.699482 
L 323.949484 237.500734 
L 324.600094 241.882606 
L 325.250705 242.047683 
L 325.901315 244.011168 
L 326.551925 244.329416 
L 327.202536 239.543819 
L 327.853146 244.25445 
L 328.503756 235.271256 
L 329.154367 234.037118 
L 329.804977 239.346713 
L 331.106198 237.27219 
L 331.756808 244.142098 
L 332.407418 242.323375 
L 333.058028 239.507955 
L 333.708639 240.861089 
L 334.359249 238.615197 
L 335.009859 241.388882 
L 335.66047 235.564721 
L 336.31108 238.615197 
L 336.96169 240.897406 
L 337.612301 238.260151 
L 338.262911 244.423198 
L 338.913521 244.460733 
L 339.564132 239.239351 
L 340.214742 241.206593 
L 340.865352 238.384285 
L 341.515962 240.951904 
L 342.166573 246.698742 
L 343.467793 236.136674 
L 344.118404 245.915858 
L 344.769014 235.582008 
L 345.419624 241.644605 
L 346.070235 234.566755 
L 346.720845 238.24243 
L 347.371455 239.07851 
L 348.022066 241.681186 
L 348.672676 238.366542 
L 349.323286 235.772353 
L 349.973897 238.544094 
L 350.624507 237.888605 
L 351.275117 241.974284 
L 351.925727 241.608036 
L 352.576338 245.78276 
L 353.226948 247.159664 
L 353.877558 243.712495 
L 354.528169 242.121132 
L 355.178779 241.315929 
L 355.829389 243.117616 
L 356.48 247.217418 
L 357.13061 243.024962 
L 357.78122 245.592905 
L 359.082441 238.953576 
L 359.733051 239.975123 
L 360.383662 240.245566 
L 361.034272 248.379032 
L 361.684882 246.507271 
L 362.335492 243.228906 
L 362.986103 238.402029 
L 363.636713 249.219279 
L 364.287323 250.999394 
L 364.937934 243.582085 
L 365.588544 245.744763 
L 366.239154 240.480499 
L 366.889765 237.360034 
L 367.540375 243.619329 
L 368.190985 246.087225 
L 368.841596 239.293019 
L 369.492206 239.849148 
L 370.142816 246.871358 
L 370.793427 245.536014 
L 372.094647 240.029157 
L 372.745257 246.832975 
L 373.395868 241.699482 
L 374.046478 243.117616 
L 374.697088 237.906269 
L 375.347699 239.490027 
L 375.998309 239.328812 
L 376.648919 243.787086 
L 377.29953 243.544854 
L 377.95014 243.00644 
L 379.251361 248.281752 
L 379.901971 247.333019 
L 380.552581 241.772694 
L 381.203191 242.950895 
L 381.853802 244.385675 
L 382.504412 240.335864 
L 383.155022 240.897406 
L 383.805633 244.554629 
L 384.456243 237.518334 
L 385.106853 242.323375 
L 385.757464 241.845956 
L 386.408074 237.026606 
L 387.058684 245.915858 
L 387.709295 235.04738 
L 388.359905 239.185711 
L 389.010515 239.382523 
L 389.661126 240.209467 
L 390.311736 246.526403 
L 390.962346 243.191797 
L 392.263567 247.352298 
L 392.914177 242.176252 
L 393.564787 238.348803 
L 394.215398 245.934885 
L 394.215398 245.934885 
" style="fill:none;stroke:#ff0000;stroke-linecap:square;stroke-width:1.5;"/>
   </g>
   <g id="patch_3">
    <path d="M 53.328125 277.111219 
L 53.328125 10.999219 
" style="fill:none;stroke:#000000;stroke-linecap:square;stroke-linejoin:miter;stroke-width:0.8;"/>
   </g>
   <g id="patch_4">
    <path d="M 410.448125 277.111219 
L 410.448125 10.999219 
" style="fill:none;stroke:#000000;stroke-linecap:square;stroke-linejoin:miter;stroke-width:0.8;"/>
   </g>
   <g id="patch_5">
    <path d="M 53.328125 277.111219 
L 410.448125 277.111219 
" style="fill:none;stroke:#000000;stroke-linecap:square;stroke-linejoin:miter;stroke-width:0.8;"/>
   </g>
   <g id="patch_6">
    <path d="M 53.328125 10.999219 
L 410.448125 10.999219 
" style="fill:none;stroke:#000000;stroke-linecap:square;stroke-linejoin:miter;stroke-width:0.8;"/>
   </g>
   <g id="legend_1">
    <g id="patch_7">
     <path d="M 326.948125 63.033594 
L 403.448125 63.033594 
Q 405.448125 63.033594 405.448125 61.033594 
L 405.448125 17.999219 
Q 405.448125 15.999219 403.448125 15.999219 
L 326.948125 15.999219 
Q 324.948125 15.999219 324.948125 17.999219 
L 324.948125 61.033594 
Q 324.948125 63.033594 326.948125 63.033594 
z
" style="fill:#ffffff;opacity:0.8;stroke:#cccccc;stroke-linejoin:miter;"/>
    </g>
    <g id="line2d_21">
     <path d="M 328.948125 24.097656 
L 348.948125 24.097656 
" style="fill:none;stroke:#0000ff;stroke-linecap:square;stroke-width:1.5;"/>
    </g>
    <g id="line2d_22"/>
    <g id="text_13">
     <!-- $\alpha = 0.1/8$ -->
     <defs>
      <path d="M 40.921875 25.4375 
L 40.96875 36.71875 
Q 41.015625 48.25 32.328125 48.296875 
Q 25.828125 48.34375 21.78125 42.921875 
Q 16.703125 36.234375 14.984375 27.296875 
Q 12.890625 16.546875 15.53125 11.421875 
Q 18.265625 6.203125 24.171875 6.203125 
Q 30.71875 6.203125 36.234375 16.609375 
z
M 33.84375 55.90625 
Q 49.078125 56.15625 48.875 40.375 
Q 48.875 40.375 56.5 54.6875 
L 64.5 54.6875 
L 48.734375 25.046875 
L 48.578125 14.359375 
Q 48.578125 11.96875 49.90625 9.96875 
Q 51.421875 7.625 52.984375 7.625 
L 57.328125 7.625 
L 55.859375 0 
L 50.4375 0 
Q 45.84375 0 42.53125 4.109375 
Q 40.96875 6.15625 40.921875 10.453125 
Q 37.75 5.21875 32.28125 0.78125 
Q 29.6875 -1.265625 22.703125 -1.21875 
Q 11.28125 -1.125 7.125 6.203125 
Q 2.875 13.8125 5.515625 27.296875 
Q 8.34375 41.796875 15.765625 48.390625 
Q 24.125 55.765625 33.84375 55.90625 
z
" id="DejaVuSans-Oblique-945"/>
      <path d="M 10.59375 45.40625 
L 73.1875 45.40625 
L 73.1875 37.203125 
L 10.59375 37.203125 
z
M 10.59375 25.484375 
L 73.1875 25.484375 
L 73.1875 17.1875 
L 10.59375 17.1875 
z
" id="DejaVuSans-61"/>
      <path d="M 10.6875 12.40625 
L 21 12.40625 
L 21 0 
L 10.6875 0 
z
" id="DejaVuSans-46"/>
      <path d="M 25.390625 72.90625 
L 33.6875 72.90625 
L 8.296875 -9.28125 
L 0 -9.28125 
z
" id="DejaVuSans-47"/>
      <path d="M 31.78125 34.625 
Q 24.75 34.625 20.71875 30.859375 
Q 16.703125 27.09375 16.703125 20.515625 
Q 16.703125 13.921875 20.71875 10.15625 
Q 24.75 6.390625 31.78125 6.390625 
Q 38.8125 6.390625 42.859375 10.171875 
Q 46.921875 13.96875 46.921875 20.515625 
Q 46.921875 27.09375 42.890625 30.859375 
Q 38.875 34.625 31.78125 34.625 
z
M 21.921875 38.8125 
Q 15.578125 40.375 12.03125 44.71875 
Q 8.5 49.078125 8.5 55.328125 
Q 8.5 64.0625 14.71875 69.140625 
Q 20.953125 74.21875 31.78125 74.21875 
Q 42.671875 74.21875 48.875 69.140625 
Q 55.078125 64.0625 55.078125 55.328125 
Q 55.078125 49.078125 51.53125 44.71875 
Q 48 40.375 41.703125 38.8125 
Q 48.828125 37.15625 52.796875 32.3125 
Q 56.78125 27.484375 56.78125 20.515625 
Q 56.78125 9.90625 50.3125 4.234375 
Q 43.84375 -1.421875 31.78125 -1.421875 
Q 19.734375 -1.421875 13.25 4.234375 
Q 6.78125 9.90625 6.78125 20.515625 
Q 6.78125 27.484375 10.78125 32.3125 
Q 14.796875 37.15625 21.921875 38.8125 
z
M 18.3125 54.390625 
Q 18.3125 48.734375 21.84375 45.5625 
Q 25.390625 42.390625 31.78125 42.390625 
Q 38.140625 42.390625 41.71875 45.5625 
Q 45.3125 48.734375 45.3125 54.390625 
Q 45.3125 60.0625 41.71875 63.234375 
Q 38.140625 66.40625 31.78125 66.40625 
Q 25.390625 66.40625 21.84375 63.234375 
Q 18.3125 60.0625 18.3125 54.390625 
z
" id="DejaVuSans-56"/>
     </defs>
     <g transform="translate(356.948125 27.597656)scale(0.1 -0.1)">
      <use transform="translate(0 0.78125)" xlink:href="#DejaVuSans-Oblique-945"/>
      <use transform="translate(85.400391 0.78125)" xlink:href="#DejaVuSans-61"/>
      <use transform="translate(188.671875 0.78125)" xlink:href="#DejaVuSans-48"/>
      <use transform="translate(252.294922 0.78125)" xlink:href="#DejaVuSans-46"/>
      <use transform="translate(284.082031 0.78125)" xlink:href="#DejaVuSans-49"/>
      <use transform="translate(347.705078 0.78125)" xlink:href="#DejaVuSans-47"/>
      <use transform="translate(381.318359 0.78125)" xlink:href="#DejaVuSans-56"/>
     </g>
    </g>
    <g id="line2d_23">
     <path d="M 328.948125 38.775781 
L 348.948125 38.775781 
" style="fill:none;stroke:#008000;stroke-linecap:square;stroke-width:1.5;"/>
    </g>
    <g id="line2d_24"/>
    <g id="text_14">
     <!-- $\alpha = 0.2/8$ -->
     <g transform="translate(356.948125 42.275781)scale(0.1 -0.1)">
      <use transform="translate(0 0.78125)" xlink:href="#DejaVuSans-Oblique-945"/>
      <use transform="translate(85.400391 0.78125)" xlink:href="#DejaVuSans-61"/>
      <use transform="translate(188.671875 0.78125)" xlink:href="#DejaVuSans-48"/>
      <use transform="translate(252.294922 0.78125)" xlink:href="#DejaVuSans-46"/>
      <use transform="translate(284.003906 0.78125)" xlink:href="#DejaVuSans-50"/>
      <use transform="translate(347.626953 0.78125)" xlink:href="#DejaVuSans-47"/>
      <use transform="translate(381.240234 0.78125)" xlink:href="#DejaVuSans-56"/>
     </g>
    </g>
    <g id="line2d_25">
     <path d="M 328.948125 53.453906 
L 348.948125 53.453906 
" style="fill:none;stroke:#ff0000;stroke-linecap:square;stroke-width:1.5;"/>
    </g>
    <g id="line2d_26"/>
    <g id="text_15">
     <!-- $\alpha = 0.5/8$ -->
     <g transform="translate(356.948125 56.953906)scale(0.1 -0.1)">
      <use transform="translate(0 0.78125)" xlink:href="#DejaVuSans-Oblique-945"/>
      <use transform="translate(85.400391 0.78125)" xlink:href="#DejaVuSans-61"/>
      <use transform="translate(188.671875 0.78125)" xlink:href="#DejaVuSans-48"/>
      <use transform="translate(252.294922 0.78125)" xlink:href="#DejaVuSans-46"/>
      <use transform="translate(284.082031 0.78125)" xlink:href="#DejaVuSans-53"/>
      <use transform="translate(347.705078 0.78125)" xlink:href="#DejaVuSans-47"/>
      <use transform="translate(381.318359 0.78125)" xlink:href="#DejaVuSans-56"/>
     </g>
    </g>
   </g>
  </g>
 </g>
 <defs>
  <clipPath id="p6c55ce31c2">
   <rect height="266.112" width="357.12" x="53.328125" y="10.999219"/>
  </clipPath>
 </defs>
</svg>
