<?xml version="1.0" encoding="utf-8" standalone="no"?>
<!DOCTYPE svg PUBLIC "-//W3C//DTD SVG 1.1//EN"
  "http://www.w3.org/Graphics/SVG/1.1/DTD/svg11.dtd">
<!-- Created with matplotlib (https://matplotlib.org/) -->
<svg height="270.315469pt" version="1.1" viewBox="0 0 451.128125 270.315469" width="451.128125pt" xmlns="http://www.w3.org/2000/svg" xmlns:xlink="http://www.w3.org/1999/xlink">
 <defs>
  <style type="text/css">
*{stroke-linecap:butt;stroke-linejoin:round;}
  </style>
 </defs>
 <g id="figure_1">
  <g id="patch_1">
   <path d="M 0 270.315469 
L 451.128125 270.315469 
L 451.128125 0 
L 0 0 
z
" style="fill:#ffffff;"/>
  </g>
  <g id="axes_1">
   <g id="patch_2">
    <path d="M 53.328125 232.759219 
L 443.928125 232.759219 
L 443.928125 10.999219 
L 53.328125 10.999219 
z
" style="fill:#ffffff;"/>
   </g>
   <g id="matplotlib.axis_1">
    <g id="xtick_1">
     <g id="line2d_1">
      <defs>
       <path d="M 0 0 
L 0 3.5 
" id="m545be52a59" style="stroke:#000000;stroke-width:0.8;"/>
      </defs>
      <g>
       <use style="stroke:#000000;stroke-width:0.8;" x="71.08267" xlink:href="#m545be52a59" y="232.759219"/>
      </g>
     </g>
     <g id="text_1">
      <!-- 0 -->
      <defs>
       <path d="M 31.78125 66.40625 
Q 24.171875 66.40625 20.328125 58.90625 
Q 16.5 51.421875 16.5 36.375 
Q 16.5 21.390625 20.328125 13.890625 
Q 24.171875 6.390625 31.78125 6.390625 
Q 39.453125 6.390625 43.28125 13.890625 
Q 47.125 21.390625 47.125 36.375 
Q 47.125 51.421875 43.28125 58.90625 
Q 39.453125 66.40625 31.78125 66.40625 
z
M 31.78125 74.21875 
Q 44.046875 74.21875 50.515625 64.515625 
Q 56.984375 54.828125 56.984375 36.375 
Q 56.984375 17.96875 50.515625 8.265625 
Q 44.046875 -1.421875 31.78125 -1.421875 
Q 19.53125 -1.421875 13.0625 8.265625 
Q 6.59375 17.96875 6.59375 36.375 
Q 6.59375 54.828125 13.0625 64.515625 
Q 19.53125 74.21875 31.78125 74.21875 
z
" id="DejaVuSans-48"/>
      </defs>
      <g transform="translate(67.90142 247.357656)scale(0.1 -0.1)">
       <use xlink:href="#DejaVuSans-48"/>
      </g>
     </g>
    </g>
    <g id="xtick_2">
     <g id="line2d_2">
      <g>
       <use style="stroke:#000000;stroke-width:0.8;" x="142.243173" xlink:href="#m545be52a59" y="232.759219"/>
      </g>
     </g>
     <g id="text_2">
      <!-- 100 -->
      <defs>
       <path d="M 12.40625 8.296875 
L 28.515625 8.296875 
L 28.515625 63.921875 
L 10.984375 60.40625 
L 10.984375 69.390625 
L 28.421875 72.90625 
L 38.28125 72.90625 
L 38.28125 8.296875 
L 54.390625 8.296875 
L 54.390625 0 
L 12.40625 0 
z
" id="DejaVuSans-49"/>
      </defs>
      <g transform="translate(132.699423 247.357656)scale(0.1 -0.1)">
       <use xlink:href="#DejaVuSans-49"/>
       <use x="63.623047" xlink:href="#DejaVuSans-48"/>
       <use x="127.246094" xlink:href="#DejaVuSans-48"/>
      </g>
     </g>
    </g>
    <g id="xtick_3">
     <g id="line2d_3">
      <g>
       <use style="stroke:#000000;stroke-width:0.8;" x="213.403676" xlink:href="#m545be52a59" y="232.759219"/>
      </g>
     </g>
     <g id="text_3">
      <!-- 200 -->
      <defs>
       <path d="M 19.1875 8.296875 
L 53.609375 8.296875 
L 53.609375 0 
L 7.328125 0 
L 7.328125 8.296875 
Q 12.9375 14.109375 22.625 23.890625 
Q 32.328125 33.6875 34.8125 36.53125 
Q 39.546875 41.84375 41.421875 45.53125 
Q 43.3125 49.21875 43.3125 52.78125 
Q 43.3125 58.59375 39.234375 62.25 
Q 35.15625 65.921875 28.609375 65.921875 
Q 23.96875 65.921875 18.8125 64.3125 
Q 13.671875 62.703125 7.8125 59.421875 
L 7.8125 69.390625 
Q 13.765625 71.78125 18.9375 73 
Q 24.125 74.21875 28.421875 74.21875 
Q 39.75 74.21875 46.484375 68.546875 
Q 53.21875 62.890625 53.21875 53.421875 
Q 53.21875 48.921875 51.53125 44.890625 
Q 49.859375 40.875 45.40625 35.40625 
Q 44.1875 33.984375 37.640625 27.21875 
Q 31.109375 20.453125 19.1875 8.296875 
z
" id="DejaVuSans-50"/>
      </defs>
      <g transform="translate(203.859926 247.357656)scale(0.1 -0.1)">
       <use xlink:href="#DejaVuSans-50"/>
       <use x="63.623047" xlink:href="#DejaVuSans-48"/>
       <use x="127.246094" xlink:href="#DejaVuSans-48"/>
      </g>
     </g>
    </g>
    <g id="xtick_4">
     <g id="line2d_4">
      <g>
       <use style="stroke:#000000;stroke-width:0.8;" x="284.564179" xlink:href="#m545be52a59" y="232.759219"/>
      </g>
     </g>
     <g id="text_4">
      <!-- 300 -->
      <defs>
       <path d="M 40.578125 39.3125 
Q 47.65625 37.796875 51.625 33 
Q 55.609375 28.21875 55.609375 21.1875 
Q 55.609375 10.40625 48.1875 4.484375 
Q 40.765625 -1.421875 27.09375 -1.421875 
Q 22.515625 -1.421875 17.65625 -0.515625 
Q 12.796875 0.390625 7.625 2.203125 
L 7.625 11.71875 
Q 11.71875 9.328125 16.59375 8.109375 
Q 21.484375 6.890625 26.8125 6.890625 
Q 36.078125 6.890625 40.9375 10.546875 
Q 45.796875 14.203125 45.796875 21.1875 
Q 45.796875 27.640625 41.28125 31.265625 
Q 36.765625 34.90625 28.71875 34.90625 
L 20.21875 34.90625 
L 20.21875 43.015625 
L 29.109375 43.015625 
Q 36.375 43.015625 40.234375 45.921875 
Q 44.09375 48.828125 44.09375 54.296875 
Q 44.09375 59.90625 40.109375 62.90625 
Q 36.140625 65.921875 28.71875 65.921875 
Q 24.65625 65.921875 20.015625 65.03125 
Q 15.375 64.15625 9.8125 62.3125 
L 9.8125 71.09375 
Q 15.4375 72.65625 20.34375 73.4375 
Q 25.25 74.21875 29.59375 74.21875 
Q 40.828125 74.21875 47.359375 69.109375 
Q 53.90625 64.015625 53.90625 55.328125 
Q 53.90625 49.265625 50.4375 45.09375 
Q 46.96875 40.921875 40.578125 39.3125 
z
" id="DejaVuSans-51"/>
      </defs>
      <g transform="translate(275.020429 247.357656)scale(0.1 -0.1)">
       <use xlink:href="#DejaVuSans-51"/>
       <use x="63.623047" xlink:href="#DejaVuSans-48"/>
       <use x="127.246094" xlink:href="#DejaVuSans-48"/>
      </g>
     </g>
    </g>
    <g id="xtick_5">
     <g id="line2d_5">
      <g>
       <use style="stroke:#000000;stroke-width:0.8;" x="355.724682" xlink:href="#m545be52a59" y="232.759219"/>
      </g>
     </g>
     <g id="text_5">
      <!-- 400 -->
      <defs>
       <path d="M 37.796875 64.3125 
L 12.890625 25.390625 
L 37.796875 25.390625 
z
M 35.203125 72.90625 
L 47.609375 72.90625 
L 47.609375 25.390625 
L 58.015625 25.390625 
L 58.015625 17.1875 
L 47.609375 17.1875 
L 47.609375 0 
L 37.796875 0 
L 37.796875 17.1875 
L 4.890625 17.1875 
L 4.890625 26.703125 
z
" id="DejaVuSans-52"/>
      </defs>
      <g transform="translate(346.180932 247.357656)scale(0.1 -0.1)">
       <use xlink:href="#DejaVuSans-52"/>
       <use x="63.623047" xlink:href="#DejaVuSans-48"/>
       <use x="127.246094" xlink:href="#DejaVuSans-48"/>
      </g>
     </g>
    </g>
    <g id="xtick_6">
     <g id="line2d_6">
      <g>
       <use style="stroke:#000000;stroke-width:0.8;" x="426.885185" xlink:href="#m545be52a59" y="232.759219"/>
      </g>
     </g>
     <g id="text_6">
      <!-- 500 -->
      <defs>
       <path d="M 10.796875 72.90625 
L 49.515625 72.90625 
L 49.515625 64.59375 
L 19.828125 64.59375 
L 19.828125 46.734375 
Q 21.96875 47.46875 24.109375 47.828125 
Q 26.265625 48.1875 28.421875 48.1875 
Q 40.625 48.1875 47.75 41.5 
Q 54.890625 34.8125 54.890625 23.390625 
Q 54.890625 11.625 47.5625 5.09375 
Q 40.234375 -1.421875 26.90625 -1.421875 
Q 22.3125 -1.421875 17.546875 -0.640625 
Q 12.796875 0.140625 7.71875 1.703125 
L 7.71875 11.625 
Q 12.109375 9.234375 16.796875 8.0625 
Q 21.484375 6.890625 26.703125 6.890625 
Q 35.15625 6.890625 40.078125 11.328125 
Q 45.015625 15.765625 45.015625 23.390625 
Q 45.015625 31 40.078125 35.4375 
Q 35.15625 39.890625 26.703125 39.890625 
Q 22.75 39.890625 18.8125 39.015625 
Q 14.890625 38.140625 10.796875 36.28125 
z
" id="DejaVuSans-53"/>
      </defs>
      <g transform="translate(417.341435 247.357656)scale(0.1 -0.1)">
       <use xlink:href="#DejaVuSans-53"/>
       <use x="63.623047" xlink:href="#DejaVuSans-48"/>
       <use x="127.246094" xlink:href="#DejaVuSans-48"/>
      </g>
     </g>
    </g>
    <g id="text_7">
     <!-- Episode -->
     <defs>
      <path d="M 9.8125 72.90625 
L 55.90625 72.90625 
L 55.90625 64.59375 
L 19.671875 64.59375 
L 19.671875 43.015625 
L 54.390625 43.015625 
L 54.390625 34.71875 
L 19.671875 34.71875 
L 19.671875 8.296875 
L 56.78125 8.296875 
L 56.78125 0 
L 9.8125 0 
z
" id="DejaVuSans-69"/>
      <path d="M 18.109375 8.203125 
L 18.109375 -20.796875 
L 9.078125 -20.796875 
L 9.078125 54.6875 
L 18.109375 54.6875 
L 18.109375 46.390625 
Q 20.953125 51.265625 25.265625 53.625 
Q 29.59375 56 35.59375 56 
Q 45.5625 56 51.78125 48.09375 
Q 58.015625 40.1875 58.015625 27.296875 
Q 58.015625 14.40625 51.78125 6.484375 
Q 45.5625 -1.421875 35.59375 -1.421875 
Q 29.59375 -1.421875 25.265625 0.953125 
Q 20.953125 3.328125 18.109375 8.203125 
z
M 48.6875 27.296875 
Q 48.6875 37.203125 44.609375 42.84375 
Q 40.53125 48.484375 33.40625 48.484375 
Q 26.265625 48.484375 22.1875 42.84375 
Q 18.109375 37.203125 18.109375 27.296875 
Q 18.109375 17.390625 22.1875 11.75 
Q 26.265625 6.109375 33.40625 6.109375 
Q 40.53125 6.109375 44.609375 11.75 
Q 48.6875 17.390625 48.6875 27.296875 
z
" id="DejaVuSans-112"/>
      <path d="M 9.421875 54.6875 
L 18.40625 54.6875 
L 18.40625 0 
L 9.421875 0 
z
M 9.421875 75.984375 
L 18.40625 75.984375 
L 18.40625 64.59375 
L 9.421875 64.59375 
z
" id="DejaVuSans-105"/>
      <path d="M 44.28125 53.078125 
L 44.28125 44.578125 
Q 40.484375 46.53125 36.375 47.5 
Q 32.28125 48.484375 27.875 48.484375 
Q 21.1875 48.484375 17.84375 46.4375 
Q 14.5 44.390625 14.5 40.28125 
Q 14.5 37.15625 16.890625 35.375 
Q 19.28125 33.59375 26.515625 31.984375 
L 29.59375 31.296875 
Q 39.15625 29.25 43.1875 25.515625 
Q 47.21875 21.78125 47.21875 15.09375 
Q 47.21875 7.46875 41.1875 3.015625 
Q 35.15625 -1.421875 24.609375 -1.421875 
Q 20.21875 -1.421875 15.453125 -0.5625 
Q 10.6875 0.296875 5.421875 2 
L 5.421875 11.28125 
Q 10.40625 8.6875 15.234375 7.390625 
Q 20.0625 6.109375 24.8125 6.109375 
Q 31.15625 6.109375 34.5625 8.28125 
Q 37.984375 10.453125 37.984375 14.40625 
Q 37.984375 18.0625 35.515625 20.015625 
Q 33.0625 21.96875 24.703125 23.78125 
L 21.578125 24.515625 
Q 13.234375 26.265625 9.515625 29.90625 
Q 5.8125 33.546875 5.8125 39.890625 
Q 5.8125 47.609375 11.28125 51.796875 
Q 16.75 56 26.8125 56 
Q 31.78125 56 36.171875 55.265625 
Q 40.578125 54.546875 44.28125 53.078125 
z
" id="DejaVuSans-115"/>
      <path d="M 30.609375 48.390625 
Q 23.390625 48.390625 19.1875 42.75 
Q 14.984375 37.109375 14.984375 27.296875 
Q 14.984375 17.484375 19.15625 11.84375 
Q 23.34375 6.203125 30.609375 6.203125 
Q 37.796875 6.203125 41.984375 11.859375 
Q 46.1875 17.53125 46.1875 27.296875 
Q 46.1875 37.015625 41.984375 42.703125 
Q 37.796875 48.390625 30.609375 48.390625 
z
M 30.609375 56 
Q 42.328125 56 49.015625 48.375 
Q 55.71875 40.765625 55.71875 27.296875 
Q 55.71875 13.875 49.015625 6.21875 
Q 42.328125 -1.421875 30.609375 -1.421875 
Q 18.84375 -1.421875 12.171875 6.21875 
Q 5.515625 13.875 5.515625 27.296875 
Q 5.515625 40.765625 12.171875 48.375 
Q 18.84375 56 30.609375 56 
z
" id="DejaVuSans-111"/>
      <path d="M 45.40625 46.390625 
L 45.40625 75.984375 
L 54.390625 75.984375 
L 54.390625 0 
L 45.40625 0 
L 45.40625 8.203125 
Q 42.578125 3.328125 38.25 0.953125 
Q 33.9375 -1.421875 27.875 -1.421875 
Q 17.96875 -1.421875 11.734375 6.484375 
Q 5.515625 14.40625 5.515625 27.296875 
Q 5.515625 40.1875 11.734375 48.09375 
Q 17.96875 56 27.875 56 
Q 33.9375 56 38.25 53.625 
Q 42.578125 51.265625 45.40625 46.390625 
z
M 14.796875 27.296875 
Q 14.796875 17.390625 18.875 11.75 
Q 22.953125 6.109375 30.078125 6.109375 
Q 37.203125 6.109375 41.296875 11.75 
Q 45.40625 17.390625 45.40625 27.296875 
Q 45.40625 37.203125 41.296875 42.84375 
Q 37.203125 48.484375 30.078125 48.484375 
Q 22.953125 48.484375 18.875 42.84375 
Q 14.796875 37.203125 14.796875 27.296875 
z
" id="DejaVuSans-100"/>
      <path d="M 56.203125 29.59375 
L 56.203125 25.203125 
L 14.890625 25.203125 
Q 15.484375 15.921875 20.484375 11.0625 
Q 25.484375 6.203125 34.421875 6.203125 
Q 39.59375 6.203125 44.453125 7.46875 
Q 49.3125 8.734375 54.109375 11.28125 
L 54.109375 2.78125 
Q 49.265625 0.734375 44.1875 -0.34375 
Q 39.109375 -1.421875 33.890625 -1.421875 
Q 20.796875 -1.421875 13.15625 6.1875 
Q 5.515625 13.8125 5.515625 26.8125 
Q 5.515625 40.234375 12.765625 48.109375 
Q 20.015625 56 32.328125 56 
Q 43.359375 56 49.78125 48.890625 
Q 56.203125 41.796875 56.203125 29.59375 
z
M 47.21875 32.234375 
Q 47.125 39.59375 43.09375 43.984375 
Q 39.0625 48.390625 32.421875 48.390625 
Q 24.90625 48.390625 20.390625 44.140625 
Q 15.875 39.890625 15.1875 32.171875 
z
" id="DejaVuSans-101"/>
     </defs>
     <g transform="translate(228.990625 261.035781)scale(0.1 -0.1)">
      <use xlink:href="#DejaVuSans-69"/>
      <use x="63.183594" xlink:href="#DejaVuSans-112"/>
      <use x="126.660156" xlink:href="#DejaVuSans-105"/>
      <use x="154.443359" xlink:href="#DejaVuSans-115"/>
      <use x="206.542969" xlink:href="#DejaVuSans-111"/>
      <use x="267.724609" xlink:href="#DejaVuSans-100"/>
      <use x="331.201172" xlink:href="#DejaVuSans-101"/>
     </g>
    </g>
   </g>
   <g id="matplotlib.axis_2">
    <g id="ytick_1">
     <g id="line2d_7">
      <defs>
       <path d="M 0 0 
L -3.5 0 
" id="m4cf6211716" style="stroke:#000000;stroke-width:0.8;"/>
      </defs>
      <g>
       <use style="stroke:#000000;stroke-width:0.8;" x="53.328125" xlink:href="#m4cf6211716" y="218.139066"/>
      </g>
     </g>
     <g id="text_8">
      <!-- 100 -->
      <g transform="translate(27.240625 221.938285)scale(0.1 -0.1)">
       <use xlink:href="#DejaVuSans-49"/>
       <use x="63.623047" xlink:href="#DejaVuSans-48"/>
       <use x="127.246094" xlink:href="#DejaVuSans-48"/>
      </g>
     </g>
    </g>
    <g id="ytick_2">
     <g id="line2d_8">
      <g>
       <use style="stroke:#000000;stroke-width:0.8;" x="53.328125" xlink:href="#m4cf6211716" y="155.783759"/>
      </g>
     </g>
     <g id="text_9">
      <!-- 200 -->
      <g transform="translate(27.240625 159.582977)scale(0.1 -0.1)">
       <use xlink:href="#DejaVuSans-50"/>
       <use x="63.623047" xlink:href="#DejaVuSans-48"/>
       <use x="127.246094" xlink:href="#DejaVuSans-48"/>
      </g>
     </g>
    </g>
    <g id="ytick_3">
     <g id="line2d_9">
      <g>
       <use style="stroke:#000000;stroke-width:0.8;" x="53.328125" xlink:href="#m4cf6211716" y="93.428451"/>
      </g>
     </g>
     <g id="text_10">
      <!-- 400 -->
      <g transform="translate(27.240625 97.22767)scale(0.1 -0.1)">
       <use xlink:href="#DejaVuSans-52"/>
       <use x="63.623047" xlink:href="#DejaVuSans-48"/>
       <use x="127.246094" xlink:href="#DejaVuSans-48"/>
      </g>
     </g>
    </g>
    <g id="ytick_4">
     <g id="line2d_10">
      <g>
       <use style="stroke:#000000;stroke-width:0.8;" x="53.328125" xlink:href="#m4cf6211716" y="10.999219"/>
      </g>
     </g>
     <g id="text_11">
      <!-- 1000 -->
      <g transform="translate(20.878125 14.798437)scale(0.1 -0.1)">
       <use xlink:href="#DejaVuSans-49"/>
       <use x="63.623047" xlink:href="#DejaVuSans-48"/>
       <use x="127.246094" xlink:href="#DejaVuSans-48"/>
       <use x="190.869141" xlink:href="#DejaVuSans-48"/>
      </g>
     </g>
    </g>
    <g id="ytick_5">
     <g id="line2d_11">
      <defs>
       <path d="M 0 0 
L -2 0 
" id="md78fc34665" style="stroke:#000000;stroke-width:0.6;"/>
      </defs>
      <g>
       <use style="stroke:#000000;stroke-width:0.6;" x="53.328125" xlink:href="#md78fc34665" y="227.617265"/>
      </g>
     </g>
    </g>
    <g id="ytick_6">
     <g id="line2d_12">
      <g>
       <use style="stroke:#000000;stroke-width:0.6;" x="53.328125" xlink:href="#md78fc34665" y="119.308242"/>
      </g>
     </g>
    </g>
    <g id="ytick_7">
     <g id="line2d_13">
      <g>
       <use style="stroke:#000000;stroke-width:0.6;" x="53.328125" xlink:href="#md78fc34665" y="73.354526"/>
      </g>
     </g>
    </g>
    <g id="ytick_8">
     <g id="line2d_14">
      <g>
       <use style="stroke:#000000;stroke-width:0.6;" x="53.328125" xlink:href="#md78fc34665" y="56.952935"/>
      </g>
     </g>
    </g>
    <g id="ytick_9">
     <g id="line2d_15">
      <g>
       <use style="stroke:#000000;stroke-width:0.6;" x="53.328125" xlink:href="#md78fc34665" y="43.085587"/>
      </g>
     </g>
    </g>
    <g id="ytick_10">
     <g id="line2d_16">
      <g>
       <use style="stroke:#000000;stroke-width:0.6;" x="53.328125" xlink:href="#md78fc34665" y="31.073144"/>
      </g>
     </g>
    </g>
    <g id="ytick_11">
     <g id="line2d_17">
      <g>
       <use style="stroke:#000000;stroke-width:0.6;" x="53.328125" xlink:href="#md78fc34665" y="20.477418"/>
      </g>
     </g>
    </g>
    <g id="text_12">
     <!-- Steps per episode averaged over 50 runs -->
     <defs>
      <path d="M 53.515625 70.515625 
L 53.515625 60.890625 
Q 47.90625 63.578125 42.921875 64.890625 
Q 37.9375 66.21875 33.296875 66.21875 
Q 25.25 66.21875 20.875 63.09375 
Q 16.5 59.96875 16.5 54.203125 
Q 16.5 49.359375 19.40625 46.890625 
Q 22.3125 44.4375 30.421875 42.921875 
L 36.375 41.703125 
Q 47.40625 39.59375 52.65625 34.296875 
Q 57.90625 29 57.90625 20.125 
Q 57.90625 9.515625 50.796875 4.046875 
Q 43.703125 -1.421875 29.984375 -1.421875 
Q 24.8125 -1.421875 18.96875 -0.25 
Q 13.140625 0.921875 6.890625 3.21875 
L 6.890625 13.375 
Q 12.890625 10.015625 18.65625 8.296875 
Q 24.421875 6.59375 29.984375 6.59375 
Q 38.421875 6.59375 43.015625 9.90625 
Q 47.609375 13.234375 47.609375 19.390625 
Q 47.609375 24.75 44.3125 27.78125 
Q 41.015625 30.8125 33.5 32.328125 
L 27.484375 33.5 
Q 16.453125 35.6875 11.515625 40.375 
Q 6.59375 45.0625 6.59375 53.421875 
Q 6.59375 63.09375 13.40625 68.65625 
Q 20.21875 74.21875 32.171875 74.21875 
Q 37.3125 74.21875 42.625 73.28125 
Q 47.953125 72.359375 53.515625 70.515625 
z
" id="DejaVuSans-83"/>
      <path d="M 18.3125 70.21875 
L 18.3125 54.6875 
L 36.8125 54.6875 
L 36.8125 47.703125 
L 18.3125 47.703125 
L 18.3125 18.015625 
Q 18.3125 11.328125 20.140625 9.421875 
Q 21.96875 7.515625 27.59375 7.515625 
L 36.8125 7.515625 
L 36.8125 0 
L 27.59375 0 
Q 17.1875 0 13.234375 3.875 
Q 9.28125 7.765625 9.28125 18.015625 
L 9.28125 47.703125 
L 2.6875 47.703125 
L 2.6875 54.6875 
L 9.28125 54.6875 
L 9.28125 70.21875 
z
" id="DejaVuSans-116"/>
      <path id="DejaVuSans-32"/>
      <path d="M 41.109375 46.296875 
Q 39.59375 47.171875 37.8125 47.578125 
Q 36.03125 48 33.890625 48 
Q 26.265625 48 22.1875 43.046875 
Q 18.109375 38.09375 18.109375 28.8125 
L 18.109375 0 
L 9.078125 0 
L 9.078125 54.6875 
L 18.109375 54.6875 
L 18.109375 46.1875 
Q 20.953125 51.171875 25.484375 53.578125 
Q 30.03125 56 36.53125 56 
Q 37.453125 56 38.578125 55.875 
Q 39.703125 55.765625 41.0625 55.515625 
z
" id="DejaVuSans-114"/>
      <path d="M 34.28125 27.484375 
Q 23.390625 27.484375 19.1875 25 
Q 14.984375 22.515625 14.984375 16.5 
Q 14.984375 11.71875 18.140625 8.90625 
Q 21.296875 6.109375 26.703125 6.109375 
Q 34.1875 6.109375 38.703125 11.40625 
Q 43.21875 16.703125 43.21875 25.484375 
L 43.21875 27.484375 
z
M 52.203125 31.203125 
L 52.203125 0 
L 43.21875 0 
L 43.21875 8.296875 
Q 40.140625 3.328125 35.546875 0.953125 
Q 30.953125 -1.421875 24.3125 -1.421875 
Q 15.921875 -1.421875 10.953125 3.296875 
Q 6 8.015625 6 15.921875 
Q 6 25.140625 12.171875 29.828125 
Q 18.359375 34.515625 30.609375 34.515625 
L 43.21875 34.515625 
L 43.21875 35.40625 
Q 43.21875 41.609375 39.140625 45 
Q 35.0625 48.390625 27.6875 48.390625 
Q 23 48.390625 18.546875 47.265625 
Q 14.109375 46.140625 10.015625 43.890625 
L 10.015625 52.203125 
Q 14.9375 54.109375 19.578125 55.046875 
Q 24.21875 56 28.609375 56 
Q 40.484375 56 46.34375 49.84375 
Q 52.203125 43.703125 52.203125 31.203125 
z
" id="DejaVuSans-97"/>
      <path d="M 2.984375 54.6875 
L 12.5 54.6875 
L 29.59375 8.796875 
L 46.6875 54.6875 
L 56.203125 54.6875 
L 35.6875 0 
L 23.484375 0 
z
" id="DejaVuSans-118"/>
      <path d="M 45.40625 27.984375 
Q 45.40625 37.75 41.375 43.109375 
Q 37.359375 48.484375 30.078125 48.484375 
Q 22.859375 48.484375 18.828125 43.109375 
Q 14.796875 37.75 14.796875 27.984375 
Q 14.796875 18.265625 18.828125 12.890625 
Q 22.859375 7.515625 30.078125 7.515625 
Q 37.359375 7.515625 41.375 12.890625 
Q 45.40625 18.265625 45.40625 27.984375 
z
M 54.390625 6.78125 
Q 54.390625 -7.171875 48.1875 -13.984375 
Q 42 -20.796875 29.203125 -20.796875 
Q 24.46875 -20.796875 20.265625 -20.09375 
Q 16.0625 -19.390625 12.109375 -17.921875 
L 12.109375 -9.1875 
Q 16.0625 -11.328125 19.921875 -12.34375 
Q 23.78125 -13.375 27.78125 -13.375 
Q 36.625 -13.375 41.015625 -8.765625 
Q 45.40625 -4.15625 45.40625 5.171875 
L 45.40625 9.625 
Q 42.625 4.78125 38.28125 2.390625 
Q 33.9375 0 27.875 0 
Q 17.828125 0 11.671875 7.65625 
Q 5.515625 15.328125 5.515625 27.984375 
Q 5.515625 40.671875 11.671875 48.328125 
Q 17.828125 56 27.875 56 
Q 33.9375 56 38.28125 53.609375 
Q 42.625 51.21875 45.40625 46.390625 
L 45.40625 54.6875 
L 54.390625 54.6875 
z
" id="DejaVuSans-103"/>
      <path d="M 8.5 21.578125 
L 8.5 54.6875 
L 17.484375 54.6875 
L 17.484375 21.921875 
Q 17.484375 14.15625 20.5 10.265625 
Q 23.53125 6.390625 29.59375 6.390625 
Q 36.859375 6.390625 41.078125 11.03125 
Q 45.3125 15.671875 45.3125 23.6875 
L 45.3125 54.6875 
L 54.296875 54.6875 
L 54.296875 0 
L 45.3125 0 
L 45.3125 8.40625 
Q 42.046875 3.421875 37.71875 1 
Q 33.40625 -1.421875 27.6875 -1.421875 
Q 18.265625 -1.421875 13.375 4.4375 
Q 8.5 10.296875 8.5 21.578125 
z
M 31.109375 56 
z
" id="DejaVuSans-117"/>
      <path d="M 54.890625 33.015625 
L 54.890625 0 
L 45.90625 0 
L 45.90625 32.71875 
Q 45.90625 40.484375 42.875 44.328125 
Q 39.84375 48.1875 33.796875 48.1875 
Q 26.515625 48.1875 22.3125 43.546875 
Q 18.109375 38.921875 18.109375 30.90625 
L 18.109375 0 
L 9.078125 0 
L 9.078125 54.6875 
L 18.109375 54.6875 
L 18.109375 46.1875 
Q 21.34375 51.125 25.703125 53.5625 
Q 30.078125 56 35.796875 56 
Q 45.21875 56 50.046875 50.171875 
Q 54.890625 44.34375 54.890625 33.015625 
z
" id="DejaVuSans-110"/>
     </defs>
     <g transform="translate(14.798438 225.419844)rotate(-90)scale(0.1 -0.1)">
      <use xlink:href="#DejaVuSans-83"/>
      <use x="63.476562" xlink:href="#DejaVuSans-116"/>
      <use x="102.685547" xlink:href="#DejaVuSans-101"/>
      <use x="164.208984" xlink:href="#DejaVuSans-112"/>
      <use x="227.685547" xlink:href="#DejaVuSans-115"/>
      <use x="279.785156" xlink:href="#DejaVuSans-32"/>
      <use x="311.572266" xlink:href="#DejaVuSans-112"/>
      <use x="375.048828" xlink:href="#DejaVuSans-101"/>
      <use x="436.572266" xlink:href="#DejaVuSans-114"/>
      <use x="477.685547" xlink:href="#DejaVuSans-32"/>
      <use x="509.472656" xlink:href="#DejaVuSans-101"/>
      <use x="570.996094" xlink:href="#DejaVuSans-112"/>
      <use x="634.472656" xlink:href="#DejaVuSans-105"/>
      <use x="662.255859" xlink:href="#DejaVuSans-115"/>
      <use x="714.355469" xlink:href="#DejaVuSans-111"/>
      <use x="775.537109" xlink:href="#DejaVuSans-100"/>
      <use x="839.013672" xlink:href="#DejaVuSans-101"/>
      <use x="900.537109" xlink:href="#DejaVuSans-32"/>
      <use x="932.324219" xlink:href="#DejaVuSans-97"/>
      <use x="993.603516" xlink:href="#DejaVuSans-118"/>
      <use x="1052.783203" xlink:href="#DejaVuSans-101"/>
      <use x="1114.306641" xlink:href="#DejaVuSans-114"/>
      <use x="1155.419922" xlink:href="#DejaVuSans-97"/>
      <use x="1216.699219" xlink:href="#DejaVuSans-103"/>
      <use x="1280.175781" xlink:href="#DejaVuSans-101"/>
      <use x="1341.699219" xlink:href="#DejaVuSans-100"/>
      <use x="1405.175781" xlink:href="#DejaVuSans-32"/>
      <use x="1436.962891" xlink:href="#DejaVuSans-111"/>
      <use x="1498.144531" xlink:href="#DejaVuSans-118"/>
      <use x="1557.324219" xlink:href="#DejaVuSans-101"/>
      <use x="1618.847656" xlink:href="#DejaVuSans-114"/>
      <use x="1659.960938" xlink:href="#DejaVuSans-32"/>
      <use x="1691.748047" xlink:href="#DejaVuSans-53"/>
      <use x="1755.371094" xlink:href="#DejaVuSans-48"/>
      <use x="1818.994141" xlink:href="#DejaVuSans-32"/>
      <use x="1850.78125" xlink:href="#DejaVuSans-114"/>
      <use x="1891.894531" xlink:href="#DejaVuSans-117"/>
      <use x="1955.273438" xlink:href="#DejaVuSans-110"/>
      <use x="2018.652344" xlink:href="#DejaVuSans-115"/>
     </g>
    </g>
   </g>
   <g id="line2d_18">
    <path clip-path="url(#p8293044346)" d="M 71.783357 -1 
L 71.794275 -0.7912 
L 72.505881 39.505419 
L 73.217486 50.553052 
L 73.929091 77.13938 
L 74.640696 87.767481 
L 75.352301 112.55716 
L 76.063906 125.354321 
L 76.775511 132.493489 
L 77.487116 129.468718 
L 78.198721 138.695107 
L 78.910326 158.81182 
L 79.621931 154.01114 
L 80.333536 152.134457 
L 81.045141 166.591138 
L 81.756746 156.334193 
L 82.468351 169.561192 
L 83.179956 168.353102 
L 83.891561 176.049052 
L 84.603166 178.216035 
L 85.314771 169.676599 
L 86.026376 166.895983 
L 86.737981 179.705892 
L 87.449586 183.102355 
L 88.161191 178.678971 
L 88.872796 183.775205 
L 89.584401 181.292482 
L 90.296006 184.92451 
L 91.007611 184.391286 
L 91.719216 179.28437 
L 92.430821 186.48012 
L 93.142426 184.51501 
L 93.854031 185.19855 
L 94.565636 185.423387 
L 95.277241 184.230698 
L 95.988846 180.64974 
L 96.700451 187.268131 
L 97.412056 183.652494 
L 98.123662 191.663023 
L 98.835267 190.583734 
L 99.546872 186.758947 
L 100.258477 192.362788 
L 101.681687 195.03648 
L 102.393292 193.463767 
L 103.104897 194.744696 
L 103.816502 190.623478 
L 104.528107 198.194776 
L 105.239712 197.134391 
L 105.951317 194.730826 
L 106.662922 196.36841 
L 107.374527 195.735037 
L 108.086132 186.936834 
L 108.797737 198.050748 
L 109.509342 195.399053 
L 110.220947 191.944966 
L 110.932552 194.550698 
L 111.644157 193.943699 
L 112.355762 196.835734 
L 113.067367 200.324271 
L 113.778972 198.555857 
L 114.490577 199.750481 
L 115.202182 193.327112 
L 115.913787 199.88257 
L 116.625392 198.223609 
L 117.336997 202.460046 
L 118.048602 197.978821 
L 118.760207 198.425701 
L 119.471812 195.763093 
L 120.183417 199.00562 
L 120.895022 197.663021 
L 121.606627 193.778862 
L 122.318232 204.70973 
L 123.029838 200.723666 
L 123.741443 201.797468 
L 124.453048 200.339032 
L 125.164653 198.194776 
L 125.876258 199.8532 
L 126.587863 203.203707 
L 127.299468 201.184427 
L 128.011073 200.827502 
L 128.722678 201.842489 
L 129.434283 204.076589 
L 130.145888 200.842346 
L 130.857493 201.453052 
L 131.569098 207.112567 
L 132.280703 207.992258 
L 132.992308 203.234192 
L 133.703913 200.901745 
L 134.415518 204.833791 
L 135.127123 204.895885 
L 135.838728 200.044275 
L 136.550333 205.284951 
L 137.261938 203.968935 
L 137.973543 198.903864 
L 139.396753 206.225633 
L 140.108358 200.10315 
L 140.819963 205.566124 
L 141.531568 207.671374 
L 142.243173 205.160267 
L 142.954778 209.173294 
L 143.666383 197.993202 
L 144.377988 204.523958 
L 145.089593 205.989539 
L 145.801198 202.475162 
L 146.512803 205.456675 
L 147.224408 203.662063 
L 147.936014 201.035536 
L 148.647619 203.463155 
L 149.359224 205.066867 
L 150.070829 203.218948 
L 150.782434 200.176796 
L 151.494039 206.367587 
L 152.205644 204.493034 
L 152.917249 207.43146 
L 155.052064 203.631433 
L 155.763669 206.921772 
L 156.475274 206.367587 
L 157.186879 202.339214 
L 157.898484 205.942394 
L 158.610089 207.287818 
L 159.321694 204.199779 
L 160.033299 207.017119 
L 160.744904 206.068168 
L 161.456509 204.818274 
L 162.168114 204.415769 
L 162.879719 204.33857 
L 163.591324 206.052437 
L 164.302929 210.20516 
L 165.014534 204.647763 
L 165.726139 204.276859 
L 166.437744 207.591331 
L 167.149349 203.036227 
L 167.860954 208.427275 
L 168.572559 202.808346 
L 169.284164 203.677381 
L 169.995769 205.253764 
L 170.707374 204.771739 
L 171.418979 204.833791 
L 172.130584 209.30367 
L 172.842189 209.712319 
L 173.553795 208.394979 
L 174.2654 208.47574 
L 174.977005 209.745091 
L 175.68861 207.960118 
L 176.400215 204.539425 
L 177.11182 209.108177 
L 177.823425 200.69402 
L 178.53503 202.460046 
L 179.246635 203.00581 
L 179.95824 208.831952 
L 180.669845 204.818274 
L 181.38145 201.737475 
L 182.093055 202.596177 
L 182.80466 205.300549 
L 183.516265 209.043106 
L 184.22787 206.383374 
L 184.939475 207.096652 
L 185.65108 207.447434 
L 186.362685 206.052437 
L 187.07429 205.707041 
L 187.785895 203.585508 
L 189.209105 206.541392 
L 189.92071 205.394192 
L 190.632315 208.994334 
L 191.34392 208.120932 
L 192.055525 204.508495 
L 192.76713 208.072658 
L 193.478735 205.160267 
L 194.19034 209.45057 
L 194.901945 206.969433 
L 195.61355 206.209874 
L 196.325155 207.575331 
L 197.03676 212.035701 
L 197.748365 205.113555 
L 198.459971 208.330422 
L 199.171576 208.298161 
L 199.883181 209.466907 
L 200.594786 205.316149 
L 201.306391 211.332364 
L 202.017996 205.503566 
L 202.729601 205.191422 
L 203.441206 204.678741 
L 204.152811 206.304469 
L 204.864416 202.218544 
L 205.576021 203.325707 
L 206.287626 207.303767 
L 206.999231 206.509766 
L 207.710836 204.523958 
L 209.845651 207.255929 
L 210.557256 206.810662 
L 211.268861 206.005259 
L 212.692071 209.679558 
L 213.403676 206.858263 
L 214.115281 208.378835 
L 214.826886 207.783553 
L 215.538491 208.088747 
L 216.250096 206.209874 
L 216.961701 208.411125 
L 217.673306 206.890012 
L 218.384911 207.911929 
L 219.096516 205.409809 
L 219.808121 204.384881 
L 220.519726 206.462348 
L 221.231331 205.895274 
L 221.942936 209.254757 
L 222.654541 206.414955 
L 223.366146 209.777875 
L 224.077752 211.783878 
L 224.789357 210.254593 
L 225.500962 207.192184 
L 226.212567 206.557209 
L 226.924172 207.927989 
L 227.635777 205.769742 
L 228.347382 209.254757 
L 229.058987 209.515936 
L 229.770592 204.199779 
L 230.482197 204.122765 
L 231.193802 207.224051 
L 231.905407 208.734663 
L 232.617012 208.31429 
L 233.328617 209.909131 
L 234.040222 207.224051 
L 234.751827 207.255929 
L 235.463432 205.769742 
L 236.175037 210.089922 
L 236.886642 207.671374 
L 237.598247 202.39961 
L 238.309852 201.827479 
L 239.733062 209.20587 
L 240.444667 204.601317 
L 241.156272 210.5683 
L 241.867877 205.926685 
L 242.579482 206.604677 
L 243.291087 210.634484 
L 244.002692 207.128484 
L 244.714297 201.902552 
L 245.425902 210.584842 
L 246.137507 211.015986 
L 246.849112 208.169233 
L 247.560717 207.527349 
L 248.272322 208.008332 
L 248.983928 212.710697 
L 249.695533 208.81573 
L 250.407138 210.816739 
L 251.118743 208.120932 
L 251.830348 208.524231 
L 252.541953 210.139291 
L 253.253558 208.31429 
L 253.965163 210.48564 
L 254.676768 209.124451 
L 255.388373 207.383554 
L 256.099978 211.015986 
L 256.811583 209.401577 
L 257.523188 207.51136 
L 258.234793 206.320244 
L 259.658003 210.48564 
L 260.369608 210.337041 
L 261.081213 211.783878 
L 261.792818 210.20516 
L 263.216028 203.310448 
L 263.927633 207.575331 
L 264.639238 206.7948 
L 265.350843 209.761481 
L 266.062448 210.700716 
L 266.774053 209.810671 
L 267.485658 211.215674 
L 268.197263 210.254593 
L 268.908868 212.744581 
L 269.620473 211.332364 
L 270.332078 206.052437 
L 271.755288 210.139291 
L 272.466893 205.05131 
L 273.178498 207.192184 
L 273.890104 205.082427 
L 274.601709 206.005259 
L 275.313314 208.072658 
L 276.024919 206.604677 
L 276.736524 201.737475 
L 277.448129 211.968479 
L 278.159734 209.745091 
L 278.871339 211.132417 
L 279.582944 206.65217 
L 280.294549 210.106375 
L 281.006154 208.734663 
L 281.717759 210.48564 
L 282.429364 208.362695 
L 283.140969 207.831673 
L 283.852574 211.532757 
L 284.564179 207.639348 
L 285.275784 209.745091 
L 285.987389 205.958106 
L 287.410599 204.168966 
L 288.122204 214.17932 
L 288.833809 205.816796 
L 289.545414 209.189581 
L 290.257019 207.81563 
L 290.968624 208.669863 
L 291.680229 208.120932 
L 292.391834 205.082427 
L 293.103439 207.255929 
L 294.526649 208.945589 
L 295.949859 208.15313 
L 296.661464 201.752469 
L 297.373069 209.30367 
L 298.084674 209.091905 
L 298.796279 209.876299 
L 299.507885 208.31429 
L 300.21949 207.43146 
L 300.931095 204.21519 
L 301.6427 207.447434 
L 302.354305 206.731381 
L 303.06591 203.677381 
L 303.777515 210.106375 
L 304.48912 210.337041 
L 305.200725 210.221634 
L 305.91233 207.319719 
L 306.623935 207.351631 
L 307.33554 205.503566 
L 308.047145 207.992258 
L 308.75875 206.573029 
L 309.470355 206.715533 
L 310.18196 206.493957 
L 310.893565 209.974831 
L 311.60517 205.707041 
L 312.316775 210.436079 
L 313.02838 204.446667 
L 313.739985 204.958023 
L 314.45159 207.096652 
L 315.163195 204.261438 
L 315.8748 205.004654 
L 316.586405 208.831952 
L 317.29801 211.683345 
L 318.009615 204.58584 
L 318.72122 201.602636 
L 319.432825 210.221634 
L 320.856035 209.319981 
L 321.56764 212.558381 
L 322.279245 205.660044 
L 322.99085 203.097093 
L 323.702455 201.273879 
L 324.414061 209.35261 
L 325.125666 204.369442 
L 325.837271 203.509018 
L 326.548876 203.953567 
L 327.260481 209.925552 
L 327.972086 204.307709 
L 328.683691 208.686058 
L 329.395296 208.104838 
L 330.818506 205.207003 
L 331.530111 205.503566 
L 332.241716 203.646746 
L 332.953321 205.863875 
L 333.664926 205.707041 
L 334.376531 209.026846 
L 335.088136 206.525578 
L 335.799741 208.831952 
L 336.511346 207.767519 
L 337.222951 208.008332 
L 337.934556 210.982747 
L 338.646161 211.918096 
L 339.357766 205.550481 
L 340.069371 209.745091 
L 340.780976 209.483247 
L 341.492581 207.160329 
L 342.204186 214.420684 
L 342.915791 210.073471 
L 343.627396 213.067108 
L 344.339001 212.406322 
L 345.050606 209.777875 
L 345.762211 211.64986 
L 346.473816 214.248215 
L 347.185421 210.106375 
L 347.897026 208.945589 
L 348.608631 215.392668 
L 349.320236 214.507043 
L 350.031842 204.70973 
L 350.743447 209.075636 
L 351.455052 209.810671 
L 352.166657 209.189581 
L 352.878262 208.201448 
L 353.589867 207.575331 
L 354.301472 210.337041 
L 355.013077 205.191422 
L 355.724682 211.015986 
L 356.436287 207.54334 
L 357.147892 209.859888 
L 357.859497 209.974831 
L 358.571102 207.79959 
L 359.282707 203.876764 
L 359.994312 208.265912 
L 360.705917 208.443427 
L 362.129127 208.169233 
L 362.840732 209.679558 
L 363.552337 210.48564 
L 364.263942 205.519201 
L 364.975547 202.520523 
L 365.687152 211.248999 
L 366.398757 209.336294 
L 367.110362 208.201448 
L 367.821967 209.958402 
L 368.533572 208.346557 
L 369.245177 205.191422 
L 369.956782 211.099135 
L 370.668387 209.859888 
L 371.379992 206.573029 
L 372.091597 206.921772 
L 372.803202 204.911416 
L 373.514807 208.929346 
L 374.226412 210.667594 
L 374.938018 211.215674 
L 375.649623 206.036708 
L 376.361228 204.647763 
L 377.072833 208.621293 
L 377.784438 210.419566 
L 378.496043 211.065866 
L 379.207648 209.712319 
L 379.919253 208.89687 
L 380.630858 207.895872 
L 381.342463 207.144405 
L 382.054068 207.271872 
L 382.765673 209.761481 
L 383.477278 210.057024 
L 384.188883 211.415807 
L 384.900488 206.826526 
L 385.612093 213.220289 
L 386.323698 205.973821 
L 387.035303 211.349047 
L 388.458513 208.330422 
L 389.881723 208.47574 
L 390.593328 209.173294 
L 391.304933 208.929346 
L 392.016538 207.06483 
L 392.728143 211.64986 
L 393.439748 206.209874 
L 394.151353 209.712319 
L 394.862958 208.961834 
L 395.574563 210.551762 
L 396.286168 207.783553 
L 396.997773 206.446548 
L 397.709378 210.007699 
L 399.132588 207.03302 
L 399.844194 210.403055 
L 400.555799 207.335673 
L 401.267404 209.63044 
L 401.979009 203.463155 
L 402.690614 208.767081 
L 403.402219 207.367591 
L 404.113824 209.941975 
L 405.537034 213.322555 
L 406.248639 210.982747 
L 406.960244 207.208116 
L 407.671849 208.978083 
L 408.383454 211.365732 
L 409.095059 204.076589 
L 409.806664 209.026846 
L 410.518269 210.717281 
L 411.229874 209.075636 
L 411.941479 210.419566 
L 412.653084 208.072658 
L 413.364689 213.938602 
L 414.076294 211.834186 
L 414.787899 201.827479 
L 415.499504 204.446667 
L 416.211109 210.370042 
L 416.922714 208.524231 
L 417.634319 210.057024 
L 418.345924 207.847718 
L 419.057529 204.942485 
L 419.769134 210.634484 
L 420.480739 208.945589 
L 421.192344 209.909131 
L 421.903949 210.057024 
L 422.615554 207.303767 
L 423.327159 209.614074 
L 424.038764 208.864405 
L 424.750369 209.909131 
L 425.461975 209.49959 
L 426.17358 212.795429 
L 426.17358 212.795429 
" style="fill:none;stroke:#800080;stroke-linecap:square;stroke-width:1.5;"/>
   </g>
   <g id="line2d_19">
    <path clip-path="url(#p8293044346)" d="M 71.466023 -1 
L 72.505881 46.170819 
L 73.217486 58.644998 
L 74.640696 89.874222 
L 75.352301 95.678358 
L 76.063906 109.596451 
L 76.775511 106.667531 
L 77.487116 121.573523 
L 78.198721 113.519246 
L 78.910326 128.056407 
L 79.621931 130.264528 
L 80.333536 128.109301 
L 81.045141 135.889933 
L 81.756746 137.895196 
L 82.468351 137.255957 
L 83.179956 142.664896 
L 83.891561 145.741485 
L 84.603166 147.038107 
L 85.314771 147.12794 
L 86.026376 149.077198 
L 86.737981 148.328846 
L 87.449586 149.739254 
L 88.161191 157.052093 
L 88.872796 152.41131 
L 89.584401 156.162385 
L 90.296006 156.82429 
L 91.007611 158.153654 
L 91.719216 154.559677 
L 92.430821 162.573749 
L 93.142426 161.685632 
L 93.854031 161.397914 
L 94.565636 162.128595 
L 95.277241 161.887584 
L 95.988846 162.118942 
L 96.700451 164.0014 
L 97.412056 167.590814 
L 98.123662 164.5154 
L 98.835267 163.333647 
L 99.546872 169.007206 
L 100.258477 163.735669 
L 100.970082 169.383126 
L 102.393292 172.578432 
L 103.104897 169.477352 
L 103.816502 173.570544 
L 104.528107 173.999107 
L 105.239712 175.734074 
L 105.951317 168.539504 
L 106.662922 175.051668 
L 107.374527 169.981565 
L 108.086132 177.652167 
L 108.797737 176.263416 
L 109.509342 180.30645 
L 110.220947 176.750451 
L 110.932552 176.977881 
L 111.644157 176.139248 
L 112.355762 177.835899 
L 113.067367 180.839704 
L 113.778972 180.982441 
L 114.490577 180.7328 
L 115.202182 181.16118 
L 115.913787 184.156678 
L 116.625392 182.55556 
L 117.336997 179.976236 
L 118.760207 185.098802 
L 119.471812 183.456503 
L 120.183417 183.236523 
L 120.895022 184.366561 
L 121.606627 183.432034 
L 122.318232 181.03007 
L 123.741443 186.784338 
L 124.453048 184.243041 
L 125.164653 188.10175 
L 125.876258 188.476179 
L 126.587863 183.9842 
L 127.299468 187.10233 
L 128.011073 183.812051 
L 128.722678 185.32339 
L 129.434283 185.498457 
L 130.145888 187.58784 
L 130.857493 186.556078 
L 131.569098 183.346446 
L 132.280703 187.434238 
L 132.992308 186.670136 
L 133.703913 188.502059 
L 134.415518 185.136195 
L 135.127123 188.17909 
L 135.838728 188.670462 
L 136.550333 190.160891 
L 137.261938 185.962783 
L 137.973543 185.623715 
L 138.685148 189.399517 
L 139.396753 187.217082 
L 140.108358 184.132018 
L 140.819963 188.527947 
L 141.531568 187.089588 
L 142.243173 187.754539 
L 142.954778 187.013179 
L 143.666383 187.639099 
L 144.377988 185.348379 
L 145.089593 185.398377 
L 145.801198 186.746255 
L 146.512803 188.489118 
L 147.224408 188.295225 
L 147.936014 187.947268 
L 148.647619 185.736595 
L 149.359224 187.767374 
L 150.070829 191.141749 
L 150.782434 186.822438 
L 151.494039 190.240023 
L 152.205644 187.639099 
L 152.917249 188.308139 
L 153.628854 186.974998 
L 154.340459 185.950202 
L 155.052064 187.45982 
L 155.763669 185.749146 
L 156.475274 186.07609 
L 157.186879 186.543414 
L 157.898484 187.447028 
L 158.610089 190.902176 
L 159.321694 185.036516 
L 160.033299 186.758947 
L 160.744904 186.176928 
L 161.456509 190.095001 
L 162.168114 187.857276 
L 162.879719 190.795903 
L 163.591324 185.874753 
L 164.302929 187.357535 
L 165.726139 183.787486 
L 166.437744 186.784338 
L 167.149349 186.784338 
L 167.860954 186.9114 
L 168.572559 188.839181 
L 169.284164 189.858195 
L 169.995769 189.556515 
L 170.707374 187.293665 
L 171.418979 194.081294 
L 172.130584 190.756083 
L 172.842189 188.476179 
L 173.553795 190.306019 
L 174.2654 191.3686 
L 174.977005 186.063493 
L 175.68861 190.464608 
L 176.400215 191.488929 
L 177.11182 189.242793 
L 177.823425 189.151497 
L 178.53503 188.839181 
L 179.246635 189.950212 
L 179.95824 192.755419 
L 181.38145 186.404226 
L 182.093055 188.930161 
L 182.80466 190.663239 
L 183.516265 194.20531 
L 184.939475 191.141749 
L 185.65108 192.511515 
L 186.362685 187.805893 
L 187.07429 191.810597 
L 187.785895 190.147709 
L 188.4975 191.075137 
L 189.209105 193.88872 
L 189.92071 189.635117 
L 190.632315 188.515002 
L 191.34392 189.766273 
L 192.055525 188.943166 
L 192.76713 190.451382 
L 193.478735 192.389811 
L 194.19034 193.655433 
L 194.901945 191.155077 
L 195.61355 190.491067 
L 196.325155 189.360311 
L 197.03676 190.385279 
L 197.748365 190.981963 
L 198.459971 189.308062 
L 199.171576 190.266416 
L 199.883181 191.944966 
L 200.594786 191.18174 
L 202.017996 186.126495 
L 202.729601 193.395413 
L 203.441206 191.115098 
L 204.152811 192.335773 
L 204.864416 191.622818 
L 205.576021 195.273382 
L 206.287626 195.763093 
L 206.999231 191.743488 
L 207.710836 193.628027 
L 208.422441 191.918076 
L 209.134046 193.491123 
L 209.845651 192.78256 
L 210.557256 196.864135 
L 211.268861 189.805657 
L 211.980466 192.362788 
L 212.692071 192.972779 
L 213.403676 190.292816 
L 214.115281 192.376299 
L 214.826886 190.253218 
L 215.538491 189.595807 
L 216.250096 192.931984 
L 216.961701 194.412384 
L 217.673306 189.138462 
L 218.384911 190.888885 
L 219.096516 194.246687 
L 219.808121 193.696557 
L 221.231331 189.543421 
L 221.942936 194.067525 
L 222.654541 190.782628 
L 223.366146 199.107492 
L 224.077752 190.266416 
L 224.789357 196.807342 
L 225.500962 195.678953 
L 226.212567 193.068039 
L 226.924172 193.792587 
L 227.635777 192.80971 
L 228.347382 196.566372 
L 229.058987 196.60885 
L 229.770592 193.504804 
L 230.482197 193.916205 
L 231.193802 196.580529 
L 231.905407 200.679201 
L 232.617012 193.600629 
L 233.328617 195.133952 
L 234.040222 195.69297 
L 234.751827 197.205646 
L 235.463432 196.807342 
L 236.175037 193.436419 
L 236.886642 198.555857 
L 237.598247 197.519842 
L 238.309852 199.326177 
L 239.021457 193.545859 
L 239.733062 202.369407 
L 240.444667 201.438108 
L 241.156272 198.007585 
L 241.867877 195.664937 
L 242.579482 197.505536 
L 244.002692 204.122765 
L 244.714297 198.700697 
L 246.137507 197.305499 
L 246.849112 194.953017 
L 247.560717 200.412873 
L 248.272322 198.440153 
L 248.983928 196.807342 
L 249.695533 199.574664 
L 250.407138 194.232892 
L 251.118743 199.122054 
L 251.830348 199.926643 
L 252.541953 192.972779 
L 253.253558 196.114526 
L 253.965163 195.20364 
L 254.676768 202.49028 
L 255.388373 200.427648 
L 256.099978 200.738492 
L 256.811583 194.758569 
L 257.523188 198.903864 
L 258.234793 201.005787 
L 258.946398 199.633232 
L 259.658003 200.250504 
L 260.369608 201.992722 
L 261.081213 200.961183 
L 262.504423 194.412384 
L 263.216028 199.151186 
L 263.927633 201.482949 
L 264.639238 200.280004 
L 265.350843 200.10315 
L 266.062448 194.274282 
L 266.774053 198.787712 
L 267.485658 195.903501 
L 268.197263 197.262691 
L 268.908868 196.778959 
L 269.620473 193.286156 
L 270.332078 198.715193 
L 271.043683 196.906753 
L 271.755288 201.722483 
L 272.466893 197.120147 
L 273.178498 201.932599 
L 273.890104 196.60885 
L 274.601709 202.414715 
L 275.313314 200.961183 
L 276.024919 201.737475 
L 276.736524 196.708041 
L 277.448129 194.067525 
L 278.159734 193.902462 
L 278.871339 201.902552 
L 279.582944 196.60885 
L 280.294549 200.368561 
L 281.006154 195.875402 
L 281.717759 199.574664 
L 282.429364 198.353473 
L 283.140969 204.926949 
L 283.852574 196.60885 
L 284.564179 197.476932 
L 285.275784 198.758698 
L 285.987389 199.209479 
L 286.698994 200.69402 
L 287.410599 199.355375 
L 288.122204 203.279938 
L 288.833809 198.396803 
L 289.545414 197.820782 
L 290.257019 200.842346 
L 290.968624 203.00581 
L 291.680229 198.079535 
L 292.391834 197.476932 
L 293.103439 199.926643 
L 293.815044 200.14733 
L 294.526649 201.005787 
L 295.238254 196.977828 
L 295.949859 201.393288 
L 296.661464 201.378354 
L 297.373069 200.931459 
L 298.084674 199.677182 
L 298.796279 205.59742 
L 299.507885 201.692506 
L 300.21949 203.3715 
L 301.6427 198.411251 
L 302.354305 203.47844 
L 303.06591 200.05899 
L 303.777515 198.758698 
L 304.48912 201.64756 
L 305.200725 203.738683 
L 305.91233 204.508495 
L 306.623935 200.961183 
L 307.33554 203.356233 
L 308.047145 202.022799 
L 308.75875 208.459582 
L 309.470355 196.637179 
L 310.18196 198.310164 
L 310.893565 201.902552 
L 311.60517 199.4138 
L 312.316775 210.584842 
L 313.02838 202.838697 
L 313.739985 204.84931 
L 314.45159 204.354005 
L 315.163195 200.073708 
L 315.8748 203.554904 
L 316.586405 205.409809 
L 317.29801 200.235757 
L 318.009615 201.378354 
L 318.72122 198.700697 
L 319.432825 199.39919 
L 320.14443 198.86029 
L 320.856035 203.846061 
L 321.56764 204.493034 
L 322.279245 203.539606 
L 322.99085 201.5727 
L 323.702455 202.808346 
L 324.414061 201.363421 
L 325.125666 197.362607 
L 325.837271 198.889337 
L 326.548876 205.989539 
L 327.260481 198.007585 
L 327.972086 204.184371 
L 328.683691 203.402041 
L 329.395296 200.117874 
L 330.106901 207.687391 
L 330.818506 200.191533 
L 331.530111 202.278859 
L 332.241716 199.486884 
L 332.953321 203.662063 
L 333.664926 198.310164 
L 334.376531 205.816796 
L 335.088136 206.241395 
L 335.799741 204.46212 
L 336.511346 209.925552 
L 337.222951 201.917574 
L 337.934556 201.992722 
L 338.646161 201.587667 
L 339.357766 204.632278 
L 340.069371 204.539425 
L 340.780976 199.574664 
L 341.492581 199.897258 
L 342.204186 206.083902 
L 342.915791 202.687045 
L 343.627396 201.542773 
L 344.339001 203.922838 
L 345.050606 199.779818 
L 345.762211 205.004654 
L 346.473816 200.516351 
L 347.185421 202.990605 
L 347.897026 203.830713 
L 348.608631 203.249438 
L 349.320236 199.750481 
L 350.031842 203.402041 
L 350.743447 203.539606 
L 351.455052 205.175843 
L 352.166657 205.44105 
L 352.878262 201.453052 
L 353.589867 205.378578 
L 354.301472 197.892584 
L 355.013077 196.864135 
L 355.724682 201.288797 
L 357.147892 199.560028 
L 357.859497 205.284951 
L 358.571102 203.769349 
L 359.282707 201.423165 
L 359.994312 202.550777 
L 360.705917 200.679201 
L 361.417522 202.990605 
L 362.129127 198.137137 
L 362.840732 200.679201 
L 363.552337 202.581041 
L 364.263942 200.383329 
L 364.975547 205.519201 
L 365.687152 205.550481 
L 366.398757 201.199329 
L 367.110362 202.838697 
L 367.821967 200.486774 
L 368.533572 202.626456 
L 369.245177 207.415488 
L 370.668387 198.613765 
L 371.379992 206.763085 
L 372.091597 198.151543 
L 372.803202 203.203707 
L 373.514807 197.305499 
L 374.226412 200.368561 
L 374.938018 201.065294 
L 375.649623 203.234192 
L 376.361228 200.471988 
L 377.072833 198.310164 
L 377.784438 200.619949 
L 378.496043 200.073708 
L 379.207648 203.47844 
L 379.919253 203.173233 
L 380.630858 206.65217 
L 381.342463 207.79959 
L 382.054068 204.926949 
L 382.765673 203.600813 
L 383.477278 202.929811 
L 384.188883 204.431217 
L 384.900488 207.847718 
L 385.612093 204.354005 
L 386.323698 206.493957 
L 387.746908 200.961183 
L 388.458513 201.812472 
L 389.170118 202.037841 
L 389.881723 208.81573 
L 390.593328 207.255929 
L 391.304933 204.523958 
L 392.016538 200.501561 
L 392.728143 209.515936 
L 393.439748 210.999365 
L 394.151353 204.818274 
L 394.862958 206.620505 
L 395.574563 202.233619 
L 396.286168 199.633232 
L 396.997773 204.84931 
L 397.709378 206.905891 
L 398.420983 201.244052 
L 399.132588 201.707493 
L 399.844194 207.559334 
L 400.555799 206.446548 
L 401.267404 203.938201 
L 401.979009 201.857501 
L 402.690614 207.527349 
L 403.402219 203.249438 
L 404.113824 204.431217 
L 404.825429 200.088427 
L 405.537034 201.408226 
L 406.248639 201.273879 
L 406.960244 204.989108 
L 407.671849 204.787248 
L 408.383454 204.33857 
L 409.806664 208.734663 
L 410.518269 207.944052 
L 411.229874 203.310448 
L 411.941479 204.292283 
L 412.653084 205.487933 
L 413.364689 202.11309 
L 414.076294 202.581041 
L 414.787899 205.628727 
L 415.499504 199.765148 
L 416.211109 203.769349 
L 416.922714 203.3715 
L 417.634319 199.355375 
L 418.345924 206.763085 
L 419.057529 197.70602 
L 419.769134 201.154629 
L 420.480739 201.318639 
L 421.192344 202.007759 
L 421.903949 207.271872 
L 422.615554 204.493034 
L 424.038764 207.960118 
L 424.750369 203.646746 
L 425.461975 200.457206 
L 426.17358 206.778941 
L 426.17358 206.778941 
" style="fill:none;stroke:#ff0000;stroke-linecap:square;stroke-width:1.5;"/>
   </g>
   <g id="patch_3">
    <path d="M 53.328125 232.759219 
L 53.328125 10.999219 
" style="fill:none;stroke:#000000;stroke-linecap:square;stroke-linejoin:miter;stroke-width:0.8;"/>
   </g>
   <g id="patch_4">
    <path d="M 443.928125 232.759219 
L 443.928125 10.999219 
" style="fill:none;stroke:#000000;stroke-linecap:square;stroke-linejoin:miter;stroke-width:0.8;"/>
   </g>
   <g id="patch_5">
    <path d="M 53.328125 232.759219 
L 443.928125 232.759219 
" style="fill:none;stroke:#000000;stroke-linecap:square;stroke-linejoin:miter;stroke-width:0.8;"/>
   </g>
   <g id="patch_6">
    <path d="M 53.328125 10.999219 
L 443.928125 10.999219 
" style="fill:none;stroke:#000000;stroke-linecap:square;stroke-linejoin:miter;stroke-width:0.8;"/>
   </g>
   <g id="legend_1">
    <g id="patch_7">
     <path d="M 360.428125 48.355469 
L 436.928125 48.355469 
Q 438.928125 48.355469 438.928125 46.355469 
L 438.928125 17.999219 
Q 438.928125 15.999219 436.928125 15.999219 
L 360.428125 15.999219 
Q 358.428125 15.999219 358.428125 17.999219 
L 358.428125 46.355469 
Q 358.428125 48.355469 360.428125 48.355469 
z
" style="fill:#ffffff;opacity:0.8;stroke:#cccccc;stroke-linejoin:miter;"/>
    </g>
    <g id="line2d_20">
     <path d="M 362.428125 24.097656 
L 382.428125 24.097656 
" style="fill:none;stroke:#800080;stroke-linecap:square;stroke-width:1.5;"/>
    </g>
    <g id="line2d_21"/>
    <g id="text_13">
     <!-- $\alpha = 0.3/8$ -->
     <defs>
      <path d="M 40.921875 25.4375 
L 40.96875 36.71875 
Q 41.015625 48.25 32.328125 48.296875 
Q 25.828125 48.34375 21.78125 42.921875 
Q 16.703125 36.234375 14.984375 27.296875 
Q 12.890625 16.546875 15.53125 11.421875 
Q 18.265625 6.203125 24.171875 6.203125 
Q 30.71875 6.203125 36.234375 16.609375 
z
M 33.84375 55.90625 
Q 49.078125 56.15625 48.875 40.375 
Q 48.875 40.375 56.5 54.6875 
L 64.5 54.6875 
L 48.734375 25.046875 
L 48.578125 14.359375 
Q 48.578125 11.96875 49.90625 9.96875 
Q 51.421875 7.625 52.984375 7.625 
L 57.328125 7.625 
L 55.859375 0 
L 50.4375 0 
Q 45.84375 0 42.53125 4.109375 
Q 40.96875 6.15625 40.921875 10.453125 
Q 37.75 5.21875 32.28125 0.78125 
Q 29.6875 -1.265625 22.703125 -1.21875 
Q 11.28125 -1.125 7.125 6.203125 
Q 2.875 13.8125 5.515625 27.296875 
Q 8.34375 41.796875 15.765625 48.390625 
Q 24.125 55.765625 33.84375 55.90625 
z
" id="DejaVuSans-Oblique-945"/>
      <path d="M 10.59375 45.40625 
L 73.1875 45.40625 
L 73.1875 37.203125 
L 10.59375 37.203125 
z
M 10.59375 25.484375 
L 73.1875 25.484375 
L 73.1875 17.1875 
L 10.59375 17.1875 
z
" id="DejaVuSans-61"/>
      <path d="M 10.6875 12.40625 
L 21 12.40625 
L 21 0 
L 10.6875 0 
z
" id="DejaVuSans-46"/>
      <path d="M 25.390625 72.90625 
L 33.6875 72.90625 
L 8.296875 -9.28125 
L 0 -9.28125 
z
" id="DejaVuSans-47"/>
      <path d="M 31.78125 34.625 
Q 24.75 34.625 20.71875 30.859375 
Q 16.703125 27.09375 16.703125 20.515625 
Q 16.703125 13.921875 20.71875 10.15625 
Q 24.75 6.390625 31.78125 6.390625 
Q 38.8125 6.390625 42.859375 10.171875 
Q 46.921875 13.96875 46.921875 20.515625 
Q 46.921875 27.09375 42.890625 30.859375 
Q 38.875 34.625 31.78125 34.625 
z
M 21.921875 38.8125 
Q 15.578125 40.375 12.03125 44.71875 
Q 8.5 49.078125 8.5 55.328125 
Q 8.5 64.0625 14.71875 69.140625 
Q 20.953125 74.21875 31.78125 74.21875 
Q 42.671875 74.21875 48.875 69.140625 
Q 55.078125 64.0625 55.078125 55.328125 
Q 55.078125 49.078125 51.53125 44.71875 
Q 48 40.375 41.703125 38.8125 
Q 48.828125 37.15625 52.796875 32.3125 
Q 56.78125 27.484375 56.78125 20.515625 
Q 56.78125 9.90625 50.3125 4.234375 
Q 43.84375 -1.421875 31.78125 -1.421875 
Q 19.734375 -1.421875 13.25 4.234375 
Q 6.78125 9.90625 6.78125 20.515625 
Q 6.78125 27.484375 10.78125 32.3125 
Q 14.796875 37.15625 21.921875 38.8125 
z
M 18.3125 54.390625 
Q 18.3125 48.734375 21.84375 45.5625 
Q 25.390625 42.390625 31.78125 42.390625 
Q 38.140625 42.390625 41.71875 45.5625 
Q 45.3125 48.734375 45.3125 54.390625 
Q 45.3125 60.0625 41.71875 63.234375 
Q 38.140625 66.40625 31.78125 66.40625 
Q 25.390625 66.40625 21.84375 63.234375 
Q 18.3125 60.0625 18.3125 54.390625 
z
" id="DejaVuSans-56"/>
     </defs>
     <g transform="translate(390.428125 27.597656)scale(0.1 -0.1)">
      <use transform="translate(0 0.78125)" xlink:href="#DejaVuSans-Oblique-945"/>
      <use transform="translate(85.400391 0.78125)" xlink:href="#DejaVuSans-61"/>
      <use transform="translate(188.671875 0.78125)" xlink:href="#DejaVuSans-48"/>
      <use transform="translate(252.294922 0.78125)" xlink:href="#DejaVuSans-46"/>
      <use transform="translate(284.082031 0.78125)" xlink:href="#DejaVuSans-51"/>
      <use transform="translate(347.705078 0.78125)" xlink:href="#DejaVuSans-47"/>
      <use transform="translate(381.318359 0.78125)" xlink:href="#DejaVuSans-56"/>
     </g>
    </g>
    <g id="line2d_22">
     <path d="M 362.428125 38.775781 
L 382.428125 38.775781 
" style="fill:none;stroke:#ff0000;stroke-linecap:square;stroke-width:1.5;"/>
    </g>
    <g id="line2d_23"/>
    <g id="text_14">
     <!-- $\alpha = 0.5/8$ -->
     <g transform="translate(390.428125 42.275781)scale(0.1 -0.1)">
      <use transform="translate(0 0.78125)" xlink:href="#DejaVuSans-Oblique-945"/>
      <use transform="translate(85.400391 0.78125)" xlink:href="#DejaVuSans-61"/>
      <use transform="translate(188.671875 0.78125)" xlink:href="#DejaVuSans-48"/>
      <use transform="translate(252.294922 0.78125)" xlink:href="#DejaVuSans-46"/>
      <use transform="translate(284.082031 0.78125)" xlink:href="#DejaVuSans-53"/>
      <use transform="translate(347.705078 0.78125)" xlink:href="#DejaVuSans-47"/>
      <use transform="translate(381.318359 0.78125)" xlink:href="#DejaVuSans-56"/>
     </g>
    </g>
   </g>
  </g>
 </g>
 <defs>
  <clipPath id="p8293044346">
   <rect height="221.76" width="390.6" x="53.328125" y="10.999219"/>
  </clipPath>
 </defs>
</svg>
