<?xml version="1.0" encoding="utf-8" standalone="no"?>
<!DOCTYPE svg PUBLIC "-//W3C//DTD SVG 1.1//EN"
  "http://www.w3.org/Graphics/SVG/1.1/DTD/svg11.dtd">
<!-- Created with matplotlib (https://matplotlib.org/) -->
<svg height="392.514375pt" version="1.1" viewBox="0 0 388.0125 392.514375" width="388.0125pt" xmlns="http://www.w3.org/2000/svg" xmlns:xlink="http://www.w3.org/1999/xlink">
 <defs>
  <style type="text/css">
*{stroke-linecap:butt;stroke-linejoin:round;}
  </style>
 </defs>
 <g id="figure_1">
  <g id="patch_1">
   <path d="M 0 392.514375 
L 388.0125 392.514375 
L 388.0125 0 
L 0 0 
z
" style="fill:#ffffff;"/>
  </g>
  <g id="axes_1">
   <g id="patch_2">
    <path d="M 33.2875 354.958125 
L 368.0875 354.958125 
L 368.0875 22.318125 
L 33.2875 22.318125 
z
" style="fill:#ffffff;"/>
   </g>
   <g id="matplotlib.axis_1">
    <g id="xtick_1">
     <g id="line2d_1">
      <defs>
       <path d="M 0 0 
L 0 3.5 
" id="m2f15b231d8" style="stroke:#000000;stroke-width:0.8;"/>
      </defs>
      <g>
       <use style="stroke:#000000;stroke-width:0.8;" x="39.852206" xlink:href="#m2f15b231d8" y="354.958125"/>
      </g>
     </g>
     <g id="text_1">
      <!-- 0 -->
      <defs>
       <path d="M 31.78125 66.40625 
Q 24.171875 66.40625 20.328125 58.90625 
Q 16.5 51.421875 16.5 36.375 
Q 16.5 21.390625 20.328125 13.890625 
Q 24.171875 6.390625 31.78125 6.390625 
Q 39.453125 6.390625 43.28125 13.890625 
Q 47.125 21.390625 47.125 36.375 
Q 47.125 51.421875 43.28125 58.90625 
Q 39.453125 66.40625 31.78125 66.40625 
z
M 31.78125 74.21875 
Q 44.046875 74.21875 50.515625 64.515625 
Q 56.984375 54.828125 56.984375 36.375 
Q 56.984375 17.96875 50.515625 8.265625 
Q 44.046875 -1.421875 31.78125 -1.421875 
Q 19.53125 -1.421875 13.0625 8.265625 
Q 6.59375 17.96875 6.59375 36.375 
Q 6.59375 54.828125 13.0625 64.515625 
Q 19.53125 74.21875 31.78125 74.21875 
z
" id="DejaVuSans-48"/>
      </defs>
      <g transform="translate(36.670956 369.556562)scale(0.1 -0.1)">
       <use xlink:href="#DejaVuSans-48"/>
      </g>
     </g>
    </g>
    <g id="xtick_2">
     <g id="line2d_2">
      <g>
       <use style="stroke:#000000;stroke-width:0.8;" x="105.499265" xlink:href="#m2f15b231d8" y="354.958125"/>
      </g>
     </g>
     <g id="text_2">
      <!-- 200 -->
      <defs>
       <path d="M 19.1875 8.296875 
L 53.609375 8.296875 
L 53.609375 0 
L 7.328125 0 
L 7.328125 8.296875 
Q 12.9375 14.109375 22.625 23.890625 
Q 32.328125 33.6875 34.8125 36.53125 
Q 39.546875 41.84375 41.421875 45.53125 
Q 43.3125 49.21875 43.3125 52.78125 
Q 43.3125 58.59375 39.234375 62.25 
Q 35.15625 65.921875 28.609375 65.921875 
Q 23.96875 65.921875 18.8125 64.3125 
Q 13.671875 62.703125 7.8125 59.421875 
L 7.8125 69.390625 
Q 13.765625 71.78125 18.9375 73 
Q 24.125 74.21875 28.421875 74.21875 
Q 39.75 74.21875 46.484375 68.546875 
Q 53.21875 62.890625 53.21875 53.421875 
Q 53.21875 48.921875 51.53125 44.890625 
Q 49.859375 40.875 45.40625 35.40625 
Q 44.1875 33.984375 37.640625 27.21875 
Q 31.109375 20.453125 19.1875 8.296875 
z
" id="DejaVuSans-50"/>
      </defs>
      <g transform="translate(95.955515 369.556562)scale(0.1 -0.1)">
       <use xlink:href="#DejaVuSans-50"/>
       <use x="63.623047" xlink:href="#DejaVuSans-48"/>
       <use x="127.246094" xlink:href="#DejaVuSans-48"/>
      </g>
     </g>
    </g>
    <g id="xtick_3">
     <g id="line2d_3">
      <g>
       <use style="stroke:#000000;stroke-width:0.8;" x="171.146324" xlink:href="#m2f15b231d8" y="354.958125"/>
      </g>
     </g>
     <g id="text_3">
      <!-- 400 -->
      <defs>
       <path d="M 37.796875 64.3125 
L 12.890625 25.390625 
L 37.796875 25.390625 
z
M 35.203125 72.90625 
L 47.609375 72.90625 
L 47.609375 25.390625 
L 58.015625 25.390625 
L 58.015625 17.1875 
L 47.609375 17.1875 
L 47.609375 0 
L 37.796875 0 
L 37.796875 17.1875 
L 4.890625 17.1875 
L 4.890625 26.703125 
z
" id="DejaVuSans-52"/>
      </defs>
      <g transform="translate(161.602574 369.556562)scale(0.1 -0.1)">
       <use xlink:href="#DejaVuSans-52"/>
       <use x="63.623047" xlink:href="#DejaVuSans-48"/>
       <use x="127.246094" xlink:href="#DejaVuSans-48"/>
      </g>
     </g>
    </g>
    <g id="xtick_4">
     <g id="line2d_4">
      <g>
       <use style="stroke:#000000;stroke-width:0.8;" x="236.793382" xlink:href="#m2f15b231d8" y="354.958125"/>
      </g>
     </g>
     <g id="text_4">
      <!-- 600 -->
      <defs>
       <path d="M 33.015625 40.375 
Q 26.375 40.375 22.484375 35.828125 
Q 18.609375 31.296875 18.609375 23.390625 
Q 18.609375 15.53125 22.484375 10.953125 
Q 26.375 6.390625 33.015625 6.390625 
Q 39.65625 6.390625 43.53125 10.953125 
Q 47.40625 15.53125 47.40625 23.390625 
Q 47.40625 31.296875 43.53125 35.828125 
Q 39.65625 40.375 33.015625 40.375 
z
M 52.59375 71.296875 
L 52.59375 62.3125 
Q 48.875 64.0625 45.09375 64.984375 
Q 41.3125 65.921875 37.59375 65.921875 
Q 27.828125 65.921875 22.671875 59.328125 
Q 17.53125 52.734375 16.796875 39.40625 
Q 19.671875 43.65625 24.015625 45.921875 
Q 28.375 48.1875 33.59375 48.1875 
Q 44.578125 48.1875 50.953125 41.515625 
Q 57.328125 34.859375 57.328125 23.390625 
Q 57.328125 12.15625 50.6875 5.359375 
Q 44.046875 -1.421875 33.015625 -1.421875 
Q 20.359375 -1.421875 13.671875 8.265625 
Q 6.984375 17.96875 6.984375 36.375 
Q 6.984375 53.65625 15.1875 63.9375 
Q 23.390625 74.21875 37.203125 74.21875 
Q 40.921875 74.21875 44.703125 73.484375 
Q 48.484375 72.75 52.59375 71.296875 
z
" id="DejaVuSans-54"/>
      </defs>
      <g transform="translate(227.249632 369.556562)scale(0.1 -0.1)">
       <use xlink:href="#DejaVuSans-54"/>
       <use x="63.623047" xlink:href="#DejaVuSans-48"/>
       <use x="127.246094" xlink:href="#DejaVuSans-48"/>
      </g>
     </g>
    </g>
    <g id="xtick_5">
     <g id="line2d_5">
      <g>
       <use style="stroke:#000000;stroke-width:0.8;" x="302.440441" xlink:href="#m2f15b231d8" y="354.958125"/>
      </g>
     </g>
     <g id="text_5">
      <!-- 800 -->
      <defs>
       <path d="M 31.78125 34.625 
Q 24.75 34.625 20.71875 30.859375 
Q 16.703125 27.09375 16.703125 20.515625 
Q 16.703125 13.921875 20.71875 10.15625 
Q 24.75 6.390625 31.78125 6.390625 
Q 38.8125 6.390625 42.859375 10.171875 
Q 46.921875 13.96875 46.921875 20.515625 
Q 46.921875 27.09375 42.890625 30.859375 
Q 38.875 34.625 31.78125 34.625 
z
M 21.921875 38.8125 
Q 15.578125 40.375 12.03125 44.71875 
Q 8.5 49.078125 8.5 55.328125 
Q 8.5 64.0625 14.71875 69.140625 
Q 20.953125 74.21875 31.78125 74.21875 
Q 42.671875 74.21875 48.875 69.140625 
Q 55.078125 64.0625 55.078125 55.328125 
Q 55.078125 49.078125 51.53125 44.71875 
Q 48 40.375 41.703125 38.8125 
Q 48.828125 37.15625 52.796875 32.3125 
Q 56.78125 27.484375 56.78125 20.515625 
Q 56.78125 9.90625 50.3125 4.234375 
Q 43.84375 -1.421875 31.78125 -1.421875 
Q 19.734375 -1.421875 13.25 4.234375 
Q 6.78125 9.90625 6.78125 20.515625 
Q 6.78125 27.484375 10.78125 32.3125 
Q 14.796875 37.15625 21.921875 38.8125 
z
M 18.3125 54.390625 
Q 18.3125 48.734375 21.84375 45.5625 
Q 25.390625 42.390625 31.78125 42.390625 
Q 38.140625 42.390625 41.71875 45.5625 
Q 45.3125 48.734375 45.3125 54.390625 
Q 45.3125 60.0625 41.71875 63.234375 
Q 38.140625 66.40625 31.78125 66.40625 
Q 25.390625 66.40625 21.84375 63.234375 
Q 18.3125 60.0625 18.3125 54.390625 
z
" id="DejaVuSans-56"/>
      </defs>
      <g transform="translate(292.896691 369.556562)scale(0.1 -0.1)">
       <use xlink:href="#DejaVuSans-56"/>
       <use x="63.623047" xlink:href="#DejaVuSans-48"/>
       <use x="127.246094" xlink:href="#DejaVuSans-48"/>
      </g>
     </g>
    </g>
    <g id="xtick_6">
     <g id="line2d_6">
      <g>
       <use style="stroke:#000000;stroke-width:0.8;" x="368.0875" xlink:href="#m2f15b231d8" y="354.958125"/>
      </g>
     </g>
     <g id="text_6">
      <!-- 1000 -->
      <defs>
       <path d="M 12.40625 8.296875 
L 28.515625 8.296875 
L 28.515625 63.921875 
L 10.984375 60.40625 
L 10.984375 69.390625 
L 28.421875 72.90625 
L 38.28125 72.90625 
L 38.28125 8.296875 
L 54.390625 8.296875 
L 54.390625 0 
L 12.40625 0 
z
" id="DejaVuSans-49"/>
      </defs>
      <g transform="translate(355.3625 369.556562)scale(0.1 -0.1)">
       <use xlink:href="#DejaVuSans-49"/>
       <use x="63.623047" xlink:href="#DejaVuSans-48"/>
       <use x="127.246094" xlink:href="#DejaVuSans-48"/>
       <use x="190.869141" xlink:href="#DejaVuSans-48"/>
      </g>
     </g>
    </g>
    <g id="text_7">
     <!-- Steps -->
     <defs>
      <path d="M 53.515625 70.515625 
L 53.515625 60.890625 
Q 47.90625 63.578125 42.921875 64.890625 
Q 37.9375 66.21875 33.296875 66.21875 
Q 25.25 66.21875 20.875 63.09375 
Q 16.5 59.96875 16.5 54.203125 
Q 16.5 49.359375 19.40625 46.890625 
Q 22.3125 44.4375 30.421875 42.921875 
L 36.375 41.703125 
Q 47.40625 39.59375 52.65625 34.296875 
Q 57.90625 29 57.90625 20.125 
Q 57.90625 9.515625 50.796875 4.046875 
Q 43.703125 -1.421875 29.984375 -1.421875 
Q 24.8125 -1.421875 18.96875 -0.25 
Q 13.140625 0.921875 6.890625 3.21875 
L 6.890625 13.375 
Q 12.890625 10.015625 18.65625 8.296875 
Q 24.421875 6.59375 29.984375 6.59375 
Q 38.421875 6.59375 43.015625 9.90625 
Q 47.609375 13.234375 47.609375 19.390625 
Q 47.609375 24.75 44.3125 27.78125 
Q 41.015625 30.8125 33.5 32.328125 
L 27.484375 33.5 
Q 16.453125 35.6875 11.515625 40.375 
Q 6.59375 45.0625 6.59375 53.421875 
Q 6.59375 63.09375 13.40625 68.65625 
Q 20.21875 74.21875 32.171875 74.21875 
Q 37.3125 74.21875 42.625 73.28125 
Q 47.953125 72.359375 53.515625 70.515625 
z
" id="DejaVuSans-83"/>
      <path d="M 18.3125 70.21875 
L 18.3125 54.6875 
L 36.8125 54.6875 
L 36.8125 47.703125 
L 18.3125 47.703125 
L 18.3125 18.015625 
Q 18.3125 11.328125 20.140625 9.421875 
Q 21.96875 7.515625 27.59375 7.515625 
L 36.8125 7.515625 
L 36.8125 0 
L 27.59375 0 
Q 17.1875 0 13.234375 3.875 
Q 9.28125 7.765625 9.28125 18.015625 
L 9.28125 47.703125 
L 2.6875 47.703125 
L 2.6875 54.6875 
L 9.28125 54.6875 
L 9.28125 70.21875 
z
" id="DejaVuSans-116"/>
      <path d="M 56.203125 29.59375 
L 56.203125 25.203125 
L 14.890625 25.203125 
Q 15.484375 15.921875 20.484375 11.0625 
Q 25.484375 6.203125 34.421875 6.203125 
Q 39.59375 6.203125 44.453125 7.46875 
Q 49.3125 8.734375 54.109375 11.28125 
L 54.109375 2.78125 
Q 49.265625 0.734375 44.1875 -0.34375 
Q 39.109375 -1.421875 33.890625 -1.421875 
Q 20.796875 -1.421875 13.15625 6.1875 
Q 5.515625 13.8125 5.515625 26.8125 
Q 5.515625 40.234375 12.765625 48.109375 
Q 20.015625 56 32.328125 56 
Q 43.359375 56 49.78125 48.890625 
Q 56.203125 41.796875 56.203125 29.59375 
z
M 47.21875 32.234375 
Q 47.125 39.59375 43.09375 43.984375 
Q 39.0625 48.390625 32.421875 48.390625 
Q 24.90625 48.390625 20.390625 44.140625 
Q 15.875 39.890625 15.1875 32.171875 
z
" id="DejaVuSans-101"/>
      <path d="M 18.109375 8.203125 
L 18.109375 -20.796875 
L 9.078125 -20.796875 
L 9.078125 54.6875 
L 18.109375 54.6875 
L 18.109375 46.390625 
Q 20.953125 51.265625 25.265625 53.625 
Q 29.59375 56 35.59375 56 
Q 45.5625 56 51.78125 48.09375 
Q 58.015625 40.1875 58.015625 27.296875 
Q 58.015625 14.40625 51.78125 6.484375 
Q 45.5625 -1.421875 35.59375 -1.421875 
Q 29.59375 -1.421875 25.265625 0.953125 
Q 20.953125 3.328125 18.109375 8.203125 
z
M 48.6875 27.296875 
Q 48.6875 37.203125 44.609375 42.84375 
Q 40.53125 48.484375 33.40625 48.484375 
Q 26.265625 48.484375 22.1875 42.84375 
Q 18.109375 37.203125 18.109375 27.296875 
Q 18.109375 17.390625 22.1875 11.75 
Q 26.265625 6.109375 33.40625 6.109375 
Q 40.53125 6.109375 44.609375 11.75 
Q 48.6875 17.390625 48.6875 27.296875 
z
" id="DejaVuSans-112"/>
      <path d="M 44.28125 53.078125 
L 44.28125 44.578125 
Q 40.484375 46.53125 36.375 47.5 
Q 32.28125 48.484375 27.875 48.484375 
Q 21.1875 48.484375 17.84375 46.4375 
Q 14.5 44.390625 14.5 40.28125 
Q 14.5 37.15625 16.890625 35.375 
Q 19.28125 33.59375 26.515625 31.984375 
L 29.59375 31.296875 
Q 39.15625 29.25 43.1875 25.515625 
Q 47.21875 21.78125 47.21875 15.09375 
Q 47.21875 7.46875 41.1875 3.015625 
Q 35.15625 -1.421875 24.609375 -1.421875 
Q 20.21875 -1.421875 15.453125 -0.5625 
Q 10.6875 0.296875 5.421875 2 
L 5.421875 11.28125 
Q 10.40625 8.6875 15.234375 7.390625 
Q 20.0625 6.109375 24.8125 6.109375 
Q 31.15625 6.109375 34.5625 8.28125 
Q 37.984375 10.453125 37.984375 14.40625 
Q 37.984375 18.0625 35.515625 20.015625 
Q 33.0625 21.96875 24.703125 23.78125 
L 21.578125 24.515625 
Q 13.234375 26.265625 9.515625 29.90625 
Q 5.8125 33.546875 5.8125 39.890625 
Q 5.8125 47.609375 11.28125 51.796875 
Q 16.75 56 26.8125 56 
Q 31.78125 56 36.171875 55.265625 
Q 40.578125 54.546875 44.28125 53.078125 
z
" id="DejaVuSans-115"/>
     </defs>
     <g transform="translate(186.697656 383.234687)scale(0.1 -0.1)">
      <use xlink:href="#DejaVuSans-83"/>
      <use x="63.476562" xlink:href="#DejaVuSans-116"/>
      <use x="102.685547" xlink:href="#DejaVuSans-101"/>
      <use x="164.208984" xlink:href="#DejaVuSans-112"/>
      <use x="227.685547" xlink:href="#DejaVuSans-115"/>
     </g>
    </g>
   </g>
   <g id="matplotlib.axis_2">
    <g id="ytick_1">
     <g id="line2d_7">
      <defs>
       <path d="M 0 0 
L -3.5 0 
" id="m7dd34a5113" style="stroke:#000000;stroke-width:0.8;"/>
      </defs>
      <g>
       <use style="stroke:#000000;stroke-width:0.8;" x="33.2875" xlink:href="#m7dd34a5113" y="344.503725"/>
      </g>
     </g>
     <g id="text_8">
      <!-- 1 -->
      <g transform="translate(19.925 348.302944)scale(0.1 -0.1)">
       <use xlink:href="#DejaVuSans-49"/>
      </g>
     </g>
    </g>
    <g id="ytick_2">
     <g id="line2d_8">
      <g>
       <use style="stroke:#000000;stroke-width:0.8;" x="33.2875" xlink:href="#m7dd34a5113" y="335.950125"/>
      </g>
     </g>
     <g id="text_9">
      <!-- 10 -->
      <g transform="translate(13.5625 339.749344)scale(0.1 -0.1)">
       <use xlink:href="#DejaVuSans-49"/>
       <use x="63.623047" xlink:href="#DejaVuSans-48"/>
      </g>
     </g>
    </g>
    <g id="ytick_3">
     <g id="line2d_9">
      <g>
       <use style="stroke:#000000;stroke-width:0.8;" x="33.2875" xlink:href="#m7dd34a5113" y="250.414125"/>
      </g>
     </g>
     <g id="text_10">
      <!-- 100 -->
      <g transform="translate(7.2 254.213344)scale(0.1 -0.1)">
       <use xlink:href="#DejaVuSans-49"/>
       <use x="63.623047" xlink:href="#DejaVuSans-48"/>
       <use x="127.246094" xlink:href="#DejaVuSans-48"/>
      </g>
     </g>
    </g>
    <g id="ytick_4">
     <g id="line2d_10">
      <g>
       <use style="stroke:#000000;stroke-width:0.8;" x="33.2875" xlink:href="#m7dd34a5113" y="155.374125"/>
      </g>
     </g>
     <g id="text_11">
      <!-- 200 -->
      <g transform="translate(7.2 159.173344)scale(0.1 -0.1)">
       <use xlink:href="#DejaVuSans-50"/>
       <use x="63.623047" xlink:href="#DejaVuSans-48"/>
       <use x="127.246094" xlink:href="#DejaVuSans-48"/>
      </g>
     </g>
    </g>
    <g id="ytick_5">
     <g id="line2d_11">
      <g>
       <use style="stroke:#000000;stroke-width:0.8;" x="33.2875" xlink:href="#m7dd34a5113" y="60.334125"/>
      </g>
     </g>
     <g id="text_12">
      <!-- 300 -->
      <defs>
       <path d="M 40.578125 39.3125 
Q 47.65625 37.796875 51.625 33 
Q 55.609375 28.21875 55.609375 21.1875 
Q 55.609375 10.40625 48.1875 4.484375 
Q 40.765625 -1.421875 27.09375 -1.421875 
Q 22.515625 -1.421875 17.65625 -0.515625 
Q 12.796875 0.390625 7.625 2.203125 
L 7.625 11.71875 
Q 11.71875 9.328125 16.59375 8.109375 
Q 21.484375 6.890625 26.8125 6.890625 
Q 36.078125 6.890625 40.9375 10.546875 
Q 45.796875 14.203125 45.796875 21.1875 
Q 45.796875 27.640625 41.28125 31.265625 
Q 36.765625 34.90625 28.71875 34.90625 
L 20.21875 34.90625 
L 20.21875 43.015625 
L 29.109375 43.015625 
Q 36.375 43.015625 40.234375 45.921875 
Q 44.09375 48.828125 44.09375 54.296875 
Q 44.09375 59.90625 40.109375 62.90625 
Q 36.140625 65.921875 28.71875 65.921875 
Q 24.65625 65.921875 20.015625 65.03125 
Q 15.375 64.15625 9.8125 62.3125 
L 9.8125 71.09375 
Q 15.4375 72.65625 20.34375 73.4375 
Q 25.25 74.21875 29.59375 74.21875 
Q 40.828125 74.21875 47.359375 69.109375 
Q 53.90625 64.015625 53.90625 55.328125 
Q 53.90625 49.265625 50.4375 45.09375 
Q 46.96875 40.921875 40.578125 39.3125 
z
" id="DejaVuSans-51"/>
      </defs>
      <g transform="translate(7.2 64.133344)scale(0.1 -0.1)">
       <use xlink:href="#DejaVuSans-51"/>
       <use x="63.623047" xlink:href="#DejaVuSans-48"/>
       <use x="127.246094" xlink:href="#DejaVuSans-48"/>
      </g>
     </g>
    </g>
   </g>
   <g id="line2d_12">
    <path clip-path="url(#p45527b6941)" d="M 39.852206 344.503725 
L 54.294559 344.503725 
L 54.622794 342.917368 
L 62.172206 342.917368 
L 62.500441 341.42527 
L 103.529853 341.42527 
L 103.858088 339.012915 
L 109.766324 339.012915 
L 110.094559 336.830874 
L 110.751029 336.830874 
L 111.079265 335.110116 
L 122.895735 335.110116 
L 123.223971 333.344938 
L 148.826324 333.344938 
L 149.154559 331.295603 
L 151.452206 331.295603 
L 151.780441 329.216366 
L 179.352206 329.216366 
L 179.680441 326.137874 
L 188.542794 326.137874 
L 188.871029 323.045972 
L 207.908676 323.045972 
L 208.236912 319.166056 
L 210.862794 319.166056 
L 211.191029 316.106354 
L 211.519265 316.106354 
L 211.8475 313.693473 
L 220.709853 313.693473 
L 221.038088 310.891922 
L 231.541618 310.891922 
L 231.869853 307.363783 
L 239.419265 307.363783 
L 239.7475 304.285123 
L 240.403971 304.285123 
L 240.732206 301.857291 
L 273.2275 301.857291 
L 273.555735 295.559748 
L 286.685147 295.559748 
L 287.013382 288.291912 
L 296.860441 288.291912 
L 297.188676 278.903123 
L 304.409853 278.903123 
L 304.738088 270.375104 
L 317.8675 270.375104 
L 318.195735 261.908897 
L 321.149853 261.908897 
L 321.478088 254.776373 
L 360.866324 254.776373 
L 361.194559 234.696073 
L 367.759265 234.696073 
L 367.759265 234.696073 
" style="fill:none;stroke:#0000ff;stroke-linecap:square;stroke-width:1.5;"/>
   </g>
   <g id="line2d_13">
    <path clip-path="url(#p45527b6941)" d="M 39.852206 344.503725 
L 43.791029 344.503725 
L 44.119265 343.241134 
L 145.543971 343.241134 
L 145.872206 338.711355 
L 150.139265 338.711355 
L 150.4675 335.01884 
L 154.734559 335.01884 
L 155.062794 331.75446 
L 160.314559 331.75446 
L 160.642794 329.016065 
L 166.551029 329.016065 
L 166.879265 326.856566 
L 169.833382 326.856566 
L 170.161618 324.676761 
L 171.802794 324.676761 
L 172.131029 322.957767 
L 193.794559 322.957767 
L 194.122794 320.28315 
L 242.701618 320.28315 
L 243.029853 313.209322 
L 245.983971 313.209322 
L 246.312206 307.630901 
L 255.502794 307.630901 
L 255.831029 302.526153 
L 269.288676 302.526153 
L 269.616912 296.457629 
L 273.883971 296.457629 
L 274.212206 291.23998 
L 296.203971 291.23998 
L 296.532206 281.681447 
L 315.898088 281.681447 
L 316.226324 271.290118 
L 341.828676 271.290118 
L 342.156912 254.347236 
L 352.332206 254.347236 
L 352.660441 238.079032 
L 355.942794 238.079032 
L 356.271029 225.249927 
L 358.568676 225.249927 
L 358.896912 215.132894 
L 367.759265 215.132894 
L 367.759265 215.132894 
" style="fill:none;stroke:#000000;stroke-linecap:square;stroke-width:1.5;"/>
   </g>
   <g id="line2d_14">
    <path clip-path="url(#p45527b6941)" d="M 39.852206 344.503725 
L 65.782794 344.503725 
L 66.111029 342.465089 
L 75.629853 342.465089 
L 75.958088 340.613976 
L 86.133382 340.613976 
L 86.461618 338.864287 
L 87.774559 338.864287 
L 88.102794 337.506055 
L 106.812206 337.506055 
L 107.140441 335.858927 
L 116.659265 335.858927 
L 116.9875 334.13472 
L 129.132206 334.13472 
L 129.460441 332.538946 
L 133.7275 332.538946 
L 134.055735 331.104203 
L 155.719265 331.104203 
L 156.0475 328.711986 
L 205.611029 328.711986 
L 205.939265 323.596508 
L 261.411029 323.596508 
L 261.739265 313.366572 
L 291.280441 313.366572 
L 291.608676 299.676391 
L 321.806324 299.676391 
L 322.134559 281.479678 
L 337.889853 281.479678 
L 338.218088 263.838603 
L 343.798088 263.838603 
L 344.126324 247.819864 
L 345.439265 247.819864 
L 345.7675 235.187486 
L 367.759265 235.187486 
L 367.759265 235.187486 
" style="fill:none;stroke:#da70d6;stroke-linecap:square;stroke-width:1.5;"/>
   </g>
   <g id="line2d_15">
    <path clip-path="url(#p45527b6941)" d="M 39.852206 344.503725 
L 42.478088 344.503725 
L 42.806324 343.322188 
L 51.340441 343.322188 
L 51.668676 342.215537 
L 80.881618 342.215537 
L 81.209853 340.248229 
L 85.476912 340.248229 
L 85.805147 338.706698 
L 94.339265 338.706698 
L 94.6675 337.223843 
L 130.773382 337.223843 
L 131.101618 334.653644 
L 167.2075 334.653644 
L 167.535735 330.767482 
L 168.520441 330.767482 
L 168.848676 327.702854 
L 181.649853 327.702854 
L 181.978088 324.836961 
L 182.634559 324.836961 
L 182.962794 322.576918 
L 217.4275 322.576918 
L 217.755735 317.62753 
L 226.289853 317.62753 
L 226.618088 312.85655 
L 237.778088 312.85655 
L 238.106324 308.536285 
L 248.938088 308.536285 
L 249.266324 303.883635 
L 249.594559 303.883635 
L 249.922794 300.214554 
L 251.563971 300.214554 
L 251.892206 297.321118 
L 293.578088 297.321118 
L 293.906324 287.184518 
L 302.440441 287.184518 
L 302.768676 277.034032 
L 332.966324 277.034032 
L 333.294559 263.336741 
L 338.546324 263.336741 
L 338.874559 249.565511 
L 361.522794 249.565511 
L 361.851029 229.566744 
L 367.759265 229.566744 
L 367.759265 229.566744 
" style="fill:none;stroke:#00ffff;stroke-linecap:square;stroke-width:1.5;"/>
   </g>
   <g id="line2d_16">
    <path clip-path="url(#p45527b6941)" d="M 39.852206 344.503725 
L 54.294559 344.503725 
L 54.622794 342.917368 
L 62.172206 342.917368 
L 62.500441 341.42527 
L 103.529853 341.42527 
L 103.858088 339.012915 
L 109.766324 339.012915 
L 110.094559 336.830874 
L 110.751029 336.830874 
L 111.079265 335.110116 
L 122.895735 335.110116 
L 123.223971 333.344938 
L 148.826324 333.344938 
L 149.154559 331.295603 
L 151.452206 331.295603 
L 151.780441 329.216366 
L 179.352206 329.216366 
L 179.680441 326.137874 
L 188.542794 326.137874 
L 188.871029 323.045972 
L 207.908676 323.045972 
L 208.236912 319.166056 
L 210.862794 319.166056 
L 211.191029 316.106354 
L 211.519265 316.106354 
L 211.8475 313.693473 
L 220.709853 313.693473 
L 221.038088 310.891922 
L 231.541618 310.891922 
L 231.869853 307.363783 
L 239.419265 307.363783 
L 239.7475 304.285123 
L 240.403971 304.285123 
L 240.732206 301.857291 
L 273.2275 301.857291 
L 273.555735 295.559748 
L 286.685147 295.559748 
L 287.013382 288.291912 
L 296.860441 288.291912 
L 297.188676 278.903123 
L 304.409853 278.903123 
L 304.738088 270.375104 
L 317.8675 270.375104 
L 318.195735 261.908897 
L 321.149853 261.908897 
L 321.478088 254.776373 
L 360.866324 254.776373 
L 361.194559 234.696073 
L 367.759265 234.696073 
L 367.759265 234.696073 
" style="fill:none;stroke:#800080;stroke-linecap:square;stroke-width:1.5;"/>
   </g>
   <g id="line2d_17">
    <path clip-path="url(#p45527b6941)" d="M 39.852206 344.503725 
L 59.546324 344.503725 
L 59.874559 342.685655 
L 70.049853 342.685655 
L 70.378088 340.895583 
L 104.186324 340.895583 
L 104.514559 338.466053 
L 113.705147 338.466053 
L 114.033382 336.169401 
L 118.628676 336.169401 
L 118.956912 334.239981 
L 203.641618 334.239981 
L 203.969853 328.004424 
L 222.351029 328.004424 
L 222.679265 321.00362 
L 262.0675 321.00362 
L 262.395735 310.797919 
L 275.853382 310.797919 
L 276.181618 301.207058 
L 280.776912 301.207058 
L 281.105147 293.643705 
L 287.341618 293.643705 
L 287.669853 286.413788 
L 288.982794 286.413788 
L 289.311029 280.98457 
L 294.562794 280.98457 
L 294.891029 274.726833 
L 299.486324 274.726833 
L 299.814559 268.492195 
L 326.401618 268.492195 
L 326.729853 257.912393 
L 333.951029 257.912393 
L 334.279265 248.629527 
L 351.675735 248.629527 
L 352.003971 234.903862 
L 367.759265 234.903862 
L 367.759265 234.903862 
" style="fill:none;stroke:#ff00ff;stroke-linecap:square;stroke-width:1.5;"/>
   </g>
   <g id="line2d_18">
    <path clip-path="url(#p45527b6941)" d="M 39.852206 335.950125 
L 86.789853 336.037067 
L 88.431029 336.063138 
L 172.131029 336.154271 
L 172.7875 336.225736 
L 216.771029 336.335939 
L 217.4275 336.445756 
L 251.892206 336.445756 
L 252.220441 336.600128 
L 287.669853 336.600128 
L 288.654559 337.259438 
L 309.661618 337.259438 
L 309.989853 337.543021 
L 322.134559 337.543021 
L 322.462794 337.866582 
L 367.759265 337.866582 
L 367.759265 337.866582 
" style="fill:none;stroke:#ff8c00;stroke-linecap:square;stroke-width:1.5;"/>
   </g>
   <g id="line2d_19">
    <path clip-path="url(#p45527b6941)" d="M 39.852206 344.503725 
L 42.478088 344.503725 
L 42.806324 343.912956 
L 43.791029 343.912956 
L 44.119265 343.281661 
L 46.088676 343.301049 
L 48.714559 343.301049 
L 49.042794 342.628449 
L 51.340441 342.628449 
L 51.668676 342.075124 
L 53.309853 342.097877 
L 53.638088 342.097877 
L 53.966324 341.531855 
L 54.294559 341.531855 
L 54.622794 340.738677 
L 55.279265 340.738677 
L 55.6075 340.2379 
L 57.248676 340.2379 
L 57.576912 339.842988 
L 59.546324 339.842988 
L 59.874559 338.933953 
L 61.1875 338.965485 
L 62.172206 338.965485 
L 62.500441 338.219436 
L 65.782794 338.219436 
L 66.111029 337.200118 
L 68.080441 337.200118 
L 68.408676 336.708482 
L 69.393382 336.708482 
L 69.721618 336.320778 
L 70.049853 336.320778 
L 70.378088 335.425741 
L 75.629853 335.425741 
L 75.958088 334.500185 
L 77.9275 334.500185 
L 78.255735 334.069549 
L 80.881618 334.069549 
L 81.209853 333.085895 
L 82.194559 333.13378 
L 85.476912 333.13378 
L 85.805147 332.363014 
L 86.133382 332.363014 
L 86.461618 331.48817 
L 87.774559 331.592637 
L 88.102794 330.913521 
L 89.743971 330.913521 
L 90.072206 330.362697 
L 94.339265 330.362697 
L 94.6675 329.621269 
L 99.919265 329.621269 
L 100.2475 329.136027 
L 103.529853 329.136027 
L 103.858088 327.92985 
L 104.186324 327.92985 
L 104.514559 326.715085 
L 106.812206 326.715085 
L 107.140441 325.891522 
L 109.766324 325.891522 
L 110.094559 324.800501 
L 110.751029 324.800501 
L 111.079265 323.940122 
L 113.705147 323.940122 
L 114.033382 322.791796 
L 116.659265 322.791796 
L 116.9875 321.929693 
L 118.628676 321.929693 
L 118.956912 320.964983 
L 122.895735 320.964983 
L 123.223971 320.082393 
L 123.880441 320.166582 
L 129.132206 320.166582 
L 129.460441 319.368695 
L 130.773382 319.368695 
L 131.101618 318.083595 
L 133.7275 318.083595 
L 134.055735 317.366224 
L 145.543971 317.366224 
L 145.872206 315.101334 
L 146.528676 315.19941 
L 148.826324 315.19941 
L 149.154559 314.174743 
L 150.139265 314.174743 
L 150.4675 312.328485 
L 150.795735 312.328485 
L 151.123971 310.799142 
L 151.452206 310.799142 
L 151.780441 309.759523 
L 154.734559 309.759523 
L 155.062794 308.127333 
L 155.719265 308.127333 
L 156.0475 306.931225 
L 160.314559 306.931225 
L 160.642794 305.562027 
L 166.551029 305.562027 
L 166.879265 304.482277 
L 167.2075 304.482277 
L 167.535735 302.539196 
L 168.520441 302.539196 
L 168.848676 301.006882 
L 169.833382 301.006882 
L 170.161618 299.91698 
L 171.802794 299.91698 
L 172.131029 299.057483 
L 172.459265 299.200413 
L 179.352206 299.200413 
L 179.680441 297.661167 
L 181.649853 297.661167 
L 181.978088 296.228221 
L 182.634559 296.228221 
L 182.962794 295.098199 
L 186.245147 295.098199 
L 186.573382 292.820027 
L 188.542794 292.820027 
L 188.871029 291.274075 
L 189.855735 291.274075 
L 190.183971 289.371456 
L 193.794559 289.371456 
L 194.122794 288.034148 
L 202.328676 288.034148 
L 202.656912 286.442003 
L 203.641618 286.442003 
L 203.969853 283.324224 
L 205.611029 283.324224 
L 205.939265 280.766485 
L 207.908676 280.766485 
L 208.236912 278.826527 
L 210.862794 278.826527 
L 211.191029 277.296677 
L 211.519265 277.296677 
L 211.8475 276.090236 
L 214.473382 276.090236 
L 214.801618 274.12454 
L 215.129853 274.12454 
L 215.458088 272.574391 
L 216.114559 272.574391 
L 216.442794 271.351944 
L 217.099265 271.791985 
L 217.4275 271.791985 
L 217.755735 269.317291 
L 220.709853 269.317291 
L 221.038088 267.916515 
L 222.351029 267.916515 
L 222.679265 264.416113 
L 224.648676 264.416113 
L 224.976912 262.991541 
L 226.289853 262.991541 
L 226.618088 260.606051 
L 229.572206 260.606051 
L 229.900441 259.318989 
L 230.556912 259.318989 
L 230.885147 258.304011 
L 231.541618 258.304011 
L 231.869853 256.539942 
L 237.778088 256.539942 
L 238.106324 254.379809 
L 239.419265 254.379809 
L 239.7475 252.840479 
L 240.403971 252.840479 
L 240.732206 251.626563 
L 242.701618 251.626563 
L 243.029853 248.089649 
L 245.983971 248.089649 
L 246.312206 245.300439 
L 248.938088 245.300439 
L 249.266324 242.974113 
L 249.594559 242.974113 
L 249.922794 241.139573 
L 251.563971 241.139573 
L 251.892206 239.692855 
L 252.220441 240.001598 
L 255.502794 240.001598 
L 255.831029 237.449224 
L 256.4875 237.449224 
L 256.815735 235.228873 
L 261.411029 235.228873 
L 261.739265 230.113905 
L 262.0675 230.113905 
L 262.395735 225.011054 
L 266.662794 225.011054 
L 266.991029 222.559143 
L 269.288676 222.559143 
L 269.616912 219.524881 
L 273.2275 219.524881 
L 273.555735 216.37611 
L 273.883971 216.37611 
L 274.212206 213.767285 
L 275.853382 213.767285 
L 276.181618 208.971855 
L 280.776912 208.971855 
L 281.105147 205.190178 
L 281.433382 205.190178 
L 281.761618 202.06509 
L 285.372206 202.06509 
L 285.700441 199.600645 
L 286.685147 199.600645 
L 287.013382 195.966727 
L 287.341618 195.966727 
L 287.669853 192.351768 
L 288.654559 193.670389 
L 288.982794 193.670389 
L 289.311029 190.95578 
L 290.295735 190.95578 
L 290.623971 188.464971 
L 291.280441 188.464971 
L 291.608676 181.619881 
L 293.578088 181.619881 
L 293.906324 176.551581 
L 294.562794 176.551581 
L 294.891029 173.422712 
L 296.203971 173.422712 
L 296.532206 168.643446 
L 296.860441 168.643446 
L 297.188676 163.949051 
L 299.486324 163.949051 
L 299.814559 160.831732 
L 302.440441 160.831732 
L 302.768676 155.756489 
L 304.409853 155.756489 
L 304.738088 151.49248 
L 309.333382 151.49248 
L 309.661618 146.991915 
L 309.989853 147.559082 
L 315.898088 147.559082 
L 316.226324 142.363418 
L 317.211029 142.363418 
L 317.539265 138.51641 
L 317.8675 138.51641 
L 318.195735 134.283306 
L 320.493382 134.283306 
L 320.821618 130.959164 
L 321.149853 130.959164 
L 321.478088 127.392903 
L 321.806324 127.392903 
L 322.134559 118.294546 
L 322.462794 118.941668 
L 326.401618 118.941668 
L 326.729853 113.651767 
L 332.966324 113.651767 
L 333.294559 106.803122 
L 333.951029 106.803122 
L 334.279265 102.161689 
L 334.6075 102.161689 
L 334.935735 97.587187 
L 336.248676 97.587187 
L 336.576912 93.979735 
L 337.889853 93.979735 
L 338.218088 85.159198 
L 338.546324 85.159198 
L 338.874559 78.273583 
L 341.828676 78.273583 
L 342.156912 69.802142 
L 343.798088 69.802142 
L 344.126324 61.792772 
L 345.439265 61.792772 
L 345.7675 55.476583 
L 351.675735 55.476583 
L 352.003971 48.613751 
L 352.332206 48.613751 
L 352.660441 40.479649 
L 355.942794 40.479649 
L 356.271029 34.065096 
L 358.568676 34.065096 
L 358.896912 29.00658 
L 359.881618 29.00658 
L 360.209853 21.704584 
L 360.866324 21.704584 
L 361.194559 11.664434 
L 361.522794 11.664434 
L 361.851029 1.665051 
L 367.759265 1.665051 
L 367.759265 1.665051 
" style="fill:none;stroke:#b8860b;stroke-linecap:square;stroke-width:1.5;"/>
   </g>
   <g id="patch_3">
    <path d="M 33.2875 354.958125 
L 33.2875 22.318125 
" style="fill:none;stroke:#000000;stroke-linecap:square;stroke-linejoin:miter;stroke-width:0.8;"/>
   </g>
   <g id="patch_4">
    <path d="M 368.0875 354.958125 
L 368.0875 22.318125 
" style="fill:none;stroke:#000000;stroke-linecap:square;stroke-linejoin:miter;stroke-width:0.8;"/>
   </g>
   <g id="patch_5">
    <path d="M 33.2875 354.958125 
L 368.0875 354.958125 
" style="fill:none;stroke:#000000;stroke-linecap:square;stroke-linejoin:miter;stroke-width:0.8;"/>
   </g>
   <g id="patch_6">
    <path d="M 33.2875 22.318125 
L 368.0875 22.318125 
" style="fill:none;stroke:#000000;stroke-linecap:square;stroke-linejoin:miter;stroke-width:0.8;"/>
   </g>
   <g id="text_13">
    <!-- Semi-gradient Off-policy TD -->
    <defs>
     <path d="M 52 44.1875 
Q 55.375 50.25 60.0625 53.125 
Q 64.75 56 71.09375 56 
Q 79.640625 56 84.28125 50.015625 
Q 88.921875 44.046875 88.921875 33.015625 
L 88.921875 0 
L 79.890625 0 
L 79.890625 32.71875 
Q 79.890625 40.578125 77.09375 44.375 
Q 74.3125 48.1875 68.609375 48.1875 
Q 61.625 48.1875 57.5625 43.546875 
Q 53.515625 38.921875 53.515625 30.90625 
L 53.515625 0 
L 44.484375 0 
L 44.484375 32.71875 
Q 44.484375 40.625 41.703125 44.40625 
Q 38.921875 48.1875 33.109375 48.1875 
Q 26.21875 48.1875 22.15625 43.53125 
Q 18.109375 38.875 18.109375 30.90625 
L 18.109375 0 
L 9.078125 0 
L 9.078125 54.6875 
L 18.109375 54.6875 
L 18.109375 46.1875 
Q 21.1875 51.21875 25.484375 53.609375 
Q 29.78125 56 35.6875 56 
Q 41.65625 56 45.828125 52.96875 
Q 50 49.953125 52 44.1875 
z
" id="DejaVuSans-109"/>
     <path d="M 9.421875 54.6875 
L 18.40625 54.6875 
L 18.40625 0 
L 9.421875 0 
z
M 9.421875 75.984375 
L 18.40625 75.984375 
L 18.40625 64.59375 
L 9.421875 64.59375 
z
" id="DejaVuSans-105"/>
     <path d="M 4.890625 31.390625 
L 31.203125 31.390625 
L 31.203125 23.390625 
L 4.890625 23.390625 
z
" id="DejaVuSans-45"/>
     <path d="M 45.40625 27.984375 
Q 45.40625 37.75 41.375 43.109375 
Q 37.359375 48.484375 30.078125 48.484375 
Q 22.859375 48.484375 18.828125 43.109375 
Q 14.796875 37.75 14.796875 27.984375 
Q 14.796875 18.265625 18.828125 12.890625 
Q 22.859375 7.515625 30.078125 7.515625 
Q 37.359375 7.515625 41.375 12.890625 
Q 45.40625 18.265625 45.40625 27.984375 
z
M 54.390625 6.78125 
Q 54.390625 -7.171875 48.1875 -13.984375 
Q 42 -20.796875 29.203125 -20.796875 
Q 24.46875 -20.796875 20.265625 -20.09375 
Q 16.0625 -19.390625 12.109375 -17.921875 
L 12.109375 -9.1875 
Q 16.0625 -11.328125 19.921875 -12.34375 
Q 23.78125 -13.375 27.78125 -13.375 
Q 36.625 -13.375 41.015625 -8.765625 
Q 45.40625 -4.15625 45.40625 5.171875 
L 45.40625 9.625 
Q 42.625 4.78125 38.28125 2.390625 
Q 33.9375 0 27.875 0 
Q 17.828125 0 11.671875 7.65625 
Q 5.515625 15.328125 5.515625 27.984375 
Q 5.515625 40.671875 11.671875 48.328125 
Q 17.828125 56 27.875 56 
Q 33.9375 56 38.28125 53.609375 
Q 42.625 51.21875 45.40625 46.390625 
L 45.40625 54.6875 
L 54.390625 54.6875 
z
" id="DejaVuSans-103"/>
     <path d="M 41.109375 46.296875 
Q 39.59375 47.171875 37.8125 47.578125 
Q 36.03125 48 33.890625 48 
Q 26.265625 48 22.1875 43.046875 
Q 18.109375 38.09375 18.109375 28.8125 
L 18.109375 0 
L 9.078125 0 
L 9.078125 54.6875 
L 18.109375 54.6875 
L 18.109375 46.1875 
Q 20.953125 51.171875 25.484375 53.578125 
Q 30.03125 56 36.53125 56 
Q 37.453125 56 38.578125 55.875 
Q 39.703125 55.765625 41.0625 55.515625 
z
" id="DejaVuSans-114"/>
     <path d="M 34.28125 27.484375 
Q 23.390625 27.484375 19.1875 25 
Q 14.984375 22.515625 14.984375 16.5 
Q 14.984375 11.71875 18.140625 8.90625 
Q 21.296875 6.109375 26.703125 6.109375 
Q 34.1875 6.109375 38.703125 11.40625 
Q 43.21875 16.703125 43.21875 25.484375 
L 43.21875 27.484375 
z
M 52.203125 31.203125 
L 52.203125 0 
L 43.21875 0 
L 43.21875 8.296875 
Q 40.140625 3.328125 35.546875 0.953125 
Q 30.953125 -1.421875 24.3125 -1.421875 
Q 15.921875 -1.421875 10.953125 3.296875 
Q 6 8.015625 6 15.921875 
Q 6 25.140625 12.171875 29.828125 
Q 18.359375 34.515625 30.609375 34.515625 
L 43.21875 34.515625 
L 43.21875 35.40625 
Q 43.21875 41.609375 39.140625 45 
Q 35.0625 48.390625 27.6875 48.390625 
Q 23 48.390625 18.546875 47.265625 
Q 14.109375 46.140625 10.015625 43.890625 
L 10.015625 52.203125 
Q 14.9375 54.109375 19.578125 55.046875 
Q 24.21875 56 28.609375 56 
Q 40.484375 56 46.34375 49.84375 
Q 52.203125 43.703125 52.203125 31.203125 
z
" id="DejaVuSans-97"/>
     <path d="M 45.40625 46.390625 
L 45.40625 75.984375 
L 54.390625 75.984375 
L 54.390625 0 
L 45.40625 0 
L 45.40625 8.203125 
Q 42.578125 3.328125 38.25 0.953125 
Q 33.9375 -1.421875 27.875 -1.421875 
Q 17.96875 -1.421875 11.734375 6.484375 
Q 5.515625 14.40625 5.515625 27.296875 
Q 5.515625 40.1875 11.734375 48.09375 
Q 17.96875 56 27.875 56 
Q 33.9375 56 38.25 53.625 
Q 42.578125 51.265625 45.40625 46.390625 
z
M 14.796875 27.296875 
Q 14.796875 17.390625 18.875 11.75 
Q 22.953125 6.109375 30.078125 6.109375 
Q 37.203125 6.109375 41.296875 11.75 
Q 45.40625 17.390625 45.40625 27.296875 
Q 45.40625 37.203125 41.296875 42.84375 
Q 37.203125 48.484375 30.078125 48.484375 
Q 22.953125 48.484375 18.875 42.84375 
Q 14.796875 37.203125 14.796875 27.296875 
z
" id="DejaVuSans-100"/>
     <path d="M 54.890625 33.015625 
L 54.890625 0 
L 45.90625 0 
L 45.90625 32.71875 
Q 45.90625 40.484375 42.875 44.328125 
Q 39.84375 48.1875 33.796875 48.1875 
Q 26.515625 48.1875 22.3125 43.546875 
Q 18.109375 38.921875 18.109375 30.90625 
L 18.109375 0 
L 9.078125 0 
L 9.078125 54.6875 
L 18.109375 54.6875 
L 18.109375 46.1875 
Q 21.34375 51.125 25.703125 53.5625 
Q 30.078125 56 35.796875 56 
Q 45.21875 56 50.046875 50.171875 
Q 54.890625 44.34375 54.890625 33.015625 
z
" id="DejaVuSans-110"/>
     <path id="DejaVuSans-32"/>
     <path d="M 39.40625 66.21875 
Q 28.65625 66.21875 22.328125 58.203125 
Q 16.015625 50.203125 16.015625 36.375 
Q 16.015625 22.609375 22.328125 14.59375 
Q 28.65625 6.59375 39.40625 6.59375 
Q 50.140625 6.59375 56.421875 14.59375 
Q 62.703125 22.609375 62.703125 36.375 
Q 62.703125 50.203125 56.421875 58.203125 
Q 50.140625 66.21875 39.40625 66.21875 
z
M 39.40625 74.21875 
Q 54.734375 74.21875 63.90625 63.9375 
Q 73.09375 53.65625 73.09375 36.375 
Q 73.09375 19.140625 63.90625 8.859375 
Q 54.734375 -1.421875 39.40625 -1.421875 
Q 24.03125 -1.421875 14.8125 8.828125 
Q 5.609375 19.09375 5.609375 36.375 
Q 5.609375 53.65625 14.8125 63.9375 
Q 24.03125 74.21875 39.40625 74.21875 
z
" id="DejaVuSans-79"/>
     <path d="M 37.109375 75.984375 
L 37.109375 68.5 
L 28.515625 68.5 
Q 23.6875 68.5 21.796875 66.546875 
Q 19.921875 64.59375 19.921875 59.515625 
L 19.921875 54.6875 
L 34.71875 54.6875 
L 34.71875 47.703125 
L 19.921875 47.703125 
L 19.921875 0 
L 10.890625 0 
L 10.890625 47.703125 
L 2.296875 47.703125 
L 2.296875 54.6875 
L 10.890625 54.6875 
L 10.890625 58.5 
Q 10.890625 67.625 15.140625 71.796875 
Q 19.390625 75.984375 28.609375 75.984375 
z
" id="DejaVuSans-102"/>
     <path d="M 30.609375 48.390625 
Q 23.390625 48.390625 19.1875 42.75 
Q 14.984375 37.109375 14.984375 27.296875 
Q 14.984375 17.484375 19.15625 11.84375 
Q 23.34375 6.203125 30.609375 6.203125 
Q 37.796875 6.203125 41.984375 11.859375 
Q 46.1875 17.53125 46.1875 27.296875 
Q 46.1875 37.015625 41.984375 42.703125 
Q 37.796875 48.390625 30.609375 48.390625 
z
M 30.609375 56 
Q 42.328125 56 49.015625 48.375 
Q 55.71875 40.765625 55.71875 27.296875 
Q 55.71875 13.875 49.015625 6.21875 
Q 42.328125 -1.421875 30.609375 -1.421875 
Q 18.84375 -1.421875 12.171875 6.21875 
Q 5.515625 13.875 5.515625 27.296875 
Q 5.515625 40.765625 12.171875 48.375 
Q 18.84375 56 30.609375 56 
z
" id="DejaVuSans-111"/>
     <path d="M 9.421875 75.984375 
L 18.40625 75.984375 
L 18.40625 0 
L 9.421875 0 
z
" id="DejaVuSans-108"/>
     <path d="M 48.78125 52.59375 
L 48.78125 44.1875 
Q 44.96875 46.296875 41.140625 47.34375 
Q 37.3125 48.390625 33.40625 48.390625 
Q 24.65625 48.390625 19.8125 42.84375 
Q 14.984375 37.3125 14.984375 27.296875 
Q 14.984375 17.28125 19.8125 11.734375 
Q 24.65625 6.203125 33.40625 6.203125 
Q 37.3125 6.203125 41.140625 7.25 
Q 44.96875 8.296875 48.78125 10.40625 
L 48.78125 2.09375 
Q 45.015625 0.34375 40.984375 -0.53125 
Q 36.96875 -1.421875 32.421875 -1.421875 
Q 20.0625 -1.421875 12.78125 6.34375 
Q 5.515625 14.109375 5.515625 27.296875 
Q 5.515625 40.671875 12.859375 48.328125 
Q 20.21875 56 33.015625 56 
Q 37.15625 56 41.109375 55.140625 
Q 45.0625 54.296875 48.78125 52.59375 
z
" id="DejaVuSans-99"/>
     <path d="M 32.171875 -5.078125 
Q 28.375 -14.84375 24.75 -17.8125 
Q 21.140625 -20.796875 15.09375 -20.796875 
L 7.90625 -20.796875 
L 7.90625 -13.28125 
L 13.1875 -13.28125 
Q 16.890625 -13.28125 18.9375 -11.515625 
Q 21 -9.765625 23.484375 -3.21875 
L 25.09375 0.875 
L 2.984375 54.6875 
L 12.5 54.6875 
L 29.59375 11.921875 
L 46.6875 54.6875 
L 56.203125 54.6875 
z
" id="DejaVuSans-121"/>
     <path d="M -0.296875 72.90625 
L 61.375 72.90625 
L 61.375 64.59375 
L 35.5 64.59375 
L 35.5 0 
L 25.59375 0 
L 25.59375 64.59375 
L -0.296875 64.59375 
z
" id="DejaVuSans-84"/>
     <path d="M 19.671875 64.796875 
L 19.671875 8.109375 
L 31.59375 8.109375 
Q 46.6875 8.109375 53.6875 14.9375 
Q 60.6875 21.78125 60.6875 36.53125 
Q 60.6875 51.171875 53.6875 57.984375 
Q 46.6875 64.796875 31.59375 64.796875 
z
M 9.8125 72.90625 
L 30.078125 72.90625 
Q 51.265625 72.90625 61.171875 64.09375 
Q 71.09375 55.28125 71.09375 36.53125 
Q 71.09375 17.671875 61.125 8.828125 
Q 51.171875 0 30.078125 0 
L 9.8125 0 
z
" id="DejaVuSans-68"/>
    </defs>
    <g transform="translate(117.365313 16.318125)scale(0.12 -0.12)">
     <use xlink:href="#DejaVuSans-83"/>
     <use x="63.476562" xlink:href="#DejaVuSans-101"/>
     <use x="125" xlink:href="#DejaVuSans-109"/>
     <use x="222.412109" xlink:href="#DejaVuSans-105"/>
     <use x="250.195312" xlink:href="#DejaVuSans-45"/>
     <use x="286.279297" xlink:href="#DejaVuSans-103"/>
     <use x="349.755859" xlink:href="#DejaVuSans-114"/>
     <use x="390.869141" xlink:href="#DejaVuSans-97"/>
     <use x="452.148438" xlink:href="#DejaVuSans-100"/>
     <use x="515.625" xlink:href="#DejaVuSans-105"/>
     <use x="543.408203" xlink:href="#DejaVuSans-101"/>
     <use x="604.931641" xlink:href="#DejaVuSans-110"/>
     <use x="668.310547" xlink:href="#DejaVuSans-116"/>
     <use x="707.519531" xlink:href="#DejaVuSans-32"/>
     <use x="739.306641" xlink:href="#DejaVuSans-79"/>
     <use x="818.017578" xlink:href="#DejaVuSans-102"/>
     <use x="853.222656" xlink:href="#DejaVuSans-102"/>
     <use x="888.349609" xlink:href="#DejaVuSans-45"/>
     <use x="924.433594" xlink:href="#DejaVuSans-112"/>
     <use x="987.910156" xlink:href="#DejaVuSans-111"/>
     <use x="1049.091797" xlink:href="#DejaVuSans-108"/>
     <use x="1076.875" xlink:href="#DejaVuSans-105"/>
     <use x="1104.658203" xlink:href="#DejaVuSans-99"/>
     <use x="1159.638672" xlink:href="#DejaVuSans-121"/>
     <use x="1218.818359" xlink:href="#DejaVuSans-32"/>
     <use x="1250.605469" xlink:href="#DejaVuSans-84"/>
     <use x="1311.689453" xlink:href="#DejaVuSans-68"/>
    </g>
   </g>
   <g id="legend_1">
    <g id="patch_7">
     <path d="M 40.2875 147.743125 
L 86.828125 147.743125 
Q 88.828125 147.743125 88.828125 145.743125 
L 88.828125 29.318125 
Q 88.828125 27.318125 86.828125 27.318125 
L 40.2875 27.318125 
Q 38.2875 27.318125 38.2875 29.318125 
L 38.2875 145.743125 
Q 38.2875 147.743125 40.2875 147.743125 
z
" style="fill:#ffffff;opacity:0.8;stroke:#cccccc;stroke-linejoin:miter;"/>
    </g>
    <g id="line2d_20">
     <path d="M 42.2875 35.416562 
L 62.2875 35.416562 
" style="fill:none;stroke:#0000ff;stroke-linecap:square;stroke-width:1.5;"/>
    </g>
    <g id="line2d_21"/>
    <g id="text_14">
     <!-- w1 -->
     <defs>
      <path d="M 4.203125 54.6875 
L 13.1875 54.6875 
L 24.421875 12.015625 
L 35.59375 54.6875 
L 46.1875 54.6875 
L 57.421875 12.015625 
L 68.609375 54.6875 
L 77.59375 54.6875 
L 63.28125 0 
L 52.6875 0 
L 40.921875 44.828125 
L 29.109375 0 
L 18.5 0 
z
" id="DejaVuSans-119"/>
     </defs>
     <g transform="translate(70.2875 38.916562)scale(0.1 -0.1)">
      <use xlink:href="#DejaVuSans-119"/>
      <use x="81.787109" xlink:href="#DejaVuSans-49"/>
     </g>
    </g>
    <g id="line2d_22">
     <path d="M 42.2875 50.094688 
L 62.2875 50.094688 
" style="fill:none;stroke:#000000;stroke-linecap:square;stroke-width:1.5;"/>
    </g>
    <g id="line2d_23"/>
    <g id="text_15">
     <!-- w2 -->
     <g transform="translate(70.2875 53.594688)scale(0.1 -0.1)">
      <use xlink:href="#DejaVuSans-119"/>
      <use x="81.787109" xlink:href="#DejaVuSans-50"/>
     </g>
    </g>
    <g id="line2d_24">
     <path d="M 42.2875 64.772812 
L 62.2875 64.772812 
" style="fill:none;stroke:#da70d6;stroke-linecap:square;stroke-width:1.5;"/>
    </g>
    <g id="line2d_25"/>
    <g id="text_16">
     <!-- w3 -->
     <g transform="translate(70.2875 68.272812)scale(0.1 -0.1)">
      <use xlink:href="#DejaVuSans-119"/>
      <use x="81.787109" xlink:href="#DejaVuSans-51"/>
     </g>
    </g>
    <g id="line2d_26">
     <path d="M 42.2875 79.450938 
L 62.2875 79.450938 
" style="fill:none;stroke:#00ffff;stroke-linecap:square;stroke-width:1.5;"/>
    </g>
    <g id="line2d_27"/>
    <g id="text_17">
     <!-- w4 -->
     <g transform="translate(70.2875 82.950938)scale(0.1 -0.1)">
      <use xlink:href="#DejaVuSans-119"/>
      <use x="81.787109" xlink:href="#DejaVuSans-52"/>
     </g>
    </g>
    <g id="line2d_28">
     <path d="M 42.2875 94.129063 
L 62.2875 94.129063 
" style="fill:none;stroke:#800080;stroke-linecap:square;stroke-width:1.5;"/>
    </g>
    <g id="line2d_29"/>
    <g id="text_18">
     <!-- w5 -->
     <defs>
      <path d="M 10.796875 72.90625 
L 49.515625 72.90625 
L 49.515625 64.59375 
L 19.828125 64.59375 
L 19.828125 46.734375 
Q 21.96875 47.46875 24.109375 47.828125 
Q 26.265625 48.1875 28.421875 48.1875 
Q 40.625 48.1875 47.75 41.5 
Q 54.890625 34.8125 54.890625 23.390625 
Q 54.890625 11.625 47.5625 5.09375 
Q 40.234375 -1.421875 26.90625 -1.421875 
Q 22.3125 -1.421875 17.546875 -0.640625 
Q 12.796875 0.140625 7.71875 1.703125 
L 7.71875 11.625 
Q 12.109375 9.234375 16.796875 8.0625 
Q 21.484375 6.890625 26.703125 6.890625 
Q 35.15625 6.890625 40.078125 11.328125 
Q 45.015625 15.765625 45.015625 23.390625 
Q 45.015625 31 40.078125 35.4375 
Q 35.15625 39.890625 26.703125 39.890625 
Q 22.75 39.890625 18.8125 39.015625 
Q 14.890625 38.140625 10.796875 36.28125 
z
" id="DejaVuSans-53"/>
     </defs>
     <g transform="translate(70.2875 97.629063)scale(0.1 -0.1)">
      <use xlink:href="#DejaVuSans-119"/>
      <use x="81.787109" xlink:href="#DejaVuSans-53"/>
     </g>
    </g>
    <g id="line2d_30">
     <path d="M 42.2875 108.807187 
L 62.2875 108.807187 
" style="fill:none;stroke:#ff00ff;stroke-linecap:square;stroke-width:1.5;"/>
    </g>
    <g id="line2d_31"/>
    <g id="text_19">
     <!-- w6 -->
     <g transform="translate(70.2875 112.307187)scale(0.1 -0.1)">
      <use xlink:href="#DejaVuSans-119"/>
      <use x="81.787109" xlink:href="#DejaVuSans-54"/>
     </g>
    </g>
    <g id="line2d_32">
     <path d="M 42.2875 123.485312 
L 62.2875 123.485312 
" style="fill:none;stroke:#ff8c00;stroke-linecap:square;stroke-width:1.5;"/>
    </g>
    <g id="line2d_33"/>
    <g id="text_20">
     <!-- w7 -->
     <defs>
      <path d="M 8.203125 72.90625 
L 55.078125 72.90625 
L 55.078125 68.703125 
L 28.609375 0 
L 18.3125 0 
L 43.21875 64.59375 
L 8.203125 64.59375 
z
" id="DejaVuSans-55"/>
     </defs>
     <g transform="translate(70.2875 126.985312)scale(0.1 -0.1)">
      <use xlink:href="#DejaVuSans-119"/>
      <use x="81.787109" xlink:href="#DejaVuSans-55"/>
     </g>
    </g>
    <g id="line2d_34">
     <path d="M 42.2875 138.163437 
L 62.2875 138.163437 
" style="fill:none;stroke:#b8860b;stroke-linecap:square;stroke-width:1.5;"/>
    </g>
    <g id="line2d_35"/>
    <g id="text_21">
     <!-- w8 -->
     <g transform="translate(70.2875 141.663437)scale(0.1 -0.1)">
      <use xlink:href="#DejaVuSans-119"/>
      <use x="81.787109" xlink:href="#DejaVuSans-56"/>
     </g>
    </g>
   </g>
  </g>
 </g>
 <defs>
  <clipPath id="p45527b6941">
   <rect height="332.64" width="334.8" x="33.2875" y="22.318125"/>
  </clipPath>
 </defs>
</svg>
