<?xml version="1.0" encoding="utf-8" standalone="no"?>
<!DOCTYPE svg PUBLIC "-//W3C//DTD SVG 1.1//EN"
  "http://www.w3.org/Graphics/SVG/1.1/DTD/svg11.dtd">
<!-- Created with matplotlib (https://matplotlib.org/) -->
<svg height="447.954375pt" version="1.1" viewBox="0 0 394.798437 447.954375" width="394.798437pt" xmlns="http://www.w3.org/2000/svg" xmlns:xlink="http://www.w3.org/1999/xlink">
 <defs>
  <style type="text/css">
*{stroke-linecap:butt;stroke-linejoin:round;}
  </style>
 </defs>
 <g id="figure_1">
  <g id="patch_1">
   <path d="M 0 447.954375 
L 394.798437 447.954375 
L 394.798437 0 
L 0 0 
z
" style="fill:#ffffff;"/>
  </g>
  <g id="axes_1">
   <g id="patch_2">
    <path d="M 40.073438 410.398125 
L 374.873438 410.398125 
L 374.873438 22.318125 
L 40.073438 22.318125 
z
" style="fill:#ffffff;"/>
   </g>
   <g id="matplotlib.axis_1">
    <g id="xtick_1">
     <g id="line2d_1">
      <defs>
       <path d="M 0 0 
L 0 3.5 
" id="mad9e816d63" style="stroke:#000000;stroke-width:0.8;"/>
      </defs>
      <g>
       <use style="stroke:#000000;stroke-width:0.8;" x="46.966379" xlink:href="#mad9e816d63" y="410.398125"/>
      </g>
     </g>
     <g id="text_1">
      <!-- 1 -->
      <defs>
       <path d="M 12.40625 8.296875 
L 28.515625 8.296875 
L 28.515625 63.921875 
L 10.984375 60.40625 
L 10.984375 69.390625 
L 28.421875 72.90625 
L 38.28125 72.90625 
L 38.28125 8.296875 
L 54.390625 8.296875 
L 54.390625 0 
L 12.40625 0 
z
" id="DejaVuSans-49"/>
      </defs>
      <g transform="translate(43.785129 424.996562)scale(0.1 -0.1)">
       <use xlink:href="#DejaVuSans-49"/>
      </g>
     </g>
    </g>
    <g id="xtick_2">
     <g id="line2d_2">
      <g>
       <use style="stroke:#000000;stroke-width:0.8;" x="374.873438" xlink:href="#mad9e816d63" y="410.398125"/>
      </g>
     </g>
     <g id="text_2">
      <!-- 1000 -->
      <defs>
       <path d="M 31.78125 66.40625 
Q 24.171875 66.40625 20.328125 58.90625 
Q 16.5 51.421875 16.5 36.375 
Q 16.5 21.390625 20.328125 13.890625 
Q 24.171875 6.390625 31.78125 6.390625 
Q 39.453125 6.390625 43.28125 13.890625 
Q 47.125 21.390625 47.125 36.375 
Q 47.125 51.421875 43.28125 58.90625 
Q 39.453125 66.40625 31.78125 66.40625 
z
M 31.78125 74.21875 
Q 44.046875 74.21875 50.515625 64.515625 
Q 56.984375 54.828125 56.984375 36.375 
Q 56.984375 17.96875 50.515625 8.265625 
Q 44.046875 -1.421875 31.78125 -1.421875 
Q 19.53125 -1.421875 13.0625 8.265625 
Q 6.59375 17.96875 6.59375 36.375 
Q 6.59375 54.828125 13.0625 64.515625 
Q 19.53125 74.21875 31.78125 74.21875 
z
" id="DejaVuSans-48"/>
      </defs>
      <g transform="translate(362.148438 424.996562)scale(0.1 -0.1)">
       <use xlink:href="#DejaVuSans-49"/>
       <use x="63.623047" xlink:href="#DejaVuSans-48"/>
       <use x="127.246094" xlink:href="#DejaVuSans-48"/>
       <use x="190.869141" xlink:href="#DejaVuSans-48"/>
      </g>
     </g>
    </g>
    <g id="text_3">
     <!-- Steps -->
     <defs>
      <path d="M 53.515625 70.515625 
L 53.515625 60.890625 
Q 47.90625 63.578125 42.921875 64.890625 
Q 37.9375 66.21875 33.296875 66.21875 
Q 25.25 66.21875 20.875 63.09375 
Q 16.5 59.96875 16.5 54.203125 
Q 16.5 49.359375 19.40625 46.890625 
Q 22.3125 44.4375 30.421875 42.921875 
L 36.375 41.703125 
Q 47.40625 39.59375 52.65625 34.296875 
Q 57.90625 29 57.90625 20.125 
Q 57.90625 9.515625 50.796875 4.046875 
Q 43.703125 -1.421875 29.984375 -1.421875 
Q 24.8125 -1.421875 18.96875 -0.25 
Q 13.140625 0.921875 6.890625 3.21875 
L 6.890625 13.375 
Q 12.890625 10.015625 18.65625 8.296875 
Q 24.421875 6.59375 29.984375 6.59375 
Q 38.421875 6.59375 43.015625 9.90625 
Q 47.609375 13.234375 47.609375 19.390625 
Q 47.609375 24.75 44.3125 27.78125 
Q 41.015625 30.8125 33.5 32.328125 
L 27.484375 33.5 
Q 16.453125 35.6875 11.515625 40.375 
Q 6.59375 45.0625 6.59375 53.421875 
Q 6.59375 63.09375 13.40625 68.65625 
Q 20.21875 74.21875 32.171875 74.21875 
Q 37.3125 74.21875 42.625 73.28125 
Q 47.953125 72.359375 53.515625 70.515625 
z
" id="DejaVuSans-83"/>
      <path d="M 18.3125 70.21875 
L 18.3125 54.6875 
L 36.8125 54.6875 
L 36.8125 47.703125 
L 18.3125 47.703125 
L 18.3125 18.015625 
Q 18.3125 11.328125 20.140625 9.421875 
Q 21.96875 7.515625 27.59375 7.515625 
L 36.8125 7.515625 
L 36.8125 0 
L 27.59375 0 
Q 17.1875 0 13.234375 3.875 
Q 9.28125 7.765625 9.28125 18.015625 
L 9.28125 47.703125 
L 2.6875 47.703125 
L 2.6875 54.6875 
L 9.28125 54.6875 
L 9.28125 70.21875 
z
" id="DejaVuSans-116"/>
      <path d="M 56.203125 29.59375 
L 56.203125 25.203125 
L 14.890625 25.203125 
Q 15.484375 15.921875 20.484375 11.0625 
Q 25.484375 6.203125 34.421875 6.203125 
Q 39.59375 6.203125 44.453125 7.46875 
Q 49.3125 8.734375 54.109375 11.28125 
L 54.109375 2.78125 
Q 49.265625 0.734375 44.1875 -0.34375 
Q 39.109375 -1.421875 33.890625 -1.421875 
Q 20.796875 -1.421875 13.15625 6.1875 
Q 5.515625 13.8125 5.515625 26.8125 
Q 5.515625 40.234375 12.765625 48.109375 
Q 20.015625 56 32.328125 56 
Q 43.359375 56 49.78125 48.890625 
Q 56.203125 41.796875 56.203125 29.59375 
z
M 47.21875 32.234375 
Q 47.125 39.59375 43.09375 43.984375 
Q 39.0625 48.390625 32.421875 48.390625 
Q 24.90625 48.390625 20.390625 44.140625 
Q 15.875 39.890625 15.1875 32.171875 
z
" id="DejaVuSans-101"/>
      <path d="M 18.109375 8.203125 
L 18.109375 -20.796875 
L 9.078125 -20.796875 
L 9.078125 54.6875 
L 18.109375 54.6875 
L 18.109375 46.390625 
Q 20.953125 51.265625 25.265625 53.625 
Q 29.59375 56 35.59375 56 
Q 45.5625 56 51.78125 48.09375 
Q 58.015625 40.1875 58.015625 27.296875 
Q 58.015625 14.40625 51.78125 6.484375 
Q 45.5625 -1.421875 35.59375 -1.421875 
Q 29.59375 -1.421875 25.265625 0.953125 
Q 20.953125 3.328125 18.109375 8.203125 
z
M 48.6875 27.296875 
Q 48.6875 37.203125 44.609375 42.84375 
Q 40.53125 48.484375 33.40625 48.484375 
Q 26.265625 48.484375 22.1875 42.84375 
Q 18.109375 37.203125 18.109375 27.296875 
Q 18.109375 17.390625 22.1875 11.75 
Q 26.265625 6.109375 33.40625 6.109375 
Q 40.53125 6.109375 44.609375 11.75 
Q 48.6875 17.390625 48.6875 27.296875 
z
" id="DejaVuSans-112"/>
      <path d="M 44.28125 53.078125 
L 44.28125 44.578125 
Q 40.484375 46.53125 36.375 47.5 
Q 32.28125 48.484375 27.875 48.484375 
Q 21.1875 48.484375 17.84375 46.4375 
Q 14.5 44.390625 14.5 40.28125 
Q 14.5 37.15625 16.890625 35.375 
Q 19.28125 33.59375 26.515625 31.984375 
L 29.59375 31.296875 
Q 39.15625 29.25 43.1875 25.515625 
Q 47.21875 21.78125 47.21875 15.09375 
Q 47.21875 7.46875 41.1875 3.015625 
Q 35.15625 -1.421875 24.609375 -1.421875 
Q 20.21875 -1.421875 15.453125 -0.5625 
Q 10.6875 0.296875 5.421875 2 
L 5.421875 11.28125 
Q 10.40625 8.6875 15.234375 7.390625 
Q 20.0625 6.109375 24.8125 6.109375 
Q 31.15625 6.109375 34.5625 8.28125 
Q 37.984375 10.453125 37.984375 14.40625 
Q 37.984375 18.0625 35.515625 20.015625 
Q 33.0625 21.96875 24.703125 23.78125 
L 21.578125 24.515625 
Q 13.234375 26.265625 9.515625 29.90625 
Q 5.8125 33.546875 5.8125 39.890625 
Q 5.8125 47.609375 11.28125 51.796875 
Q 16.75 56 26.8125 56 
Q 31.78125 56 36.171875 55.265625 
Q 40.578125 54.546875 44.28125 53.078125 
z
" id="DejaVuSans-115"/>
     </defs>
     <g transform="translate(193.483594 438.674687)scale(0.1 -0.1)">
      <use xlink:href="#DejaVuSans-83"/>
      <use x="63.476562" xlink:href="#DejaVuSans-116"/>
      <use x="102.685547" xlink:href="#DejaVuSans-101"/>
      <use x="164.208984" xlink:href="#DejaVuSans-112"/>
      <use x="227.685547" xlink:href="#DejaVuSans-115"/>
     </g>
    </g>
   </g>
   <g id="matplotlib.axis_2">
    <g id="ytick_1">
     <g id="line2d_3">
      <defs>
       <path d="M 0 0 
L -3.5 0 
" id="m112c861405" style="stroke:#000000;stroke-width:0.8;"/>
      </defs>
      <g>
       <use style="stroke:#000000;stroke-width:0.8;" x="40.073438" xlink:href="#m112c861405" y="377.538797"/>
      </g>
     </g>
     <g id="text_4">
      <!-- -2.34 -->
      <defs>
       <path d="M 4.890625 31.390625 
L 31.203125 31.390625 
L 31.203125 23.390625 
L 4.890625 23.390625 
z
" id="DejaVuSans-45"/>
       <path d="M 19.1875 8.296875 
L 53.609375 8.296875 
L 53.609375 0 
L 7.328125 0 
L 7.328125 8.296875 
Q 12.9375 14.109375 22.625 23.890625 
Q 32.328125 33.6875 34.8125 36.53125 
Q 39.546875 41.84375 41.421875 45.53125 
Q 43.3125 49.21875 43.3125 52.78125 
Q 43.3125 58.59375 39.234375 62.25 
Q 35.15625 65.921875 28.609375 65.921875 
Q 23.96875 65.921875 18.8125 64.3125 
Q 13.671875 62.703125 7.8125 59.421875 
L 7.8125 69.390625 
Q 13.765625 71.78125 18.9375 73 
Q 24.125 74.21875 28.421875 74.21875 
Q 39.75 74.21875 46.484375 68.546875 
Q 53.21875 62.890625 53.21875 53.421875 
Q 53.21875 48.921875 51.53125 44.890625 
Q 49.859375 40.875 45.40625 35.40625 
Q 44.1875 33.984375 37.640625 27.21875 
Q 31.109375 20.453125 19.1875 8.296875 
z
" id="DejaVuSans-50"/>
       <path d="M 10.6875 12.40625 
L 21 12.40625 
L 21 0 
L 10.6875 0 
z
" id="DejaVuSans-46"/>
       <path d="M 40.578125 39.3125 
Q 47.65625 37.796875 51.625 33 
Q 55.609375 28.21875 55.609375 21.1875 
Q 55.609375 10.40625 48.1875 4.484375 
Q 40.765625 -1.421875 27.09375 -1.421875 
Q 22.515625 -1.421875 17.65625 -0.515625 
Q 12.796875 0.390625 7.625 2.203125 
L 7.625 11.71875 
Q 11.71875 9.328125 16.59375 8.109375 
Q 21.484375 6.890625 26.8125 6.890625 
Q 36.078125 6.890625 40.9375 10.546875 
Q 45.796875 14.203125 45.796875 21.1875 
Q 45.796875 27.640625 41.28125 31.265625 
Q 36.765625 34.90625 28.71875 34.90625 
L 20.21875 34.90625 
L 20.21875 43.015625 
L 29.109375 43.015625 
Q 36.375 43.015625 40.234375 45.921875 
Q 44.09375 48.828125 44.09375 54.296875 
Q 44.09375 59.90625 40.109375 62.90625 
Q 36.140625 65.921875 28.71875 65.921875 
Q 24.65625 65.921875 20.015625 65.03125 
Q 15.375 64.15625 9.8125 62.3125 
L 9.8125 71.09375 
Q 15.4375 72.65625 20.34375 73.4375 
Q 25.25 74.21875 29.59375 74.21875 
Q 40.828125 74.21875 47.359375 69.109375 
Q 53.90625 64.015625 53.90625 55.328125 
Q 53.90625 49.265625 50.4375 45.09375 
Q 46.96875 40.921875 40.578125 39.3125 
z
" id="DejaVuSans-51"/>
       <path d="M 37.796875 64.3125 
L 12.890625 25.390625 
L 37.796875 25.390625 
z
M 35.203125 72.90625 
L 47.609375 72.90625 
L 47.609375 25.390625 
L 58.015625 25.390625 
L 58.015625 17.1875 
L 47.609375 17.1875 
L 47.609375 0 
L 37.796875 0 
L 37.796875 17.1875 
L 4.890625 17.1875 
L 4.890625 26.703125 
z
" id="DejaVuSans-52"/>
      </defs>
      <g transform="translate(7.2 381.338015)scale(0.1 -0.1)">
       <use xlink:href="#DejaVuSans-45"/>
       <use x="36.083984" xlink:href="#DejaVuSans-50"/>
       <use x="99.707031" xlink:href="#DejaVuSans-46"/>
       <use x="131.494141" xlink:href="#DejaVuSans-51"/>
       <use x="195.117188" xlink:href="#DejaVuSans-52"/>
      </g>
     </g>
    </g>
    <g id="ytick_2">
     <g id="line2d_4">
      <g>
       <use style="stroke:#000000;stroke-width:0.8;" x="40.073438" xlink:href="#m112c861405" y="311.253599"/>
      </g>
     </g>
     <g id="text_5">
      <!-- 0 -->
      <g transform="translate(26.710938 315.052818)scale(0.1 -0.1)">
       <use xlink:href="#DejaVuSans-48"/>
      </g>
     </g>
    </g>
    <g id="ytick_3">
     <g id="line2d_5">
      <g>
       <use style="stroke:#000000;stroke-width:0.8;" x="40.073438" xlink:href="#m112c861405" y="254.599585"/>
      </g>
     </g>
     <g id="text_6">
      <!-- 2 -->
      <g transform="translate(26.710938 258.398804)scale(0.1 -0.1)">
       <use xlink:href="#DejaVuSans-50"/>
      </g>
     </g>
    </g>
    <g id="ytick_4">
     <g id="line2d_6">
      <g>
       <use style="stroke:#000000;stroke-width:0.8;" x="40.073438" xlink:href="#m112c861405" y="169.618563"/>
      </g>
     </g>
     <g id="text_7">
      <!-- 5 -->
      <defs>
       <path d="M 10.796875 72.90625 
L 49.515625 72.90625 
L 49.515625 64.59375 
L 19.828125 64.59375 
L 19.828125 46.734375 
Q 21.96875 47.46875 24.109375 47.828125 
Q 26.265625 48.1875 28.421875 48.1875 
Q 40.625 48.1875 47.75 41.5 
Q 54.890625 34.8125 54.890625 23.390625 
Q 54.890625 11.625 47.5625 5.09375 
Q 40.234375 -1.421875 26.90625 -1.421875 
Q 22.3125 -1.421875 17.546875 -0.640625 
Q 12.796875 0.140625 7.71875 1.703125 
L 7.71875 11.625 
Q 12.109375 9.234375 16.796875 8.0625 
Q 21.484375 6.890625 26.703125 6.890625 
Q 35.15625 6.890625 40.078125 11.328125 
Q 45.015625 15.765625 45.015625 23.390625 
Q 45.015625 31 40.078125 35.4375 
Q 35.15625 39.890625 26.703125 39.890625 
Q 22.75 39.890625 18.8125 39.015625 
Q 14.890625 38.140625 10.796875 36.28125 
z
" id="DejaVuSans-53"/>
      </defs>
      <g transform="translate(26.710938 173.417782)scale(0.1 -0.1)">
       <use xlink:href="#DejaVuSans-53"/>
      </g>
     </g>
    </g>
    <g id="ytick_5">
     <g id="line2d_7">
      <g>
       <use style="stroke:#000000;stroke-width:0.8;" x="40.073438" xlink:href="#m112c861405" y="27.983526"/>
      </g>
     </g>
     <g id="text_8">
      <!-- 10 -->
      <g transform="translate(20.348438 31.782745)scale(0.1 -0.1)">
       <use xlink:href="#DejaVuSans-49"/>
       <use x="63.623047" xlink:href="#DejaVuSans-48"/>
      </g>
     </g>
    </g>
   </g>
   <g id="line2d_8">
    <path clip-path="url(#p91f085106c)" d="M 46.638143 282.926592 
L 67.973438 282.926592 
L 68.301673 270.452754 
L 83.400496 270.452754 
L 83.728732 263.404692 
L 103.751085 263.404692 
L 104.07932 260.514659 
L 109.65932 260.514659 
L 109.987555 258.417753 
L 127.384026 258.417753 
L 127.712261 256.546386 
L 143.79579 256.546386 
L 144.124026 255.462476 
L 146.093437 255.462476 
L 146.421673 254.639351 
L 167.428732 254.639351 
L 167.756967 254.428525 
L 182.19932 254.428525 
L 182.527555 254.078459 
L 190.405202 254.078459 
L 190.733438 253.665861 
L 203.534614 253.665861 
L 203.862849 253.272206 
L 218.961673 253.272206 
L 219.289908 252.971358 
L 240.296967 252.971358 
L 240.625202 252.631454 
L 368.636967 252.631454 
L 368.965202 252.389281 
L 374.545202 252.389281 
L 374.545202 252.389281 
" style="fill:none;stroke:#0000ff;stroke-linecap:square;stroke-width:1.5;"/>
   </g>
   <g id="line2d_9">
    <path clip-path="url(#p91f085106c)" d="M 46.638143 282.926592 
L 63.049908 282.926592 
L 63.378143 267.534619 
L 81.431085 267.534619 
L 81.75932 259.841363 
L 97.514614 259.841363 
L 97.842849 257.214467 
L 99.812261 257.214467 
L 100.140496 254.747278 
L 107.689908 254.747278 
L 108.018143 254.41534 
L 113.269908 254.41534 
L 113.598143 253.386954 
L 129.025202 253.386954 
L 129.353438 252.464939 
L 145.108732 252.464939 
L 145.436967 251.970289 
L 174.649908 251.9176 
L 174.978143 252.144343 
L 182.85579 252.191169 
L 183.512261 252.26086 
L 221.25932 252.174293 
L 221.587555 252.03101 
L 236.029908 252.015865 
L 236.358143 251.861767 
L 243.57932 251.861767 
L 243.907555 252.008824 
L 284.936967 251.945266 
L 285.265202 251.759099 
L 314.806379 251.759099 
L 315.134614 251.56203 
L 319.073438 251.56203 
L 319.401673 251.359731 
L 340.736967 251.251119 
L 341.721673 251.118179 
L 361.087555 251.020238 
L 362.400496 250.985617 
L 374.545202 250.985617 
L 374.545202 250.985617 
" style="fill:none;stroke:#000000;stroke-linecap:square;stroke-width:1.5;"/>
   </g>
   <g id="line2d_10">
    <path clip-path="url(#p91f085106c)" d="M 46.638143 282.926592 
L 58.454614 282.926592 
L 58.782849 267.939484 
L 67.316967 267.939484 
L 67.645202 255.582532 
L 80.774614 255.582532 
L 81.102849 249.550765 
L 84.385202 249.550765 
L 84.713437 246.732322 
L 124.429908 246.812926 
L 125.086379 246.905802 
L 148.71932 246.905802 
L 149.047555 248.289099 
L 165.45932 248.289099 
L 165.787555 248.833746 
L 180.229908 248.833746 
L 180.558143 249.422065 
L 222.244026 249.422065 
L 222.572261 249.21112 
L 245.876967 249.21112 
L 246.205202 249.653994 
L 277.05932 249.653994 
L 277.387555 249.77684 
L 298.722849 249.77684 
L 299.051085 249.941517 
L 305.944026 250.017773 
L 306.928732 250.067668 
L 337.782849 250.156915 
L 339.09579 250.188766 
L 365.682849 250.275726 
L 366.33932 250.355108 
L 374.545202 250.355108 
L 374.545202 250.355108 
" style="fill:none;stroke:#da70d6;stroke-linecap:square;stroke-width:1.5;"/>
   </g>
   <g id="line2d_11">
    <path clip-path="url(#p91f085106c)" d="M 46.638143 282.926592 
L 48.607555 282.926592 
L 48.93579 265.318524 
L 55.500496 265.318524 
L 55.828732 250.110627 
L 72.568732 250.110627 
L 72.896967 241.816752 
L 77.820496 241.816752 
L 78.148732 237.634652 
L 92.591085 237.634652 
L 92.91932 237.185396 
L 108.346379 237.185396 
L 108.674614 238.941422 
L 111.300496 238.941422 
L 111.628732 239.809118 
L 125.086379 239.809118 
L 125.414614 240.608456 
L 193.35932 240.608456 
L 193.687555 242.119746 
L 216.992261 242.119746 
L 217.320496 243.491182 
L 226.83932 243.491182 
L 227.167555 244.823011 
L 238.327555 244.823011 
L 238.65579 245.657788 
L 249.15932 245.657788 
L 249.487555 246.284057 
L 272.792261 246.284057 
L 273.120496 246.964359 
L 280.998143 246.964359 
L 281.326379 247.650956 
L 302.661673 247.650956 
L 302.989908 248.07431 
L 304.95932 248.07431 
L 305.287555 248.474432 
L 321.042849 248.474432 
L 321.371085 248.77427 
L 326.951085 248.77427 
L 327.27932 249.034829 
L 374.545202 249.034829 
L 374.545202 249.034829 
" style="fill:none;stroke:#00ffff;stroke-linecap:square;stroke-width:1.5;"/>
   </g>
   <g id="line2d_12">
    <path clip-path="url(#p91f085106c)" d="M 46.638143 282.926592 
L 67.973438 282.926592 
L 68.301673 270.452754 
L 83.400496 270.452754 
L 83.728732 263.404692 
L 103.751085 263.404692 
L 104.07932 260.514659 
L 109.65932 260.514659 
L 109.987555 258.417753 
L 127.384026 258.417753 
L 127.712261 256.546386 
L 143.79579 256.546386 
L 144.124026 255.462476 
L 146.093437 255.462476 
L 146.421673 254.639351 
L 167.428732 254.639351 
L 167.756967 254.428525 
L 182.19932 254.428525 
L 182.527555 254.078459 
L 190.405202 254.078459 
L 190.733438 253.665861 
L 203.534614 253.665861 
L 203.862849 253.272206 
L 218.961673 253.272206 
L 219.289908 252.971358 
L 240.296967 252.971358 
L 240.625202 252.631454 
L 368.636967 252.631454 
L 368.965202 252.389281 
L 374.545202 252.389281 
L 374.545202 252.389281 
" style="fill:none;stroke:#800080;stroke-linecap:square;stroke-width:1.5;"/>
   </g>
   <g id="line2d_13">
    <path clip-path="url(#p91f085106c)" d="M 46.638143 282.926592 
L 65.67579 282.926592 
L 66.004026 269.339379 
L 75.522849 269.339379 
L 75.851085 259.046426 
L 85.041673 259.046426 
L 85.369908 255.242307 
L 89.308732 255.242307 
L 89.636967 252.213413 
L 116.224026 252.213413 
L 116.552261 251.904639 
L 133.292261 251.904639 
L 133.620496 251.119597 
L 151.016967 251.119597 
L 151.345202 251.703427 
L 197.954614 251.79224 
L 198.282849 251.563926 
L 202.549908 251.463671 
L 202.878143 251.336909 
L 234.060496 251.276142 
L 234.388732 251.53347 
L 246.861673 251.598734 
L 247.189908 251.37955 
L 265.571085 251.330789 
L 265.89932 251.183579 
L 326.294614 251.072669 
L 326.951085 250.988089 
L 350.912261 250.904583 
L 352.225202 250.874299 
L 374.545202 250.857411 
L 374.545202 250.857411 
" style="fill:none;stroke:#ff00ff;stroke-linecap:square;stroke-width:1.5;"/>
   </g>
   <g id="line2d_14">
    <path clip-path="url(#p91f085106c)" d="M 46.638143 27.983526 
L 53.85932 27.983526 
L 54.187555 31.034124 
L 54.51579 41.43654 
L 54.844026 33.618732 
L 55.500496 33.618732 
L 55.828732 49.151658 
L 58.454614 49.151658 
L 58.782849 49.680438 
L 63.049908 49.680438 
L 63.378143 52.620661 
L 63.706379 60.976827 
L 65.67579 60.976827 
L 66.004026 59.706046 
L 66.332261 59.03062 
L 67.316967 59.03062 
L 67.645202 70.677847 
L 72.568732 70.743611 
L 72.896967 73.942817 
L 73.225202 75.476917 
L 75.522849 75.476917 
L 75.851085 88.119695 
L 77.820496 88.119695 
L 78.148732 89.189855 
L 80.774614 89.189855 
L 81.102849 90.2489 
L 81.431085 90.2489 
L 81.75932 96.629582 
L 83.400496 96.629582 
L 83.728732 104.111857 
L 84.385202 104.111857 
L 84.713437 106.24449 
L 85.041673 106.24449 
L 85.369908 104.146779 
L 85.698143 97.398755 
L 87.011085 97.398755 
L 87.33932 109.140176 
L 89.308732 109.140176 
L 89.636967 115.75883 
L 90.949908 115.75883 
L 91.278143 110.839073 
L 91.606379 110.559265 
L 92.591085 110.559265 
L 92.91932 115.143812 
L 97.514614 115.143812 
L 97.842849 117.486294 
L 98.171085 113.903218 
L 98.49932 116.597268 
L 98.827555 114.572599 
L 99.812261 114.572599 
L 100.140496 117.131495 
L 103.751085 117.131495 
L 104.07932 120.69388 
L 105.064026 120.69388 
L 105.392261 124.116577 
L 107.689908 124.116577 
L 108.018143 122.376562 
L 108.346379 122.376562 
L 108.674614 119.243065 
L 111.300496 119.321864 
L 111.628732 120.486539 
L 113.269908 120.486539 
L 113.598143 122.649329 
L 116.224026 122.649329 
L 116.552261 120.984306 
L 124.429908 120.984306 
L 124.758143 119.641656 
L 125.086379 119.641656 
L 125.414614 118.52779 
L 125.742849 119.191711 
L 127.384026 119.191711 
L 127.712261 120.689186 
L 129.353438 120.634933 
L 129.681673 120.092409 
L 130.009908 120.500679 
L 133.292261 120.500679 
L 133.620496 122.330724 
L 143.79579 122.330724 
L 144.124026 122.597236 
L 145.108732 122.597236 
L 145.436967 123.120949 
L 146.093437 123.120949 
L 146.421673 123.7624 
L 147.734614 123.7624 
L 148.062849 128.272958 
L 148.71932 128.272958 
L 149.047555 127.028491 
L 151.016967 127.028491 
L 151.345202 125.005448 
L 153.642849 125.005448 
L 153.971085 124.320612 
L 156.925202 124.320612 
L 157.253438 122.654754 
L 158.238143 122.654754 
L 158.566379 124.357482 
L 160.864026 124.357482 
L 161.192261 125.031513 
L 161.848732 125.031513 
L 162.176967 126.274406 
L 163.161673 126.274406 
L 163.489908 125.039814 
L 165.45932 125.039814 
L 165.787555 125.59614 
L 167.428732 125.59614 
L 167.756967 125.114708 
L 171.03932 125.114708 
L 171.367555 125.939885 
L 174.649908 125.939885 
L 174.978143 125.184684 
L 175.634614 125.184684 
L 175.962849 125.554669 
L 180.229908 125.554669 
L 180.558143 124.705784 
L 182.19932 124.705784 
L 182.527555 125.279802 
L 182.85579 125.279802 
L 183.184026 125.016676 
L 184.825202 125.016676 
L 185.153438 124.802746 
L 186.138143 124.802746 
L 186.466379 124.239131 
L 190.405202 124.239131 
L 190.733438 124.492108 
L 193.35932 124.492108 
L 193.687555 123.399074 
L 197.954614 123.399074 
L 198.282849 123.902346 
L 201.565202 123.902346 
L 201.893438 123.722669 
L 202.549908 123.722669 
L 202.878143 123.944273 
L 203.534614 123.944273 
L 203.862849 124.12075 
L 209.114614 124.070788 
L 209.442849 124.610811 
L 213.381673 124.610811 
L 213.709908 124.944113 
L 215.022849 124.944113 
L 215.351085 124.79132 
L 216.992261 124.79132 
L 217.320496 124.026284 
L 221.587555 124.011774 
L 221.91579 121.925158 
L 222.244026 121.925158 
L 222.572261 123.693146 
L 222.900496 123.693146 
L 223.228732 124.698914 
L 224.541673 124.698914 
L 224.869908 125.434597 
L 226.83932 125.434597 
L 227.167555 125.196721 
L 234.060496 125.291215 
L 234.388732 124.218386 
L 234.716967 123.757603 
L 238.327555 123.695427 
L 238.65579 123.392546 
L 240.296967 123.392546 
L 240.625202 124.436236 
L 241.281673 124.436236 
L 241.609908 125.044063 
L 243.57932 125.044063 
L 243.907555 124.655116 
L 245.876967 124.655116 
L 246.205202 122.994181 
L 249.15932 123.097029 
L 249.487555 122.687845 
L 251.456967 122.687845 
L 251.785202 123.419083 
L 252.113438 123.682804 
L 257.693438 123.682804 
L 258.021673 123.472814 
L 259.334614 123.439176 
L 259.991085 123.439176 
L 260.31932 123.226732 
L 265.571085 123.226732 
L 265.89932 123.572107 
L 271.47932 123.572107 
L 271.807555 123.874092 
L 272.792261 123.874092 
L 273.120496 123.346248 
L 277.05932 123.346248 
L 277.387555 124.019655 
L 278.044026 124.019655 
L 278.372261 124.242947 
L 280.998143 124.242947 
L 281.654614 123.279329 
L 284.936967 123.279329 
L 285.265202 123.541487 
L 298.722849 123.566298 
L 299.051085 123.2224 
L 300.692261 123.2224 
L 301.348732 123.337672 
L 304.95932 123.44187 
L 305.287555 122.996991 
L 305.944026 122.996991 
L 306.272261 122.821052 
L 306.600496 123.213103 
L 311.524026 123.213103 
L 311.852261 123.027541 
L 314.806379 122.993554 
L 315.134614 122.869286 
L 315.791085 122.869286 
L 316.11932 123.155263 
L 316.77579 123.091246 
L 317.760496 123.091246 
L 318.088732 122.923683 
L 319.073438 122.923683 
L 319.401673 123.249852 
L 320.386379 123.295656 
L 324.653437 123.188155 
L 326.294614 123.168814 
L 326.622849 123.296003 
L 326.951085 123.296003 
L 327.27932 123.11783 
L 330.561673 123.11783 
L 330.889908 123.239842 
L 336.798143 123.239842 
L 337.454614 123.122621 
L 337.782849 123.122621 
L 338.111085 123.305739 
L 340.736967 123.305739 
L 341.393438 123.41813 
L 344.67579 123.371658 
L 345.332261 123.453793 
L 346.645202 123.453793 
L 346.973438 123.287107 
L 357.148732 123.351726 
L 357.805202 123.441967 
L 368.636967 123.545862 
L 368.965202 123.185312 
L 372.57579 123.185312 
L 373.232261 123.586801 
L 374.545202 123.586801 
L 374.545202 123.586801 
" style="fill:none;stroke:#ff8c00;stroke-linecap:square;stroke-width:1.5;"/>
   </g>
   <g id="line2d_15">
    <path clip-path="url(#p91f085106c)" d="M 46.638143 282.926592 
L 48.607555 282.926592 
L 48.93579 274.122558 
L 53.85932 274.122558 
L 54.187555 271.117742 
L 54.51579 291.922572 
L 54.844026 276.286957 
L 55.500496 276.286957 
L 55.828732 299.748861 
L 58.454614 299.748861 
L 58.782849 293.312865 
L 63.049908 293.312865 
L 63.378143 291.497325 
L 63.706379 308.209658 
L 65.67579 308.209658 
L 66.004026 298.874488 
L 66.332261 297.523636 
L 67.316967 297.523636 
L 67.645202 314.639614 
L 67.973438 314.639614 
L 68.301673 308.534223 
L 72.568732 308.534223 
L 72.896967 310.785698 
L 73.225202 313.853897 
L 75.522849 313.853897 
L 75.851085 333.992978 
L 80.774614 334.042249 
L 81.102849 333.144454 
L 81.431085 333.144454 
L 81.75932 342.059191 
L 83.400496 342.059191 
L 83.728732 353.499709 
L 84.385202 353.499709 
L 84.713437 356.355754 
L 85.041673 356.355754 
L 85.369908 350.258273 
L 85.698143 336.762225 
L 87.011085 336.762225 
L 87.33932 356.967674 
L 89.308732 356.967674 
L 89.636967 368.690535 
L 90.949908 368.690535 
L 91.278143 357.763782 
L 91.606379 357.204165 
L 92.591085 357.204165 
L 92.91932 366.148632 
L 97.514614 366.148632 
L 97.842849 369.520147 
L 98.171085 362.353996 
L 98.49932 367.742096 
L 98.827555 363.692757 
L 99.812261 363.692757 
L 100.140496 367.576956 
L 103.751085 367.576956 
L 104.07932 373.256708 
L 105.064026 373.256708 
L 105.392261 380.142405 
L 107.689908 380.142405 
L 108.018143 376.496405 
L 108.346379 376.496405 
L 108.674614 371.107424 
L 109.65932 371.107424 
L 109.987555 370.21657 
L 111.300496 370.21657 
L 111.628732 372.979767 
L 113.269908 372.979767 
L 113.598143 376.791155 
L 116.224026 376.791155 
L 116.552261 373.306723 
L 124.429908 373.306723 
L 124.758143 370.667859 
L 125.086379 370.667859 
L 125.414614 368.839797 
L 125.742849 370.167639 
L 127.384026 370.167639 
L 127.712261 372.226905 
L 129.025202 372.226905 
L 129.353438 371.657392 
L 129.681673 370.572344 
L 130.009908 371.388884 
L 133.292261 371.388884 
L 133.620496 374.656452 
L 145.108732 374.647522 
L 145.436967 375.447622 
L 146.093437 375.447622 
L 146.421673 376.318961 
L 147.734614 376.318961 
L 148.062849 384.944031 
L 148.71932 384.944031 
L 149.047555 383.146744 
L 151.016967 383.146744 
L 151.345202 379.392574 
L 153.642849 379.392574 
L 153.971085 378.056402 
L 156.925202 378.056402 
L 157.253438 374.463022 
L 158.238143 374.463022 
L 158.566379 377.46247 
L 160.864026 377.46247 
L 161.192261 378.750689 
L 161.848732 378.750689 
L 162.176967 381.267541 
L 163.161673 381.267541 
L 163.489908 378.808008 
L 165.45932 378.808008 
L 165.787555 380.192984 
L 167.428732 380.192984 
L 167.756967 379.124708 
L 171.03932 379.124708 
L 171.367555 380.669678 
L 174.649908 380.669678 
L 174.978143 379.272646 
L 175.634614 379.272646 
L 175.962849 380.03603 
L 180.229908 380.03603 
L 180.558143 378.632419 
L 182.19932 378.632419 
L 182.527555 379.605422 
L 182.85579 379.605422 
L 183.184026 379.114015 
L 184.825202 379.114015 
L 185.153438 378.591763 
L 186.138143 378.591763 
L 186.466379 377.477872 
L 190.405202 377.477872 
L 190.733438 377.777528 
L 193.35932 377.777528 
L 193.687555 376.347104 
L 197.954614 376.347104 
L 198.282849 377.239491 
L 201.565202 377.239491 
L 201.893438 376.830009 
L 202.549908 376.830009 
L 202.878143 377.209836 
L 203.534614 377.209836 
L 203.862849 377.365964 
L 204.191085 377.365964 
L 204.51932 377.243709 
L 209.114614 377.243709 
L 209.442849 378.145649 
L 213.381673 378.145649 
L 213.709908 378.76897 
L 215.022849 378.76897 
L 215.351085 378.520832 
L 216.992261 378.520832 
L 217.320496 377.676478 
L 221.25932 377.663355 
L 221.587555 377.425393 
L 221.91579 373.25216 
L 222.244026 373.25216 
L 222.572261 376.682664 
L 222.900496 376.682664 
L 223.228732 378.628699 
L 224.541673 378.628699 
L 224.869908 380.092492 
L 226.83932 380.092492 
L 227.167555 380.282654 
L 229.136967 380.282654 
L 229.465202 380.461723 
L 234.060496 380.461723 
L 234.388732 378.444729 
L 234.716967 377.523163 
L 236.029908 377.523163 
L 236.358143 377.321762 
L 238.327555 377.321762 
L 238.65579 377.133388 
L 240.296967 377.133388 
L 240.625202 379.050815 
L 241.281673 379.050815 
L 241.609908 380.299102 
L 243.57932 380.299102 
L 243.907555 379.594736 
L 245.876967 379.594736 
L 246.205202 376.494304 
L 249.15932 376.590407 
L 249.487555 376.085173 
L 251.456967 376.085173 
L 251.785202 377.308211 
L 252.113438 377.835654 
L 257.693438 377.835654 
L 258.021673 377.391293 
L 258.678143 377.324017 
L 259.991085 377.324017 
L 260.31932 376.761739 
L 265.571085 376.761739 
L 265.89932 377.378884 
L 271.47932 377.378884 
L 271.807555 377.871186 
L 272.792261 377.871186 
L 273.120496 377.155649 
L 277.05932 377.155649 
L 277.387555 378.563887 
L 278.044026 378.563887 
L 278.372261 378.978691 
L 280.998143 378.978691 
L 281.654614 377.394753 
L 284.936967 377.394753 
L 285.265202 377.825986 
L 298.722849 377.793848 
L 299.051085 377.188392 
L 300.692261 377.188392 
L 301.020496 377.457062 
L 302.661673 377.457062 
L 302.989908 377.877136 
L 304.95932 377.877136 
L 305.287555 377.187439 
L 305.944026 377.187439 
L 306.272261 376.860507 
L 306.600496 377.64461 
L 311.524026 377.64461 
L 311.852261 377.31811 
L 313.493438 377.31811 
L 313.821673 377.144593 
L 314.806379 377.144593 
L 315.134614 376.797523 
L 315.791085 376.797523 
L 316.11932 377.255373 
L 316.447555 377.127337 
L 317.760496 377.127337 
L 318.088732 376.736757 
L 319.073438 376.736757 
L 319.401673 377.287946 
L 320.058143 377.379553 
L 324.653437 377.314471 
L 325.309908 377.206438 
L 326.294614 377.206438 
L 326.622849 377.418525 
L 326.951085 377.418525 
L 327.27932 377.192459 
L 330.561673 377.192459 
L 330.889908 377.37022 
L 336.798143 377.37022 
L 337.126379 377.081472 
L 337.782849 377.081472 
L 338.111085 377.463634 
L 340.736967 377.463634 
L 341.065202 377.6472 
L 344.01932 377.566456 
L 344.67579 377.480051 
L 345.004026 377.615259 
L 346.645202 377.615259 
L 346.973438 377.325368 
L 348.286379 377.325368 
L 348.614614 377.456194 
L 361.087555 377.546946 
L 361.744026 377.591455 
L 362.400496 377.562863 
L 363.056967 377.622255 
L 368.636967 377.709467 
L 368.965202 376.867281 
L 372.57579 376.867281 
L 373.232261 377.621187 
L 374.545202 377.621187 
L 374.545202 377.621187 
" style="fill:none;stroke:#b8860b;stroke-linecap:square;stroke-width:1.5;"/>
   </g>
   <g id="line2d_16">
    <path clip-path="url(#p91f085106c)" d="M 46.638143 78.366667 
L 48.607555 78.366667 
L 48.93579 75.499126 
L 53.85932 75.499126 
L 54.187555 80.970987 
L 54.51579 109.307446 
L 54.844026 88.013303 
L 55.500496 88.013303 
L 55.828732 127.259658 
L 58.454614 127.259658 
L 58.782849 126.640656 
L 63.049908 126.640656 
L 63.378143 132.618419 
L 63.706379 155.261054 
L 65.67579 155.261054 
L 66.004026 150.247612 
L 66.332261 148.413981 
L 67.316967 148.413981 
L 67.645202 177.985505 
L 67.973438 177.985505 
L 68.301673 177.045285 
L 72.568732 177.045285 
L 72.896967 183.928463 
L 73.225202 188.071541 
L 75.522849 188.071541 
L 75.851085 220.813744 
L 77.820496 220.813744 
L 78.148732 222.55012 
L 80.774614 222.55012 
L 81.102849 224.272384 
L 81.431085 224.272384 
L 81.75932 240.368859 
L 83.400496 240.368859 
L 83.728732 259.555794 
L 84.385202 259.555794 
L 84.713437 264.365541 
L 85.041673 264.365541 
L 85.369908 258.608461 
L 85.698143 240.991248 
L 87.011085 240.991248 
L 87.33932 270.999357 
L 89.308732 270.999357 
L 89.636967 286.14797 
L 90.949908 286.14797 
L 91.278143 274.688508 
L 91.606379 273.998272 
L 92.591085 273.998272 
L 92.91932 284.591102 
L 97.514614 284.591102 
L 97.842849 289.513046 
L 98.171085 281.81174 
L 98.49932 287.746442 
L 98.827555 283.349547 
L 99.812261 283.349547 
L 100.140496 288.816651 
L 103.751085 288.816651 
L 104.07932 295.542014 
L 105.064026 295.542014 
L 105.392261 297.178999 
L 108.346379 297.121088 
L 108.674614 294.314387 
L 109.65932 294.314387 
L 109.987555 294.841753 
L 111.300496 294.841753 
L 111.628732 297.283297 
L 113.269908 297.283297 
L 113.598143 299.6157 
L 116.224026 299.6157 
L 116.552261 298.030904 
L 124.429908 298.030904 
L 124.758143 295.886708 
L 125.086379 295.886708 
L 125.414614 294.08185 
L 125.742849 295.433561 
L 127.384026 295.433561 
L 127.712261 298.443238 
L 129.353438 298.360652 
L 129.681673 297.408115 
L 130.009908 298.134075 
L 133.292261 298.134075 
L 133.620496 300.533329 
L 143.79579 300.533329 
L 144.124026 301.024074 
L 145.108732 301.024074 
L 145.436967 301.357184 
L 146.093437 301.357184 
L 146.421673 301.687074 
L 147.734614 301.687074 
L 148.062849 295.727795 
L 148.71932 295.727795 
L 149.047555 298.304809 
L 151.016967 298.304809 
L 151.345202 301.378404 
L 153.642849 301.378404 
L 153.971085 301.92654 
L 158.238143 301.883455 
L 158.566379 302.298328 
L 160.864026 302.298328 
L 161.192261 301.767864 
L 161.848732 301.767864 
L 162.176967 300.001999 
L 163.161673 300.001999 
L 163.489908 301.744398 
L 165.45932 301.744398 
L 165.787555 301.067466 
L 167.428732 301.067466 
L 167.756967 301.751478 
L 171.03932 301.751478 
L 171.367555 300.673642 
L 174.649908 300.673642 
L 174.978143 301.689668 
L 175.634614 301.689668 
L 175.962849 301.20201 
L 180.229908 301.20201 
L 180.558143 302.187734 
L 182.19932 302.187734 
L 182.527555 301.672594 
L 182.85579 301.672594 
L 183.184026 301.971641 
L 184.825202 301.971641 
L 185.153438 302.239682 
L 186.138143 302.239682 
L 186.466379 302.647607 
L 193.35932 302.607648 
L 193.687555 303.861646 
L 209.114614 303.930309 
L 209.442849 303.656117 
L 213.381673 303.656117 
L 213.709908 303.318465 
L 215.022849 303.318465 
L 215.351085 303.476413 
L 216.992261 303.476413 
L 217.320496 304.884341 
L 221.25932 304.927968 
L 221.587555 304.997449 
L 221.91579 303.554977 
L 222.244026 303.554977 
L 222.572261 305.068311 
L 222.900496 305.068311 
L 223.228732 304.430896 
L 224.541673 304.430896 
L 224.869908 303.364838 
L 226.83932 303.364838 
L 227.167555 304.299596 
L 229.136967 304.299596 
L 229.465202 304.137231 
L 234.060496 304.137231 
L 234.388732 305.599951 
L 234.716967 305.872378 
L 238.327555 305.91122 
L 238.65579 306.421603 
L 240.296967 306.421603 
L 240.625202 305.914104 
L 241.281673 305.914104 
L 241.609908 304.960309 
L 243.57932 304.960309 
L 243.907555 305.571684 
L 245.876967 305.571684 
L 246.205202 306.362225 
L 251.456967 306.454037 
L 251.785202 307.09134 
L 253.426379 307.068088 
L 272.792261 307.126149 
L 273.120496 307.619806 
L 277.05932 307.619806 
L 277.387555 307.390791 
L 278.044026 307.390791 
L 278.372261 307.140988 
L 280.998143 307.140988 
L 281.326379 308.007253 
L 282.311085 308.04814 
L 300.692261 308.111524 
L 301.348732 308.178432 
L 302.661673 308.178432 
L 302.989908 308.450403 
L 305.944026 308.427072 
L 306.272261 308.209906 
L 306.600496 308.62777 
L 311.524026 308.62777 
L 311.852261 308.494969 
L 314.806379 308.481524 
L 315.134614 308.331219 
L 315.791085 308.331219 
L 316.11932 308.686355 
L 316.77579 308.626065 
L 317.760496 308.626065 
L 318.088732 308.419427 
L 319.073438 308.419427 
L 319.401673 308.777306 
L 322.027555 308.904486 
L 330.561673 308.989374 
L 330.889908 309.110023 
L 342.706379 309.216545 
L 346.973438 309.188174 
L 372.57579 309.217307 
L 372.904026 309.373136 
L 374.545202 309.398213 
L 374.545202 309.398213 
" style="fill:none;stroke:#ff0000;stroke-linecap:square;stroke-width:1.5;"/>
   </g>
   <g id="line2d_17">
    <path clip-path="url(#p91f085106c)" d="M 46.638143 160.59835 
L 48.607555 160.59835 
L 48.93579 147.176643 
L 53.85932 147.176643 
L 54.187555 141.128204 
L 54.51579 168.197279 
L 54.844026 147.867982 
L 55.500496 147.867982 
L 55.828732 175.655194 
L 58.454614 175.655194 
L 58.782849 165.800735 
L 63.049908 165.800735 
L 63.378143 161.833939 
L 63.706379 183.623766 
L 65.67579 183.623766 
L 66.004026 170.141616 
L 66.332261 168.370494 
L 67.316967 168.370494 
L 67.645202 188.852761 
L 67.973438 188.852761 
L 68.301673 179.760414 
L 72.568732 179.760414 
L 72.896967 180.870329 
L 73.225202 184.884839 
L 75.522849 184.884839 
L 75.851085 209.716844 
L 77.820496 209.716844 
L 78.148732 208.631781 
L 80.774614 208.631781 
L 81.102849 206.260621 
L 81.431085 206.260621 
L 81.75932 216.681438 
L 83.400496 216.681438 
L 83.728732 230.517119 
L 84.385202 230.517119 
L 84.713437 233.454175 
L 85.041673 233.454175 
L 85.369908 225.039552 
L 85.698143 207.738294 
L 87.011085 207.738294 
L 87.33932 232.589946 
L 89.308732 232.589946 
L 89.636967 246.590199 
L 90.949908 246.590199 
L 91.278143 232.601049 
L 91.606379 231.896489 
L 92.591085 231.896489 
L 92.91932 242.912677 
L 97.514614 242.912677 
L 97.842849 246.619336 
L 98.171085 237.770076 
L 98.49932 244.439812 
L 98.827555 239.435496 
L 99.812261 239.435496 
L 100.140496 243.775577 
L 103.751085 243.775577 
L 104.07932 250.305156 
L 105.064026 250.305156 
L 105.392261 258.502232 
L 107.689908 258.502232 
L 108.018143 254.141039 
L 108.346379 254.141039 
L 108.674614 248.271666 
L 109.65932 248.271666 
L 109.987555 246.851634 
L 111.300496 246.851634 
L 111.628732 250.523762 
L 113.269908 250.523762 
L 113.598143 254.911149 
L 116.224026 254.911149 
L 116.552261 250.636048 
L 124.429908 250.636048 
L 124.758143 247.440273 
L 125.086379 247.440273 
L 125.414614 245.451798 
L 125.742849 247.088994 
L 127.384026 247.088994 
L 127.712261 249.286583 
L 129.025202 249.286583 
L 129.353438 248.390552 
L 129.681673 247.060852 
L 130.009908 248.061932 
L 133.292261 248.061932 
L 133.620496 251.857459 
L 143.79579 251.857459 
L 144.124026 251.641864 
L 145.108732 251.641864 
L 145.436967 252.495435 
L 146.093437 252.495435 
L 146.421673 253.378972 
L 147.734614 253.378972 
L 148.062849 263.315923 
L 148.71932 263.315923 
L 149.047555 261.660181 
L 151.016967 261.660181 
L 151.345202 257.408191 
L 153.642849 257.408191 
L 153.971085 255.835916 
L 156.925202 255.835916 
L 157.253438 251.411154 
L 158.238143 251.411154 
L 158.566379 254.85255 
L 160.864026 254.85255 
L 161.192261 256.359012 
L 161.848732 256.359012 
L 162.176967 259.340412 
L 163.161673 259.340412 
L 163.489908 256.44575 
L 165.45932 256.44575 
L 165.787555 258.231089 
L 167.428732 258.231089 
L 167.756967 256.924326 
L 171.03932 256.924326 
L 171.367555 258.702901 
L 174.649908 258.702901 
L 174.978143 257.10727 
L 175.634614 257.10727 
L 175.962849 258.020822 
L 180.229908 258.020822 
L 180.558143 256.512736 
L 182.19932 256.512736 
L 182.527555 257.594246 
L 182.85579 257.594246 
L 183.184026 257.027866 
L 184.825202 257.027866 
L 185.153438 256.366249 
L 186.138143 256.366249 
L 186.466379 255.043223 
L 190.405202 255.043223 
L 190.733438 255.313975 
L 193.35932 255.313975 
L 193.687555 254.107413 
L 197.954614 254.107413 
L 198.282849 255.12946 
L 201.565202 255.12946 
L 201.893438 254.612772 
L 202.549908 254.612772 
L 202.878143 255.039852 
L 209.114614 254.984555 
L 209.442849 255.98823 
L 213.381673 255.98823 
L 213.709908 256.712851 
L 215.022849 256.712851 
L 215.351085 256.444296 
L 216.992261 256.444296 
L 217.320496 255.882727 
L 221.25932 255.800144 
L 221.587555 255.480313 
L 221.91579 250.409671 
L 222.244026 250.409671 
L 222.572261 254.529431 
L 222.900496 254.529431 
L 223.228732 256.83899 
L 224.541673 256.83899 
L 224.869908 258.581749 
L 226.83932 258.581749 
L 227.167555 259.238822 
L 229.136967 259.238822 
L 229.465202 259.447677 
L 234.060496 259.447677 
L 234.388732 257.095549 
L 234.716967 255.984219 
L 236.029908 255.984219 
L 236.358143 255.704566 
L 240.296967 255.730188 
L 240.625202 257.967981 
L 241.281673 257.967981 
L 241.609908 259.479712 
L 243.57932 259.479712 
L 243.907555 258.671952 
L 245.876967 258.671952 
L 246.205202 255.042581 
L 249.15932 255.107036 
L 249.487555 254.676471 
L 251.456967 254.676471 
L 251.785202 256.056531 
L 252.113438 256.69587 
L 257.693438 256.69587 
L 258.021673 256.14552 
L 258.678143 256.063904 
L 259.991085 256.063904 
L 260.31932 255.31784 
L 265.571085 255.31784 
L 265.89932 256.031402 
L 271.47932 256.031402 
L 271.807555 256.575507 
L 272.792261 256.575507 
L 273.120496 255.90631 
L 277.05932 255.90631 
L 277.387555 257.644555 
L 278.044026 257.644555 
L 278.372261 258.130015 
L 280.998143 258.130015 
L 281.326379 257.491995 
L 281.654614 256.409235 
L 284.936967 256.409235 
L 285.265202 256.888668 
L 298.722849 256.810992 
L 299.051085 256.117971 
L 300.692261 256.117971 
L 301.020496 256.464328 
L 302.661673 256.464328 
L 302.989908 257.093503 
L 304.95932 257.093503 
L 305.287555 256.364886 
L 305.944026 256.364886 
L 306.272261 255.978915 
L 306.600496 256.934552 
L 311.524026 256.934552 
L 311.852261 256.559922 
L 313.493438 256.559922 
L 313.821673 256.298063 
L 314.806379 256.298063 
L 315.134614 255.827422 
L 315.791085 255.827422 
L 316.11932 256.330798 
L 316.447555 256.174832 
L 317.760496 256.174832 
L 318.088732 255.671421 
L 319.073438 255.671421 
L 319.401673 256.294225 
L 320.058143 256.4057 
L 324.653437 256.407997 
L 324.981673 256.242817 
L 326.294614 256.242817 
L 326.622849 256.480143 
L 326.951085 256.480143 
L 327.27932 256.274946 
L 330.561673 256.274946 
L 330.889908 256.459136 
L 336.798143 256.459136 
L 337.126379 256.080963 
L 337.782849 256.080963 
L 338.111085 256.55447 
L 340.736967 256.55447 
L 341.065202 256.757519 
L 342.706379 256.683048 
L 343.691085 256.630648 
L 344.01932 256.630648 
L 344.67579 256.517762 
L 345.004026 256.667844 
L 346.645202 256.667844 
L 346.973438 256.337428 
L 348.286379 256.337428 
L 348.614614 256.483739 
L 361.087555 256.558751 
L 361.744026 256.604296 
L 362.400496 256.559176 
L 363.056967 256.621874 
L 365.682849 256.621874 
L 366.011085 256.749487 
L 366.33932 256.511463 
L 366.667555 256.511463 
L 367.324026 256.738849 
L 368.636967 256.739193 
L 368.965202 255.658663 
L 372.57579 255.658663 
L 372.904026 256.011506 
L 373.232261 256.551639 
L 374.545202 256.551639 
L 374.545202 256.551639 
" style="fill:none;stroke:#32cd32;stroke-linecap:square;stroke-width:1.5;"/>
   </g>
   <g id="line2d_18">
    <path clip-path="url(#p91f085106c)" d="M 46.638143 311.253599 
L 374.873438 311.253599 
" style="fill:none;stroke:#000000;stroke-dasharray:3.7,1.6;stroke-dashoffset:0;"/>
   </g>
   <g id="patch_3">
    <path d="M 40.073438 410.398125 
L 40.073438 22.318125 
" style="fill:none;stroke:#000000;stroke-linecap:square;stroke-linejoin:miter;stroke-width:0.8;"/>
   </g>
   <g id="patch_4">
    <path d="M 374.873438 410.398125 
L 374.873438 22.318125 
" style="fill:none;stroke:#000000;stroke-linecap:square;stroke-linejoin:miter;stroke-width:0.8;"/>
   </g>
   <g id="patch_5">
    <path d="M 40.073438 410.398125 
L 374.873438 410.398125 
" style="fill:none;stroke:#000000;stroke-linecap:square;stroke-linejoin:miter;stroke-width:0.8;"/>
   </g>
   <g id="patch_6">
    <path d="M 40.073438 22.318125 
L 374.873438 22.318125 
" style="fill:none;stroke:#000000;stroke-linecap:square;stroke-linejoin:miter;stroke-width:0.8;"/>
   </g>
   <g id="text_9">
    <!-- TDC -->
    <defs>
     <path d="M -0.296875 72.90625 
L 61.375 72.90625 
L 61.375 64.59375 
L 35.5 64.59375 
L 35.5 0 
L 25.59375 0 
L 25.59375 64.59375 
L -0.296875 64.59375 
z
" id="DejaVuSans-84"/>
     <path d="M 19.671875 64.796875 
L 19.671875 8.109375 
L 31.59375 8.109375 
Q 46.6875 8.109375 53.6875 14.9375 
Q 60.6875 21.78125 60.6875 36.53125 
Q 60.6875 51.171875 53.6875 57.984375 
Q 46.6875 64.796875 31.59375 64.796875 
z
M 9.8125 72.90625 
L 30.078125 72.90625 
Q 51.265625 72.90625 61.171875 64.09375 
Q 71.09375 55.28125 71.09375 36.53125 
Q 71.09375 17.671875 61.125 8.828125 
Q 51.171875 0 30.078125 0 
L 9.8125 0 
z
" id="DejaVuSans-68"/>
     <path d="M 64.40625 67.28125 
L 64.40625 56.890625 
Q 59.421875 61.53125 53.78125 63.8125 
Q 48.140625 66.109375 41.796875 66.109375 
Q 29.296875 66.109375 22.65625 58.46875 
Q 16.015625 50.828125 16.015625 36.375 
Q 16.015625 21.96875 22.65625 14.328125 
Q 29.296875 6.6875 41.796875 6.6875 
Q 48.140625 6.6875 53.78125 8.984375 
Q 59.421875 11.28125 64.40625 15.921875 
L 64.40625 5.609375 
Q 59.234375 2.09375 53.4375 0.328125 
Q 47.65625 -1.421875 41.21875 -1.421875 
Q 24.65625 -1.421875 15.125 8.703125 
Q 5.609375 18.84375 5.609375 36.375 
Q 5.609375 53.953125 15.125 64.078125 
Q 24.65625 74.21875 41.21875 74.21875 
Q 47.75 74.21875 53.53125 72.484375 
Q 59.328125 70.75 64.40625 67.28125 
z
" id="DejaVuSans-67"/>
    </defs>
    <g transform="translate(194.999063 16.318125)scale(0.12 -0.12)">
     <use xlink:href="#DejaVuSans-84"/>
     <use x="61.083984" xlink:href="#DejaVuSans-68"/>
     <use x="138.085938" xlink:href="#DejaVuSans-67"/>
    </g>
   </g>
   <g id="legend_1">
    <g id="patch_7">
     <path d="M 306.773438 184.743125 
L 367.873438 184.743125 
Q 369.873438 184.743125 369.873438 182.743125 
L 369.873438 29.318125 
Q 369.873438 27.318125 367.873438 27.318125 
L 306.773438 27.318125 
Q 304.773438 27.318125 304.773438 29.318125 
L 304.773438 182.743125 
Q 304.773438 184.743125 306.773438 184.743125 
z
" style="fill:#ffffff;opacity:0.8;stroke:#cccccc;stroke-linejoin:miter;"/>
    </g>
    <g id="line2d_19">
     <path d="M 308.773438 35.416562 
L 328.773438 35.416562 
" style="fill:none;stroke:#0000ff;stroke-linecap:square;stroke-width:1.5;"/>
    </g>
    <g id="line2d_20"/>
    <g id="text_10">
     <!-- w1 -->
     <defs>
      <path d="M 4.203125 54.6875 
L 13.1875 54.6875 
L 24.421875 12.015625 
L 35.59375 54.6875 
L 46.1875 54.6875 
L 57.421875 12.015625 
L 68.609375 54.6875 
L 77.59375 54.6875 
L 63.28125 0 
L 52.6875 0 
L 40.921875 44.828125 
L 29.109375 0 
L 18.5 0 
z
" id="DejaVuSans-119"/>
     </defs>
     <g transform="translate(336.773438 38.916562)scale(0.1 -0.1)">
      <use xlink:href="#DejaVuSans-119"/>
      <use x="81.787109" xlink:href="#DejaVuSans-49"/>
     </g>
    </g>
    <g id="line2d_21">
     <path d="M 308.773438 50.094687 
L 328.773438 50.094687 
" style="fill:none;stroke:#000000;stroke-linecap:square;stroke-width:1.5;"/>
    </g>
    <g id="line2d_22"/>
    <g id="text_11">
     <!-- w2 -->
     <g transform="translate(336.773438 53.594687)scale(0.1 -0.1)">
      <use xlink:href="#DejaVuSans-119"/>
      <use x="81.787109" xlink:href="#DejaVuSans-50"/>
     </g>
    </g>
    <g id="line2d_23">
     <path d="M 308.773438 64.772812 
L 328.773438 64.772812 
" style="fill:none;stroke:#da70d6;stroke-linecap:square;stroke-width:1.5;"/>
    </g>
    <g id="line2d_24"/>
    <g id="text_12">
     <!-- w3 -->
     <g transform="translate(336.773438 68.272812)scale(0.1 -0.1)">
      <use xlink:href="#DejaVuSans-119"/>
      <use x="81.787109" xlink:href="#DejaVuSans-51"/>
     </g>
    </g>
    <g id="line2d_25">
     <path d="M 308.773438 79.450937 
L 328.773438 79.450937 
" style="fill:none;stroke:#00ffff;stroke-linecap:square;stroke-width:1.5;"/>
    </g>
    <g id="line2d_26"/>
    <g id="text_13">
     <!-- w4 -->
     <g transform="translate(336.773438 82.950937)scale(0.1 -0.1)">
      <use xlink:href="#DejaVuSans-119"/>
      <use x="81.787109" xlink:href="#DejaVuSans-52"/>
     </g>
    </g>
    <g id="line2d_27">
     <path d="M 308.773438 94.129062 
L 328.773438 94.129062 
" style="fill:none;stroke:#800080;stroke-linecap:square;stroke-width:1.5;"/>
    </g>
    <g id="line2d_28"/>
    <g id="text_14">
     <!-- w5 -->
     <g transform="translate(336.773438 97.629062)scale(0.1 -0.1)">
      <use xlink:href="#DejaVuSans-119"/>
      <use x="81.787109" xlink:href="#DejaVuSans-53"/>
     </g>
    </g>
    <g id="line2d_29">
     <path d="M 308.773438 108.807187 
L 328.773438 108.807187 
" style="fill:none;stroke:#ff00ff;stroke-linecap:square;stroke-width:1.5;"/>
    </g>
    <g id="line2d_30"/>
    <g id="text_15">
     <!-- w6 -->
     <defs>
      <path d="M 33.015625 40.375 
Q 26.375 40.375 22.484375 35.828125 
Q 18.609375 31.296875 18.609375 23.390625 
Q 18.609375 15.53125 22.484375 10.953125 
Q 26.375 6.390625 33.015625 6.390625 
Q 39.65625 6.390625 43.53125 10.953125 
Q 47.40625 15.53125 47.40625 23.390625 
Q 47.40625 31.296875 43.53125 35.828125 
Q 39.65625 40.375 33.015625 40.375 
z
M 52.59375 71.296875 
L 52.59375 62.3125 
Q 48.875 64.0625 45.09375 64.984375 
Q 41.3125 65.921875 37.59375 65.921875 
Q 27.828125 65.921875 22.671875 59.328125 
Q 17.53125 52.734375 16.796875 39.40625 
Q 19.671875 43.65625 24.015625 45.921875 
Q 28.375 48.1875 33.59375 48.1875 
Q 44.578125 48.1875 50.953125 41.515625 
Q 57.328125 34.859375 57.328125 23.390625 
Q 57.328125 12.15625 50.6875 5.359375 
Q 44.046875 -1.421875 33.015625 -1.421875 
Q 20.359375 -1.421875 13.671875 8.265625 
Q 6.984375 17.96875 6.984375 36.375 
Q 6.984375 53.65625 15.1875 63.9375 
Q 23.390625 74.21875 37.203125 74.21875 
Q 40.921875 74.21875 44.703125 73.484375 
Q 48.484375 72.75 52.59375 71.296875 
z
" id="DejaVuSans-54"/>
     </defs>
     <g transform="translate(336.773438 112.307187)scale(0.1 -0.1)">
      <use xlink:href="#DejaVuSans-119"/>
      <use x="81.787109" xlink:href="#DejaVuSans-54"/>
     </g>
    </g>
    <g id="line2d_31">
     <path d="M 308.773438 123.485312 
L 328.773438 123.485312 
" style="fill:none;stroke:#ff8c00;stroke-linecap:square;stroke-width:1.5;"/>
    </g>
    <g id="line2d_32"/>
    <g id="text_16">
     <!-- w7 -->
     <defs>
      <path d="M 8.203125 72.90625 
L 55.078125 72.90625 
L 55.078125 68.703125 
L 28.609375 0 
L 18.3125 0 
L 43.21875 64.59375 
L 8.203125 64.59375 
z
" id="DejaVuSans-55"/>
     </defs>
     <g transform="translate(336.773438 126.985312)scale(0.1 -0.1)">
      <use xlink:href="#DejaVuSans-119"/>
      <use x="81.787109" xlink:href="#DejaVuSans-55"/>
     </g>
    </g>
    <g id="line2d_33">
     <path d="M 308.773438 138.163437 
L 328.773438 138.163437 
" style="fill:none;stroke:#b8860b;stroke-linecap:square;stroke-width:1.5;"/>
    </g>
    <g id="line2d_34"/>
    <g id="text_17">
     <!-- w8 -->
     <defs>
      <path d="M 31.78125 34.625 
Q 24.75 34.625 20.71875 30.859375 
Q 16.703125 27.09375 16.703125 20.515625 
Q 16.703125 13.921875 20.71875 10.15625 
Q 24.75 6.390625 31.78125 6.390625 
Q 38.8125 6.390625 42.859375 10.171875 
Q 46.921875 13.96875 46.921875 20.515625 
Q 46.921875 27.09375 42.890625 30.859375 
Q 38.875 34.625 31.78125 34.625 
z
M 21.921875 38.8125 
Q 15.578125 40.375 12.03125 44.71875 
Q 8.5 49.078125 8.5 55.328125 
Q 8.5 64.0625 14.71875 69.140625 
Q 20.953125 74.21875 31.78125 74.21875 
Q 42.671875 74.21875 48.875 69.140625 
Q 55.078125 64.0625 55.078125 55.328125 
Q 55.078125 49.078125 51.53125 44.71875 
Q 48 40.375 41.703125 38.8125 
Q 48.828125 37.15625 52.796875 32.3125 
Q 56.78125 27.484375 56.78125 20.515625 
Q 56.78125 9.90625 50.3125 4.234375 
Q 43.84375 -1.421875 31.78125 -1.421875 
Q 19.734375 -1.421875 13.25 4.234375 
Q 6.78125 9.90625 6.78125 20.515625 
Q 6.78125 27.484375 10.78125 32.3125 
Q 14.796875 37.15625 21.921875 38.8125 
z
M 18.3125 54.390625 
Q 18.3125 48.734375 21.84375 45.5625 
Q 25.390625 42.390625 31.78125 42.390625 
Q 38.140625 42.390625 41.71875 45.5625 
Q 45.3125 48.734375 45.3125 54.390625 
Q 45.3125 60.0625 41.71875 63.234375 
Q 38.140625 66.40625 31.78125 66.40625 
Q 25.390625 66.40625 21.84375 63.234375 
Q 18.3125 60.0625 18.3125 54.390625 
z
" id="DejaVuSans-56"/>
     </defs>
     <g transform="translate(336.773438 141.663437)scale(0.1 -0.1)">
      <use xlink:href="#DejaVuSans-119"/>
      <use x="81.787109" xlink:href="#DejaVuSans-56"/>
     </g>
    </g>
    <g id="line2d_35">
     <path d="M 308.773438 156.663437 
L 328.773438 156.663437 
" style="fill:none;stroke:#ff0000;stroke-linecap:square;stroke-width:1.5;"/>
    </g>
    <g id="line2d_36"/>
    <g id="text_18">
     <!-- $\sqrt{\overline{PBE}}$ -->
     <defs>
      <path d="M 108.90625 155.203125 
L 52.703125 -29.5 
L 48.5 -29.5 
L 25.40625 45.59375 
Q 24.296875 49.203125 22.890625 50.796875 
Q 21.5 52.40625 19.203125 52.40625 
Q 15.796875 52.40625 12.40625 49.703125 
L 11.203125 51.703125 
L 27.59375 64.296875 
L 30.09375 64.296875 
L 52.796875 -9.40625 
L 53.203125 -9.40625 
L 103.203125 155.203125 
z
" id="STIXSizeOneSym-Regular-8730"/>
      <path d="M 16.890625 72.90625 
L 39.703125 72.90625 
Q 49.65625 72.90625 54.875 68.265625 
Q 60.109375 63.625 60.109375 54.6875 
Q 60.109375 42.671875 52.390625 35.984375 
Q 44.671875 29.296875 30.71875 29.296875 
L 18.3125 29.296875 
L 12.59375 0 
L 2.6875 0 
z
M 25.203125 64.796875 
L 19.921875 37.40625 
L 32.328125 37.40625 
Q 40.71875 37.40625 45.203125 41.703125 
Q 49.703125 46 49.703125 54 
Q 49.703125 59.125 46.65625 61.953125 
Q 43.609375 64.796875 38.09375 64.796875 
z
" id="DejaVuSans-Oblique-80"/>
      <path d="M 16.890625 72.90625 
L 42.09375 72.90625 
Q 52.34375 72.90625 57.421875 69.09375 
Q 62.5 65.28125 62.5 57.625 
Q 62.5 50.59375 58.125 45.484375 
Q 53.765625 40.375 46.6875 39.3125 
Q 52.734375 37.9375 55.765625 34.078125 
Q 58.796875 30.21875 58.796875 23.78125 
Q 58.796875 12.796875 50.65625 6.390625 
Q 42.53125 0 28.421875 0 
L 2.6875 0 
z
M 19.28125 34.8125 
L 14.109375 8.109375 
L 29.984375 8.109375 
Q 38.921875 8.109375 43.75 12.203125 
Q 48.578125 16.3125 48.578125 23.78125 
Q 48.578125 29.546875 45.375 32.171875 
Q 42.1875 34.8125 35.109375 34.8125 
z
M 25.09375 64.796875 
L 20.796875 42.828125 
L 35.5 42.828125 
Q 43.359375 42.828125 47.78125 46.234375 
Q 52.203125 49.65625 52.203125 55.71875 
Q 52.203125 60.453125 49.21875 62.625 
Q 46.234375 64.796875 39.703125 64.796875 
z
" id="DejaVuSans-Oblique-66"/>
      <path d="M 16.890625 72.90625 
L 62.984375 72.90625 
L 61.375 64.59375 
L 25.09375 64.59375 
L 20.90625 43.015625 
L 55.71875 43.015625 
L 54.109375 34.71875 
L 19.28125 34.71875 
L 14.203125 8.296875 
L 51.3125 8.296875 
L 49.703125 0 
L 2.6875 0 
z
" id="DejaVuSans-Oblique-69"/>
     </defs>
     <g transform="translate(336.773438 160.163437)scale(0.1 -0.1)">
      <use transform="translate(0 20.703125)scale(0.69791)" xlink:href="#STIXSizeOneSym-Regular-8730"/>
      <use transform="translate(86.258774 0.59375)" xlink:href="#DejaVuSans-Oblique-80"/>
      <use transform="translate(146.561508 0.59375)" xlink:href="#DejaVuSans-Oblique-66"/>
      <use transform="translate(215.165024 0.59375)" xlink:href="#DejaVuSans-Oblique-69"/>
      <path d="M 73.758774 122.5 
L 73.758774 128.75 
L 290.848618 128.75 
L 290.848618 122.5 
L 73.758774 122.5 
z
"/>
      <path d="M 86.258774 85.25 
L 86.258774 91.5 
L 278.348618 91.5 
L 278.348618 85.25 
L 86.258774 85.25 
z
"/>
     </g>
    </g>
    <g id="line2d_37">
     <path d="M 308.773438 175.163437 
L 328.773438 175.163437 
" style="fill:none;stroke:#32cd32;stroke-linecap:square;stroke-width:1.5;"/>
    </g>
    <g id="line2d_38"/>
    <g id="text_19">
     <!-- $\sqrt{\overline{VE}}$ -->
     <defs>
      <path d="M 20.609375 0 
L 7.8125 72.90625 
L 17.484375 72.90625 
L 28.078125 10.203125 
L 63.484375 72.90625 
L 74.21875 72.90625 
L 32.078125 0 
z
" id="DejaVuSans-Oblique-86"/>
     </defs>
     <g transform="translate(336.773438 178.663437)scale(0.1 -0.1)">
      <use transform="translate(0 20.703125)scale(0.69791)" xlink:href="#STIXSizeOneSym-Regular-8730"/>
      <use transform="translate(86.258774 0.59375)" xlink:href="#DejaVuSans-Oblique-86"/>
      <use transform="translate(154.666977 0.59375)" xlink:href="#DejaVuSans-Oblique-69"/>
      <path d="M 73.758774 122.5 
L 73.758774 128.75 
L 230.350571 128.75 
L 230.350571 122.5 
L 73.758774 122.5 
z
"/>
      <path d="M 86.258774 85.25 
L 86.258774 91.5 
L 217.850571 91.5 
L 217.850571 85.25 
L 86.258774 85.25 
z
"/>
     </g>
    </g>
   </g>
  </g>
 </g>
 <defs>
  <clipPath id="p91f085106c">
   <rect height="388.08" width="334.8" x="40.073438" y="22.318125"/>
  </clipPath>
 </defs>
</svg>
