<?xml version="1.0" encoding="utf-8" standalone="no"?>
<!DOCTYPE svg PUBLIC "-//W3C//DTD SVG 1.1//EN"
  "http://www.w3.org/Graphics/SVG/1.1/DTD/svg11.dtd">
<!-- Created with matplotlib (https://matplotlib.org/) -->
<svg height="392.514375pt" version="1.1" viewBox="0 0 392.146875 392.514375" width="392.146875pt" xmlns="http://www.w3.org/2000/svg" xmlns:xlink="http://www.w3.org/1999/xlink">
 <defs>
  <style type="text/css">
*{stroke-linecap:butt;stroke-linejoin:round;}
  </style>
 </defs>
 <g id="figure_1">
  <g id="patch_1">
   <path d="M 0 392.514375 
L 392.146875 392.514375 
L 392.146875 0 
L 0 0 
z
" style="fill:#ffffff;"/>
  </g>
  <g id="axes_1">
   <g id="patch_2">
    <path d="M 34.240625 354.958125 
L 369.040625 354.958125 
L 369.040625 22.318125 
L 34.240625 22.318125 
z
" style="fill:#ffffff;"/>
   </g>
   <g id="matplotlib.axis_1">
    <g id="xtick_1">
     <g id="line2d_1">
      <defs>
       <path d="M 0 0 
L 0 3.5 
" id="m4170ae0e1a" style="stroke:#000000;stroke-width:0.8;"/>
      </defs>
      <g>
       <use style="stroke:#000000;stroke-width:0.8;" x="34.240625" xlink:href="#m4170ae0e1a" y="354.958125"/>
      </g>
     </g>
     <g id="text_1">
      <!-- 0 -->
      <defs>
       <path d="M 31.78125 66.40625 
Q 24.171875 66.40625 20.328125 58.90625 
Q 16.5 51.421875 16.5 36.375 
Q 16.5 21.390625 20.328125 13.890625 
Q 24.171875 6.390625 31.78125 6.390625 
Q 39.453125 6.390625 43.28125 13.890625 
Q 47.125 21.390625 47.125 36.375 
Q 47.125 51.421875 43.28125 58.90625 
Q 39.453125 66.40625 31.78125 66.40625 
z
M 31.78125 74.21875 
Q 44.046875 74.21875 50.515625 64.515625 
Q 56.984375 54.828125 56.984375 36.375 
Q 56.984375 17.96875 50.515625 8.265625 
Q 44.046875 -1.421875 31.78125 -1.421875 
Q 19.53125 -1.421875 13.0625 8.265625 
Q 6.59375 17.96875 6.59375 36.375 
Q 6.59375 54.828125 13.0625 64.515625 
Q 19.53125 74.21875 31.78125 74.21875 
z
" id="DejaVuSans-48"/>
      </defs>
      <g transform="translate(31.059375 369.556562)scale(0.1 -0.1)">
       <use xlink:href="#DejaVuSans-48"/>
      </g>
     </g>
    </g>
    <g id="xtick_2">
     <g id="line2d_2">
      <g>
       <use style="stroke:#000000;stroke-width:0.8;" x="117.940625" xlink:href="#m4170ae0e1a" y="354.958125"/>
      </g>
     </g>
     <g id="text_2">
      <!-- 5000 -->
      <defs>
       <path d="M 10.796875 72.90625 
L 49.515625 72.90625 
L 49.515625 64.59375 
L 19.828125 64.59375 
L 19.828125 46.734375 
Q 21.96875 47.46875 24.109375 47.828125 
Q 26.265625 48.1875 28.421875 48.1875 
Q 40.625 48.1875 47.75 41.5 
Q 54.890625 34.8125 54.890625 23.390625 
Q 54.890625 11.625 47.5625 5.09375 
Q 40.234375 -1.421875 26.90625 -1.421875 
Q 22.3125 -1.421875 17.546875 -0.640625 
Q 12.796875 0.140625 7.71875 1.703125 
L 7.71875 11.625 
Q 12.109375 9.234375 16.796875 8.0625 
Q 21.484375 6.890625 26.703125 6.890625 
Q 35.15625 6.890625 40.078125 11.328125 
Q 45.015625 15.765625 45.015625 23.390625 
Q 45.015625 31 40.078125 35.4375 
Q 35.15625 39.890625 26.703125 39.890625 
Q 22.75 39.890625 18.8125 39.015625 
Q 14.890625 38.140625 10.796875 36.28125 
z
" id="DejaVuSans-53"/>
      </defs>
      <g transform="translate(105.215625 369.556562)scale(0.1 -0.1)">
       <use xlink:href="#DejaVuSans-53"/>
       <use x="63.623047" xlink:href="#DejaVuSans-48"/>
       <use x="127.246094" xlink:href="#DejaVuSans-48"/>
       <use x="190.869141" xlink:href="#DejaVuSans-48"/>
      </g>
     </g>
    </g>
    <g id="xtick_3">
     <g id="line2d_3">
      <g>
       <use style="stroke:#000000;stroke-width:0.8;" x="201.640625" xlink:href="#m4170ae0e1a" y="354.958125"/>
      </g>
     </g>
     <g id="text_3">
      <!-- 10000 -->
      <defs>
       <path d="M 12.40625 8.296875 
L 28.515625 8.296875 
L 28.515625 63.921875 
L 10.984375 60.40625 
L 10.984375 69.390625 
L 28.421875 72.90625 
L 38.28125 72.90625 
L 38.28125 8.296875 
L 54.390625 8.296875 
L 54.390625 0 
L 12.40625 0 
z
" id="DejaVuSans-49"/>
      </defs>
      <g transform="translate(185.734375 369.556562)scale(0.1 -0.1)">
       <use xlink:href="#DejaVuSans-49"/>
       <use x="63.623047" xlink:href="#DejaVuSans-48"/>
       <use x="127.246094" xlink:href="#DejaVuSans-48"/>
       <use x="190.869141" xlink:href="#DejaVuSans-48"/>
       <use x="254.492188" xlink:href="#DejaVuSans-48"/>
      </g>
     </g>
    </g>
    <g id="xtick_4">
     <g id="line2d_4">
      <g>
       <use style="stroke:#000000;stroke-width:0.8;" x="285.340625" xlink:href="#m4170ae0e1a" y="354.958125"/>
      </g>
     </g>
     <g id="text_4">
      <!-- 15000 -->
      <g transform="translate(269.434375 369.556562)scale(0.1 -0.1)">
       <use xlink:href="#DejaVuSans-49"/>
       <use x="63.623047" xlink:href="#DejaVuSans-53"/>
       <use x="127.246094" xlink:href="#DejaVuSans-48"/>
       <use x="190.869141" xlink:href="#DejaVuSans-48"/>
       <use x="254.492188" xlink:href="#DejaVuSans-48"/>
      </g>
     </g>
    </g>
    <g id="xtick_5">
     <g id="line2d_5">
      <g>
       <use style="stroke:#000000;stroke-width:0.8;" x="369.040625" xlink:href="#m4170ae0e1a" y="354.958125"/>
      </g>
     </g>
     <g id="text_5">
      <!-- 20000 -->
      <defs>
       <path d="M 19.1875 8.296875 
L 53.609375 8.296875 
L 53.609375 0 
L 7.328125 0 
L 7.328125 8.296875 
Q 12.9375 14.109375 22.625 23.890625 
Q 32.328125 33.6875 34.8125 36.53125 
Q 39.546875 41.84375 41.421875 45.53125 
Q 43.3125 49.21875 43.3125 52.78125 
Q 43.3125 58.59375 39.234375 62.25 
Q 35.15625 65.921875 28.609375 65.921875 
Q 23.96875 65.921875 18.8125 64.3125 
Q 13.671875 62.703125 7.8125 59.421875 
L 7.8125 69.390625 
Q 13.765625 71.78125 18.9375 73 
Q 24.125 74.21875 28.421875 74.21875 
Q 39.75 74.21875 46.484375 68.546875 
Q 53.21875 62.890625 53.21875 53.421875 
Q 53.21875 48.921875 51.53125 44.890625 
Q 49.859375 40.875 45.40625 35.40625 
Q 44.1875 33.984375 37.640625 27.21875 
Q 31.109375 20.453125 19.1875 8.296875 
z
" id="DejaVuSans-50"/>
      </defs>
      <g transform="translate(353.134375 369.556562)scale(0.1 -0.1)">
       <use xlink:href="#DejaVuSans-50"/>
       <use x="63.623047" xlink:href="#DejaVuSans-48"/>
       <use x="127.246094" xlink:href="#DejaVuSans-48"/>
       <use x="190.869141" xlink:href="#DejaVuSans-48"/>
       <use x="254.492188" xlink:href="#DejaVuSans-48"/>
      </g>
     </g>
    </g>
    <g id="text_6">
     <!-- Computation time, in expected updates -->
     <defs>
      <path d="M 64.40625 67.28125 
L 64.40625 56.890625 
Q 59.421875 61.53125 53.78125 63.8125 
Q 48.140625 66.109375 41.796875 66.109375 
Q 29.296875 66.109375 22.65625 58.46875 
Q 16.015625 50.828125 16.015625 36.375 
Q 16.015625 21.96875 22.65625 14.328125 
Q 29.296875 6.6875 41.796875 6.6875 
Q 48.140625 6.6875 53.78125 8.984375 
Q 59.421875 11.28125 64.40625 15.921875 
L 64.40625 5.609375 
Q 59.234375 2.09375 53.4375 0.328125 
Q 47.65625 -1.421875 41.21875 -1.421875 
Q 24.65625 -1.421875 15.125 8.703125 
Q 5.609375 18.84375 5.609375 36.375 
Q 5.609375 53.953125 15.125 64.078125 
Q 24.65625 74.21875 41.21875 74.21875 
Q 47.75 74.21875 53.53125 72.484375 
Q 59.328125 70.75 64.40625 67.28125 
z
" id="DejaVuSans-67"/>
      <path d="M 30.609375 48.390625 
Q 23.390625 48.390625 19.1875 42.75 
Q 14.984375 37.109375 14.984375 27.296875 
Q 14.984375 17.484375 19.15625 11.84375 
Q 23.34375 6.203125 30.609375 6.203125 
Q 37.796875 6.203125 41.984375 11.859375 
Q 46.1875 17.53125 46.1875 27.296875 
Q 46.1875 37.015625 41.984375 42.703125 
Q 37.796875 48.390625 30.609375 48.390625 
z
M 30.609375 56 
Q 42.328125 56 49.015625 48.375 
Q 55.71875 40.765625 55.71875 27.296875 
Q 55.71875 13.875 49.015625 6.21875 
Q 42.328125 -1.421875 30.609375 -1.421875 
Q 18.84375 -1.421875 12.171875 6.21875 
Q 5.515625 13.875 5.515625 27.296875 
Q 5.515625 40.765625 12.171875 48.375 
Q 18.84375 56 30.609375 56 
z
" id="DejaVuSans-111"/>
      <path d="M 52 44.1875 
Q 55.375 50.25 60.0625 53.125 
Q 64.75 56 71.09375 56 
Q 79.640625 56 84.28125 50.015625 
Q 88.921875 44.046875 88.921875 33.015625 
L 88.921875 0 
L 79.890625 0 
L 79.890625 32.71875 
Q 79.890625 40.578125 77.09375 44.375 
Q 74.3125 48.1875 68.609375 48.1875 
Q 61.625 48.1875 57.5625 43.546875 
Q 53.515625 38.921875 53.515625 30.90625 
L 53.515625 0 
L 44.484375 0 
L 44.484375 32.71875 
Q 44.484375 40.625 41.703125 44.40625 
Q 38.921875 48.1875 33.109375 48.1875 
Q 26.21875 48.1875 22.15625 43.53125 
Q 18.109375 38.875 18.109375 30.90625 
L 18.109375 0 
L 9.078125 0 
L 9.078125 54.6875 
L 18.109375 54.6875 
L 18.109375 46.1875 
Q 21.1875 51.21875 25.484375 53.609375 
Q 29.78125 56 35.6875 56 
Q 41.65625 56 45.828125 52.96875 
Q 50 49.953125 52 44.1875 
z
" id="DejaVuSans-109"/>
      <path d="M 18.109375 8.203125 
L 18.109375 -20.796875 
L 9.078125 -20.796875 
L 9.078125 54.6875 
L 18.109375 54.6875 
L 18.109375 46.390625 
Q 20.953125 51.265625 25.265625 53.625 
Q 29.59375 56 35.59375 56 
Q 45.5625 56 51.78125 48.09375 
Q 58.015625 40.1875 58.015625 27.296875 
Q 58.015625 14.40625 51.78125 6.484375 
Q 45.5625 -1.421875 35.59375 -1.421875 
Q 29.59375 -1.421875 25.265625 0.953125 
Q 20.953125 3.328125 18.109375 8.203125 
z
M 48.6875 27.296875 
Q 48.6875 37.203125 44.609375 42.84375 
Q 40.53125 48.484375 33.40625 48.484375 
Q 26.265625 48.484375 22.1875 42.84375 
Q 18.109375 37.203125 18.109375 27.296875 
Q 18.109375 17.390625 22.1875 11.75 
Q 26.265625 6.109375 33.40625 6.109375 
Q 40.53125 6.109375 44.609375 11.75 
Q 48.6875 17.390625 48.6875 27.296875 
z
" id="DejaVuSans-112"/>
      <path d="M 8.5 21.578125 
L 8.5 54.6875 
L 17.484375 54.6875 
L 17.484375 21.921875 
Q 17.484375 14.15625 20.5 10.265625 
Q 23.53125 6.390625 29.59375 6.390625 
Q 36.859375 6.390625 41.078125 11.03125 
Q 45.3125 15.671875 45.3125 23.6875 
L 45.3125 54.6875 
L 54.296875 54.6875 
L 54.296875 0 
L 45.3125 0 
L 45.3125 8.40625 
Q 42.046875 3.421875 37.71875 1 
Q 33.40625 -1.421875 27.6875 -1.421875 
Q 18.265625 -1.421875 13.375 4.4375 
Q 8.5 10.296875 8.5 21.578125 
z
M 31.109375 56 
z
" id="DejaVuSans-117"/>
      <path d="M 18.3125 70.21875 
L 18.3125 54.6875 
L 36.8125 54.6875 
L 36.8125 47.703125 
L 18.3125 47.703125 
L 18.3125 18.015625 
Q 18.3125 11.328125 20.140625 9.421875 
Q 21.96875 7.515625 27.59375 7.515625 
L 36.8125 7.515625 
L 36.8125 0 
L 27.59375 0 
Q 17.1875 0 13.234375 3.875 
Q 9.28125 7.765625 9.28125 18.015625 
L 9.28125 47.703125 
L 2.6875 47.703125 
L 2.6875 54.6875 
L 9.28125 54.6875 
L 9.28125 70.21875 
z
" id="DejaVuSans-116"/>
      <path d="M 34.28125 27.484375 
Q 23.390625 27.484375 19.1875 25 
Q 14.984375 22.515625 14.984375 16.5 
Q 14.984375 11.71875 18.140625 8.90625 
Q 21.296875 6.109375 26.703125 6.109375 
Q 34.1875 6.109375 38.703125 11.40625 
Q 43.21875 16.703125 43.21875 25.484375 
L 43.21875 27.484375 
z
M 52.203125 31.203125 
L 52.203125 0 
L 43.21875 0 
L 43.21875 8.296875 
Q 40.140625 3.328125 35.546875 0.953125 
Q 30.953125 -1.421875 24.3125 -1.421875 
Q 15.921875 -1.421875 10.953125 3.296875 
Q 6 8.015625 6 15.921875 
Q 6 25.140625 12.171875 29.828125 
Q 18.359375 34.515625 30.609375 34.515625 
L 43.21875 34.515625 
L 43.21875 35.40625 
Q 43.21875 41.609375 39.140625 45 
Q 35.0625 48.390625 27.6875 48.390625 
Q 23 48.390625 18.546875 47.265625 
Q 14.109375 46.140625 10.015625 43.890625 
L 10.015625 52.203125 
Q 14.9375 54.109375 19.578125 55.046875 
Q 24.21875 56 28.609375 56 
Q 40.484375 56 46.34375 49.84375 
Q 52.203125 43.703125 52.203125 31.203125 
z
" id="DejaVuSans-97"/>
      <path d="M 9.421875 54.6875 
L 18.40625 54.6875 
L 18.40625 0 
L 9.421875 0 
z
M 9.421875 75.984375 
L 18.40625 75.984375 
L 18.40625 64.59375 
L 9.421875 64.59375 
z
" id="DejaVuSans-105"/>
      <path d="M 54.890625 33.015625 
L 54.890625 0 
L 45.90625 0 
L 45.90625 32.71875 
Q 45.90625 40.484375 42.875 44.328125 
Q 39.84375 48.1875 33.796875 48.1875 
Q 26.515625 48.1875 22.3125 43.546875 
Q 18.109375 38.921875 18.109375 30.90625 
L 18.109375 0 
L 9.078125 0 
L 9.078125 54.6875 
L 18.109375 54.6875 
L 18.109375 46.1875 
Q 21.34375 51.125 25.703125 53.5625 
Q 30.078125 56 35.796875 56 
Q 45.21875 56 50.046875 50.171875 
Q 54.890625 44.34375 54.890625 33.015625 
z
" id="DejaVuSans-110"/>
      <path id="DejaVuSans-32"/>
      <path d="M 56.203125 29.59375 
L 56.203125 25.203125 
L 14.890625 25.203125 
Q 15.484375 15.921875 20.484375 11.0625 
Q 25.484375 6.203125 34.421875 6.203125 
Q 39.59375 6.203125 44.453125 7.46875 
Q 49.3125 8.734375 54.109375 11.28125 
L 54.109375 2.78125 
Q 49.265625 0.734375 44.1875 -0.34375 
Q 39.109375 -1.421875 33.890625 -1.421875 
Q 20.796875 -1.421875 13.15625 6.1875 
Q 5.515625 13.8125 5.515625 26.8125 
Q 5.515625 40.234375 12.765625 48.109375 
Q 20.015625 56 32.328125 56 
Q 43.359375 56 49.78125 48.890625 
Q 56.203125 41.796875 56.203125 29.59375 
z
M 47.21875 32.234375 
Q 47.125 39.59375 43.09375 43.984375 
Q 39.0625 48.390625 32.421875 48.390625 
Q 24.90625 48.390625 20.390625 44.140625 
Q 15.875 39.890625 15.1875 32.171875 
z
" id="DejaVuSans-101"/>
      <path d="M 11.71875 12.40625 
L 22.015625 12.40625 
L 22.015625 4 
L 14.015625 -11.625 
L 7.71875 -11.625 
L 11.71875 4 
z
" id="DejaVuSans-44"/>
      <path d="M 54.890625 54.6875 
L 35.109375 28.078125 
L 55.90625 0 
L 45.3125 0 
L 29.390625 21.484375 
L 13.484375 0 
L 2.875 0 
L 24.125 28.609375 
L 4.6875 54.6875 
L 15.28125 54.6875 
L 29.78125 35.203125 
L 44.28125 54.6875 
z
" id="DejaVuSans-120"/>
      <path d="M 48.78125 52.59375 
L 48.78125 44.1875 
Q 44.96875 46.296875 41.140625 47.34375 
Q 37.3125 48.390625 33.40625 48.390625 
Q 24.65625 48.390625 19.8125 42.84375 
Q 14.984375 37.3125 14.984375 27.296875 
Q 14.984375 17.28125 19.8125 11.734375 
Q 24.65625 6.203125 33.40625 6.203125 
Q 37.3125 6.203125 41.140625 7.25 
Q 44.96875 8.296875 48.78125 10.40625 
L 48.78125 2.09375 
Q 45.015625 0.34375 40.984375 -0.53125 
Q 36.96875 -1.421875 32.421875 -1.421875 
Q 20.0625 -1.421875 12.78125 6.34375 
Q 5.515625 14.109375 5.515625 27.296875 
Q 5.515625 40.671875 12.859375 48.328125 
Q 20.21875 56 33.015625 56 
Q 37.15625 56 41.109375 55.140625 
Q 45.0625 54.296875 48.78125 52.59375 
z
" id="DejaVuSans-99"/>
      <path d="M 45.40625 46.390625 
L 45.40625 75.984375 
L 54.390625 75.984375 
L 54.390625 0 
L 45.40625 0 
L 45.40625 8.203125 
Q 42.578125 3.328125 38.25 0.953125 
Q 33.9375 -1.421875 27.875 -1.421875 
Q 17.96875 -1.421875 11.734375 6.484375 
Q 5.515625 14.40625 5.515625 27.296875 
Q 5.515625 40.1875 11.734375 48.09375 
Q 17.96875 56 27.875 56 
Q 33.9375 56 38.25 53.625 
Q 42.578125 51.265625 45.40625 46.390625 
z
M 14.796875 27.296875 
Q 14.796875 17.390625 18.875 11.75 
Q 22.953125 6.109375 30.078125 6.109375 
Q 37.203125 6.109375 41.296875 11.75 
Q 45.40625 17.390625 45.40625 27.296875 
Q 45.40625 37.203125 41.296875 42.84375 
Q 37.203125 48.484375 30.078125 48.484375 
Q 22.953125 48.484375 18.875 42.84375 
Q 14.796875 37.203125 14.796875 27.296875 
z
" id="DejaVuSans-100"/>
      <path d="M 44.28125 53.078125 
L 44.28125 44.578125 
Q 40.484375 46.53125 36.375 47.5 
Q 32.28125 48.484375 27.875 48.484375 
Q 21.1875 48.484375 17.84375 46.4375 
Q 14.5 44.390625 14.5 40.28125 
Q 14.5 37.15625 16.890625 35.375 
Q 19.28125 33.59375 26.515625 31.984375 
L 29.59375 31.296875 
Q 39.15625 29.25 43.1875 25.515625 
Q 47.21875 21.78125 47.21875 15.09375 
Q 47.21875 7.46875 41.1875 3.015625 
Q 35.15625 -1.421875 24.609375 -1.421875 
Q 20.21875 -1.421875 15.453125 -0.5625 
Q 10.6875 0.296875 5.421875 2 
L 5.421875 11.28125 
Q 10.40625 8.6875 15.234375 7.390625 
Q 20.0625 6.109375 24.8125 6.109375 
Q 31.15625 6.109375 34.5625 8.28125 
Q 37.984375 10.453125 37.984375 14.40625 
Q 37.984375 18.0625 35.515625 20.015625 
Q 33.0625 21.96875 24.703125 23.78125 
L 21.578125 24.515625 
Q 13.234375 26.265625 9.515625 29.90625 
Q 5.8125 33.546875 5.8125 39.890625 
Q 5.8125 47.609375 11.28125 51.796875 
Q 16.75 56 26.8125 56 
Q 31.78125 56 36.171875 55.265625 
Q 40.578125 54.546875 44.28125 53.078125 
z
" id="DejaVuSans-115"/>
     </defs>
     <g transform="translate(102.007031 383.234687)scale(0.1 -0.1)">
      <use xlink:href="#DejaVuSans-67"/>
      <use x="69.824219" xlink:href="#DejaVuSans-111"/>
      <use x="131.005859" xlink:href="#DejaVuSans-109"/>
      <use x="228.417969" xlink:href="#DejaVuSans-112"/>
      <use x="291.894531" xlink:href="#DejaVuSans-117"/>
      <use x="355.273438" xlink:href="#DejaVuSans-116"/>
      <use x="394.482422" xlink:href="#DejaVuSans-97"/>
      <use x="455.761719" xlink:href="#DejaVuSans-116"/>
      <use x="494.970703" xlink:href="#DejaVuSans-105"/>
      <use x="522.753906" xlink:href="#DejaVuSans-111"/>
      <use x="583.935547" xlink:href="#DejaVuSans-110"/>
      <use x="647.314453" xlink:href="#DejaVuSans-32"/>
      <use x="679.101562" xlink:href="#DejaVuSans-116"/>
      <use x="718.310547" xlink:href="#DejaVuSans-105"/>
      <use x="746.09375" xlink:href="#DejaVuSans-109"/>
      <use x="843.505859" xlink:href="#DejaVuSans-101"/>
      <use x="905.029297" xlink:href="#DejaVuSans-44"/>
      <use x="936.816406" xlink:href="#DejaVuSans-32"/>
      <use x="968.603516" xlink:href="#DejaVuSans-105"/>
      <use x="996.386719" xlink:href="#DejaVuSans-110"/>
      <use x="1059.765625" xlink:href="#DejaVuSans-32"/>
      <use x="1091.552734" xlink:href="#DejaVuSans-101"/>
      <use x="1153.060547" xlink:href="#DejaVuSans-120"/>
      <use x="1212.240234" xlink:href="#DejaVuSans-112"/>
      <use x="1275.716797" xlink:href="#DejaVuSans-101"/>
      <use x="1337.240234" xlink:href="#DejaVuSans-99"/>
      <use x="1392.220703" xlink:href="#DejaVuSans-116"/>
      <use x="1431.429688" xlink:href="#DejaVuSans-101"/>
      <use x="1492.953125" xlink:href="#DejaVuSans-100"/>
      <use x="1556.429688" xlink:href="#DejaVuSans-32"/>
      <use x="1588.216797" xlink:href="#DejaVuSans-117"/>
      <use x="1651.595703" xlink:href="#DejaVuSans-112"/>
      <use x="1715.072266" xlink:href="#DejaVuSans-100"/>
      <use x="1778.548828" xlink:href="#DejaVuSans-97"/>
      <use x="1839.828125" xlink:href="#DejaVuSans-116"/>
      <use x="1879.037109" xlink:href="#DejaVuSans-101"/>
      <use x="1940.560547" xlink:href="#DejaVuSans-115"/>
     </g>
    </g>
   </g>
   <g id="matplotlib.axis_2">
    <g id="ytick_1">
     <g id="line2d_6">
      <defs>
       <path d="M 0 0 
L -3.5 0 
" id="m2d8032b280" style="stroke:#000000;stroke-width:0.8;"/>
      </defs>
      <g>
       <use style="stroke:#000000;stroke-width:0.8;" x="34.240625" xlink:href="#m2d8032b280" y="330.172745"/>
      </g>
     </g>
     <g id="text_7">
      <!-- 0 -->
      <g transform="translate(20.878125 333.971964)scale(0.1 -0.1)">
       <use xlink:href="#DejaVuSans-48"/>
      </g>
     </g>
    </g>
    <g id="ytick_2">
     <g id="line2d_7">
      <g>
       <use style="stroke:#000000;stroke-width:0.8;" x="34.240625" xlink:href="#m2d8032b280" y="289.127424"/>
      </g>
     </g>
     <g id="text_8">
      <!-- 1 -->
      <g transform="translate(20.878125 292.926643)scale(0.1 -0.1)">
       <use xlink:href="#DejaVuSans-49"/>
      </g>
     </g>
    </g>
    <g id="ytick_3">
     <g id="line2d_8">
      <g>
       <use style="stroke:#000000;stroke-width:0.8;" x="34.240625" xlink:href="#m2d8032b280" y="248.082103"/>
      </g>
     </g>
     <g id="text_9">
      <!-- 2 -->
      <g transform="translate(20.878125 251.881321)scale(0.1 -0.1)">
       <use xlink:href="#DejaVuSans-50"/>
      </g>
     </g>
    </g>
    <g id="ytick_4">
     <g id="line2d_9">
      <g>
       <use style="stroke:#000000;stroke-width:0.8;" x="34.240625" xlink:href="#m2d8032b280" y="207.036781"/>
      </g>
     </g>
     <g id="text_10">
      <!-- 3 -->
      <defs>
       <path d="M 40.578125 39.3125 
Q 47.65625 37.796875 51.625 33 
Q 55.609375 28.21875 55.609375 21.1875 
Q 55.609375 10.40625 48.1875 4.484375 
Q 40.765625 -1.421875 27.09375 -1.421875 
Q 22.515625 -1.421875 17.65625 -0.515625 
Q 12.796875 0.390625 7.625 2.203125 
L 7.625 11.71875 
Q 11.71875 9.328125 16.59375 8.109375 
Q 21.484375 6.890625 26.8125 6.890625 
Q 36.078125 6.890625 40.9375 10.546875 
Q 45.796875 14.203125 45.796875 21.1875 
Q 45.796875 27.640625 41.28125 31.265625 
Q 36.765625 34.90625 28.71875 34.90625 
L 20.21875 34.90625 
L 20.21875 43.015625 
L 29.109375 43.015625 
Q 36.375 43.015625 40.234375 45.921875 
Q 44.09375 48.828125 44.09375 54.296875 
Q 44.09375 59.90625 40.109375 62.90625 
Q 36.140625 65.921875 28.71875 65.921875 
Q 24.65625 65.921875 20.015625 65.03125 
Q 15.375 64.15625 9.8125 62.3125 
L 9.8125 71.09375 
Q 15.4375 72.65625 20.34375 73.4375 
Q 25.25 74.21875 29.59375 74.21875 
Q 40.828125 74.21875 47.359375 69.109375 
Q 53.90625 64.015625 53.90625 55.328125 
Q 53.90625 49.265625 50.4375 45.09375 
Q 46.96875 40.921875 40.578125 39.3125 
z
" id="DejaVuSans-51"/>
      </defs>
      <g transform="translate(20.878125 210.836)scale(0.1 -0.1)">
       <use xlink:href="#DejaVuSans-51"/>
      </g>
     </g>
    </g>
    <g id="ytick_5">
     <g id="line2d_10">
      <g>
       <use style="stroke:#000000;stroke-width:0.8;" x="34.240625" xlink:href="#m2d8032b280" y="165.99146"/>
      </g>
     </g>
     <g id="text_11">
      <!-- 4 -->
      <defs>
       <path d="M 37.796875 64.3125 
L 12.890625 25.390625 
L 37.796875 25.390625 
z
M 35.203125 72.90625 
L 47.609375 72.90625 
L 47.609375 25.390625 
L 58.015625 25.390625 
L 58.015625 17.1875 
L 47.609375 17.1875 
L 47.609375 0 
L 37.796875 0 
L 37.796875 17.1875 
L 4.890625 17.1875 
L 4.890625 26.703125 
z
" id="DejaVuSans-52"/>
      </defs>
      <g transform="translate(20.878125 169.790679)scale(0.1 -0.1)">
       <use xlink:href="#DejaVuSans-52"/>
      </g>
     </g>
    </g>
    <g id="ytick_6">
     <g id="line2d_11">
      <g>
       <use style="stroke:#000000;stroke-width:0.8;" x="34.240625" xlink:href="#m2d8032b280" y="124.946139"/>
      </g>
     </g>
     <g id="text_12">
      <!-- 5 -->
      <g transform="translate(20.878125 128.745358)scale(0.1 -0.1)">
       <use xlink:href="#DejaVuSans-53"/>
      </g>
     </g>
    </g>
    <g id="ytick_7">
     <g id="line2d_12">
      <g>
       <use style="stroke:#000000;stroke-width:0.8;" x="34.240625" xlink:href="#m2d8032b280" y="83.900818"/>
      </g>
     </g>
     <g id="text_13">
      <!-- 6 -->
      <defs>
       <path d="M 33.015625 40.375 
Q 26.375 40.375 22.484375 35.828125 
Q 18.609375 31.296875 18.609375 23.390625 
Q 18.609375 15.53125 22.484375 10.953125 
Q 26.375 6.390625 33.015625 6.390625 
Q 39.65625 6.390625 43.53125 10.953125 
Q 47.40625 15.53125 47.40625 23.390625 
Q 47.40625 31.296875 43.53125 35.828125 
Q 39.65625 40.375 33.015625 40.375 
z
M 52.59375 71.296875 
L 52.59375 62.3125 
Q 48.875 64.0625 45.09375 64.984375 
Q 41.3125 65.921875 37.59375 65.921875 
Q 27.828125 65.921875 22.671875 59.328125 
Q 17.53125 52.734375 16.796875 39.40625 
Q 19.671875 43.65625 24.015625 45.921875 
Q 28.375 48.1875 33.59375 48.1875 
Q 44.578125 48.1875 50.953125 41.515625 
Q 57.328125 34.859375 57.328125 23.390625 
Q 57.328125 12.15625 50.6875 5.359375 
Q 44.046875 -1.421875 33.015625 -1.421875 
Q 20.359375 -1.421875 13.671875 8.265625 
Q 6.984375 17.96875 6.984375 36.375 
Q 6.984375 53.65625 15.1875 63.9375 
Q 23.390625 74.21875 37.203125 74.21875 
Q 40.921875 74.21875 44.703125 73.484375 
Q 48.484375 72.75 52.59375 71.296875 
z
" id="DejaVuSans-54"/>
      </defs>
      <g transform="translate(20.878125 87.700037)scale(0.1 -0.1)">
       <use xlink:href="#DejaVuSans-54"/>
      </g>
     </g>
    </g>
    <g id="ytick_8">
     <g id="line2d_13">
      <g>
       <use style="stroke:#000000;stroke-width:0.8;" x="34.240625" xlink:href="#m2d8032b280" y="42.855497"/>
      </g>
     </g>
     <g id="text_14">
      <!-- 7 -->
      <defs>
       <path d="M 8.203125 72.90625 
L 55.078125 72.90625 
L 55.078125 68.703125 
L 28.609375 0 
L 18.3125 0 
L 43.21875 64.59375 
L 8.203125 64.59375 
z
" id="DejaVuSans-55"/>
      </defs>
      <g transform="translate(20.878125 46.654715)scale(0.1 -0.1)">
       <use xlink:href="#DejaVuSans-55"/>
      </g>
     </g>
    </g>
    <g id="text_15">
     <!-- Value of start state under greedy policy -->
     <defs>
      <path d="M 28.609375 0 
L 0.78125 72.90625 
L 11.078125 72.90625 
L 34.1875 11.53125 
L 57.328125 72.90625 
L 67.578125 72.90625 
L 39.796875 0 
z
" id="DejaVuSans-86"/>
      <path d="M 9.421875 75.984375 
L 18.40625 75.984375 
L 18.40625 0 
L 9.421875 0 
z
" id="DejaVuSans-108"/>
      <path d="M 37.109375 75.984375 
L 37.109375 68.5 
L 28.515625 68.5 
Q 23.6875 68.5 21.796875 66.546875 
Q 19.921875 64.59375 19.921875 59.515625 
L 19.921875 54.6875 
L 34.71875 54.6875 
L 34.71875 47.703125 
L 19.921875 47.703125 
L 19.921875 0 
L 10.890625 0 
L 10.890625 47.703125 
L 2.296875 47.703125 
L 2.296875 54.6875 
L 10.890625 54.6875 
L 10.890625 58.5 
Q 10.890625 67.625 15.140625 71.796875 
Q 19.390625 75.984375 28.609375 75.984375 
z
" id="DejaVuSans-102"/>
      <path d="M 41.109375 46.296875 
Q 39.59375 47.171875 37.8125 47.578125 
Q 36.03125 48 33.890625 48 
Q 26.265625 48 22.1875 43.046875 
Q 18.109375 38.09375 18.109375 28.8125 
L 18.109375 0 
L 9.078125 0 
L 9.078125 54.6875 
L 18.109375 54.6875 
L 18.109375 46.1875 
Q 20.953125 51.171875 25.484375 53.578125 
Q 30.03125 56 36.53125 56 
Q 37.453125 56 38.578125 55.875 
Q 39.703125 55.765625 41.0625 55.515625 
z
" id="DejaVuSans-114"/>
      <path d="M 45.40625 27.984375 
Q 45.40625 37.75 41.375 43.109375 
Q 37.359375 48.484375 30.078125 48.484375 
Q 22.859375 48.484375 18.828125 43.109375 
Q 14.796875 37.75 14.796875 27.984375 
Q 14.796875 18.265625 18.828125 12.890625 
Q 22.859375 7.515625 30.078125 7.515625 
Q 37.359375 7.515625 41.375 12.890625 
Q 45.40625 18.265625 45.40625 27.984375 
z
M 54.390625 6.78125 
Q 54.390625 -7.171875 48.1875 -13.984375 
Q 42 -20.796875 29.203125 -20.796875 
Q 24.46875 -20.796875 20.265625 -20.09375 
Q 16.0625 -19.390625 12.109375 -17.921875 
L 12.109375 -9.1875 
Q 16.0625 -11.328125 19.921875 -12.34375 
Q 23.78125 -13.375 27.78125 -13.375 
Q 36.625 -13.375 41.015625 -8.765625 
Q 45.40625 -4.15625 45.40625 5.171875 
L 45.40625 9.625 
Q 42.625 4.78125 38.28125 2.390625 
Q 33.9375 0 27.875 0 
Q 17.828125 0 11.671875 7.65625 
Q 5.515625 15.328125 5.515625 27.984375 
Q 5.515625 40.671875 11.671875 48.328125 
Q 17.828125 56 27.875 56 
Q 33.9375 56 38.28125 53.609375 
Q 42.625 51.21875 45.40625 46.390625 
L 45.40625 54.6875 
L 54.390625 54.6875 
z
" id="DejaVuSans-103"/>
      <path d="M 32.171875 -5.078125 
Q 28.375 -14.84375 24.75 -17.8125 
Q 21.140625 -20.796875 15.09375 -20.796875 
L 7.90625 -20.796875 
L 7.90625 -13.28125 
L 13.1875 -13.28125 
Q 16.890625 -13.28125 18.9375 -11.515625 
Q 21 -9.765625 23.484375 -3.21875 
L 25.09375 0.875 
L 2.984375 54.6875 
L 12.5 54.6875 
L 29.59375 11.921875 
L 46.6875 54.6875 
L 56.203125 54.6875 
z
" id="DejaVuSans-121"/>
     </defs>
     <g transform="translate(14.798438 288.294375)rotate(-90)scale(0.1 -0.1)">
      <use xlink:href="#DejaVuSans-86"/>
      <use x="68.298828" xlink:href="#DejaVuSans-97"/>
      <use x="129.578125" xlink:href="#DejaVuSans-108"/>
      <use x="157.361328" xlink:href="#DejaVuSans-117"/>
      <use x="220.740234" xlink:href="#DejaVuSans-101"/>
      <use x="282.263672" xlink:href="#DejaVuSans-32"/>
      <use x="314.050781" xlink:href="#DejaVuSans-111"/>
      <use x="375.232422" xlink:href="#DejaVuSans-102"/>
      <use x="410.4375" xlink:href="#DejaVuSans-32"/>
      <use x="442.224609" xlink:href="#DejaVuSans-115"/>
      <use x="494.324219" xlink:href="#DejaVuSans-116"/>
      <use x="533.533203" xlink:href="#DejaVuSans-97"/>
      <use x="594.8125" xlink:href="#DejaVuSans-114"/>
      <use x="635.925781" xlink:href="#DejaVuSans-116"/>
      <use x="675.134766" xlink:href="#DejaVuSans-32"/>
      <use x="706.921875" xlink:href="#DejaVuSans-115"/>
      <use x="759.021484" xlink:href="#DejaVuSans-116"/>
      <use x="798.230469" xlink:href="#DejaVuSans-97"/>
      <use x="859.509766" xlink:href="#DejaVuSans-116"/>
      <use x="898.71875" xlink:href="#DejaVuSans-101"/>
      <use x="960.242188" xlink:href="#DejaVuSans-32"/>
      <use x="992.029297" xlink:href="#DejaVuSans-117"/>
      <use x="1055.408203" xlink:href="#DejaVuSans-110"/>
      <use x="1118.787109" xlink:href="#DejaVuSans-100"/>
      <use x="1182.263672" xlink:href="#DejaVuSans-101"/>
      <use x="1243.787109" xlink:href="#DejaVuSans-114"/>
      <use x="1284.900391" xlink:href="#DejaVuSans-32"/>
      <use x="1316.6875" xlink:href="#DejaVuSans-103"/>
      <use x="1380.164062" xlink:href="#DejaVuSans-114"/>
      <use x="1421.246094" xlink:href="#DejaVuSans-101"/>
      <use x="1482.769531" xlink:href="#DejaVuSans-101"/>
      <use x="1544.292969" xlink:href="#DejaVuSans-100"/>
      <use x="1607.769531" xlink:href="#DejaVuSans-121"/>
      <use x="1666.949219" xlink:href="#DejaVuSans-32"/>
      <use x="1698.736328" xlink:href="#DejaVuSans-112"/>
      <use x="1762.212891" xlink:href="#DejaVuSans-111"/>
      <use x="1823.394531" xlink:href="#DejaVuSans-108"/>
      <use x="1851.177734" xlink:href="#DejaVuSans-105"/>
      <use x="1878.960938" xlink:href="#DejaVuSans-99"/>
      <use x="1933.941406" xlink:href="#DejaVuSans-121"/>
     </g>
    </g>
   </g>
   <g id="line2d_14">
    <path clip-path="url(#p5ba6914164)" d="M 34.240625 311.016954 
L 40.936625 142.036965 
L 47.632625 111.816213 
L 54.328625 96.646798 
L 61.024625 92.82624 
L 67.720625 92.858749 
L 74.416625 86.505488 
L 81.112625 77.210975 
L 87.808625 75.596341 
L 94.504625 72.157234 
L 101.200625 69.409929 
L 107.896625 70.382815 
L 114.592625 73.374851 
L 121.288625 69.059268 
L 127.984625 61.133974 
L 134.680625 65.216344 
L 141.376625 60.571937 
L 148.072625 60.035487 
L 154.768625 56.21411 
L 161.464625 57.612379 
L 168.160625 50.203327 
L 174.856625 55.795654 
L 181.552625 54.22115 
L 188.248625 55.863261 
L 194.944625 52.878955 
L 201.640625 52.411345 
L 208.336625 50.53576 
L 215.032625 54.808369 
L 221.728625 52.827708 
L 228.424625 56.268024 
L 235.120625 51.834827 
L 241.816625 52.784355 
L 248.512625 46.946311 
L 255.208625 45.028779 
L 261.904625 49.927471 
L 268.600625 47.278196 
L 275.296625 47.962581 
L 281.992625 48.628977 
L 288.688625 52.425975 
L 295.384625 43.318352 
L 302.080625 40.986198 
L 308.776625 43.432111 
L 315.472625 38.180731 
L 322.168625 38.268623 
L 328.864625 39.4092 
L 335.560625 44.960779 
L 342.256625 37.57128 
L 348.952625 39.70167 
L 355.648625 37.438125 
L 362.344625 38.586238 
L 369.040625 39.144714 
" style="fill:none;stroke:#008000;stroke-linecap:square;stroke-width:1.5;"/>
   </g>
   <g id="line2d_15">
    <path clip-path="url(#p5ba6914164)" d="M 34.240625 333.261334 
L 40.936625 284.791623 
L 47.632625 278.991271 
L 54.328625 271.70851 
L 61.024625 269.155595 
L 67.720625 268.160931 
L 74.416625 265.017145 
L 81.112625 263.944972 
L 87.808625 259.622533 
L 94.504625 258.821574 
L 101.200625 257.52701 
L 107.896625 252.56459 
L 114.592625 253.623961 
L 121.288625 251.688977 
L 127.984625 251.26338 
L 134.680625 251.476165 
L 141.376625 246.485838 
L 148.072625 247.359054 
L 154.768625 244.501623 
L 161.464625 244.173029 
L 168.160625 244.286041 
L 174.856625 243.006162 
L 181.552625 242.003311 
L 188.248625 242.654457 
L 194.944625 238.778101 
L 201.640625 239.15921 
L 208.336625 238.269528 
L 215.032625 238.330126 
L 221.728625 235.211702 
L 228.424625 234.375762 
L 235.120625 236.098815 
L 241.816625 233.803546 
L 248.512625 231.265917 
L 255.208625 233.234155 
L 261.904625 229.984411 
L 268.600625 232.027589 
L 275.296625 231.321783 
L 281.992625 230.433681 
L 288.688625 228.124444 
L 295.384625 229.414476 
L 302.080625 228.602526 
L 308.776625 226.814893 
L 315.472625 225.346363 
L 322.168625 226.598332 
L 328.864625 227.437488 
L 335.560625 225.8948 
L 342.256625 224.734549 
L 348.952625 222.995863 
L 355.648625 222.330134 
L 362.344625 222.914358 
L 369.040625 221.636719 
" style="fill:none;stroke:#b22222;stroke-linecap:square;stroke-width:1.5;"/>
   </g>
   <g id="line2d_16">
    <path clip-path="url(#p5ba6914164)" d="M 34.240625 327.362168 
L 40.936625 313.41359 
L 47.632625 311.00321 
L 54.328625 308.694348 
L 61.024625 306.659059 
L 67.720625 306.206305 
L 74.416625 304.676269 
L 81.112625 304.30792 
L 87.808625 304.493619 
L 94.504625 301.884333 
L 101.200625 300.530921 
L 107.896625 298.232455 
L 114.592625 297.774998 
L 121.288625 297.734432 
L 127.984625 296.826148 
L 134.680625 297.983034 
L 141.376625 295.414331 
L 148.072625 296.03022 
L 154.768625 295.181053 
L 161.464625 294.947751 
L 168.160625 292.119443 
L 174.856625 290.97817 
L 181.552625 292.991709 
L 188.248625 292.323966 
L 194.944625 292.342593 
L 201.640625 290.180414 
L 208.336625 290.411981 
L 215.032625 287.388279 
L 221.728625 287.87793 
L 228.424625 288.859507 
L 235.120625 288.507157 
L 241.816625 286.203885 
L 248.512625 285.750035 
L 255.208625 283.967798 
L 261.904625 285.774038 
L 268.600625 283.751122 
L 275.296625 283.490554 
L 281.992625 283.88428 
L 288.688625 282.227083 
L 295.384625 281.533124 
L 302.080625 283.479769 
L 308.776625 282.724937 
L 315.472625 282.406993 
L 322.168625 279.59152 
L 328.864625 279.18526 
L 335.560625 280.521639 
L 342.256625 281.252104 
L 348.952625 278.969126 
L 355.648625 278.522305 
L 362.344625 277.632865 
L 369.040625 279.59167 
" style="fill:none;stroke:#1e90ff;stroke-linecap:square;stroke-width:1.5;"/>
   </g>
   <g id="line2d_17">
    <path clip-path="url(#p5ba6914164)" d="M 34.240625 339.838125 
L 40.936625 298.249759 
L 47.632625 312.881524 
L 54.328625 292.971408 
L 61.024625 291.31357 
L 67.720625 288.4892 
L 74.416625 284.281056 
L 81.112625 282.40426 
L 87.808625 272.319238 
L 94.504625 283.821897 
L 101.200625 280.288458 
L 107.896625 280.872826 
L 114.592625 255.414523 
L 121.288625 249.012966 
L 127.984625 255.64586 
L 134.680625 245.915834 
L 141.376625 243.667111 
L 148.072625 246.314584 
L 154.768625 240.742995 
L 161.464625 236.008611 
L 168.160625 225.380496 
L 174.856625 233.131153 
L 181.552625 223.069577 
L 188.248625 213.838869 
L 194.944625 222.921421 
L 201.640625 215.865423 
L 208.336625 204.961308 
L 215.032625 209.841924 
L 221.728625 201.357744 
L 228.424625 186.456453 
L 235.120625 178.984264 
L 241.816625 183.321955 
L 248.512625 179.716396 
L 255.208625 172.067894 
L 261.904625 158.071731 
L 268.600625 163.437153 
L 275.296625 148.730596 
L 281.992625 152.751164 
L 288.688625 141.939621 
L 295.384625 139.722224 
L 302.080625 134.6486 
L 308.776625 130.826525 
L 315.472625 125.761898 
L 322.168625 121.725693 
L 328.864625 115.958512 
L 335.560625 110.718717 
L 342.256625 110.379883 
L 348.952625 103.170811 
L 355.648625 97.900224 
L 362.344625 94.076101 
L 369.040625 90.527026 
" style="fill:none;stroke:#32cd32;stroke-linecap:square;stroke-width:1.5;"/>
   </g>
   <g id="line2d_18">
    <path clip-path="url(#p5ba6914164)" d="M 34.240625 327.039254 
L 40.936625 313.488648 
L 47.632625 309.0133 
L 54.328625 303.550659 
L 61.024625 307.496235 
L 67.720625 302.822492 
L 74.416625 299.013465 
L 81.112625 301.560293 
L 87.808625 297.563926 
L 94.504625 292.577516 
L 101.200625 294.694818 
L 107.896625 290.380638 
L 114.592625 287.074417 
L 121.288625 284.543503 
L 127.984625 281.805076 
L 134.680625 279.991461 
L 141.376625 280.84879 
L 148.072625 274.481449 
L 154.768625 274.746648 
L 161.464625 271.815226 
L 168.160625 269.210602 
L 174.856625 268.291703 
L 181.552625 265.003452 
L 188.248625 260.778865 
L 194.944625 257.8649 
L 201.640625 259.367665 
L 208.336625 255.70111 
L 215.032625 251.960013 
L 221.728625 251.268101 
L 228.424625 249.186897 
L 235.120625 245.873133 
L 241.816625 243.72022 
L 248.512625 242.117701 
L 255.208625 236.829511 
L 261.904625 237.001278 
L 268.600625 237.510357 
L 275.296625 233.722141 
L 281.992625 230.896082 
L 288.688625 228.330515 
L 295.384625 225.674697 
L 302.080625 223.451177 
L 308.776625 222.305353 
L 315.472625 220.978966 
L 322.168625 214.393516 
L 328.864625 215.07645 
L 335.560625 209.981105 
L 342.256625 209.649494 
L 348.952625 207.61969 
L 355.648625 204.336571 
L 362.344625 200.977712 
L 369.040625 202.324361 
" style="fill:none;stroke:#f08080;stroke-linecap:square;stroke-width:1.5;"/>
   </g>
   <g id="line2d_19">
    <path clip-path="url(#p5ba6914164)" d="M 34.240625 328.512754 
L 40.936625 320.755084 
L 47.632625 320.764448 
L 54.328625 322.87316 
L 61.024625 319.221926 
L 67.720625 319.378971 
L 74.416625 317.305892 
L 81.112625 316.860191 
L 87.808625 315.743444 
L 94.504625 311.883678 
L 101.200625 311.666904 
L 107.896625 309.992125 
L 114.592625 309.39748 
L 121.288625 309.372675 
L 127.984625 309.102788 
L 134.680625 308.628905 
L 141.376625 305.657025 
L 148.072625 303.358728 
L 154.768625 301.984453 
L 161.464625 302.147459 
L 168.160625 300.851948 
L 174.856625 302.187595 
L 181.552625 298.2832 
L 188.248625 296.115739 
L 194.944625 296.413344 
L 201.640625 294.684032 
L 208.336625 292.734469 
L 215.032625 291.847216 
L 221.728625 292.171577 
L 228.424625 291.086107 
L 235.120625 286.907172 
L 241.816625 286.994092 
L 248.512625 288.116557 
L 255.208625 284.207972 
L 261.904625 283.931479 
L 268.600625 282.748121 
L 275.296625 280.627789 
L 281.992625 279.451088 
L 288.688625 277.5133 
L 295.384625 276.375866 
L 302.080625 275.864608 
L 308.776625 274.490655 
L 315.472625 272.940086 
L 322.168625 271.318624 
L 328.864625 268.520955 
L 335.560625 271.495018 
L 342.256625 269.024404 
L 348.952625 268.18252 
L 355.648625 265.152359 
L 362.344625 265.009877 
L 369.040625 262.995614 
" style="fill:none;stroke:#87cefa;stroke-linecap:square;stroke-width:1.5;"/>
   </g>
   <g id="patch_3">
    <path d="M 34.240625 354.958125 
L 34.240625 22.318125 
" style="fill:none;stroke:#000000;stroke-linecap:square;stroke-linejoin:miter;stroke-width:0.8;"/>
   </g>
   <g id="patch_4">
    <path d="M 369.040625 354.958125 
L 369.040625 22.318125 
" style="fill:none;stroke:#000000;stroke-linecap:square;stroke-linejoin:miter;stroke-width:0.8;"/>
   </g>
   <g id="patch_5">
    <path d="M 34.240625 354.958125 
L 369.040625 354.958125 
" style="fill:none;stroke:#000000;stroke-linecap:square;stroke-linejoin:miter;stroke-width:0.8;"/>
   </g>
   <g id="patch_6">
    <path d="M 34.240625 22.318125 
L 369.040625 22.318125 
" style="fill:none;stroke:#000000;stroke-linecap:square;stroke-linejoin:miter;stroke-width:0.8;"/>
   </g>
   <g id="text_16">
    <!-- 10000 STATES -->
    <defs>
     <path d="M 53.515625 70.515625 
L 53.515625 60.890625 
Q 47.90625 63.578125 42.921875 64.890625 
Q 37.9375 66.21875 33.296875 66.21875 
Q 25.25 66.21875 20.875 63.09375 
Q 16.5 59.96875 16.5 54.203125 
Q 16.5 49.359375 19.40625 46.890625 
Q 22.3125 44.4375 30.421875 42.921875 
L 36.375 41.703125 
Q 47.40625 39.59375 52.65625 34.296875 
Q 57.90625 29 57.90625 20.125 
Q 57.90625 9.515625 50.796875 4.046875 
Q 43.703125 -1.421875 29.984375 -1.421875 
Q 24.8125 -1.421875 18.96875 -0.25 
Q 13.140625 0.921875 6.890625 3.21875 
L 6.890625 13.375 
Q 12.890625 10.015625 18.65625 8.296875 
Q 24.421875 6.59375 29.984375 6.59375 
Q 38.421875 6.59375 43.015625 9.90625 
Q 47.609375 13.234375 47.609375 19.390625 
Q 47.609375 24.75 44.3125 27.78125 
Q 41.015625 30.8125 33.5 32.328125 
L 27.484375 33.5 
Q 16.453125 35.6875 11.515625 40.375 
Q 6.59375 45.0625 6.59375 53.421875 
Q 6.59375 63.09375 13.40625 68.65625 
Q 20.21875 74.21875 32.171875 74.21875 
Q 37.3125 74.21875 42.625 73.28125 
Q 47.953125 72.359375 53.515625 70.515625 
z
" id="DejaVuSans-83"/>
     <path d="M -0.296875 72.90625 
L 61.375 72.90625 
L 61.375 64.59375 
L 35.5 64.59375 
L 35.5 0 
L 25.59375 0 
L 25.59375 64.59375 
L -0.296875 64.59375 
z
" id="DejaVuSans-84"/>
     <path d="M 34.1875 63.1875 
L 20.796875 26.90625 
L 47.609375 26.90625 
z
M 28.609375 72.90625 
L 39.796875 72.90625 
L 67.578125 0 
L 57.328125 0 
L 50.6875 18.703125 
L 17.828125 18.703125 
L 11.1875 0 
L 0.78125 0 
z
" id="DejaVuSans-65"/>
     <path d="M 9.8125 72.90625 
L 55.90625 72.90625 
L 55.90625 64.59375 
L 19.671875 64.59375 
L 19.671875 43.015625 
L 54.390625 43.015625 
L 54.390625 34.71875 
L 19.671875 34.71875 
L 19.671875 8.296875 
L 56.78125 8.296875 
L 56.78125 0 
L 9.8125 0 
z
" id="DejaVuSans-69"/>
    </defs>
    <g transform="translate(157.81625 16.318125)scale(0.12 -0.12)">
     <use xlink:href="#DejaVuSans-49"/>
     <use x="63.623047" xlink:href="#DejaVuSans-48"/>
     <use x="127.246094" xlink:href="#DejaVuSans-48"/>
     <use x="190.869141" xlink:href="#DejaVuSans-48"/>
     <use x="254.492188" xlink:href="#DejaVuSans-48"/>
     <use x="318.115234" xlink:href="#DejaVuSans-32"/>
     <use x="349.902344" xlink:href="#DejaVuSans-83"/>
     <use x="413.378906" xlink:href="#DejaVuSans-84"/>
     <use x="474.353516" xlink:href="#DejaVuSans-65"/>
     <use x="542.652344" xlink:href="#DejaVuSans-84"/>
     <use x="603.736328" xlink:href="#DejaVuSans-69"/>
     <use x="666.919922" xlink:href="#DejaVuSans-83"/>
    </g>
   </g>
   <g id="legend_1">
    <g id="patch_7">
     <path d="M 41.240625 234.1725 
L 158.910938 234.1725 
Q 160.910938 234.1725 160.910938 232.1725 
L 160.910938 145.10375 
Q 160.910938 143.10375 158.910938 143.10375 
L 41.240625 143.10375 
Q 39.240625 143.10375 39.240625 145.10375 
L 39.240625 232.1725 
Q 39.240625 234.1725 41.240625 234.1725 
z
" style="fill:#ffffff;opacity:0.8;stroke:#cccccc;stroke-linejoin:miter;"/>
    </g>
    <g id="line2d_20">
     <path d="M 43.240625 151.202187 
L 63.240625 151.202187 
" style="fill:none;stroke:#008000;stroke-linecap:square;stroke-width:1.5;"/>
    </g>
    <g id="line2d_21"/>
    <g id="text_17">
     <!-- on-policy, b = 1 -->
     <defs>
      <path d="M 4.890625 31.390625 
L 31.203125 31.390625 
L 31.203125 23.390625 
L 4.890625 23.390625 
z
" id="DejaVuSans-45"/>
      <path d="M 48.6875 27.296875 
Q 48.6875 37.203125 44.609375 42.84375 
Q 40.53125 48.484375 33.40625 48.484375 
Q 26.265625 48.484375 22.1875 42.84375 
Q 18.109375 37.203125 18.109375 27.296875 
Q 18.109375 17.390625 22.1875 11.75 
Q 26.265625 6.109375 33.40625 6.109375 
Q 40.53125 6.109375 44.609375 11.75 
Q 48.6875 17.390625 48.6875 27.296875 
z
M 18.109375 46.390625 
Q 20.953125 51.265625 25.265625 53.625 
Q 29.59375 56 35.59375 56 
Q 45.5625 56 51.78125 48.09375 
Q 58.015625 40.1875 58.015625 27.296875 
Q 58.015625 14.40625 51.78125 6.484375 
Q 45.5625 -1.421875 35.59375 -1.421875 
Q 29.59375 -1.421875 25.265625 0.953125 
Q 20.953125 3.328125 18.109375 8.203125 
L 18.109375 0 
L 9.078125 0 
L 9.078125 75.984375 
L 18.109375 75.984375 
z
" id="DejaVuSans-98"/>
      <path d="M 10.59375 45.40625 
L 73.1875 45.40625 
L 73.1875 37.203125 
L 10.59375 37.203125 
z
M 10.59375 25.484375 
L 73.1875 25.484375 
L 73.1875 17.1875 
L 10.59375 17.1875 
z
" id="DejaVuSans-61"/>
     </defs>
     <g transform="translate(71.240625 154.702187)scale(0.1 -0.1)">
      <use xlink:href="#DejaVuSans-111"/>
      <use x="61.181641" xlink:href="#DejaVuSans-110"/>
      <use x="124.560547" xlink:href="#DejaVuSans-45"/>
      <use x="160.644531" xlink:href="#DejaVuSans-112"/>
      <use x="224.121094" xlink:href="#DejaVuSans-111"/>
      <use x="285.302734" xlink:href="#DejaVuSans-108"/>
      <use x="313.085938" xlink:href="#DejaVuSans-105"/>
      <use x="340.869141" xlink:href="#DejaVuSans-99"/>
      <use x="395.849609" xlink:href="#DejaVuSans-121"/>
      <use x="455.029297" xlink:href="#DejaVuSans-44"/>
      <use x="486.816406" xlink:href="#DejaVuSans-32"/>
      <use x="518.603516" xlink:href="#DejaVuSans-98"/>
      <use x="582.080078" xlink:href="#DejaVuSans-32"/>
      <use x="613.867188" xlink:href="#DejaVuSans-61"/>
      <use x="697.65625" xlink:href="#DejaVuSans-32"/>
      <use x="729.443359" xlink:href="#DejaVuSans-49"/>
     </g>
    </g>
    <g id="line2d_22">
     <path d="M 43.240625 165.880312 
L 63.240625 165.880312 
" style="fill:none;stroke:#b22222;stroke-linecap:square;stroke-width:1.5;"/>
    </g>
    <g id="line2d_23"/>
    <g id="text_18">
     <!-- on-policy, b = 3 -->
     <g transform="translate(71.240625 169.380312)scale(0.1 -0.1)">
      <use xlink:href="#DejaVuSans-111"/>
      <use x="61.181641" xlink:href="#DejaVuSans-110"/>
      <use x="124.560547" xlink:href="#DejaVuSans-45"/>
      <use x="160.644531" xlink:href="#DejaVuSans-112"/>
      <use x="224.121094" xlink:href="#DejaVuSans-111"/>
      <use x="285.302734" xlink:href="#DejaVuSans-108"/>
      <use x="313.085938" xlink:href="#DejaVuSans-105"/>
      <use x="340.869141" xlink:href="#DejaVuSans-99"/>
      <use x="395.849609" xlink:href="#DejaVuSans-121"/>
      <use x="455.029297" xlink:href="#DejaVuSans-44"/>
      <use x="486.816406" xlink:href="#DejaVuSans-32"/>
      <use x="518.603516" xlink:href="#DejaVuSans-98"/>
      <use x="582.080078" xlink:href="#DejaVuSans-32"/>
      <use x="613.867188" xlink:href="#DejaVuSans-61"/>
      <use x="697.65625" xlink:href="#DejaVuSans-32"/>
      <use x="729.443359" xlink:href="#DejaVuSans-51"/>
     </g>
    </g>
    <g id="line2d_24">
     <path d="M 43.240625 180.558437 
L 63.240625 180.558437 
" style="fill:none;stroke:#1e90ff;stroke-linecap:square;stroke-width:1.5;"/>
    </g>
    <g id="line2d_25"/>
    <g id="text_19">
     <!-- on-policy, b = 10 -->
     <g transform="translate(71.240625 184.058437)scale(0.1 -0.1)">
      <use xlink:href="#DejaVuSans-111"/>
      <use x="61.181641" xlink:href="#DejaVuSans-110"/>
      <use x="124.560547" xlink:href="#DejaVuSans-45"/>
      <use x="160.644531" xlink:href="#DejaVuSans-112"/>
      <use x="224.121094" xlink:href="#DejaVuSans-111"/>
      <use x="285.302734" xlink:href="#DejaVuSans-108"/>
      <use x="313.085938" xlink:href="#DejaVuSans-105"/>
      <use x="340.869141" xlink:href="#DejaVuSans-99"/>
      <use x="395.849609" xlink:href="#DejaVuSans-121"/>
      <use x="455.029297" xlink:href="#DejaVuSans-44"/>
      <use x="486.816406" xlink:href="#DejaVuSans-32"/>
      <use x="518.603516" xlink:href="#DejaVuSans-98"/>
      <use x="582.080078" xlink:href="#DejaVuSans-32"/>
      <use x="613.867188" xlink:href="#DejaVuSans-61"/>
      <use x="697.65625" xlink:href="#DejaVuSans-32"/>
      <use x="729.443359" xlink:href="#DejaVuSans-49"/>
      <use x="793.066406" xlink:href="#DejaVuSans-48"/>
     </g>
    </g>
    <g id="line2d_26">
     <path d="M 43.240625 195.236562 
L 63.240625 195.236562 
" style="fill:none;stroke:#32cd32;stroke-linecap:square;stroke-width:1.5;"/>
    </g>
    <g id="line2d_27"/>
    <g id="text_20">
     <!-- uniform, b = 1 -->
     <g transform="translate(71.240625 198.736562)scale(0.1 -0.1)">
      <use xlink:href="#DejaVuSans-117"/>
      <use x="63.378906" xlink:href="#DejaVuSans-110"/>
      <use x="126.757812" xlink:href="#DejaVuSans-105"/>
      <use x="154.541016" xlink:href="#DejaVuSans-102"/>
      <use x="189.746094" xlink:href="#DejaVuSans-111"/>
      <use x="250.927734" xlink:href="#DejaVuSans-114"/>
      <use x="292.025391" xlink:href="#DejaVuSans-109"/>
      <use x="389.4375" xlink:href="#DejaVuSans-44"/>
      <use x="421.224609" xlink:href="#DejaVuSans-32"/>
      <use x="453.011719" xlink:href="#DejaVuSans-98"/>
      <use x="516.488281" xlink:href="#DejaVuSans-32"/>
      <use x="548.275391" xlink:href="#DejaVuSans-61"/>
      <use x="632.064453" xlink:href="#DejaVuSans-32"/>
      <use x="663.851562" xlink:href="#DejaVuSans-49"/>
     </g>
    </g>
    <g id="line2d_28">
     <path d="M 43.240625 209.914687 
L 63.240625 209.914687 
" style="fill:none;stroke:#f08080;stroke-linecap:square;stroke-width:1.5;"/>
    </g>
    <g id="line2d_29"/>
    <g id="text_21">
     <!-- uniform, b = 3 -->
     <g transform="translate(71.240625 213.414687)scale(0.1 -0.1)">
      <use xlink:href="#DejaVuSans-117"/>
      <use x="63.378906" xlink:href="#DejaVuSans-110"/>
      <use x="126.757812" xlink:href="#DejaVuSans-105"/>
      <use x="154.541016" xlink:href="#DejaVuSans-102"/>
      <use x="189.746094" xlink:href="#DejaVuSans-111"/>
      <use x="250.927734" xlink:href="#DejaVuSans-114"/>
      <use x="292.025391" xlink:href="#DejaVuSans-109"/>
      <use x="389.4375" xlink:href="#DejaVuSans-44"/>
      <use x="421.224609" xlink:href="#DejaVuSans-32"/>
      <use x="453.011719" xlink:href="#DejaVuSans-98"/>
      <use x="516.488281" xlink:href="#DejaVuSans-32"/>
      <use x="548.275391" xlink:href="#DejaVuSans-61"/>
      <use x="632.064453" xlink:href="#DejaVuSans-32"/>
      <use x="663.851562" xlink:href="#DejaVuSans-51"/>
     </g>
    </g>
    <g id="line2d_30">
     <path d="M 43.240625 224.592812 
L 63.240625 224.592812 
" style="fill:none;stroke:#87cefa;stroke-linecap:square;stroke-width:1.5;"/>
    </g>
    <g id="line2d_31"/>
    <g id="text_22">
     <!-- uniform, b = 10 -->
     <g transform="translate(71.240625 228.092812)scale(0.1 -0.1)">
      <use xlink:href="#DejaVuSans-117"/>
      <use x="63.378906" xlink:href="#DejaVuSans-110"/>
      <use x="126.757812" xlink:href="#DejaVuSans-105"/>
      <use x="154.541016" xlink:href="#DejaVuSans-102"/>
      <use x="189.746094" xlink:href="#DejaVuSans-111"/>
      <use x="250.927734" xlink:href="#DejaVuSans-114"/>
      <use x="292.025391" xlink:href="#DejaVuSans-109"/>
      <use x="389.4375" xlink:href="#DejaVuSans-44"/>
      <use x="421.224609" xlink:href="#DejaVuSans-32"/>
      <use x="453.011719" xlink:href="#DejaVuSans-98"/>
      <use x="516.488281" xlink:href="#DejaVuSans-32"/>
      <use x="548.275391" xlink:href="#DejaVuSans-61"/>
      <use x="632.064453" xlink:href="#DejaVuSans-32"/>
      <use x="663.851562" xlink:href="#DejaVuSans-49"/>
      <use x="727.474609" xlink:href="#DejaVuSans-48"/>
     </g>
    </g>
   </g>
  </g>
 </g>
 <defs>
  <clipPath id="p5ba6914164">
   <rect height="332.64" width="334.8" x="34.240625" y="22.318125"/>
  </clipPath>
 </defs>
</svg>
