<?xml version="1.0" encoding="utf-8" standalone="no"?>
<!DOCTYPE svg PUBLIC "-//W3C//DTD SVG 1.1//EN"
  "http://www.w3.org/Graphics/SVG/1.1/DTD/svg11.dtd">
<!-- Created with matplotlib (https://matplotlib.org/) -->
<svg height="392.514375pt" version="1.1" viewBox="0 0 392.146875 392.514375" width="392.146875pt" xmlns="http://www.w3.org/2000/svg" xmlns:xlink="http://www.w3.org/1999/xlink">
 <defs>
  <style type="text/css">
*{stroke-linecap:butt;stroke-linejoin:round;}
  </style>
 </defs>
 <g id="figure_1">
  <g id="patch_1">
   <path d="M 0 392.514375 
L 392.146875 392.514375 
L 392.146875 0 
L 0 0 
z
" style="fill:#ffffff;"/>
  </g>
  <g id="axes_1">
   <g id="patch_2">
    <path d="M 34.240625 354.958125 
L 369.040625 354.958125 
L 369.040625 22.318125 
L 34.240625 22.318125 
z
" style="fill:#ffffff;"/>
   </g>
   <g id="matplotlib.axis_1">
    <g id="xtick_1">
     <g id="line2d_1">
      <defs>
       <path d="M 0 0 
L 0 3.5 
" id="mfe36a7bcea" style="stroke:#000000;stroke-width:0.8;"/>
      </defs>
      <g>
       <use style="stroke:#000000;stroke-width:0.8;" x="34.240625" xlink:href="#mfe36a7bcea" y="354.958125"/>
      </g>
     </g>
     <g id="text_1">
      <!-- 0 -->
      <defs>
       <path d="M 31.78125 66.40625 
Q 24.171875 66.40625 20.328125 58.90625 
Q 16.5 51.421875 16.5 36.375 
Q 16.5 21.390625 20.328125 13.890625 
Q 24.171875 6.390625 31.78125 6.390625 
Q 39.453125 6.390625 43.28125 13.890625 
Q 47.125 21.390625 47.125 36.375 
Q 47.125 51.421875 43.28125 58.90625 
Q 39.453125 66.40625 31.78125 66.40625 
z
M 31.78125 74.21875 
Q 44.046875 74.21875 50.515625 64.515625 
Q 56.984375 54.828125 56.984375 36.375 
Q 56.984375 17.96875 50.515625 8.265625 
Q 44.046875 -1.421875 31.78125 -1.421875 
Q 19.53125 -1.421875 13.0625 8.265625 
Q 6.59375 17.96875 6.59375 36.375 
Q 6.59375 54.828125 13.0625 64.515625 
Q 19.53125 74.21875 31.78125 74.21875 
z
" id="DejaVuSans-48"/>
      </defs>
      <g transform="translate(31.059375 369.556562)scale(0.1 -0.1)">
       <use xlink:href="#DejaVuSans-48"/>
      </g>
     </g>
    </g>
    <g id="xtick_2">
     <g id="line2d_2">
      <g>
       <use style="stroke:#000000;stroke-width:0.8;" x="117.940625" xlink:href="#mfe36a7bcea" y="354.958125"/>
      </g>
     </g>
     <g id="text_2">
      <!-- 5000 -->
      <defs>
       <path d="M 10.796875 72.90625 
L 49.515625 72.90625 
L 49.515625 64.59375 
L 19.828125 64.59375 
L 19.828125 46.734375 
Q 21.96875 47.46875 24.109375 47.828125 
Q 26.265625 48.1875 28.421875 48.1875 
Q 40.625 48.1875 47.75 41.5 
Q 54.890625 34.8125 54.890625 23.390625 
Q 54.890625 11.625 47.5625 5.09375 
Q 40.234375 -1.421875 26.90625 -1.421875 
Q 22.3125 -1.421875 17.546875 -0.640625 
Q 12.796875 0.140625 7.71875 1.703125 
L 7.71875 11.625 
Q 12.109375 9.234375 16.796875 8.0625 
Q 21.484375 6.890625 26.703125 6.890625 
Q 35.15625 6.890625 40.078125 11.328125 
Q 45.015625 15.765625 45.015625 23.390625 
Q 45.015625 31 40.078125 35.4375 
Q 35.15625 39.890625 26.703125 39.890625 
Q 22.75 39.890625 18.8125 39.015625 
Q 14.890625 38.140625 10.796875 36.28125 
z
" id="DejaVuSans-53"/>
      </defs>
      <g transform="translate(105.215625 369.556562)scale(0.1 -0.1)">
       <use xlink:href="#DejaVuSans-53"/>
       <use x="63.623047" xlink:href="#DejaVuSans-48"/>
       <use x="127.246094" xlink:href="#DejaVuSans-48"/>
       <use x="190.869141" xlink:href="#DejaVuSans-48"/>
      </g>
     </g>
    </g>
    <g id="xtick_3">
     <g id="line2d_3">
      <g>
       <use style="stroke:#000000;stroke-width:0.8;" x="201.640625" xlink:href="#mfe36a7bcea" y="354.958125"/>
      </g>
     </g>
     <g id="text_3">
      <!-- 10000 -->
      <defs>
       <path d="M 12.40625 8.296875 
L 28.515625 8.296875 
L 28.515625 63.921875 
L 10.984375 60.40625 
L 10.984375 69.390625 
L 28.421875 72.90625 
L 38.28125 72.90625 
L 38.28125 8.296875 
L 54.390625 8.296875 
L 54.390625 0 
L 12.40625 0 
z
" id="DejaVuSans-49"/>
      </defs>
      <g transform="translate(185.734375 369.556562)scale(0.1 -0.1)">
       <use xlink:href="#DejaVuSans-49"/>
       <use x="63.623047" xlink:href="#DejaVuSans-48"/>
       <use x="127.246094" xlink:href="#DejaVuSans-48"/>
       <use x="190.869141" xlink:href="#DejaVuSans-48"/>
       <use x="254.492188" xlink:href="#DejaVuSans-48"/>
      </g>
     </g>
    </g>
    <g id="xtick_4">
     <g id="line2d_4">
      <g>
       <use style="stroke:#000000;stroke-width:0.8;" x="285.340625" xlink:href="#mfe36a7bcea" y="354.958125"/>
      </g>
     </g>
     <g id="text_4">
      <!-- 15000 -->
      <g transform="translate(269.434375 369.556562)scale(0.1 -0.1)">
       <use xlink:href="#DejaVuSans-49"/>
       <use x="63.623047" xlink:href="#DejaVuSans-53"/>
       <use x="127.246094" xlink:href="#DejaVuSans-48"/>
       <use x="190.869141" xlink:href="#DejaVuSans-48"/>
       <use x="254.492188" xlink:href="#DejaVuSans-48"/>
      </g>
     </g>
    </g>
    <g id="xtick_5">
     <g id="line2d_5">
      <g>
       <use style="stroke:#000000;stroke-width:0.8;" x="369.040625" xlink:href="#mfe36a7bcea" y="354.958125"/>
      </g>
     </g>
     <g id="text_5">
      <!-- 20000 -->
      <defs>
       <path d="M 19.1875 8.296875 
L 53.609375 8.296875 
L 53.609375 0 
L 7.328125 0 
L 7.328125 8.296875 
Q 12.9375 14.109375 22.625 23.890625 
Q 32.328125 33.6875 34.8125 36.53125 
Q 39.546875 41.84375 41.421875 45.53125 
Q 43.3125 49.21875 43.3125 52.78125 
Q 43.3125 58.59375 39.234375 62.25 
Q 35.15625 65.921875 28.609375 65.921875 
Q 23.96875 65.921875 18.8125 64.3125 
Q 13.671875 62.703125 7.8125 59.421875 
L 7.8125 69.390625 
Q 13.765625 71.78125 18.9375 73 
Q 24.125 74.21875 28.421875 74.21875 
Q 39.75 74.21875 46.484375 68.546875 
Q 53.21875 62.890625 53.21875 53.421875 
Q 53.21875 48.921875 51.53125 44.890625 
Q 49.859375 40.875 45.40625 35.40625 
Q 44.1875 33.984375 37.640625 27.21875 
Q 31.109375 20.453125 19.1875 8.296875 
z
" id="DejaVuSans-50"/>
      </defs>
      <g transform="translate(353.134375 369.556562)scale(0.1 -0.1)">
       <use xlink:href="#DejaVuSans-50"/>
       <use x="63.623047" xlink:href="#DejaVuSans-48"/>
       <use x="127.246094" xlink:href="#DejaVuSans-48"/>
       <use x="190.869141" xlink:href="#DejaVuSans-48"/>
       <use x="254.492188" xlink:href="#DejaVuSans-48"/>
      </g>
     </g>
    </g>
    <g id="text_6">
     <!-- Computation time, in expected updates -->
     <defs>
      <path d="M 64.40625 67.28125 
L 64.40625 56.890625 
Q 59.421875 61.53125 53.78125 63.8125 
Q 48.140625 66.109375 41.796875 66.109375 
Q 29.296875 66.109375 22.65625 58.46875 
Q 16.015625 50.828125 16.015625 36.375 
Q 16.015625 21.96875 22.65625 14.328125 
Q 29.296875 6.6875 41.796875 6.6875 
Q 48.140625 6.6875 53.78125 8.984375 
Q 59.421875 11.28125 64.40625 15.921875 
L 64.40625 5.609375 
Q 59.234375 2.09375 53.4375 0.328125 
Q 47.65625 -1.421875 41.21875 -1.421875 
Q 24.65625 -1.421875 15.125 8.703125 
Q 5.609375 18.84375 5.609375 36.375 
Q 5.609375 53.953125 15.125 64.078125 
Q 24.65625 74.21875 41.21875 74.21875 
Q 47.75 74.21875 53.53125 72.484375 
Q 59.328125 70.75 64.40625 67.28125 
z
" id="DejaVuSans-67"/>
      <path d="M 30.609375 48.390625 
Q 23.390625 48.390625 19.1875 42.75 
Q 14.984375 37.109375 14.984375 27.296875 
Q 14.984375 17.484375 19.15625 11.84375 
Q 23.34375 6.203125 30.609375 6.203125 
Q 37.796875 6.203125 41.984375 11.859375 
Q 46.1875 17.53125 46.1875 27.296875 
Q 46.1875 37.015625 41.984375 42.703125 
Q 37.796875 48.390625 30.609375 48.390625 
z
M 30.609375 56 
Q 42.328125 56 49.015625 48.375 
Q 55.71875 40.765625 55.71875 27.296875 
Q 55.71875 13.875 49.015625 6.21875 
Q 42.328125 -1.421875 30.609375 -1.421875 
Q 18.84375 -1.421875 12.171875 6.21875 
Q 5.515625 13.875 5.515625 27.296875 
Q 5.515625 40.765625 12.171875 48.375 
Q 18.84375 56 30.609375 56 
z
" id="DejaVuSans-111"/>
      <path d="M 52 44.1875 
Q 55.375 50.25 60.0625 53.125 
Q 64.75 56 71.09375 56 
Q 79.640625 56 84.28125 50.015625 
Q 88.921875 44.046875 88.921875 33.015625 
L 88.921875 0 
L 79.890625 0 
L 79.890625 32.71875 
Q 79.890625 40.578125 77.09375 44.375 
Q 74.3125 48.1875 68.609375 48.1875 
Q 61.625 48.1875 57.5625 43.546875 
Q 53.515625 38.921875 53.515625 30.90625 
L 53.515625 0 
L 44.484375 0 
L 44.484375 32.71875 
Q 44.484375 40.625 41.703125 44.40625 
Q 38.921875 48.1875 33.109375 48.1875 
Q 26.21875 48.1875 22.15625 43.53125 
Q 18.109375 38.875 18.109375 30.90625 
L 18.109375 0 
L 9.078125 0 
L 9.078125 54.6875 
L 18.109375 54.6875 
L 18.109375 46.1875 
Q 21.1875 51.21875 25.484375 53.609375 
Q 29.78125 56 35.6875 56 
Q 41.65625 56 45.828125 52.96875 
Q 50 49.953125 52 44.1875 
z
" id="DejaVuSans-109"/>
      <path d="M 18.109375 8.203125 
L 18.109375 -20.796875 
L 9.078125 -20.796875 
L 9.078125 54.6875 
L 18.109375 54.6875 
L 18.109375 46.390625 
Q 20.953125 51.265625 25.265625 53.625 
Q 29.59375 56 35.59375 56 
Q 45.5625 56 51.78125 48.09375 
Q 58.015625 40.1875 58.015625 27.296875 
Q 58.015625 14.40625 51.78125 6.484375 
Q 45.5625 -1.421875 35.59375 -1.421875 
Q 29.59375 -1.421875 25.265625 0.953125 
Q 20.953125 3.328125 18.109375 8.203125 
z
M 48.6875 27.296875 
Q 48.6875 37.203125 44.609375 42.84375 
Q 40.53125 48.484375 33.40625 48.484375 
Q 26.265625 48.484375 22.1875 42.84375 
Q 18.109375 37.203125 18.109375 27.296875 
Q 18.109375 17.390625 22.1875 11.75 
Q 26.265625 6.109375 33.40625 6.109375 
Q 40.53125 6.109375 44.609375 11.75 
Q 48.6875 17.390625 48.6875 27.296875 
z
" id="DejaVuSans-112"/>
      <path d="M 8.5 21.578125 
L 8.5 54.6875 
L 17.484375 54.6875 
L 17.484375 21.921875 
Q 17.484375 14.15625 20.5 10.265625 
Q 23.53125 6.390625 29.59375 6.390625 
Q 36.859375 6.390625 41.078125 11.03125 
Q 45.3125 15.671875 45.3125 23.6875 
L 45.3125 54.6875 
L 54.296875 54.6875 
L 54.296875 0 
L 45.3125 0 
L 45.3125 8.40625 
Q 42.046875 3.421875 37.71875 1 
Q 33.40625 -1.421875 27.6875 -1.421875 
Q 18.265625 -1.421875 13.375 4.4375 
Q 8.5 10.296875 8.5 21.578125 
z
M 31.109375 56 
z
" id="DejaVuSans-117"/>
      <path d="M 18.3125 70.21875 
L 18.3125 54.6875 
L 36.8125 54.6875 
L 36.8125 47.703125 
L 18.3125 47.703125 
L 18.3125 18.015625 
Q 18.3125 11.328125 20.140625 9.421875 
Q 21.96875 7.515625 27.59375 7.515625 
L 36.8125 7.515625 
L 36.8125 0 
L 27.59375 0 
Q 17.1875 0 13.234375 3.875 
Q 9.28125 7.765625 9.28125 18.015625 
L 9.28125 47.703125 
L 2.6875 47.703125 
L 2.6875 54.6875 
L 9.28125 54.6875 
L 9.28125 70.21875 
z
" id="DejaVuSans-116"/>
      <path d="M 34.28125 27.484375 
Q 23.390625 27.484375 19.1875 25 
Q 14.984375 22.515625 14.984375 16.5 
Q 14.984375 11.71875 18.140625 8.90625 
Q 21.296875 6.109375 26.703125 6.109375 
Q 34.1875 6.109375 38.703125 11.40625 
Q 43.21875 16.703125 43.21875 25.484375 
L 43.21875 27.484375 
z
M 52.203125 31.203125 
L 52.203125 0 
L 43.21875 0 
L 43.21875 8.296875 
Q 40.140625 3.328125 35.546875 0.953125 
Q 30.953125 -1.421875 24.3125 -1.421875 
Q 15.921875 -1.421875 10.953125 3.296875 
Q 6 8.015625 6 15.921875 
Q 6 25.140625 12.171875 29.828125 
Q 18.359375 34.515625 30.609375 34.515625 
L 43.21875 34.515625 
L 43.21875 35.40625 
Q 43.21875 41.609375 39.140625 45 
Q 35.0625 48.390625 27.6875 48.390625 
Q 23 48.390625 18.546875 47.265625 
Q 14.109375 46.140625 10.015625 43.890625 
L 10.015625 52.203125 
Q 14.9375 54.109375 19.578125 55.046875 
Q 24.21875 56 28.609375 56 
Q 40.484375 56 46.34375 49.84375 
Q 52.203125 43.703125 52.203125 31.203125 
z
" id="DejaVuSans-97"/>
      <path d="M 9.421875 54.6875 
L 18.40625 54.6875 
L 18.40625 0 
L 9.421875 0 
z
M 9.421875 75.984375 
L 18.40625 75.984375 
L 18.40625 64.59375 
L 9.421875 64.59375 
z
" id="DejaVuSans-105"/>
      <path d="M 54.890625 33.015625 
L 54.890625 0 
L 45.90625 0 
L 45.90625 32.71875 
Q 45.90625 40.484375 42.875 44.328125 
Q 39.84375 48.1875 33.796875 48.1875 
Q 26.515625 48.1875 22.3125 43.546875 
Q 18.109375 38.921875 18.109375 30.90625 
L 18.109375 0 
L 9.078125 0 
L 9.078125 54.6875 
L 18.109375 54.6875 
L 18.109375 46.1875 
Q 21.34375 51.125 25.703125 53.5625 
Q 30.078125 56 35.796875 56 
Q 45.21875 56 50.046875 50.171875 
Q 54.890625 44.34375 54.890625 33.015625 
z
" id="DejaVuSans-110"/>
      <path id="DejaVuSans-32"/>
      <path d="M 56.203125 29.59375 
L 56.203125 25.203125 
L 14.890625 25.203125 
Q 15.484375 15.921875 20.484375 11.0625 
Q 25.484375 6.203125 34.421875 6.203125 
Q 39.59375 6.203125 44.453125 7.46875 
Q 49.3125 8.734375 54.109375 11.28125 
L 54.109375 2.78125 
Q 49.265625 0.734375 44.1875 -0.34375 
Q 39.109375 -1.421875 33.890625 -1.421875 
Q 20.796875 -1.421875 13.15625 6.1875 
Q 5.515625 13.8125 5.515625 26.8125 
Q 5.515625 40.234375 12.765625 48.109375 
Q 20.015625 56 32.328125 56 
Q 43.359375 56 49.78125 48.890625 
Q 56.203125 41.796875 56.203125 29.59375 
z
M 47.21875 32.234375 
Q 47.125 39.59375 43.09375 43.984375 
Q 39.0625 48.390625 32.421875 48.390625 
Q 24.90625 48.390625 20.390625 44.140625 
Q 15.875 39.890625 15.1875 32.171875 
z
" id="DejaVuSans-101"/>
      <path d="M 11.71875 12.40625 
L 22.015625 12.40625 
L 22.015625 4 
L 14.015625 -11.625 
L 7.71875 -11.625 
L 11.71875 4 
z
" id="DejaVuSans-44"/>
      <path d="M 54.890625 54.6875 
L 35.109375 28.078125 
L 55.90625 0 
L 45.3125 0 
L 29.390625 21.484375 
L 13.484375 0 
L 2.875 0 
L 24.125 28.609375 
L 4.6875 54.6875 
L 15.28125 54.6875 
L 29.78125 35.203125 
L 44.28125 54.6875 
z
" id="DejaVuSans-120"/>
      <path d="M 48.78125 52.59375 
L 48.78125 44.1875 
Q 44.96875 46.296875 41.140625 47.34375 
Q 37.3125 48.390625 33.40625 48.390625 
Q 24.65625 48.390625 19.8125 42.84375 
Q 14.984375 37.3125 14.984375 27.296875 
Q 14.984375 17.28125 19.8125 11.734375 
Q 24.65625 6.203125 33.40625 6.203125 
Q 37.3125 6.203125 41.140625 7.25 
Q 44.96875 8.296875 48.78125 10.40625 
L 48.78125 2.09375 
Q 45.015625 0.34375 40.984375 -0.53125 
Q 36.96875 -1.421875 32.421875 -1.421875 
Q 20.0625 -1.421875 12.78125 6.34375 
Q 5.515625 14.109375 5.515625 27.296875 
Q 5.515625 40.671875 12.859375 48.328125 
Q 20.21875 56 33.015625 56 
Q 37.15625 56 41.109375 55.140625 
Q 45.0625 54.296875 48.78125 52.59375 
z
" id="DejaVuSans-99"/>
      <path d="M 45.40625 46.390625 
L 45.40625 75.984375 
L 54.390625 75.984375 
L 54.390625 0 
L 45.40625 0 
L 45.40625 8.203125 
Q 42.578125 3.328125 38.25 0.953125 
Q 33.9375 -1.421875 27.875 -1.421875 
Q 17.96875 -1.421875 11.734375 6.484375 
Q 5.515625 14.40625 5.515625 27.296875 
Q 5.515625 40.1875 11.734375 48.09375 
Q 17.96875 56 27.875 56 
Q 33.9375 56 38.25 53.625 
Q 42.578125 51.265625 45.40625 46.390625 
z
M 14.796875 27.296875 
Q 14.796875 17.390625 18.875 11.75 
Q 22.953125 6.109375 30.078125 6.109375 
Q 37.203125 6.109375 41.296875 11.75 
Q 45.40625 17.390625 45.40625 27.296875 
Q 45.40625 37.203125 41.296875 42.84375 
Q 37.203125 48.484375 30.078125 48.484375 
Q 22.953125 48.484375 18.875 42.84375 
Q 14.796875 37.203125 14.796875 27.296875 
z
" id="DejaVuSans-100"/>
      <path d="M 44.28125 53.078125 
L 44.28125 44.578125 
Q 40.484375 46.53125 36.375 47.5 
Q 32.28125 48.484375 27.875 48.484375 
Q 21.1875 48.484375 17.84375 46.4375 
Q 14.5 44.390625 14.5 40.28125 
Q 14.5 37.15625 16.890625 35.375 
Q 19.28125 33.59375 26.515625 31.984375 
L 29.59375 31.296875 
Q 39.15625 29.25 43.1875 25.515625 
Q 47.21875 21.78125 47.21875 15.09375 
Q 47.21875 7.46875 41.1875 3.015625 
Q 35.15625 -1.421875 24.609375 -1.421875 
Q 20.21875 -1.421875 15.453125 -0.5625 
Q 10.6875 0.296875 5.421875 2 
L 5.421875 11.28125 
Q 10.40625 8.6875 15.234375 7.390625 
Q 20.0625 6.109375 24.8125 6.109375 
Q 31.15625 6.109375 34.5625 8.28125 
Q 37.984375 10.453125 37.984375 14.40625 
Q 37.984375 18.0625 35.515625 20.015625 
Q 33.0625 21.96875 24.703125 23.78125 
L 21.578125 24.515625 
Q 13.234375 26.265625 9.515625 29.90625 
Q 5.8125 33.546875 5.8125 39.890625 
Q 5.8125 47.609375 11.28125 51.796875 
Q 16.75 56 26.8125 56 
Q 31.78125 56 36.171875 55.265625 
Q 40.578125 54.546875 44.28125 53.078125 
z
" id="DejaVuSans-115"/>
     </defs>
     <g transform="translate(102.007031 383.234687)scale(0.1 -0.1)">
      <use xlink:href="#DejaVuSans-67"/>
      <use x="69.824219" xlink:href="#DejaVuSans-111"/>
      <use x="131.005859" xlink:href="#DejaVuSans-109"/>
      <use x="228.417969" xlink:href="#DejaVuSans-112"/>
      <use x="291.894531" xlink:href="#DejaVuSans-117"/>
      <use x="355.273438" xlink:href="#DejaVuSans-116"/>
      <use x="394.482422" xlink:href="#DejaVuSans-97"/>
      <use x="455.761719" xlink:href="#DejaVuSans-116"/>
      <use x="494.970703" xlink:href="#DejaVuSans-105"/>
      <use x="522.753906" xlink:href="#DejaVuSans-111"/>
      <use x="583.935547" xlink:href="#DejaVuSans-110"/>
      <use x="647.314453" xlink:href="#DejaVuSans-32"/>
      <use x="679.101562" xlink:href="#DejaVuSans-116"/>
      <use x="718.310547" xlink:href="#DejaVuSans-105"/>
      <use x="746.09375" xlink:href="#DejaVuSans-109"/>
      <use x="843.505859" xlink:href="#DejaVuSans-101"/>
      <use x="905.029297" xlink:href="#DejaVuSans-44"/>
      <use x="936.816406" xlink:href="#DejaVuSans-32"/>
      <use x="968.603516" xlink:href="#DejaVuSans-105"/>
      <use x="996.386719" xlink:href="#DejaVuSans-110"/>
      <use x="1059.765625" xlink:href="#DejaVuSans-32"/>
      <use x="1091.552734" xlink:href="#DejaVuSans-101"/>
      <use x="1153.060547" xlink:href="#DejaVuSans-120"/>
      <use x="1212.240234" xlink:href="#DejaVuSans-112"/>
      <use x="1275.716797" xlink:href="#DejaVuSans-101"/>
      <use x="1337.240234" xlink:href="#DejaVuSans-99"/>
      <use x="1392.220703" xlink:href="#DejaVuSans-116"/>
      <use x="1431.429688" xlink:href="#DejaVuSans-101"/>
      <use x="1492.953125" xlink:href="#DejaVuSans-100"/>
      <use x="1556.429688" xlink:href="#DejaVuSans-32"/>
      <use x="1588.216797" xlink:href="#DejaVuSans-117"/>
      <use x="1651.595703" xlink:href="#DejaVuSans-112"/>
      <use x="1715.072266" xlink:href="#DejaVuSans-100"/>
      <use x="1778.548828" xlink:href="#DejaVuSans-97"/>
      <use x="1839.828125" xlink:href="#DejaVuSans-116"/>
      <use x="1879.037109" xlink:href="#DejaVuSans-101"/>
      <use x="1940.560547" xlink:href="#DejaVuSans-115"/>
     </g>
    </g>
   </g>
   <g id="matplotlib.axis_2">
    <g id="ytick_1">
     <g id="line2d_6">
      <defs>
       <path d="M 0 0 
L -3.5 0 
" id="m13eb407afe" style="stroke:#000000;stroke-width:0.8;"/>
      </defs>
      <g>
       <use style="stroke:#000000;stroke-width:0.8;" x="34.240625" xlink:href="#m13eb407afe" y="327.787574"/>
      </g>
     </g>
     <g id="text_7">
      <!-- 0 -->
      <g transform="translate(20.878125 331.586793)scale(0.1 -0.1)">
       <use xlink:href="#DejaVuSans-48"/>
      </g>
     </g>
    </g>
    <g id="ytick_2">
     <g id="line2d_7">
      <g>
       <use style="stroke:#000000;stroke-width:0.8;" x="34.240625" xlink:href="#m13eb407afe" y="290.696249"/>
      </g>
     </g>
     <g id="text_8">
      <!-- 1 -->
      <g transform="translate(20.878125 294.495468)scale(0.1 -0.1)">
       <use xlink:href="#DejaVuSans-49"/>
      </g>
     </g>
    </g>
    <g id="ytick_3">
     <g id="line2d_8">
      <g>
       <use style="stroke:#000000;stroke-width:0.8;" x="34.240625" xlink:href="#m13eb407afe" y="253.604924"/>
      </g>
     </g>
     <g id="text_9">
      <!-- 2 -->
      <g transform="translate(20.878125 257.404142)scale(0.1 -0.1)">
       <use xlink:href="#DejaVuSans-50"/>
      </g>
     </g>
    </g>
    <g id="ytick_4">
     <g id="line2d_9">
      <g>
       <use style="stroke:#000000;stroke-width:0.8;" x="34.240625" xlink:href="#m13eb407afe" y="216.513599"/>
      </g>
     </g>
     <g id="text_10">
      <!-- 3 -->
      <defs>
       <path d="M 40.578125 39.3125 
Q 47.65625 37.796875 51.625 33 
Q 55.609375 28.21875 55.609375 21.1875 
Q 55.609375 10.40625 48.1875 4.484375 
Q 40.765625 -1.421875 27.09375 -1.421875 
Q 22.515625 -1.421875 17.65625 -0.515625 
Q 12.796875 0.390625 7.625 2.203125 
L 7.625 11.71875 
Q 11.71875 9.328125 16.59375 8.109375 
Q 21.484375 6.890625 26.8125 6.890625 
Q 36.078125 6.890625 40.9375 10.546875 
Q 45.796875 14.203125 45.796875 21.1875 
Q 45.796875 27.640625 41.28125 31.265625 
Q 36.765625 34.90625 28.71875 34.90625 
L 20.21875 34.90625 
L 20.21875 43.015625 
L 29.109375 43.015625 
Q 36.375 43.015625 40.234375 45.921875 
Q 44.09375 48.828125 44.09375 54.296875 
Q 44.09375 59.90625 40.109375 62.90625 
Q 36.140625 65.921875 28.71875 65.921875 
Q 24.65625 65.921875 20.015625 65.03125 
Q 15.375 64.15625 9.8125 62.3125 
L 9.8125 71.09375 
Q 15.4375 72.65625 20.34375 73.4375 
Q 25.25 74.21875 29.59375 74.21875 
Q 40.828125 74.21875 47.359375 69.109375 
Q 53.90625 64.015625 53.90625 55.328125 
Q 53.90625 49.265625 50.4375 45.09375 
Q 46.96875 40.921875 40.578125 39.3125 
z
" id="DejaVuSans-51"/>
      </defs>
      <g transform="translate(20.878125 220.312817)scale(0.1 -0.1)">
       <use xlink:href="#DejaVuSans-51"/>
      </g>
     </g>
    </g>
    <g id="ytick_5">
     <g id="line2d_10">
      <g>
       <use style="stroke:#000000;stroke-width:0.8;" x="34.240625" xlink:href="#m13eb407afe" y="179.422273"/>
      </g>
     </g>
     <g id="text_11">
      <!-- 4 -->
      <defs>
       <path d="M 37.796875 64.3125 
L 12.890625 25.390625 
L 37.796875 25.390625 
z
M 35.203125 72.90625 
L 47.609375 72.90625 
L 47.609375 25.390625 
L 58.015625 25.390625 
L 58.015625 17.1875 
L 47.609375 17.1875 
L 47.609375 0 
L 37.796875 0 
L 37.796875 17.1875 
L 4.890625 17.1875 
L 4.890625 26.703125 
z
" id="DejaVuSans-52"/>
      </defs>
      <g transform="translate(20.878125 183.221492)scale(0.1 -0.1)">
       <use xlink:href="#DejaVuSans-52"/>
      </g>
     </g>
    </g>
    <g id="ytick_6">
     <g id="line2d_11">
      <g>
       <use style="stroke:#000000;stroke-width:0.8;" x="34.240625" xlink:href="#m13eb407afe" y="142.330948"/>
      </g>
     </g>
     <g id="text_12">
      <!-- 5 -->
      <g transform="translate(20.878125 146.130167)scale(0.1 -0.1)">
       <use xlink:href="#DejaVuSans-53"/>
      </g>
     </g>
    </g>
    <g id="ytick_7">
     <g id="line2d_12">
      <g>
       <use style="stroke:#000000;stroke-width:0.8;" x="34.240625" xlink:href="#m13eb407afe" y="105.239623"/>
      </g>
     </g>
     <g id="text_13">
      <!-- 6 -->
      <defs>
       <path d="M 33.015625 40.375 
Q 26.375 40.375 22.484375 35.828125 
Q 18.609375 31.296875 18.609375 23.390625 
Q 18.609375 15.53125 22.484375 10.953125 
Q 26.375 6.390625 33.015625 6.390625 
Q 39.65625 6.390625 43.53125 10.953125 
Q 47.40625 15.53125 47.40625 23.390625 
Q 47.40625 31.296875 43.53125 35.828125 
Q 39.65625 40.375 33.015625 40.375 
z
M 52.59375 71.296875 
L 52.59375 62.3125 
Q 48.875 64.0625 45.09375 64.984375 
Q 41.3125 65.921875 37.59375 65.921875 
Q 27.828125 65.921875 22.671875 59.328125 
Q 17.53125 52.734375 16.796875 39.40625 
Q 19.671875 43.65625 24.015625 45.921875 
Q 28.375 48.1875 33.59375 48.1875 
Q 44.578125 48.1875 50.953125 41.515625 
Q 57.328125 34.859375 57.328125 23.390625 
Q 57.328125 12.15625 50.6875 5.359375 
Q 44.046875 -1.421875 33.015625 -1.421875 
Q 20.359375 -1.421875 13.671875 8.265625 
Q 6.984375 17.96875 6.984375 36.375 
Q 6.984375 53.65625 15.1875 63.9375 
Q 23.390625 74.21875 37.203125 74.21875 
Q 40.921875 74.21875 44.703125 73.484375 
Q 48.484375 72.75 52.59375 71.296875 
z
" id="DejaVuSans-54"/>
      </defs>
      <g transform="translate(20.878125 109.038842)scale(0.1 -0.1)">
       <use xlink:href="#DejaVuSans-54"/>
      </g>
     </g>
    </g>
    <g id="ytick_8">
     <g id="line2d_13">
      <g>
       <use style="stroke:#000000;stroke-width:0.8;" x="34.240625" xlink:href="#m13eb407afe" y="68.148298"/>
      </g>
     </g>
     <g id="text_14">
      <!-- 7 -->
      <defs>
       <path d="M 8.203125 72.90625 
L 55.078125 72.90625 
L 55.078125 68.703125 
L 28.609375 0 
L 18.3125 0 
L 43.21875 64.59375 
L 8.203125 64.59375 
z
" id="DejaVuSans-55"/>
      </defs>
      <g transform="translate(20.878125 71.947517)scale(0.1 -0.1)">
       <use xlink:href="#DejaVuSans-55"/>
      </g>
     </g>
    </g>
    <g id="ytick_9">
     <g id="line2d_14">
      <g>
       <use style="stroke:#000000;stroke-width:0.8;" x="34.240625" xlink:href="#m13eb407afe" y="31.056973"/>
      </g>
     </g>
     <g id="text_15">
      <!-- 8 -->
      <defs>
       <path d="M 31.78125 34.625 
Q 24.75 34.625 20.71875 30.859375 
Q 16.703125 27.09375 16.703125 20.515625 
Q 16.703125 13.921875 20.71875 10.15625 
Q 24.75 6.390625 31.78125 6.390625 
Q 38.8125 6.390625 42.859375 10.171875 
Q 46.921875 13.96875 46.921875 20.515625 
Q 46.921875 27.09375 42.890625 30.859375 
Q 38.875 34.625 31.78125 34.625 
z
M 21.921875 38.8125 
Q 15.578125 40.375 12.03125 44.71875 
Q 8.5 49.078125 8.5 55.328125 
Q 8.5 64.0625 14.71875 69.140625 
Q 20.953125 74.21875 31.78125 74.21875 
Q 42.671875 74.21875 48.875 69.140625 
Q 55.078125 64.0625 55.078125 55.328125 
Q 55.078125 49.078125 51.53125 44.71875 
Q 48 40.375 41.703125 38.8125 
Q 48.828125 37.15625 52.796875 32.3125 
Q 56.78125 27.484375 56.78125 20.515625 
Q 56.78125 9.90625 50.3125 4.234375 
Q 43.84375 -1.421875 31.78125 -1.421875 
Q 19.734375 -1.421875 13.25 4.234375 
Q 6.78125 9.90625 6.78125 20.515625 
Q 6.78125 27.484375 10.78125 32.3125 
Q 14.796875 37.15625 21.921875 38.8125 
z
M 18.3125 54.390625 
Q 18.3125 48.734375 21.84375 45.5625 
Q 25.390625 42.390625 31.78125 42.390625 
Q 38.140625 42.390625 41.71875 45.5625 
Q 45.3125 48.734375 45.3125 54.390625 
Q 45.3125 60.0625 41.71875 63.234375 
Q 38.140625 66.40625 31.78125 66.40625 
Q 25.390625 66.40625 21.84375 63.234375 
Q 18.3125 60.0625 18.3125 54.390625 
z
" id="DejaVuSans-56"/>
      </defs>
      <g transform="translate(20.878125 34.856192)scale(0.1 -0.1)">
       <use xlink:href="#DejaVuSans-56"/>
      </g>
     </g>
    </g>
    <g id="text_16">
     <!-- Value of start state under greedy policy -->
     <defs>
      <path d="M 28.609375 0 
L 0.78125 72.90625 
L 11.078125 72.90625 
L 34.1875 11.53125 
L 57.328125 72.90625 
L 67.578125 72.90625 
L 39.796875 0 
z
" id="DejaVuSans-86"/>
      <path d="M 9.421875 75.984375 
L 18.40625 75.984375 
L 18.40625 0 
L 9.421875 0 
z
" id="DejaVuSans-108"/>
      <path d="M 37.109375 75.984375 
L 37.109375 68.5 
L 28.515625 68.5 
Q 23.6875 68.5 21.796875 66.546875 
Q 19.921875 64.59375 19.921875 59.515625 
L 19.921875 54.6875 
L 34.71875 54.6875 
L 34.71875 47.703125 
L 19.921875 47.703125 
L 19.921875 0 
L 10.890625 0 
L 10.890625 47.703125 
L 2.296875 47.703125 
L 2.296875 54.6875 
L 10.890625 54.6875 
L 10.890625 58.5 
Q 10.890625 67.625 15.140625 71.796875 
Q 19.390625 75.984375 28.609375 75.984375 
z
" id="DejaVuSans-102"/>
      <path d="M 41.109375 46.296875 
Q 39.59375 47.171875 37.8125 47.578125 
Q 36.03125 48 33.890625 48 
Q 26.265625 48 22.1875 43.046875 
Q 18.109375 38.09375 18.109375 28.8125 
L 18.109375 0 
L 9.078125 0 
L 9.078125 54.6875 
L 18.109375 54.6875 
L 18.109375 46.1875 
Q 20.953125 51.171875 25.484375 53.578125 
Q 30.03125 56 36.53125 56 
Q 37.453125 56 38.578125 55.875 
Q 39.703125 55.765625 41.0625 55.515625 
z
" id="DejaVuSans-114"/>
      <path d="M 45.40625 27.984375 
Q 45.40625 37.75 41.375 43.109375 
Q 37.359375 48.484375 30.078125 48.484375 
Q 22.859375 48.484375 18.828125 43.109375 
Q 14.796875 37.75 14.796875 27.984375 
Q 14.796875 18.265625 18.828125 12.890625 
Q 22.859375 7.515625 30.078125 7.515625 
Q 37.359375 7.515625 41.375 12.890625 
Q 45.40625 18.265625 45.40625 27.984375 
z
M 54.390625 6.78125 
Q 54.390625 -7.171875 48.1875 -13.984375 
Q 42 -20.796875 29.203125 -20.796875 
Q 24.46875 -20.796875 20.265625 -20.09375 
Q 16.0625 -19.390625 12.109375 -17.921875 
L 12.109375 -9.1875 
Q 16.0625 -11.328125 19.921875 -12.34375 
Q 23.78125 -13.375 27.78125 -13.375 
Q 36.625 -13.375 41.015625 -8.765625 
Q 45.40625 -4.15625 45.40625 5.171875 
L 45.40625 9.625 
Q 42.625 4.78125 38.28125 2.390625 
Q 33.9375 0 27.875 0 
Q 17.828125 0 11.671875 7.65625 
Q 5.515625 15.328125 5.515625 27.984375 
Q 5.515625 40.671875 11.671875 48.328125 
Q 17.828125 56 27.875 56 
Q 33.9375 56 38.28125 53.609375 
Q 42.625 51.21875 45.40625 46.390625 
L 45.40625 54.6875 
L 54.390625 54.6875 
z
" id="DejaVuSans-103"/>
      <path d="M 32.171875 -5.078125 
Q 28.375 -14.84375 24.75 -17.8125 
Q 21.140625 -20.796875 15.09375 -20.796875 
L 7.90625 -20.796875 
L 7.90625 -13.28125 
L 13.1875 -13.28125 
Q 16.890625 -13.28125 18.9375 -11.515625 
Q 21 -9.765625 23.484375 -3.21875 
L 25.09375 0.875 
L 2.984375 54.6875 
L 12.5 54.6875 
L 29.59375 11.921875 
L 46.6875 54.6875 
L 56.203125 54.6875 
z
" id="DejaVuSans-121"/>
     </defs>
     <g transform="translate(14.798438 288.294375)rotate(-90)scale(0.1 -0.1)">
      <use xlink:href="#DejaVuSans-86"/>
      <use x="68.298828" xlink:href="#DejaVuSans-97"/>
      <use x="129.578125" xlink:href="#DejaVuSans-108"/>
      <use x="157.361328" xlink:href="#DejaVuSans-117"/>
      <use x="220.740234" xlink:href="#DejaVuSans-101"/>
      <use x="282.263672" xlink:href="#DejaVuSans-32"/>
      <use x="314.050781" xlink:href="#DejaVuSans-111"/>
      <use x="375.232422" xlink:href="#DejaVuSans-102"/>
      <use x="410.4375" xlink:href="#DejaVuSans-32"/>
      <use x="442.224609" xlink:href="#DejaVuSans-115"/>
      <use x="494.324219" xlink:href="#DejaVuSans-116"/>
      <use x="533.533203" xlink:href="#DejaVuSans-97"/>
      <use x="594.8125" xlink:href="#DejaVuSans-114"/>
      <use x="635.925781" xlink:href="#DejaVuSans-116"/>
      <use x="675.134766" xlink:href="#DejaVuSans-32"/>
      <use x="706.921875" xlink:href="#DejaVuSans-115"/>
      <use x="759.021484" xlink:href="#DejaVuSans-116"/>
      <use x="798.230469" xlink:href="#DejaVuSans-97"/>
      <use x="859.509766" xlink:href="#DejaVuSans-116"/>
      <use x="898.71875" xlink:href="#DejaVuSans-101"/>
      <use x="960.242188" xlink:href="#DejaVuSans-32"/>
      <use x="992.029297" xlink:href="#DejaVuSans-117"/>
      <use x="1055.408203" xlink:href="#DejaVuSans-110"/>
      <use x="1118.787109" xlink:href="#DejaVuSans-100"/>
      <use x="1182.263672" xlink:href="#DejaVuSans-101"/>
      <use x="1243.787109" xlink:href="#DejaVuSans-114"/>
      <use x="1284.900391" xlink:href="#DejaVuSans-32"/>
      <use x="1316.6875" xlink:href="#DejaVuSans-103"/>
      <use x="1380.164062" xlink:href="#DejaVuSans-114"/>
      <use x="1421.246094" xlink:href="#DejaVuSans-101"/>
      <use x="1482.769531" xlink:href="#DejaVuSans-101"/>
      <use x="1544.292969" xlink:href="#DejaVuSans-100"/>
      <use x="1607.769531" xlink:href="#DejaVuSans-121"/>
      <use x="1666.949219" xlink:href="#DejaVuSans-32"/>
      <use x="1698.736328" xlink:href="#DejaVuSans-112"/>
      <use x="1762.212891" xlink:href="#DejaVuSans-111"/>
      <use x="1823.394531" xlink:href="#DejaVuSans-108"/>
      <use x="1851.177734" xlink:href="#DejaVuSans-105"/>
      <use x="1878.960938" xlink:href="#DejaVuSans-99"/>
      <use x="1933.941406" xlink:href="#DejaVuSans-121"/>
     </g>
    </g>
   </g>
   <g id="line2d_15">
    <path clip-path="url(#p83e21e5b03)" d="M 34.240625 339.838125 
L 40.936625 107.374645 
L 47.632625 76.25185 
L 54.328625 70.720125 
L 61.024625 64.495481 
L 67.720625 60.780563 
L 74.416625 59.741614 
L 81.112625 59.539646 
L 87.808625 59.888123 
L 94.504625 59.586075 
L 101.200625 57.708911 
L 107.896625 56.812493 
L 114.592625 56.638789 
L 121.288625 55.981917 
L 127.984625 55.601756 
L 134.680625 54.584224 
L 141.376625 52.568681 
L 148.072625 50.707514 
L 154.768625 50.949838 
L 161.464625 50.981959 
L 168.160625 50.587971 
L 174.856625 51.164293 
L 181.552625 50.774146 
L 188.248625 50.753201 
L 194.944625 48.63214 
L 201.640625 48.351209 
L 208.336625 41.056959 
L 215.032625 40.914561 
L 221.728625 41.127932 
L 228.424625 40.518665 
L 235.120625 41.167169 
L 241.816625 41.38054 
L 248.512625 41.465235 
L 255.208625 41.38054 
L 261.904625 41.110631 
L 268.600625 41.106563 
L 275.296625 41.909518 
L 281.992625 41.909518 
L 288.688625 40.677257 
L 295.384625 40.890628 
L 302.080625 40.662317 
L 308.776625 40.662317 
L 315.472625 40.488229 
L 322.168625 40.274858 
L 328.864625 40.259917 
L 335.560625 40.751802 
L 342.256625 40.488229 
L 348.952625 37.57497 
L 355.648625 37.967233 
L 362.344625 38.162472 
L 369.040625 37.438125 
" style="fill:none;stroke:#008000;stroke-linecap:square;stroke-width:1.5;"/>
   </g>
   <g id="line2d_16">
    <path clip-path="url(#p83e21e5b03)" d="M 34.240625 334.256477 
L 40.936625 289.605751 
L 47.632625 282.083461 
L 54.328625 277.769238 
L 61.024625 270.870094 
L 67.720625 266.816995 
L 74.416625 262.86671 
L 81.112625 259.723956 
L 87.808625 257.515136 
L 94.504625 256.847298 
L 101.200625 254.469011 
L 107.896625 252.809653 
L 114.592625 251.965254 
L 121.288625 251.445177 
L 127.984625 250.664568 
L 134.680625 250.008783 
L 141.376625 249.772202 
L 148.072625 248.771204 
L 154.768625 249.191081 
L 161.464625 248.304251 
L 168.160625 248.233025 
L 174.856625 247.764825 
L 181.552625 247.226792 
L 188.248625 246.590305 
L 194.944625 246.501511 
L 201.640625 246.415325 
L 208.336625 246.231848 
L 215.032625 246.072186 
L 221.728625 246.054002 
L 228.424625 246.015981 
L 235.120625 245.883044 
L 241.816625 245.807175 
L 248.512625 245.750429 
L 255.208625 245.365918 
L 261.904625 245.327749 
L 268.600625 245.274617 
L 275.296625 244.860104 
L 281.992625 244.7978 
L 288.688625 244.727442 
L 295.384625 244.737597 
L 302.080625 244.714392 
L 308.776625 244.61898 
L 315.472625 244.52566 
L 322.168625 244.518395 
L 328.864625 244.477264 
L 335.560625 244.399785 
L 342.256625 244.383954 
L 348.952625 244.336533 
L 355.648625 244.168786 
L 362.344625 244.157043 
L 369.040625 244.102989 
" style="fill:none;stroke:#b22222;stroke-linecap:square;stroke-width:1.5;"/>
   </g>
   <g id="line2d_17">
    <path clip-path="url(#p83e21e5b03)" d="M 34.240625 323.798547 
L 40.936625 311.746366 
L 47.632625 308.673429 
L 54.328625 307.91727 
L 61.024625 305.545441 
L 67.720625 304.405578 
L 74.416625 302.508735 
L 81.112625 301.398495 
L 87.808625 300.702517 
L 94.504625 299.746035 
L 101.200625 299.383133 
L 107.896625 299.209985 
L 114.592625 298.249006 
L 121.288625 297.451428 
L 127.984625 297.01149 
L 134.680625 297.302186 
L 141.376625 296.855116 
L 148.072625 296.454007 
L 154.768625 296.373678 
L 161.464625 296.448544 
L 168.160625 296.08101 
L 174.856625 295.728899 
L 181.552625 295.653912 
L 188.248625 295.211304 
L 194.944625 295.191103 
L 201.640625 295.189385 
L 208.336625 294.807494 
L 215.032625 294.785633 
L 221.728625 294.713414 
L 228.424625 294.732757 
L 235.120625 294.706201 
L 241.816625 294.676455 
L 248.512625 294.761703 
L 255.208625 294.720533 
L 261.904625 294.704177 
L 268.600625 294.672532 
L 275.296625 294.602075 
L 281.992625 294.575164 
L 288.688625 294.559921 
L 295.384625 294.587266 
L 302.080625 294.573032 
L 308.776625 294.514784 
L 315.472625 294.163321 
L 322.168625 294.485363 
L 328.864625 294.134382 
L 335.560625 294.442789 
L 342.256625 294.103525 
L 348.952625 294.094383 
L 355.648625 294.082354 
L 362.344625 294.073953 
L 369.040625 294.069064 
" style="fill:none;stroke:#1e90ff;stroke-linecap:square;stroke-width:1.5;"/>
   </g>
   <g id="line2d_18">
    <path clip-path="url(#p83e21e5b03)" d="M 34.240625 279.46187 
L 40.936625 242.155459 
L 47.632625 245.29514 
L 54.328625 190.874022 
L 61.024625 169.974396 
L 67.720625 120.839538 
L 74.416625 94.79022 
L 81.112625 84.827509 
L 87.808625 81.441227 
L 94.504625 77.686479 
L 101.200625 74.264957 
L 107.896625 65.42448 
L 114.592625 61.448571 
L 121.288625 61.416234 
L 127.984625 61.32651 
L 134.680625 52.11897 
L 141.376625 52.287475 
L 148.072625 51.729268 
L 154.768625 50.918408 
L 161.464625 51.345249 
L 168.160625 53.446664 
L 174.856625 54.963232 
L 181.552625 52.303558 
L 188.248625 52.097219 
L 194.944625 52.097219 
L 201.640625 50.322926 
L 208.336625 50.076178 
L 215.032625 48.188599 
L 221.728625 47.972404 
L 228.424625 47.972404 
L 235.120625 47.972404 
L 241.816625 48.909428 
L 248.512625 48.840785 
L 255.208625 48.840785 
L 261.904625 48.840785 
L 268.600625 48.909313 
L 275.296625 47.569265 
L 281.992625 47.569265 
L 288.688625 47.569265 
L 295.384625 47.569265 
L 302.080625 47.569265 
L 308.776625 47.778801 
L 315.472625 47.778801 
L 322.168625 47.778801 
L 328.864625 47.778801 
L 335.560625 47.479844 
L 342.256625 47.270309 
L 348.952625 47.270309 
L 355.648625 47.270309 
L 362.344625 47.270309 
L 369.040625 47.270309 
" style="fill:none;stroke:#32cd32;stroke-linecap:square;stroke-width:1.5;"/>
   </g>
   <g id="line2d_19">
    <path clip-path="url(#p83e21e5b03)" d="M 34.240625 325.613707 
L 40.936625 309.972377 
L 47.632625 303.746092 
L 54.328625 290.518905 
L 61.024625 275.728046 
L 67.720625 255.046159 
L 74.416625 252.041188 
L 81.112625 250.323095 
L 87.808625 249.334476 
L 94.504625 247.892907 
L 101.200625 247.667501 
L 107.896625 247.599426 
L 114.592625 247.529763 
L 121.288625 247.133688 
L 127.984625 247.109082 
L 134.680625 247.08423 
L 141.376625 247.067203 
L 148.072625 247.064371 
L 154.768625 247.055697 
L 161.464625 247.052113 
L 168.160625 247.042742 
L 174.856625 247.040249 
L 181.552625 247.034193 
L 188.248625 247.033145 
L 194.944625 247.031022 
L 201.640625 247.030992 
L 208.336625 247.028902 
L 215.032625 247.028902 
L 221.728625 247.028902 
L 228.424625 246.798898 
L 235.120625 246.798823 
L 241.816625 246.798802 
L 248.512625 246.798829 
L 255.208625 246.798829 
L 261.904625 246.801619 
L 268.600625 246.801816 
L 275.296625 246.801839 
L 281.992625 246.801609 
L 288.688625 246.802346 
L 295.384625 246.802346 
L 302.080625 246.801351 
L 308.776625 246.801404 
L 315.472625 246.801404 
L 322.168625 246.801404 
L 328.864625 246.801404 
L 335.560625 246.801404 
L 342.256625 246.801275 
L 348.952625 246.801275 
L 355.648625 246.801395 
L 362.344625 246.801395 
L 369.040625 246.801395 
" style="fill:none;stroke:#f08080;stroke-linecap:square;stroke-width:1.5;"/>
   </g>
   <g id="line2d_20">
    <path clip-path="url(#p83e21e5b03)" d="M 34.240625 329.474708 
L 40.936625 323.759624 
L 47.632625 321.607228 
L 54.328625 317.011411 
L 61.024625 311.242862 
L 67.720625 303.320638 
L 74.416625 302.474302 
L 81.112625 302.443561 
L 87.808625 302.38932 
L 94.504625 302.329383 
L 101.200625 302.320639 
L 107.896625 302.282494 
L 114.592625 302.281807 
L 121.288625 302.282023 
L 127.984625 302.281263 
L 134.680625 302.28152 
L 141.376625 302.280331 
L 148.072625 302.280118 
L 154.768625 302.280067 
L 161.464625 302.280072 
L 168.160625 302.279838 
L 174.856625 302.27963 
L 181.552625 302.279506 
L 188.248625 302.279679 
L 194.944625 302.279671 
L 201.640625 302.279671 
L 208.336625 302.279671 
L 215.032625 302.279366 
L 221.728625 302.279169 
L 228.424625 302.279203 
L 235.120625 302.279081 
L 241.816625 302.279081 
L 248.512625 302.279081 
L 255.208625 302.278754 
L 261.904625 302.279018 
L 268.600625 302.279018 
L 275.296625 302.279234 
L 281.992625 302.279234 
L 288.688625 302.279234 
L 295.384625 302.279234 
L 302.080625 302.279234 
L 308.776625 302.279234 
L 315.472625 302.279234 
L 322.168625 302.279234 
L 328.864625 302.279089 
L 335.560625 302.279089 
L 342.256625 302.279089 
L 348.952625 302.279089 
L 355.648625 302.279075 
L 362.344625 302.279075 
L 369.040625 302.279075 
" style="fill:none;stroke:#87cefa;stroke-linecap:square;stroke-width:1.5;"/>
   </g>
   <g id="patch_3">
    <path d="M 34.240625 354.958125 
L 34.240625 22.318125 
" style="fill:none;stroke:#000000;stroke-linecap:square;stroke-linejoin:miter;stroke-width:0.8;"/>
   </g>
   <g id="patch_4">
    <path d="M 369.040625 354.958125 
L 369.040625 22.318125 
" style="fill:none;stroke:#000000;stroke-linecap:square;stroke-linejoin:miter;stroke-width:0.8;"/>
   </g>
   <g id="patch_5">
    <path d="M 34.240625 354.958125 
L 369.040625 354.958125 
" style="fill:none;stroke:#000000;stroke-linecap:square;stroke-linejoin:miter;stroke-width:0.8;"/>
   </g>
   <g id="patch_6">
    <path d="M 34.240625 22.318125 
L 369.040625 22.318125 
" style="fill:none;stroke:#000000;stroke-linecap:square;stroke-linejoin:miter;stroke-width:0.8;"/>
   </g>
   <g id="text_17">
    <!-- 1000 STATES -->
    <defs>
     <path d="M 53.515625 70.515625 
L 53.515625 60.890625 
Q 47.90625 63.578125 42.921875 64.890625 
Q 37.9375 66.21875 33.296875 66.21875 
Q 25.25 66.21875 20.875 63.09375 
Q 16.5 59.96875 16.5 54.203125 
Q 16.5 49.359375 19.40625 46.890625 
Q 22.3125 44.4375 30.421875 42.921875 
L 36.375 41.703125 
Q 47.40625 39.59375 52.65625 34.296875 
Q 57.90625 29 57.90625 20.125 
Q 57.90625 9.515625 50.796875 4.046875 
Q 43.703125 -1.421875 29.984375 -1.421875 
Q 24.8125 -1.421875 18.96875 -0.25 
Q 13.140625 0.921875 6.890625 3.21875 
L 6.890625 13.375 
Q 12.890625 10.015625 18.65625 8.296875 
Q 24.421875 6.59375 29.984375 6.59375 
Q 38.421875 6.59375 43.015625 9.90625 
Q 47.609375 13.234375 47.609375 19.390625 
Q 47.609375 24.75 44.3125 27.78125 
Q 41.015625 30.8125 33.5 32.328125 
L 27.484375 33.5 
Q 16.453125 35.6875 11.515625 40.375 
Q 6.59375 45.0625 6.59375 53.421875 
Q 6.59375 63.09375 13.40625 68.65625 
Q 20.21875 74.21875 32.171875 74.21875 
Q 37.3125 74.21875 42.625 73.28125 
Q 47.953125 72.359375 53.515625 70.515625 
z
" id="DejaVuSans-83"/>
     <path d="M -0.296875 72.90625 
L 61.375 72.90625 
L 61.375 64.59375 
L 35.5 64.59375 
L 35.5 0 
L 25.59375 0 
L 25.59375 64.59375 
L -0.296875 64.59375 
z
" id="DejaVuSans-84"/>
     <path d="M 34.1875 63.1875 
L 20.796875 26.90625 
L 47.609375 26.90625 
z
M 28.609375 72.90625 
L 39.796875 72.90625 
L 67.578125 0 
L 57.328125 0 
L 50.6875 18.703125 
L 17.828125 18.703125 
L 11.1875 0 
L 0.78125 0 
z
" id="DejaVuSans-65"/>
     <path d="M 9.8125 72.90625 
L 55.90625 72.90625 
L 55.90625 64.59375 
L 19.671875 64.59375 
L 19.671875 43.015625 
L 54.390625 43.015625 
L 54.390625 34.71875 
L 19.671875 34.71875 
L 19.671875 8.296875 
L 56.78125 8.296875 
L 56.78125 0 
L 9.8125 0 
z
" id="DejaVuSans-69"/>
    </defs>
    <g transform="translate(161.63375 16.318125)scale(0.12 -0.12)">
     <use xlink:href="#DejaVuSans-49"/>
     <use x="63.623047" xlink:href="#DejaVuSans-48"/>
     <use x="127.246094" xlink:href="#DejaVuSans-48"/>
     <use x="190.869141" xlink:href="#DejaVuSans-48"/>
     <use x="254.492188" xlink:href="#DejaVuSans-32"/>
     <use x="286.279297" xlink:href="#DejaVuSans-83"/>
     <use x="349.755859" xlink:href="#DejaVuSans-84"/>
     <use x="410.730469" xlink:href="#DejaVuSans-65"/>
     <use x="479.029297" xlink:href="#DejaVuSans-84"/>
     <use x="540.113281" xlink:href="#DejaVuSans-69"/>
     <use x="603.296875" xlink:href="#DejaVuSans-83"/>
    </g>
   </g>
   <g id="legend_1">
    <g id="patch_7">
     <path d="M 244.370313 234.1725 
L 362.040625 234.1725 
Q 364.040625 234.1725 364.040625 232.1725 
L 364.040625 145.10375 
Q 364.040625 143.10375 362.040625 143.10375 
L 244.370313 143.10375 
Q 242.370313 143.10375 242.370313 145.10375 
L 242.370313 232.1725 
Q 242.370313 234.1725 244.370313 234.1725 
z
" style="fill:#ffffff;opacity:0.8;stroke:#cccccc;stroke-linejoin:miter;"/>
    </g>
    <g id="line2d_21">
     <path d="M 246.370313 151.202187 
L 266.370313 151.202187 
" style="fill:none;stroke:#008000;stroke-linecap:square;stroke-width:1.5;"/>
    </g>
    <g id="line2d_22"/>
    <g id="text_18">
     <!-- on-policy, b = 1 -->
     <defs>
      <path d="M 4.890625 31.390625 
L 31.203125 31.390625 
L 31.203125 23.390625 
L 4.890625 23.390625 
z
" id="DejaVuSans-45"/>
      <path d="M 48.6875 27.296875 
Q 48.6875 37.203125 44.609375 42.84375 
Q 40.53125 48.484375 33.40625 48.484375 
Q 26.265625 48.484375 22.1875 42.84375 
Q 18.109375 37.203125 18.109375 27.296875 
Q 18.109375 17.390625 22.1875 11.75 
Q 26.265625 6.109375 33.40625 6.109375 
Q 40.53125 6.109375 44.609375 11.75 
Q 48.6875 17.390625 48.6875 27.296875 
z
M 18.109375 46.390625 
Q 20.953125 51.265625 25.265625 53.625 
Q 29.59375 56 35.59375 56 
Q 45.5625 56 51.78125 48.09375 
Q 58.015625 40.1875 58.015625 27.296875 
Q 58.015625 14.40625 51.78125 6.484375 
Q 45.5625 -1.421875 35.59375 -1.421875 
Q 29.59375 -1.421875 25.265625 0.953125 
Q 20.953125 3.328125 18.109375 8.203125 
L 18.109375 0 
L 9.078125 0 
L 9.078125 75.984375 
L 18.109375 75.984375 
z
" id="DejaVuSans-98"/>
      <path d="M 10.59375 45.40625 
L 73.1875 45.40625 
L 73.1875 37.203125 
L 10.59375 37.203125 
z
M 10.59375 25.484375 
L 73.1875 25.484375 
L 73.1875 17.1875 
L 10.59375 17.1875 
z
" id="DejaVuSans-61"/>
     </defs>
     <g transform="translate(274.370313 154.702187)scale(0.1 -0.1)">
      <use xlink:href="#DejaVuSans-111"/>
      <use x="61.181641" xlink:href="#DejaVuSans-110"/>
      <use x="124.560547" xlink:href="#DejaVuSans-45"/>
      <use x="160.644531" xlink:href="#DejaVuSans-112"/>
      <use x="224.121094" xlink:href="#DejaVuSans-111"/>
      <use x="285.302734" xlink:href="#DejaVuSans-108"/>
      <use x="313.085938" xlink:href="#DejaVuSans-105"/>
      <use x="340.869141" xlink:href="#DejaVuSans-99"/>
      <use x="395.849609" xlink:href="#DejaVuSans-121"/>
      <use x="455.029297" xlink:href="#DejaVuSans-44"/>
      <use x="486.816406" xlink:href="#DejaVuSans-32"/>
      <use x="518.603516" xlink:href="#DejaVuSans-98"/>
      <use x="582.080078" xlink:href="#DejaVuSans-32"/>
      <use x="613.867188" xlink:href="#DejaVuSans-61"/>
      <use x="697.65625" xlink:href="#DejaVuSans-32"/>
      <use x="729.443359" xlink:href="#DejaVuSans-49"/>
     </g>
    </g>
    <g id="line2d_23">
     <path d="M 246.370313 165.880312 
L 266.370313 165.880312 
" style="fill:none;stroke:#b22222;stroke-linecap:square;stroke-width:1.5;"/>
    </g>
    <g id="line2d_24"/>
    <g id="text_19">
     <!-- on-policy, b = 3 -->
     <g transform="translate(274.370313 169.380312)scale(0.1 -0.1)">
      <use xlink:href="#DejaVuSans-111"/>
      <use x="61.181641" xlink:href="#DejaVuSans-110"/>
      <use x="124.560547" xlink:href="#DejaVuSans-45"/>
      <use x="160.644531" xlink:href="#DejaVuSans-112"/>
      <use x="224.121094" xlink:href="#DejaVuSans-111"/>
      <use x="285.302734" xlink:href="#DejaVuSans-108"/>
      <use x="313.085938" xlink:href="#DejaVuSans-105"/>
      <use x="340.869141" xlink:href="#DejaVuSans-99"/>
      <use x="395.849609" xlink:href="#DejaVuSans-121"/>
      <use x="455.029297" xlink:href="#DejaVuSans-44"/>
      <use x="486.816406" xlink:href="#DejaVuSans-32"/>
      <use x="518.603516" xlink:href="#DejaVuSans-98"/>
      <use x="582.080078" xlink:href="#DejaVuSans-32"/>
      <use x="613.867188" xlink:href="#DejaVuSans-61"/>
      <use x="697.65625" xlink:href="#DejaVuSans-32"/>
      <use x="729.443359" xlink:href="#DejaVuSans-51"/>
     </g>
    </g>
    <g id="line2d_25">
     <path d="M 246.370313 180.558437 
L 266.370313 180.558437 
" style="fill:none;stroke:#1e90ff;stroke-linecap:square;stroke-width:1.5;"/>
    </g>
    <g id="line2d_26"/>
    <g id="text_20">
     <!-- on-policy, b = 10 -->
     <g transform="translate(274.370313 184.058437)scale(0.1 -0.1)">
      <use xlink:href="#DejaVuSans-111"/>
      <use x="61.181641" xlink:href="#DejaVuSans-110"/>
      <use x="124.560547" xlink:href="#DejaVuSans-45"/>
      <use x="160.644531" xlink:href="#DejaVuSans-112"/>
      <use x="224.121094" xlink:href="#DejaVuSans-111"/>
      <use x="285.302734" xlink:href="#DejaVuSans-108"/>
      <use x="313.085938" xlink:href="#DejaVuSans-105"/>
      <use x="340.869141" xlink:href="#DejaVuSans-99"/>
      <use x="395.849609" xlink:href="#DejaVuSans-121"/>
      <use x="455.029297" xlink:href="#DejaVuSans-44"/>
      <use x="486.816406" xlink:href="#DejaVuSans-32"/>
      <use x="518.603516" xlink:href="#DejaVuSans-98"/>
      <use x="582.080078" xlink:href="#DejaVuSans-32"/>
      <use x="613.867188" xlink:href="#DejaVuSans-61"/>
      <use x="697.65625" xlink:href="#DejaVuSans-32"/>
      <use x="729.443359" xlink:href="#DejaVuSans-49"/>
      <use x="793.066406" xlink:href="#DejaVuSans-48"/>
     </g>
    </g>
    <g id="line2d_27">
     <path d="M 246.370313 195.236562 
L 266.370313 195.236562 
" style="fill:none;stroke:#32cd32;stroke-linecap:square;stroke-width:1.5;"/>
    </g>
    <g id="line2d_28"/>
    <g id="text_21">
     <!-- uniform, b = 1 -->
     <g transform="translate(274.370313 198.736562)scale(0.1 -0.1)">
      <use xlink:href="#DejaVuSans-117"/>
      <use x="63.378906" xlink:href="#DejaVuSans-110"/>
      <use x="126.757812" xlink:href="#DejaVuSans-105"/>
      <use x="154.541016" xlink:href="#DejaVuSans-102"/>
      <use x="189.746094" xlink:href="#DejaVuSans-111"/>
      <use x="250.927734" xlink:href="#DejaVuSans-114"/>
      <use x="292.025391" xlink:href="#DejaVuSans-109"/>
      <use x="389.4375" xlink:href="#DejaVuSans-44"/>
      <use x="421.224609" xlink:href="#DejaVuSans-32"/>
      <use x="453.011719" xlink:href="#DejaVuSans-98"/>
      <use x="516.488281" xlink:href="#DejaVuSans-32"/>
      <use x="548.275391" xlink:href="#DejaVuSans-61"/>
      <use x="632.064453" xlink:href="#DejaVuSans-32"/>
      <use x="663.851562" xlink:href="#DejaVuSans-49"/>
     </g>
    </g>
    <g id="line2d_29">
     <path d="M 246.370313 209.914687 
L 266.370313 209.914687 
" style="fill:none;stroke:#f08080;stroke-linecap:square;stroke-width:1.5;"/>
    </g>
    <g id="line2d_30"/>
    <g id="text_22">
     <!-- uniform, b = 3 -->
     <g transform="translate(274.370313 213.414687)scale(0.1 -0.1)">
      <use xlink:href="#DejaVuSans-117"/>
      <use x="63.378906" xlink:href="#DejaVuSans-110"/>
      <use x="126.757812" xlink:href="#DejaVuSans-105"/>
      <use x="154.541016" xlink:href="#DejaVuSans-102"/>
      <use x="189.746094" xlink:href="#DejaVuSans-111"/>
      <use x="250.927734" xlink:href="#DejaVuSans-114"/>
      <use x="292.025391" xlink:href="#DejaVuSans-109"/>
      <use x="389.4375" xlink:href="#DejaVuSans-44"/>
      <use x="421.224609" xlink:href="#DejaVuSans-32"/>
      <use x="453.011719" xlink:href="#DejaVuSans-98"/>
      <use x="516.488281" xlink:href="#DejaVuSans-32"/>
      <use x="548.275391" xlink:href="#DejaVuSans-61"/>
      <use x="632.064453" xlink:href="#DejaVuSans-32"/>
      <use x="663.851562" xlink:href="#DejaVuSans-51"/>
     </g>
    </g>
    <g id="line2d_31">
     <path d="M 246.370313 224.592812 
L 266.370313 224.592812 
" style="fill:none;stroke:#87cefa;stroke-linecap:square;stroke-width:1.5;"/>
    </g>
    <g id="line2d_32"/>
    <g id="text_23">
     <!-- uniform, b = 10 -->
     <g transform="translate(274.370313 228.092812)scale(0.1 -0.1)">
      <use xlink:href="#DejaVuSans-117"/>
      <use x="63.378906" xlink:href="#DejaVuSans-110"/>
      <use x="126.757812" xlink:href="#DejaVuSans-105"/>
      <use x="154.541016" xlink:href="#DejaVuSans-102"/>
      <use x="189.746094" xlink:href="#DejaVuSans-111"/>
      <use x="250.927734" xlink:href="#DejaVuSans-114"/>
      <use x="292.025391" xlink:href="#DejaVuSans-109"/>
      <use x="389.4375" xlink:href="#DejaVuSans-44"/>
      <use x="421.224609" xlink:href="#DejaVuSans-32"/>
      <use x="453.011719" xlink:href="#DejaVuSans-98"/>
      <use x="516.488281" xlink:href="#DejaVuSans-32"/>
      <use x="548.275391" xlink:href="#DejaVuSans-61"/>
      <use x="632.064453" xlink:href="#DejaVuSans-32"/>
      <use x="663.851562" xlink:href="#DejaVuSans-49"/>
      <use x="727.474609" xlink:href="#DejaVuSans-48"/>
     </g>
    </g>
   </g>
  </g>
 </g>
 <defs>
  <clipPath id="p83e21e5b03">
   <rect height="332.64" width="334.8" x="34.240625" y="22.318125"/>
  </clipPath>
 </defs>
</svg>
